<?xml version="1.0" encoding="UTF-8"?>
<!DOCTYPE svg PUBLIC "-//W3C//DTD SVG 1.1//EN" "http://www.w3.org/Graphics/SVG/1.1/DTD/svg11.dtd">
<svg width="297pt" height="347pt" viewBox="0 0 297 347" version="1.1" xmlns="http://www.w3.org/2000/svg">
<g id="#ffffffff">
</g>
<g id="#010101ff">
<path fill="#010101" opacity="1.00" d=" M 139.39 0.00 L 139.52 0.00 C 146.86 7.12 153.94 14.52 161.33 21.59 C 129.44 53.28 97.71 85.13 65.81 116.81 C 51.20 131.59 36.23 146.03 21.81 161.00 C 14.43 153.89 7.30 146.52 0.00 139.33 L 0.00 138.03 L 0.01 139.26 C 46.42 92.79 93.00 46.49 139.39 0.00 Z"/>
<path fill="#010101" opacity="1.00" d=" M 145.41 56.28 C 154.47 49.12 166.55 46.15 177.93 47.85 C 191.11 49.43 203.11 57.70 209.88 69.02 C 216.69 80.13 217.32 94.54 212.35 106.48 C 206.73 118.12 197.08 127.02 188.04 135.98 C 182.32 141.40 176.36 147.28 168.51 149.37 C 163.54 150.81 158.39 149.64 153.48 148.57 C 154.46 153.30 154.97 158.22 154.08 163.00 C 152.70 169.37 148.56 174.63 144.30 179.37 C 137.36 186.73 130.18 193.85 122.80 200.76 C 117.54 205.38 112.13 210.15 105.47 212.60 C 95.28 215.94 83.77 216.39 73.83 211.95 C 61.47 206.25 51.57 195.12 47.89 181.95 C 44.80 171.88 46.41 160.67 51.69 151.61 C 56.99 142.42 65.62 135.93 72.69 128.20 C 80.01 135.98 87.84 143.27 95.26 150.95 C 91.41 154.20 88.10 158.02 84.43 161.46 C 81.96 163.75 79.91 166.61 79.12 169.93 C 77.73 177.02 84.84 184.45 92.01 183.20 C 95.81 182.72 98.85 180.12 101.44 177.49 C 107.95 170.94 114.52 164.46 121.05 157.94 C 124.24 154.53 128.37 150.14 126.60 145.06 C 124.30 139.77 120.02 135.64 115.88 131.75 C 122.66 125.10 129.48 118.49 136.07 111.65 C 140.31 115.27 143.96 119.87 149.24 122.07 C 153.60 123.87 158.01 120.99 161.05 118.05 C 167.60 111.58 174.16 105.12 180.62 98.55 C 183.59 95.58 185.10 90.83 183.25 86.88 C 181.34 82.57 177.04 78.62 172.06 78.95 C 168.04 78.67 164.64 81.32 162.07 84.10 C 158.53 87.82 154.64 91.21 151.34 95.14 C 143.58 87.75 136.31 79.86 128.49 72.53 C 134.29 67.28 139.36 61.26 145.41 56.28 Z"/>
<path fill="#010101" opacity="1.00" d=" M 214.58 128.51 C 223.45 119.46 232.60 110.69 241.36 101.54 C 245.83 105.50 249.75 110.03 254.17 114.04 C 252.58 115.80 250.89 117.47 249.25 119.19 C 246.94 116.65 244.43 114.30 242.07 111.81 C 240.23 113.82 238.32 115.77 236.26 117.55 C 238.32 119.85 240.60 121.92 242.87 124.00 C 241.21 125.61 239.59 127.27 238.02 128.97 C 235.94 126.68 233.68 124.57 231.57 122.31 C 229.46 124.59 227.27 126.78 225.03 128.92 C 227.46 131.26 229.87 133.64 232.34 135.95 C 230.73 137.65 229.00 139.22 227.43 140.95 C 222.95 137.01 219.14 132.36 214.58 128.51 Z"/>
<path fill="#010101" opacity="1.00" d=" M 230.48 144.30 C 239.40 135.44 248.37 126.61 257.14 117.61 C 260.00 119.97 262.41 122.82 265.11 125.35 C 259.73 133.61 254.53 141.99 248.70 149.94 C 256.62 144.03 265.14 139.01 273.29 133.43 C 275.84 136.01 278.23 138.78 281.10 141.04 C 280.44 142.03 279.66 142.93 278.78 143.72 C 270.46 151.77 262.52 160.20 254.10 168.14 C 252.46 166.31 250.71 164.59 248.88 162.96 C 253.18 158.87 257.27 154.57 261.57 150.49 C 264.81 147.43 268.34 144.65 271.21 141.22 C 262.93 147.85 253.58 152.90 244.85 158.86 C 243.27 157.15 241.62 155.52 239.90 153.97 C 245.46 144.77 251.24 135.72 257.52 126.98 C 250.48 134.76 243.17 142.26 235.70 149.61 C 233.91 147.89 232.15 146.14 230.48 144.30 Z"/>
<path fill="#010101" opacity="1.00" d=" M 181.48 161.38 C 190.39 152.84 198.90 143.90 207.78 135.32 C 211.12 138.69 214.29 142.25 217.91 145.34 C 212.88 150.20 208.13 155.35 202.95 160.05 C 206.85 164.22 211.09 168.07 215.02 172.22 C 219.33 167.74 223.93 163.54 228.07 158.90 C 231.68 161.82 234.48 165.62 238.18 168.44 C 234.14 173.32 229.32 177.59 224.77 182.02 C 229.35 186.45 233.92 190.90 238.27 195.55 C 243.21 190.53 248.18 185.54 253.17 180.56 C 256.24 184.27 260.40 187.28 263.09 191.13 C 254.36 199.75 245.63 208.38 237.06 217.17 C 218.77 198.35 199.87 180.11 181.48 161.38 Z"/>
<path fill="#010101" opacity="1.00" d=" M 257.58 171.57 C 266.37 162.40 275.57 153.62 284.43 144.52 C 288.53 148.83 292.81 152.97 297.00 157.19 L 297.00 157.35 C 295.31 158.93 293.67 160.55 292.06 162.20 C 289.76 159.71 287.32 157.34 285.00 154.87 C 283.07 156.88 281.09 158.86 279.14 160.85 C 281.34 162.92 283.53 165.01 285.69 167.12 C 284.06 168.71 282.46 170.32 280.90 171.97 C 278.73 169.77 276.56 167.57 274.31 165.47 C 272.26 167.73 270.11 169.90 267.88 171.99 C 270.36 174.30 272.77 176.70 275.25 179.03 C 273.50 180.66 271.81 182.37 270.22 184.16 C 266.08 179.90 261.88 175.68 257.58 171.57 Z"/>
<path fill="#010101" opacity="1.00" d=" M 163.23 179.69 C 167.03 175.97 170.68 172.10 174.56 168.47 C 186.70 180.66 198.90 192.79 211.07 204.95 C 216.29 210.21 221.78 216.31 222.33 224.07 C 222.88 230.82 219.04 237.01 214.33 241.51 C 210.03 245.95 204.38 249.58 198.03 249.78 C 191.36 249.53 185.50 245.72 180.73 241.34 C 167.36 228.29 154.41 214.82 140.96 201.87 C 144.74 198.12 148.60 194.43 152.21 190.50 C 163.45 201.67 174.66 212.87 185.85 224.08 C 189.67 228.01 193.16 232.65 198.41 234.75 C 203.59 236.56 209.42 230.65 207.43 225.52 C 205.60 220.75 201.41 217.53 197.82 214.13 C 186.27 202.66 174.81 191.12 163.23 179.69 Z"/>
<path fill="#010101" opacity="1.00" d=" M 119.51 223.30 C 123.79 218.72 129.58 214.56 136.17 215.19 C 144.25 216.46 150.25 222.74 155.19 228.78 C 158.56 232.78 160.01 238.49 157.34 243.25 C 162.19 240.28 167.80 243.02 171.73 246.22 C 178.22 251.61 183.77 258.90 192.21 261.30 C 191.90 262.49 190.88 263.24 190.05 264.07 C 186.70 267.19 183.68 270.68 180.20 273.68 C 172.76 270.71 168.04 264.05 162.06 259.10 C 159.67 257.29 156.49 255.01 153.42 256.58 C 150.63 257.96 148.77 260.60 146.56 262.71 C 154.18 270.02 161.49 277.66 169.07 285.02 C 165.15 288.82 161.33 292.71 157.52 296.61 C 138.99 278.01 120.45 259.43 101.75 240.99 C 107.74 235.16 113.62 229.22 119.51 223.30 M 122.79 238.99 C 127.80 243.68 132.45 248.73 137.44 253.44 C 140.13 249.66 145.78 247.19 145.13 241.81 C 141.86 237.71 138.45 232.63 133.04 231.39 C 128.46 231.70 125.91 236.18 122.79 238.99 Z"/>
<path fill="#010101" opacity="1.00" d=" M 144.22 322.47 C 144.67 322.06 145.56 321.25 146.01 320.84 C 146.01 323.53 146.01 326.23 146.00 328.93 C 145.43 328.28 144.85 327.64 144.28 327.00 C 139.09 327.00 133.90 327.02 128.71 326.99 C 128.70 328.42 128.69 329.86 128.67 331.31 C 131.91 331.33 135.15 331.31 138.39 331.34 C 139.08 330.90 139.77 330.45 140.46 330.01 C 140.38 332.36 140.35 334.71 140.48 337.06 C 136.94 334.95 132.61 336.27 128.71 335.88 C 128.71 337.61 128.70 339.34 128.68 341.08 C 133.79 340.94 138.89 341.01 144.00 341.02 C 144.50 340.59 145.49 339.73 145.99 339.30 C 145.97 341.86 145.98 344.43 146.03 347.00 L 145.93 347.00 C 145.42 346.71 144.39 346.14 143.87 345.85 C 135.85 345.30 127.75 346.06 119.71 345.52 C 120.21 345.15 121.21 344.40 121.71 344.03 C 121.69 337.42 121.70 330.80 121.72 324.19 C 121.07 323.62 120.42 323.04 119.78 322.47 C 127.92 322.37 136.07 322.46 144.22 322.47 Z"/>
<path fill="#010101" opacity="1.00" d=" M 8.16 322.35 C 11.33 322.70 14.65 321.83 17.70 322.83 C 17.33 323.10 16.59 323.63 16.22 323.90 C 16.32 328.28 16.05 332.68 16.35 337.07 C 16.31 338.33 17.51 339.03 18.18 339.93 C 20.97 340.43 24.68 341.05 26.73 338.58 C 27.94 334.04 27.00 329.26 27.37 324.62 C 26.95 323.86 26.53 323.11 26.12 322.35 C 29.07 322.41 32.03 322.52 34.98 322.27 C 32.62 327.67 35.05 333.86 33.59 339.46 C 32.14 344.32 26.65 346.16 22.04 346.10 C 17.91 346.12 12.98 345.15 10.76 341.25 C 7.50 335.42 11.69 327.91 8.16 322.35 Z"/>
<path fill="#010101" opacity="1.00" d=" M 40.45 322.56 C 44.65 322.21 48.90 322.77 53.11 322.33 C 52.87 322.84 52.40 323.86 52.16 324.37 C 55.40 327.63 58.26 331.30 61.76 334.29 C 61.64 330.99 61.54 327.69 61.57 324.39 C 60.98 323.75 60.45 323.08 59.98 322.35 C 62.96 322.54 65.94 322.39 68.91 322.46 C 70.38 322.67 68.27 323.75 68.12 324.10 C 67.82 330.72 68.07 337.37 67.97 344.01 C 68.58 344.60 69.19 345.21 69.80 345.81 C 66.31 345.72 62.80 345.48 59.32 346.02 C 59.78 345.51 60.70 344.51 61.15 344.00 C 57.03 339.24 52.45 334.89 48.33 330.12 C 48.29 334.58 48.35 339.05 48.36 343.52 C 48.69 344.11 49.34 345.28 49.67 345.86 C 46.62 345.60 43.55 345.65 40.50 345.84 C 40.86 345.25 41.59 344.06 41.95 343.46 C 41.94 337.26 41.94 331.07 41.93 324.87 C 42.14 323.68 40.47 323.60 40.45 322.56 Z"/>
<path fill="#010101" opacity="1.00" d=" M 75.09 322.33 C 78.38 322.55 81.68 322.44 84.98 322.41 C 86.79 322.39 84.52 323.97 83.98 324.03 C 83.74 330.66 83.98 337.31 83.86 343.96 C 84.56 344.54 85.27 345.12 85.96 345.72 C 82.31 345.73 78.65 345.71 75.00 345.71 C 75.43 345.01 76.00 344.46 76.72 344.06 C 76.75 337.39 76.79 330.73 76.72 324.07 C 75.96 323.67 75.42 323.09 75.09 322.33 Z"/>
<path fill="#010101" opacity="1.00" d=" M 89.20 322.45 C 92.73 322.46 96.27 322.56 99.80 322.36 C 99.43 322.77 98.70 323.57 98.34 323.97 C 99.80 328.30 101.62 332.51 102.83 336.93 C 105.20 333.03 106.32 328.46 108.47 324.42 C 108.06 323.76 107.64 323.10 107.22 322.44 C 110.30 322.68 113.44 322.08 116.48 322.70 C 114.23 324.75 113.74 327.88 112.48 330.52 C 110.54 334.85 109.01 339.35 106.99 343.65 C 107.21 344.19 107.65 345.26 107.87 345.80 C 104.29 345.71 100.71 345.55 97.14 345.85 C 97.30 345.24 97.61 344.04 97.76 343.43 C 95.51 337.33 93.72 331.06 91.20 325.05 C 90.72 324.04 89.89 323.30 89.20 322.45 Z"/>
<path fill="#010101" opacity="1.00" d=" M 151.04 322.17 C 157.41 322.83 163.83 322.10 170.20 322.63 C 174.39 322.80 177.76 327.06 176.66 331.16 C 176.26 334.16 173.47 335.89 170.90 336.92 C 173.11 339.92 174.76 343.37 177.74 345.74 C 174.01 345.78 170.29 345.55 166.57 345.85 C 166.90 345.37 167.56 344.40 167.88 343.91 C 166.68 341.54 165.37 339.21 163.89 337.00 C 162.28 336.83 160.66 336.88 159.05 336.84 C 159.02 339.29 159.01 341.74 158.99 344.19 C 159.44 344.54 160.32 345.24 160.76 345.59 C 157.62 345.72 154.47 345.78 151.33 345.73 C 151.90 344.56 152.17 343.33 152.15 342.04 C 152.16 336.22 152.02 330.39 152.20 324.57 C 151.81 323.77 151.43 322.97 151.04 322.17 M 158.92 326.87 C 158.98 328.76 158.98 330.65 158.91 332.55 C 161.90 332.57 164.90 332.70 167.89 332.44 C 170.65 332.05 170.94 327.54 168.08 327.06 C 165.03 326.90 161.97 327.10 158.92 326.87 Z"/>
<path fill="#010101" opacity="1.00" d=" M 183.93 325.95 C 187.11 322.27 192.53 321.75 197.07 322.24 C 200.30 322.43 203.55 324.08 206.76 322.87 C 205.56 325.24 204.42 327.64 203.16 329.99 C 201.19 326.40 196.39 327.04 192.91 327.00 C 191.36 326.77 187.95 328.50 189.81 330.14 C 194.59 332.21 200.64 330.61 204.89 334.16 C 208.09 336.70 206.90 341.98 203.65 343.94 C 199.62 346.24 194.67 346.57 190.19 345.56 C 187.31 345.15 184.41 343.70 181.50 344.74 C 182.49 342.35 183.16 339.86 183.85 337.38 C 185.46 340.31 189.03 340.69 192.02 341.03 C 194.90 341.16 198.45 341.73 200.36 338.98 C 196.12 335.02 189.30 337.74 184.72 334.27 C 181.76 332.59 181.77 328.28 183.93 325.95 Z"/>
<path fill="#010101" opacity="1.00" d=" M 218.34 322.30 C 221.93 322.62 225.55 322.58 229.15 322.36 C 229.08 322.96 228.95 324.15 228.89 324.75 C 232.90 331.55 235.19 339.27 239.60 345.84 C 236.66 345.67 233.71 345.59 230.77 345.88 C 231.32 344.16 230.65 342.54 229.93 341.00 C 225.74 341.02 221.56 340.98 217.38 341.01 C 216.64 342.55 215.91 344.14 216.42 345.87 C 213.73 345.63 211.03 345.71 208.34 345.66 C 212.04 341.51 213.24 335.79 215.79 330.92 C 216.59 328.04 219.49 325.44 218.34 322.30 M 223.33 327.93 C 222.19 331.12 220.61 334.12 219.26 337.22 C 222.15 337.17 225.04 337.17 227.94 337.25 C 226.49 334.10 225.15 330.88 223.33 327.93 Z"/>
<path fill="#010101" opacity="1.00" d=" M 242.87 322.57 C 246.23 322.25 249.61 322.56 252.97 322.25 C 252.59 323.03 252.21 323.82 251.83 324.61 C 251.86 329.80 251.87 335.00 251.79 340.20 C 257.21 339.68 262.89 341.08 268.12 339.23 C 267.68 341.80 267.79 344.40 267.75 347.00 L 266.73 347.00 L 266.55 346.37 C 265.96 346.20 264.78 345.84 264.19 345.66 C 257.11 345.71 250.03 345.61 242.95 345.77 C 243.50 345.15 244.07 344.53 244.63 343.91 C 244.71 337.93 244.68 331.95 244.69 325.97 C 245.02 324.44 243.85 323.49 242.87 322.57 Z"/>
</g>
</svg>