<?xml version="1.0" encoding="UTF-8" standalone="no"?>
<!-- Created with Inkscape (http://www.inkscape.org/) -->

<svg
   xmlns:dc="http://purl.org/dc/elements/1.1/"
   xmlns:cc="http://creativecommons.org/ns#"
   xmlns:rdf="http://www.w3.org/1999/02/22-rdf-syntax-ns#"
   xmlns:svg="http://www.w3.org/2000/svg"
   xmlns="http://www.w3.org/2000/svg"
   version="1.1"
   width="50"
   height="59"
   viewBox="0 0 40 47.2"
   id="svg2">
  <metadata
     id="metadata44">
    <rdf:RDF>
      <cc:Work
         rdf:about="">
        <dc:format>image/svg+xml</dc:format>
        <dc:type
           rdf:resource="http://purl.org/dc/dcmitype/StillImage" />
        <dc:title></dc:title>
      </cc:Work>
    </rdf:RDF>
  </metadata>
  <defs
     id="defs42" />
  <g
     transform="translate(0,-299.8)"
     id="#ffffffff" />
  <g
     transform="matrix(0.13468013,0,0,0.13468013,0,0.46599)"
     id="#010101ff">
    <path
       d="m 139.39,0 0.13,0 c 7.34,7.12 14.42,14.52 21.81,21.59 C 129.44,53.28 97.71,85.13 65.81,116.81 51.2,131.59 36.23,146.03 21.81,161 14.43,153.89 7.3,146.52 0,139.33 l 0,-1.3 0.01,1.23 C 46.42,92.79 93,46.49 139.39,0 z"
       id="path6"
       style="fill:#010101" />
    <path
       d="m 145.41,56.28 c 9.06,-7.16 21.14,-10.13 32.52,-8.43 13.18,1.58 25.18,9.85 31.95,21.17 6.81,11.11 7.44,25.52 2.47,37.46 -5.62,11.64 -15.27,20.54 -24.31,29.5 -5.72,5.42 -11.68,11.3 -19.53,13.39 -4.97,1.44 -10.12,0.27 -15.03,-0.8 0.98,4.73 1.49,9.65 0.6,14.43 -1.38,6.37 -5.52,11.63 -9.78,16.37 -6.94,7.36 -14.12,14.48 -21.5,21.39 -5.26,4.62 -10.67,9.39 -17.33,11.84 -10.19,3.34 -21.7,3.79 -31.64,-0.65 -12.36,-5.7 -22.26,-16.83 -25.94,-30 -3.09,-10.07 -1.48,-21.28 3.8,-30.34 5.3,-9.19 13.93,-15.68 21,-23.41 7.32,7.78 15.15,15.07 22.57,22.75 -3.85,3.25 -7.16,7.07 -10.83,10.51 -2.47,2.29 -4.52,5.15 -5.31,8.47 -1.39,7.09 5.72,14.52 12.89,13.27 3.8,-0.48 6.84,-3.08 9.43,-5.71 6.51,-6.55 13.08,-13.03 19.61,-19.55 3.19,-3.41 7.32,-7.8 5.55,-12.88 -2.3,-5.29 -6.58,-9.42 -10.72,-13.31 6.78,-6.65 13.6,-13.26 20.19,-20.1 4.24,3.62 7.89,8.22 13.17,10.42 4.36,1.8 8.77,-1.08 11.81,-4.02 6.55,-6.47 13.11,-12.93 19.57,-19.5 2.97,-2.97 4.48,-7.72 2.63,-11.67 -1.91,-4.31 -6.21,-8.26 -11.19,-7.93 -4.02,-0.28 -7.42,2.37 -9.99,5.15 -3.54,3.72 -7.43,7.11 -10.73,11.04 -7.76,-7.39 -15.03,-15.28 -22.85,-22.61 5.8,-5.25 10.87,-11.27 16.92,-16.25 z"
       id="path8"
       style="fill:#010101" />
    <path
       d="m 214.58,128.51 c 8.87,-9.05 18.02,-17.82 26.78,-26.97 4.47,3.96 8.39,8.49 12.81,12.5 -1.59,1.76 -3.28,3.43 -4.92,5.15 -2.31,-2.54 -4.82,-4.89 -7.18,-7.38 -1.84,2.01 -3.75,3.96 -5.81,5.74 2.06,2.3 4.34,4.37 6.61,6.45 -1.66,1.61 -3.28,3.27 -4.85,4.97 -2.08,-2.29 -4.34,-4.4 -6.45,-6.66 -2.11,2.28 -4.3,4.47 -6.54,6.61 2.43,2.34 4.84,4.72 7.31,7.03 -1.61,1.7 -3.34,3.27 -4.91,5 -4.48,-3.94 -8.29,-8.59 -12.85,-12.44 z"
       id="path10"
       style="fill:#010101" />
    <path
       d="m 230.48,144.3 c 8.92,-8.86 17.89,-17.69 26.66,-26.69 2.86,2.36 5.27,5.21 7.97,7.74 -5.38,8.26 -10.58,16.64 -16.41,24.59 7.92,-5.91 16.44,-10.93 24.59,-16.51 2.55,2.58 4.94,5.35 7.81,7.61 -0.66,0.99 -1.44,1.89 -2.32,2.68 -8.32,8.05 -16.26,16.48 -24.68,24.42 -1.64,-1.83 -3.39,-3.55 -5.22,-5.18 4.3,-4.09 8.39,-8.39 12.69,-12.47 3.24,-3.06 6.77,-5.84 9.64,-9.27 -8.28,6.63 -17.63,11.68 -26.36,17.64 -1.58,-1.71 -3.23,-3.34 -4.95,-4.89 5.56,-9.2 11.34,-18.25 17.62,-26.99 -7.04,7.78 -14.35,15.28 -21.82,22.63 -1.79,-1.72 -3.55,-3.47 -5.22,-5.31 z"
       id="path12"
       style="fill:#010101" />
    <path
       d="m 181.48,161.38 c 8.91,-8.54 17.42,-17.48 26.3,-26.06 3.34,3.37 6.51,6.93 10.13,10.02 -5.03,4.86 -9.78,10.01 -14.96,14.71 3.9,4.17 8.14,8.02 12.07,12.17 4.31,-4.48 8.91,-8.68 13.05,-13.32 3.61,2.92 6.41,6.72 10.11,9.54 -4.04,4.88 -8.86,9.15 -13.41,13.58 4.58,4.43 9.15,8.88 13.5,13.53 4.94,-5.02 9.91,-10.01 14.9,-14.99 3.07,3.71 7.23,6.72 9.92,10.57 -8.73,8.62 -17.46,17.25 -26.03,26.04 -18.29,-18.82 -37.19,-37.06 -55.58,-55.79 z"
       id="path14"
       style="fill:#010101" />
    <path
       d="m 257.58,171.57 c 8.79,-9.17 17.99,-17.95 26.85,-27.05 4.1,4.31 8.38,8.45 12.57,12.67 l 0,0.16 c -1.69,1.58 -3.33,3.2 -4.94,4.85 -2.3,-2.49 -4.74,-4.86 -7.06,-7.33 -1.93,2.01 -3.91,3.99 -5.86,5.98 2.2,2.07 4.39,4.16 6.55,6.27 -1.63,1.59 -3.23,3.2 -4.79,4.85 -2.17,-2.2 -4.34,-4.4 -6.59,-6.5 -2.05,2.26 -4.2,4.43 -6.43,6.52 2.48,2.31 4.89,4.71 7.37,7.04 -1.75,1.63 -3.44,3.34 -5.03,5.13 -4.14,-4.26 -8.34,-8.48 -12.64,-12.59 z"
       id="path16"
       style="fill:#010101" />
    <path
       d="m 163.23,179.69 c 3.8,-3.72 7.45,-7.59 11.33,-11.22 12.14,12.19 24.34,24.32 36.51,36.48 5.22,5.26 10.71,11.36 11.26,19.12 0.55,6.75 -3.29,12.94 -8,17.44 -4.3,4.44 -9.95,8.07 -16.3,8.27 -6.67,-0.25 -12.53,-4.06 -17.3,-8.44 -13.37,-13.05 -26.32,-26.52 -39.77,-39.47 3.78,-3.75 7.64,-7.44 11.25,-11.37 11.24,11.17 22.45,22.37 33.64,33.58 3.82,3.93 7.31,8.57 12.56,10.67 5.18,1.81 11.01,-4.1 9.02,-9.23 -1.83,-4.77 -6.02,-7.99 -9.61,-11.39 -11.55,-11.47 -23.01,-23.01 -34.59,-34.44 z"
       id="path18"
       style="fill:#010101" />
    <path
       d="m 119.51,223.3 c 4.28,-4.58 10.07,-8.74 16.66,-8.11 8.08,1.27 14.08,7.55 19.02,13.59 3.37,4 4.82,9.71 2.15,14.47 4.85,-2.97 10.46,-0.23 14.39,2.97 6.49,5.39 12.04,12.68 20.48,15.08 -0.31,1.19 -1.33,1.94 -2.16,2.77 -3.35,3.12 -6.37,6.61 -9.85,9.61 -7.44,-2.97 -12.16,-9.63 -18.14,-14.58 -2.39,-1.81 -5.57,-4.09 -8.64,-2.52 -2.79,1.38 -4.65,4.02 -6.86,6.13 7.62,7.31 14.93,14.95 22.51,22.31 -3.92,3.8 -7.74,7.69 -11.55,11.59 -18.53,-18.6 -37.07,-37.18 -55.77,-55.62 5.99,-5.83 11.87,-11.77 17.76,-17.69 m 3.28,15.69 c 5.01,4.69 9.66,9.74 14.65,14.45 2.69,-3.78 8.34,-6.25 7.69,-11.63 -3.27,-4.1 -6.68,-9.18 -12.09,-10.42 -4.58,0.31 -7.13,4.79 -10.25,7.6 z"
       id="path20"
       style="fill:#010101" />
    <path
       d="m 144.22,322.47 c 0.45,-0.41 1.34,-1.22 1.79,-1.63 0,2.69 0,5.39 -0.01,8.09 -0.57,-0.65 -1.15,-1.29 -1.72,-1.93 -5.19,0 -10.38,0.02 -15.57,-0.01 -0.01,1.43 -0.02,2.87 -0.04,4.32 3.24,0.02 6.48,0 9.72,0.03 0.69,-0.44 1.38,-0.89 2.07,-1.33 -0.08,2.35 -0.11,4.7 0.02,7.05 -3.54,-2.11 -7.87,-0.79 -11.77,-1.18 0,1.73 -0.01,3.46 -0.03,5.2 5.11,-0.14 10.21,-0.07 15.32,-0.06 0.5,-0.43 1.49,-1.29 1.99,-1.72 -0.02,2.56 -0.01,5.13 0.04,7.7 l -0.1,0 c -0.51,-0.29 -1.54,-0.86 -2.06,-1.15 -8.02,-0.55 -16.12,0.21 -24.16,-0.33 0.5,-0.37 1.5,-1.12 2,-1.49 -0.02,-6.61 -0.01,-13.23 0.01,-19.84 -0.65,-0.57 -1.3,-1.15 -1.94,-1.72 8.14,-0.1 16.29,-0.01 24.44,0 z"
       id="path22"
       style="fill:#010101" />
    <path
       d="m 8.16,322.35 c 3.17,0.35 6.49,-0.52 9.54,0.48 -0.37,0.27 -1.11,0.8 -1.48,1.07 0.1,4.38 -0.17,8.78 0.13,13.17 -0.04,1.26 1.16,1.96 1.83,2.86 2.79,0.5 6.5,1.12 8.55,-1.35 1.21,-4.54 0.27,-9.32 0.64,-13.96 -0.42,-0.76 -0.84,-1.51 -1.25,-2.27 2.95,0.06 5.91,0.17 8.86,-0.08 -2.36,5.4 0.07,11.59 -1.39,17.19 -1.45,4.86 -6.94,6.7 -11.55,6.64 -4.13,0.02 -9.06,-0.95 -11.28,-4.85 -3.26,-5.83 0.93,-13.34 -2.6,-18.9 z"
       id="path24"
       style="fill:#010101" />
    <path
       d="m 40.45,322.56 c 4.2,-0.35 8.45,0.21 12.66,-0.23 -0.24,0.51 -0.71,1.53 -0.95,2.04 3.24,3.26 6.1,6.93 9.6,9.92 -0.12,-3.3 -0.22,-6.6 -0.19,-9.9 -0.59,-0.64 -1.12,-1.31 -1.59,-2.04 2.98,0.19 5.96,0.04 8.93,0.11 1.47,0.21 -0.64,1.29 -0.79,1.64 -0.3,6.62 -0.05,13.27 -0.15,19.91 0.61,0.59 1.22,1.2 1.83,1.8 -3.49,-0.09 -7,-0.33 -10.48,0.21 0.46,-0.51 1.38,-1.51 1.83,-2.02 -4.12,-4.76 -8.7,-9.11 -12.82,-13.88 -0.04,4.46 0.02,8.93 0.03,13.4 0.33,0.59 0.98,1.76 1.31,2.34 -3.05,-0.26 -6.12,-0.21 -9.17,-0.02 0.36,-0.59 1.09,-1.78 1.45,-2.38 -0.01,-6.2 -0.01,-12.39 -0.02,-18.59 0.21,-1.19 -1.46,-1.27 -1.48,-2.31 z"
       id="path26"
       style="fill:#010101" />
    <path
       d="m 75.09,322.33 c 3.29,0.22 6.59,0.11 9.89,0.08 1.81,-0.02 -0.46,1.56 -1,1.62 -0.24,6.63 0,13.28 -0.12,19.93 0.7,0.58 1.41,1.16 2.1,1.76 -3.65,0.01 -7.31,-0.01 -10.96,-0.01 0.43,-0.7 1,-1.25 1.72,-1.65 0.03,-6.67 0.07,-13.33 0,-19.99 -0.76,-0.4 -1.3,-0.98 -1.63,-1.74 z"
       id="path28"
       style="fill:#010101" />
    <path
       d="m 89.2,322.45 c 3.53,0.01 7.07,0.11 10.6,-0.09 -0.37,0.41 -1.1,1.21 -1.46,1.61 1.46,4.33 3.28,8.54 4.49,12.96 2.37,-3.9 3.49,-8.47 5.64,-12.51 -0.41,-0.66 -0.83,-1.32 -1.25,-1.98 3.08,0.24 6.22,-0.36 9.26,0.26 -2.25,2.05 -2.74,5.18 -4,7.82 -1.94,4.33 -3.47,8.83 -5.49,13.13 0.22,0.54 0.66,1.61 0.88,2.15 -3.58,-0.09 -7.16,-0.25 -10.73,0.05 0.16,-0.61 0.47,-1.81 0.62,-2.42 -2.25,-6.1 -4.04,-12.37 -6.56,-18.38 -0.48,-1.01 -1.31,-1.75 -2,-2.6 z"
       id="path30"
       style="fill:#010101" />
    <path
       d="m 151.04,322.17 c 6.37,0.66 12.79,-0.07 19.16,0.46 4.19,0.17 7.56,4.43 6.46,8.53 -0.4,3 -3.19,4.73 -5.76,5.76 2.21,3 3.86,6.45 6.84,8.82 -3.73,0.04 -7.45,-0.19 -11.17,0.11 0.33,-0.48 0.99,-1.45 1.31,-1.94 -1.2,-2.37 -2.51,-4.7 -3.99,-6.91 -1.61,-0.17 -3.23,-0.12 -4.84,-0.16 -0.03,2.45 -0.04,4.9 -0.06,7.35 0.45,0.35 1.33,1.05 1.77,1.4 -3.14,0.13 -6.29,0.19 -9.43,0.14 0.57,-1.17 0.84,-2.4 0.82,-3.69 0.01,-5.82 -0.13,-11.65 0.05,-17.47 -0.39,-0.8 -0.77,-1.6 -1.16,-2.4 m 7.88,4.7 c 0.06,1.89 0.06,3.78 -0.01,5.68 2.99,0.02 5.99,0.15 8.98,-0.11 2.76,-0.39 3.05,-4.9 0.19,-5.38 -3.05,-0.16 -6.11,0.04 -9.16,-0.19 z"
       id="path32"
       style="fill:#010101" />
    <path
       d="m 183.93,325.95 c 3.18,-3.68 8.6,-4.2 13.14,-3.71 3.23,0.19 6.48,1.84 9.69,0.63 -1.2,2.37 -2.34,4.77 -3.6,7.12 -1.97,-3.59 -6.77,-2.95 -10.25,-2.99 -1.55,-0.23 -4.96,1.5 -3.1,3.14 4.78,2.07 10.83,0.47 15.08,4.02 3.2,2.54 2.01,7.82 -1.24,9.78 -4.03,2.3 -8.98,2.63 -13.46,1.62 -2.88,-0.41 -5.78,-1.86 -8.69,-0.82 0.99,-2.39 1.66,-4.88 2.35,-7.36 1.61,2.93 5.18,3.31 8.17,3.65 2.88,0.13 6.43,0.7 8.34,-2.05 -4.24,-3.96 -11.06,-1.24 -15.64,-4.71 -2.96,-1.68 -2.95,-5.99 -0.79,-8.32 z"
       id="path34"
       style="fill:#010101" />
    <path
       d="m 218.34,322.3 c 3.59,0.32 7.21,0.28 10.81,0.06 -0.07,0.6 -0.2,1.79 -0.26,2.39 4.01,6.8 6.3,14.52 10.71,21.09 -2.94,-0.17 -5.89,-0.25 -8.83,0.04 0.55,-1.72 -0.12,-3.34 -0.84,-4.88 -4.19,0.02 -8.37,-0.02 -12.55,0.01 -0.74,1.54 -1.47,3.13 -0.96,4.86 -2.69,-0.24 -5.39,-0.16 -8.08,-0.21 3.7,-4.15 4.9,-9.87 7.45,-14.74 0.8,-2.88 3.7,-5.48 2.55,-8.62 m 4.99,5.63 c -1.14,3.19 -2.72,6.19 -4.07,9.29 2.89,-0.05 5.78,-0.05 8.68,0.03 -1.45,-3.15 -2.79,-6.37 -4.61,-9.32 z"
       id="path36"
       style="fill:#010101" />
    <path
       d="m 242.87,322.57 c 3.36,-0.32 6.74,-0.01 10.1,-0.32 -0.38,0.78 -0.76,1.57 -1.14,2.36 0.03,5.19 0.04,10.39 -0.04,15.59 5.42,-0.52 11.1,0.88 16.33,-0.97 -0.44,2.57 -0.33,5.17 -0.37,7.77 l -1.02,0 -0.18,-0.63 c -0.59,-0.17 -1.77,-0.53 -2.36,-0.71 -7.08,0.05 -14.16,-0.05 -21.24,0.11 0.55,-0.62 1.12,-1.24 1.68,-1.86 0.08,-5.98 0.05,-11.96 0.06,-17.94 0.33,-1.53 -0.84,-2.48 -1.82,-3.4 z"
       id="path38"
       style="fill:#010101" />
  </g>
</svg>
