<?xml version="1.0" encoding="UTF-8" standalone="no"?>
<!-- Created with Inkscape (http://www.inkscape.org/) -->

<svg
   xmlns:dc="http://purl.org/dc/elements/1.1/"
   xmlns:cc="http://creativecommons.org/ns#"
   xmlns:rdf="http://www.w3.org/1999/02/22-rdf-syntax-ns#"
   xmlns:svg="http://www.w3.org/2000/svg"
   xmlns="http://www.w3.org/2000/svg"
   version="1.1"
   width="50"
   height="36"
   viewBox="0 0 49.999999 35.999999"
   id="Calque_1"
   xml:space="preserve"><metadata
   id="metadata37"><rdf:RDF><cc:Work
       rdf:about=""><dc:format>image/svg+xml</dc:format><dc:type
         rdf:resource="http://purl.org/dc/dcmitype/StillImage" /><dc:title></dc:title></cc:Work></rdf:RDF></metadata><defs
   id="defs35" />
<g
   transform="matrix(0.10157688,0,0,0.10157688,0,0.03101538)"
   id="g3">
	<polygon
   points="36.874,106.406 38.135,163.966 89.26,151.311 88.685,119.933 "
   id="polygon5"
   style="fill:#925b45" />
	<polygon
   points="426.213,354.106 475.521,330.162 492.238,43.091 440.743,55.437 "
   id="polygon7"
   style="fill:#925b45" />
	<path
   d="m 208.67,84.676 0.312,-67.956 -48.311,-8.071 1.108,193.375 21.949,6.666 0.048,61.374 181.926,63.097 7.759,-213.315 -164.791,-35.17 z m 103.206,129.404 -0.811,32.652 -103.037,-31.262 0.331,-64.577 104.41,27.042 -0.895,36.144 0.002,0.001 z"
   id="path9"
   style="fill:#788da6" />
	<polygon
   points="261.518,73.027 262.443,7.474 208.982,16.72 208.67,84.676 "
   id="polygon11"
   style="fill:#456f8a" />
	<polygon
   points="208.359,150.894 208.028,215.47 259.633,199.358 260.146,164.312 "
   id="polygon13"
   style="fill:#456f8a" />
	<polygon
   points="36.874,106.406 36.874,106.395 0,96.84 3.908,207.736 183.776,270.064 183.729,208.69 161.779,202.024 161.041,74.442 35.185,47.551 36.391,89.578 36.394,89.577 36.874,106.395 117.497,127.251 118.312,188.126 38.135,163.966 "
   id="polygon15"
   style="fill:#d26f4e" />
	<polygon
   points="355.646,41.254 355.738,41.233 355.55,41.202 315.794,66.196 314.563,107.263 373.461,119.844 365.702,333.16 426.213,354.106 440.743,55.437 "
   id="polygon17"
   style="fill:#d26f4e" />
	<polygon
   points="38.135,163.966 118.312,188.126 117.923,159.362 89.26,151.311 "
   id="polygon19"
   style="fill:#e29c7a" />
	<polygon
   points="36.391,89.578 0,96.84 36.874,106.395 36.394,89.577 "
   id="polygon21"
   style="fill:#e29c7a" />
	<polygon
   points="355.646,41.254 440.743,55.437 492.238,43.091 405.894,29.689 355.738,41.233 "
   id="polygon23"
   style="fill:#e29c7a" />
	<polygon
   points="87.208,38.432 35.185,47.551 161.041,74.442 160.863,53.031 "
   id="polygon25"
   style="fill:#e29c7a" />
	<polygon
   points="214.219,0 160.671,8.649 208.982,16.72 262.443,7.474 "
   id="polygon27"
   style="fill:#97a8bd" />
	<polygon
   points="259.633,199.358 208.028,215.47 311.065,246.733 311.876,214.08 311.874,214.079 "
   id="polygon29"
   style="fill:#97a8bd" />
	<polygon
   points="315.138,83.659 261.518,73.027 208.67,84.676 314.563,107.263 "
   id="polygon31"
   style="fill:#97a8bd" />
</g>
</svg>