<?xml version="1.0" encoding="UTF-8" standalone="no"?>
<!-- Created with Inkscape (http://www.inkscape.org/) -->

<svg
   xmlns:dc="http://purl.org/dc/elements/1.1/"
   xmlns:cc="http://creativecommons.org/ns#"
   xmlns:rdf="http://www.w3.org/1999/02/22-rdf-syntax-ns#"
   xmlns:svg="http://www.w3.org/2000/svg"
   xmlns="http://www.w3.org/2000/svg"
   version="1.1"
   width="50"
   height="20"
   viewBox="0 0 49.999999 20"
   id="Layer_1"
   xml:space="preserve"><metadata
   id="metadata38"><rdf:RDF><cc:Work
       rdf:about=""><dc:format>image/svg+xml</dc:format><dc:type
         rdf:resource="http://purl.org/dc/dcmitype/StillImage" /><dc:title></dc:title></cc:Work></rdf:RDF></metadata><defs
   id="defs36" />

<g
   transform="matrix(0.10145507,0,0,0.10145507,-0.25364036,0.59665)"
   id="g4">
	<path
   d="m 381.126,55.586 c 3.093,-1.954 6.561,-3.269 10.254,-3.807 7.466,-0.928 18.452,-1.108 32.921,-0.313 -14.47,-0.796 -25.457,-0.614 -32.924,0.313 -3.693,0.537 -7.16,1.853 -10.255,3.807 -6.246,4.117 -7.757,8.815 -7.757,24.047 0,1.696 0,3.691 0,5.858 h 0.003 c 0,-2.167 0,-4.162 0,-5.858 0,-15.232 1.512,-19.93 7.758,-24.047 z"
   id="path6"
   style="fill:none" />
	<path
   d="m 404.167,127.544 c 5.428,0.381 11.389,0.434 16.657,0.234 1.083,-0.048 2.182,-0.09 3.266,-0.131 l 12.906,-0.929 c 8.963,-0.496 11.117,-2.111 11.117,-8.244 0,-3.418 -0.427,-5.433 -2.045,-6.591 1.616,1.158 2.042,3.173 2.042,6.587 0,6.135 -2.155,7.748 -11.117,8.244 l -12.906,0.931 c -1.084,0.041 -2.183,0.083 -3.267,0.131 -5.266,0.198 -11.229,0.146 -16.656,-0.235 -2.124,-0.179 -3.418,-0.474 -4.212,-1.532 0.794,1.061 2.089,1.357 4.215,1.535 z"
   id="path8"
   style="fill:none" />
	<path
   d="m 432.19,89.849 c 11.6,0.13 14.333,-1.371 14.333,-7.517 0,-3.785 -0.48,-5.772 -3.897,-6.902 3.414,1.13 3.895,3.117 3.895,6.901 0,6.146 -2.733,7.646 -14.334,7.517 L 413.7,89.639 v 21.031 h 0.003 V 89.64 l 18.487,0.209 z"
   id="path10"
   style="fill:none" />
	<path
   d="m 373.094,119.037 v -3.533 l 25.441,-0.558 c 0,-0.001 0,-0.001 0,-0.002 l -25.444,0.558 v 3.533 c 0,15.402 1.378,21.787 6.011,26.428 1.319,1.406 3.162,2.604 5.409,3.473 -2.245,-0.868 -4.087,-2.067 -5.405,-3.472 -4.634,-4.64 -6.012,-11.025 -6.012,-26.427 z"
   id="path12"
   style="fill:none" />
	<path
   d="M 132.44,22.094 33.437,10.282 c -0.804,-0.096 -1.615,-0.145 -2.41,-0.145 -11.907,0 -20.887,10.364 -20.887,24.107 v 125.264 c 0,13.74 8.983,24.102 20.896,24.103 10e-4,0 10e-4,0 0.002,0 0.792,0 1.6,-0.048 2.401,-0.144 l 99.001,-11.813 c 8.901,-1.063 16.144,-11.74 16.144,-23.801 V 45.896 C 148.583,33.832 141.342,23.155 132.44,22.094 z m -12.641,124.357 -6.406,-15.078 -52.665,2.434 -7.395,17.166 -31.625,2.147 47.164,-101.225 37.659,2.293 37.586,90.616 -24.318,1.647 z"
   id="path14"
   style="fill:#ffffff" />
	<polygon
   points="105.391,111.285 90.497,75.372 85.715,75.229 69.875,111.926 "
   id="polygon16"
   style="fill:#ffffff" />
	<path
   d="M 133.345,14.508 34.342,2.697 C 33.239,2.565 32.123,2.498 31.027,2.498 15.031,2.498 2.5,16.442 2.5,34.244 v 125.264 c 0,17.798 12.534,31.74 28.535,31.742 0.001,0 0.001,0 0.002,0 1.092,0 2.203,-0.066 3.305,-0.197 l 99.003,-11.813 c 12.828,-1.533 22.877,-15.319 22.877,-31.387 V 45.896 C 156.223,29.824 146.174,16.038 133.345,14.508 z m 15.238,133.346 c 0,12.061 -7.242,22.737 -16.144,23.801 l -99.001,11.813 c -0.801,0.096 -1.609,0.144 -2.401,0.144 0,0 -10e-4,0 -0.002,0 C 19.122,183.611 10.139,173.25 10.139,159.509 V 34.244 c 0,-13.743 8.979,-24.107 20.887,-24.107 0.795,0 1.606,0.049 2.41,0.145 l 99.003,11.812 c 8.901,1.061 16.143,11.738 16.143,23.802 v 101.958 z"
   id="path18"
   style="fill:#ed9b47" />
	<path
   d="M 301.994,22.094 202.99,10.282 c -0.804,-0.096 -1.615,-0.145 -2.41,-0.145 -11.909,0 -20.889,10.364 -20.889,24.108 v 125.263 c 0,13.74 8.983,24.103 20.896,24.103 h 0 c 0.793,0 1.602,-0.048 2.404,-0.144 l 99.002,-11.811 c 8.9,-1.063 16.143,-11.741 16.143,-23.803 V 45.896 c 10e-4,-12.064 -7.24,-22.741 -16.142,-23.802 z m 0.278,118.354 c -3.609,4.147 -8.117,5.54 -19.758,6.466 l -15.152,1.032 -60.217,4.091 V 49.981 l 60.098,3.666 13.703,0.837 c 10.068,0.755 14.398,1.833 17.506,4.595 4.031,3.731 5.717,9.463 5.717,19.684 0,13.445 -1.895,17.604 -9.58,21.126 4.932,1.211 6.729,2.148 8.42,4.424 2.519,3.336 3.67,8.815 3.67,16.317 0,9.507 -1.571,16.563 -4.407,19.818 z"
   id="path20"
   style="fill:#ffffff" />
	<path
   d="m 274.96,109.605 -7.484,0.116 -35.117,0.546 v 16.769 l 35.005,-1.315 7.143,-0.406 c 9.683,-0.362 11.125,-1.524 11.124,-8.42 0,-6.77 -0.886,-7.305 -10.671,-7.29 z"
   id="path22"
   style="fill:#ffffff" />
	<path
   d="m 282.856,83.427 c 0,-6.091 -1.238,-7.108 -9.612,-7.362 l -6.001,-0.32 -34.884,-1.076 v 15.577 l 35.005,0.359 c 14.151,0.148 15.492,-0.386 15.492,-7.178 z"
   id="path24"
   style="fill:#ffffff" />
	<path
   d="M 302.898,14.508 203.896,2.697 c -1.103,-0.132 -2.218,-0.199 -3.315,-0.199 -15.997,0 -28.528,13.945 -28.528,31.747 v 125.263 c 0,17.799 12.534,31.741 28.535,31.742 0,0 0,0 0.001,0 1.093,0 2.206,-0.066 3.308,-0.197 l 99.004,-11.811 c 12.828,-1.533 22.876,-15.32 22.876,-31.389 V 45.896 C 325.775,29.824 315.727,16.038 302.898,14.508 z m 15.239,133.346 c 0,12.062 -7.242,22.739 -16.143,23.803 l -99.002,11.811 c -0.802,0.096 -1.611,0.144 -2.404,0.144 h 0 c -11.913,0 -20.896,-10.362 -20.896,-24.103 V 34.245 c 0,-13.744 8.98,-24.108 20.889,-24.108 0.795,0 1.606,0.049 2.41,0.145 l 99.004,11.812 c 8.901,1.061 16.143,11.738 16.143,23.802 v 101.958 z"
   id="path26"
   style="fill:#ed9b47" />
	<path
   d="M 474.797,14.985 370.613,2.677 C 354.848,0.813 341.608,13.734 341.608,31.603 V 162.15 c 0,17.868 13.24,30.78 29.005,28.923 l 104.185,-12.31 c 11.49,-1.36 20.531,-14.216 20.531,-28.759 V 43.745 c 0,-14.54 -9.041,-27.402 -20.532,-28.76 z m -10.25,125.23 c -3.193,3.138 -6.805,5.154 -13.789,6.672 -7.126,1.555 -17.912,2.627 -35.938,3.869 -14.862,1.039 -20.95,0.715 -27.929,-1.066 -0.835,-0.211 -1.63,-0.465 -2.38,-0.754 -2.247,-0.868 -4.09,-2.066 -5.409,-3.473 -4.633,-4.641 -6.011,-11.025 -6.011,-26.428 v -3.533 l 25.444,-0.558 c 0,10e-4 0,10e-4 0,0.002 h 0.003 c 0.126,0.747 0.126,1.337 0.126,1.788 0.071,5.277 0.267,7.909 1.288,9.274 0.794,1.059 2.088,1.354 4.212,1.532 5.428,0.381 11.391,0.434 16.656,0.235 1.084,-0.048 2.183,-0.09 3.267,-0.131 l 12.906,-0.931 c 8.962,-0.496 11.117,-2.109 11.117,-8.244 0,-3.414 -0.426,-5.429 -2.042,-6.587 -1.616,-1.157 -4.422,-1.46 -9.181,-1.449 l -8.963,0.002 -14.223,0.235 v -0.002 h -0.003 V 89.639 l 18.487,0.209 c 11.601,0.129 14.334,-1.371 14.334,-7.517 0,-3.784 -0.48,-5.771 -3.895,-6.901 -3.014,-0.997 -8.312,-1.326 -17.579,-1.634 l -2.656,-0.083 -11.305,-0.228 c -10.753,-0.205 -11.782,0.807 -12.036,10.326 0,0.443 0,1.191 0,2.083 l -25.682,-0.403 c 0,0 0,0 0,-0.001 h -0.003 c 0,-2.167 0,-4.162 0,-5.858 0,-15.231 1.511,-19.93 7.757,-24.047 3.095,-1.954 6.562,-3.27 10.255,-3.807 7.467,-0.928 18.454,-1.109 32.924,-0.313 1.146,0.063 2.309,0.13 3.499,0.206 25.015,1.577 31.643,3.501 36.2,9.635 2.899,3.957 4.185,9.436 4.185,17.838 0,13.557 -2.571,17.882 -11.82,20.349 6.336,1.763 8.393,2.85 10.218,5.422 2.031,3.095 2.989,7.954 2.989,15.661 0.001,10.143 -1.487,16.045 -5.023,19.639 z"
   id="path28"
   style="fill:#ed9b47" />
	<path
   d="m 68.872,51.895 -47.164,101.225 31.625,-2.147 7.395,-17.166 52.665,-2.434 6.406,15.078 24.318,-1.646 -37.586,-90.616 -37.659,-2.294 z m 1.003,60.031 15.84,-36.697 4.782,0.143 14.894,35.914 -35.516,0.64 z"
   id="path30"
   style="fill:#ed9b47" />
	<path
   d="m 294.589,99.889 c 7.686,-3.522 9.58,-7.681 9.58,-21.126 0,-10.221 -1.686,-15.952 -5.717,-19.684 -3.107,-2.762 -7.438,-3.84 -17.506,-4.595 l -13.703,-0.837 -60.098,-3.666 v 102.056 l 60.217,-4.091 15.152,-1.032 c 11.641,-0.926 16.148,-2.318 19.758,-6.466 2.836,-3.255 4.406,-10.312 4.406,-19.818 0,-7.502 -1.151,-12.981 -3.67,-16.317 -1.69,-2.276 -3.487,-3.213 -8.419,-4.424 z m -62.23,-25.221 34.884,1.076 6.001,0.32 c 8.374,0.254 9.612,1.271 9.612,7.362 0,6.792 -1.342,7.326 -15.492,7.177 L 232.359,90.244 V 74.668 z m 42.148,50.646 -7.143,0.406 -35.005,1.315 v -16.769 l 35.117,-0.546 7.484,-0.116 c 9.785,-0.016 10.671,0.52 10.671,7.289 0.001,6.897 -1.442,8.059 -11.124,8.421 z"
   id="path32"
   style="fill:#ed9b47" />
	<path
   d="m 456.364,99.493 c 9.249,-2.467 11.82,-6.792 11.82,-20.349 0,-8.402 -1.285,-13.881 -4.185,-17.838 -4.558,-6.134 -11.186,-8.058 -36.2,-9.635 -1.19,-0.076 -2.353,-0.143 -3.499,-0.206 -14.469,-0.795 -25.455,-0.614 -32.921,0.313 -3.693,0.538 -7.161,1.853 -10.254,3.807 -6.246,4.117 -7.758,8.815 -7.758,24.047 0,1.696 0,3.691 0,5.858 0,0 0,0 0,0.001 l 25.682,0.403 c 0,-0.893 0,-1.64 0,-2.083 0.254,-9.519 1.283,-10.531 12.036,-10.326 l 11.305,0.228 2.656,0.083 c 9.268,0.308 14.565,0.638 17.579,1.634 3.417,1.13 3.897,3.117 3.897,6.902 0,6.146 -2.733,7.647 -14.333,7.517 L 413.701,89.64 v 21.03 0.002 l 14.223,-0.235 8.963,-0.002 c 4.759,-0.011 7.564,0.292 9.181,1.449 1.618,1.158 2.045,3.173 2.045,6.591 0,6.133 -2.154,7.748 -11.117,8.244 l -12.906,0.929 c -1.084,0.041 -2.183,0.083 -3.266,0.131 -5.269,0.199 -11.229,0.146 -16.657,-0.234 -2.126,-0.178 -3.421,-0.474 -4.215,-1.535 -1.021,-1.365 -1.217,-3.997 -1.288,-9.274 0,-0.451 0,-1.041 -0.126,-1.788 h -0.003 l -25.441,0.558 v 3.533 c 0,15.402 1.378,21.787 6.012,26.427 1.318,1.404 3.16,2.604 5.405,3.472 0.75,0.289 1.545,0.543 2.38,0.754 6.979,1.781 13.066,2.105 27.929,1.066 18.026,-1.242 28.813,-2.314 35.938,-3.869 6.984,-1.518 10.596,-3.534 13.789,-6.672 3.536,-3.594 5.024,-9.496 5.024,-19.639 0,-7.707 -0.958,-12.566 -2.989,-15.661 -1.825,-2.574 -3.882,-3.661 -10.218,-5.424 z"
   id="path34"
   style="fill:#ffffff" />
</g>
</svg>