<?xml version="1.0" encoding="utf-8"?>
<!-- Generator: Adobe Illustrator 16.0.0, SVG Export Plug-In . SVG Version: 6.00 Build 0)  -->
<!DOCTYPE svg PUBLIC "-//W3C//DTD SVG 1.1//EN" "http://www.w3.org/Graphics/SVG/1.1/DTD/svg11.dtd">
<svg version="1.1"
	 id="Layer_1" sodipodi:version="0.32" inkscape:output_extension="org.inkscape.output.svg.inkscape" sodipodi:docname="AB3.svg" inkscape:version="0.45.1" sodipodi:docbase="C:\Users\Virgile\Wikipedia" xmlns:inkscape="http://www.inkscape.org/namespaces/inkscape" xmlns:svg="http://www.w3.org/2000/svg" xmlns:sodipodi="http://sodipodi.sourceforge.net/DTD/sodipodi-0.dtd" xmlns:dc="http://purl.org/dc/elements/1.1/" xmlns:cc="http://web.resource.org/cc/" xmlns:rdf="http://www.w3.org/1999/02/22-rdf-syntax-ns#"
	 xmlns="http://www.w3.org/2000/svg" xmlns:xlink="http://www.w3.org/1999/xlink" x="0px" y="0px" width="497.893px"
	 height="193.75px" viewBox="0 0 497.893 193.75" enable-background="new 0 0 497.893 193.75" xml:space="preserve">
<sodipodi:namedview  width="497.892px" height="193.75px" id="base" inkscape:cx="246.41451" pagecolor="#ffffff" borderopacity="1.0" inkscape:cy="94.376503" inkscape:zoom="1.3716725" bordercolor="#666666" guidetolerance="10.0" gridtolerance="10.0" objecttolerance="10.0" inkscape:window-width="1400" inkscape:window-x="-8" inkscape:pageopacity="0.0" inkscape:pageshadow="2" inkscape:window-y="-8" inkscape:window-height="1000" inkscape:current-layer="Layer_1">
	</sodipodi:namedview>
<g>
	<path fill="none" d="M381.126,55.586c3.093-1.954,6.561-3.269,10.254-3.807c7.466-0.928,18.452-1.108,32.921-0.313
		c-14.47-0.796-25.457-0.614-32.924,0.313c-3.693,0.537-7.16,1.853-10.255,3.807c-6.246,4.117-7.757,8.815-7.757,24.047
		c0,1.696,0,3.691,0,5.858h0.003c0-2.167,0-4.162,0-5.858C373.368,64.401,374.88,59.703,381.126,55.586z"/>
	<path fill="none" d="M404.167,127.544c5.428,0.381,11.389,0.434,16.657,0.234c1.083-0.048,2.182-0.09,3.266-0.131l12.906-0.929
		c8.963-0.496,11.117-2.111,11.117-8.244c0-3.418-0.427-5.433-2.045-6.591c1.616,1.158,2.042,3.173,2.042,6.587
		c0,6.135-2.155,7.748-11.117,8.244l-12.906,0.931c-1.084,0.041-2.183,0.083-3.267,0.131c-5.266,0.198-11.229,0.146-16.656-0.235
		c-2.124-0.179-3.418-0.474-4.212-1.532C400.746,127.07,402.041,127.366,404.167,127.544z"/>
	<path fill="none" d="M432.19,89.849c11.6,0.13,14.333-1.371,14.333-7.517c0-3.785-0.48-5.772-3.897-6.902
		c3.414,1.13,3.895,3.117,3.895,6.901c0,6.146-2.733,7.646-14.334,7.517l-18.487-0.209v21.031h0.003V89.64L432.19,89.849z"/>
	<path fill="none" d="M373.094,119.037v-3.533l25.441-0.558c0-0.001,0-0.001,0-0.002l-25.444,0.558v3.533
		c0,15.402,1.378,21.787,6.011,26.428c1.319,1.406,3.162,2.604,5.409,3.473c-2.245-0.868-4.087-2.067-5.405-3.472
		C374.472,140.824,373.094,134.439,373.094,119.037z"/>
	<path fill="#FFFFFF" d="M132.44,22.094L33.437,10.282c-0.804-0.096-1.615-0.145-2.41-0.145c-11.907,0-20.887,10.364-20.887,24.107
		v125.264c0,13.74,8.983,24.102,20.896,24.103c0.001,0,0.001,0,0.002,0c0.792,0,1.6-0.048,2.401-0.144l99.001-11.813
		c8.901-1.063,16.144-11.74,16.144-23.801V45.896C148.583,33.832,141.342,23.155,132.44,22.094z M119.799,146.451l-6.406-15.078
		l-52.665,2.434l-7.395,17.166l-31.625,2.147L68.872,51.895l37.659,2.293l37.586,90.616L119.799,146.451z"/>
	<polygon fill="#FFFFFF" points="85.715,75.229 69.875,111.926 105.391,111.285 90.497,75.372 	"/>
	<path fill="#ED9B47" d="M133.345,14.508L34.342,2.697c-1.103-0.132-2.219-0.199-3.315-0.199C15.031,2.498,2.5,16.442,2.5,34.244
		v125.264c0,17.798,12.534,31.74,28.535,31.742c0.001,0,0.001,0,0.002,0c1.092,0,2.203-0.066,3.305-0.197l99.003-11.813
		c12.828-1.533,22.877-15.319,22.877-31.387V45.896C156.223,29.824,146.174,16.038,133.345,14.508z M148.583,147.854
		c0,12.061-7.242,22.737-16.144,23.801l-99.001,11.813c-0.801,0.096-1.609,0.144-2.401,0.144c0,0-0.001,0-0.002,0
		c-11.913-0.001-20.896-10.362-20.896-24.103V34.244c0-13.743,8.979-24.107,20.887-24.107c0.795,0,1.606,0.049,2.41,0.145
		l99.003,11.812c8.901,1.061,16.143,11.738,16.143,23.802V147.854z"/>
	<path fill="#FFFFFF" d="M301.994,22.094L202.99,10.282c-0.804-0.096-1.615-0.145-2.41-0.145c-11.909,0-20.889,10.364-20.889,24.108
		v125.263c0,13.74,8.983,24.103,20.896,24.103h0c0.793,0,1.602-0.048,2.404-0.144l99.002-11.811
		c8.9-1.063,16.143-11.741,16.143-23.803V45.896C318.137,33.832,310.896,23.155,301.994,22.094z M302.272,140.448
		c-3.609,4.147-8.117,5.54-19.758,6.466l-15.152,1.032l-60.217,4.091V49.981l60.098,3.666l13.703,0.837
		c10.068,0.755,14.398,1.833,17.506,4.595c4.031,3.731,5.717,9.463,5.717,19.684c0,13.445-1.895,17.604-9.58,21.126
		c4.932,1.211,6.729,2.148,8.42,4.424c2.519,3.336,3.67,8.815,3.67,16.317C306.679,130.137,305.108,137.193,302.272,140.448z"/>
	<path fill="#FFFFFF" d="M274.96,109.605l-7.484,0.116l-35.117,0.546v16.769l35.005-1.315l7.143-0.406
		c9.683-0.362,11.125-1.524,11.124-8.42C285.631,110.125,284.745,109.59,274.96,109.605z"/>
	<path fill="#FFFFFF" d="M282.856,83.427c0-6.091-1.238-7.108-9.612-7.362l-6.001-0.32l-34.884-1.076v15.577l35.005,0.359
		C281.515,90.753,282.856,90.219,282.856,83.427z"/>
	<path fill="#ED9B47" d="M302.898,14.508L203.896,2.697c-1.103-0.132-2.218-0.199-3.315-0.199
		c-15.997,0-28.528,13.945-28.528,31.747v125.263c0,17.799,12.534,31.741,28.535,31.742c0,0,0,0,0.001,0
		c1.093,0,2.206-0.066,3.308-0.197l99.004-11.811c12.828-1.533,22.876-15.32,22.876-31.389V45.896
		C325.775,29.824,315.727,16.038,302.898,14.508z M318.137,147.854c0,12.062-7.242,22.739-16.143,23.803l-99.002,11.811
		c-0.802,0.096-1.611,0.144-2.404,0.144h0c-11.913,0-20.896-10.362-20.896-24.103V34.245c0-13.744,8.98-24.108,20.889-24.108
		c0.795,0,1.606,0.049,2.41,0.145l99.004,11.812c8.901,1.061,16.143,11.738,16.143,23.802V147.854z"/>
	<path fill="#ED9B47" d="M474.797,14.985L370.613,2.677c-15.765-1.864-29.005,11.057-29.005,28.926v130.547
		c0,17.868,13.24,30.78,29.005,28.923l104.185-12.31c11.49-1.36,20.531-14.216,20.531-28.759V43.745
		C495.329,29.205,486.288,16.343,474.797,14.985z M464.547,140.215c-3.193,3.138-6.805,5.154-13.789,6.672
		c-7.126,1.555-17.912,2.627-35.938,3.869c-14.862,1.039-20.95,0.715-27.929-1.066c-0.835-0.211-1.63-0.465-2.38-0.754
		c-2.247-0.868-4.09-2.066-5.409-3.473c-4.633-4.641-6.011-11.025-6.011-26.428v-3.533l25.444-0.558c0,0.001,0,0.001,0,0.002h0.003
		c0.126,0.747,0.126,1.337,0.126,1.788c0.071,5.277,0.267,7.909,1.288,9.274c0.794,1.059,2.088,1.354,4.212,1.532
		c5.428,0.381,11.391,0.434,16.656,0.235c1.084-0.048,2.183-0.09,3.267-0.131l12.906-0.931c8.962-0.496,11.117-2.109,11.117-8.244
		c0-3.414-0.426-5.429-2.042-6.587c-1.616-1.157-4.422-1.46-9.181-1.449l-8.963,0.002l-14.223,0.235v-0.002h-0.003V89.639
		l18.487,0.209c11.601,0.129,14.334-1.371,14.334-7.517c0-3.784-0.48-5.771-3.895-6.901c-3.014-0.997-8.312-1.326-17.579-1.634
		l-2.656-0.083l-11.305-0.228c-10.753-0.205-11.782,0.807-12.036,10.326c0,0.443,0,1.191,0,2.083l-25.682-0.403c0,0,0,0,0-0.001
		h-0.003c0-2.167,0-4.162,0-5.858c0-15.231,1.511-19.93,7.757-24.047c3.095-1.954,6.562-3.27,10.255-3.807
		c7.467-0.928,18.454-1.109,32.924-0.313c1.146,0.063,2.309,0.13,3.499,0.206c25.015,1.577,31.643,3.501,36.2,9.635
		c2.899,3.957,4.185,9.436,4.185,17.838c0,13.557-2.571,17.882-11.82,20.349c6.336,1.763,8.393,2.85,10.218,5.422
		c2.031,3.095,2.989,7.954,2.989,15.661C469.571,130.719,468.083,136.621,464.547,140.215z"/>
	<path fill="#ED9B47" d="M68.872,51.895L21.708,153.12l31.625-2.147l7.395-17.166l52.665-2.434l6.406,15.078l24.318-1.646
		l-37.586-90.616L68.872,51.895z M69.875,111.926l15.84-36.697l4.782,0.143l14.894,35.914L69.875,111.926z"/>
	<path fill="#ED9B47" d="M294.589,99.889c7.686-3.522,9.58-7.681,9.58-21.126c0-10.221-1.686-15.952-5.717-19.684
		c-3.107-2.762-7.438-3.84-17.506-4.595l-13.703-0.837l-60.098-3.666v102.056l60.217-4.091l15.152-1.032
		c11.641-0.926,16.148-2.318,19.758-6.466c2.836-3.255,4.406-10.312,4.406-19.818c0-7.502-1.151-12.981-3.67-16.317
		C301.318,102.037,299.521,101.1,294.589,99.889z M232.359,74.668l34.884,1.076l6.001,0.32c8.374,0.254,9.612,1.271,9.612,7.362
		c0,6.792-1.342,7.326-15.492,7.177l-35.005-0.359V74.668z M274.507,125.314l-7.143,0.406l-35.005,1.315v-16.769l35.117-0.546
		l7.484-0.116c9.785-0.016,10.671,0.52,10.671,7.289C285.632,123.79,284.189,124.952,274.507,125.314z"/>
	<path fill="#FFFFFF" d="M456.364,99.493c9.249-2.467,11.82-6.792,11.82-20.349c0-8.402-1.285-13.881-4.185-17.838
		c-4.558-6.134-11.186-8.058-36.2-9.635c-1.19-0.076-2.353-0.143-3.499-0.206c-14.469-0.795-25.455-0.614-32.921,0.313
		c-3.693,0.538-7.161,1.853-10.254,3.807c-6.246,4.117-7.758,8.815-7.758,24.047c0,1.696,0,3.691,0,5.858c0,0,0,0,0,0.001
		l25.682,0.403c0-0.893,0-1.64,0-2.083c0.254-9.519,1.283-10.531,12.036-10.326l11.305,0.228l2.656,0.083
		c9.268,0.308,14.565,0.638,17.579,1.634c3.417,1.13,3.897,3.117,3.897,6.902c0,6.146-2.733,7.647-14.333,7.517l-18.488-0.209v21.03
		v0.002l14.223-0.235l8.963-0.002c4.759-0.011,7.564,0.292,9.181,1.449c1.618,1.158,2.045,3.173,2.045,6.591
		c0,6.133-2.154,7.748-11.117,8.244l-12.906,0.929c-1.084,0.041-2.183,0.083-3.266,0.131c-5.269,0.199-11.229,0.146-16.657-0.234
		c-2.126-0.178-3.421-0.474-4.215-1.535c-1.021-1.365-1.217-3.997-1.288-9.274c0-0.451,0-1.041-0.126-1.788h-0.003l-25.441,0.558
		v3.533c0,15.402,1.378,21.787,6.012,26.427c1.318,1.404,3.16,2.604,5.405,3.472c0.75,0.289,1.545,0.543,2.38,0.754
		c6.979,1.781,13.066,2.105,27.929,1.066c18.026-1.242,28.813-2.314,35.938-3.869c6.984-1.518,10.596-3.534,13.789-6.672
		c3.536-3.594,5.024-9.496,5.024-19.639c0-7.707-0.958-12.566-2.989-15.661C464.757,102.343,462.7,101.256,456.364,99.493z"/>
</g>
</svg>
