<?xml version="1.0" encoding="UTF-8" standalone="no"?>
<!-- Created with Inkscape (http://www.inkscape.org/) -->

<svg
   xmlns:dc="http://purl.org/dc/elements/1.1/"
   xmlns:cc="http://creativecommons.org/ns#"
   xmlns:rdf="http://www.w3.org/1999/02/22-rdf-syntax-ns#"
   xmlns:svg="http://www.w3.org/2000/svg"
   xmlns="http://www.w3.org/2000/svg"
   version="1.1"
   width="50"
   height="12"
   viewBox="0 0 40 9.6"
   id="svg2">
  <metadata
     id="metadata28">
    <rdf:RDF>
      <cc:Work
         rdf:about="">
        <dc:format>image/svg+xml</dc:format>
        <dc:type
           rdf:resource="http://purl.org/dc/dcmitype/StillImage" />
        <dc:title></dc:title>
      </cc:Work>
    </rdf:RDF>
  </metadata>
  <defs
     id="defs26" />
  <g
     transform="matrix(0.07352941,0,0,0.07352941,0,0.70294)"
     id="#000000ff">
    <path
       d="M 0,0 544,0 544,121 0,121 0,0 m 30.33,51.55 c -2.61,13.11 -5.4,26.19 -8.07,39.29 5.14,-0.04 10.29,0.02 15.43,-0.04 1.24,-6.62 2.76,-13.19 4.04,-19.8 19.7,0 39.39,0 59.09,0 -1.19,6.63 -2.76,13.19 -3.9,19.83 4.62,0.01 9.24,-0.04 13.86,0.03 3.04,-13.22 5.4,-26.6 8.34,-39.84 0.97,-4.27 0.73,-8.95 -1.47,-12.81 -2.86,-5.18 -8.78,-8.15 -14.61,-8.01 C 87.33,30.15 71.62,30.18 55.91,30.18 43.77,29.9 32.25,39.57 30.33,51.55 m 96.17,-3.4 c -1.4,5.52 -2.27,11.15 -3.57,16.69 -1.01,4.95 -2.59,10.19 -0.8,15.16 1.91,6.39 8.38,10.75 14.95,10.79 15.98,0.09 31.97,0.01 47.95,0.04 11.9,0.3 23.09,-8.93 25.51,-20.51 -4.7,0.06 -9.41,0.04 -14.11,0 -0.6,3.2 -2.97,6.46 -6.55,6.29 -16.5,0.02 -33.01,0.11 -49.5,-0.04 -2.8,0.14 -4.25,-3.14 -3.42,-5.49 1.55,-7.32 2.89,-14.69 4.59,-21.97 0.64,-2.89 3.52,-4.93 6.44,-4.69 16.3,0.02 32.6,-0.04 48.9,0.03 3.19,-0.2 4.33,3.43 3.6,6.01 4.71,-0.07 9.42,-0.05 14.14,-0.02 1.07,-5.79 -0.26,-12.33 -4.99,-16.2 -3.1,-2.9 -7.47,-4.08 -11.64,-4.05 -15.7,-0.02 -31.41,-0.02 -47.12,0 -10.85,-0.12 -21.15,7.68 -24.38,17.96 m 96.74,-18.01 c -1.18,4.61 -2.43,9.2 -3.36,13.86 12.27,0.01 24.55,-0.02 36.82,0.02 -3.03,15.62 -6.33,31.2 -9.56,46.78 4.93,0.06 9.85,-0.01 14.78,0.05 3.32,-15.6 6.37,-31.27 9.74,-46.86 12.26,-0.02 24.53,0.08 36.79,-0.05 1.05,-4.6 2.21,-9.17 3.35,-13.75 -29.52,-0.06 -59.04,0.04 -88.56,-0.05 m 96.31,0.04 c -4.06,20.23 -8.29,40.43 -12.42,60.64 4.93,0.01 9.86,0 14.79,0.01 4.16,-20.23 8.32,-40.46 12.48,-60.69 -4.95,0.07 -9.9,0.01 -14.85,0.04 m 41.67,0.07 c -11.05,0.75 -21.19,9.57 -23.19,20.52 -1.48,6.68 -2.8,13.39 -4.17,20.1 -1.19,5.09 0.16,10.7 3.58,14.66 3.16,3.46 7.84,5.36 12.5,5.28 15.7,0.04 31.39,0 47.09,0.02 11.7,0.3 23,-8.49 25.45,-19.96 1.39,-6.34 2.59,-12.73 3.95,-19.07 0.95,-4.57 1.02,-9.64 -1.43,-13.77 -2.93,-5.24 -9.09,-8 -14.95,-7.85 -16.27,0.03 -32.55,-0.09 -48.83,0.07 m 71.82,20.55 c -2.73,13.34 -5.64,26.64 -8.14,40.02 5.12,0.01 10.23,0 15.36,0.01 2.64,-13.61 5.42,-27.2 8.24,-40.77 0.37,-3.09 3.23,-5.87 6.43,-5.63 16.32,-0.01 32.65,-0.03 48.98,0.01 2.35,-0.23 3.8,1.92 4.13,3.99 -3.07,14.09 -5.66,28.29 -8.74,42.38 4.7,0.03 9.41,0.01 14.12,0.01 2.65,-13.57 5.64,-27.07 8.31,-40.63 0.9,-5.06 0.09,-10.65 -3.42,-14.59 -3.33,-3.71 -8.39,-5.53 -13.31,-5.42 -15.36,-0.01 -30.71,0 -46.07,-0.01 -12.05,-0.52 -23.72,8.77 -25.89,20.63 z"
       id="path5"
       style="fill:#000000" />
    <path
       d="m 51.36,44.49 c 16.56,-0.16 33.13,-0.03 49.69,-0.06 2.08,-0.22 4.38,1.25 4.31,3.52 -0.06,2.89 -1.05,5.66 -1.49,8.51 -19.75,0.02 -39.49,0 -59.24,0.01 1.15,-4.35 0.89,-11.3 6.73,-11.98 z"
       id="path7"
       style="fill:#000000" />
    <path
       d="m 353.6,49.35 c 0.55,-2.95 3.36,-5.1 6.35,-4.93 16.31,0.01 32.64,-0.03 48.96,0.02 2.34,-0.23 3.76,1.94 4.12,3.98 -1.86,8.08 -3.32,16.25 -5.15,24.34 -1.16,2.17 -3.36,4 -5.94,3.86 -15.66,0.07 -31.32,-0.02 -46.98,0.04 -1.66,0.07 -3.3,-0.22 -4.9,-0.65 -0.46,-1.28 -1.53,-2.53 -1.09,-3.97 1.49,-7.57 3,-15.15 4.63,-22.69 z"
       id="path9"
       style="fill:#000000" />
  </g>
  <g
     transform="matrix(0.07352941,0,0,0.07352941,0,0.70294)"
     id="#ffffffff">
    <path
       d="M 30.33,51.55 C 32.25,39.57 43.77,29.9 55.91,30.18 c 15.71,0 31.42,-0.03 47.13,0.02 5.83,-0.14 11.75,2.83 14.61,8.01 2.2,3.86 2.44,8.54 1.47,12.81 -2.94,13.24 -5.3,26.62 -8.34,39.84 -4.62,-0.07 -9.24,-0.02 -13.86,-0.03 1.14,-6.64 2.71,-13.2 3.9,-19.83 -19.7,0 -39.39,0 -59.09,0 -1.28,6.61 -2.8,13.18 -4.04,19.8 -5.14,0.06 -10.29,0 -15.43,0.04 2.67,-13.1 5.46,-26.18 8.07,-39.29 m 21.03,-7.06 c -5.84,0.68 -5.58,7.63 -6.73,11.98 19.75,-0.01 39.49,0.01 59.24,-0.01 0.44,-2.85 1.43,-5.62 1.49,-8.51 0.07,-2.27 -2.23,-3.74 -4.31,-3.52 -16.56,0.03 -33.13,-0.1 -49.69,0.06 z"
       id="path12"
       style="fill:#ffffff" />
    <path
       d="m 126.5,48.15 c 3.23,-10.28 13.53,-18.08 24.38,-17.96 15.71,-0.02 31.42,-0.02 47.12,0 4.17,-0.03 8.54,1.15 11.64,4.05 4.73,3.87 6.06,10.41 4.99,16.2 -4.72,-0.03 -9.43,-0.05 -14.14,0.02 0.73,-2.58 -0.41,-6.21 -3.6,-6.01 -16.3,-0.07 -32.6,-0.01 -48.9,-0.03 -2.92,-0.24 -5.8,1.8 -6.44,4.69 -1.7,7.28 -3.04,14.65 -4.59,21.97 -0.83,2.35 0.62,5.63 3.42,5.49 16.49,0.15 33,0.06 49.5,0.04 3.58,0.17 5.95,-3.09 6.55,-6.29 4.7,0.04 9.41,0.06 14.11,0 -2.42,11.58 -13.61,20.81 -25.51,20.51 -15.98,-0.03 -31.97,0.05 -47.95,-0.04 -6.57,-0.04 -13.04,-4.4 -14.95,-10.79 -1.79,-4.97 -0.21,-10.21 0.8,-15.16 1.3,-5.54 2.17,-11.17 3.57,-16.69 z"
       id="path14"
       style="fill:#ffffff" />
    <path
       d="m 223.24,30.14 c 29.52,0.09 59.04,-0.01 88.56,0.05 -1.14,4.58 -2.3,9.15 -3.35,13.75 -12.26,0.13 -24.53,0.03 -36.79,0.05 -3.37,15.59 -6.42,31.26 -9.74,46.86 -4.93,-0.06 -9.85,0.01 -14.78,-0.05 3.23,-15.58 6.53,-31.16 9.56,-46.78 -12.27,-0.04 -24.55,-0.01 -36.82,-0.02 0.93,-4.66 2.18,-9.25 3.36,-13.86 z"
       id="path16"
       style="fill:#ffffff" />
    <path
       d="m 319.55,30.18 c 4.95,-0.03 9.9,0.03 14.85,-0.04 -4.16,20.23 -8.32,40.46 -12.48,60.69 -4.93,-0.01 -9.86,0 -14.79,-0.01 4.13,-20.21 8.36,-40.41 12.42,-60.64 z"
       id="path18"
       style="fill:#ffffff" />
    <path
       d="m 361.22,30.25 c 16.28,-0.16 32.56,-0.04 48.83,-0.07 5.86,-0.15 12.02,2.61 14.95,7.85 2.45,4.13 2.38,9.2 1.43,13.77 -1.36,6.34 -2.56,12.73 -3.95,19.07 -2.45,11.47 -13.75,20.26 -25.45,19.96 -15.7,-0.02 -31.39,0.02 -47.09,-0.02 -4.66,0.08 -9.34,-1.82 -12.5,-5.28 -3.42,-3.96 -4.77,-9.57 -3.58,-14.66 1.37,-6.71 2.69,-13.42 4.17,-20.1 2,-10.95 12.14,-19.77 23.19,-20.52 m -7.62,19.1 c -1.63,7.54 -3.14,15.12 -4.63,22.69 -0.44,1.44 0.63,2.69 1.09,3.97 1.6,0.43 3.24,0.72 4.9,0.65 15.66,-0.06 31.32,0.03 46.98,-0.04 2.58,0.14 4.78,-1.69 5.94,-3.86 1.83,-8.09 3.29,-16.26 5.15,-24.34 -0.36,-2.04 -1.78,-4.21 -4.12,-3.98 -16.32,-0.05 -32.65,-0.01 -48.96,-0.02 -2.99,-0.17 -5.8,1.98 -6.35,4.93 z"
       id="path20"
       style="fill:#ffffff" />
    <path
       d="m 433.04,50.8 c 2.17,-11.86 13.84,-21.15 25.89,-20.63 15.36,0.01 30.71,0 46.07,0.01 4.92,-0.11 9.98,1.71 13.31,5.42 3.51,3.94 4.32,9.53 3.42,14.59 -2.67,13.56 -5.66,27.06 -8.31,40.63 -4.71,0 -9.42,0.02 -14.12,-0.01 3.08,-14.09 5.67,-28.29 8.74,-42.38 -0.33,-2.07 -1.78,-4.22 -4.13,-3.99 -16.33,-0.04 -32.66,-0.02 -48.98,-0.01 -3.2,-0.24 -6.06,2.54 -6.43,5.63 -2.82,13.57 -5.6,27.16 -8.24,40.77 -5.13,-0.01 -10.24,0 -15.36,-0.01 2.5,-13.38 5.41,-26.68 8.14,-40.02 z"
       id="path22"
       style="fill:#ffffff" />
  </g>
</svg>
