<?xml version="1.0" encoding="UTF-8" standalone="no"?>
<!-- Created with Inkscape (http://www.inkscape.org/) -->

<svg
   xmlns:dc="http://purl.org/dc/elements/1.1/"
   xmlns:cc="http://creativecommons.org/ns#"
   xmlns:rdf="http://www.w3.org/1999/02/22-rdf-syntax-ns#"
   xmlns:svg="http://www.w3.org/2000/svg"
   xmlns="http://www.w3.org/2000/svg"
   version="1.0"
   width="50"
   height="33"
   id="svg2">
  <metadata
     id="metadata32">
    <rdf:RDF>
      <cc:Work
         rdf:about="">
        <dc:format>image/svg+xml</dc:format>
        <dc:type
           rdf:resource="http://purl.org/dc/dcmitype/StillImage" />
        <dc:title></dc:title>
      </cc:Work>
    </rdf:RDF>
  </metadata>
  <defs
     id="defs30" />
  <g
     transform="translate(-6.4497678,-1011.7919)"
     id="layer1">
    <g
       transform="matrix(3.4230164,0,0,-3.4230164,-2230.8371,1965.1213)"
       id="g106416">
      <path
         d="m 659.382,278.496 -0.007,-0.003 1.797,-6.502 -6.363,-1.719 0,-0.005 8.317,1.147 -3.744,7.082 z"
         id="path106418"
         style="fill:#a7a9ac;fill-rule:nonzero;stroke:none" />
      <path
         d="m 658.069,274.282 c -0.071,-0.349 -0.268,-0.648 -0.653,-0.759 -0.491,-0.142 -0.948,0.111 -1.096,0.607 -0.136,0.453 0.112,1.016 0.599,1.173 0.395,0.127 0.747,-0.009 0.983,-0.285 l 1.277,1.011 c -0.582,0.753 -1.813,0.999 -2.866,0.513 -1.001,-0.462 -1.78,-1.753 -1.412,-3.011 0.369,-1.261 1.763,-1.915 3.08,-1.437 0.966,0.351 1.608,1.326 1.677,2.207 l -1.589,-0.019 z"
         id="path106420"
         style="fill:#ffffff;fill-rule:nonzero;stroke:none" />
      <path
         d="m 666.437,276.364 -0.027,-0.003 -0.336,-5.422 -6.333,-0.321 -0.003,-0.009 6.956,-0.337 -0.257,6.092 z"
         id="path106422"
         style="fill:#a7a9ac;fill-rule:nonzero;stroke:none" />
      <path
         d="m 661.172,271.991 -1.797,6.502 -5.774,-2.147 1.206,-6.074 6.365,1.719 z"
         id="path106424"
         style="fill:#000000;fill-rule:nonzero;stroke:none" />
      <path
         d="m 666.074,270.939 0.337,5.454 -5.8,-0.142 -0.872,-5.633 6.335,0.321 z"
         id="path106426"
         style="fill:#ffffff;fill-rule:nonzero;stroke:none" />
      <path
         d="m 658.069,274.282 c -0.071,-0.349 -0.268,-0.648 -0.653,-0.759 -0.491,-0.142 -0.948,0.111 -1.096,0.607 -0.136,0.453 0.112,1.016 0.599,1.173 0.395,0.127 0.747,-0.009 0.983,-0.285 l 1.277,1.011 c -0.582,0.753 -1.813,0.999 -2.866,0.513 -1.001,-0.462 -1.78,-1.753 -1.412,-3.011 0.369,-1.261 1.763,-1.915 3.08,-1.437 0.966,0.351 1.608,1.326 1.677,2.207 l -1.589,-0.019 z"
         id="path106428"
         style="fill:#ffffff;fill-rule:nonzero;stroke:none" />
      <path
         d="m 665.468,275.706 -1.45,-0.013 -0.128,-1.649 -0.026,-0.002 -2.515,1.517 -0.596,-3.998 1.456,-0.019 0.148,1.521 2.816,-1.656 0.295,4.299 z"
         id="path106430"
         style="fill:#000000;fill-rule:nonzero;stroke:none" />
      <path
         d="m 660.538,269.753 0,-0.878 c -0.045,0.027 -0.594,0.347 -0.594,0.347 l 0,-0.341 -0.261,0 0,0.855 c 0.046,-0.029 0.57,-0.354 0.57,-0.354 l 0.024,0.006 0,0.365 0.261,0 z"
         id="path106432"
         style="fill:#000000;fill-rule:nonzero;stroke:none" />
      <path
         d="m 657.593,269.752 0,-0.207 -0.259,0 0,-0.664 -0.289,0 0,0.664 -0.253,0 0,0.207 0.801,0 z"
         id="path106434"
         style="fill:#000000;fill-rule:nonzero;stroke:none" />
      <path
         d="m 656.534,269.255 0.014,0.008 c 0.077,0.049 0.123,0.133 0.123,0.224 0,0.146 -0.119,0.265 -0.265,0.265 l -0.263,10e-4 -0.312,0 0,-0.872 0.284,0 0,0.252 0.144,0 c 0,0 0.165,-0.239 0.174,-0.252 l 0.34,0 c -0.028,0.044 -0.239,0.374 -0.239,0.374 m -0.284,0.09 -0.134,0 -10e-4,0.227 0.135,0 c 0.062,0 0.113,-0.051 0.113,-0.114 0,-0.062 -0.051,-0.113 -0.113,-0.113"
         id="path106436"
         style="fill:#000000;fill-rule:nonzero;stroke:none" />
      <path
         d="m 658.08,269.756 c -0.263,0 -0.477,-0.198 -0.477,-0.441 0,-0.243 0.214,-0.44 0.477,-0.44 0.263,0 0.477,0.197 0.477,0.44 0,0.243 -0.214,0.441 -0.477,0.441 m 0,-0.637 c -0.108,0 -0.196,0.088 -0.196,0.196 0,0.108 0.088,0.196 0.196,0.196 0.109,0 0.197,-0.088 0.197,-0.196 0,-0.108 -0.088,-0.196 -0.197,-0.196"
         id="path106438"
         style="fill:#000000;fill-rule:nonzero;stroke:none" />
      <path
         d="m 659.09,269.756 c -0.263,0 -0.477,-0.198 -0.477,-0.441 0,-0.243 0.214,-0.44 0.477,-0.44 0.263,0 0.477,0.197 0.477,0.44 0,0.243 -0.214,0.441 -0.477,0.441 m 0,-0.637 c -0.108,0 -0.196,0.088 -0.196,0.196 0,0.108 0.088,0.196 0.196,0.196 0.109,0 0.197,-0.088 0.197,-0.196 0,-0.108 -0.088,-0.196 -0.197,-0.196"
         id="path106440"
         style="fill:#000000;fill-rule:nonzero;stroke:none" />
      <path
         d="m 653.793,269.314 c 0,0.247 0.216,0.448 0.481,0.448 0.187,0 0.355,-0.101 0.435,-0.257 -0.03,-0.011 -0.239,-0.091 -0.261,-0.099 -0.034,0.065 -0.099,0.107 -0.174,0.107 -0.109,0 -0.198,-0.089 -0.198,-0.199 0,-0.109 0.089,-0.199 0.198,-0.199 0.072,0 0.137,0.041 0.172,0.103 0.019,-0.006 0.24,-0.066 0.273,-0.075 -0.074,-0.165 -0.25,-0.276 -0.445,-0.276 -0.265,0 -0.481,0.2 -0.481,0.447"
         id="path106442"
         style="fill:#000000;fill-rule:nonzero;stroke:none" />
      <path
         d="m 655.222,269.813 c -0.004,0.006 -0.012,0 -0.012,0 -0.058,-0.102 -0.538,-0.936 -0.536,-0.933 0.049,0 0.291,-0.003 0.309,-0.003 0.009,0.016 0.062,0.118 0.062,0.118 l 0.341,0 c 0,0 0.043,-0.098 0.051,-0.115 0.019,0 0.268,0 0.316,0 -0.109,0.192 -0.477,0.844 -0.531,0.933 m -0.111,-0.651 0.097,0.184 0.004,0 0.105,-0.184 -0.206,0 z"
         id="path106444"
         style="fill:#000000;fill-rule:nonzero;stroke:none" />
      <path
         d="m 667.695,269.749 c -0.026,-0.044 -0.243,-0.403 -0.243,-0.403 0,0 0.274,-0.42 0.303,-0.465 l -0.338,0 c -0.009,0.014 -0.27,0.39 -0.27,0.39 l -0.002,-0.052 0,-0.338 -0.26,0 0,0.868 0.26,0 0,-0.406 c 0,0 0.257,0.391 0.266,0.406 l 0.284,0 z"
         id="path106446"
         style="fill:#000000;fill-rule:nonzero;stroke:none" />
      <path
         d="m 661.861,269.752 0,-0.887 c -0.046,0.027 -0.598,0.354 -0.598,0.354 0,0 0.003,-0.308 0.003,-0.337 l -0.289,0 0,0.87 c 0.046,-0.029 0.568,-0.356 0.568,-0.356 l 0.023,0.006 0,0.35 0.293,0 z"
         id="path106448"
         style="fill:#000000;fill-rule:nonzero;stroke:none" />
      <path
         d="m 662.357,269.75 c 0,0 0.329,0 0.359,0 l 0,-0.182 -0.375,0 0,-0.16 0.344,0 0,-0.183 -0.344,0 0,-0.16 0.375,0 0,-0.182 -0.645,0 0,0.867 0.286,0 z"
         id="path106450"
         style="fill:#000000;fill-rule:nonzero;stroke:none" />
      <path
         d="m 663.635,269.749 0,-0.207 -0.257,0 c 0,0 0,-0.63 0,-0.661 l -0.289,0 0,0.661 -0.251,0 0,0.207 0.797,0 z"
         id="path106452"
         style="fill:#000000;fill-rule:nonzero;stroke:none" />
      <path
         d="m 663.987,269.75 c 0.008,-0.018 0.131,-0.31 0.131,-0.31 0,0 0.101,0.233 0.124,0.287 0.023,-0.054 0.122,-0.287 0.122,-0.287 0,0 0.125,0.292 0.132,0.31 l 0.288,0 c -0.016,-0.041 -0.318,-0.826 -0.34,-0.883 -0.029,0.048 -0.201,0.34 -0.201,0.34 0,0 -0.188,-0.294 -0.218,-0.341 -0.02,0.056 -0.31,0.844 -0.325,0.884 l 0.287,0 z"
         id="path106454"
         style="fill:#000000;fill-rule:nonzero;stroke:none" />
      <path
         d="m 666.563,269.255 0.014,0.008 c 0.077,0.049 0.123,0.132 0.123,0.223 0,0.145 -0.119,0.264 -0.265,0.264 l -0.261,0 -0.31,0 0,-0.868 0.293,0 0,0.251 0.148,0 c 0,0 0.156,-0.238 0.165,-0.251 l 0.339,0 c -0.029,0.044 -0.246,0.373 -0.246,0.373 m -0.273,0.079 -0.126,0 -0.002,0.225 0.128,0 c 0.062,0 0.113,-0.05 0.113,-0.112 0,-0.062 -0.051,-0.113 -0.113,-0.113"
         id="path106456"
         style="fill:#000000;fill-rule:nonzero;stroke:none" />
      <path
         d="m 665.279,269.753 c -0.262,0 -0.475,-0.197 -0.475,-0.439 0,-0.242 0.213,-0.438 0.475,-0.438 0.262,0 0.475,0.196 0.475,0.438 0,0.242 -0.213,0.439 -0.475,0.439 m 0,-0.634 c -0.108,0 -0.195,0.087 -0.195,0.195 0,0.108 0.087,0.196 0.195,0.196 0.108,0 0.196,-0.088 0.196,-0.196 0,-0.108 -0.088,-0.195 -0.196,-0.195"
         id="path106458"
         style="fill:#000000;fill-rule:nonzero;stroke:none" />
      <path
         d="m 667.871,269.039 -0.063,0 0,0.025 0.153,0 0,-0.025 -0.062,0 0,-0.174 -0.028,0 0,0.174 z"
         id="path106460"
         style="fill:#000000;fill-rule:nonzero;stroke:none" />
      <path
         d="m 667.99,269.064 0.048,0 0.062,-0.165 0.061,0.165 0.047,0 0,-0.199 -0.028,0 0,0.173 -10e-4,0 -0.066,-0.173 -0.028,0 -0.066,0.173 -10e-4,0 0,-0.173 -0.028,0 0,0.199 z"
         id="path106462"
         style="fill:#000000;fill-rule:nonzero;stroke:none" />
    </g>
  </g>
</svg>
