<?xml version="1.0" encoding="iso-8859-1"?>
<!-- Generator: Adobe Illustrator 15.0.0, SVG Export Plug-In . SVG Version: 6.00 Build 0)  -->
<!DOCTYPE svg PUBLIC "-//W3C//DTD SVG 1.1//EN" "http://www.w3.org/Graphics/SVG/1.1/DTD/svg11.dtd" [
	<!ENTITY ns_flows "http://ns.adobe.com/Flows/1.0/">
	<!ENTITY ns_extend "http://ns.adobe.com/Extensibility/1.0/">
	<!ENTITY ns_ai "http://ns.adobe.com/AdobeIllustrator/10.0/">
	<!ENTITY ns_graphs "http://ns.adobe.com/Graphs/1.0/">
]>
<svg version="1.1" id="Calque_1" xmlns:x="&ns_extend;" xmlns:i="&ns_ai;" xmlns:graph="&ns_graphs;"
	 xmlns="http://www.w3.org/2000/svg" xmlns:xlink="http://www.w3.org/1999/xlink" xmlns:a="http://ns.adobe.com/AdobeSVGViewerExtensions/3.0/"
	 x="0px" y="0px" width="157.605px" height="83.172px" viewBox="0 0 157.605 83.172"
	 style="enable-background:new 0 0 157.605 83.172;" xml:space="preserve">
<style type="text/css">
<![CDATA[
	.st0{fill:#4D454A;}
	.st1{fill:#EC008C;}
	.st2{fill:#FFFFFF;}
]]>
</style>
<g>
	<g>
		<g>
			<rect x="1.369" y="1.642" class="st0" width="129.245" height="40.82"/>
		</g>
		<path class="st2" d="M25.776,31.47c0,0.333-0.274,0.606-0.854,0.818c-1.616,0.547-3.11,0.82-4.513,0.82
			c-2.105,0-4.117-0.516-6.071-1.578c-3.904-2.154-6.07-5.765-6.07-10.226c0-2.458,0.671-4.672,1.984-6.676
			c1.341-2.001,3.14-3.487,5.398-4.43c1.462-0.637,3.019-0.939,4.697-0.939c1.13,0,2.35,0.182,3.66,0.516
			c0.397,0.091,0.702,0.213,0.976,0.334l0.334,0.152c0.275,0.121,0.428,0.333,0.428,0.605v5.856c0,0.152-0.06,0.214-0.153,0.214
			c-0.029,0-0.122-0.062-0.275-0.153c-0.456-0.454-1.126-0.819-2.012-1.123c-0.945-0.333-1.8-0.485-2.531-0.485
			c-2.654,0-4.88,1.397-5.888,3.732c-0.335,0.758-0.486,1.578-0.486,2.458c0,1.729,0.639,3.126,1.922,4.218
			c1.187,1.002,2.653,1.518,4.392,1.518c1.983,0,3.506-0.545,4.634-1.669c0.092-0.122,0.184-0.181,0.244-0.181
			c0.123,0,0.184,0.181,0.184,0.574V31.47z"/>
		<path class="st2" d="M30.131,32.5V9.743h5.947V32.5H30.131z"/>
		<path class="st2" d="M57.698,32.5L46.777,18.573V32.5H40.83V9.743h5.947l10.921,13.928V9.743h5.947V32.5H57.698z"/>
		<path class="st2" d="M67.816,32.5V9.743h1.982l0.337-0.941h9.028l-0.337,0.941h1.983v5.007h-7.045v3.792h6.679v5.006h-6.679v3.944
			h7.045V32.5H67.816z"/>
		<g>
			<g>
				<path class="st1" d="M155.442,68.096c-40.825,4.418-81.651,8.828-122.479,13.25c-1.263-14.213-2.522-28.428-3.782-42.641
					c40.703-2.31,81.406-4.624,122.106-6.935C152.673,43.879,154.054,55.987,155.442,68.096z"/>
				<g>
					<path class="st2" d="M61.689,56.907c0.845-2.023,2.333-3.727,4.453-3.889c1.922-0.149,4.267,3.033,4.267,3.033
						c0.141,0.014,2.726-3.574,4.909-3.746c1.64-0.124,3.768,0.486,3.97,2.561c0.403,4.115,0.604,6.175,1.007,10.291
						c0.835-0.076,1.253-0.117,2.088-0.195c0.04,0.391,0.06,0.587,0.098,0.981c-3.226,0.307-4.84,0.461-8.063,0.769
						c-0.04-0.396-0.059-0.595-0.097-0.991c0.667-0.063,1.003-0.096,1.669-0.159c-0.38-3.927-0.571-5.889-0.951-9.816
						c-0.092-0.955-0.287-1.936-1.44-1.844c-1.864,0.145-3.013,2.958-2.837,4.805c0.28,2.914,0.419,4.371,0.698,7.283
						c0.668-0.062,1.004-0.094,1.672-0.158c0.037,0.4,0.056,0.596,0.097,0.995c-3.061,0.291-4.59,0.437-7.647,0.731
						c-0.037-0.403-0.058-0.605-0.095-1.004c0.668-0.064,1.001-0.094,1.67-0.158c-0.339-3.543-0.506-5.314-0.844-8.855
						c-0.226-2.359-0.514-3.02-1.701-2.928c-1.027,0.083-2.968,1.793-2.667,4.99c0.273,2.887,0.41,4.332,0.684,7.219
						c0.668-0.062,1-0.094,1.67-0.156c0.037,0.4,0.056,0.602,0.095,1.003c-3.096,0.296-4.646,0.444-7.743,0.741
						c-0.039-0.407-0.057-0.609-0.094-1.016c0.703-0.066,1.06-0.1,1.765-0.164c-0.459-4.914-0.689-7.369-1.148-12.282
						c-0.823,0.064-1.233,0.095-2.055,0.163c-0.038-0.406-0.057-0.61-0.093-1.017c0.82-0.062,1.233-0.095,2.053-0.159
						c1.444-0.111,2.842-0.365,4.287-0.479C61.493,54.836,61.56,55.527,61.689,56.907z"/>
					<path class="st2" d="M98.521,46.889c0.756-0.057,1.137-0.085,1.892-0.139c0.833-0.061,1.677-0.361,2.5-0.523
						c0.179,1.754,0.272,2.631,0.451,4.389c0.977-0.076,1.464-0.113,2.438-0.189c0.043,0.38,0.061,0.568,0.1,0.948
						c-0.977,0.077-1.463,0.116-2.441,0.194c0.38,3.688,0.571,5.533,0.949,9.221c0.073,0.682,0.021,1.748,0.952,1.663
						c1.254-0.118,1.368-1.19,1.448-2.295c0.383,0.048,0.574,0.073,0.953,0.122c-0.258,2.793-1.895,3.943-4.434,4.188
						c-2.988,0.289-3.127-1.083-3.303-2.795c-0.398-3.9-0.596-5.854-0.993-9.754c-0.784,0.063-1.175,0.094-1.959,0.155
						c-0.04-0.383-0.06-0.575-0.098-0.96c0.782-0.061,1.175-0.091,1.959-0.152C98.767,49.333,98.685,48.518,98.521,46.889z"/>
					<path class="st2" d="M138.379,50.502c1.113-2.512,2.739-3.287,4.921-3.457c1.959-0.15,3.693,0.293,3.975,2.798
						c0.403,3.563,0.605,5.346,1.007,8.909c0.796-0.074,1.193-0.109,1.991-0.186c0.041,0.357,0.061,0.537,0.101,0.895
						c-3.212,0.307-4.819,0.46-8.03,0.77c-0.04-0.364-0.062-0.547-0.102-0.908c0.694-0.064,1.041-0.098,1.736-0.164
						c-0.371-3.29-0.553-4.935-0.92-8.223c-0.231-2.066-0.764-2.479-1.66-2.405c-2.057,0.161-2.916,2.913-2.719,4.698
						c0.282,2.545,0.421,3.818,0.705,6.363c0.682-0.064,1.021-0.097,1.702-0.161c0.041,0.364,0.062,0.543,0.101,0.907
						c-3.227,0.309-4.838,0.461-8.064,0.77c-0.04-0.367-0.059-0.551-0.1-0.915c0.823-0.078,1.233-0.118,2.056-0.196
						c-0.487-4.44-0.73-6.662-1.217-11.102c-0.823,0.064-1.233,0.098-2.057,0.162c-0.038-0.368-0.06-0.551-0.1-0.918
						c0.822-0.063,1.232-0.096,2.054-0.16c1.445-0.113,2.844-0.354,4.286-0.461C138.177,48.709,138.245,49.309,138.379,50.502z"/>
					<path class="st2" d="M96.572,54.704c0.449,4.43-2.852,7.367-6.995,7.749c-4.594,0.421-8.036-2.623-8.415-6.478
						c-0.451-4.589,3.121-7.71,6.971-7.992C91.984,47.704,96.115,50.203,96.572,54.704z M90.996,51.395
						c-0.209-2.107-0.621-2.67-2.771-2.512c-1.958,0.146-2.447,0.779-2.235,2.902c0.293,2.966,0.442,4.449,0.736,7.418
						c0.2,2.016,1.221,2.484,2.763,2.346c1.54-0.141,2.447-0.779,2.247-2.787C91.441,55.817,91.292,54.345,90.996,51.395z"/>
					<path class="st2" d="M131.367,51.829c0.462,4.228-2.836,7.048-6.979,7.426c-4.591,0.422-8.043-2.471-8.433-6.152
						c-0.466-4.388,3.103-7.377,6.95-7.658C126.758,45.163,130.896,47.532,131.367,51.829z M125.782,48.692
						c-0.22-2.014-0.633-2.551-2.783-2.393c-1.958,0.148-2.442,0.754-2.226,2.781c0.303,2.833,0.455,4.25,0.756,7.082
						c0.207,1.927,1.227,2.372,2.768,2.232c1.543-0.141,2.447-0.757,2.244-2.669C126.236,52.911,126.083,51.504,125.782,48.692z"/>
				</g>
				<path class="st2" d="M109.232,50.838c-0.888,0.07-1.33,0.105-2.217,0.176c-0.038-0.379-0.059-0.57-0.098-0.949
					c0.887-0.07,1.33-0.104,2.216-0.172c1.476-0.115,2.937-0.365,4.411-0.479c0.527,4.995,0.791,7.492,1.314,12.486
					c0.785-0.073,1.176-0.109,1.963-0.184c0.039,0.376,0.06,0.564,0.1,0.938c-3.395,0.323-5.092,0.486-8.484,0.809
					c-0.039-0.378-0.058-0.568-0.098-0.947c0.834-0.079,1.253-0.119,2.088-0.195C109.949,57.727,109.709,55.43,109.232,50.838z"/>
				<path class="st2" d="M42.661,59.706c0.228,2.5,0.34,3.75,0.567,6.248c0.229,2.52,1.536,3.271,3.732,3.063
					c3.342-0.318,5.792-2.434,6.417-6.25c0.404,0.116,0.604,0.175,1.007,0.293c-0.688,4.537-3.692,6.843-7.604,7.238
					c-5.676,0.577-10.392-3.444-10.881-9.094c-0.479-5.518,3.357-10.574,8.958-11.012c4.153-0.326,8.499,2.703,8.958,7.669
					c0.109,1.146-1.225,1.017-1.901,1.073C48.214,59.241,46.363,59.397,42.661,59.706z M48.082,57.993
					c-0.172-1.886-0.258-2.828-0.432-4.715c-0.114-1.25-1.115-1.951-3.141-1.803c-1.818,0.133-2.493,1.11-2.373,2.422
					c0.164,1.818,0.246,2.729,0.413,4.549C44.762,58.266,45.868,58.174,48.082,57.993z"/>
				<path class="st2" d="M113.035,44.769c0.131,1.271-0.805,2.487-2.021,2.579c-1.217,0.089-2.426-0.975-2.559-2.256
					s0.87-2.468,2.055-2.548C111.693,42.464,112.897,43.494,113.035,44.769z"/>
				<g>
					<path class="st2" d="M49.2,43.407c-0.164-1.771-1.489-2.801-2.964-2.711c-1.816,0.109-2.578,1.512-2.394,3.541
						c0.035,0.387,0.287,0.81,0.533,1.18c0.248,0.37,0.491,0.744,0.515,0.986c0.079,0.865-1.67,1.279-2.133,1.313
						c0.126,0.486,0.19,0.73,0.317,1.217C45.716,48.571,49.525,46.928,49.2,43.407z"/>
				</g>
			</g>
		</g>
	</g>
	<path class="st2" d="M113.833,24.352v8.191c0,0.307-0.06,0.43-0.305,0.43h-6.245c-0.209,0-0.336-0.154-0.336-0.369v-8.191
		c0-0.335-0.119-0.456-0.393-0.456h-8.102c-0.243,0-0.365-0.152-0.365-0.427v-6.211c0-0.244,0.092-0.363,0.338-0.363h8.16
		c0.242,0,0.361-0.121,0.361-0.397V9.525c0-0.184,0.127-0.306,0.306-0.306h6.216c0.244,0,0.364,0.092,0.364,0.306v7.034
		c0,0.332,0.063,0.397,0.335,0.397h8.165c0.241,0,0.333,0.12,0.333,0.394v6.242c0,0.212-0.12,0.365-0.333,0.365h-8.073
		C113.925,23.957,113.833,24.02,113.833,24.352z"/>
</g>
</svg>
