<?xml version="1.0" encoding="iso-8859-1"?>
<!-- Generator: Adobe Illustrator 15.0.0, SVG Export Plug-In . SVG Version: 6.00 Build 0)  -->
<!DOCTYPE svg PUBLIC "-//W3C//DTD SVG 1.1//EN" "http://www.w3.org/Graphics/SVG/1.1/DTD/svg11.dtd" [
	<!ENTITY ns_flows "http://ns.adobe.com/Flows/1.0/">
	<!ENTITY ns_extend "http://ns.adobe.com/Extensibility/1.0/">
	<!ENTITY ns_ai "http://ns.adobe.com/AdobeIllustrator/10.0/">
	<!ENTITY ns_graphs "http://ns.adobe.com/Graphs/1.0/">
]>
<svg version="1.1" id="Calque_1" xmlns:x="&ns_extend;" xmlns:i="&ns_ai;" xmlns:graph="&ns_graphs;"
	 xmlns="http://www.w3.org/2000/svg" xmlns:xlink="http://www.w3.org/1999/xlink" xmlns:a="http://ns.adobe.com/AdobeSVGViewerExtensions/3.0/"
	 x="0px" y="0px" width="159.224px" height="83.819px" viewBox="0 0 159.224 83.819"
	 style="enable-background:new 0 0 159.224 83.819;" xml:space="preserve">
<style type="text/css">
<![CDATA[
	.st0{fill:#4D454A;}
	.st1{fill:#FDB913;}
	.st2{fill:#FFFFFF;}
]]>
</style>
<g>
	<g>
		<rect x="2.663" y="2.661" class="st0" width="129.245" height="40.82"/>
	</g>
	<path class="st2" d="M27.071,32.488c0,0.333-0.274,0.605-0.854,0.818c-1.616,0.547-3.11,0.82-4.513,0.82
		c-2.105,0-4.117-0.516-6.071-1.578c-3.904-2.154-6.07-5.766-6.07-10.227c0-2.457,0.671-4.672,1.984-6.676
		c1.341-2.002,3.14-3.488,5.398-4.43c1.462-0.638,3.019-0.939,4.697-0.939c1.13,0,2.35,0.182,3.66,0.516
		c0.397,0.091,0.702,0.213,0.976,0.334l0.334,0.152c0.275,0.12,0.428,0.332,0.428,0.605v5.855c0,0.152-0.06,0.215-0.153,0.215
		c-0.029,0-0.122-0.063-0.275-0.154c-0.456-0.453-1.126-0.818-2.012-1.122c-0.945-0.333-1.8-0.485-2.531-0.485
		c-2.654,0-4.88,1.396-5.888,3.732c-0.335,0.758-0.486,1.578-0.486,2.457c0,1.73,0.639,3.127,1.922,4.219
		c1.187,1.002,2.653,1.518,4.392,1.518c1.983,0,3.506-0.545,4.634-1.67c0.092-0.121,0.184-0.18,0.244-0.18
		c0.123,0,0.184,0.18,0.184,0.574V32.488z"/>
	<path class="st2" d="M31.425,33.519V10.762h5.947v22.757H31.425z"/>
	<path class="st2" d="M58.993,33.519L48.071,19.592v13.927h-5.947V10.762h5.947l10.921,13.928V10.762h5.947v22.757H58.993z"/>
	<path class="st2" d="M69.11,33.519V10.762h1.982L71.43,9.82h9.028l-0.337,0.941h1.983v5.008H75.06v3.792h6.679v5.007H75.06v3.943
		h7.045v5.007H69.11z"/>
	<g>
		<g>
			<g>
				<path class="st1" d="M156.739,69.11c-40.834,4.413-81.667,8.835-122.5,13.25c-1.264-14.211-2.525-28.421-3.786-42.634
					c40.712-2.315,81.42-4.63,122.131-6.941C153.967,44.894,155.351,57.002,156.739,69.11z"/>
			</g>
			<path class="st2" d="M103.997,60.527c0.59,2.593,0.886,3.888,1.478,6.474c2.333-0.23,3.501-0.343,5.835-0.575
				c-1.965-7.788-3.917-15.581-5.863-23.376c-2.305,0.152-3.46,0.231-5.766,0.387c-0.885,3.296-1.329,4.956-2.219,8.28
				c-0.036,0.125-0.08,0.241-0.137,0.352c-0.058,0.111-0.123,0.217-0.197,0.315c-0.078,0.097-0.161,0.186-0.254,0.266
				c-0.093,0.079-0.19,0.149-0.296,0.207c-0.11,0.062-0.224,0.11-0.342,0.146c-0.116,0.037-0.241,0.061-0.372,0.07
				c-0.129,0.009-0.255,0.008-0.38-0.01c-0.124-0.018-0.246-0.048-0.362-0.088c-0.115-0.044-0.229-0.097-0.338-0.162
				c-0.107-0.063-0.209-0.137-0.302-0.226c-0.093-0.082-0.177-0.174-0.257-0.275c-0.076-0.103-0.147-0.211-0.205-0.329
				c-1.479-3.155-2.213-4.741-3.689-7.924c-2.305,0.154-3.459,0.232-5.762,0.385c-0.467,8.25-0.929,16.497-1.393,24.746
				c2.322-0.227,3.483-0.341,5.807-0.569c0.101-2.709,0.148-4.064,0.25-6.771c0.011-0.134,0.036-0.264,0.069-0.387
				c0.036-0.127,0.083-0.246,0.14-0.359c0.056-0.114,0.123-0.221,0.198-0.319c0.076-0.101,0.161-0.19,0.253-0.274
				c0.092-0.079,0.191-0.151,0.298-0.211c0.107-0.063,0.222-0.112,0.339-0.149c0.119-0.037,0.246-0.063,0.373-0.074
				c0.129-0.011,0.258-0.007,0.381,0.011c0.125,0.014,0.247,0.044,0.362,0.085c0.118,0.042,0.23,0.095,0.337,0.156
				c0.104,0.064,0.207,0.139,0.301,0.223c0.096,0.085,0.18,0.176,0.258,0.278c0.076,0.102,0.146,0.209,0.208,0.327
				c1.317,2.72,1.976,4.07,3.296,6.771c0.934-0.092,1.398-0.138,2.334-0.229c0.809-2.901,1.215-4.345,2.025-7.225
				c0.033-0.125,0.082-0.242,0.139-0.354c0.055-0.112,0.12-0.218,0.197-0.316c0.074-0.099,0.158-0.187,0.252-0.266
				c0.093-0.082,0.192-0.152,0.298-0.212c0.106-0.063,0.222-0.111,0.341-0.146c0.117-0.039,0.244-0.063,0.372-0.074
				c0.13-0.01,0.256-0.009,0.382,0.008c0.122,0.016,0.243,0.045,0.361,0.084c0.115,0.041,0.228,0.095,0.338,0.156
				c0.105,0.063,0.204,0.134,0.299,0.219c0.094,0.082,0.184,0.172,0.26,0.273c0.078,0.099,0.146,0.206,0.207,0.32
				C103.907,60.279,103.958,60.4,103.997,60.527z"/>
			<path class="st2" d="M70.666,45.375c-2.535,0.169-3.803,0.254-6.334,0.423c-2.095,8.614-4.177,17.236-6.245,25.856
				c2.467-0.242,3.698-0.363,6.165-0.606c0.314-1.271,0.474-1.903,0.787-3.175c0.069-0.255,0.186-0.492,0.337-0.698
				c0.152-0.205,0.338-0.378,0.553-0.505c0.215-0.124,0.456-0.205,0.711-0.229c2.191-0.203,3.29-0.308,5.482-0.51
				c0.257-0.022,0.51,0.011,0.744,0.095c0.232,0.085,0.449,0.217,0.635,0.388c0.189,0.17,0.346,0.381,0.464,0.618
				c0.532,1.173,0.8,1.76,1.327,2.933c2.491-0.244,3.736-0.367,6.226-0.613C77.871,61.373,74.253,53.38,70.666,45.375z
				 M68.962,61.23c-1.578,0.138-2.99-1.175-3.157-2.935c-0.167-1.758,0.975-3.282,2.551-3.405c1.576-0.125,2.989,1.192,3.158,2.937
				C71.68,59.571,70.538,61.095,68.962,61.23z"/>
			<path class="st2" d="M115.146,66.019c3.266-0.322,4.898-0.482,8.166-0.802c-0.527-4.927-1.055-9.854-1.578-14.783
				c-3.264,0.255-4.893,0.385-8.154,0.64C114.101,56.055,114.624,61.035,115.146,66.019z"/>
			<path class="st2" d="M116.472,39.854c-2.418,0.151-4.163,2.332-3.897,4.868c0.265,2.537,2.442,4.445,4.862,4.261
				c2.421-0.183,4.165-2.363,3.897-4.868C121.067,41.605,118.89,39.7,116.472,39.854z"/>
			<path class="st2" d="M50.852,64.392c-0.111-1.173,0.64-2.194,1.672-2.283c1.801-0.155,2.7-0.232,4.501-0.386
				c-0.207-2.228-0.312-3.339-0.52-5.564c-1.8,0.141-2.7,0.211-4.497,0.355c-1.033,0.081-1.956-0.804-2.066-1.977
				c-0.107-1.173,0.642-2.186,1.675-2.263c2.047-0.149,3.072-0.227,5.123-0.378c-0.207-2.223-0.312-3.334-0.521-5.556
				c-5.125,0.343-7.688,0.514-12.813,0.856c0.78,8.555,1.557,17.113,2.339,25.669c2.331-0.229,3.499-0.345,5.833-0.575
				C51.288,69.134,51.141,67.551,50.852,64.392z"/>
			<path class="st2" d="M138.11,58.737c-0.125,0.013-0.256,0.011-0.379-0.003c-0.123-0.015-0.248-0.041-0.363-0.078
				c-0.118-0.036-0.231-0.088-0.338-0.147s-0.207-0.127-0.303-0.205c-0.093-0.08-0.181-0.166-0.258-0.261
				c-0.08-0.095-0.15-0.2-0.209-0.308c-0.06-0.107-0.109-0.227-0.147-0.348c-0.04-0.12-0.065-0.248-0.081-0.38
				c-0.015-0.129-0.015-0.259-0.004-0.386c0.012-0.126,0.039-0.249,0.07-0.365c0.034-0.118,0.082-0.232,0.136-0.338
				c2.368-5.143,4.756-10.278,7.163-15.405c-6.177,0.415-12.348,0.827-18.521,1.238c0.219,2.032,0.327,3.049,0.546,5.081
				c2.198-0.164,3.302-0.243,5.5-0.406c0.129-0.009,0.257-0.005,0.38,0.013c0.125,0.014,0.245,0.044,0.364,0.086
				c0.115,0.038,0.229,0.09,0.336,0.152c0.105,0.061,0.207,0.131,0.301,0.21c0.095,0.081,0.182,0.17,0.259,0.267
				c0.079,0.096,0.149,0.201,0.208,0.31c0.06,0.111,0.11,0.229,0.148,0.35c0.039,0.124,0.066,0.25,0.08,0.384
				c0.016,0.128,0.016,0.26,0.004,0.385c-0.01,0.127-0.035,0.248-0.069,0.366c-0.035,0.117-0.081,0.23-0.138,0.337
				c-2.43,5.238-4.84,10.486-7.229,15.743c6.404-0.628,12.809-1.256,19.213-1.887c-0.223-1.984-0.334-2.977-0.555-4.962
				C141.78,58.403,140.558,58.516,138.11,58.737z"/>
		</g>
	</g>
	<path class="st2" d="M115.127,25.371v8.191c0,0.307-0.06,0.43-0.305,0.43h-6.245c-0.209,0-0.336-0.154-0.336-0.369v-8.191
		c0-0.336-0.119-0.456-0.393-0.456h-8.102c-0.243,0-0.365-0.152-0.365-0.427v-6.211c0-0.244,0.092-0.363,0.338-0.363h8.16
		c0.242,0,0.361-0.121,0.361-0.396v-7.034c0-0.185,0.127-0.306,0.306-0.306h6.216c0.244,0,0.364,0.092,0.364,0.306v7.034
		c0,0.331,0.063,0.396,0.335,0.396h8.165c0.241,0,0.333,0.119,0.333,0.395v6.242c0,0.212-0.12,0.364-0.333,0.364h-8.073
		C115.22,24.976,115.127,25.039,115.127,25.371z"/>
</g>
</svg>
