<?xml version="1.0" encoding="UTF-8" standalone="no"?>
<!-- Created with Inkscape (http://www.inkscape.org/) -->

<svg
   xmlns:dc="http://purl.org/dc/elements/1.1/"
   xmlns:cc="http://creativecommons.org/ns#"
   xmlns:rdf="http://www.w3.org/1999/02/22-rdf-syntax-ns#"
   xmlns:svg="http://www.w3.org/2000/svg"
   xmlns="http://www.w3.org/2000/svg"
   version="1.1"
   width="50"
   height="26"
   viewBox="0 0 49.999998 26.000001"
   id="Calque_1"
   xml:space="preserve"><metadata
   id="metadata3224"><rdf:RDF><cc:Work
       rdf:about=""><dc:format>image/svg+xml</dc:format><dc:type
         rdf:resource="http://purl.org/dc/dcmitype/StillImage" /><dc:title></dc:title></cc:Work></rdf:RDF></metadata><defs
   id="defs3222" />
<style
   type="text/css"
   id="style3182" />
<g
   transform="matrix(0.3245194,0,0,0.3245194,0,0.135805)"
   id="g3184">
	<g
   id="g3186">
		<rect
   width="129.241"
   height="40.82"
   x="0"
   y="0"
   id="rect3188"
   style="fill:#4d454a" />
	</g>
	<path
   d="m 24.408,29.828 c 0,0.333 -0.274,0.606 -0.854,0.818 -1.616,0.547 -3.11,0.82 -4.513,0.82 -2.105,0 -4.117,-0.516 -6.071,-1.578 C 9.065,27.733 6.9,24.123 6.9,19.662 c 0,-2.458 0.671,-4.672 1.984,-6.676 1.341,-2.001 3.14,-3.487 5.398,-4.43 1.462,-0.637 3.019,-0.939 4.697,-0.939 1.13,0 2.35,0.182 3.66,0.516 0.397,0.091 0.702,0.213 0.976,0.334 l 0.334,0.152 c 0.275,0.121 0.428,0.333 0.428,0.605 v 5.856 c 0,0.152 -0.06,0.214 -0.153,0.214 -0.029,0 -0.122,-0.062 -0.275,-0.153 -0.456,-0.454 -1.126,-0.819 -2.012,-1.123 -0.945,-0.333 -1.8,-0.485 -2.531,-0.485 -2.654,0 -4.88,1.397 -5.888,3.732 -0.335,0.758 -0.486,1.578 -0.486,2.458 0,1.729 0.639,3.126 1.922,4.218 1.187,1.002 2.653,1.518 4.392,1.518 1.983,0 3.506,-0.545 4.634,-1.669 0.092,-0.122 0.184,-0.181 0.244,-0.181 0.123,0 0.184,0.181 0.184,0.574 v 5.645 z"
   id="path3190"
   style="fill:#ffffff" />
	<path
   d="M 28.762,30.858 V 8.101 h 5.947 v 22.757 h -5.947 z"
   id="path3192"
   style="fill:#ffffff" />
	<path
   d="M 56.33,30.858 45.408,16.931 V 30.858 H 39.461 V 8.101 h 5.947 L 56.33,22.029 V 8.101 h 5.947 V 30.858 H 56.33 z"
   id="path3194"
   style="fill:#ffffff" />
	<path
   d="M 66.447,30.858 V 8.101 h 1.982 L 68.766,7.16 h 9.028 l -0.337,0.941 h 1.983 v 5.007 H 72.395 V 16.9 h 6.679 v 5.006 h -6.679 v 3.944 h 7.045 v 5.006 H 66.447 z"
   id="path3196"
   style="fill:#ffffff" />
	<g
   id="g3198">
		<g
   id="g3200">
			<path
   d="M 154.074,66.45 C 113.248,70.867 72.421,75.279 31.595,79.7 30.335,65.488 29.071,51.275 27.812,37.063 c 40.702,-2.316 81.404,-4.629 122.109,-6.938 1.382,12.109 2.765,24.219 4.153,36.325 z"
   id="path3202"
   style="fill:#ed1c24" />
			<path
   d="m 41.775,43.295 c -0.464,0.03 -0.697,0.045 -1.16,0.074 -2.022,0.134 -4.042,0.267 -6.063,0.398 0.845,9.406 1.69,18.812 2.535,28.217 1.783,-0.178 2.674,-0.268 4.457,-0.445 C 41.208,67.82 40.87,64.1 40.533,60.381 c 1.223,-0.105 1.835,-0.158 3.056,-0.264 4.153,-0.396 6.585,-4.58 6.224,-8.473 -0.022,-0.232 -0.041,-0.442 -0.059,-0.631 -0.376,-4.054 -3.647,-7.97 -7.979,-7.718 z m 3.59,8.687 c 0.145,1.577 -0.861,2.941 -2.242,3.053 -0.332,0.026 -0.498,0.039 -0.829,0.066 -0.89,0.07 -1.335,0.105 -2.224,0.177 -0.203,-2.231 -0.405,-4.464 -0.606,-6.696 0.888,-0.063 1.333,-0.096 2.223,-0.158 0.175,-0.014 0.553,-0.04 0.553,-0.04 1.535,-0.108 2.909,1.218 3.07,2.966 0.021,0.254 0.032,0.379 0.055,0.632 z"
   id="path3204"
   style="fill:#ffffff" />
			<path
   d="m 74.944,63.274 c 2.413,-0.226 4.824,-0.452 7.236,-0.677 0.189,1.938 0.287,2.907 0.477,4.846 -3.895,0.389 -7.789,0.776 -11.684,1.164 -0.866,-9.018 -1.735,-18.033 -2.603,-27.052 3.888,-0.254 7.774,-0.509 11.66,-0.762 0.189,1.939 0.286,2.907 0.479,4.845 -2.408,0.172 -4.817,0.344 -7.224,0.518 0.213,2.201 0.321,3.302 0.534,5.502 2.408,-0.188 4.818,-0.378 7.227,-0.567 0.189,1.937 0.287,2.907 0.477,4.843 -2.41,0.205 -4.819,0.41 -7.229,0.614 0.216,2.243 0.433,4.484 0.65,6.726 z"
   id="path3206"
   style="fill:#ffffff" />
			<path
   d="m 90.875,66.627 c -0.481,-4.796 -0.963,-9.59 -1.443,-14.384 1.771,4.669 3.549,9.333 5.334,13.994 1.337,-0.132 2.006,-0.198 3.342,-0.331 0.811,-4.855 1.625,-9.708 2.441,-14.561 0.484,4.723 0.971,9.447 1.455,14.172 1.78,-0.179 2.671,-0.267 4.452,-0.443 -0.894,-8.611 -1.782,-17.221 -2.675,-25.83 -1.999,0.129 -3,0.195 -4.996,0.327 -1.148,5.263 -2.293,10.527 -3.432,15.794 -2.202,-5.043 -4.392,-10.09 -6.57,-15.142 -1.999,0.131 -2.998,0.197 -4.996,0.328 0.877,8.839 1.754,17.68 2.633,26.518 1.783,-0.178 2.674,-0.266 4.455,-0.442 z"
   id="path3208"
   style="fill:#ffffff" />
			<path
   d="m 66.111,50.4 c -0.021,-0.229 -0.042,-0.433 -0.059,-0.618 -0.39,-4.048 -3.713,-7.783 -7.989,-7.548 -0.463,0.027 -0.695,0.042 -1.157,0.069 -2.022,0.134 -4.043,0.267 -6.065,0.398 0.856,9.218 1.712,18.437 2.569,27.656 1.782,-0.178 2.673,-0.269 4.456,-0.444 -0.342,-3.646 -0.684,-7.291 -1.025,-10.938 0.921,-0.078 1.383,-0.119 2.304,-0.197 1.353,3.535 2.711,7.07 4.071,10.603 1.865,-0.188 2.8,-0.28 4.665,-0.466 C 66.38,65.041 64.88,61.166 63.388,57.288 65.403,55.617 66.359,52.984 66.111,50.4 z M 55.756,47.414 c 0.89,-0.063 1.333,-0.095 2.222,-0.158 0.175,-0.013 0.554,-0.039 0.554,-0.039 1.535,-0.109 2.911,1.188 3.073,2.901 0.023,0.248 0.034,0.372 0.057,0.62 0.147,1.545 -0.852,2.884 -2.236,2.994 -0.333,0.025 -0.499,0.039 -0.833,0.066 -0.89,0.069 -1.333,0.105 -2.223,0.178 -0.204,-2.187 -0.409,-4.372 -0.614,-6.562 z"
   id="path3210"
   style="fill:#ffffff" />
			<path
   d="m 107.483,39.001 c 0.896,8.568 1.788,17.136 2.683,25.703 1.779,-0.179 2.67,-0.267 4.451,-0.442 -0.898,-8.518 -1.797,-17.033 -2.691,-25.55 -1.778,0.116 -2.666,0.175 -4.443,0.289 z"
   id="path3212"
   style="fill:#ffffff" />
			<path
   d="m 122.652,58.818 c 2.409,-0.225 4.822,-0.449 7.232,-0.674 0.199,1.818 0.299,2.727 0.495,4.545 -3.895,0.389 -7.788,0.776 -11.683,1.165 -0.902,-8.472 -1.801,-16.942 -2.701,-25.412 3.887,-0.253 7.775,-0.508 11.662,-0.762 0.199,1.818 0.296,2.728 0.494,4.546 -2.407,0.173 -4.815,0.344 -7.223,0.518 0.221,2.067 0.332,3.101 0.553,5.168 2.41,-0.188 4.818,-0.379 7.228,-0.568 0.197,1.818 0.297,2.729 0.495,4.546 -2.41,0.204 -4.82,0.409 -7.23,0.613 0.227,2.105 0.452,4.211 0.678,6.315 z"
   id="path3214"
   style="fill:#ffffff" />
			<path
   d="m 146.593,44.262 c -0.023,-0.205 -0.045,-0.391 -0.063,-0.555 -0.459,-3.936 -4.065,-6.967 -8.037,-6.732 -0.465,0.029 -0.695,0.041 -1.158,0.071 -2.021,0.132 -4.044,0.264 -6.066,0.397 0.911,8.295 1.822,16.59 2.732,24.888 1.782,-0.179 2.673,-0.268 4.457,-0.444 -0.362,-3.279 -0.726,-6.557 -1.09,-9.835 0.922,-0.079 1.383,-0.12 2.303,-0.198 1.373,3.17 2.752,6.335 4.136,9.498 1.868,-0.184 2.8,-0.277 4.665,-0.463 -1.527,-3.469 -3.05,-6.939 -4.564,-10.412 1.929,-1.445 2.952,-3.82 2.685,-6.215 z M 136.121,41.66 c 0.888,-0.066 1.333,-0.096 2.221,-0.159 0.179,-0.013 0.555,-0.04 0.555,-0.04 1.535,-0.109 2.92,1.049 3.092,2.589 0.025,0.223 0.037,0.335 0.061,0.558 0.156,1.387 -0.837,2.6 -2.219,2.709 -0.334,0.027 -1.833,0.146 -2.166,0.172 -0.889,0.072 0,0 -0.889,0.072 -0.263,-2.36 -0.393,-3.54 -0.655,-5.901 z"
   id="path3216"
   style="fill:#ffffff" />
		</g>
	</g>
	<path
   d="m 112.464,22.71 v 8.191 c 0,0.307 -0.06,0.43 -0.305,0.43 h -6.245 c -0.209,0 -0.336,-0.154 -0.336,-0.369 v -8.191 c 0,-0.335 -0.119,-0.456 -0.393,-0.456 h -8.102 c -0.243,0 -0.365,-0.152 -0.365,-0.427 v -6.211 c 0,-0.244 0.092,-0.363 0.338,-0.363 h 8.16 c 0.242,0 0.361,-0.121 0.361,-0.397 V 7.883 c 0,-0.184 0.127,-0.306 0.306,-0.306 h 6.216 c 0.244,0 0.364,0.092 0.364,0.306 v 7.034 c 0,0.332 0.063,0.397 0.335,0.397 h 8.165 c 0.241,0 0.333,0.12 0.333,0.394 v 6.242 c 0,0.212 -0.12,0.365 -0.333,0.365 h -8.073 c -0.333,0 -0.426,0.063 -0.426,0.395 z"
   id="path3218"
   style="fill:#ffffff" />
</g>
</svg>