<?xml version="1.0" encoding="UTF-8" standalone="no"?>
<!-- Created with Inkscape (http://www.inkscape.org/) -->

<svg
   xmlns:dc="http://purl.org/dc/elements/1.1/"
   xmlns:cc="http://creativecommons.org/ns#"
   xmlns:rdf="http://www.w3.org/1999/02/22-rdf-syntax-ns#"
   xmlns:svg="http://www.w3.org/2000/svg"
   xmlns="http://www.w3.org/2000/svg"
   version="1.1"
   width="50"
   height="26"
   viewBox="0 0 50.000002 26.000001"
   id="Calque_1"
   xml:space="preserve"><metadata
   id="metadata41"><rdf:RDF><cc:Work
       rdf:about=""><dc:format>image/svg+xml</dc:format><dc:type
         rdf:resource="http://purl.org/dc/dcmitype/StillImage" /><dc:title></dc:title></cc:Work></rdf:RDF></metadata><defs
   id="defs39" />
<style
   type="text/css"
   id="style3" />
<g
   transform="matrix(0.32447728,0,0,0.32447728,0,0.13883717)"
   id="g5">
	<g
   id="g7">
		<rect
   width="129.245"
   height="40.82"
   x="0"
   y="0"
   id="rect9"
   style="fill:#4d454a" />
	</g>
	<path
   d="m 24.408,29.828 c 0,0.332 -0.274,0.605 -0.854,0.818 -1.616,0.547 -3.11,0.82 -4.513,0.82 -2.105,0 -4.117,-0.516 -6.071,-1.578 C 9.065,27.734 6.9,24.123 6.9,19.662 c 0,-2.457 0.671,-4.672 1.984,-6.676 1.341,-2.002 3.14,-3.488 5.398,-4.43 1.462,-0.639 3.019,-0.939 4.697,-0.939 1.13,0 2.35,0.182 3.66,0.516 0.397,0.09 0.702,0.213 0.976,0.334 l 0.334,0.152 c 0.275,0.119 0.428,0.332 0.428,0.605 v 5.855 c 0,0.152 -0.06,0.215 -0.153,0.215 -0.029,0 -0.122,-0.063 -0.275,-0.154 -0.456,-0.453 -1.126,-0.818 -2.012,-1.123 -0.945,-0.332 -1.8,-0.484 -2.531,-0.484 -2.654,0 -4.88,1.396 -5.888,3.732 -0.335,0.758 -0.486,1.578 -0.486,2.457 0,1.73 0.639,3.127 1.922,4.219 1.187,1.002 2.653,1.518 4.392,1.518 1.983,0 3.506,-0.545 4.634,-1.67 0.092,-0.121 0.184,-0.18 0.244,-0.18 0.123,0 0.184,0.18 0.184,0.574 v 5.645 z"
   id="path11"
   style="fill:#ffffff" />
	<path
   d="M 28.762,30.857 V 8.102 h 5.947 v 22.756 h -5.947 z"
   id="path13"
   style="fill:#ffffff" />
	<path
   d="M 56.33,30.857 45.408,16.932 V 30.858 H 39.461 V 8.102 h 5.947 L 56.33,22.029 V 8.102 h 5.947 V 30.858 H 56.33 z"
   id="path15"
   style="fill:#ffffff" />
	<path
   d="M 66.447,30.857 V 8.102 h 1.982 l 0.337,-0.941 h 9.028 l -0.337,0.941 h 1.983 v 5.008 h -7.045 v 3.79 h 6.679 v 5.008 h -6.679 v 3.943 h 7.045 v 5.006 H 66.447 z"
   id="path17"
   style="fill:#ffffff" />
	<g
   id="g19">
		<g
   id="g21">
			<path
   d="M 154.094,66.456 C 113.263,70.869 72.43,75.291 31.596,79.701 30.077,62.649 29.32,54.115 27.807,37.06 c 40.713,-2.309 81.424,-4.626 122.131,-6.935 1.661,14.529 2.494,21.798 4.156,36.331 z"
   id="path23"
   style="fill:#0095da" />
		</g>
		<g
   id="g25">
			<path
   d="m 47.707,50.029 c 0.083,0.888 0.157,1.7 0.227,2.462 0.069,0.761 0.137,1.475 0.199,2.164 0.063,0.686 0.124,1.349 0.185,2.012 0.062,0.662 0.123,1.323 0.186,2.013 0.062,0.688 0.127,1.397 0.197,2.159 0.07,0.765 0.144,1.577 0.227,2.463 0.936,-0.088 1.781,-0.168 2.567,-0.244 0.787,-0.074 1.516,-0.145 2.229,-0.209 0.711,-0.068 1.403,-0.134 2.116,-0.202 0.714,-0.067 1.443,-0.138 2.229,-0.211 0.788,-0.076 1.631,-0.153 2.565,-0.241 -0.081,-0.888 -0.145,-1.553 -0.206,-2.214 -0.063,-0.659 -0.125,-1.316 -0.208,-2.197 0.887,0.121 1.552,0.211 2.217,0.302 0.665,0.092 1.329,0.184 2.214,0.301 0.093,0.962 0.138,1.443 0.229,2.405 0.091,0.955 0.095,1.743 -0.004,2.394 -0.099,0.646 -0.303,1.162 -0.626,1.563 -0.324,0.404 -0.771,0.694 -1.355,0.911 -0.583,0.216 -1.305,0.352 -2.18,0.441 -0.892,0.091 -1.696,0.172 -2.442,0.246 -0.749,0.075 -1.444,0.146 -2.12,0.216 -0.677,0.069 -1.335,0.136 -2.013,0.201 -0.677,0.071 -1.374,0.139 -2.123,0.216 -0.747,0.077 -1.547,0.153 -2.438,0.244 -0.877,0.094 -1.61,0.103 -2.224,0.004 C 46.743,67.127 46.251,66.922 45.858,66.581 45.465,66.242 45.17,65.764 44.951,65.124 44.732,64.483 44.586,63.679 44.495,62.69 44.413,61.798 44.341,60.995 44.273,60.248 44.204,59.503 44.141,58.805 44.08,58.13 44.018,57.454 43.958,56.795 43.896,56.118 43.835,55.443 43.772,54.75 43.704,54.003 c -0.068,-0.745 -0.141,-1.549 -0.222,-2.44 -0.093,-0.991 -0.096,-1.808 0.004,-2.478 0.1,-0.666 0.302,-1.183 0.626,-1.586 0.326,-0.4 0.772,-0.684 1.354,-0.881 0.584,-0.196 1.304,-0.304 2.181,-0.362 0.89,-0.058 1.693,-0.11 2.44,-0.156 0.748,-0.046 1.443,-0.091 2.12,-0.134 0.678,-0.045 1.334,-0.086 2.012,-0.13 0.676,-0.04 1.373,-0.083 2.119,-0.134 0.751,-0.047 1.551,-0.1 2.44,-0.154 0.879,-0.059 1.609,-0.039 2.224,0.075 0.612,0.116 1.103,0.336 1.498,0.679 0.393,0.343 0.691,0.813 0.911,1.437 0.219,0.628 0.364,1.403 0.454,2.361 0.074,0.775 0.11,1.159 0.184,1.931 -0.855,0.213 -1.495,0.378 -2.134,0.538 -0.642,0.163 -1.283,0.327 -2.135,0.545 -0.074,-0.777 -0.127,-1.362 -0.183,-1.946 -0.054,-0.584 -0.11,-1.171 -0.181,-1.951 -0.938,0.066 -1.782,0.123 -2.57,0.181 -0.788,0.057 -1.518,0.105 -2.229,0.153 -0.71,0.049 -1.403,0.098 -2.115,0.15 -0.713,0.048 -1.441,0.099 -2.23,0.151 -0.786,0.052 -1.628,0.114 -2.565,0.177 z"
   id="path27"
   style="fill:#ffffff" />
		</g>
		<path
   d="m 71.787,47.13 c 0.751,-0.049 1.315,-0.09 1.878,-0.125 0.565,-0.038 1.127,-0.075 1.88,-0.125 0.086,0.89 0.166,1.702 0.24,2.464 0.074,0.765 0.143,1.474 0.21,2.159 0.065,0.68 0.129,1.341 0.193,2.001 0.066,0.659 0.129,1.314 0.196,1.999 0.065,0.682 0.134,1.391 0.206,2.148 0.074,0.756 0.152,1.566 0.24,2.451 0.959,-0.092 1.822,-0.173 2.629,-0.246 0.807,-0.076 1.555,-0.146 2.285,-0.215 0.729,-0.07 1.439,-0.132 2.168,-0.204 0.73,-0.066 1.479,-0.139 2.285,-0.213 0.807,-0.075 1.67,-0.156 2.629,-0.248 0.062,0.598 0.105,1.046 0.15,1.5 0.045,0.448 0.09,0.896 0.15,1.505 -0.901,0.09 -1.736,0.171 -2.527,0.25 -0.788,0.079 -1.535,0.152 -2.248,0.222 -0.719,0.073 -1.408,0.141 -2.088,0.209 -0.681,0.07 -1.35,0.134 -2.031,0.202 -0.68,0.066 -1.367,0.136 -2.084,0.202 -0.717,0.072 -1.464,0.147 -2.253,0.229 -0.79,0.076 -1.626,0.16 -2.525,0.25 -0.093,-0.951 -0.177,-1.827 -0.257,-2.655 -0.079,-0.826 -0.155,-1.598 -0.226,-2.346 -0.07,-0.745 -0.143,-1.457 -0.208,-2.162 -0.067,-0.703 -0.134,-1.399 -0.204,-2.104 -0.066,-0.702 -0.135,-1.419 -0.207,-2.159 -0.072,-0.744 -0.147,-1.518 -0.225,-2.341 -0.079,-0.825 -0.165,-1.699 -0.256,-2.648 z"
   id="path29"
   style="fill:#ffffff" />
		<path
   d="m 97.403,58.175 c 0.85,-0.081 1.616,-0.152 2.33,-0.222 0.716,-0.066 1.378,-0.126 2.024,-0.189 0.646,-0.062 1.275,-0.118 1.921,-0.18 0.645,-0.06 1.31,-0.123 2.024,-0.189 0.711,-0.067 1.479,-0.138 2.328,-0.217 -0.086,-0.833 -0.166,-1.593 -0.238,-2.301 -0.074,-0.712 -0.145,-1.373 -0.209,-2.01 -0.068,-0.639 -0.129,-1.257 -0.193,-1.871 -0.063,-0.617 -0.129,-1.232 -0.195,-1.869 -0.063,-0.646 -0.135,-1.312 -0.207,-2.028 -0.075,-0.714 -0.154,-1.482 -0.243,-2.325 0.751,-0.053 1.317,-0.088 1.88,-0.126 0.566,-0.039 1.126,-0.076 1.88,-0.127 0.097,0.944 0.185,1.785 0.268,2.562 0.081,0.779 0.157,1.502 0.229,2.203 0.073,0.694 0.146,1.373 0.216,2.069 0.072,0.7 0.15,1.412 0.23,2.183 0.08,0.773 0.164,1.6 0.262,2.528 0.1,0.947 0.067,1.677 -0.135,2.243 -0.199,0.566 -0.568,0.964 -1.139,1.248 -0.57,0.282 -1.344,0.443 -2.354,0.546 -0.813,0.077 -1.539,0.15 -2.22,0.218 -0.683,0.07 -1.313,0.134 -1.93,0.195 -0.614,0.058 -1.213,0.121 -1.83,0.181 -0.614,0.06 -1.245,0.121 -1.925,0.188 -0.682,0.068 -1.41,0.141 -2.219,0.222 -1.013,0.1 -1.803,0.088 -2.413,-0.083 -0.612,-0.173 -1.05,-0.501 -1.357,-1.034 -0.307,-0.534 -0.485,-1.271 -0.585,-2.252 -0.098,-0.96 -0.184,-1.825 -0.264,-2.627 -0.082,-0.802 -0.156,-1.547 -0.229,-2.273 -0.072,-0.725 -0.145,-1.43 -0.219,-2.159 -0.07,-0.726 -0.145,-1.472 -0.227,-2.28 -0.082,-0.808 -0.17,-1.679 -0.268,-2.653 0.742,-0.053 1.301,-0.09 1.86,-0.128 0.56,-0.037 1.116,-0.077 1.861,-0.127 0.088,0.863 0.165,1.645 0.241,2.377 0.073,0.729 0.144,1.412 0.208,2.066 0.067,0.657 0.13,1.289 0.196,1.918 0.063,0.631 0.125,1.259 0.193,1.913 0.066,0.652 0.133,1.331 0.205,2.058 0.08,0.722 0.157,1.497 0.243,2.352 z"
   id="path31"
   style="fill:#ffffff" />
		<path
   d="m 119.549,43.909 c 0.916,-0.062 1.754,-0.118 2.545,-0.171 0.787,-0.055 1.523,-0.104 2.236,-0.151 0.711,-0.047 1.398,-0.093 2.086,-0.141 0.686,-0.046 1.373,-0.093 2.084,-0.141 0.712,-0.049 1.448,-0.099 2.238,-0.153 0.787,-0.053 1.629,-0.106 2.543,-0.17 0.82,-0.053 1.506,-0.015 2.061,0.141 0.557,0.156 0.986,0.425 1.294,0.824 0.31,0.401 0.495,0.929 0.572,1.605 0.075,0.688 0.114,1.028 0.19,1.714 0.07,0.652 -0.103,1.207 -0.502,1.647 -0.398,0.441 -1.834,0.973 -1.834,0.973 0.002,0.011 1.598,0.327 2.105,0.751 0.514,0.427 0.822,1.016 0.906,1.737 0.078,0.726 0.12,1.09 0.2,1.828 0.069,0.637 -0.046,1.186 -0.352,1.646 -0.302,0.457 -0.796,0.834 -1.473,1.117 -0.679,0.281 -1.542,0.475 -2.591,0.58 -0.848,0.081 -1.625,0.16 -2.355,0.235 -0.73,0.072 -1.414,0.137 -2.072,0.202 -0.661,0.068 -1.296,0.128 -1.933,0.193 -0.636,0.062 -1.274,0.129 -1.933,0.191 -0.658,0.063 -1.344,0.132 -2.074,0.206 -0.729,0.07 -1.506,0.149 -2.355,0.232 -0.094,-0.878 -0.18,-1.683 -0.258,-2.432 -0.082,-0.755 -0.158,-1.456 -0.229,-2.132 -0.072,-0.675 -0.141,-1.318 -0.209,-1.953 -0.067,-0.637 -0.133,-1.262 -0.201,-1.896 -0.067,-0.635 -0.137,-1.279 -0.208,-1.948 -0.07,-0.673 -0.146,-1.373 -0.226,-2.12 -0.075,-0.746 -0.16,-1.542 -0.255,-2.414 z m 3.951,2.187 c 0.074,0.7 0.129,1.224 0.187,1.743 0.056,0.52 0.11,1.037 0.183,1.728 0.836,-0.066 1.568,-0.124 2.246,-0.181 0.678,-0.053 1.305,-0.105 1.93,-0.156 0.626,-0.046 1.253,-0.096 1.93,-0.149 0.681,-0.057 1.41,-0.114 2.244,-0.18 1.119,-0.09 1.645,-0.301 1.551,-1.146 -0.059,-0.543 -0.088,-0.815 -0.15,-1.359 -0.09,-0.849 -0.617,-0.984 -1.771,-0.901 -0.834,0.06 -1.564,0.112 -2.244,0.163 -0.678,0.048 -1.305,0.095 -1.93,0.138 -0.627,0.047 -1.254,0.09 -1.932,0.139 -0.681,0.046 -1.41,0.101 -2.244,0.161 z m 0.629,5.884 c 0.08,0.744 0.143,1.305 0.202,1.867 0.061,0.562 0.12,1.126 0.202,1.886 0.834,-0.078 1.564,-0.148 2.242,-0.212 0.681,-0.063 1.308,-0.126 1.932,-0.183 0.627,-0.06 1.251,-0.116 1.931,-0.183 0.68,-0.062 1.409,-0.13 2.243,-0.206 0.633,-0.062 1.078,-0.163 1.353,-0.383 0.271,-0.218 0.37,-0.56 0.313,-1.089 -0.049,-0.434 -0.07,-0.653 -0.12,-1.085 -0.056,-0.523 -0.229,-0.833 -0.544,-0.998 -0.313,-0.162 -0.771,-0.185 -1.406,-0.13 -0.832,0.071 -1.563,0.132 -2.242,0.194 -0.678,0.057 -1.303,0.109 -1.932,0.162 -0.625,0.055 -1.251,0.109 -1.929,0.167 -0.68,0.06 -1.41,0.122 -2.245,0.193 z"
   id="path33"
   style="fill:#ffffff" />
	</g>
	<path
   d="m 112.464,22.711 v 8.191 c 0,0.307 -0.06,0.43 -0.305,0.43 h -6.245 c -0.209,0 -0.336,-0.154 -0.336,-0.369 v -8.191 c 0,-0.336 -0.119,-0.457 -0.393,-0.457 h -8.102 c -0.243,0 -0.365,-0.152 -0.365,-0.426 v -6.211 c 0,-0.244 0.092,-0.363 0.338,-0.363 h 8.16 c 0.242,0 0.361,-0.121 0.361,-0.396 V 7.883 c 0,-0.184 0.127,-0.305 0.306,-0.305 h 6.216 c 0.244,0 0.364,0.092 0.364,0.305 v 7.035 c 0,0.33 0.063,0.396 0.335,0.396 h 8.165 c 0.241,0 0.333,0.119 0.333,0.395 v 6.242 c 0,0.211 -0.12,0.363 -0.333,0.363 h -8.073 c -0.333,0 -0.426,0.065 -0.426,0.397 z"
   id="path35"
   style="fill:#ffffff" />
</g>
</svg>