<?xml version="1.0" encoding="UTF-8" standalone="no"?>
<!-- Created with Inkscape (http://www.inkscape.org/) -->

<svg
   xmlns:dc="http://purl.org/dc/elements/1.1/"
   xmlns:cc="http://creativecommons.org/ns#"
   xmlns:rdf="http://www.w3.org/1999/02/22-rdf-syntax-ns#"
   xmlns:svg="http://www.w3.org/2000/svg"
   xmlns="http://www.w3.org/2000/svg"
   version="1.1"
   width="50"
   height="26"
   viewBox="0 0 50 26"
   id="Calque_1"
   xml:space="preserve"><metadata
   id="metadata3116"><rdf:RDF><cc:Work
       rdf:about=""><dc:format>image/svg+xml</dc:format><dc:type
         rdf:resource="http://purl.org/dc/dcmitype/StillImage" /><dc:title></dc:title></cc:Work></rdf:RDF></metadata><defs
   id="defs3114" />
<style
   type="text/css"
   id="style3074" />
<g
   transform="matrix(0.32451518,0,0,0.32451518,-0.86418396,-0.72707024)"
   id="g3076">
	<g
   id="g3078">
		<rect
   width="129.245"
   height="40.82"
   x="2.6630001"
   y="2.661"
   id="rect3080"
   style="fill:#4d454a" />
	</g>
	<path
   d="m 27.071,32.488 c 0,0.333 -0.274,0.605 -0.854,0.818 -1.616,0.547 -3.11,0.82 -4.513,0.82 -2.105,0 -4.117,-0.516 -6.071,-1.578 -3.904,-2.154 -6.07,-5.766 -6.07,-10.227 0,-2.457 0.671,-4.672 1.984,-6.676 1.341,-2.002 3.14,-3.488 5.398,-4.43 1.462,-0.638 3.019,-0.939 4.697,-0.939 1.13,0 2.35,0.182 3.66,0.516 0.397,0.091 0.702,0.213 0.976,0.334 l 0.334,0.152 c 0.275,0.12 0.428,0.332 0.428,0.605 v 5.855 c 0,0.152 -0.06,0.215 -0.153,0.215 -0.029,0 -0.122,-0.063 -0.275,-0.154 -0.456,-0.453 -1.126,-0.818 -2.012,-1.122 -0.945,-0.333 -1.8,-0.485 -2.531,-0.485 -2.654,0 -4.88,1.396 -5.888,3.732 -0.335,0.758 -0.486,1.578 -0.486,2.457 0,1.73 0.639,3.127 1.922,4.219 1.187,1.002 2.653,1.518 4.392,1.518 1.983,0 3.506,-0.545 4.634,-1.67 0.092,-0.121 0.184,-0.18 0.244,-0.18 0.123,0 0.184,0.18 0.184,0.574 v 5.646 z"
   id="path3082"
   style="fill:#ffffff" />
	<path
   d="M 31.425,33.519 V 10.762 h 5.947 v 22.757 h -5.947 z"
   id="path3084"
   style="fill:#ffffff" />
	<path
   d="M 58.993,33.519 48.071,19.592 V 33.519 H 42.124 V 10.762 h 5.947 L 58.992,24.69 V 10.762 h 5.947 v 22.757 h -5.946 z"
   id="path3086"
   style="fill:#ffffff" />
	<path
   d="M 69.11,33.519 V 10.762 h 1.982 L 71.43,9.82 h 9.028 l -0.337,0.941 h 1.983 v 5.008 H 75.06 v 3.792 h 6.679 v 5.007 H 75.06 v 3.943 h 7.045 v 5.007 H 69.11 z"
   id="path3088"
   style="fill:#ffffff" />
	<g
   id="g3090">
		<g
   id="g3092">
			<g
   id="g3094">
				<path
   d="m 156.739,69.11 c -40.834,4.413 -81.667,8.835 -122.5,13.25 -1.264,-14.211 -2.525,-28.421 -3.786,-42.634 40.712,-2.315 81.42,-4.63 122.131,-6.941 1.383,12.109 2.767,24.217 4.155,36.325 z"
   id="path3096"
   style="fill:#fdb913" />
			</g>
			<path
   d="m 103.997,60.527 c 0.59,2.593 0.886,3.888 1.478,6.474 2.333,-0.23 3.501,-0.343 5.835,-0.575 -1.965,-7.788 -3.917,-15.581 -5.863,-23.376 -2.305,0.152 -3.46,0.231 -5.766,0.387 -0.885,3.296 -1.329,4.956 -2.219,8.28 -0.036,0.125 -0.08,0.241 -0.137,0.352 -0.058,0.111 -0.123,0.217 -0.197,0.315 -0.078,0.097 -0.161,0.186 -0.254,0.266 -0.093,0.079 -0.19,0.149 -0.296,0.207 -0.11,0.062 -0.224,0.11 -0.342,0.146 -0.116,0.037 -0.241,0.061 -0.372,0.07 -0.129,0.009 -0.255,0.008 -0.38,-0.01 -0.124,-0.018 -0.246,-0.048 -0.362,-0.088 -0.115,-0.044 -0.229,-0.097 -0.338,-0.162 -0.107,-0.063 -0.209,-0.137 -0.302,-0.226 -0.093,-0.082 -0.177,-0.174 -0.257,-0.275 -0.076,-0.103 -0.147,-0.211 -0.205,-0.329 -1.479,-3.155 -2.213,-4.741 -3.689,-7.924 -2.305,0.154 -3.459,0.232 -5.762,0.385 -0.467,8.25 -0.929,16.497 -1.393,24.746 2.322,-0.227 3.483,-0.341 5.807,-0.569 0.101,-2.709 0.148,-4.064 0.25,-6.771 0.011,-0.134 0.036,-0.264 0.069,-0.387 0.036,-0.127 0.083,-0.246 0.14,-0.359 0.056,-0.114 0.123,-0.221 0.198,-0.319 0.076,-0.101 0.161,-0.19 0.253,-0.274 0.092,-0.079 0.191,-0.151 0.298,-0.211 0.107,-0.063 0.222,-0.112 0.339,-0.149 0.119,-0.037 0.246,-0.063 0.373,-0.074 0.129,-0.011 0.258,-0.007 0.381,0.011 0.125,0.014 0.247,0.044 0.362,0.085 0.118,0.042 0.23,0.095 0.337,0.156 0.104,0.064 0.207,0.139 0.301,0.223 0.096,0.085 0.18,0.176 0.258,0.278 0.076,0.102 0.146,0.209 0.208,0.327 1.317,2.72 1.976,4.07 3.296,6.771 0.934,-0.092 1.398,-0.138 2.334,-0.229 0.809,-2.901 1.215,-4.345 2.025,-7.225 0.033,-0.125 0.082,-0.242 0.139,-0.354 0.055,-0.112 0.12,-0.218 0.197,-0.316 0.074,-0.099 0.158,-0.187 0.252,-0.266 0.093,-0.082 0.192,-0.152 0.298,-0.212 0.106,-0.063 0.222,-0.111 0.341,-0.146 0.117,-0.039 0.244,-0.063 0.372,-0.074 0.13,-0.01 0.256,-0.009 0.382,0.008 0.122,0.016 0.243,0.045 0.361,0.084 0.115,0.041 0.228,0.095 0.338,0.156 0.105,0.063 0.204,0.134 0.299,0.219 0.094,0.082 0.184,0.172 0.26,0.273 0.078,0.099 0.146,0.206 0.207,0.32 0.056,0.113 0.107,0.234 0.146,0.361 z"
   id="path3098"
   style="fill:#ffffff" />
			<path
   d="m 70.666,45.375 c -2.535,0.169 -3.803,0.254 -6.334,0.423 -2.095,8.614 -4.177,17.236 -6.245,25.856 2.467,-0.242 3.698,-0.363 6.165,-0.606 0.314,-1.271 0.474,-1.903 0.787,-3.175 0.069,-0.255 0.186,-0.492 0.337,-0.698 0.152,-0.205 0.338,-0.378 0.553,-0.505 0.215,-0.124 0.456,-0.205 0.711,-0.229 2.191,-0.203 3.29,-0.308 5.482,-0.51 0.257,-0.022 0.51,0.011 0.744,0.095 0.232,0.085 0.449,0.217 0.635,0.388 0.189,0.17 0.346,0.381 0.464,0.618 0.532,1.173 0.8,1.76 1.327,2.933 2.491,-0.244 3.736,-0.367 6.226,-0.613 C 77.871,61.373 74.253,53.38 70.666,45.375 z M 68.962,61.23 c -1.578,0.138 -2.99,-1.175 -3.157,-2.935 -0.167,-1.758 0.975,-3.282 2.551,-3.405 1.576,-0.125 2.989,1.192 3.158,2.937 0.166,1.744 -0.976,3.268 -2.552,3.403 z"
   id="path3100"
   style="fill:#ffffff" />
			<path
   d="m 115.146,66.019 c 3.266,-0.322 4.898,-0.482 8.166,-0.802 -0.527,-4.927 -1.055,-9.854 -1.578,-14.783 -3.264,0.255 -4.893,0.385 -8.154,0.64 0.521,4.981 1.044,9.961 1.566,14.945 z"
   id="path3102"
   style="fill:#ffffff" />
			<path
   d="m 116.472,39.854 c -2.418,0.151 -4.163,2.332 -3.897,4.868 0.265,2.537 2.442,4.445 4.862,4.261 2.421,-0.183 4.165,-2.363 3.897,-4.868 -0.267,-2.51 -2.444,-4.415 -4.862,-4.261 z"
   id="path3104"
   style="fill:#ffffff" />
			<path
   d="m 50.852,64.392 c -0.111,-1.173 0.64,-2.194 1.672,-2.283 1.801,-0.155 2.7,-0.232 4.501,-0.386 -0.207,-2.228 -0.312,-3.339 -0.52,-5.564 -1.8,0.141 -2.7,0.211 -4.497,0.355 -1.033,0.081 -1.956,-0.804 -2.066,-1.977 -0.107,-1.173 0.642,-2.186 1.675,-2.263 2.047,-0.149 3.072,-0.227 5.123,-0.378 -0.207,-2.223 -0.312,-3.334 -0.521,-5.556 -5.125,0.343 -7.688,0.514 -12.813,0.856 0.78,8.555 1.557,17.113 2.339,25.669 2.331,-0.229 3.499,-0.345 5.833,-0.575 -0.29,-3.156 -0.437,-4.739 -0.726,-7.898 z"
   id="path3106"
   style="fill:#ffffff" />
			<path
   d="m 138.11,58.737 c -0.125,0.013 -0.256,0.011 -0.379,-0.003 -0.123,-0.015 -0.248,-0.041 -0.363,-0.078 -0.118,-0.036 -0.231,-0.088 -0.338,-0.147 -0.107,-0.059 -0.207,-0.127 -0.303,-0.205 -0.093,-0.08 -0.181,-0.166 -0.258,-0.261 -0.08,-0.095 -0.15,-0.2 -0.209,-0.308 -0.06,-0.107 -0.109,-0.227 -0.147,-0.348 -0.04,-0.12 -0.065,-0.248 -0.081,-0.38 -0.015,-0.129 -0.015,-0.259 -0.004,-0.386 0.012,-0.126 0.039,-0.249 0.07,-0.365 0.034,-0.118 0.082,-0.232 0.136,-0.338 2.368,-5.143 4.756,-10.278 7.163,-15.405 -6.177,0.415 -12.348,0.827 -18.521,1.238 0.219,2.032 0.327,3.049 0.546,5.081 2.198,-0.164 3.302,-0.243 5.5,-0.406 0.129,-0.009 0.257,-0.005 0.38,0.013 0.125,0.014 0.245,0.044 0.364,0.086 0.115,0.038 0.229,0.09 0.336,0.152 0.105,0.061 0.207,0.131 0.301,0.21 0.095,0.081 0.182,0.17 0.259,0.267 0.079,0.096 0.149,0.201 0.208,0.31 0.06,0.111 0.11,0.229 0.148,0.35 0.039,0.124 0.066,0.25 0.08,0.384 0.016,0.128 0.016,0.26 0.004,0.385 -0.01,0.127 -0.035,0.248 -0.069,0.366 -0.035,0.117 -0.081,0.23 -0.138,0.337 -2.43,5.238 -4.84,10.486 -7.229,15.743 6.404,-0.628 12.809,-1.256 19.213,-1.887 -0.223,-1.984 -0.334,-2.977 -0.555,-4.962 -2.444,0.223 -3.666,0.336 -6.114,0.557 z"
   id="path3108"
   style="fill:#ffffff" />
		</g>
	</g>
	<path
   d="m 115.127,25.371 v 8.191 c 0,0.307 -0.06,0.43 -0.305,0.43 h -6.245 c -0.209,0 -0.336,-0.154 -0.336,-0.369 v -8.191 c 0,-0.336 -0.119,-0.456 -0.393,-0.456 h -8.102 c -0.243,0 -0.365,-0.152 -0.365,-0.427 v -6.211 c 0,-0.244 0.092,-0.363 0.338,-0.363 h 8.16 c 0.242,0 0.361,-0.121 0.361,-0.396 v -7.034 c 0,-0.185 0.127,-0.306 0.306,-0.306 h 6.216 c 0.244,0 0.364,0.092 0.364,0.306 v 7.034 c 0,0.331 0.063,0.396 0.335,0.396 h 8.165 c 0.241,0 0.333,0.119 0.333,0.395 v 6.242 c 0,0.212 -0.12,0.364 -0.333,0.364 h -8.073 c -0.333,0 -0.426,0.063 -0.426,0.395 z"
   id="path3110"
   style="fill:#ffffff" />
</g>
</svg>