<?xml version="1.0" encoding="iso-8859-1"?>
<!-- Generator: Adobe Illustrator 15.0.0, SVG Export Plug-In . SVG Version: 6.00 Build 0)  -->
<!DOCTYPE svg PUBLIC "-//W3C//DTD SVG 1.1//EN" "http://www.w3.org/Graphics/SVG/1.1/DTD/svg11.dtd" [
	<!ENTITY ns_flows "http://ns.adobe.com/Flows/1.0/">
	<!ENTITY ns_extend "http://ns.adobe.com/Extensibility/1.0/">
	<!ENTITY ns_ai "http://ns.adobe.com/AdobeIllustrator/10.0/">
	<!ENTITY ns_graphs "http://ns.adobe.com/Graphs/1.0/">
]>
<svg version="1.1" id="Calque_1" xmlns:x="&ns_extend;" xmlns:i="&ns_ai;" xmlns:graph="&ns_graphs;"
	 xmlns="http://www.w3.org/2000/svg" xmlns:xlink="http://www.w3.org/1999/xlink" xmlns:a="http://ns.adobe.com/AdobeSVGViewerExtensions/3.0/"
	 x="0px" y="0px" width="154.074px" height="79.7px" viewBox="0 0 154.074 79.7" style="enable-background:new 0 0 154.074 79.7;"
	 xml:space="preserve">
<style type="text/css">
<![CDATA[
	.st0{fill:#4D454A;}
	.st1{fill:#ED1C24;}
	.st2{fill:#FFFFFF;}
]]>
</style>
<g>
	<g>
		<rect class="st0" width="129.241" height="40.82"/>
	</g>
	<path class="st2" d="M24.408,29.828c0,0.333-0.274,0.606-0.854,0.818c-1.616,0.547-3.11,0.82-4.513,0.82
		c-2.105,0-4.117-0.516-6.071-1.578C9.065,27.733,6.9,24.123,6.9,19.662c0-2.458,0.671-4.672,1.984-6.676
		c1.341-2.001,3.14-3.487,5.398-4.43c1.462-0.637,3.019-0.939,4.697-0.939c1.13,0,2.35,0.182,3.66,0.516
		c0.397,0.091,0.702,0.213,0.976,0.334l0.334,0.152c0.275,0.121,0.428,0.333,0.428,0.605v5.856c0,0.152-0.06,0.214-0.153,0.214
		c-0.029,0-0.122-0.062-0.275-0.153c-0.456-0.454-1.126-0.819-2.012-1.123c-0.945-0.333-1.8-0.485-2.531-0.485
		c-2.654,0-4.88,1.397-5.888,3.732c-0.335,0.758-0.486,1.578-0.486,2.458c0,1.729,0.639,3.126,1.922,4.218
		c1.187,1.002,2.653,1.518,4.392,1.518c1.983,0,3.506-0.545,4.634-1.669c0.092-0.122,0.184-0.181,0.244-0.181
		c0.123,0,0.184,0.181,0.184,0.574V29.828z"/>
	<path class="st2" d="M28.762,30.858V8.101h5.947v22.757H28.762z"/>
	<path class="st2" d="M56.33,30.858L45.408,16.931v13.927h-5.947V8.101h5.947L56.33,22.029V8.101h5.947v22.757H56.33z"/>
	<path class="st2" d="M66.447,30.858V8.101h1.982l0.337-0.941h9.028l-0.337,0.941h1.983v5.007h-7.045v3.792h6.679v5.006h-6.679
		v3.944h7.045v5.006H66.447z"/>
	<g>
		<g>
			<path class="st1" d="M154.074,66.45c-40.826,4.417-81.653,8.829-122.479,13.25c-1.26-14.212-2.524-28.425-3.783-42.637
				c40.702-2.316,81.404-4.629,122.109-6.938C151.303,42.234,152.686,54.344,154.074,66.45z"/>
			<path class="st2" d="M41.775,43.295c-0.464,0.03-0.697,0.045-1.16,0.074c-2.022,0.134-4.042,0.267-6.063,0.398
				c0.845,9.406,1.69,18.812,2.535,28.217c1.783-0.178,2.674-0.268,4.457-0.445c-0.336-3.719-0.674-7.439-1.011-11.158
				c1.223-0.105,1.835-0.158,3.056-0.264c4.153-0.396,6.585-4.58,6.224-8.473c-0.022-0.232-0.041-0.442-0.059-0.631
				C49.378,46.959,46.107,43.043,41.775,43.295z M45.365,51.982c0.145,1.577-0.861,2.941-2.242,3.053
				c-0.332,0.026-0.498,0.039-0.829,0.066c-0.89,0.07-1.335,0.105-2.224,0.177c-0.203-2.231-0.405-4.464-0.606-6.696
				c0.888-0.063,1.333-0.096,2.223-0.158c0.175-0.014,0.553-0.04,0.553-0.04c1.535-0.108,2.909,1.218,3.07,2.966
				C45.331,51.604,45.342,51.729,45.365,51.982z"/>
			<path class="st2" d="M74.944,63.274c2.413-0.226,4.824-0.452,7.236-0.677c0.189,1.938,0.287,2.907,0.477,4.846
				c-3.895,0.389-7.789,0.776-11.684,1.164c-0.866-9.018-1.735-18.033-2.603-27.052c3.888-0.254,7.774-0.509,11.66-0.762
				c0.189,1.939,0.286,2.907,0.479,4.845c-2.408,0.172-4.817,0.344-7.224,0.518c0.213,2.201,0.321,3.302,0.534,5.502
				c2.408-0.188,4.818-0.378,7.227-0.567c0.189,1.937,0.287,2.907,0.477,4.843c-2.41,0.205-4.819,0.41-7.229,0.614
				C74.51,58.791,74.727,61.032,74.944,63.274z"/>
			<path class="st2" d="M90.875,66.627c-0.481-4.796-0.963-9.59-1.443-14.384c1.771,4.669,3.549,9.333,5.334,13.994
				c1.337-0.132,2.006-0.198,3.342-0.331c0.811-4.855,1.625-9.708,2.441-14.561c0.484,4.723,0.971,9.447,1.455,14.172
				c1.78-0.179,2.671-0.267,4.452-0.443c-0.894-8.611-1.782-17.221-2.675-25.83c-1.999,0.129-3,0.195-4.996,0.327
				c-1.148,5.263-2.293,10.527-3.432,15.794c-2.202-5.043-4.392-10.09-6.57-15.142c-1.999,0.131-2.998,0.197-4.996,0.328
				c0.877,8.839,1.754,17.68,2.633,26.518C88.203,66.891,89.094,66.803,90.875,66.627z"/>
			<path class="st2" d="M66.111,50.4c-0.021-0.229-0.042-0.433-0.059-0.618c-0.39-4.048-3.713-7.783-7.989-7.548
				c-0.463,0.027-0.695,0.042-1.157,0.069c-2.022,0.134-4.043,0.267-6.065,0.398c0.856,9.218,1.712,18.437,2.569,27.656
				c1.782-0.178,2.673-0.269,4.456-0.444c-0.342-3.646-0.684-7.291-1.025-10.938c0.921-0.078,1.383-0.119,2.304-0.197
				c1.353,3.535,2.711,7.07,4.071,10.603c1.865-0.188,2.8-0.28,4.665-0.466c-1.501-3.874-3.001-7.749-4.493-11.627
				C65.403,55.617,66.359,52.984,66.111,50.4z M55.756,47.414c0.89-0.063,1.333-0.095,2.222-0.158
				c0.175-0.013,0.554-0.039,0.554-0.039c1.535-0.109,2.911,1.188,3.073,2.901c0.023,0.248,0.034,0.372,0.057,0.62
				c0.147,1.545-0.852,2.884-2.236,2.994c-0.333,0.025-0.499,0.039-0.833,0.066c-0.89,0.069-1.333,0.105-2.223,0.178
				C56.166,51.789,55.961,49.604,55.756,47.414z"/>
			<path class="st2" d="M107.483,39.001c0.896,8.568,1.788,17.136,2.683,25.703c1.779-0.179,2.67-0.267,4.451-0.442
				c-0.898-8.518-1.797-17.033-2.691-25.55C110.148,38.828,109.26,38.887,107.483,39.001z"/>
			<path class="st2" d="M122.652,58.818c2.409-0.225,4.822-0.449,7.232-0.674c0.199,1.818,0.299,2.727,0.495,4.545
				c-3.895,0.389-7.788,0.776-11.683,1.165c-0.902-8.472-1.801-16.942-2.701-25.412c3.887-0.253,7.775-0.508,11.662-0.762
				c0.199,1.818,0.296,2.728,0.494,4.546c-2.407,0.173-4.815,0.344-7.223,0.518c0.221,2.067,0.332,3.101,0.553,5.168
				c2.41-0.188,4.818-0.379,7.228-0.568c0.197,1.818,0.297,2.729,0.495,4.546c-2.41,0.204-4.82,0.409-7.23,0.613
				C122.201,54.608,122.426,56.714,122.652,58.818z"/>
			<path class="st2" d="M146.593,44.262c-0.023-0.205-0.045-0.391-0.063-0.555c-0.459-3.936-4.065-6.967-8.037-6.732
				c-0.465,0.029-0.695,0.041-1.158,0.071c-2.021,0.132-4.044,0.264-6.066,0.397c0.911,8.295,1.822,16.59,2.732,24.888
				c1.782-0.179,2.673-0.268,4.457-0.444c-0.362-3.279-0.726-6.557-1.09-9.835c0.922-0.079,1.383-0.12,2.303-0.198
				c1.373,3.17,2.752,6.335,4.136,9.498c1.868-0.184,2.8-0.277,4.665-0.463c-1.527-3.469-3.05-6.939-4.564-10.412
				C145.837,49.032,146.86,46.657,146.593,44.262z M136.121,41.66c0.888-0.066,1.333-0.096,2.221-0.159
				c0.179-0.013,0.555-0.04,0.555-0.04c1.535-0.109,2.92,1.049,3.092,2.589c0.025,0.223,0.037,0.335,0.061,0.558
				c0.156,1.387-0.837,2.6-2.219,2.709c-0.334,0.027-1.833,0.146-2.166,0.172c-0.889,0.072,0,0-0.889,0.072
				C136.513,45.201,136.383,44.021,136.121,41.66z"/>
		</g>
	</g>
	<path class="st2" d="M112.464,22.71v8.191c0,0.307-0.06,0.43-0.305,0.43h-6.245c-0.209,0-0.336-0.154-0.336-0.369v-8.191
		c0-0.335-0.119-0.456-0.393-0.456h-8.102c-0.243,0-0.365-0.152-0.365-0.427v-6.211c0-0.244,0.092-0.363,0.338-0.363h8.16
		c0.242,0,0.361-0.121,0.361-0.397V7.883c0-0.184,0.127-0.306,0.306-0.306h6.216c0.244,0,0.364,0.092,0.364,0.306v7.034
		c0,0.332,0.063,0.397,0.335,0.397h8.165c0.241,0,0.333,0.12,0.333,0.394v6.242c0,0.212-0.12,0.365-0.333,0.365h-8.073
		C112.557,22.315,112.464,22.378,112.464,22.71z"/>
</g>
</svg>
