<?xml version="1.0" encoding="iso-8859-1"?>
<!-- Generator: Adobe Illustrator 15.0.0, SVG Export Plug-In . SVG Version: 6.00 Build 0)  -->
<!DOCTYPE svg PUBLIC "-//W3C//DTD SVG 1.1//EN" "http://www.w3.org/Graphics/SVG/1.1/DTD/svg11.dtd" [
	<!ENTITY ns_flows "http://ns.adobe.com/Flows/1.0/">
	<!ENTITY ns_extend "http://ns.adobe.com/Extensibility/1.0/">
	<!ENTITY ns_ai "http://ns.adobe.com/AdobeIllustrator/10.0/">
	<!ENTITY ns_graphs "http://ns.adobe.com/Graphs/1.0/">
]>
<svg version="1.1" id="Calque_1" xmlns:x="&ns_extend;" xmlns:i="&ns_ai;" xmlns:graph="&ns_graphs;"
	 xmlns="http://www.w3.org/2000/svg" xmlns:xlink="http://www.w3.org/1999/xlink" xmlns:a="http://ns.adobe.com/AdobeSVGViewerExtensions/3.0/"
	 x="0px" y="0px" width="154.061px" height="79.702px" viewBox="0 0 154.061 79.702"
	 style="enable-background:new 0 0 154.061 79.702;" xml:space="preserve">
<style type="text/css">
<![CDATA[
	.st0{fill:#4D454A;}
	.st1{fill:#FAFAFA;}
	.st2{fill:#FFFFFF;}
	.st3{fill:#00A77E;}
]]>
</style>
<g>
	<g>
		<rect class="st0" width="129.245" height="40.82"/>
	</g>
	<path class="st2" d="M24.408,29.828c0,0.332-0.274,0.605-0.854,0.818c-1.616,0.547-3.11,0.82-4.513,0.82
		c-2.105,0-4.117-0.516-6.071-1.578C9.065,27.734,6.9,24.123,6.9,19.662c0-2.457,0.671-4.672,1.984-6.676
		c1.341-2.002,3.14-3.488,5.398-4.43c1.462-0.639,3.019-0.939,4.697-0.939c1.13,0,2.35,0.182,3.66,0.516
		c0.397,0.09,0.702,0.213,0.976,0.334l0.334,0.152c0.275,0.119,0.428,0.332,0.428,0.605v5.855c0,0.152-0.06,0.215-0.153,0.215
		c-0.029,0-0.122-0.063-0.275-0.154c-0.456-0.453-1.126-0.818-2.012-1.123c-0.945-0.332-1.8-0.484-2.531-0.484
		c-2.654,0-4.88,1.396-5.888,3.732c-0.335,0.758-0.486,1.578-0.486,2.457c0,1.73,0.639,3.127,1.922,4.219
		c1.187,1.002,2.653,1.518,4.392,1.518c1.983,0,3.506-0.545,4.634-1.67c0.092-0.121,0.184-0.18,0.244-0.18
		c0.123,0,0.184,0.18,0.184,0.574V29.828z"/>
	<path class="st2" d="M28.762,30.857V8.102h5.947v22.756H28.762z"/>
	<path class="st2" d="M56.33,30.857L45.408,16.932v13.926h-5.947V8.102h5.947L56.33,22.029V8.102h5.947v22.756H56.33z"/>
	<path class="st2" d="M66.447,30.857V8.102h1.982l0.337-0.941h9.028l-0.337,0.941h1.983v5.008h-7.045V16.9h6.679v5.008h-6.679v3.943
		h7.045v5.006H66.447z"/>
	<g>
		<g>
			<path class="st3" d="M154.061,66.45c-40.82,4.416-81.643,8.832-122.465,13.252c-1.513-17.059-2.272-25.59-3.785-42.64
				c40.699-2.312,81.399-4.622,122.097-6.936C151.57,44.653,152.396,51.926,154.061,66.45z"/>
		</g>
		<g>
			<g>
				<g>
					<path class="st1" d="M46.408,46.479c-0.643-0.256-0.967-0.385-1.61-0.643c-0.599,0.369-0.894,0.561-1.493,0.934
						c-1.026,0.207-1.54,0.313-2.563,0.521c-0.116,0.611-0.174,0.92-0.29,1.531c0.186,0.895,0.282,1.344,0.469,2.24
						c0.057,0.477,0.084,0.717,0.143,1.199c0.138,1.232,0.206,1.848,0.344,3.08c0.29,0.143,0.439,0.215,0.728,0.357
						c1.035-0.113,1.552-0.172,2.585-0.285c0.479,0.158,0.717,0.236,1.193,0.396c0.309,0.502,0.463,0.75,0.775,1.252
						c-0.026,0.588-0.042,0.887-0.066,1.477c-0.135,0.232-0.202,0.357-0.337,0.592c-1.655,0.277-2.484,0.416-4.139,0.693
						c-0.25,0.324-0.372,0.486-0.622,0.811c0.346,3.941,0.517,5.912,0.863,9.857c-0.375,0.547-0.56,0.828-0.934,1.383
						c-0.604,0.076-0.905,0.113-1.509,0.188c-0.434-0.549-0.651-0.826-1.085-1.377c-0.136-2.975-0.202-4.461-0.34-7.434
						c-0.335-3.012-0.51-4.521-0.847-7.537c0.099-0.813,0.148-1.223,0.247-2.035c-0.223-2.035-0.335-3.055-0.559-5.092
						c0.007-1.535,0.01-2.301,0.016-3.832c0.232-0.229,0.347-0.342,0.578-0.57c0.457-0.043,0.686-0.068,1.143-0.115
						c0.39-0.344,0.588-0.512,0.98-0.855c1.59-0.043,2.386-0.066,3.976-0.109c0.543,0.16,0.815,0.236,1.359,0.398
						c0.612,0.047,0.916,0.076,1.528,0.125c0.225,0.285,0.337,0.43,0.561,0.711c0.046,0.49,0.067,0.742,0.111,1.232
						C47.13,45.936,46.89,46.116,46.408,46.479z"/>
				</g>
				<g>
					<path class="st1" d="M66.331,68.868c-0.564,0.455-0.847,0.682-1.414,1.139c-0.351-0.053-0.528-0.078-0.879-0.131
						c-0.336-0.451-0.5-0.684-0.836-1.137c-0.299-1.064-0.452-1.6-0.75-2.666c-0.17-0.666-0.251-0.998-0.419-1.664
						c-0.261-0.658-0.39-0.984-0.652-1.643c-0.305-1.275-0.458-1.912-0.765-3.189c-0.242-0.467-0.366-0.701-0.608-1.168
						c-0.396-0.266-0.589-0.395-0.985-0.656c-0.249,0.033-0.375,0.049-0.624,0.084c-0.233,0.332-0.35,0.502-0.583,0.832
						c0.389,3.459,0.585,5.188,0.978,8.643c0.076,0.68,0.114,1.016,0.192,1.693c-0.143,0.328-0.213,0.486-0.354,0.816
						c-0.141,0.191-0.213,0.287-0.354,0.48c-0.551,0.068-0.823,0.104-1.373,0.174c-0.395-0.541-0.594-0.807-0.989-1.355
						c-0.581-5.943-0.875-8.914-1.456-14.861c-0.06-0.486-0.088-0.73-0.145-1.217c-0.231-2.893-0.347-4.334-0.575-7.219
						c0.079-0.707,0.118-1.061,0.197-1.764c0.082-0.111,0.123-0.166,0.205-0.273c0.575-0.336,0.863-0.508,1.439-0.84
						c0.437-0.135,0.655-0.197,1.093-0.332c1.614,0.059,2.418,0.086,4.033,0.139c0.55,0.232,0.826,0.346,1.376,0.574
						c0.304,0.271,0.455,0.412,0.759,0.684c0.381,1.24,0.571,1.857,0.952,3.098c0.141,1.184,0.211,1.771,0.351,2.951
						c0.225,1.941,0.336,2.914,0.562,4.85c-0.58,1.156-0.868,1.73-1.445,2.887c0.269,0.76,0.404,1.141,0.675,1.898
						c0.849,2.803,1.274,4.199,2.124,6.994c0.222,0.244,0.333,0.365,0.554,0.605C66.501,67.924,66.443,68.243,66.331,68.868z
						 M60.941,46.942c-0.337-0.477-0.504-0.713-0.84-1.193c-1.125,0.105-1.687,0.158-2.812,0.27
						c0.096,1.578,0.142,2.369,0.237,3.951c-0.014,0.684-0.023,1.023-0.04,1.709c0.141,1.205,0.213,1.809,0.354,3.014
						c0.273-0.035,0.411-0.053,0.685-0.092c1.011-0.217,1.517-0.322,2.528-0.535c0.229-0.506,0.345-0.762,0.573-1.266
						C61.354,50.456,61.216,49.286,60.941,46.942z"/>
				</g>
				<g>
					<path class="st1" d="M77.577,67.934c-0.76,0.088-1.139,0.135-1.901,0.223c-0.401-0.322-0.604-0.482-1.007-0.805
						c-0.603-5.135-0.903-7.701-1.506-12.836c-0.078-0.668-0.117-1-0.195-1.662c-0.102-3.229-0.156-4.838-0.256-8.059
						c-0.097-0.867-0.144-1.301-0.24-2.164c0.371-0.506,0.559-0.762,0.933-1.262c0.282,0.037,0.423,0.059,0.704,0.096
						c0.144-0.006,0.212-0.012,0.356-0.018c0.202,0.172,0.306,0.26,0.507,0.434c0.22,1.838,0.327,2.758,0.546,4.598
						c-0.125,0.486-0.185,0.734-0.309,1.223c-0.289,0.426-0.435,0.643-0.721,1.072c0.479,0.428,0.718,0.641,1.196,1.066
						c-0.167,0.592-0.254,0.891-0.421,1.484c0.381,0.373,0.571,0.563,0.953,0.938c0.015,0.971,0.024,1.461,0.04,2.43
						c0.279,2.316,0.417,3.467,0.697,5.779c0.248,1.314,0.374,1.971,0.62,3.285c0.142,1.176,0.21,1.768,0.353,2.941
						C77.786,67.192,77.716,67.44,77.577,67.934z"/>
				</g>
				<g>
					<path class="st1" d="M93.336,65.934c-0.668,0.352-1.002,0.529-1.669,0.881c-0.633,0.174-0.949,0.27-1.582,0.441
						c-0.326,0.051-0.489,0.072-0.819,0.117c-0.641-0.191-0.961-0.285-1.604-0.48c-0.767-0.5-1.15-0.75-1.916-1.25
						c-0.436-0.52-0.657-0.779-1.092-1.299c-0.148-1.223-0.221-1.834-0.367-3.059c0.322-0.346,0.484-0.518,0.809-0.865
						c0.533,0.037,0.799,0.059,1.332,0.096c0.335,0.43,0.502,0.641,0.836,1.066c0.124,0.596,0.188,0.893,0.312,1.48
						c0.701,0.377,1.054,0.564,1.755,0.941c0.593-0.17,0.889-0.256,1.481-0.428c0.354-0.705,0.531-1.057,0.885-1.762
						c-0.021-0.854-0.029-1.279-0.05-2.133c-0.082-0.664-0.119-0.992-0.201-1.654c-0.363-0.725-0.545-1.086-0.91-1.811
						c-0.176-0.182-0.266-0.273-0.443-0.459c-1.377-0.139-2.064-0.209-3.443-0.352c-0.662-0.402-0.992-0.607-1.654-1.008
						c-0.488-0.521-0.73-0.781-1.221-1.299c-0.285-0.738-0.426-1.107-0.711-1.85c-0.248-2.105-0.373-3.16-0.623-5.27
						c0.34-0.975,0.509-1.457,0.848-2.43c0.625-0.762,0.938-1.141,1.561-1.898c0.668-0.33,1.002-0.494,1.669-0.822
						c0.95,0.008,1.426,0.011,2.379,0.02c0.575,0.216,0.863,0.326,1.44,0.542c0.51,0.619,0.768,0.928,1.277,1.551
						c0.152,0.467,0.229,0.705,0.381,1.176c-0.162,0.225-0.242,0.336-0.405,0.559c0.07,0.553,0.103,0.824,0.173,1.375
						c-0.164,0.207-0.246,0.314-0.41,0.525c-0.143,0.029-0.214,0.039-0.357,0.064c-0.74-0.799-1.111-1.199-1.852-2.004
						c-0.176-0.172-0.264-0.256-0.44-0.432c-0.87,0.275-1.306,0.416-2.175,0.691c-0.227,1.162-0.344,1.74-0.572,2.902
						c0.225,1.043,0.334,1.563,0.557,2.604c0.045,0.299,0.065,0.445,0.107,0.746c0.671,0.488,1.01,0.73,1.68,1.221
						c0.912,0.115,1.365,0.17,2.276,0.279c0.87,0.771,1.308,1.152,2.179,1.92c0.484,2.037,0.728,3.057,1.212,5.088
						c0.067,0.291,0.101,0.439,0.171,0.725c0.093,1.311,0.139,1.965,0.229,3.277C93.955,64.569,93.748,65.028,93.336,65.934z"/>
				</g>
				<g>
					<path class="st1" d="M99.602,40.003c0.666-0.325,1-0.486,1.666-0.811c0.632-0.15,0.949-0.227,1.578-0.379
						c0.325-0.037,0.49-0.053,0.817-0.088c0.641,0.211,0.96,0.313,1.603,0.52c0.765,0.507,1.148,0.762,1.914,1.267
						c0.438,0.512,0.656,0.766,1.092,1.28c0.15,1.182,0.226,1.773,0.375,2.961c-0.322,0.328-0.484,0.49-0.808,0.82
						c-0.534-0.041-0.8-0.068-1.335-0.109c-0.332-0.424-0.499-0.633-0.835-1.055c-0.124-0.576-0.187-0.865-0.313-1.441
						c-0.701-0.379-1.052-0.57-1.75-0.955c-0.593,0.154-0.891,0.223-1.48,0.377c-0.354,0.678-0.527,1.023-0.881,1.709
						c0.021,0.842,0.03,1.264,0.052,2.102c0.079,0.654,0.121,0.975,0.2,1.627c0.365,0.721,0.546,1.078,0.91,1.793
						c0.176,0.182,0.27,0.273,0.448,0.457c1.376,0.143,2.062,0.211,3.44,0.352c0.663,0.393,0.996,0.59,1.658,0.98
						c0.49,0.504,0.736,0.754,1.224,1.258c0.284,0.713,0.427,1.068,0.714,1.779c0.254,2.037,0.383,3.055,0.635,5.09
						c-0.34,0.951-0.508,1.43-0.846,2.381c-0.626,0.756-0.939,1.133-1.564,1.893c-0.667,0.344-0.999,0.518-1.667,0.863
						c-0.952,0.025-1.431,0.037-2.384,0.061c-0.577-0.195-0.867-0.297-1.447-0.492c-0.51-0.594-0.767-0.896-1.278-1.496
						c-0.153-0.461-0.228-0.691-0.382-1.158c0.16-0.225,0.24-0.338,0.402-0.566c-0.068-0.541-0.103-0.814-0.171-1.357
						c0.163-0.213,0.246-0.316,0.409-0.531c0.144-0.023,0.216-0.037,0.359-0.064c0.744,0.777,1.113,1.162,1.855,1.934
						c0.176,0.166,0.265,0.248,0.438,0.416c0.874-0.295,1.31-0.436,2.183-0.73c0.227-1.139,0.338-1.711,0.564-2.85
						c-0.225-1.012-0.338-1.52-0.561-2.531c-0.044-0.291-0.064-0.438-0.109-0.727c-0.67-0.471-1.006-0.709-1.676-1.184
						c-0.912-0.105-1.368-0.162-2.279-0.264c-0.807-0.762-1.211-1.139-2.018-1.908c-0.34-2.025-0.51-3.039-0.849-5.066
						c-0.214-0.279-0.319-0.418-0.534-0.699c-0.16-1.297-0.239-1.945-0.398-3.242C98.984,41.329,99.191,40.884,99.602,40.003z"/>
				</g>
				<g>
					<path class="st1" d="M127.281,59.608c-0.264,0.775-0.394,1.166-0.657,1.939c-0.725,0.658-1.086,0.988-1.812,1.648
						c-0.586,0.232-0.878,0.354-1.464,0.588c-0.808,0.014-1.215,0.02-2.022,0.033c-0.849-0.342-1.271-0.514-2.117-0.859
						c-0.613-0.668-0.922-0.998-1.537-1.672c-0.316-0.99-0.477-1.488-0.795-2.479c0.147-0.375,0.223-0.563,0.369-0.93
						c-0.066-1.111-0.1-1.666-0.166-2.773c0.17-0.66,0.258-0.996,0.424-1.656c-0.051-0.354-0.076-0.531-0.128-0.885
						c-0.517-1.359-0.773-2.039-1.287-3.4c-0.243-1.801-0.364-2.703-0.607-4.498c0.204-0.57,0.304-0.854,0.509-1.418
						c-0.084-0.668-0.125-1-0.21-1.668c1.004-0.992,1.508-1.484,2.512-2.466c0.421-0.143,0.632-0.21,1.054-0.347
						c0.886,0.011,1.328,0.014,2.215,0.024c0.857,0.367,1.285,0.549,2.145,0.914c0.613,0.679,0.924,1.017,1.537,1.691
						c0.365,2.77,0.549,4.158,0.916,6.928c0.092,0.729,0.137,1.09,0.229,1.813c0.143,1.092,0.215,1.633,0.358,2.723
						C126.96,55.561,127.066,56.911,127.281,59.608z M121.376,42.008c-0.886-0.018-1.332-0.027-2.218-0.047
						c-0.234,0.414-0.35,0.619-0.583,1.031c-0.042,1.086-0.067,1.629-0.11,2.717c0.244,0.42,0.369,0.631,0.612,1.051
						c0.118,2.238,0.177,3.359,0.297,5.602c0.151,1.166,0.229,1.748,0.378,2.916c0.048,1.563,0.068,2.338,0.117,3.906
						c0.309,0.408,0.463,0.613,0.773,1.021c0.92,0.174,1.384,0.26,2.303,0.434c0.324-0.332,0.484-0.5,0.807-0.828
						c0.145-0.75,0.217-1.127,0.36-1.881c-0.389-3.609-0.582-5.416-0.97-9.025c-0.215-2.373-0.324-3.557-0.541-5.928
						C122.114,42.592,121.867,42.397,121.376,42.008z"/>
				</g>
				<g>
					<path class="st1" d="M144.076,52.834c0.34,2.572,0.51,3.855,0.854,6.424c-0.206,0.555-0.307,0.832-0.51,1.385
						c-0.244,0.211-0.365,0.314-0.606,0.529c-0.432,0.053-0.647,0.078-1.079,0.137c-0.472-0.313-0.711-0.469-1.186-0.787
						c-0.539-1.281-0.811-1.922-1.354-3.207c-0.213-0.248-0.318-0.373-0.531-0.617c-0.164-0.525-0.244-0.783-0.408-1.303
						c-0.187-0.252-0.281-0.375-0.469-0.629c-0.307-0.842-0.458-1.266-0.764-2.107c-0.49-0.945-0.736-1.42-1.225-2.369
						c-0.176-0.16-0.268-0.242-0.443-0.4c-0.162,0.201-0.244,0.299-0.407,0.5c0.081,2.063,0.124,3.096,0.206,5.154
						c0.277,2.029,0.416,3.041,0.691,5.068c-0.21,0.494-0.315,0.742-0.526,1.232c-0.238,0.129-0.359,0.197-0.6,0.334
						c-0.273,0.021-0.412,0.039-0.688,0.064c-0.591-0.549-0.886-0.82-1.478-1.369c-0.066-1.926-0.097-2.889-0.161-4.813
						c-0.45-4.1-0.675-6.148-1.122-10.246c-0.035-0.656-0.053-0.986-0.086-1.646c-0.13-2.398-0.193-3.597-0.326-5.994
						c0.174-0.107,0.262-0.158,0.435-0.266c0.534,0.044,0.802,0.07,1.333,0.116c0.735,0.902,1.099,1.355,1.832,2.254
						c0.167,0.547,0.252,0.827,0.419,1.374c0.32,0.406,0.481,0.605,0.805,1.01c0.842,1.639,1.264,2.455,2.106,4.086
						c0.285,0.777,0.428,1.168,0.713,1.947c0.211,0.221,0.316,0.334,0.527,0.555c0.066-0.004,0.098-0.01,0.163-0.01
						c-0.198-3.563-0.297-5.338-0.495-8.893c-0.127-0.881-0.184-1.323-0.311-2.204c0.237-0.362,0.355-0.545,0.592-0.906
						c0.602-0.066,0.9-0.098,1.501-0.167c0.255,0.514,0.382,0.777,0.637,1.293c0.238,1.055,0.358,1.58,0.596,2.637
						c0.288,1.029,0.429,1.537,0.717,2.564C143.688,47.268,143.816,49.125,144.076,52.834z"/>
				</g>
			</g>
		</g>
	</g>
	<path class="st2" d="M112.464,22.711v8.191c0,0.307-0.06,0.43-0.305,0.43h-6.245c-0.209,0-0.336-0.154-0.336-0.369v-8.191
		c0-0.336-0.119-0.457-0.393-0.457h-8.102c-0.243,0-0.365-0.152-0.365-0.426v-6.211c0-0.244,0.092-0.363,0.338-0.363h8.16
		c0.242,0,0.361-0.121,0.361-0.396V7.883c0-0.184,0.127-0.305,0.306-0.305h6.216c0.244,0,0.364,0.092,0.364,0.305v7.035
		c0,0.33,0.063,0.396,0.335,0.396h8.165c0.241,0,0.333,0.119,0.333,0.395v6.242c0,0.211-0.12,0.363-0.333,0.363h-8.073
		C112.557,22.314,112.464,22.379,112.464,22.711z"/>
</g>
</svg>
