<?xml version="1.0" encoding="iso-8859-1"?>
<!-- Generator: Adobe Illustrator 12.0.0, SVG Export Plug-In . SVG Version: 6.00 Build 51448)  -->
<!DOCTYPE svg PUBLIC "-//W3C//DTD SVG 1.1//EN" "http://www.w3.org/Graphics/SVG/1.1/DTD/svg11.dtd" [
	<!ENTITY ns_svg "http://www.w3.org/2000/svg">
	<!ENTITY ns_xlink "http://www.w3.org/1999/xlink">
]>
<svg  version="1.1" id="Calque_1" xmlns="&ns_svg;" xmlns:xlink="&ns_xlink;" width="423.831" height="231.349"
	 viewBox="0 0 423.831 231.349" style="overflow:visible;enable-background:new 0 0 423.831 231.349;" xml:space="preserve">
<rect x="0.076" style="fill:#3F3F3F;" width="69.343" height="184.898"/>
<polyline style="fill:#FFFFFF;" points="20.618,93.601 31.093,93.601 42.592,113.802 42.592,93.601 50.336,93.601 50.336,124.419 
	40.316,124.419 28.382,104.171 28.382,124.419 20.618,124.419 20.618,93.601 "/>
<path style="fill:#FFFFFF;" d="M41.814,30.458c-1.337,2.161-3.688,3.602-6.427,3.602c-4.152,0-7.508-3.365-7.508-7.499
	c0-4.133,3.355-7.479,7.508-7.479c2.74,0,5.09,1.441,6.427,3.593l7.963-4.854c-2.958-4.854-8.295-8.076-14.39-8.076
	c-9.318,0-16.874,7.536-16.874,16.816c0,9.3,7.555,16.826,16.874,16.826c6.095,0,11.432-3.242,14.39-8.076L41.814,30.458"/>
<rect x="30.941" y="53.91" style="fill:#FFFFFF;" width="10.968" height="27.434"/>
<polyline style="fill:#FFFFFF;" points="47.739,144.516 47.739,137.122 39.985,137.122 39.985,132.363 32.278,137.122 
	23.68,137.122 23.68,170.054 47.739,170.054 47.739,162.679 33.017,162.679 33.017,156.555 47.369,156.555 47.369,150.09 
	33.017,150.09 33.017,144.516 47.739,144.516 "/>
<rect y="184.918" style="fill:#D53C46;" width="69.343" height="46.241"/>
<path style="fill:#EB973D;" d="M423.812,155.398c-22.941,0-41.521-17.821-41.521-39.814c0-22.011,18.579-39.833,41.521-39.833
	c0.019,0,0.019,0,0.019,0V0H69.419v231.159h354.412v-75.761C423.831,155.398,423.831,155.398,423.812,155.398"/>
<path style="fill:#F0AC51;" d="M146.81,115.698c0-11.717,9.508-21.225,21.215-21.225c11.708,0,21.225,9.508,21.225,21.225
	c0,11.679-9.518,21.215-21.225,21.215C156.318,136.913,146.81,127.377,146.81,115.698 M117.727,115.698
	c0,27.737,22.552,50.298,50.298,50.298c27.747,0,50.308-22.561,50.308-50.298c0-27.747-22.561-50.308-50.308-50.308
	C140.278,65.39,117.727,87.951,117.727,115.698z"/>
<path style="fill:#F0AC51;" d="M96.426,115.698c0-39.492,32.107-71.609,71.599-71.609c39.473,0,71.599,32.117,71.599,71.609
	c0,39.473-32.126,71.589-71.599,71.589C128.533,187.287,96.426,155.171,96.426,115.698 M76.102,115.698
	c0,50.678,41.236,91.913,91.923,91.913s91.943-41.235,91.943-91.913c0-50.697-41.256-91.933-91.943-91.933
	S76.102,65.001,76.102,115.698z"/>
<path style="fill:#F0AC51;" d="M69.419,25.083v34.013C88.994,25.282,125.49,2.465,167.267,2.465
	c62.29,0,113.024,50.753,113.024,113.119c0,62.376-50.734,113.11-113.024,113.11c-41.776,0-78.272-22.808-97.848-56.612v34.013
	c9.11,9.821,19.67,18.296,31.339,25.064h133.007c39.871-23.093,66.774-66.243,66.774-115.575c0-49.341-26.903-92.482-66.774-115.584
	H100.758C89.089,6.778,78.529,15.243,69.419,25.083"/>
<path style="fill:#F0AC51;" d="M322.874,115.698c0,45.957-20.135,87.287-52.062,115.65h28.609
	c27.244-30.865,43.777-71.362,43.777-115.65c0-44.308-16.533-84.786-43.777-115.698h-28.609
	C302.739,28.401,322.874,69.722,322.874,115.698"/>
<path style="fill:#FFFFFF;" d="M151.095,115.698c0-9.461,7.688-17.13,17.129-17.13c9.432,0,17.12,7.669,17.12,17.13
	c0,9.423-7.688,17.101-17.12,17.101C158.783,132.799,151.095,125.121,151.095,115.698 M135.368,115.698
	c0,18.087,14.741,32.818,32.856,32.818c18.087,0,32.828-14.731,32.828-32.818c0-18.125-14.741-32.856-32.828-32.856
	C150.109,82.842,135.368,97.573,135.368,115.698z"/>
<path style="fill:#FFFFFF;" d="M283.287,85.344c0,3.925,0,56.745,0,60.669c3.033,0,12.665,0,15.698,0c0-3.925,0-56.745,0-60.669
	C295.952,85.344,286.32,85.344,283.287,85.344"/>
<path style="fill:#FFFFFF;" d="M254.583,85.344c-1.138,2.019-14.561,26.107-14.561,26.107S226.6,87.363,225.5,85.344
	c-2.01,0-13.423,0-16.646,0c0,3.925,0,56.745,0,60.669c3.052,0,12.703,0,15.736,0c0-3.697,0-34.107,0-34.107
	s12.627,22.694,15.433,27.718c2.787-5.005,15.433-27.718,15.433-27.718s0,30.41,0,34.107c3.071,0,12.702,0,15.717,0
	c0-3.925,0-56.745,0-60.669C267.968,85.344,256.555,85.344,254.583,85.344"/>
<path style="fill:#FFFFFF;" d="M130.126,130.145c-2.635,1.669-5.745,2.654-9.101,2.654c-9.432,0-17.101-7.678-17.101-17.101
	c0-9.461,7.669-17.13,17.101-17.13c3.356,0,6.465,0.977,9.101,2.645V84.141c-2.892-0.834-5.935-1.299-9.101-1.299
	c-18.096,0-32.828,14.731-32.828,32.856c0,18.087,14.731,32.818,32.828,32.818c3.166,0,6.209-0.475,9.101-1.309V130.145"/>
<path style="fill:#FFFFFF;" d="M349.492,130.145c-2.654,1.669-5.764,2.654-9.101,2.654c-9.441,0-17.139-7.678-17.139-17.101
	c0-9.461,7.697-17.13,17.139-17.13c3.337,0,6.446,0.977,9.101,2.645V84.141c-2.882-0.834-5.953-1.299-9.101-1.299
	c-18.105,0-32.855,14.731-32.855,32.856c0,18.087,14.75,32.818,32.855,32.818c3.147,0,6.219-0.475,9.101-1.309V130.145"/>
<path style="fill:#FFFFFF;" d="M15.802,210.702l-4.891,0.019l0.038,6.257l4.892-0.038c2.152,0,3.356-1.346,3.337-3.147
	C19.177,211.973,17.954,210.684,15.802,210.702z M15.452,202.038l-4.607,0.038l0.047,5.839h4.598
	c1.981-0.038,3.336-1.062,3.318-2.958C18.789,203.062,17.452,202.038,15.452,202.038z M16.125,219.727l-8.285,0.038l-0.114-20.476
	l7.973-0.038c3.792-0.038,6.2,2.104,6.218,5.574c0.019,2.218-1.365,3.811-2.739,4.341c1.592,0.645,3.09,2.162,3.109,4.74
	C22.305,217.66,19.755,219.708,16.125,219.727z"/>
<path style="fill:none;stroke:#FFFFFF;stroke-width:3.6693;" d="M15.802,210.702l-4.891,0.019l0.038,6.257l4.892-0.038
	c2.152,0,3.356-1.346,3.337-3.147C19.177,211.973,17.954,210.684,15.802,210.702z M15.452,202.038l-4.607,0.038l0.047,5.839h4.598
	c1.981-0.038,3.336-1.062,3.318-2.958C18.789,203.062,17.452,202.038,15.452,202.038z M16.125,219.727l-8.285,0.038l-0.114-20.476
	l7.973-0.038c3.792-0.038,6.2,2.104,6.218,5.574c0.019,2.218-1.365,3.811-2.739,4.341c1.592,0.645,3.09,2.162,3.109,4.74
	C22.305,217.66,19.755,219.708,16.125,219.727z"/>
<path style="fill:#FFFFFF;" d="M38.591,203.668c-0.777-0.796-1.849-1.194-3.053-1.175c-1.223,0-2.228,0.417-3.005,1.175
	c-1.242,1.289-1.394,3.413-1.375,5.65c0,2.237,0.171,4.398,1.45,5.649c0.777,0.759,1.792,1.214,3.015,1.194
	c1.204,0,2.266-0.455,3.024-1.232c1.261-1.289,1.403-3.412,1.403-5.649C40.032,207.043,39.852,204.9,38.591,203.668z
	 M41.795,217.395c-1.337,1.384-3.356,2.465-6.152,2.465c-2.815,0-4.797-1.023-6.162-2.389c-1.953-2.029-2.446-4.626-2.484-8.114
	c-0.019-3.451,0.474-6.049,2.408-8.077c1.327-1.403,3.299-2.465,6.114-2.465c2.796-0.038,4.834,0.986,6.181,2.389
	c1.962,2.01,2.464,4.607,2.483,8.077C44.203,212.73,43.739,215.347,41.795,217.395z"/>
<path style="fill:none;stroke:#FFFFFF;stroke-width:2.4074;" d="M38.591,203.668c-0.777-0.796-1.849-1.194-3.053-1.175
	c-1.223,0-2.228,0.417-3.005,1.175c-1.242,1.289-1.394,3.413-1.375,5.65c0,2.237,0.171,4.398,1.45,5.649
	c0.777,0.759,1.792,1.214,3.015,1.194c1.204,0,2.266-0.455,3.024-1.232c1.261-1.289,1.403-3.412,1.403-5.649
	C40.032,207.043,39.852,204.9,38.591,203.668z M41.795,217.395c-1.337,1.384-3.356,2.465-6.152,2.465
	c-2.815,0-4.797-1.023-6.162-2.389c-1.953-2.029-2.446-4.626-2.484-8.114c-0.019-3.451,0.474-6.049,2.408-8.077
	c1.327-1.403,3.299-2.465,6.114-2.465c2.796-0.038,4.834,0.986,6.181,2.389c1.962,2.01,2.464,4.607,2.483,8.077
	C44.203,212.73,43.739,215.347,41.795,217.395z"/>
<polygon style="fill:#FFFFFF;" points="60.043,219.48 55.692,212.484 51.389,219.518 46.393,219.556 53.408,208.996 46.573,198.967 
	51.559,198.929 55.654,205.621 59.636,198.891 64.622,198.853 57.948,208.977 65.03,219.461 "/>
<polygon style="fill:none;stroke:#FFFFFF;stroke-width:2.4074;" points="60.043,219.48 55.692,212.484 51.389,219.518 
	46.393,219.556 53.408,208.996 46.573,198.967 51.559,198.929 55.654,205.621 59.636,198.891 64.622,198.853 57.948,208.977 
	65.03,219.461 "/>
</svg>
