<?xml version="1.0" encoding="iso-8859-1"?>
<!-- Generator: Adobe Illustrator 15.0.0, SVG Export Plug-In . SVG Version: 6.00 Build 0)  -->
<!DOCTYPE svg PUBLIC "-//W3C//DTD SVG 1.1//EN" "http://www.w3.org/Graphics/SVG/1.1/DTD/svg11.dtd" [
	<!ENTITY ns_flows "http://ns.adobe.com/Flows/1.0/">
	<!ENTITY ns_extend "http://ns.adobe.com/Extensibility/1.0/">
	<!ENTITY ns_ai "http://ns.adobe.com/AdobeIllustrator/10.0/">
	<!ENTITY ns_graphs "http://ns.adobe.com/Graphs/1.0/">
]>
<svg version="1.1" id="Calque_1" xmlns:x="&ns_extend;" xmlns:i="&ns_ai;" xmlns:graph="&ns_graphs;"
	 xmlns="http://www.w3.org/2000/svg" xmlns:xlink="http://www.w3.org/1999/xlink" xmlns:a="http://ns.adobe.com/AdobeSVGViewerExtensions/3.0/"
	 x="0px" y="0px" width="154.074px" height="79.7px" viewBox="0 0 154.074 79.7" style="enable-background:new 0 0 154.074 79.7;"
	 xml:space="preserve">
<style type="text/css">
<![CDATA[
	.st0{fill:#4D454A;}
	.st1{fill:#FFFFFF;}
	.st2{fill:#6F2C91;}
]]>
</style>
<g>
	<g>
		<rect class="st0" width="129.245" height="40.82"/>
	</g>
	<path class="st1" d="M24.408,29.828c0,0.332-0.274,0.605-0.854,0.817c-1.616,0.548-3.11,0.82-4.513,0.82
		c-2.105,0-4.117-0.516-6.071-1.578C9.065,27.733,6.9,24.123,6.9,19.662c0-2.458,0.671-4.673,1.984-6.677
		c1.341-2.001,3.14-3.487,5.398-4.43c1.462-0.638,3.019-0.939,4.697-0.939c1.13,0,2.35,0.182,3.66,0.516
		c0.397,0.091,0.702,0.213,0.976,0.334l0.334,0.152c0.275,0.12,0.428,0.333,0.428,0.605v5.856c0,0.152-0.06,0.214-0.153,0.214
		c-0.029,0-0.122-0.062-0.275-0.153c-0.456-0.453-1.126-0.819-2.012-1.123c-0.945-0.332-1.8-0.484-2.531-0.484
		c-2.654,0-4.88,1.396-5.888,3.732c-0.335,0.758-0.486,1.577-0.486,2.457c0,1.729,0.639,3.127,1.922,4.218
		c1.187,1.002,2.653,1.518,4.392,1.518c1.983,0,3.506-0.545,4.634-1.669c0.092-0.122,0.184-0.181,0.244-0.181
		c0.123,0,0.184,0.181,0.184,0.574V29.828z"/>
	<path class="st1" d="M28.762,30.857V8.102h5.947v22.756H28.762z"/>
	<path class="st1" d="M56.33,30.857L45.408,16.932v13.926h-5.947V8.102h5.947L56.33,22.029V8.102h5.947v22.756H56.33z"/>
	<path class="st1" d="M66.447,30.857V8.102h1.982l0.337-0.941h9.028l-0.337,0.941h1.983v5.007h-7.045V16.9h6.679v5.007h-6.679v3.944
		h7.045v5.006H66.447z"/>
	<g>
		<path class="st2" d="M154.074,66.45c-40.826,4.413-81.652,8.831-122.479,13.25c-1.261-14.212-2.522-28.425-3.783-42.637
			c40.703-2.314,81.406-4.629,122.109-6.938C151.305,42.233,152.686,54.342,154.074,66.45z"/>
		<g>
			<path class="st1" d="M47.165,44.551c-1.197,0.566-2.179,1.683-2.039,3.209c0.167,1.826,1.155,2.893,5.199,4.291
				c6.009,2.078,7.652,5.402,7.969,8.778c0.535,5.688-3.34,9.819-8.173,10.416c-0.08-0.86-0.119-1.291-0.198-2.151
				c1.519-0.711,2.787-1.659,2.66-3.693c-0.146-2.334-2.668-3.1-4.302-3.723c-4.256-1.625-8.322-3.426-8.856-9.318
				c-0.517-5.704,2.756-9.466,7.541-9.963C47.046,43.259,47.086,43.689,47.165,44.551z M40.404,63.168
				c-0.071-0.787-0.036-1.85,0.881-1.93c0.653-0.058,1.167,0.504,1.323,1.131c0.732,2.951,2.9,6.479,5.842,6.867
				c0.079,0.863,0.118,1.293,0.197,2.156c-2.854,0.211-3.595-1.032-4.773-0.916c-1.047,0.104-0.838,1.328-1.656,1.41
				c-1.014,0.102-1.14-1.287-1.157-1.473C40.799,67.516,40.667,66.066,40.404,63.168z M56.367,49.773
				c0.079,0.844,0.034,1.775-0.915,1.848c-0.784,0.061-1.145-0.621-1.311-1.349c-0.616-2.696-2.9-5.363-5.507-5.821
				c-0.08-0.861-0.12-1.289-0.199-2.148c2.062-0.098,4.382,1.164,4.74,1.141c0.851-0.057,0.661-1.382,1.511-1.438
				c1.013-0.064,1.064,1.19,1.092,1.484C56.014,46.004,56.131,47.26,56.367,49.773z"/>
			<path class="st1" d="M64.545,41.809c1.881-0.123,2.822-0.186,4.703-0.309c0.081,0.838,0.122,1.256,0.202,2.094
				c-1.57,1.452-1.827,3.904-1.907,5.818c-0.033,0.793-0.096,1.762-1.012,1.832c-0.979,0.076-1.164-0.825-1.178-0.971
				C65.03,46.887,64.868,45.194,64.545,41.809z M70.718,41.402c3.201-0.209,4.802-0.313,8.003-0.521
				c0.892,9.077,1.34,13.617,2.232,22.695c0.13,1.32,0.12,1.541,1.303,1.818c0.438,0.104,0.766,0.393,0.814,0.891
				c0.102,1.033-0.972,1.213-1.103,1.227c-3.705,0.369-5.557,0.553-9.262,0.922c-0.132,0.013-1.219,0.047-1.32-1
				c-0.049-0.506,0.218-0.859,0.627-1.045c1.105-0.504,1.053-0.723,0.924-2.057C72.049,55.161,71.604,50.574,70.718,41.402z
				 M85.717,48.723c0.014,0.143,0.004,1.035-0.978,1.111c-0.916,0.071-1.161-0.854-1.345-1.613
				c-0.445-1.837-1.172-4.168-3.001-5.371c-0.081-0.826-0.12-1.238-0.202-2.064c1.882-0.123,2.821-0.186,4.703-0.309
				C85.223,43.775,85.388,45.424,85.717,48.723z"/>
			<path class="st1" d="M98.527,48.451c-0.74,4.857-1.111,7.295-1.855,12.191c-0.307,2.18,0.212,2.734,1.378,3.148
				c0.548,0.195,1.025,0.359,1.097,1.057c0.1,0.976-0.949,1.045-1.604,1.111c-1.506,0.149-2.259,0.225-3.765,0.375
				c-0.653,0.064-1.836,0.146-1.938-0.875c-0.085-0.844,0.486-0.86,1.155-1.318c0.645-0.442,1.451-1.348,1.82-3.893
				c0.947-6.298,1.421-9.43,2.364-15.664c0.039-0.002,0.058-0.004,0.097-0.006C97.777,46.129,98.027,46.902,98.527,48.451z
				 M103.1,58.613c-1.91,0.173-2.865,0.26-4.775,0.434c0.102-0.826,0.151-1.238,0.252-2.064c1.596-0.141,2.393-0.211,3.989-0.352
				c-1.952-6.014-2.927-9.033-4.875-15.1c0.093-0.764,0.138-1.145,0.231-1.906c2.887-0.189,4.331-0.284,7.219-0.473
				c2.864,8.585,4.301,12.85,7.173,21.32c0.296,0.941,0.396,1.589,1.354,1.91c0.48,0.161,0.867,0.363,0.933,0.978
				c0.097,0.923-1.085,1.007-1.707,1.069c-3.261,0.324-4.892,0.487-8.152,0.813c-0.654,0.064-1.61,0.088-1.703-0.814
				c-0.058-0.555,0.134-0.744,0.522-1.028c0.794-0.581,0.902-0.858,0.47-2.181C103.658,60.178,103.473,59.656,103.1,58.613z"/>
			<path class="st1" d="M121.563,41.881c-0.134-1.248-0.123-1.454-1.306-1.744c-0.438-0.107-0.766-0.391-0.816-0.863
				c-0.105-0.98,0.967-1.119,1.098-1.127c3.449-0.227,5.175-0.34,8.624-0.564c0.926,8.486,1.389,12.73,2.316,21.217
				c0.135,1.235,0.126,1.443,1.31,1.695c0.439,0.094,0.767,0.363,0.818,0.829c0.105,0.965-0.966,1.14-1.097,1.152
				c-3.705,0.369-5.558,0.554-9.263,0.923c-0.131,0.013-1.219,0.053-1.324-0.928c-0.051-0.475,0.213-0.806,0.622-0.982
				c1.104-0.479,1.051-0.684,0.917-1.932C122.703,52.486,122.322,48.951,121.563,41.881z M130.633,37.486
				c0.064-0.005,0.098-0.007,0.164-0.012c2.121-0.139,4.348-0.353,6.402,0.478c2.305,0.931,3.616,2.677,3.933,5.165
				c0.479,3.768-1.813,5.613-5.06,6.686c0.003,0.025,0.005,0.039,0.008,0.065c2.957,0.188,5.832,0.812,6.287,4.286
				c0.129,1.156,0.193,1.732,0.323,2.889c0.033,0.295,0.011,0.961,0.435,0.922c0.523-0.051,0.515-1.011,1.301-1.084
				c0.425-0.04,1.005,0.401,1.057,0.859c0.107,0.949-0.856,2.266-1.494,2.895c-1.012,0.998-2.16,1.412-3.567,1.553
				s-2.739-0.093-3.853-1.021c-1.275-1.063-1.602-2.529-1.773-4.09c-0.1-0.902-0.149-1.354-0.249-2.256
				c-0.168-1.527-0.405-3.385-2.39-3.418c-0.086-0.787-0.13-1.18-0.216-1.965c1.747-0.312,1.856-1.424,1.679-3.051
				c-0.178-1.607-0.266-2.411-0.442-4.019c-0.183-1.66-0.63-2.431-2.33-2.919C130.761,38.664,130.719,38.271,130.633,37.486z"/>
		</g>
	</g>
	<path class="st1" d="M112.464,22.71v8.191c0,0.307-0.06,0.43-0.305,0.43h-6.245c-0.209,0-0.336-0.154-0.336-0.369v-8.191
		c0-0.335-0.119-0.456-0.393-0.456h-8.102c-0.243,0-0.365-0.152-0.365-0.426v-6.211c0-0.244,0.092-0.363,0.338-0.363h8.16
		c0.242,0,0.361-0.121,0.361-0.397V7.883c0-0.184,0.127-0.306,0.306-0.306h6.216c0.244,0,0.364,0.092,0.364,0.306v7.034
		c0,0.331,0.063,0.397,0.335,0.397h8.165c0.241,0,0.333,0.119,0.333,0.394v6.242c0,0.212-0.12,0.364-0.333,0.364h-8.073
		C112.557,22.314,112.464,22.378,112.464,22.71z"/>
</g>
</svg>
