<?xml version="1.0" encoding="UTF-8" standalone="no"?>
<!-- Created with Inkscape (http://www.inkscape.org/) -->

<svg
   xmlns:dc="http://purl.org/dc/elements/1.1/"
   xmlns:cc="http://creativecommons.org/ns#"
   xmlns:rdf="http://www.w3.org/1999/02/22-rdf-syntax-ns#"
   xmlns:svg="http://www.w3.org/2000/svg"
   xmlns="http://www.w3.org/2000/svg"
   version="1.1"
   width="50"
   height="26"
   viewBox="0 0 49.999998 26.000001"
   id="Calque_1"
   xml:space="preserve"><metadata
   id="metadata3263"><rdf:RDF><cc:Work
       rdf:about=""><dc:format>image/svg+xml</dc:format><dc:type
         rdf:resource="http://purl.org/dc/dcmitype/StillImage" /><dc:title></dc:title></cc:Work></rdf:RDF></metadata><defs
   id="defs3261" />
<style
   type="text/css"
   id="style3227" />
<g
   transform="matrix(0.3245194,0,0,0.3245194,0,0.135797)"
   id="g3229">
	<g
   id="g3231">
		<rect
   width="129.245"
   height="40.82"
   x="0"
   y="0"
   id="rect3233"
   style="fill:#4d454a" />
	</g>
	<path
   d="m 24.408,29.828 c 0,0.332 -0.274,0.605 -0.854,0.817 -1.616,0.548 -3.11,0.82 -4.513,0.82 -2.105,0 -4.117,-0.516 -6.071,-1.578 C 9.065,27.733 6.9,24.123 6.9,19.662 c 0,-2.458 0.671,-4.673 1.984,-6.677 1.341,-2.001 3.14,-3.487 5.398,-4.43 1.462,-0.638 3.019,-0.939 4.697,-0.939 1.13,0 2.35,0.182 3.66,0.516 0.397,0.091 0.702,0.213 0.976,0.334 l 0.334,0.152 c 0.275,0.12 0.428,0.333 0.428,0.605 v 5.856 c 0,0.152 -0.06,0.214 -0.153,0.214 -0.029,0 -0.122,-0.062 -0.275,-0.153 -0.456,-0.453 -1.126,-0.819 -2.012,-1.123 -0.945,-0.332 -1.8,-0.484 -2.531,-0.484 -2.654,0 -4.88,1.396 -5.888,3.732 -0.335,0.758 -0.486,1.577 -0.486,2.457 0,1.729 0.639,3.127 1.922,4.218 1.187,1.002 2.653,1.518 4.392,1.518 1.983,0 3.506,-0.545 4.634,-1.669 0.092,-0.122 0.184,-0.181 0.244,-0.181 0.123,0 0.184,0.181 0.184,0.574 v 5.646 z"
   id="path3235"
   style="fill:#ffffff" />
	<path
   d="M 28.762,30.857 V 8.102 h 5.947 v 22.756 h -5.947 z"
   id="path3237"
   style="fill:#ffffff" />
	<path
   d="M 56.33,30.857 45.408,16.932 V 30.858 H 39.461 V 8.102 h 5.947 L 56.33,22.029 V 8.102 h 5.947 V 30.858 H 56.33 z"
   id="path3239"
   style="fill:#ffffff" />
	<path
   d="M 66.447,30.857 V 8.102 h 1.982 l 0.337,-0.941 h 9.028 l -0.337,0.941 h 1.983 v 5.007 H 72.395 V 16.9 h 6.679 v 5.007 h -6.679 v 3.944 h 7.045 v 5.006 H 66.447 z"
   id="path3241"
   style="fill:#ffffff" />
	<g
   id="g3243">
		<path
   d="M 154.074,66.45 C 113.248,70.863 72.422,75.281 31.595,79.7 30.334,65.488 29.073,51.275 27.812,37.063 c 40.703,-2.314 81.406,-4.629 122.109,-6.938 1.384,12.108 2.765,24.217 4.153,36.325 z"
   id="path3245"
   style="fill:#6f2c91" />
		<g
   id="g3247">
			<path
   d="m 47.165,44.551 c -1.197,0.566 -2.179,1.683 -2.039,3.209 0.167,1.826 1.155,2.893 5.199,4.291 6.009,2.078 7.652,5.402 7.969,8.778 0.535,5.688 -3.34,9.819 -8.173,10.416 -0.08,-0.86 -0.119,-1.291 -0.198,-2.151 1.519,-0.711 2.787,-1.659 2.66,-3.693 -0.146,-2.334 -2.668,-3.1 -4.302,-3.723 -4.256,-1.625 -8.322,-3.426 -8.856,-9.318 -0.517,-5.704 2.756,-9.466 7.541,-9.963 0.08,0.862 0.12,1.292 0.199,2.154 z m -6.761,18.617 c -0.071,-0.787 -0.036,-1.85 0.881,-1.93 0.653,-0.058 1.167,0.504 1.323,1.131 0.732,2.951 2.9,6.479 5.842,6.867 0.079,0.863 0.118,1.293 0.197,2.156 -2.854,0.211 -3.595,-1.032 -4.773,-0.916 -1.047,0.104 -0.838,1.328 -1.656,1.41 -1.014,0.102 -1.14,-1.287 -1.157,-1.473 -0.262,-2.897 -0.394,-4.347 -0.657,-7.245 z M 56.367,49.773 c 0.079,0.844 0.034,1.775 -0.915,1.848 -0.784,0.061 -1.145,-0.621 -1.311,-1.349 -0.616,-2.696 -2.9,-5.363 -5.507,-5.821 -0.08,-0.861 -0.12,-1.289 -0.199,-2.148 2.062,-0.098 4.382,1.164 4.74,1.141 0.851,-0.057 0.661,-1.382 1.511,-1.438 1.013,-0.064 1.064,1.19 1.092,1.484 0.236,2.514 0.353,3.77 0.589,6.283 z"
   id="path3249"
   style="fill:#ffffff" />
			<path
   d="m 64.545,41.809 c 1.881,-0.123 2.822,-0.186 4.703,-0.309 0.081,0.838 0.122,1.256 0.202,2.094 -1.57,1.452 -1.827,3.904 -1.907,5.818 -0.033,0.793 -0.096,1.762 -1.012,1.832 -0.979,0.076 -1.164,-0.825 -1.178,-0.971 -0.323,-3.386 -0.485,-5.079 -0.808,-8.464 z m 6.173,-0.407 c 3.201,-0.209 4.802,-0.313 8.003,-0.521 0.892,9.077 1.34,13.617 2.232,22.695 0.13,1.32 0.12,1.541 1.303,1.818 0.438,0.104 0.766,0.393 0.814,0.891 0.102,1.033 -0.972,1.213 -1.103,1.227 -3.705,0.369 -5.557,0.553 -9.262,0.922 -0.132,0.013 -1.219,0.047 -1.32,-1 -0.049,-0.506 0.218,-0.859 0.627,-1.045 1.105,-0.504 1.053,-0.723 0.924,-2.057 -0.887,-9.171 -1.332,-13.758 -2.218,-22.93 z m 14.999,7.321 c 0.014,0.143 0.004,1.035 -0.978,1.111 -0.916,0.071 -1.161,-0.854 -1.345,-1.613 -0.445,-1.837 -1.172,-4.168 -3.001,-5.371 -0.081,-0.826 -0.12,-1.238 -0.202,-2.064 1.882,-0.123 2.821,-0.186 4.703,-0.309 0.329,3.298 0.494,4.947 0.823,8.246 z"
   id="path3251"
   style="fill:#ffffff" />
			<path
   d="m 98.527,48.451 c -0.74,4.857 -1.111,7.295 -1.855,12.191 -0.307,2.18 0.212,2.734 1.378,3.148 0.548,0.195 1.025,0.359 1.097,1.057 0.1,0.976 -0.949,1.045 -1.604,1.111 -1.506,0.149 -2.259,0.225 -3.765,0.375 -0.653,0.064 -1.836,0.146 -1.938,-0.875 -0.085,-0.844 0.486,-0.86 1.155,-1.318 0.645,-0.442 1.451,-1.348 1.82,-3.893 0.947,-6.298 1.421,-9.43 2.364,-15.664 0.039,-0.002 0.058,-0.004 0.097,-0.006 0.501,1.552 0.751,2.325 1.251,3.874 z m 4.573,10.162 c -1.91,0.173 -2.865,0.26 -4.775,0.434 0.102,-0.826 0.151,-1.238 0.252,-2.064 1.596,-0.141 2.393,-0.211 3.989,-0.352 -1.952,-6.014 -2.927,-9.033 -4.875,-15.1 0.093,-0.764 0.138,-1.145 0.231,-1.906 2.887,-0.189 4.331,-0.284 7.219,-0.473 2.864,8.585 4.301,12.85 7.173,21.32 0.296,0.941 0.396,1.589 1.354,1.91 0.48,0.161 0.867,0.363 0.933,0.978 0.097,0.923 -1.085,1.007 -1.707,1.069 -3.261,0.324 -4.892,0.487 -8.152,0.813 -0.654,0.064 -1.61,0.088 -1.703,-0.814 -0.058,-0.555 0.134,-0.744 0.522,-1.028 0.794,-0.581 0.902,-0.858 0.47,-2.181 -0.373,-1.041 -0.558,-1.563 -0.931,-2.606 z"
   id="path3253"
   style="fill:#ffffff" />
			<path
   d="m 121.563,41.881 c -0.134,-1.248 -0.123,-1.454 -1.306,-1.744 -0.438,-0.107 -0.766,-0.391 -0.816,-0.863 -0.105,-0.98 0.967,-1.119 1.098,-1.127 3.449,-0.227 5.175,-0.34 8.624,-0.564 0.926,8.486 1.389,12.73 2.316,21.217 0.135,1.235 0.126,1.443 1.31,1.695 0.439,0.094 0.767,0.363 0.818,0.829 0.105,0.965 -0.966,1.14 -1.097,1.152 -3.705,0.369 -5.558,0.554 -9.263,0.923 -0.131,0.013 -1.219,0.053 -1.324,-0.928 -0.051,-0.475 0.213,-0.806 0.622,-0.982 1.104,-0.479 1.051,-0.684 0.917,-1.932 -0.759,-7.071 -1.14,-10.606 -1.899,-17.676 z m 9.07,-4.395 c 0.064,-0.005 0.098,-0.007 0.164,-0.012 2.121,-0.139 4.348,-0.353 6.402,0.478 2.305,0.931 3.616,2.677 3.933,5.165 0.479,3.768 -1.813,5.613 -5.06,6.686 0.003,0.025 0.005,0.039 0.008,0.065 2.957,0.188 5.832,0.812 6.287,4.286 0.129,1.156 0.193,1.732 0.323,2.889 0.033,0.295 0.011,0.961 0.435,0.922 0.523,-0.051 0.515,-1.011 1.301,-1.084 0.425,-0.04 1.005,0.401 1.057,0.859 0.107,0.949 -0.856,2.266 -1.494,2.895 -1.012,0.998 -2.16,1.412 -3.567,1.553 -1.407,0.141 -2.739,-0.093 -3.853,-1.021 -1.275,-1.063 -1.602,-2.529 -1.773,-4.09 -0.1,-0.902 -0.149,-1.354 -0.249,-2.256 -0.168,-1.527 -0.405,-3.385 -2.39,-3.418 -0.086,-0.787 -0.13,-1.18 -0.216,-1.965 1.747,-0.312 1.856,-1.424 1.679,-3.051 -0.178,-1.607 -0.266,-2.411 -0.442,-4.019 -0.183,-1.66 -0.63,-2.431 -2.33,-2.919 -0.087,-0.785 -0.129,-1.178 -0.215,-1.963 z"
   id="path3255"
   style="fill:#ffffff" />
		</g>
	</g>
	<path
   d="m 112.464,22.71 v 8.191 c 0,0.307 -0.06,0.43 -0.305,0.43 h -6.245 c -0.209,0 -0.336,-0.154 -0.336,-0.369 v -8.191 c 0,-0.335 -0.119,-0.456 -0.393,-0.456 h -8.102 c -0.243,0 -0.365,-0.152 -0.365,-0.426 v -6.211 c 0,-0.244 0.092,-0.363 0.338,-0.363 h 8.16 c 0.242,0 0.361,-0.121 0.361,-0.397 V 7.883 c 0,-0.184 0.127,-0.306 0.306,-0.306 h 6.216 c 0.244,0 0.364,0.092 0.364,0.306 v 7.034 c 0,0.331 0.063,0.397 0.335,0.397 h 8.165 c 0.241,0 0.333,0.119 0.333,0.394 v 6.242 c 0,0.212 -0.12,0.364 -0.333,0.364 h -8.073 c -0.333,0 -0.426,0.064 -0.426,0.396 z"
   id="path3257"
   style="fill:#ffffff" />
</g>
</svg>