<?xml version="1.0" encoding="iso-8859-1"?>
<!-- Generator: Adobe Illustrator 15.0.0, SVG Export Plug-In . SVG Version: 6.00 Build 0)  -->
<!DOCTYPE svg PUBLIC "-//W3C//DTD SVG 1.1//EN" "http://www.w3.org/Graphics/SVG/1.1/DTD/svg11.dtd" [
	<!ENTITY ns_flows "http://ns.adobe.com/Flows/1.0/">
	<!ENTITY ns_extend "http://ns.adobe.com/Extensibility/1.0/">
	<!ENTITY ns_ai "http://ns.adobe.com/AdobeIllustrator/10.0/">
	<!ENTITY ns_graphs "http://ns.adobe.com/Graphs/1.0/">
]>
<svg version="1.1" id="Calque_1" xmlns:x="&ns_extend;" xmlns:i="&ns_ai;" xmlns:graph="&ns_graphs;"
	 xmlns="http://www.w3.org/2000/svg" xmlns:xlink="http://www.w3.org/1999/xlink" xmlns:a="http://ns.adobe.com/AdobeSVGViewerExtensions/3.0/"
	 x="0px" y="0px" width="159.547px" height="83.82px" viewBox="0 0 159.547 83.82"
	 style="enable-background:new 0 0 159.547 83.82;" xml:space="preserve">
<style type="text/css">
<![CDATA[
	.st0{fill:#4D454A;}
	.st1{fill:#FFFFFF;}
	.st2{fill:#002F67;}
]]>
</style>
<g>
	<g>
		<rect x="2.987" y="2.483" class="st0" width="129.245" height="40.82"/>
	</g>
	<path class="st1" d="M27.395,32.311c0,0.332-0.274,0.605-0.854,0.818c-1.616,0.547-3.11,0.82-4.513,0.82
		c-2.105,0-4.117-0.516-6.071-1.578c-3.904-2.154-6.07-5.766-6.07-10.227c0-2.457,0.671-4.672,1.984-6.676
		c1.341-2.002,3.14-3.488,5.398-4.43c1.462-0.639,3.019-0.939,4.697-0.939c1.13,0,2.35,0.182,3.66,0.516
		c0.397,0.09,0.702,0.213,0.976,0.334l0.334,0.152c0.275,0.119,0.428,0.332,0.428,0.605v5.855c0,0.152-0.06,0.215-0.153,0.215
		c-0.029,0-0.122-0.063-0.275-0.154c-0.456-0.453-1.126-0.818-2.012-1.123c-0.945-0.332-1.8-0.484-2.531-0.484
		c-2.654,0-4.88,1.396-5.888,3.732c-0.335,0.758-0.486,1.578-0.486,2.457c0,1.73,0.639,3.127,1.922,4.219
		c1.187,1.002,2.653,1.518,4.392,1.518c1.983,0,3.506-0.545,4.634-1.67c0.092-0.121,0.184-0.18,0.244-0.18
		c0.123,0,0.184,0.18,0.184,0.574V32.311z"/>
	<path class="st1" d="M31.749,33.34V10.584h5.947V33.34H31.749z"/>
	<path class="st1" d="M59.316,33.34L48.395,19.415V33.34h-5.947V10.584h5.947l10.921,13.928V10.584h5.947V33.34H59.316z"/>
	<path class="st1" d="M69.434,33.34V10.584h1.982l0.337-0.941h9.028l-0.337,0.941h1.983v5.008h-7.045v3.791h6.679v5.008h-6.679
		v3.943h7.045v5.006H69.434z"/>
	<g>
		<path class="st2" d="M157.059,68.931c-40.825,4.423-81.652,8.834-122.478,13.251c-1.262-14.212-2.525-28.425-3.783-42.638
			c40.703-2.312,81.406-4.626,122.108-6.938C154.287,44.715,155.67,56.824,157.059,68.931z"/>
		<g>
			<path class="st1" d="M78.242,62.811c-0.695,2.151-2.587,5.837-4.907,6.062c-1.142,0.111-1.824-0.321-1.975-1.745
				c-0.079-0.745,0.122-1.639,0.339-2.97c1.051-6.728,1.576-10.072,2.623-16.729c0.133-0.867,0.385-2.117,0.335-2.629
				c-0.06-0.612-0.728-0.774-1.57-0.821c0.009-0.289,0.014-0.434,0.022-0.723c2.017-0.213,3.025-0.32,5.042-0.532
				c-1.385,8.476-2.078,12.742-3.468,21.335c-0.102,0.56-0.219,1.295-0.179,1.704c0.053,0.545,0.186,0.636,0.465,0.609
				c0.897-0.084,2.134-3.082,2.456-3.934C77.751,62.587,77.916,62.662,78.242,62.811z"/>
			<path class="st1" d="M94.241,51.117c-0.871,4.833-1.307,7.261-2.18,12.135c-0.084,0.413-0.086,0.683-0.076,0.782
				c0.047,0.467,0.289,0.715,0.444,0.7c0.804-0.075,1.862-2.895,2.255-3.634c0.266,0.163,0.398,0.245,0.666,0.408
				c-0.789,1.781-2.386,5.463-4.519,5.67c-1.175,0.113-1.61-0.825-1.72-1.931c-0.1-1.006,0.107-2.039,0.17-2.991
				c-0.025,0.003-0.036,0.005-0.061,0.008c-0.973,2.453-2.254,5.287-5.131,5.566c-2.041,0.197-3.315-1.355-3.523-3.488
				c-0.44-4.503,3.234-12.426,8.33-12.814c1.482-0.113,2.465,0.84,3.137,0.865c0.492,0.019,0.912-0.84,1.156-1.193
				C93.61,51.167,93.821,51.15,94.241,51.117z M83.889,64.515c0.096,0.978,0.635,1.708,1.564,1.62
				c2.535-0.24,5.307-9.03,5.016-11.935c-0.09-0.901-0.635-2.005-1.592-1.932C85.697,52.515,83.717,62.76,83.889,64.515z"/>
			<path class="st1" d="M104.477,52.219c-0.189-0.828-0.535-1.065-1.231-1.063c-0.972,0.004-1.765,0.701-1.654,1.788
				c0.242,2.368,5.304,3.992,5.705,7.885c0.337,3.27-1.956,4.945-4.771,5.218c-1.826,0.177-4.947-0.125-5.202-2.644
				c-0.081-0.796,0.42-1.707,1.224-1.78c2.721-0.246,2.078,3.875,4.584,3.635c1.02-0.097,1.745-1.559,1.645-2.545
				c-0.341-3.313-5.346-4.371-5.712-7.971c-0.269-2.643,1.79-4.13,4.075-4.306c1.359-0.104,4.482,0.283,4.682,2.21
				c0.092,0.882-0.365,1.576-1.23,1.646C105.262,54.403,104.745,53.392,104.477,52.219z"/>
			<path class="st1" d="M116.963,51.233c-0.191-0.813-0.536-1.046-1.232-1.043c-0.973,0.006-1.766,0.691-1.652,1.761
				c0.244,2.329,5.307,3.919,5.713,7.746c0.341,3.216-1.953,4.866-4.768,5.14c-1.824,0.176-4.947-0.113-5.204-2.59
				c-0.081-0.783,0.419-1.683,1.221-1.756c2.722-0.246,2.085,3.809,4.589,3.569c1.021-0.098,1.743-1.536,1.642-2.505
				c-0.344-3.259-5.349-4.293-5.718-7.833c-0.271-2.599,1.785-4.063,4.07-4.238c1.36-0.104,4.482,0.27,4.684,2.163
				c0.093,0.867-0.363,1.554-1.227,1.624C117.75,53.379,117.232,52.384,116.963,51.233z"/>
			<path class="st1" d="M130.695,58.458c-0.845,1.995-2.354,5.092-4.735,5.322c-0.898,0.087-1.723-0.319-1.836-1.375
				c-0.041-0.384-0.071-0.962,0.282-2.317c0.704-2.75,1.056-4.119,1.761-6.851c0.244-0.92,0.4-1.507,0.369-1.794
				c-0.033-0.319-0.141-0.44-0.419-0.418c-0.926,0.073-1.655,2.285-2.61,3.85c-0.287-0.118-0.432-0.175-0.718-0.293
				c1.22-2.88,2.892-5.867,4.622-6c1.204-0.092,1.943,0.683,2.055,1.696c0.058,0.539-0.076,1.604-0.375,2.877
				c-0.676,2.629-1.014,3.948-1.689,6.594c-0.177,0.69-0.289,1.122-0.241,1.568c0.021,0.189,0.226,0.331,0.41,0.313
				c0.866-0.081,2.04-2.787,2.401-3.492C130.26,58.266,130.407,58.33,130.695,58.458z M128.643,45.291
				c-0.957,0.069-1.941-0.692-2.058-1.774c-0.116-1.08,0.688-1.97,1.646-2.034c0.957-0.063,1.943,0.702,2.061,1.777
				C130.409,44.335,129.6,45.221,128.643,45.291z"/>
			<path class="st1" d="M144.016,56.53c-1.26,2.688-2.639,5.76-5.979,6.083c-2.506,0.242-4.076-0.979-4.361-3.598
				c-0.461-4.229,2.277-11.086,7.097-11.454c1.39-0.106,3.714,0.343,3.88,1.831c0.115,1.024-0.22,1.928-1.395,2.024
				c-1.143,0.094-1.75-0.609-1.865-1.64c-0.145-1.309-0.327-1.547-1.1-1.487c-2.719,0.21-3.393,8.274-3.16,10.379
				c0.221,2.009,0.746,2.5,2.014,2.38c1.947-0.185,3.291-3.275,4.059-4.79C143.53,56.367,143.692,56.42,144.016,56.53z"/>
		</g>
		<path class="st1" d="M66.417,61.575c-0.723,3.704-1.083,5.563-1.807,9.292c-0.333-0.079-0.5-0.115-0.833-0.194
			c0.19-0.611-0.411-0.992-1.149-0.922c-0.771,0.075-2.787,1.584-5.558,1.856c-5.612,0.551-10.367-3.386-10.872-9.768
			c-0.699-8.828,5.297-19.754,14.738-20.564c2.285-0.196,4.623,0.856,6.684,2.134c0.479-0.281,0.72-0.42,1.199-0.701
			c0.23,0.189,0.344,0.284,0.574,0.473c-0.568,3.478-0.854,5.218-1.422,8.714c-0.458-0.06-0.685-0.088-1.143-0.147
			c-0.02-0.588-0.05-1.256-0.114-1.918c-0.338-3.551-1.52-8.084-5.256-7.521c-8.116,1.223-10.544,13.678-9.948,21.208
			c0.274,3.465,2.268,7.334,5.775,6.993c4.105-0.397,6.585-5.635,8.036-9.351C65.76,61.325,65.978,61.409,66.417,61.575z"/>
	</g>
	<path class="st1" d="M115.451,25.194v8.191c0,0.307-0.06,0.43-0.305,0.43h-6.245c-0.209,0-0.336-0.154-0.336-0.369v-8.191
		c0-0.336-0.119-0.457-0.393-0.457h-8.102c-0.243,0-0.365-0.152-0.365-0.426v-6.211c0-0.244,0.092-0.363,0.338-0.363h8.16
		c0.242,0,0.361-0.121,0.361-0.396v-7.035c0-0.184,0.127-0.305,0.306-0.305h6.216c0.244,0,0.364,0.092,0.364,0.305v7.035
		c0,0.33,0.063,0.396,0.335,0.396h8.165c0.241,0,0.333,0.119,0.333,0.395v6.242c0,0.211-0.12,0.363-0.333,0.363h-8.073
		C115.543,24.797,115.451,24.862,115.451,25.194z"/>
</g>
</svg>
