<?xml version="1.0" encoding="UTF-8" standalone="no"?>
<!-- Created with Inkscape (http://www.inkscape.org/) -->

<svg
   xmlns:dc="http://purl.org/dc/elements/1.1/"
   xmlns:cc="http://creativecommons.org/ns#"
   xmlns:rdf="http://www.w3.org/1999/02/22-rdf-syntax-ns#"
   xmlns:svg="http://www.w3.org/2000/svg"
   xmlns="http://www.w3.org/2000/svg"
   version="1.1"
   width="50"
   height="26"
   viewBox="0 0 49.999998 25.999999"
   id="Calque_1"
   xml:space="preserve"><metadata
   id="metadata3179"><rdf:RDF><cc:Work
       rdf:about=""><dc:format>image/svg+xml</dc:format><dc:type
         rdf:resource="http://purl.org/dc/dcmitype/StillImage" /><dc:title></dc:title></cc:Work></rdf:RDF></metadata><defs
   id="defs3177" />
<style
   type="text/css"
   id="style3119" />
<g
   transform="matrix(0.32454676,0,0,0.32454676,0,0.13297267)"
   id="g3121">
	<g
   id="g3123">
		<rect
   width="129.245"
   height="40.82"
   x="0"
   y="0"
   id="rect3125"
   style="fill:#4d454a" />
	</g>
	<path
   d="m 24.408,29.828 c 0,0.332 -0.274,0.605 -0.854,0.818 -1.616,0.547 -3.11,0.82 -4.513,0.82 -2.105,0 -4.117,-0.516 -6.071,-1.578 C 9.065,27.734 6.9,24.123 6.9,19.662 c 0,-2.457 0.671,-4.672 1.984,-6.676 1.341,-2.002 3.14,-3.488 5.398,-4.43 1.462,-0.639 3.019,-0.939 4.697,-0.939 1.13,0 2.35,0.182 3.66,0.516 0.397,0.09 0.702,0.213 0.976,0.334 l 0.334,0.152 c 0.275,0.119 0.428,0.332 0.428,0.605 v 5.855 c 0,0.152 -0.06,0.215 -0.153,0.215 -0.029,0 -0.122,-0.063 -0.275,-0.154 -0.456,-0.453 -1.126,-0.818 -2.012,-1.123 -0.945,-0.332 -1.8,-0.484 -2.531,-0.484 -2.654,0 -4.88,1.396 -5.888,3.732 -0.335,0.758 -0.486,1.578 -0.486,2.457 0,1.73 0.639,3.127 1.922,4.219 1.187,1.002 2.653,1.518 4.392,1.518 1.983,0 3.506,-0.545 4.634,-1.67 0.092,-0.121 0.184,-0.18 0.244,-0.18 0.123,0 0.184,0.18 0.184,0.574 v 5.645 z"
   id="path3127"
   style="fill:#ffffff" />
	<path
   d="M 28.762,30.857 V 8.102 h 5.947 v 22.756 h -5.947 z"
   id="path3129"
   style="fill:#ffffff" />
	<path
   d="M 56.33,30.857 45.408,16.932 V 30.858 H 39.461 V 8.102 h 5.947 L 56.33,22.029 V 8.102 h 5.947 V 30.858 H 56.33 z"
   id="path3131"
   style="fill:#ffffff" />
	<path
   d="M 66.447,30.857 V 8.102 h 1.982 l 0.337,-0.941 h 9.028 l -0.337,0.941 h 1.983 v 5.008 h -7.045 v 3.79 h 6.679 v 5.008 h -6.679 v 3.943 h 7.045 v 5.006 H 66.447 z"
   id="path3133"
   style="fill:#ffffff" />
	<g
   id="g3135">
		<g
   id="g3137">
			<path
   d="M 154.061,66.45 C 113.241,70.866 72.418,75.282 31.596,79.702 30.083,62.643 29.324,54.112 27.811,37.062 68.51,34.75 109.21,32.44 149.908,30.126 c 1.662,14.527 2.488,21.8 4.153,36.324 z"
   id="path3139"
   style="fill:#00a77e" />
		</g>
		<g
   id="g3141">
			<g
   id="g3143">
				<g
   id="g3145">
					<path
   d="m 46.408,46.479 c -0.643,-0.256 -0.967,-0.385 -1.61,-0.643 -0.599,0.369 -0.894,0.561 -1.493,0.934 -1.026,0.207 -1.54,0.313 -2.563,0.521 -0.116,0.611 -0.174,0.92 -0.29,1.531 0.186,0.895 0.282,1.344 0.469,2.24 0.057,0.477 0.084,0.717 0.143,1.199 0.138,1.232 0.206,1.848 0.344,3.08 0.29,0.143 0.439,0.215 0.728,0.357 1.035,-0.113 1.552,-0.172 2.585,-0.285 0.479,0.158 0.717,0.236 1.193,0.396 0.309,0.502 0.463,0.75 0.775,1.252 -0.026,0.588 -0.042,0.887 -0.066,1.477 -0.135,0.232 -0.202,0.357 -0.337,0.592 -1.655,0.277 -2.484,0.416 -4.139,0.693 -0.25,0.324 -0.372,0.486 -0.622,0.811 0.346,3.941 0.517,5.912 0.863,9.857 -0.375,0.547 -0.56,0.828 -0.934,1.383 -0.604,0.076 -0.905,0.113 -1.509,0.188 -0.434,-0.549 -0.651,-0.826 -1.085,-1.377 -0.136,-2.975 -0.202,-4.461 -0.34,-7.434 -0.335,-3.012 -0.51,-4.521 -0.847,-7.537 0.099,-0.813 0.148,-1.223 0.247,-2.035 -0.223,-2.035 -0.335,-3.055 -0.559,-5.092 0.007,-1.535 0.01,-2.301 0.016,-3.832 0.232,-0.229 0.347,-0.342 0.578,-0.57 0.457,-0.043 0.686,-0.068 1.143,-0.115 0.39,-0.344 0.588,-0.512 0.98,-0.855 1.59,-0.043 2.386,-0.066 3.976,-0.109 0.543,0.16 0.815,0.236 1.359,0.398 0.612,0.047 0.916,0.076 1.528,0.125 0.225,0.285 0.337,0.43 0.561,0.711 0.046,0.49 0.067,0.742 0.111,1.232 -0.483,0.364 -0.723,0.544 -1.205,0.907 z"
   id="path3147"
   style="fill:#fafafa" />
				</g>
				<g
   id="g3149">
					<path
   d="m 66.331,68.868 c -0.564,0.455 -0.847,0.682 -1.414,1.139 -0.351,-0.053 -0.528,-0.078 -0.879,-0.131 -0.336,-0.451 -0.5,-0.684 -0.836,-1.137 -0.299,-1.064 -0.452,-1.6 -0.75,-2.666 -0.17,-0.666 -0.251,-0.998 -0.419,-1.664 -0.261,-0.658 -0.39,-0.984 -0.652,-1.643 -0.305,-1.275 -0.458,-1.912 -0.765,-3.189 -0.242,-0.467 -0.366,-0.701 -0.608,-1.168 -0.396,-0.266 -0.589,-0.395 -0.985,-0.656 -0.249,0.033 -0.375,0.049 -0.624,0.084 -0.233,0.332 -0.35,0.502 -0.583,0.832 0.389,3.459 0.585,5.188 0.978,8.643 0.076,0.68 0.114,1.016 0.192,1.693 -0.143,0.328 -0.213,0.486 -0.354,0.816 -0.141,0.191 -0.213,0.287 -0.354,0.48 -0.551,0.068 -0.823,0.104 -1.373,0.174 C 56.51,69.934 56.311,69.668 55.916,69.12 55.335,63.177 55.041,60.206 54.46,54.259 54.4,53.773 54.372,53.529 54.315,53.042 54.084,50.149 53.968,48.708 53.74,45.823 c 0.079,-0.707 0.118,-1.061 0.197,-1.764 0.082,-0.111 0.123,-0.166 0.205,-0.273 0.575,-0.336 0.863,-0.508 1.439,-0.84 0.437,-0.135 0.655,-0.197 1.093,-0.332 1.614,0.059 2.418,0.086 4.033,0.139 0.55,0.232 0.826,0.346 1.376,0.574 0.304,0.271 0.455,0.412 0.759,0.684 0.381,1.24 0.571,1.857 0.952,3.098 0.141,1.184 0.211,1.771 0.351,2.951 0.225,1.941 0.336,2.914 0.562,4.85 -0.58,1.156 -0.868,1.73 -1.445,2.887 0.269,0.76 0.404,1.141 0.675,1.898 0.849,2.803 1.274,4.199 2.124,6.994 0.222,0.244 0.333,0.365 0.554,0.605 -0.114,0.63 -0.172,0.949 -0.284,1.574 z m -5.39,-21.926 c -0.337,-0.477 -0.504,-0.713 -0.84,-1.193 -1.125,0.105 -1.687,0.158 -2.812,0.27 0.096,1.578 0.142,2.369 0.237,3.951 -0.014,0.684 -0.023,1.023 -0.04,1.709 0.141,1.205 0.213,1.809 0.354,3.014 0.273,-0.035 0.411,-0.053 0.685,-0.092 1.011,-0.217 1.517,-0.322 2.528,-0.535 0.229,-0.506 0.345,-0.762 0.573,-1.266 -0.272,-2.344 -0.41,-3.514 -0.685,-5.858 z"
   id="path3151"
   style="fill:#fafafa" />
				</g>
				<g
   id="g3153">
					<path
   d="m 77.577,67.934 c -0.76,0.088 -1.139,0.135 -1.901,0.223 -0.401,-0.322 -0.604,-0.482 -1.007,-0.805 -0.603,-5.135 -0.903,-7.701 -1.506,-12.836 -0.078,-0.668 -0.117,-1 -0.195,-1.662 -0.102,-3.229 -0.156,-4.838 -0.256,-8.059 -0.097,-0.867 -0.144,-1.301 -0.24,-2.164 0.371,-0.506 0.559,-0.762 0.933,-1.262 0.282,0.037 0.423,0.059 0.704,0.096 0.144,-0.006 0.212,-0.012 0.356,-0.018 0.202,0.172 0.306,0.26 0.507,0.434 0.22,1.838 0.327,2.758 0.546,4.598 -0.125,0.486 -0.185,0.734 -0.309,1.223 -0.289,0.426 -0.435,0.643 -0.721,1.072 0.479,0.428 0.718,0.641 1.196,1.066 -0.167,0.592 -0.254,0.891 -0.421,1.484 0.381,0.373 0.571,0.563 0.953,0.938 0.015,0.971 0.024,1.461 0.04,2.43 0.279,2.316 0.417,3.467 0.697,5.779 0.248,1.314 0.374,1.971 0.62,3.285 0.142,1.176 0.21,1.768 0.353,2.941 -0.14,0.495 -0.21,0.743 -0.349,1.237 z"
   id="path3155"
   style="fill:#fafafa" />
				</g>
				<g
   id="g3157">
					<path
   d="m 93.336,65.934 c -0.668,0.352 -1.002,0.529 -1.669,0.881 -0.633,0.174 -0.949,0.27 -1.582,0.441 -0.326,0.051 -0.489,0.072 -0.819,0.117 -0.641,-0.191 -0.961,-0.285 -1.604,-0.48 -0.767,-0.5 -1.15,-0.75 -1.916,-1.25 -0.436,-0.52 -0.657,-0.779 -1.092,-1.299 -0.148,-1.223 -0.221,-1.834 -0.367,-3.059 0.322,-0.346 0.484,-0.518 0.809,-0.865 0.533,0.037 0.799,0.059 1.332,0.096 0.335,0.43 0.502,0.641 0.836,1.066 0.124,0.596 0.188,0.893 0.312,1.48 0.701,0.377 1.054,0.564 1.755,0.941 0.593,-0.17 0.889,-0.256 1.481,-0.428 0.354,-0.705 0.531,-1.057 0.885,-1.762 -0.021,-0.854 -0.029,-1.279 -0.05,-2.133 -0.082,-0.664 -0.119,-0.992 -0.201,-1.654 -0.363,-0.725 -0.545,-1.086 -0.91,-1.811 -0.176,-0.182 -0.266,-0.273 -0.443,-0.459 -1.377,-0.139 -2.064,-0.209 -3.443,-0.352 -0.662,-0.402 -0.992,-0.607 -1.654,-1.008 -0.488,-0.521 -0.73,-0.781 -1.221,-1.299 -0.285,-0.738 -0.426,-1.107 -0.711,-1.85 -0.248,-2.105 -0.373,-3.16 -0.623,-5.27 0.34,-0.975 0.509,-1.457 0.848,-2.43 0.625,-0.762 0.938,-1.141 1.561,-1.898 0.668,-0.33 1.002,-0.494 1.669,-0.822 0.95,0.008 1.426,0.011 2.379,0.02 0.575,0.216 0.863,0.326 1.44,0.542 0.51,0.619 0.768,0.928 1.277,1.551 0.152,0.467 0.229,0.705 0.381,1.176 -0.162,0.225 -0.242,0.336 -0.405,0.559 0.07,0.553 0.103,0.824 0.173,1.375 -0.164,0.207 -0.246,0.314 -0.41,0.525 -0.143,0.029 -0.214,0.039 -0.357,0.064 -0.74,-0.799 -1.111,-1.199 -1.852,-2.004 -0.176,-0.172 -0.264,-0.256 -0.44,-0.432 -0.87,0.275 -1.306,0.416 -2.175,0.691 -0.227,1.162 -0.344,1.74 -0.572,2.902 0.225,1.043 0.334,1.563 0.557,2.604 0.045,0.299 0.065,0.445 0.107,0.746 0.671,0.488 1.01,0.73 1.68,1.221 0.912,0.115 1.365,0.17 2.276,0.279 0.87,0.771 1.308,1.152 2.179,1.92 0.484,2.037 0.728,3.057 1.212,5.088 0.067,0.291 0.101,0.439 0.171,0.725 0.093,1.311 0.139,1.965 0.229,3.277 -0.414,0.913 -0.621,1.372 -1.033,2.278 z"
   id="path3159"
   style="fill:#fafafa" />
				</g>
				<g
   id="g3161">
					<path
   d="m 99.602,40.003 c 0.666,-0.325 1,-0.486 1.666,-0.811 0.632,-0.15 0.949,-0.227 1.578,-0.379 0.325,-0.037 0.49,-0.053 0.817,-0.088 0.641,0.211 0.96,0.313 1.603,0.52 0.765,0.507 1.148,0.762 1.914,1.267 0.438,0.512 0.656,0.766 1.092,1.28 0.15,1.182 0.226,1.773 0.375,2.961 -0.322,0.328 -0.484,0.49 -0.808,0.82 -0.534,-0.041 -0.8,-0.068 -1.335,-0.109 -0.332,-0.424 -0.499,-0.633 -0.835,-1.055 -0.124,-0.576 -0.187,-0.865 -0.313,-1.441 -0.701,-0.379 -1.052,-0.57 -1.75,-0.955 -0.593,0.154 -0.891,0.223 -1.48,0.377 -0.354,0.678 -0.527,1.023 -0.881,1.709 0.021,0.842 0.03,1.264 0.052,2.102 0.079,0.654 0.121,0.975 0.2,1.627 0.365,0.721 0.546,1.078 0.91,1.793 0.176,0.182 0.27,0.273 0.448,0.457 1.376,0.143 2.062,0.211 3.44,0.352 0.663,0.393 0.996,0.59 1.658,0.98 0.49,0.504 0.736,0.754 1.224,1.258 0.284,0.713 0.427,1.068 0.714,1.779 0.254,2.037 0.383,3.055 0.635,5.09 -0.34,0.951 -0.508,1.43 -0.846,2.381 -0.626,0.756 -0.939,1.133 -1.564,1.893 -0.667,0.344 -0.999,0.518 -1.667,0.863 -0.952,0.025 -1.431,0.037 -2.384,0.061 -0.577,-0.195 -0.867,-0.297 -1.447,-0.492 -0.51,-0.594 -0.767,-0.896 -1.278,-1.496 -0.153,-0.461 -0.228,-0.691 -0.382,-1.158 0.16,-0.225 0.24,-0.338 0.402,-0.566 -0.068,-0.541 -0.103,-0.814 -0.171,-1.357 0.163,-0.213 0.246,-0.316 0.409,-0.531 0.144,-0.023 0.216,-0.037 0.359,-0.064 0.744,0.777 1.113,1.162 1.855,1.934 0.176,0.166 0.265,0.248 0.438,0.416 0.874,-0.295 1.31,-0.436 2.183,-0.73 0.227,-1.139 0.338,-1.711 0.564,-2.85 -0.225,-1.012 -0.338,-1.52 -0.561,-2.531 -0.044,-0.291 -0.064,-0.438 -0.109,-0.727 -0.67,-0.471 -1.006,-0.709 -1.676,-1.184 -0.912,-0.105 -1.368,-0.162 -2.279,-0.264 -0.807,-0.762 -1.211,-1.139 -2.018,-1.908 -0.34,-2.025 -0.51,-3.039 -0.849,-5.066 -0.214,-0.279 -0.319,-0.418 -0.534,-0.699 -0.16,-1.297 -0.239,-1.945 -0.398,-3.242 0.411,-0.891 0.618,-1.336 1.029,-2.217 z"
   id="path3163"
   style="fill:#fafafa" />
				</g>
				<g
   id="g3165">
					<path
   d="m 127.281,59.608 c -0.264,0.775 -0.394,1.166 -0.657,1.939 -0.725,0.658 -1.086,0.988 -1.812,1.648 -0.586,0.232 -0.878,0.354 -1.464,0.588 -0.808,0.014 -1.215,0.02 -2.022,0.033 -0.849,-0.342 -1.271,-0.514 -2.117,-0.859 -0.613,-0.668 -0.922,-0.998 -1.537,-1.672 -0.316,-0.99 -0.477,-1.488 -0.795,-2.479 0.147,-0.375 0.223,-0.563 0.369,-0.93 -0.066,-1.111 -0.1,-1.666 -0.166,-2.773 0.17,-0.66 0.258,-0.996 0.424,-1.656 -0.051,-0.354 -0.076,-0.531 -0.128,-0.885 -0.517,-1.359 -0.773,-2.039 -1.287,-3.4 -0.243,-1.801 -0.364,-2.703 -0.607,-4.498 0.204,-0.57 0.304,-0.854 0.509,-1.418 -0.084,-0.668 -0.125,-1 -0.21,-1.668 1.004,-0.992 1.508,-1.484 2.512,-2.466 0.421,-0.143 0.632,-0.21 1.054,-0.347 0.886,0.011 1.328,0.014 2.215,0.024 0.857,0.367 1.285,0.549 2.145,0.914 0.613,0.679 0.924,1.017 1.537,1.691 0.365,2.77 0.549,4.158 0.916,6.928 0.092,0.729 0.137,1.09 0.229,1.813 0.143,1.092 0.215,1.633 0.358,2.723 0.213,2.703 0.319,4.053 0.534,6.75 z m -5.905,-17.6 c -0.886,-0.018 -1.332,-0.027 -2.218,-0.047 -0.234,0.414 -0.35,0.619 -0.583,1.031 -0.042,1.086 -0.067,1.629 -0.11,2.717 0.244,0.42 0.369,0.631 0.612,1.051 0.118,2.238 0.177,3.359 0.297,5.602 0.151,1.166 0.229,1.748 0.378,2.916 0.048,1.563 0.068,2.338 0.117,3.906 0.309,0.408 0.463,0.613 0.773,1.021 0.92,0.174 1.384,0.26 2.303,0.434 0.324,-0.332 0.484,-0.5 0.807,-0.828 0.145,-0.75 0.217,-1.127 0.36,-1.881 -0.389,-3.609 -0.582,-5.416 -0.97,-9.025 -0.215,-2.373 -0.324,-3.557 -0.541,-5.928 -0.487,-0.385 -0.734,-0.58 -1.225,-0.969 z"
   id="path3167"
   style="fill:#fafafa" />
				</g>
				<g
   id="g3169">
					<path
   d="m 144.076,52.834 c 0.34,2.572 0.51,3.855 0.854,6.424 -0.206,0.555 -0.307,0.832 -0.51,1.385 -0.244,0.211 -0.365,0.314 -0.606,0.529 -0.432,0.053 -0.647,0.078 -1.079,0.137 -0.472,-0.313 -0.711,-0.469 -1.186,-0.787 -0.539,-1.281 -0.811,-1.922 -1.354,-3.207 -0.213,-0.248 -0.318,-0.373 -0.531,-0.617 -0.164,-0.525 -0.244,-0.783 -0.408,-1.303 -0.187,-0.252 -0.281,-0.375 -0.469,-0.629 -0.307,-0.842 -0.458,-1.266 -0.764,-2.107 -0.49,-0.945 -0.736,-1.42 -1.225,-2.369 -0.176,-0.16 -0.268,-0.242 -0.443,-0.4 -0.162,0.201 -0.244,0.299 -0.407,0.5 0.081,2.063 0.124,3.096 0.206,5.154 0.277,2.029 0.416,3.041 0.691,5.068 -0.21,0.494 -0.315,0.742 -0.526,1.232 -0.238,0.129 -0.359,0.197 -0.6,0.334 -0.273,0.021 -0.412,0.039 -0.688,0.064 -0.591,-0.549 -0.886,-0.82 -1.478,-1.369 -0.066,-1.926 -0.097,-2.889 -0.161,-4.813 -0.45,-4.1 -0.675,-6.148 -1.122,-10.246 -0.035,-0.656 -0.053,-0.986 -0.086,-1.646 -0.13,-2.398 -0.193,-3.597 -0.326,-5.994 0.174,-0.107 0.262,-0.158 0.435,-0.266 0.534,0.044 0.802,0.07 1.333,0.116 0.735,0.902 1.099,1.355 1.832,2.254 0.167,0.547 0.252,0.827 0.419,1.374 0.32,0.406 0.481,0.605 0.805,1.01 0.842,1.639 1.264,2.455 2.106,4.086 0.285,0.777 0.428,1.168 0.713,1.947 0.211,0.221 0.316,0.334 0.527,0.555 0.066,-0.004 0.098,-0.01 0.163,-0.01 -0.198,-3.563 -0.297,-5.338 -0.495,-8.893 -0.127,-0.881 -0.184,-1.323 -0.311,-2.204 0.237,-0.362 0.355,-0.545 0.592,-0.906 0.602,-0.066 0.9,-0.098 1.501,-0.167 0.255,0.514 0.382,0.777 0.637,1.293 0.238,1.055 0.358,1.58 0.596,2.637 0.288,1.029 0.429,1.537 0.717,2.564 0.26,3.704 0.388,5.561 0.648,9.27 z"
   id="path3171"
   style="fill:#fafafa" />
				</g>
			</g>
		</g>
	</g>
	<path
   d="m 112.464,22.711 v 8.191 c 0,0.307 -0.06,0.43 -0.305,0.43 h -6.245 c -0.209,0 -0.336,-0.154 -0.336,-0.369 v -8.191 c 0,-0.336 -0.119,-0.457 -0.393,-0.457 h -8.102 c -0.243,0 -0.365,-0.152 -0.365,-0.426 v -6.211 c 0,-0.244 0.092,-0.363 0.338,-0.363 h 8.16 c 0.242,0 0.361,-0.121 0.361,-0.396 V 7.883 c 0,-0.184 0.127,-0.305 0.306,-0.305 h 6.216 c 0.244,0 0.364,0.092 0.364,0.305 v 7.035 c 0,0.33 0.063,0.396 0.335,0.396 h 8.165 c 0.241,0 0.333,0.119 0.333,0.395 v 6.242 c 0,0.211 -0.12,0.363 -0.333,0.363 h -8.073 c -0.333,0 -0.426,0.065 -0.426,0.397 z"
   id="path3173"
   style="fill:#ffffff" />
</g>
</svg>