<?xml version="1.0" encoding="UTF-8" standalone="no"?>
<!-- Created with Inkscape (http://www.inkscape.org/) -->

<svg
   xmlns:dc="http://purl.org/dc/elements/1.1/"
   xmlns:cc="http://creativecommons.org/ns#"
   xmlns:rdf="http://www.w3.org/1999/02/22-rdf-syntax-ns#"
   xmlns:svg="http://www.w3.org/2000/svg"
   xmlns="http://www.w3.org/2000/svg"
   version="1.1"
   width="50"
   height="26"
   viewBox="0 0 50.000001 26.000001"
   id="Calque_1"
   xml:space="preserve"><metadata
   id="metadata3071"><rdf:RDF><cc:Work
       rdf:about=""><dc:format>image/svg+xml</dc:format><dc:type
         rdf:resource="http://purl.org/dc/dcmitype/StillImage" /><dc:title></dc:title></cc:Work></rdf:RDF></metadata><defs
   id="defs3069" />
<style
   type="text/css"
   id="style3019" />
<g
   transform="matrix(0.3245215,0,0,0.3245215,-0.44427056,-0.39852508)"
   id="g3021">
	<g
   id="g3023">
		<g
   id="g3025">
			<rect
   width="129.245"
   height="40.82"
   x="1.369"
   y="1.642"
   id="rect3027"
   style="fill:#4d454a" />
		</g>
		<path
   d="m 25.776,31.47 c 0,0.333 -0.274,0.606 -0.854,0.818 -1.616,0.547 -3.11,0.82 -4.513,0.82 -2.105,0 -4.117,-0.516 -6.071,-1.578 -3.904,-2.154 -6.07,-5.765 -6.07,-10.226 0,-2.458 0.671,-4.672 1.984,-6.676 1.341,-2.001 3.14,-3.487 5.398,-4.43 1.462,-0.637 3.019,-0.939 4.697,-0.939 1.13,0 2.35,0.182 3.66,0.516 0.397,0.091 0.702,0.213 0.976,0.334 l 0.334,0.152 c 0.275,0.121 0.428,0.333 0.428,0.605 v 5.856 c 0,0.152 -0.06,0.214 -0.153,0.214 -0.029,0 -0.122,-0.062 -0.275,-0.153 -0.456,-0.454 -1.126,-0.819 -2.012,-1.123 -0.945,-0.333 -1.8,-0.485 -2.531,-0.485 -2.654,0 -4.88,1.397 -5.888,3.732 -0.335,0.758 -0.486,1.578 -0.486,2.458 0,1.729 0.639,3.126 1.922,4.218 1.187,1.002 2.653,1.518 4.392,1.518 1.983,0 3.506,-0.545 4.634,-1.669 0.092,-0.122 0.184,-0.181 0.244,-0.181 0.123,0 0.184,0.181 0.184,0.574 v 5.645 z"
   id="path3029"
   style="fill:#ffffff" />
		<path
   d="M 30.131,32.5 V 9.743 h 5.947 V 32.5 h -5.947 z"
   id="path3031"
   style="fill:#ffffff" />
		<path
   d="M 57.698,32.5 46.777,18.573 V 32.5 H 40.83 V 9.743 h 5.947 L 57.698,23.671 V 9.743 h 5.947 V 32.5 h -5.947 z"
   id="path3033"
   style="fill:#ffffff" />
		<path
   d="M 67.816,32.5 V 9.743 h 1.982 l 0.337,-0.941 h 9.028 l -0.337,0.941 h 1.983 v 5.007 h -7.045 v 3.792 h 6.679 v 5.006 h -6.679 v 3.944 h 7.045 V 32.5 H 67.816 z"
   id="path3035"
   style="fill:#ffffff" />
		<g
   id="g3037">
			<g
   id="g3039">
				<path
   d="M 155.442,68.096 C 114.617,72.514 73.791,76.924 32.963,81.346 31.7,67.133 30.441,52.918 29.181,38.705 c 40.703,-2.31 81.406,-4.624 122.106,-6.935 1.386,12.109 2.767,24.217 4.155,36.326 z"
   id="path3041"
   style="fill:#ec008c" />
				<g
   id="g3043">
					<path
   d="m 61.689,56.907 c 0.845,-2.023 2.333,-3.727 4.453,-3.889 1.922,-0.149 4.267,3.033 4.267,3.033 0.141,0.014 2.726,-3.574 4.909,-3.746 1.64,-0.124 3.768,0.486 3.97,2.561 0.403,4.115 0.604,6.175 1.007,10.291 0.835,-0.076 1.253,-0.117 2.088,-0.195 0.04,0.391 0.06,0.587 0.098,0.981 -3.226,0.307 -4.84,0.461 -8.063,0.769 -0.04,-0.396 -0.059,-0.595 -0.097,-0.991 0.667,-0.063 1.003,-0.096 1.669,-0.159 -0.38,-3.927 -0.571,-5.889 -0.951,-9.816 -0.092,-0.955 -0.287,-1.936 -1.44,-1.844 -1.864,0.145 -3.013,2.958 -2.837,4.805 0.28,2.914 0.419,4.371 0.698,7.283 0.668,-0.062 1.004,-0.094 1.672,-0.158 0.037,0.4 0.056,0.596 0.097,0.995 -3.061,0.291 -4.59,0.437 -7.647,0.731 -0.037,-0.403 -0.058,-0.605 -0.095,-1.004 0.668,-0.064 1.001,-0.094 1.67,-0.158 -0.339,-3.543 -0.506,-5.314 -0.844,-8.855 -0.226,-2.359 -0.514,-3.02 -1.701,-2.928 -1.027,0.083 -2.968,1.793 -2.667,4.99 0.273,2.887 0.41,4.332 0.684,7.219 0.668,-0.062 1,-0.094 1.67,-0.156 0.037,0.4 0.056,0.602 0.095,1.003 -3.096,0.296 -4.646,0.444 -7.743,0.741 -0.039,-0.407 -0.057,-0.609 -0.094,-1.016 0.703,-0.066 1.06,-0.1 1.765,-0.164 -0.459,-4.914 -0.689,-7.369 -1.148,-12.282 -0.823,0.064 -1.233,0.095 -2.055,0.163 -0.038,-0.406 -0.057,-0.61 -0.093,-1.017 0.82,-0.062 1.233,-0.095 2.053,-0.159 1.444,-0.111 2.842,-0.365 4.287,-0.479 0.127,1.38 0.194,2.071 0.323,3.451 z"
   id="path3045"
   style="fill:#ffffff" />
					<path
   d="m 98.521,46.889 c 0.756,-0.057 1.137,-0.085 1.892,-0.139 0.833,-0.061 1.677,-0.361 2.5,-0.523 0.179,1.754 0.272,2.631 0.451,4.389 0.977,-0.076 1.464,-0.113 2.438,-0.189 0.043,0.38 0.061,0.568 0.1,0.948 -0.977,0.077 -1.463,0.116 -2.441,0.194 0.38,3.688 0.571,5.533 0.949,9.221 0.073,0.682 0.021,1.748 0.952,1.663 1.254,-0.118 1.368,-1.19 1.448,-2.295 0.383,0.048 0.574,0.073 0.953,0.122 -0.258,2.793 -1.895,3.943 -4.434,4.188 -2.988,0.289 -3.127,-1.083 -3.303,-2.795 -0.398,-3.9 -0.596,-5.854 -0.993,-9.754 -0.784,0.063 -1.175,0.094 -1.959,0.155 -0.04,-0.383 -0.06,-0.575 -0.098,-0.96 0.782,-0.061 1.175,-0.091 1.959,-0.152 -0.168,-1.629 -0.25,-2.444 -0.414,-4.073 z"
   id="path3047"
   style="fill:#ffffff" />
					<path
   d="m 138.379,50.502 c 1.113,-2.512 2.739,-3.287 4.921,-3.457 1.959,-0.15 3.693,0.293 3.975,2.798 0.403,3.563 0.605,5.346 1.007,8.909 0.796,-0.074 1.193,-0.109 1.991,-0.186 0.041,0.357 0.061,0.537 0.101,0.895 -3.212,0.307 -4.819,0.46 -8.03,0.77 -0.04,-0.364 -0.062,-0.547 -0.102,-0.908 0.694,-0.064 1.041,-0.098 1.736,-0.164 -0.371,-3.29 -0.553,-4.935 -0.92,-8.223 -0.231,-2.066 -0.764,-2.479 -1.66,-2.405 -2.057,0.161 -2.916,2.913 -2.719,4.698 0.282,2.545 0.421,3.818 0.705,6.363 0.682,-0.064 1.021,-0.097 1.702,-0.161 0.041,0.364 0.062,0.543 0.101,0.907 -3.227,0.309 -4.838,0.461 -8.064,0.77 -0.04,-0.367 -0.059,-0.551 -0.1,-0.915 0.823,-0.078 1.233,-0.118 2.056,-0.196 -0.487,-4.44 -0.73,-6.662 -1.217,-11.102 -0.823,0.064 -1.233,0.098 -2.057,0.162 -0.038,-0.368 -0.06,-0.551 -0.1,-0.918 0.822,-0.063 1.232,-0.096 2.054,-0.16 1.445,-0.113 2.844,-0.354 4.286,-0.461 0.132,1.191 0.2,1.791 0.334,2.984 z"
   id="path3049"
   style="fill:#ffffff" />
					<path
   d="m 96.572,54.704 c 0.449,4.43 -2.852,7.367 -6.995,7.749 -4.594,0.421 -8.036,-2.623 -8.415,-6.478 -0.451,-4.589 3.121,-7.71 6.971,-7.992 3.851,-0.279 7.982,2.22 8.439,6.721 z m -5.576,-3.309 c -0.209,-2.107 -0.621,-2.67 -2.771,-2.512 -1.958,0.146 -2.447,0.779 -2.235,2.902 0.293,2.966 0.442,4.449 0.736,7.418 0.2,2.016 1.221,2.484 2.763,2.346 1.54,-0.141 2.447,-0.779 2.247,-2.787 -0.295,-2.945 -0.444,-4.417 -0.74,-7.367 z"
   id="path3051"
   style="fill:#ffffff" />
					<path
   d="m 131.367,51.829 c 0.462,4.228 -2.836,7.048 -6.979,7.426 -4.591,0.422 -8.043,-2.471 -8.433,-6.152 -0.466,-4.388 3.103,-7.377 6.95,-7.658 3.853,-0.282 7.991,2.087 8.462,6.384 z m -5.585,-3.137 c -0.22,-2.014 -0.633,-2.551 -2.783,-2.393 -1.958,0.148 -2.442,0.754 -2.226,2.781 0.303,2.833 0.455,4.25 0.756,7.082 0.207,1.927 1.227,2.372 2.768,2.232 1.543,-0.141 2.447,-0.757 2.244,-2.669 -0.305,-2.814 -0.458,-4.221 -0.759,-7.033 z"
   id="path3053"
   style="fill:#ffffff" />
				</g>
				<path
   d="m 109.232,50.838 c -0.888,0.07 -1.33,0.105 -2.217,0.176 -0.038,-0.379 -0.059,-0.57 -0.098,-0.949 0.887,-0.07 1.33,-0.104 2.216,-0.172 1.476,-0.115 2.937,-0.365 4.411,-0.479 0.527,4.995 0.791,7.492 1.314,12.486 0.785,-0.073 1.176,-0.109 1.963,-0.184 0.039,0.376 0.06,0.564 0.1,0.938 -3.395,0.323 -5.092,0.486 -8.484,0.809 -0.039,-0.378 -0.058,-0.568 -0.098,-0.947 0.834,-0.079 1.253,-0.119 2.088,-0.195 -0.478,-4.594 -0.718,-6.891 -1.195,-11.483 z"
   id="path3055"
   style="fill:#ffffff" />
				<path
   d="m 42.661,59.706 c 0.228,2.5 0.34,3.75 0.567,6.248 0.229,2.52 1.536,3.271 3.732,3.063 3.342,-0.318 5.792,-2.434 6.417,-6.25 0.404,0.116 0.604,0.175 1.007,0.293 -0.688,4.537 -3.692,6.843 -7.604,7.238 -5.676,0.577 -10.392,-3.444 -10.881,-9.094 -0.479,-5.518 3.357,-10.574 8.958,-11.012 4.153,-0.326 8.499,2.703 8.958,7.669 0.109,1.146 -1.225,1.017 -1.901,1.073 -3.7,0.307 -5.551,0.463 -9.253,0.772 z m 5.421,-1.713 c -0.172,-1.886 -0.258,-2.828 -0.432,-4.715 -0.114,-1.25 -1.115,-1.951 -3.141,-1.803 -1.818,0.133 -2.493,1.11 -2.373,2.422 0.164,1.818 0.246,2.729 0.413,4.549 2.213,-0.18 3.319,-0.272 5.533,-0.453 z"
   id="path3057"
   style="fill:#ffffff" />
				<path
   d="m 113.035,44.769 c 0.131,1.271 -0.805,2.487 -2.021,2.579 -1.217,0.089 -2.426,-0.975 -2.559,-2.256 -0.133,-1.281 0.87,-2.468 2.055,-2.548 1.183,-0.08 2.387,0.95 2.525,2.225 z"
   id="path3059"
   style="fill:#ffffff" />
				<g
   id="g3061">
					<path
   d="m 49.2,43.407 c -0.164,-1.771 -1.489,-2.801 -2.964,-2.711 -1.816,0.109 -2.578,1.512 -2.394,3.541 0.035,0.387 0.287,0.81 0.533,1.18 0.248,0.37 0.491,0.744 0.515,0.986 0.079,0.865 -1.67,1.279 -2.133,1.313 0.126,0.486 0.19,0.73 0.317,1.217 2.642,-0.362 6.451,-2.005 6.126,-5.526 z"
   id="path3063"
   style="fill:#ffffff" />
				</g>
			</g>
		</g>
	</g>
	<path
   d="m 113.833,24.352 v 8.191 c 0,0.307 -0.06,0.43 -0.305,0.43 h -6.245 c -0.209,0 -0.336,-0.154 -0.336,-0.369 v -8.191 c 0,-0.335 -0.119,-0.456 -0.393,-0.456 h -8.102 c -0.243,0 -0.365,-0.152 -0.365,-0.427 v -6.211 c 0,-0.244 0.092,-0.363 0.338,-0.363 h 8.16 c 0.242,0 0.361,-0.121 0.361,-0.397 V 9.525 c 0,-0.184 0.127,-0.306 0.306,-0.306 h 6.216 c 0.244,0 0.364,0.092 0.364,0.306 v 7.034 c 0,0.332 0.063,0.397 0.335,0.397 h 8.165 c 0.241,0 0.333,0.12 0.333,0.394 v 6.242 c 0,0.212 -0.12,0.365 -0.333,0.365 h -8.073 c -0.334,0 -0.426,0.063 -0.426,0.395 z"
   id="path3065"
   style="fill:#ffffff" />
</g>
</svg>