<?xml version="1.0" encoding="UTF-8" standalone="no"?>
<!-- Created with Inkscape (http://www.inkscape.org/) -->

<svg
   xmlns:dc="http://purl.org/dc/elements/1.1/"
   xmlns:cc="http://creativecommons.org/ns#"
   xmlns:rdf="http://www.w3.org/1999/02/22-rdf-syntax-ns#"
   xmlns:svg="http://www.w3.org/2000/svg"
   xmlns="http://www.w3.org/2000/svg"
   version="1.1"
   width="50"
   height="26"
   viewBox="0 0 50.000001 26"
   id="Calque_1"
   xml:space="preserve"><metadata
   id="metadata45"><rdf:RDF><cc:Work
       rdf:about=""><dc:format>image/svg+xml</dc:format><dc:type
         rdf:resource="http://purl.org/dc/dcmitype/StillImage" /><dc:title></dc:title></cc:Work></rdf:RDF></metadata><defs
   id="defs43" />
<style
   type="text/css"
   id="style3" />
<g
   transform="matrix(0.32452361,0,0,0.32452361,-0.96935201,-0.66999985)"
   id="g5">
	<g
   id="g7">
		<rect
   width="129.245"
   height="40.82"
   x="2.987"
   y="2.483"
   id="rect9"
   style="fill:#4d454a" />
	</g>
	<path
   d="m 27.395,32.311 c 0,0.332 -0.274,0.605 -0.854,0.818 -1.616,0.547 -3.11,0.82 -4.513,0.82 -2.105,0 -4.117,-0.516 -6.071,-1.578 -3.904,-2.154 -6.07,-5.766 -6.07,-10.227 0,-2.457 0.671,-4.672 1.984,-6.676 1.341,-2.002 3.14,-3.488 5.398,-4.43 1.462,-0.639 3.019,-0.939 4.697,-0.939 1.13,0 2.35,0.182 3.66,0.516 0.397,0.09 0.702,0.213 0.976,0.334 l 0.334,0.152 c 0.275,0.119 0.428,0.332 0.428,0.605 v 5.855 c 0,0.152 -0.06,0.215 -0.153,0.215 -0.029,0 -0.122,-0.063 -0.275,-0.154 -0.456,-0.453 -1.126,-0.818 -2.012,-1.123 -0.945,-0.332 -1.8,-0.484 -2.531,-0.484 -2.654,0 -4.88,1.396 -5.888,3.732 -0.335,0.758 -0.486,1.578 -0.486,2.457 0,1.73 0.639,3.127 1.922,4.219 1.187,1.002 2.653,1.518 4.392,1.518 1.983,0 3.506,-0.545 4.634,-1.67 0.092,-0.121 0.184,-0.18 0.244,-0.18 0.123,0 0.184,0.18 0.184,0.574 v 5.646 z"
   id="path11"
   style="fill:#ffffff" />
	<path
   d="M 31.749,33.34 V 10.584 h 5.947 V 33.34 h -5.947 z"
   id="path13"
   style="fill:#ffffff" />
	<path
   d="M 59.316,33.34 48.395,19.415 V 33.34 H 42.448 V 10.584 h 5.947 L 59.316,24.512 V 10.584 h 5.947 V 33.34 h -5.947 z"
   id="path15"
   style="fill:#ffffff" />
	<path
   d="M 69.434,33.34 V 10.584 h 1.982 l 0.337,-0.941 h 9.028 l -0.337,0.941 h 1.983 v 5.008 h -7.045 v 3.791 h 6.679 v 5.008 h -6.679 v 3.943 h 7.045 V 33.34 H 69.434 z"
   id="path17"
   style="fill:#ffffff" />
	<g
   id="g19">
		<path
   d="M 157.059,68.931 C 116.234,73.354 75.407,77.765 34.581,82.182 33.319,67.97 32.056,53.757 30.798,39.544 c 40.703,-2.312 81.406,-4.626 122.108,-6.938 1.381,12.109 2.764,24.218 4.153,36.325 z"
   id="path21"
   style="fill:#002f67" />
		<g
   id="g23">
			<path
   d="m 78.242,62.811 c -0.695,2.151 -2.587,5.837 -4.907,6.062 -1.142,0.111 -1.824,-0.321 -1.975,-1.745 -0.079,-0.745 0.122,-1.639 0.339,-2.97 1.051,-6.728 1.576,-10.072 2.623,-16.729 0.133,-0.867 0.385,-2.117 0.335,-2.629 -0.06,-0.612 -0.728,-0.774 -1.57,-0.821 0.009,-0.289 0.014,-0.434 0.022,-0.723 2.017,-0.213 3.025,-0.32 5.042,-0.532 -1.385,8.476 -2.078,12.742 -3.468,21.335 -0.102,0.56 -0.219,1.295 -0.179,1.704 0.053,0.545 0.186,0.636 0.465,0.609 0.897,-0.084 2.134,-3.082 2.456,-3.934 0.326,0.149 0.491,0.224 0.817,0.373 z"
   id="path25"
   style="fill:#ffffff" />
			<path
   d="m 94.241,51.117 c -0.871,4.833 -1.307,7.261 -2.18,12.135 -0.084,0.413 -0.086,0.683 -0.076,0.782 0.047,0.467 0.289,0.715 0.444,0.7 0.804,-0.075 1.862,-2.895 2.255,-3.634 0.266,0.163 0.398,0.245 0.666,0.408 -0.789,1.781 -2.386,5.463 -4.519,5.67 -1.175,0.113 -1.61,-0.825 -1.72,-1.931 -0.1,-1.006 0.107,-2.039 0.17,-2.991 -0.025,0.003 -0.036,0.005 -0.061,0.008 -0.973,2.453 -2.254,5.287 -5.131,5.566 -2.041,0.197 -3.315,-1.355 -3.523,-3.488 -0.44,-4.503 3.234,-12.426 8.33,-12.814 1.482,-0.113 2.465,0.84 3.137,0.865 0.492,0.019 0.912,-0.84 1.156,-1.193 0.421,-0.033 0.632,-0.05 1.052,-0.083 z M 83.889,64.515 c 0.096,0.978 0.635,1.708 1.564,1.62 2.535,-0.24 5.307,-9.03 5.016,-11.935 -0.09,-0.901 -0.635,-2.005 -1.592,-1.932 -3.18,0.247 -5.16,10.492 -4.988,12.247 z"
   id="path27"
   style="fill:#ffffff" />
			<path
   d="m 104.477,52.219 c -0.189,-0.828 -0.535,-1.065 -1.231,-1.063 -0.972,0.004 -1.765,0.701 -1.654,1.788 0.242,2.368 5.304,3.992 5.705,7.885 0.337,3.27 -1.956,4.945 -4.771,5.218 -1.826,0.177 -4.947,-0.125 -5.202,-2.644 -0.081,-0.796 0.42,-1.707 1.224,-1.78 2.721,-0.246 2.078,3.875 4.584,3.635 1.02,-0.097 1.745,-1.559 1.645,-2.545 -0.341,-3.313 -5.346,-4.371 -5.712,-7.971 -0.269,-2.643 1.79,-4.13 4.075,-4.306 1.359,-0.104 4.482,0.283 4.682,2.21 0.092,0.882 -0.365,1.576 -1.23,1.646 -1.33,0.111 -1.847,-0.9 -2.115,-2.073 z"
   id="path29"
   style="fill:#ffffff" />
			<path
   d="m 116.963,51.233 c -0.191,-0.813 -0.536,-1.046 -1.232,-1.043 -0.973,0.006 -1.766,0.691 -1.652,1.761 0.244,2.329 5.307,3.919 5.713,7.746 0.341,3.216 -1.953,4.866 -4.768,5.14 -1.824,0.176 -4.947,-0.113 -5.204,-2.59 -0.081,-0.783 0.419,-1.683 1.221,-1.756 2.722,-0.246 2.085,3.809 4.589,3.569 1.021,-0.098 1.743,-1.536 1.642,-2.505 -0.344,-3.259 -5.349,-4.293 -5.718,-7.833 -0.271,-2.599 1.785,-4.063 4.07,-4.238 1.36,-0.104 4.482,0.27 4.684,2.163 0.093,0.867 -0.363,1.554 -1.227,1.624 -1.331,0.108 -1.849,-0.887 -2.118,-2.038 z"
   id="path31"
   style="fill:#ffffff" />
			<path
   d="m 130.695,58.458 c -0.845,1.995 -2.354,5.092 -4.735,5.322 -0.898,0.087 -1.723,-0.319 -1.836,-1.375 -0.041,-0.384 -0.071,-0.962 0.282,-2.317 0.704,-2.75 1.056,-4.119 1.761,-6.851 0.244,-0.92 0.4,-1.507 0.369,-1.794 -0.033,-0.319 -0.141,-0.44 -0.419,-0.418 -0.926,0.073 -1.655,2.285 -2.61,3.85 -0.287,-0.118 -0.432,-0.175 -0.718,-0.293 1.22,-2.88 2.892,-5.867 4.622,-6 1.204,-0.092 1.943,0.683 2.055,1.696 0.058,0.539 -0.076,1.604 -0.375,2.877 -0.676,2.629 -1.014,3.948 -1.689,6.594 -0.177,0.69 -0.289,1.122 -0.241,1.568 0.021,0.189 0.226,0.331 0.41,0.313 0.866,-0.081 2.04,-2.787 2.401,-3.492 0.288,0.128 0.435,0.192 0.723,0.32 z m -2.052,-13.167 c -0.957,0.069 -1.941,-0.692 -2.058,-1.774 -0.116,-1.08 0.688,-1.97 1.646,-2.034 0.957,-0.063 1.943,0.702 2.061,1.777 0.117,1.075 -0.692,1.961 -1.649,2.031 z"
   id="path33"
   style="fill:#ffffff" />
			<path
   d="m 144.016,56.53 c -1.26,2.688 -2.639,5.76 -5.979,6.083 -2.506,0.242 -4.076,-0.979 -4.361,-3.598 -0.461,-4.229 2.277,-11.086 7.097,-11.454 1.39,-0.106 3.714,0.343 3.88,1.831 0.115,1.024 -0.22,1.928 -1.395,2.024 -1.143,0.094 -1.75,-0.609 -1.865,-1.64 -0.145,-1.309 -0.327,-1.547 -1.1,-1.487 -2.719,0.21 -3.393,8.274 -3.16,10.379 0.221,2.009 0.746,2.5 2.014,2.38 1.947,-0.185 3.291,-3.275 4.059,-4.79 0.324,0.109 0.486,0.162 0.81,0.272 z"
   id="path35"
   style="fill:#ffffff" />
		</g>
		<path
   d="m 66.417,61.575 c -0.723,3.704 -1.083,5.563 -1.807,9.292 -0.333,-0.079 -0.5,-0.115 -0.833,-0.194 0.19,-0.611 -0.411,-0.992 -1.149,-0.922 -0.771,0.075 -2.787,1.584 -5.558,1.856 -5.612,0.551 -10.367,-3.386 -10.872,-9.768 -0.699,-8.828 5.297,-19.754 14.738,-20.564 2.285,-0.196 4.623,0.856 6.684,2.134 0.479,-0.281 0.72,-0.42 1.199,-0.701 0.23,0.189 0.344,0.284 0.574,0.473 -0.568,3.478 -0.854,5.218 -1.422,8.714 -0.458,-0.06 -0.685,-0.088 -1.143,-0.147 -0.02,-0.588 -0.05,-1.256 -0.114,-1.918 -0.338,-3.551 -1.52,-8.084 -5.256,-7.521 -8.116,1.223 -10.544,13.678 -9.948,21.208 0.274,3.465 2.268,7.334 5.775,6.993 4.105,-0.397 6.585,-5.635 8.036,-9.351 0.439,0.166 0.657,0.25 1.096,0.416 z"
   id="path37"
   style="fill:#ffffff" />
	</g>
	<path
   d="m 115.451,25.194 v 8.191 c 0,0.307 -0.06,0.43 -0.305,0.43 h -6.245 c -0.209,0 -0.336,-0.154 -0.336,-0.369 v -8.191 c 0,-0.336 -0.119,-0.457 -0.393,-0.457 h -8.102 c -0.243,0 -0.365,-0.152 -0.365,-0.426 v -6.211 c 0,-0.244 0.092,-0.363 0.338,-0.363 h 8.16 c 0.242,0 0.361,-0.121 0.361,-0.396 v -7.035 c 0,-0.184 0.127,-0.305 0.306,-0.305 h 6.216 c 0.244,0 0.364,0.092 0.364,0.305 v 7.035 c 0,0.33 0.063,0.396 0.335,0.396 h 8.165 c 0.241,0 0.333,0.119 0.333,0.395 v 6.242 c 0,0.211 -0.12,0.363 -0.333,0.363 h -8.073 c -0.334,-10e-4 -0.426,0.064 -0.426,0.396 z"
   id="path39"
   style="fill:#ffffff" />
</g>
</svg>