<?xml version="1.0" encoding="iso-8859-1"?>
<!-- Generator: Adobe Illustrator 15.0.0, SVG Export Plug-In . SVG Version: 6.00 Build 0)  -->
<!DOCTYPE svg PUBLIC "-//W3C//DTD SVG 1.1//EN" "http://www.w3.org/Graphics/SVG/1.1/DTD/svg11.dtd" [
	<!ENTITY ns_flows "http://ns.adobe.com/Flows/1.0/">
	<!ENTITY ns_extend "http://ns.adobe.com/Extensibility/1.0/">
	<!ENTITY ns_ai "http://ns.adobe.com/AdobeIllustrator/10.0/">
	<!ENTITY ns_graphs "http://ns.adobe.com/Graphs/1.0/">
]>
<svg version="1.1" id="Calque_1" xmlns:x="&ns_extend;" xmlns:i="&ns_ai;" xmlns:graph="&ns_graphs;"
	 xmlns="http://www.w3.org/2000/svg" xmlns:xlink="http://www.w3.org/1999/xlink" xmlns:a="http://ns.adobe.com/AdobeSVGViewerExtensions/3.0/"
	 x="0px" y="0px" width="154.094px" height="79.701px" viewBox="0 0 154.094 79.701"
	 style="enable-background:new 0 0 154.094 79.701;" xml:space="preserve">
<style type="text/css">
<![CDATA[
	.st0{fill:#4D454A;}
	.st1{fill:#FFFFFF;}
	.st2{fill:#0095DA;}
]]>
</style>
<g>
	<g>
		<rect class="st0" width="129.245" height="40.82"/>
	</g>
	<path class="st1" d="M24.408,29.828c0,0.332-0.274,0.605-0.854,0.818c-1.616,0.547-3.11,0.82-4.513,0.82
		c-2.105,0-4.117-0.516-6.071-1.578C9.065,27.734,6.9,24.123,6.9,19.662c0-2.457,0.671-4.672,1.984-6.676
		c1.341-2.002,3.14-3.488,5.398-4.43c1.462-0.639,3.019-0.939,4.697-0.939c1.13,0,2.35,0.182,3.66,0.516
		c0.397,0.09,0.702,0.213,0.976,0.334l0.334,0.152c0.275,0.119,0.428,0.332,0.428,0.605v5.855c0,0.152-0.06,0.215-0.153,0.215
		c-0.029,0-0.122-0.063-0.275-0.154c-0.456-0.453-1.126-0.818-2.012-1.123c-0.945-0.332-1.8-0.484-2.531-0.484
		c-2.654,0-4.88,1.396-5.888,3.732c-0.335,0.758-0.486,1.578-0.486,2.457c0,1.73,0.639,3.127,1.922,4.219
		c1.187,1.002,2.653,1.518,4.392,1.518c1.983,0,3.506-0.545,4.634-1.67c0.092-0.121,0.184-0.18,0.244-0.18
		c0.123,0,0.184,0.18,0.184,0.574V29.828z"/>
	<path class="st1" d="M28.762,30.857V8.102h5.947v22.756H28.762z"/>
	<path class="st1" d="M56.33,30.857L45.408,16.932v13.926h-5.947V8.102h5.947L56.33,22.029V8.102h5.947v22.756H56.33z"/>
	<path class="st1" d="M66.447,30.857V8.102h1.982l0.337-0.941h9.028l-0.337,0.941h1.983v5.008h-7.045V16.9h6.679v5.008h-6.679v3.943
		h7.045v5.006H66.447z"/>
	<g>
		<g>
			<path class="st2" d="M154.094,66.456c-40.831,4.413-81.664,8.835-122.498,13.245c-1.519-17.052-2.276-25.586-3.789-42.641
				c40.713-2.309,81.424-4.626,122.131-6.935C151.599,44.654,152.432,51.923,154.094,66.456z"/>
		</g>
		<g>
			<path class="st1" d="M47.707,50.029c0.083,0.888,0.157,1.7,0.227,2.462c0.069,0.761,0.137,1.475,0.199,2.164
				c0.063,0.686,0.124,1.349,0.185,2.012c0.062,0.662,0.123,1.323,0.186,2.013c0.062,0.688,0.127,1.397,0.197,2.159
				c0.07,0.765,0.144,1.577,0.227,2.463c0.936-0.088,1.781-0.168,2.567-0.244c0.787-0.074,1.516-0.145,2.229-0.209
				c0.711-0.068,1.403-0.134,2.116-0.202c0.714-0.067,1.443-0.138,2.229-0.211c0.788-0.076,1.631-0.153,2.565-0.241
				c-0.081-0.888-0.145-1.553-0.206-2.214c-0.063-0.659-0.125-1.316-0.208-2.197c0.887,0.121,1.552,0.211,2.217,0.302
				c0.665,0.092,1.329,0.184,2.214,0.301c0.093,0.962,0.138,1.443,0.229,2.405c0.091,0.955,0.095,1.743-0.004,2.394
				c-0.099,0.646-0.303,1.162-0.626,1.563c-0.324,0.404-0.771,0.694-1.355,0.911c-0.583,0.216-1.305,0.352-2.18,0.441
				c-0.892,0.091-1.696,0.172-2.442,0.246c-0.749,0.075-1.444,0.146-2.12,0.216c-0.677,0.069-1.335,0.136-2.013,0.201
				c-0.677,0.071-1.374,0.139-2.123,0.216c-0.747,0.077-1.547,0.153-2.438,0.244c-0.877,0.094-1.61,0.103-2.224,0.004
				c-0.612-0.101-1.104-0.306-1.497-0.647c-0.393-0.339-0.688-0.817-0.907-1.457c-0.219-0.641-0.365-1.445-0.456-2.434
				c-0.082-0.892-0.154-1.695-0.222-2.442c-0.069-0.745-0.132-1.443-0.193-2.118c-0.062-0.676-0.122-1.335-0.184-2.012
				c-0.061-0.675-0.124-1.368-0.192-2.115c-0.068-0.745-0.141-1.549-0.222-2.44c-0.093-0.991-0.096-1.808,0.004-2.478
				c0.1-0.666,0.302-1.183,0.626-1.586c0.326-0.4,0.772-0.684,1.354-0.881c0.584-0.196,1.304-0.304,2.181-0.362
				c0.89-0.058,1.693-0.11,2.44-0.156c0.748-0.046,1.443-0.091,2.12-0.134c0.678-0.045,1.334-0.086,2.012-0.13
				c0.676-0.04,1.373-0.083,2.119-0.134c0.751-0.047,1.551-0.1,2.44-0.154c0.879-0.059,1.609-0.039,2.224,0.075
				c0.612,0.116,1.103,0.336,1.498,0.679c0.393,0.343,0.691,0.813,0.911,1.437c0.219,0.628,0.364,1.403,0.454,2.361
				c0.074,0.775,0.11,1.159,0.184,1.931c-0.855,0.213-1.495,0.378-2.134,0.538c-0.642,0.163-1.283,0.327-2.135,0.545
				c-0.074-0.777-0.127-1.362-0.183-1.946c-0.054-0.584-0.11-1.171-0.181-1.951c-0.938,0.066-1.782,0.123-2.57,0.181
				c-0.788,0.057-1.518,0.105-2.229,0.153c-0.71,0.049-1.403,0.098-2.115,0.15c-0.713,0.048-1.441,0.099-2.23,0.151
				C49.486,49.904,48.644,49.966,47.707,50.029z"/>
		</g>
		<path class="st1" d="M71.787,47.13c0.751-0.049,1.315-0.09,1.878-0.125c0.565-0.038,1.127-0.075,1.88-0.125
			c0.086,0.89,0.166,1.702,0.24,2.464c0.074,0.765,0.143,1.474,0.21,2.159c0.065,0.68,0.129,1.341,0.193,2.001
			c0.066,0.659,0.129,1.314,0.196,1.999c0.065,0.682,0.134,1.391,0.206,2.148c0.074,0.756,0.152,1.566,0.24,2.451
			c0.959-0.092,1.822-0.173,2.629-0.246c0.807-0.076,1.555-0.146,2.285-0.215c0.729-0.07,1.439-0.132,2.168-0.204
			c0.73-0.066,1.479-0.139,2.285-0.213c0.807-0.075,1.67-0.156,2.629-0.248c0.062,0.598,0.105,1.046,0.15,1.5
			c0.045,0.448,0.09,0.896,0.15,1.505c-0.901,0.09-1.736,0.171-2.527,0.25c-0.788,0.079-1.535,0.152-2.248,0.222
			c-0.719,0.073-1.408,0.141-2.088,0.209c-0.681,0.07-1.35,0.134-2.031,0.202c-0.68,0.066-1.367,0.136-2.084,0.202
			c-0.717,0.072-1.464,0.147-2.253,0.229c-0.79,0.076-1.626,0.16-2.525,0.25c-0.093-0.951-0.177-1.827-0.257-2.655
			c-0.079-0.826-0.155-1.598-0.226-2.346c-0.07-0.745-0.143-1.457-0.208-2.162c-0.067-0.703-0.134-1.399-0.204-2.104
			c-0.066-0.702-0.135-1.419-0.207-2.159c-0.072-0.744-0.147-1.518-0.225-2.341C71.964,48.953,71.878,48.079,71.787,47.13z"/>
		<path class="st1" d="M97.403,58.175c0.85-0.081,1.616-0.152,2.33-0.222c0.716-0.066,1.378-0.126,2.024-0.189
			c0.646-0.062,1.275-0.118,1.921-0.18c0.645-0.06,1.31-0.123,2.024-0.189c0.711-0.067,1.479-0.138,2.328-0.217
			c-0.086-0.833-0.166-1.593-0.238-2.301c-0.074-0.712-0.145-1.373-0.209-2.01c-0.068-0.639-0.129-1.257-0.193-1.871
			c-0.063-0.617-0.129-1.232-0.195-1.869c-0.063-0.646-0.135-1.312-0.207-2.028c-0.075-0.714-0.154-1.482-0.243-2.325
			c0.751-0.053,1.317-0.088,1.88-0.126c0.566-0.039,1.126-0.076,1.88-0.127c0.097,0.944,0.185,1.785,0.268,2.562
			c0.081,0.779,0.157,1.502,0.229,2.203c0.073,0.694,0.146,1.373,0.216,2.069c0.072,0.7,0.15,1.412,0.23,2.183
			c0.08,0.773,0.164,1.6,0.262,2.528c0.1,0.947,0.067,1.677-0.135,2.243c-0.199,0.566-0.568,0.964-1.139,1.248
			c-0.57,0.282-1.344,0.443-2.354,0.546c-0.813,0.077-1.539,0.15-2.22,0.218c-0.683,0.07-1.313,0.134-1.93,0.195
			c-0.614,0.058-1.213,0.121-1.83,0.181c-0.614,0.06-1.245,0.121-1.925,0.188c-0.682,0.068-1.41,0.141-2.219,0.222
			c-1.013,0.1-1.803,0.088-2.413-0.083c-0.612-0.173-1.05-0.501-1.357-1.034c-0.307-0.534-0.485-1.271-0.585-2.252
			c-0.098-0.96-0.184-1.825-0.264-2.627c-0.082-0.802-0.156-1.547-0.229-2.273c-0.072-0.725-0.145-1.43-0.219-2.159
			c-0.07-0.726-0.145-1.472-0.227-2.28s-0.17-1.679-0.268-2.653c0.742-0.053,1.301-0.09,1.86-0.128
			c0.56-0.037,1.116-0.077,1.861-0.127c0.088,0.863,0.165,1.645,0.241,2.377c0.073,0.729,0.144,1.412,0.208,2.066
			c0.067,0.657,0.13,1.289,0.196,1.918c0.063,0.631,0.125,1.259,0.193,1.913c0.066,0.652,0.133,1.331,0.205,2.058
			C97.24,56.545,97.317,57.32,97.403,58.175z"/>
		<path class="st1" d="M119.549,43.909c0.916-0.062,1.754-0.118,2.545-0.171c0.787-0.055,1.523-0.104,2.236-0.151
			c0.711-0.047,1.398-0.093,2.086-0.141c0.686-0.046,1.373-0.093,2.084-0.141c0.712-0.049,1.448-0.099,2.238-0.153
			c0.787-0.053,1.629-0.106,2.543-0.17c0.82-0.053,1.506-0.015,2.061,0.141c0.557,0.156,0.986,0.425,1.294,0.824
			c0.31,0.401,0.495,0.929,0.572,1.605c0.075,0.688,0.114,1.028,0.19,1.714c0.07,0.652-0.103,1.207-0.502,1.647
			c-0.398,0.441-1.834,0.973-1.834,0.973c0.002,0.011,1.598,0.327,2.105,0.751c0.514,0.427,0.822,1.016,0.906,1.737
			c0.078,0.726,0.12,1.09,0.2,1.828c0.069,0.637-0.046,1.186-0.352,1.646c-0.302,0.457-0.796,0.834-1.473,1.117
			c-0.679,0.281-1.542,0.475-2.591,0.58c-0.848,0.081-1.625,0.16-2.355,0.235c-0.73,0.072-1.414,0.137-2.072,0.202
			c-0.661,0.068-1.296,0.128-1.933,0.193c-0.636,0.062-1.274,0.129-1.933,0.191c-0.658,0.063-1.344,0.132-2.074,0.206
			c-0.729,0.07-1.506,0.149-2.355,0.232c-0.094-0.878-0.18-1.683-0.258-2.432c-0.082-0.755-0.158-1.456-0.229-2.132
			c-0.072-0.675-0.141-1.318-0.209-1.953c-0.067-0.637-0.133-1.262-0.201-1.896c-0.067-0.635-0.137-1.279-0.208-1.948
			c-0.07-0.673-0.146-1.373-0.226-2.12C119.729,45.577,119.644,44.781,119.549,43.909z M123.5,46.096
			c0.074,0.7,0.129,1.224,0.187,1.743c0.056,0.52,0.11,1.037,0.183,1.728c0.836-0.066,1.568-0.124,2.246-0.181
			c0.678-0.053,1.305-0.105,1.93-0.156c0.626-0.046,1.253-0.096,1.93-0.149c0.681-0.057,1.41-0.114,2.244-0.18
			c1.119-0.09,1.645-0.301,1.551-1.146c-0.059-0.543-0.088-0.815-0.15-1.359c-0.09-0.849-0.617-0.984-1.771-0.901
			c-0.834,0.06-1.564,0.112-2.244,0.163c-0.678,0.048-1.305,0.095-1.93,0.138c-0.627,0.047-1.254,0.09-1.932,0.139
			C125.063,45.981,124.334,46.036,123.5,46.096z M124.129,51.98c0.08,0.744,0.143,1.305,0.202,1.867
			c0.061,0.562,0.12,1.126,0.202,1.886c0.834-0.078,1.564-0.148,2.242-0.212c0.681-0.063,1.308-0.126,1.932-0.183
			c0.627-0.06,1.251-0.116,1.931-0.183c0.68-0.062,1.409-0.13,2.243-0.206c0.633-0.062,1.078-0.163,1.353-0.383
			c0.271-0.218,0.37-0.56,0.313-1.089c-0.049-0.434-0.07-0.653-0.12-1.085c-0.056-0.523-0.229-0.833-0.544-0.998
			c-0.313-0.162-0.771-0.185-1.406-0.13c-0.832,0.071-1.563,0.132-2.242,0.194c-0.678,0.057-1.303,0.109-1.932,0.162
			c-0.625,0.055-1.251,0.109-1.929,0.167C125.694,51.847,124.964,51.909,124.129,51.98z"/>
	</g>
	<path class="st1" d="M112.464,22.711v8.191c0,0.307-0.06,0.43-0.305,0.43h-6.245c-0.209,0-0.336-0.154-0.336-0.369v-8.191
		c0-0.336-0.119-0.457-0.393-0.457h-8.102c-0.243,0-0.365-0.152-0.365-0.426v-6.211c0-0.244,0.092-0.363,0.338-0.363h8.16
		c0.242,0,0.361-0.121,0.361-0.396V7.883c0-0.184,0.127-0.305,0.306-0.305h6.216c0.244,0,0.364,0.092,0.364,0.305v7.035
		c0,0.33,0.063,0.396,0.335,0.396h8.165c0.241,0,0.333,0.119,0.333,0.395v6.242c0,0.211-0.12,0.363-0.333,0.363h-8.073
		C112.557,22.314,112.464,22.379,112.464,22.711z"/>
</g>
</svg>
