<?xml version="1.0" encoding="UTF-8" standalone="no"?>
<!-- Created with Inkscape (http://www.inkscape.org/) -->

<svg
   xmlns:dc="http://purl.org/dc/elements/1.1/"
   xmlns:cc="http://creativecommons.org/ns#"
   xmlns:rdf="http://www.w3.org/1999/02/22-rdf-syntax-ns#"
   xmlns:svg="http://www.w3.org/2000/svg"
   xmlns="http://www.w3.org/2000/svg"
   version="1.1"
   width="50"
   height="28"
   viewBox="0 0 40 22.4"
   id="svg2">
  <metadata
     id="metadata30">
    <rdf:RDF>
      <cc:Work
         rdf:about="">
        <dc:format>image/svg+xml</dc:format>
        <dc:type
           rdf:resource="http://purl.org/dc/dcmitype/StillImage" />
        <dc:title></dc:title>
      </cc:Work>
    </rdf:RDF>
  </metadata>
  <defs
     id="defs28" />
  <g
     transform="matrix(0.07827789,0,0,0.07827789,0,0.56047)"
     id="#000000ff">
    <path
       d="M 0,0 83.41,0 C 83.46,74.31 83.33,148.62 83.48,222.93 55.65,223.1 27.83,222.95 0,223 L 0,0 m 22.16,32.01 c -0.23,9.58 7.39,18.47 16.83,19.89 8.05,1.49 16.76,-2.43 20.81,-9.57 -3.21,-1.83 -6.38,-3.74 -9.49,-5.73 -1.53,1.53 -2.98,3.37 -5.18,3.91 -5.39,2.07 -11.79,-2.76 -11.61,-8.46 -0.41,-5.4 5.26,-10.01 10.46,-8.94 2.61,0.31 4.53,2.2 6.19,4.06 3.34,-1.8 6.54,-3.85 9.77,-5.85 C 55.45,14.59 47.1,10.33 38.99,11.98 29.5,13.4 21.89,22.39 22.16,32.01 M 37.1,64.69 c 0,11.05 0,22.09 0,33.14 4.43,-0.01 8.86,-0.01 13.29,0 -0.01,-11.01 -0.01,-22.03 0,-33.04 -4.43,-0.17 -8.86,-0.08 -13.29,-0.1 m -12.51,47.76 c 0.04,12.4 0.04,24.8 0,37.2 3.14,0 6.27,0 9.4,0.01 0.03,-8.07 -0.02,-16.13 0.03,-24.2 4.8,8.03 9.59,16.08 14.26,24.18 4.08,0.02 8.15,0 12.22,0.02 -0.02,-12.41 -0.02,-24.81 0,-37.21 -3.13,0.02 -6.26,0.02 -9.39,0.01 -0.01,8.1 -0.02,16.2 0,24.31 -4.63,-8.08 -9.21,-16.2 -13.77,-24.31 -4.25,0.01 -8.5,0.01 -12.75,-0.01 m 14.04,52.53 c -3.42,0.03 -6.85,0.02 -10.28,0.03 0.01,13.2 0.01,26.39 0,39.59 9.68,-0.01 19.37,-0.01 29.05,0 0.04,-3.01 0,-6.02 -0.16,-9.03 -5.87,0.02 -11.74,0 -17.61,0.01 0.01,-2.39 0.01,-4.78 0,-7.17 5.74,0.02 11.48,0 17.22,0.02 -0.01,-2.66 -0.01,-5.32 -0.01,-7.98 -5.73,0.03 -11.47,0 -17.21,0.02 0.01,-2.22 0.01,-4.43 0.01,-6.65 5.92,0.01 11.84,0 17.75,0.01 -0.01,-2.94 -0.01,-5.89 0,-8.83 -3.13,0 -6.26,0 -9.39,0 0,-1.96 0,-3.92 0,-5.88 -3.1,1.99 -6.29,3.83 -9.37,5.86 z"
       id="path5"
       style="fill:#000000" />
    <path
       d="m 151.67,86.04 c 2.58,-13.38 15.67,-23.86 29.29,-23.34 29.69,0.03 59.37,0 89.06,0.01 7.7,0.07 15.5,-0.44 23.08,1.27 8.08,1.54 15.39,5.95 21.09,11.81 8.11,8.5 15.75,17.44 23.66,26.12 11.16,-12.55 22.55,-24.89 33.73,-37.41 0.9,-0.83 1.72,-2.24 3.21,-1.8 15.41,0.01 30.82,0.01 46.23,0.01 -19.72,22.01 -39.53,43.96 -59.17,66.04 19.82,21.88 39.35,44.02 59.18,65.9 -15.89,-0.02 -31.78,0 -47.67,-0.01 -11.81,-13.15 -23.64,-26.27 -35.36,-39.49 -11.71,13.23 -23.55,26.34 -35.34,39.49 -16.31,0.01 -32.62,-0.02 -48.93,0.01 20.13,-22.08 40.14,-44.27 60.19,-66.43 -5.86,-6.19 -11.37,-12.7 -17.18,-18.93 -4.73,-5.37 -9.92,-10.93 -16.92,-13.2 -6.7,-2.09 -13.81,-1.89 -20.75,-1.97 -19.35,0.03 -38.7,-0.06 -58.05,0.04 -4.93,0.18 -10.94,0.07 -14.32,4.34 -4.25,6.17 -4.81,13.9 -6.64,20.98 26.14,-0.01 52.28,0 78.42,0 -2.3,10.45 -4.41,20.95 -6.74,31.41 -26.14,0.26 -52.28,0.04 -78.42,0.11 -3.1,14.55 -6.23,29.09 -9.29,43.64 -11.84,0 -23.68,-0.01 -35.52,0 7.78,-36.19 15.46,-72.4 23.16,-108.6 z"
       id="path7"
       style="fill:#000000" />
  </g>
  <g
     transform="matrix(0.07827789,0,0,0.07827789,0,0.56047)"
     id="#b4d700ff">
    <path
       d="M 83.41,0 511,0 l 0,91.23 c -13.06,0.28 -26.09,5.09 -35.53,14.25 -8.96,8.67 -14.67,20.94 -14.5,33.5 -0.51,15.31 7.61,30.32 20.05,39.05 8.63,6.35 19.33,9.42 29.98,9.68 L 511,279 83.41,279 C 83.7,260.32 83.56,241.62 83.48,222.93 83.33,148.62 83.46,74.31 83.41,0 m 58.75,84.93 c -8.4,39.81 -17.16,79.55 -25.31,119.41 18.31,-0.13 36.64,0.32 54.94,-0.22 3.07,-14.57 6.22,-29.11 9.31,-43.67 26.14,0.04 52.29,-0.03 78.43,0.03 3.4,-16.85 7.34,-33.6 10.6,-50.48 -25.97,-0.02 -51.94,0.04 -77.91,-0.03 0.47,-2.61 1.24,-6.61 4.8,-6.1 21.99,-0.44 44,-0.08 66.01,-0.19 6.47,0.05 13.76,-0.06 18.99,4.39 6.91,6.15 12.68,13.43 18.96,20.2 -20.51,22.74 -41.13,45.39 -61.62,68.15 -2.32,2.55 -4.94,4.87 -6.74,7.85 24.73,0.19 49.47,0.03 74.21,0.08 10.52,-11.56 20.59,-23.56 31.54,-34.72 9.89,11.89 20.66,23.04 30.81,34.72 24.38,-0.03 48.77,0.07 73.15,-0.05 -22.36,-25.38 -45.21,-50.35 -67.65,-75.66 22.59,-25.08 45.11,-50.22 67.62,-75.37 -23.79,-0.14 -47.59,0 -71.38,-0.07 -2.57,-0.53 -3.69,2.14 -5.19,3.63 -9.41,10.16 -18.51,20.61 -27.98,30.72 -4.49,-5.28 -9.3,-10.26 -13.82,-15.5 -6.15,-6.84 -13.67,-12.67 -22.44,-15.68 -9.14,-3.22 -18.94,-3.39 -28.52,-3.26 -30.64,0 -61.28,0 -91.93,0 -18.33,-0.61 -35.79,13.78 -38.88,31.82 z"
       id="path10"
       style="fill:#b4d700" />
  </g>
  <g
     transform="matrix(0.07827789,0,0,0.07827789,0,0.56047)"
     id="#ffffffff">
    <path
       d="M 22.16,32.01 C 21.89,22.39 29.5,13.4 38.99,11.98 c 8.11,-1.65 16.46,2.61 20.95,9.34 -3.23,2 -6.43,4.05 -9.77,5.85 -1.66,-1.86 -3.58,-3.75 -6.19,-4.06 -5.2,-1.07 -10.87,3.54 -10.46,8.94 -0.18,5.7 6.22,10.53 11.61,8.46 2.2,-0.54 3.65,-2.38 5.18,-3.91 3.11,1.99 6.28,3.9 9.49,5.73 C 55.75,49.47 47.04,53.39 38.99,51.9 29.55,50.48 21.93,41.59 22.16,32.01 z"
       id="path13"
       style="fill:#ffffff" />
    <path
       d="m 142.16,84.93 c 3.09,-18.04 20.55,-32.43 38.88,-31.82 30.65,0 61.29,0 91.93,0 9.58,-0.13 19.38,0.04 28.52,3.26 8.77,3.01 16.29,8.84 22.44,15.68 4.52,5.24 9.33,10.22 13.82,15.5 9.47,-10.11 18.57,-20.56 27.98,-30.72 1.5,-1.49 2.62,-4.16 5.19,-3.63 23.79,0.07 47.59,-0.07 71.38,0.07 -22.51,25.15 -45.03,50.29 -67.62,75.37 22.44,25.31 45.29,50.28 67.65,75.66 -24.38,0.12 -48.77,0.02 -73.15,0.05 -10.15,-11.68 -20.92,-22.83 -30.81,-34.72 -10.95,11.16 -21.02,23.16 -31.54,34.72 -24.74,-0.05 -49.48,0.11 -74.21,-0.08 1.8,-2.98 4.42,-5.3 6.74,-7.85 20.49,-22.76 41.11,-45.41 61.62,-68.15 -6.28,-6.77 -12.05,-14.05 -18.96,-20.2 -5.23,-4.45 -12.52,-4.34 -18.99,-4.39 -22.01,0.11 -44.02,-0.25 -66.01,0.19 -3.56,-0.51 -4.33,3.49 -4.8,6.1 25.97,0.07 51.94,0.01 77.91,0.03 -3.26,16.88 -7.2,33.63 -10.6,50.48 -26.14,-0.06 -52.29,0.01 -78.43,-0.03 -3.09,14.56 -6.24,29.1 -9.31,43.67 -18.3,0.54 -36.63,0.09 -54.94,0.22 8.15,-39.86 16.91,-79.6 25.31,-119.41 m 9.51,1.11 c -7.7,36.2 -15.38,72.41 -23.16,108.6 11.84,-0.01 23.68,0 35.52,0 3.06,-14.55 6.19,-29.09 9.29,-43.64 26.14,-0.07 52.28,0.15 78.42,-0.11 2.33,-10.46 4.44,-20.96 6.74,-31.41 -26.14,0 -52.28,-0.01 -78.42,0 1.83,-7.08 2.39,-14.81 6.64,-20.98 3.38,-4.27 9.39,-4.16 14.32,-4.34 19.35,-0.1 38.7,-0.01 58.05,-0.04 6.94,0.08 14.05,-0.12 20.75,1.97 7,2.27 12.19,7.83 16.92,13.2 5.81,6.23 11.32,12.74 17.18,18.93 -20.05,22.16 -40.06,44.35 -60.19,66.43 16.31,-0.03 32.62,0 48.93,-0.01 11.79,-13.15 23.63,-26.26 35.34,-39.49 11.72,13.22 23.55,26.34 35.36,39.49 15.89,0.01 31.78,-0.01 47.67,0.01 -19.83,-21.88 -39.36,-44.02 -59.18,-65.9 19.64,-22.08 39.45,-44.03 59.17,-66.04 -15.41,0 -30.82,0 -46.23,-0.01 -1.49,-0.44 -2.31,0.97 -3.21,1.8 -11.18,12.52 -22.57,24.86 -33.73,37.41 -7.91,-8.68 -15.55,-17.62 -23.66,-26.12 -5.7,-5.86 -13.01,-10.27 -21.09,-11.81 -7.58,-1.71 -15.38,-1.2 -23.08,-1.27 -29.69,-0.01 -59.37,0.02 -89.06,-0.01 -13.62,-0.52 -26.71,9.96 -29.29,23.34 z"
       id="path15"
       style="fill:#ffffff" />
    <path
       d="m 37.1,64.69 c 4.43,0.02 8.86,-0.07 13.29,0.1 -0.01,11.01 -0.01,22.03 0,33.04 -4.43,-0.01 -8.86,-0.01 -13.29,0 0,-11.05 0,-22.09 0,-33.14 z"
       id="path17"
       style="fill:#ffffff" />
    <path
       d="m 24.59,112.45 c 4.25,0.02 8.5,0.02 12.75,0.01 4.56,8.11 9.14,16.23 13.77,24.31 -0.02,-8.11 -0.01,-16.21 0,-24.31 3.13,0.01 6.26,0.01 9.39,-0.01 -0.02,12.4 -0.02,24.8 0,37.21 -4.07,-0.02 -8.14,0 -12.22,-0.02 -4.67,-8.1 -9.46,-16.15 -14.26,-24.18 -0.05,8.07 0,16.13 -0.03,24.2 -3.13,-0.01 -6.26,-0.01 -9.4,-0.01 0.04,-12.4 0.04,-24.8 0,-37.2 z"
       id="path19"
       style="fill:#ffffff" />
    <path
       d="m 38.63,164.98 c 3.08,-2.03 6.27,-3.87 9.37,-5.86 0,1.96 0,3.92 0,5.88 3.13,0 6.26,0 9.39,0 -0.01,2.94 -0.01,5.89 0,8.83 -5.91,-0.01 -11.83,0 -17.75,-0.01 0,2.22 0,4.43 -0.01,6.65 5.74,-0.02 11.48,0.01 17.21,-0.02 0,2.66 0,5.32 0.01,7.98 -5.74,-0.02 -11.48,0 -17.22,-0.02 0.01,2.39 0.01,4.78 0,7.17 5.87,-0.01 11.74,0.01 17.61,-0.01 0.16,3.01 0.2,6.02 0.16,9.03 -9.68,-0.01 -19.37,-0.01 -29.05,0 0.01,-13.2 0.01,-26.39 0,-39.59 3.43,-0.01 6.86,0 10.28,-0.03 z"
       id="path21"
       style="fill:#ffffff" />
  </g>
  <g
     transform="matrix(0.07827789,0,0,0.07827789,0,0.56047)"
     id="#d7002aff">
    <path
       d="m 0,223 c 27.83,-0.05 55.65,0.1 83.48,-0.07 0.08,18.69 0.22,37.39 -0.07,56.07 L 0,279 0,223 z"
       id="path24"
       style="fill:#d7002a" />
  </g>
</svg>
