<?xml version="1.0" encoding="UTF-8" ?>
<!DOCTYPE svg PUBLIC "-//W3C//DTD SVG 1.1//EN" "http://www.w3.org/Graphics/SVG/1.1/DTD/svg11.dtd">
<svg width="511pt" height="279pt" viewBox="0 0 511 279" version="1.1" xmlns="http://www.w3.org/2000/svg">
<g id="#000000ff">
<path fill="#000000" opacity="1.00" d=" M 0.00 0.00 L 511.00 0.00 L 511.00 91.33 C 498.41 91.46 485.88 96.03 476.56 104.57 C 466.97 113.27 460.83 126.00 460.98 139.04 C 460.53 154.07 468.32 168.84 480.45 177.58 C 489.18 184.18 500.11 187.46 511.00 187.66 L 511.00 279.00 L 83.00 279.00 C 83.00 260.33 83.00 241.66 83.00 223.00 C 55.33 223.00 27.67 223.00 0.00 223.00 L 0.00 0.00 M 22.21 32.00 C 21.94 41.64 29.58 50.65 39.11 52.05 C 47.21 53.67 55.58 49.41 60.07 42.67 C 56.80 40.73 53.62 38.61 50.25 36.84 C 48.05 39.62 44.57 41.77 40.92 40.87 C 36.39 40.14 32.97 35.52 33.62 30.98 C 34.10 25.78 39.85 21.71 44.88 23.37 C 47.23 23.87 48.83 25.79 50.49 27.37 C 53.61 25.26 56.91 23.46 60.06 21.40 C 55.57 14.56 47.10 10.41 38.94 12.03 C 29.52 13.52 21.97 22.44 22.21 32.00 M 350.59 52.73 C 346.96 53.13 344.03 55.51 340.84 57.05 C 335.56 60.17 329.89 62.60 324.76 65.97 C 332.53 63.69 340.25 61.23 348.02 58.98 C 360.42 57.72 372.87 56.97 385.28 55.74 C 389.66 66.72 393.54 77.91 398.12 88.80 C 408.75 88.77 419.36 89.32 429.99 89.46 C 421.75 96.33 413.41 103.08 405.41 110.23 C 406.70 117.30 405.91 124.42 405.18 131.49 C 408.07 132.25 410.93 133.13 413.81 133.93 C 419.19 146.62 424.94 159.14 430.35 171.82 C 431.01 173.31 431.60 174.93 432.94 175.98 C 447.07 188.22 460.99 200.72 475.17 212.91 C 462.91 198.14 450.15 183.77 437.72 169.14 C 437.19 168.43 436.76 167.67 436.43 166.86 C 431.47 154.64 426.83 142.29 421.84 130.07 C 418.57 129.57 415.27 129.26 411.98 128.99 C 413.01 122.89 413.53 116.72 413.65 110.53 C 419.85 105.47 425.92 100.27 432.09 95.17 C 435.73 92.47 437.62 88.21 440.19 84.60 C 427.47 84.55 414.75 84.59 402.03 84.58 C 397.58 72.44 393.49 60.17 388.86 48.11 C 376.11 49.71 363.35 51.24 350.59 52.73 M 37.20 65.01 C 37.21 76.00 37.21 87.00 37.20 97.99 C 41.63 98.01 46.06 98.00 50.49 98.00 C 50.49 87.00 50.49 76.00 50.49 65.00 C 46.06 65.00 41.63 64.99 37.20 65.01 M 359.35 85.20 C 357.01 88.07 355.87 91.71 353.57 94.61 C 346.11 98.66 337.94 101.36 330.65 105.74 C 339.07 103.81 347.60 102.50 356.06 100.79 C 359.68 100.02 363.47 99.75 366.84 98.11 C 374.57 94.57 382.37 91.20 390.11 87.68 C 388.37 83.24 386.36 78.92 384.64 74.48 C 376.21 78.06 367.65 81.36 359.35 85.20 M 155.54 101.61 C 147.38 103.61 141.36 111.60 141.43 119.97 C 141.37 134.31 141.44 148.66 141.40 163.00 C 141.33 167.54 142.29 172.26 144.99 176.00 C 150.44 183.66 161.68 186.17 169.98 181.86 C 176.43 178.93 180.55 172.02 180.61 165.02 C 180.68 150.32 180.62 135.62 180.64 120.93 C 180.74 115.50 178.74 109.91 174.67 106.23 C 169.79 101.26 162.12 99.98 155.54 101.61 M 96.20 101.52 C 96.21 128.78 96.20 156.05 96.20 183.32 C 100.12 183.30 104.03 183.30 107.95 183.31 C 107.96 172.68 107.92 162.04 107.97 151.41 C 113.65 151.44 119.79 151.78 124.88 148.80 C 130.38 145.58 133.49 139.27 133.86 133.04 C 134.15 127.22 134.37 121.30 133.27 115.55 C 131.69 107.96 124.65 102.13 116.96 101.68 C 110.05 101.31 103.12 101.63 96.20 101.52 M 189.50 101.51 C 189.53 128.73 189.51 155.95 189.51 183.17 C 203.91 183.43 218.32 183.30 232.72 183.31 C 233.87 177.45 235.11 171.61 236.13 165.72 C 241.44 165.70 246.75 165.71 252.06 165.71 C 253.11 171.51 254.38 177.27 255.40 183.07 C 259.30 183.50 263.22 183.25 267.14 183.29 C 261.31 155.99 254.97 128.80 249.03 101.52 C 245.76 101.52 242.49 101.53 239.22 101.51 C 234.15 124.81 228.61 148.01 223.83 171.36 C 216.33 171.61 208.83 171.37 201.33 171.50 C 201.23 148.17 201.55 124.83 201.17 101.51 C 197.28 101.53 193.39 101.53 189.50 101.51 M 273.00 101.52 C 273.00 128.78 273.00 156.04 273.00 183.30 C 276.91 183.25 280.83 183.51 284.73 183.07 C 284.64 171.54 284.73 160.01 284.68 148.48 C 287.01 148.48 289.35 148.48 291.69 148.49 C 295.09 160.06 298.90 171.51 302.36 183.06 C 306.54 183.54 310.75 183.22 314.94 183.30 C 310.81 170.86 306.48 158.49 302.36 146.04 C 306.82 143.36 310.33 139.03 311.46 133.90 C 313.03 126.66 312.78 118.79 309.94 111.89 C 307.35 105.56 300.60 101.87 293.97 101.61 C 286.98 101.40 279.99 101.58 273.00 101.52 M 24.67 113.00 C 24.67 125.34 24.66 137.67 24.67 150.00 C 27.78 150.00 30.89 150.00 34.00 150.00 C 34.04 141.97 33.91 133.93 34.07 125.90 C 39.05 133.80 43.58 141.97 48.39 149.98 C 52.48 150.01 56.56 150.00 60.65 149.99 C 60.64 137.66 60.64 125.34 60.65 113.01 C 57.50 113.00 54.35 113.00 51.21 113.00 C 51.21 121.04 51.19 129.08 51.22 137.13 C 46.67 129.12 42.08 121.14 37.64 113.07 C 33.32 112.94 28.99 113.01 24.67 113.00 M 334.89 125.18 C 333.72 127.54 332.47 129.86 331.22 132.17 C 333.13 133.14 335.06 134.08 336.98 135.05 C 340.40 131.72 343.80 128.37 347.23 125.04 C 354.42 123.73 361.58 122.26 368.75 120.86 C 365.42 123.67 361.80 126.15 358.72 129.24 C 362.44 129.79 366.16 130.33 369.89 130.83 C 367.53 133.22 365.17 135.60 362.80 137.96 C 359.68 138.11 356.57 138.35 353.47 138.60 C 351.94 140.00 350.40 141.40 348.87 142.80 C 345.98 141.57 343.31 139.20 339.98 139.52 C 338.75 139.70 336.22 139.08 336.53 141.11 C 336.28 147.55 335.95 154.01 335.89 160.46 C 337.02 160.95 338.14 161.47 339.25 162.02 C 342.71 161.04 346.02 159.65 349.38 158.41 C 349.30 161.95 349.21 165.48 349.10 169.02 C 361.15 158.76 372.92 148.17 384.99 137.93 C 387.02 136.00 390.00 135.70 392.19 134.07 C 393.56 130.73 394.37 127.18 395.63 123.80 C 393.99 120.56 392.29 117.35 390.69 114.09 C 388.83 114.15 386.98 114.20 385.13 114.29 C 383.62 118.19 382.04 122.05 380.49 125.94 C 377.37 121.80 374.29 117.62 371.20 113.46 C 359.15 117.53 346.91 121.03 334.89 125.18 M 38.84 165.25 C 35.37 165.50 31.88 165.29 28.40 165.34 C 28.42 178.56 28.41 191.77 28.40 204.99 C 38.10 205.01 47.79 204.99 57.49 205.00 C 57.49 202.05 57.49 199.11 57.49 196.16 C 51.57 196.19 45.66 196.17 39.74 196.17 C 39.74 193.72 39.74 191.27 39.74 188.83 C 45.49 188.83 51.24 188.82 56.99 188.83 C 57.00 186.22 57.00 183.61 57.00 181.00 C 51.25 181.00 45.50 181.00 39.75 181.00 C 39.75 178.79 39.74 176.58 39.72 174.37 C 45.46 174.28 51.19 174.50 56.92 174.28 C 58.25 171.71 57.14 168.25 57.50 165.34 C 54.34 165.35 51.17 165.35 48.01 165.33 C 48.00 163.48 48.00 161.62 47.98 159.77 C 44.81 161.39 41.98 163.58 38.84 165.25 Z" />
<path fill="#000000" opacity="1.00" d=" M 107.95 112.66 C 112.29 112.93 117.73 111.52 121.01 115.19 C 123.74 119.25 123.00 124.37 123.11 129.00 C 122.92 132.40 123.03 136.72 119.83 138.84 C 116.30 141.05 111.89 140.03 107.95 140.29 C 107.95 131.08 107.95 121.87 107.95 112.66 Z" />
<path fill="#000000" opacity="1.00" d=" M 157.33 113.44 C 160.43 111.99 164.56 112.49 166.93 115.08 C 168.70 116.86 168.80 119.60 169.00 121.96 C 169.02 135.31 168.98 148.65 169.01 162.00 C 169.10 165.19 168.45 168.85 165.73 170.89 C 162.83 172.55 159.18 172.53 156.28 170.89 C 153.19 168.63 153.04 164.47 152.99 161.00 C 153.02 148.29 152.97 135.59 153.01 122.89 C 153.07 119.36 153.53 114.93 157.33 113.44 Z" />
<path fill="#000000" opacity="1.00" d=" M 284.69 112.65 C 288.96 112.91 293.86 111.77 297.56 114.49 C 300.82 117.32 300.50 122.09 300.58 126.02 C 300.54 129.85 300.43 134.57 296.80 136.87 C 293.02 138.69 288.73 137.90 284.69 138.05 C 284.69 129.58 284.70 121.12 284.69 112.65 Z" />
<path fill="#000000" opacity="1.00" d=" M 238.29 154.61 C 240.25 144.71 242.02 134.78 244.06 124.90 C 246.00 134.80 248.02 144.69 249.80 154.62 C 245.96 154.56 242.13 154.57 238.29 154.61 Z" />
</g>
<g id="#ffffffff">
<path fill="#ffffff" opacity="1.00" d=" M 22.21 32.00 C 21.97 22.44 29.52 13.52 38.94 12.03 C 47.10 10.41 55.57 14.56 60.06 21.40 C 56.91 23.46 53.61 25.26 50.49 27.37 C 48.83 25.79 47.23 23.87 44.88 23.37 C 39.85 21.71 34.10 25.78 33.62 30.98 C 32.97 35.52 36.39 40.14 40.92 40.87 C 44.57 41.77 48.05 39.62 50.25 36.84 C 53.62 38.61 56.80 40.73 60.07 42.67 C 55.58 49.41 47.21 53.67 39.11 52.05 C 29.58 50.65 21.94 41.64 22.21 32.00 Z" />
<path fill="#ffffff" opacity="1.00" d=" M 350.59 52.73 C 363.35 51.24 376.11 49.71 388.86 48.11 C 393.49 60.17 397.58 72.44 402.03 84.58 C 414.75 84.59 427.47 84.55 440.19 84.60 C 437.62 88.21 435.73 92.47 432.09 95.17 C 425.92 100.27 419.85 105.47 413.65 110.53 C 413.53 116.72 413.01 122.89 411.98 128.99 C 415.27 129.26 418.57 129.57 421.84 130.07 C 426.83 142.29 431.47 154.64 436.43 166.86 C 436.76 167.67 437.19 168.43 437.72 169.14 C 450.15 183.77 462.91 198.14 475.17 212.91 C 460.99 200.72 447.07 188.22 432.94 175.98 C 431.60 174.93 431.01 173.31 430.35 171.82 C 424.94 159.14 419.19 146.62 413.81 133.93 C 410.93 133.13 408.07 132.25 405.18 131.49 C 405.91 124.42 406.70 117.30 405.41 110.23 C 413.41 103.08 421.75 96.33 429.99 89.46 C 419.36 89.32 408.75 88.77 398.12 88.80 C 393.54 77.91 389.66 66.72 385.28 55.74 C 372.87 56.97 360.42 57.72 348.02 58.98 C 340.25 61.23 332.53 63.69 324.76 65.97 C 329.89 62.60 335.56 60.17 340.84 57.05 C 344.03 55.51 346.96 53.13 350.59 52.73 Z" />
<path fill="#ffffff" opacity="1.00" d=" M 37.20 65.01 C 41.63 64.99 46.06 65.00 50.49 65.00 C 50.49 76.00 50.49 87.00 50.49 98.00 C 46.06 98.00 41.63 98.01 37.20 97.99 C 37.21 87.00 37.21 76.00 37.20 65.01 Z" />
<path fill="#ffffff" opacity="1.00" d=" M 155.54 101.61 C 162.12 99.98 169.79 101.26 174.67 106.23 C 178.74 109.91 180.74 115.50 180.64 120.93 C 180.62 135.62 180.68 150.32 180.61 165.02 C 180.55 172.02 176.43 178.93 169.98 181.86 C 161.68 186.17 150.44 183.66 144.99 176.00 C 142.29 172.26 141.33 167.54 141.40 163.00 C 141.44 148.66 141.37 134.31 141.43 119.97 C 141.36 111.60 147.38 103.61 155.54 101.61 M 157.33 113.44 C 153.53 114.93 153.07 119.36 153.01 122.89 C 152.97 135.59 153.02 148.29 152.99 161.00 C 153.04 164.47 153.19 168.63 156.28 170.89 C 159.18 172.53 162.83 172.55 165.73 170.89 C 168.45 168.85 169.10 165.19 169.01 162.00 C 168.98 148.65 169.02 135.31 169.00 121.96 C 168.80 119.60 168.70 116.86 166.93 115.08 C 164.56 112.49 160.43 111.99 157.33 113.44 Z" />
<path fill="#ffffff" opacity="1.00" d=" M 96.20 101.52 C 103.12 101.63 110.05 101.31 116.96 101.68 C 124.65 102.13 131.69 107.96 133.27 115.55 C 134.37 121.30 134.15 127.22 133.86 133.04 C 133.49 139.27 130.38 145.58 124.88 148.80 C 119.79 151.78 113.65 151.44 107.97 151.41 C 107.92 162.04 107.96 172.68 107.95 183.31 C 104.03 183.30 100.12 183.30 96.20 183.32 C 96.20 156.05 96.21 128.78 96.20 101.52 M 107.95 112.66 C 107.95 121.87 107.95 131.08 107.95 140.29 C 111.89 140.03 116.30 141.05 119.83 138.84 C 123.03 136.72 122.92 132.40 123.11 129.00 C 123.00 124.37 123.74 119.25 121.01 115.19 C 117.73 111.52 112.29 112.93 107.95 112.66 Z" />
<path fill="#ffffff" opacity="1.00" d=" M 189.50 101.51 C 193.39 101.53 197.28 101.53 201.17 101.51 C 201.55 124.83 201.23 148.17 201.33 171.50 C 208.83 171.37 216.33 171.61 223.83 171.36 C 228.61 148.01 234.15 124.81 239.22 101.51 C 242.49 101.53 245.76 101.52 249.03 101.52 C 254.97 128.80 261.31 155.99 267.14 183.29 C 263.22 183.25 259.30 183.50 255.40 183.07 C 254.38 177.27 253.11 171.51 252.06 165.71 C 246.75 165.71 241.44 165.70 236.13 165.72 C 235.11 171.61 233.87 177.45 232.72 183.31 C 218.32 183.30 203.91 183.43 189.51 183.17 C 189.51 155.95 189.53 128.73 189.50 101.51 M 238.29 154.61 C 242.13 154.57 245.96 154.56 249.80 154.62 C 248.02 144.69 246.00 134.80 244.06 124.90 C 242.02 134.78 240.25 144.71 238.29 154.61 Z" />
<path fill="#ffffff" opacity="1.00" d=" M 273.00 101.52 C 279.99 101.58 286.98 101.40 293.97 101.61 C 300.60 101.87 307.35 105.56 309.94 111.89 C 312.78 118.79 313.03 126.66 311.46 133.90 C 310.33 139.03 306.82 143.36 302.36 146.04 C 306.48 158.49 310.81 170.86 314.94 183.30 C 310.75 183.22 306.54 183.54 302.36 183.06 C 298.90 171.51 295.09 160.06 291.69 148.49 C 289.35 148.48 287.01 148.48 284.68 148.48 C 284.73 160.01 284.64 171.54 284.73 183.07 C 280.83 183.51 276.91 183.25 273.00 183.30 C 273.00 156.04 273.00 128.78 273.00 101.52 M 284.69 112.65 C 284.70 121.12 284.69 129.58 284.69 138.05 C 288.73 137.90 293.02 138.69 296.80 136.87 C 300.43 134.57 300.54 129.85 300.58 126.02 C 300.50 122.09 300.82 117.32 297.56 114.49 C 293.86 111.77 288.96 112.91 284.69 112.65 Z" />
<path fill="#ffffff" opacity="1.00" d=" M 24.67 113.00 C 28.99 113.01 33.32 112.94 37.64 113.07 C 42.08 121.14 46.67 129.12 51.22 137.13 C 51.19 129.08 51.21 121.04 51.21 113.00 C 54.35 113.00 57.50 113.00 60.65 113.01 C 60.64 125.34 60.64 137.66 60.65 149.99 C 56.56 150.00 52.48 150.01 48.39 149.98 C 43.58 141.97 39.05 133.80 34.07 125.90 C 33.91 133.93 34.04 141.97 34.00 150.00 C 30.89 150.00 27.78 150.00 24.67 150.00 C 24.66 137.67 24.67 125.34 24.67 113.00 Z" />
<path fill="#ffffff" opacity="1.00" d=" M 38.84 165.25 C 41.98 163.58 44.81 161.39 47.98 159.77 C 48.00 161.62 48.00 163.48 48.01 165.33 C 51.17 165.35 54.34 165.35 57.50 165.34 C 57.14 168.25 58.25 171.71 56.92 174.28 C 51.19 174.50 45.46 174.28 39.72 174.37 C 39.74 176.58 39.75 178.79 39.75 181.00 C 45.50 181.00 51.25 181.00 57.00 181.00 C 57.00 183.61 57.00 186.22 56.99 188.83 C 51.24 188.82 45.49 188.83 39.74 188.83 C 39.74 191.27 39.74 193.72 39.74 196.17 C 45.66 196.17 51.57 196.19 57.49 196.16 C 57.49 199.11 57.49 202.05 57.49 205.00 C 47.79 204.99 38.10 205.01 28.40 204.99 C 28.41 191.77 28.42 178.56 28.40 165.34 C 31.88 165.29 35.37 165.50 38.84 165.25 Z" />
</g>
<g id="#ffdd00ff">
<path fill="#ffdd00" opacity="1.00" d=" M 359.35 85.20 C 367.65 81.36 376.21 78.06 384.64 74.48 C 386.36 78.92 388.37 83.24 390.11 87.68 C 382.37 91.20 374.57 94.57 366.84 98.11 C 363.47 99.75 359.68 100.02 356.06 100.79 C 347.60 102.50 339.07 103.81 330.65 105.74 C 337.94 101.36 346.11 98.66 353.57 94.61 C 355.87 91.71 357.01 88.07 359.35 85.20 Z" />
<path fill="#ffdd00" opacity="1.00" d=" M 334.89 125.18 C 346.91 121.03 359.15 117.53 371.20 113.46 C 374.29 117.62 377.37 121.80 380.49 125.94 C 382.04 122.05 383.62 118.19 385.13 114.29 C 386.98 114.20 388.83 114.15 390.69 114.09 C 392.29 117.35 393.99 120.56 395.63 123.80 C 394.37 127.18 393.56 130.73 392.19 134.07 C 390.00 135.70 387.02 136.00 384.99 137.93 C 372.92 148.17 361.15 158.76 349.10 169.02 C 349.21 165.48 349.30 161.95 349.38 158.41 C 346.02 159.65 342.71 161.04 339.25 162.02 C 338.14 161.47 337.02 160.95 335.89 160.46 C 335.95 154.01 336.28 147.55 336.53 141.11 C 336.22 139.08 338.75 139.70 339.98 139.52 C 343.31 139.20 345.98 141.57 348.87 142.80 C 350.40 141.40 351.94 140.00 353.47 138.60 C 356.57 138.35 359.68 138.11 362.80 137.96 C 365.17 135.60 367.53 133.22 369.89 130.83 C 366.16 130.33 362.44 129.79 358.72 129.24 C 361.80 126.15 365.42 123.67 368.75 120.86 C 361.58 122.26 354.42 123.73 347.23 125.04 C 343.80 128.37 340.40 131.72 336.98 135.05 C 335.06 134.08 333.13 133.14 331.22 132.17 C 332.47 129.86 333.72 127.54 334.89 125.18 Z" />
</g>
<g id="#df1e2fff">
<path fill="#df1e2f" opacity="1.00" d=" M 0.00 223.00 C 27.67 223.00 55.33 223.00 83.00 223.00 C 83.00 241.66 83.00 260.33 83.00 279.00 L 0.00 279.00 L 0.00 223.00 Z" />
</g>
</svg>
