<?xml version="1.0" encoding="UTF-8" ?>
<!DOCTYPE svg PUBLIC "-//W3C//DTD SVG 1.1//EN" "http://www.w3.org/Graphics/SVG/1.1/DTD/svg11.dtd">
<svg width="511pt" height="279pt" viewBox="0 0 511 279" version="1.1" xmlns="http://www.w3.org/2000/svg">
<g id="#000000ff">
<path fill="#000000" opacity="1.00" d=" M 0.00 0.00 L 83.41 0.00 C 83.46 74.31 83.33 148.62 83.48 222.93 C 55.65 223.10 27.83 222.95 0.00 223.00 L 0.00 0.00 M 22.16 32.01 C 21.93 41.59 29.55 50.48 38.99 51.90 C 47.04 53.39 55.75 49.47 59.80 42.33 C 56.59 40.50 53.42 38.59 50.31 36.60 C 48.78 38.13 47.33 39.97 45.13 40.51 C 39.74 42.58 33.34 37.75 33.52 32.05 C 33.11 26.65 38.78 22.04 43.98 23.11 C 46.59 23.42 48.51 25.31 50.17 27.17 C 53.51 25.37 56.71 23.32 59.94 21.32 C 55.45 14.59 47.10 10.33 38.99 11.98 C 29.50 13.40 21.89 22.39 22.16 32.01 M 37.10 64.69 C 37.10 75.74 37.10 86.78 37.10 97.83 C 41.53 97.82 45.96 97.82 50.39 97.83 C 50.38 86.82 50.38 75.80 50.39 64.79 C 45.96 64.62 41.53 64.71 37.10 64.69 M 24.59 112.45 C 24.63 124.85 24.63 137.25 24.59 149.65 C 27.73 149.65 30.86 149.65 33.99 149.66 C 34.02 141.59 33.97 133.53 34.02 125.46 C 38.82 133.49 43.61 141.54 48.28 149.64 C 52.36 149.66 56.43 149.64 60.50 149.66 C 60.48 137.25 60.48 124.85 60.50 112.45 C 57.37 112.47 54.24 112.47 51.11 112.46 C 51.10 120.56 51.09 128.66 51.11 136.77 C 46.48 128.69 41.90 120.57 37.34 112.46 C 33.09 112.47 28.84 112.47 24.59 112.45 M 38.63 164.98 C 35.21 165.01 31.78 165.00 28.35 165.01 C 28.36 178.21 28.36 191.40 28.35 204.60 C 38.03 204.59 47.72 204.59 57.40 204.60 C 57.44 201.59 57.40 198.58 57.24 195.57 C 51.37 195.59 45.50 195.57 39.63 195.58 C 39.64 193.19 39.64 190.80 39.63 188.41 C 45.37 188.43 51.11 188.41 56.85 188.43 C 56.84 185.77 56.84 183.11 56.84 180.45 C 51.11 180.48 45.37 180.45 39.63 180.47 C 39.64 178.25 39.64 176.04 39.64 173.82 C 45.56 173.83 51.48 173.82 57.39 173.83 C 57.38 170.89 57.38 167.94 57.39 165.00 C 54.26 165.00 51.13 165.00 48.00 165.00 C 48.00 163.04 48.00 161.08 48.00 159.12 C 44.90 161.11 41.71 162.95 38.63 164.98 Z" />
<path fill="#000000" opacity="1.00" d=" M 151.67 86.04 C 154.25 72.66 167.34 62.18 180.96 62.70 C 210.65 62.73 240.33 62.70 270.02 62.71 C 277.72 62.78 285.52 62.27 293.10 63.98 C 301.18 65.52 308.49 69.93 314.19 75.79 C 322.30 84.29 329.94 93.23 337.85 101.91 C 349.01 89.36 360.40 77.02 371.58 64.50 C 372.48 63.67 373.30 62.26 374.79 62.70 C 390.20 62.71 405.61 62.71 421.02 62.71 C 401.30 84.72 381.49 106.67 361.85 128.75 C 381.67 150.63 401.20 172.77 421.03 194.65 C 405.14 194.63 389.25 194.65 373.36 194.64 C 361.55 181.49 349.72 168.37 338.00 155.15 C 326.29 168.38 314.45 181.49 302.66 194.64 C 286.35 194.65 270.04 194.62 253.73 194.65 C 273.86 172.57 293.87 150.38 313.92 128.22 C 308.06 122.03 302.55 115.52 296.74 109.29 C 292.01 103.92 286.82 98.36 279.82 96.09 C 273.12 94.00 266.01 94.20 259.07 94.12 C 239.72 94.15 220.37 94.06 201.02 94.16 C 196.09 94.34 190.08 94.23 186.70 98.50 C 182.45 104.67 181.89 112.40 180.06 119.48 C 206.20 119.47 232.34 119.48 258.48 119.48 C 256.18 129.93 254.07 140.43 251.74 150.89 C 225.60 151.15 199.46 150.93 173.32 151.00 C 170.22 165.55 167.09 180.09 164.03 194.64 C 152.19 194.64 140.35 194.63 128.51 194.64 C 136.29 158.45 143.97 122.24 151.67 86.04 Z" />
</g>
<g id="#b4d700ff">
<path fill="#b4d700" opacity="1.00" d=" M 83.41 0.00 L 511.00 0.00 L 511.00 91.23 C 497.94 91.51 484.91 96.32 475.47 105.48 C 466.51 114.15 460.80 126.42 460.97 138.98 C 460.46 154.29 468.58 169.30 481.02 178.03 C 489.65 184.38 500.35 187.45 511.00 187.71 L 511.00 279.00 L 83.41 279.00 C 83.70 260.32 83.56 241.62 83.48 222.93 C 83.33 148.62 83.46 74.31 83.41 0.00 M 142.16 84.93 C 133.76 124.74 125.00 164.48 116.85 204.34 C 135.16 204.21 153.49 204.66 171.79 204.12 C 174.86 189.55 178.01 175.01 181.10 160.45 C 207.24 160.49 233.39 160.42 259.53 160.48 C 262.93 143.63 266.87 126.88 270.13 110.00 C 244.16 109.98 218.19 110.04 192.22 109.97 C 192.69 107.36 193.46 103.36 197.02 103.87 C 219.01 103.43 241.02 103.79 263.03 103.68 C 269.50 103.73 276.79 103.62 282.02 108.07 C 288.93 114.22 294.70 121.50 300.98 128.27 C 280.47 151.01 259.85 173.66 239.36 196.42 C 237.04 198.97 234.42 201.29 232.62 204.27 C 257.35 204.46 282.09 204.30 306.83 204.35 C 317.35 192.79 327.42 180.79 338.37 169.63 C 348.26 181.52 359.03 192.67 369.18 204.35 C 393.56 204.32 417.95 204.42 442.33 204.30 C 419.97 178.92 397.12 153.95 374.68 128.64 C 397.27 103.56 419.79 78.42 442.30 53.27 C 418.51 53.13 394.71 53.27 370.92 53.20 C 368.35 52.67 367.23 55.34 365.73 56.83 C 356.32 66.99 347.22 77.44 337.75 87.55 C 333.26 82.27 328.45 77.29 323.93 72.05 C 317.78 65.21 310.26 59.38 301.49 56.37 C 292.35 53.15 282.55 52.98 272.97 53.11 C 242.33 53.11 211.69 53.11 181.04 53.11 C 162.71 52.50 145.25 66.89 142.16 84.93 Z" />
</g>
<g id="#ffffffff">
<path fill="#ffffff" opacity="1.00" d=" M 22.16 32.01 C 21.89 22.39 29.50 13.40 38.99 11.98 C 47.10 10.33 55.45 14.59 59.94 21.32 C 56.71 23.32 53.51 25.37 50.17 27.17 C 48.51 25.31 46.59 23.42 43.98 23.11 C 38.78 22.04 33.11 26.65 33.52 32.05 C 33.34 37.75 39.74 42.58 45.13 40.51 C 47.33 39.97 48.78 38.13 50.31 36.60 C 53.42 38.59 56.59 40.50 59.80 42.33 C 55.75 49.47 47.04 53.39 38.99 51.90 C 29.55 50.48 21.93 41.59 22.16 32.01 Z" />
<path fill="#ffffff" opacity="1.00" d=" M 142.16 84.93 C 145.25 66.89 162.71 52.50 181.04 53.11 C 211.69 53.11 242.33 53.11 272.97 53.11 C 282.55 52.98 292.35 53.15 301.49 56.37 C 310.26 59.38 317.78 65.21 323.93 72.05 C 328.45 77.29 333.26 82.27 337.75 87.55 C 347.22 77.44 356.32 66.99 365.73 56.83 C 367.23 55.34 368.35 52.67 370.92 53.20 C 394.71 53.27 418.51 53.13 442.30 53.27 C 419.79 78.42 397.27 103.56 374.68 128.64 C 397.12 153.95 419.97 178.92 442.33 204.30 C 417.95 204.42 393.56 204.32 369.18 204.35 C 359.03 192.67 348.26 181.52 338.37 169.63 C 327.42 180.79 317.35 192.79 306.83 204.35 C 282.09 204.30 257.35 204.46 232.62 204.27 C 234.42 201.29 237.04 198.97 239.36 196.42 C 259.85 173.66 280.47 151.01 300.98 128.27 C 294.70 121.50 288.93 114.22 282.02 108.07 C 276.79 103.62 269.50 103.73 263.03 103.68 C 241.02 103.79 219.01 103.43 197.02 103.87 C 193.46 103.36 192.69 107.36 192.22 109.97 C 218.19 110.04 244.16 109.98 270.13 110.00 C 266.87 126.88 262.93 143.63 259.53 160.48 C 233.39 160.42 207.24 160.49 181.10 160.45 C 178.01 175.01 174.86 189.55 171.79 204.12 C 153.49 204.66 135.16 204.21 116.85 204.34 C 125.00 164.48 133.76 124.74 142.16 84.93 M 151.67 86.04 C 143.97 122.24 136.29 158.45 128.51 194.64 C 140.35 194.63 152.19 194.64 164.03 194.64 C 167.09 180.09 170.22 165.55 173.32 151.00 C 199.46 150.93 225.60 151.15 251.74 150.89 C 254.07 140.43 256.18 129.93 258.48 119.48 C 232.34 119.48 206.20 119.47 180.06 119.48 C 181.89 112.40 182.45 104.67 186.70 98.50 C 190.08 94.23 196.09 94.34 201.02 94.16 C 220.37 94.06 239.72 94.15 259.07 94.12 C 266.01 94.20 273.12 94.00 279.82 96.09 C 286.82 98.36 292.01 103.92 296.74 109.29 C 302.55 115.52 308.06 122.03 313.92 128.22 C 293.87 150.38 273.86 172.57 253.73 194.65 C 270.04 194.62 286.35 194.65 302.66 194.64 C 314.45 181.49 326.29 168.38 338.00 155.15 C 349.72 168.37 361.55 181.49 373.36 194.64 C 389.25 194.65 405.14 194.63 421.03 194.65 C 401.20 172.77 381.67 150.63 361.85 128.75 C 381.49 106.67 401.30 84.72 421.02 62.71 C 405.61 62.71 390.20 62.71 374.79 62.70 C 373.30 62.26 372.48 63.67 371.58 64.50 C 360.40 77.02 349.01 89.36 337.85 101.91 C 329.94 93.23 322.30 84.29 314.19 75.79 C 308.49 69.93 301.18 65.52 293.10 63.98 C 285.52 62.27 277.72 62.78 270.02 62.71 C 240.33 62.70 210.65 62.73 180.96 62.70 C 167.34 62.18 154.25 72.66 151.67 86.04 Z" />
<path fill="#ffffff" opacity="1.00" d=" M 37.10 64.69 C 41.53 64.71 45.96 64.62 50.39 64.79 C 50.38 75.80 50.38 86.82 50.39 97.83 C 45.96 97.82 41.53 97.82 37.10 97.83 C 37.10 86.78 37.10 75.74 37.10 64.69 Z" />
<path fill="#ffffff" opacity="1.00" d=" M 24.59 112.45 C 28.84 112.47 33.09 112.47 37.34 112.46 C 41.90 120.57 46.48 128.69 51.11 136.77 C 51.09 128.66 51.10 120.56 51.11 112.46 C 54.24 112.47 57.37 112.47 60.50 112.45 C 60.48 124.85 60.48 137.25 60.50 149.66 C 56.43 149.64 52.36 149.66 48.28 149.64 C 43.61 141.54 38.82 133.49 34.02 125.46 C 33.97 133.53 34.02 141.59 33.99 149.66 C 30.86 149.65 27.73 149.65 24.59 149.65 C 24.63 137.25 24.63 124.85 24.59 112.45 Z" />
<path fill="#ffffff" opacity="1.00" d=" M 38.63 164.98 C 41.71 162.95 44.90 161.11 48.00 159.12 C 48.00 161.08 48.00 163.04 48.00 165.00 C 51.13 165.00 54.26 165.00 57.39 165.00 C 57.38 167.94 57.38 170.89 57.39 173.83 C 51.48 173.82 45.56 173.83 39.64 173.82 C 39.64 176.04 39.64 178.25 39.63 180.47 C 45.37 180.45 51.11 180.48 56.84 180.45 C 56.84 183.11 56.84 185.77 56.85 188.43 C 51.11 188.41 45.37 188.43 39.63 188.41 C 39.64 190.80 39.64 193.19 39.63 195.58 C 45.50 195.57 51.37 195.59 57.24 195.57 C 57.40 198.58 57.44 201.59 57.40 204.60 C 47.72 204.59 38.03 204.59 28.35 204.60 C 28.36 191.40 28.36 178.21 28.35 165.01 C 31.78 165.00 35.21 165.01 38.63 164.98 Z" />
</g>
<g id="#d7002aff">
<path fill="#d7002a" opacity="1.00" d=" M 0.00 223.00 C 27.83 222.95 55.65 223.10 83.48 222.93 C 83.56 241.62 83.70 260.32 83.41 279.00 L 0.00 279.00 L 0.00 223.00 Z" />
</g>
</svg>
