<?xml version="1.0" encoding="UTF-8" standalone="no"?>
<!-- Created with Inkscape (http://www.inkscape.org/) -->

<svg
   xmlns:dc="http://purl.org/dc/elements/1.1/"
   xmlns:cc="http://creativecommons.org/ns#"
   xmlns:rdf="http://www.w3.org/1999/02/22-rdf-syntax-ns#"
   xmlns:svg="http://www.w3.org/2000/svg"
   xmlns="http://www.w3.org/2000/svg"
   version="1.1"
   width="50"
   height="28"
   viewBox="0 0 40 22.4"
   id="svg2">
  <metadata
     id="metadata46">
    <rdf:RDF>
      <cc:Work
         rdf:about="">
        <dc:format>image/svg+xml</dc:format>
        <dc:type
           rdf:resource="http://purl.org/dc/dcmitype/StillImage" />
        <dc:title></dc:title>
      </cc:Work>
    </rdf:RDF>
  </metadata>
  <defs
     id="defs44" />
  <g
     transform="matrix(0.07827789,0,0,0.07827789,0,0.56047)"
     id="#000000ff">
    <path
       d="m 0,0 511,0 0,91.33 c -12.59,0.13 -25.12,4.7 -34.44,13.24 -9.59,8.7 -15.73,21.43 -15.58,34.47 -0.45,15.03 7.34,29.8 19.47,38.54 8.73,6.6 19.66,9.88 30.55,10.08 l 0,91.34 -428,0 c 0,-18.67 0,-37.34 0,-56 -27.67,0 -55.33,0 -83,0 L 0,0 m 22.21,32 c -0.27,9.64 7.37,18.65 16.9,20.05 8.1,1.62 16.47,-2.64 20.96,-9.38 -3.27,-1.94 -6.45,-4.06 -9.82,-5.83 -2.2,2.78 -5.68,4.93 -9.33,4.03 -4.53,-0.73 -7.95,-5.35 -7.3,-9.89 0.48,-5.2 6.23,-9.27 11.26,-7.61 2.35,0.5 3.95,2.42 5.61,4 3.12,-2.11 6.42,-3.91 9.57,-5.97 C 55.57,14.56 47.1,10.41 38.94,12.03 29.52,13.52 21.97,22.44 22.21,32 m 328.38,20.73 c -3.63,0.4 -6.56,2.78 -9.75,4.32 -5.28,3.12 -10.95,5.55 -16.08,8.92 7.77,-2.28 15.49,-4.74 23.26,-6.99 12.4,-1.26 24.85,-2.01 37.26,-3.24 4.38,10.98 8.26,22.17 12.84,33.06 10.63,-0.03 21.24,0.52 31.87,0.66 -8.24,6.87 -16.58,13.62 -24.58,20.77 1.29,7.07 0.5,14.19 -0.23,21.26 2.89,0.76 5.75,1.64 8.63,2.44 5.38,12.69 11.13,25.21 16.54,37.89 0.66,1.49 1.25,3.11 2.59,4.16 14.13,12.24 28.05,24.74 42.23,36.93 -12.26,-14.77 -25.02,-29.14 -37.45,-43.77 -0.53,-0.71 -0.96,-1.47 -1.29,-2.28 -4.96,-12.22 -9.6,-24.57 -14.59,-36.79 -3.27,-0.5 -6.57,-0.81 -9.86,-1.08 1.03,-6.1 1.55,-12.27 1.67,-18.46 6.2,-5.06 12.27,-10.26 18.44,-15.36 3.64,-2.7 5.53,-6.96 8.1,-10.57 -12.72,-0.05 -25.44,-0.01 -38.16,-0.02 -4.45,-12.14 -8.54,-24.41 -13.17,-36.47 -12.75,1.6 -25.51,3.13 -38.27,4.62 M 37.2,65.01 c 0.01,10.99 0.01,21.99 0,32.98 4.43,0.02 8.86,0.01 13.29,0.01 0,-11 0,-22 0,-33 -4.43,0 -8.86,-0.01 -13.29,0.01 M 359.35,85.2 c -2.34,2.87 -3.48,6.51 -5.78,9.41 -7.46,4.05 -15.63,6.75 -22.92,11.13 8.42,-1.93 16.95,-3.24 25.41,-4.95 3.62,-0.77 7.41,-1.04 10.78,-2.68 7.73,-3.54 15.53,-6.91 23.27,-10.43 -1.74,-4.44 -3.75,-8.76 -5.47,-13.2 -8.43,3.58 -16.99,6.88 -25.29,10.72 m -203.81,16.41 c -8.16,2 -14.18,9.99 -14.11,18.36 -0.06,14.34 0.01,28.69 -0.03,43.03 -0.07,4.54 0.89,9.26 3.59,13 5.45,7.66 16.69,10.17 24.99,5.86 6.45,-2.93 10.57,-9.84 10.63,-16.84 0.07,-14.7 0.01,-29.4 0.03,-44.09 0.1,-5.43 -1.9,-11.02 -5.97,-14.7 -4.88,-4.97 -12.55,-6.25 -19.13,-4.62 M 96.2,101.52 c 0.01,27.26 0,54.53 0,81.8 3.92,-0.02 7.83,-0.02 11.75,-0.01 0.01,-10.63 -0.03,-21.27 0.02,-31.9 5.68,0.03 11.82,0.37 16.91,-2.61 5.5,-3.22 8.61,-9.53 8.98,-15.76 0.29,-5.82 0.51,-11.74 -0.59,-17.49 -1.58,-7.59 -8.62,-13.42 -16.31,-13.87 -6.91,-0.37 -13.84,-0.05 -20.76,-0.16 m 93.3,-0.01 c 0.03,27.22 0.01,54.44 0.01,81.66 14.4,0.26 28.81,0.13 43.21,0.14 1.15,-5.86 2.39,-11.7 3.41,-17.59 5.31,-0.02 10.62,-0.01 15.93,-0.01 1.05,5.8 2.32,11.56 3.34,17.36 3.9,0.43 7.82,0.18 11.74,0.22 -5.83,-27.3 -12.17,-54.49 -18.11,-81.77 -3.27,0 -6.54,0.01 -9.81,-0.01 -5.07,23.3 -10.61,46.5 -15.39,69.85 -7.5,0.25 -15,0.01 -22.5,0.14 -0.1,-23.33 0.22,-46.67 -0.16,-69.99 -3.89,0.02 -7.78,0.02 -11.67,0 m 83.5,0.01 c 0,27.26 0,54.52 0,81.78 3.91,-0.05 7.83,0.21 11.73,-0.23 -0.09,-11.53 0,-23.06 -0.05,-34.59 2.33,0 4.67,0 7.01,0.01 3.4,11.57 7.21,23.02 10.67,34.57 4.18,0.48 8.39,0.16 12.58,0.24 -4.13,-12.44 -8.46,-24.81 -12.58,-37.26 4.46,-2.68 7.97,-7.01 9.1,-12.14 1.57,-7.24 1.32,-15.11 -1.52,-22.01 -2.59,-6.33 -9.34,-10.02 -15.97,-10.28 -6.99,-0.21 -13.98,-0.03 -20.97,-0.09 M 24.67,113 c 0,12.34 -0.01,24.67 0,37 3.11,0 6.22,0 9.33,0 0.04,-8.03 -0.09,-16.07 0.07,-24.1 4.98,7.9 9.51,16.07 14.32,24.08 4.09,0.03 8.17,0.02 12.26,0.01 -0.01,-12.33 -0.01,-24.65 0,-36.98 C 57.5,113 54.35,113 51.21,113 c 0,8.04 -0.02,16.08 0.01,24.13 -4.55,-8.01 -9.14,-15.99 -13.58,-24.06 -4.32,-0.13 -8.65,-0.06 -12.97,-0.07 m 310.22,12.18 c -1.17,2.36 -2.42,4.68 -3.67,6.99 1.91,0.97 3.84,1.91 5.76,2.88 3.42,-3.33 6.82,-6.68 10.25,-10.01 7.19,-1.31 14.35,-2.78 21.52,-4.18 -3.33,2.81 -6.95,5.29 -10.03,8.38 3.72,0.55 7.44,1.09 11.17,1.59 -2.36,2.39 -4.72,4.77 -7.09,7.13 -3.12,0.15 -6.23,0.39 -9.33,0.64 -1.53,1.4 -3.07,2.8 -4.6,4.2 -2.89,-1.23 -5.56,-3.6 -8.89,-3.28 -1.23,0.18 -3.76,-0.44 -3.45,1.59 -0.25,6.44 -0.58,12.9 -0.64,19.35 1.13,0.49 2.25,1.01 3.36,1.56 3.46,-0.98 6.77,-2.37 10.13,-3.61 -0.08,3.54 -0.17,7.07 -0.28,10.61 12.05,-10.26 23.82,-20.85 35.89,-31.09 2.03,-1.93 5.01,-2.23 7.2,-3.86 1.37,-3.34 2.18,-6.89 3.44,-10.27 -1.64,-3.24 -3.34,-6.45 -4.94,-9.71 -1.86,0.06 -3.71,0.11 -5.56,0.2 -1.51,3.9 -3.09,7.76 -4.64,11.65 -3.12,-4.14 -6.2,-8.32 -9.29,-12.48 -12.05,4.07 -24.29,7.57 -36.31,11.72 M 38.84,165.25 c -3.47,0.25 -6.96,0.04 -10.44,0.09 0.02,13.22 0.01,26.43 0,39.65 9.7,0.02 19.39,0 29.09,0.01 0,-2.95 0,-5.89 0,-8.84 -5.92,0.03 -11.83,0.01 -17.75,0.01 0,-2.45 0,-4.9 0,-7.34 5.75,0 11.5,-0.01 17.25,0 C 57,186.22 57,183.61 57,181 c -5.75,0 -11.5,0 -17.25,0 0,-2.21 -0.01,-4.42 -0.03,-6.63 5.74,-0.09 11.47,0.13 17.2,-0.09 1.33,-2.57 0.22,-6.03 0.58,-8.94 -3.16,0.01 -6.33,0.01 -9.49,-0.01 -0.01,-1.85 -0.01,-3.71 -0.03,-5.56 -3.17,1.62 -6,3.81 -9.14,5.48 z"
       id="path5"
       style="fill:#000000" />
    <path
       d="m 107.95,112.66 c 4.34,0.27 9.78,-1.14 13.06,2.53 2.73,4.06 1.99,9.18 2.1,13.81 -0.19,3.4 -0.08,7.72 -3.28,9.84 -3.53,2.21 -7.94,1.19 -11.88,1.45 0,-9.21 0,-18.42 0,-27.63 z"
       id="path7"
       style="fill:#000000" />
    <path
       d="m 157.33,113.44 c 3.1,-1.45 7.23,-0.95 9.6,1.64 1.77,1.78 1.87,4.52 2.07,6.88 0.02,13.35 -0.02,26.69 0.01,40.04 0.09,3.19 -0.56,6.85 -3.28,8.89 -2.9,1.66 -6.55,1.64 -9.45,0 -3.09,-2.26 -3.24,-6.42 -3.29,-9.89 0.03,-12.71 -0.02,-25.41 0.02,-38.11 0.06,-3.53 0.52,-7.96 4.32,-9.45 z"
       id="path9"
       style="fill:#000000" />
    <path
       d="m 284.69,112.65 c 4.27,0.26 9.17,-0.88 12.87,1.84 3.26,2.83 2.94,7.6 3.02,11.53 -0.04,3.83 -0.15,8.55 -3.78,10.85 -3.78,1.82 -8.07,1.03 -12.11,1.18 0,-8.47 0.01,-16.93 0,-25.4 z"
       id="path11"
       style="fill:#000000" />
    <path
       d="m 238.29,154.61 c 1.96,-9.9 3.73,-19.83 5.77,-29.71 1.94,9.9 3.96,19.79 5.74,29.72 -3.84,-0.06 -7.67,-0.05 -11.51,-0.01 z"
       id="path13"
       style="fill:#000000" />
  </g>
  <g
     transform="matrix(0.07827789,0,0,0.07827789,0,0.56047)"
     id="#ffffffff">
    <path
       d="m 22.21,32 c -0.24,-9.56 7.31,-18.48 16.73,-19.97 8.16,-1.62 16.63,2.53 21.12,9.37 -3.15,2.06 -6.45,3.86 -9.57,5.97 -1.66,-1.58 -3.26,-3.5 -5.61,-4 -5.03,-1.66 -10.78,2.41 -11.26,7.61 -0.65,4.54 2.77,9.16 7.3,9.89 3.65,0.9 7.13,-1.25 9.33,-4.03 3.37,1.77 6.55,3.89 9.82,5.83 -4.49,6.74 -12.86,11 -20.96,9.38 C 29.58,50.65 21.94,41.64 22.21,32 z"
       id="path16"
       style="fill:#ffffff" />
    <path
       d="m 350.59,52.73 c 12.76,-1.49 25.52,-3.02 38.27,-4.62 4.63,12.06 8.72,24.33 13.17,36.47 12.72,0.01 25.44,-0.03 38.16,0.02 -2.57,3.61 -4.46,7.87 -8.1,10.57 -6.17,5.1 -12.24,10.3 -18.44,15.36 -0.12,6.19 -0.64,12.36 -1.67,18.46 3.29,0.27 6.59,0.58 9.86,1.08 4.99,12.22 9.63,24.57 14.59,36.79 0.33,0.81 0.76,1.57 1.29,2.28 12.43,14.63 25.19,29 37.45,43.77 -14.18,-12.19 -28.1,-24.69 -42.23,-36.93 -1.34,-1.05 -1.93,-2.67 -2.59,-4.16 -5.41,-12.68 -11.16,-25.2 -16.54,-37.89 -2.88,-0.8 -5.74,-1.68 -8.63,-2.44 0.73,-7.07 1.52,-14.19 0.23,-21.26 8,-7.15 16.34,-13.9 24.58,-20.77 -10.63,-0.14 -21.24,-0.69 -31.87,-0.66 -4.58,-10.89 -8.46,-22.08 -12.84,-33.06 -12.41,1.23 -24.86,1.98 -37.26,3.24 -7.77,2.25 -15.49,4.71 -23.26,6.99 5.13,-3.37 10.8,-5.8 16.08,-8.92 3.19,-1.54 6.12,-3.92 9.75,-4.32 z"
       id="path18"
       style="fill:#ffffff" />
    <path
       d="M 37.2,65.01 C 41.63,64.99 46.06,65 50.49,65 c 0,11 0,22 0,33 C 46.06,98 41.63,98.01 37.2,97.99 37.21,87 37.21,76 37.2,65.01 z"
       id="path20"
       style="fill:#ffffff" />
    <path
       d="m 155.54,101.61 c 6.58,-1.63 14.25,-0.35 19.13,4.62 4.07,3.68 6.07,9.27 5.97,14.7 -0.02,14.69 0.04,29.39 -0.03,44.09 -0.06,7 -4.18,13.91 -10.63,16.84 -8.3,4.31 -19.54,1.8 -24.99,-5.86 -2.7,-3.74 -3.66,-8.46 -3.59,-13 0.04,-14.34 -0.03,-28.69 0.03,-43.03 -0.07,-8.37 5.95,-16.36 14.11,-18.36 m 1.79,11.83 c -3.8,1.49 -4.26,5.92 -4.32,9.45 -0.04,12.7 0.01,25.4 -0.02,38.11 0.05,3.47 0.2,7.63 3.29,9.89 2.9,1.64 6.55,1.66 9.45,0 2.72,-2.04 3.37,-5.7 3.28,-8.89 -0.03,-13.35 0.01,-26.69 -0.01,-40.04 -0.2,-2.36 -0.3,-5.1 -2.07,-6.88 -2.37,-2.59 -6.5,-3.09 -9.6,-1.64 z"
       id="path22"
       style="fill:#ffffff" />
    <path
       d="m 96.2,101.52 c 6.92,0.11 13.85,-0.21 20.76,0.16 7.69,0.45 14.73,6.28 16.31,13.87 1.1,5.75 0.88,11.67 0.59,17.49 -0.37,6.23 -3.48,12.54 -8.98,15.76 -5.09,2.98 -11.23,2.64 -16.91,2.61 -0.05,10.63 -0.01,21.27 -0.02,31.9 -3.92,-0.01 -7.83,-0.01 -11.75,0.01 0,-27.27 0.01,-54.54 0,-81.8 m 11.75,11.14 c 0,9.21 0,18.42 0,27.63 3.94,-0.26 8.35,0.76 11.88,-1.45 3.2,-2.12 3.09,-6.44 3.28,-9.84 -0.11,-4.63 0.63,-9.75 -2.1,-13.81 -3.28,-3.67 -8.72,-2.26 -13.06,-2.53 z"
       id="path24"
       style="fill:#ffffff" />
    <path
       d="m 189.5,101.51 c 3.89,0.02 7.78,0.02 11.67,0 0.38,23.32 0.06,46.66 0.16,69.99 7.5,-0.13 15,0.11 22.5,-0.14 4.78,-23.35 10.32,-46.55 15.39,-69.85 3.27,0.02 6.54,0.01 9.81,0.01 5.94,27.28 12.28,54.47 18.11,81.77 -3.92,-0.04 -7.84,0.21 -11.74,-0.22 -1.02,-5.8 -2.29,-11.56 -3.34,-17.36 -5.31,0 -10.62,-0.01 -15.93,0.01 -1.02,5.89 -2.26,11.73 -3.41,17.59 -14.4,-0.01 -28.81,0.12 -43.21,-0.14 0,-27.22 0.02,-54.44 -0.01,-81.66 m 48.79,53.1 c 3.84,-0.04 7.67,-0.05 11.51,0.01 -1.78,-9.93 -3.8,-19.82 -5.74,-29.72 -2.04,9.88 -3.81,19.81 -5.77,29.71 z"
       id="path26"
       style="fill:#ffffff" />
    <path
       d="m 273,101.52 c 6.99,0.06 13.98,-0.12 20.97,0.09 6.63,0.26 13.38,3.95 15.97,10.28 2.84,6.9 3.09,14.77 1.52,22.01 -1.13,5.13 -4.64,9.46 -9.1,12.14 4.12,12.45 8.45,24.82 12.58,37.26 -4.19,-0.08 -8.4,0.24 -12.58,-0.24 -3.46,-11.55 -7.27,-23 -10.67,-34.57 -2.34,-0.01 -4.68,-0.01 -7.01,-0.01 0.05,11.53 -0.04,23.06 0.05,34.59 -3.9,0.44 -7.82,0.18 -11.73,0.23 0,-27.26 0,-54.52 0,-81.78 m 11.69,11.13 c 0.01,8.47 0,16.93 0,25.4 4.04,-0.15 8.33,0.64 12.11,-1.18 3.63,-2.3 3.74,-7.02 3.78,-10.85 -0.08,-3.93 0.24,-8.7 -3.02,-11.53 -3.7,-2.72 -8.6,-1.58 -12.87,-1.84 z"
       id="path28"
       style="fill:#ffffff" />
    <path
       d="m 24.67,113 c 4.32,0.01 8.65,-0.06 12.97,0.07 4.44,8.07 9.03,16.05 13.58,24.06 -0.03,-8.05 -0.01,-16.09 -0.01,-24.13 3.14,0 6.29,0 9.44,0.01 -0.01,12.33 -0.01,24.65 0,36.98 -4.09,0.01 -8.17,0.02 -12.26,-0.01 -4.81,-8.01 -9.34,-16.18 -14.32,-24.08 -0.16,8.03 -0.03,16.07 -0.07,24.1 -3.11,0 -6.22,0 -9.33,0 -0.01,-12.33 0,-24.66 0,-37 z"
       id="path30"
       style="fill:#ffffff" />
    <path
       d="m 38.84,165.25 c 3.14,-1.67 5.97,-3.86 9.14,-5.48 0.02,1.85 0.02,3.71 0.03,5.56 3.16,0.02 6.33,0.02 9.49,0.01 -0.36,2.91 0.75,6.37 -0.58,8.94 -5.73,0.22 -11.46,0 -17.2,0.09 0.02,2.21 0.03,4.42 0.03,6.63 5.75,0 11.5,0 17.25,0 0,2.61 0,5.22 -0.01,7.83 -5.75,-0.01 -11.5,0 -17.25,0 0,2.44 0,4.89 0,7.34 5.92,0 11.83,0.02 17.75,-0.01 0,2.95 0,5.89 0,8.84 -9.7,-0.01 -19.39,0.01 -29.09,-0.01 0.01,-13.22 0.02,-26.43 0,-39.65 3.48,-0.05 6.97,0.16 10.44,-0.09 z"
       id="path32"
       style="fill:#ffffff" />
  </g>
  <g
     transform="matrix(0.07827789,0,0,0.07827789,0,0.56047)"
     id="#ffdd00ff">
    <path
       d="m 359.35,85.2 c 8.3,-3.84 16.86,-7.14 25.29,-10.72 1.72,4.44 3.73,8.76 5.47,13.2 -7.74,3.52 -15.54,6.89 -23.27,10.43 -3.37,1.64 -7.16,1.91 -10.78,2.68 -8.46,1.71 -16.99,3.02 -25.41,4.95 7.29,-4.38 15.46,-7.08 22.92,-11.13 2.3,-2.9 3.44,-6.54 5.78,-9.41 z"
       id="path35"
       style="fill:#ffdd00" />
    <path
       d="m 334.89,125.18 c 12.02,-4.15 24.26,-7.65 36.31,-11.72 3.09,4.16 6.17,8.34 9.29,12.48 1.55,-3.89 3.13,-7.75 4.64,-11.65 1.85,-0.09 3.7,-0.14 5.56,-0.2 1.6,3.26 3.3,6.47 4.94,9.71 -1.26,3.38 -2.07,6.93 -3.44,10.27 -2.19,1.63 -5.17,1.93 -7.2,3.86 -12.07,10.24 -23.84,20.83 -35.89,31.09 0.11,-3.54 0.2,-7.07 0.28,-10.61 -3.36,1.24 -6.67,2.63 -10.13,3.61 -1.11,-0.55 -2.23,-1.07 -3.36,-1.56 0.06,-6.45 0.39,-12.91 0.64,-19.35 -0.31,-2.03 2.22,-1.41 3.45,-1.59 3.33,-0.32 6,2.05 8.89,3.28 1.53,-1.4 3.07,-2.8 4.6,-4.2 3.1,-0.25 6.21,-0.49 9.33,-0.64 2.37,-2.36 4.73,-4.74 7.09,-7.13 -3.73,-0.5 -7.45,-1.04 -11.17,-1.59 3.08,-3.09 6.7,-5.57 10.03,-8.38 -7.17,1.4 -14.33,2.87 -21.52,4.18 -3.43,3.33 -6.83,6.68 -10.25,10.01 -1.92,-0.97 -3.85,-1.91 -5.76,-2.88 1.25,-2.31 2.5,-4.63 3.67,-6.99 z"
       id="path37"
       style="fill:#ffdd00" />
  </g>
  <g
     transform="matrix(0.07827789,0,0,0.07827789,0,0.56047)"
     id="#df1e2fff">
    <path
       d="m 0,223 c 27.67,0 55.33,0 83,0 0,18.66 0,37.33 0,56 l -83,0 0,-56 z"
       id="path40"
       style="fill:#df1e2f" />
  </g>
</svg>
