<?xml version="1.0" encoding="UTF-8" standalone="no"?>
<!-- Generator: Adobe Illustrator 15.0.0, SVG Export Plug-In . SVG Version: 6.00 Build 0)  -->

<svg
   xmlns:dc="http://purl.org/dc/elements/1.1/"
   xmlns:cc="http://creativecommons.org/ns#"
   xmlns:rdf="http://www.w3.org/1999/02/22-rdf-syntax-ns#"
   xmlns:svg="http://www.w3.org/2000/svg"
   xmlns="http://www.w3.org/2000/svg"
   xmlns:sodipodi="http://sodipodi.sourceforge.net/DTD/sodipodi-0.dtd"
   xmlns:inkscape="http://www.inkscape.org/namespaces/inkscape"
   version="1.1"
   id="Calque_1"
   x="0px"
   y="0px"
   width="50"
   height="45"
   viewBox="0 0 49.999999 44.999999"
   xml:space="preserve"
   inkscape:version="0.48.3.1 r9886"
   sodipodi:docname="ComediePlus.svg"><metadata
   id="metadata3083"><rdf:RDF><cc:Work
       rdf:about=""><dc:format>image/svg+xml</dc:format><dc:type
         rdf:resource="http://purl.org/dc/dcmitype/StillImage" /><dc:title></dc:title></cc:Work></rdf:RDF></metadata><defs
   id="defs3081" /><sodipodi:namedview
   pagecolor="#ffffff"
   bordercolor="#666666"
   borderopacity="1"
   objecttolerance="10"
   gridtolerance="10"
   guidetolerance="10"
   inkscape:pageopacity="0"
   inkscape:pageshadow="2"
   inkscape:window-width="1216"
   inkscape:window-height="749"
   id="namedview3079"
   showgrid="false"
   inkscape:zoom="1.3342228"
   inkscape:cx="98.656502"
   inkscape:cy="88.441002"
   inkscape:window-x="0"
   inkscape:window-y="0"
   inkscape:window-maximized="0"
   inkscape:current-layer="Calque_1" />
<style
   type="text/css"
   id="style3031">

	.st0{fill:#4D454A;}
	.st1{fill:#F15B40;}
	.st2{fill:#F58220;}
	.st3{fill:#FAA74A;}
	.st4{fill:#FFFFFF;}
	.st5{fill:none;}

</style>
<g
   id="g3033"
   transform="matrix(0.25340448,0,0,0.25340448,0,0.17730885)">
	<g
   id="g3035">
		<polygon
   class="st5"
   points="111.242,158.846 111.005,160.146 111.243,158.846 "
   id="polygon3037"
   style="fill:none" />
		<polygon
   class="st3"
   points="111.005,160.146 110.433,163.257 110.436,163.258 "
   id="polygon3039"
   style="fill:#faa74a" />
	</g>
	<g
   id="g3041">
		<polygon
   class="st2"
   points="74.53,4.134 137.82,14.321 108.699,172.689 116.082,174.234 146.031,11.453 74.834,0 "
   id="polygon3043"
   style="fill:#f58220" />
		<polygon
   class="st3"
   points="66.621,2.861 54.645,165.738 107.928,176.882 108.699,172.689 62.842,163.099 74.53,4.134 "
   id="polygon3045"
   style="fill:#faa74a" />
		<path
   class="st1"
   d="M 74.53,4.134 62.842,163.099 108.699,172.69 137.82,14.321 74.53,4.134 z m 8.52,15.847 7.917,1.186 0.298,-4.05 38.339,5.729 -16.431,74.474 -3.409,-0.716 -3.84,-0.799 -0.967,4.379 -24.265,-5.076 -3.118,-0.653 5.476,-74.474 z m 32.073,105.634 c -0.801,5.49 -3.158,9.998 -6.544,13.147 -2.92,2.712 -6.603,4.405 -10.724,4.819 -3.817,2.482 -8.539,3.517 -13.659,2.691 -5.789,-0.927 -10.423,-3.828 -13.351,-7.977 -2.813,-3.983 -4.055,-9.105 -3.231,-14.728 1.43,-9.779 8.432,-16.564 17.373,-17.567 2.595,-1.642 5.589,-2.666 8.831,-2.928 1.675,-0.139 3.418,-0.075 5.208,0.211 2.584,0.413 4.917,1.214 6.961,2.337 6.857,3.758 10.431,11.15 9.136,19.995 z"
   id="path3047"
   inkscape:connector-curvature="0"
   style="fill:#f15b40" />
		<polygon
   class="st3"
   points="121.388,25.708 120.235,30.924 105.924,95.805 109.764,96.604 113.173,97.319 129.604,22.846 91.265,17.117 90.967,21.167 "
   id="polygon3049"
   style="fill:#faa74a" />
		<polygon
   class="st2"
   points="80.692,95.107 104.957,100.184 105.924,95.805 85.792,91.593 90.576,26.492 90.967,21.167 83.05,19.981 77.574,94.454 "
   id="polygon3051"
   style="fill:#f58220" />
		<path
   class="st2"
   d="m 92.411,143.413 c -11.349,-1.818 -18.264,-11.23 -16.582,-22.711 0.203,-1.37 0.515,-2.683 0.925,-3.929 1.536,-4.652 4.454,-8.376 8.233,-10.771 -8.941,1.003 -15.943,7.788 -17.373,17.567 -0.823,5.622 0.419,10.744 3.231,14.728 2.928,4.148 7.562,7.05 13.351,7.977 5.12,0.825 9.842,-0.209 13.659,-2.691 -1.743,0.18 -3.563,0.134 -5.444,-0.17 z"
   id="path3053"
   inkscape:connector-curvature="0"
   style="fill:#f58220" />
		<path
   class="st3"
   d="m 105.987,105.622 c -2.044,-1.123 -4.377,-1.924 -6.961,-2.337 -1.79,-0.286 -3.533,-0.35 -5.208,-0.211 -3.242,0.262 -6.236,1.286 -8.831,2.928 1.867,-0.21 3.82,-0.174 5.826,0.149 8.095,1.295 13.747,6.343 15.653,13.349 0.74,2.729 0.914,5.76 0.443,8.976 -0.989,6.762 -4.333,12.044 -9.055,15.106 4.121,-0.414 7.804,-2.107 10.724,-4.819 3.386,-3.149 5.743,-7.657 6.544,-13.147 1.296,-8.846 -2.278,-16.238 -9.135,-19.994 z"
   id="path3055"
   inkscape:connector-curvature="0"
   style="fill:#faa74a" />
	</g>
	<g
   id="g3057">
		<rect
   y="115.643"
   class="st0"
   width="197.313"
   height="40.819"
   id="rect3059"
   x="0"
   style="fill:#4d454a" />
		<g
   id="g3061">
			<path
   class="st4"
   d="m 26.637,145.635 c 0,0.335 -0.273,0.607 -0.852,0.82 -1.607,0.546 -3.094,0.82 -4.49,0.82 -2.096,0 -4.098,-0.518 -6.037,-1.579 -3.887,-2.154 -6.041,-5.767 -6.041,-10.229 0,-2.459 0.668,-4.671 1.971,-6.675 1.336,-2.003 3.127,-3.491 5.373,-4.433 1.455,-0.638 3.004,-0.938 4.674,-0.938 1.121,0 2.336,0.18 3.641,0.513 0.395,0.092 0.697,0.214 0.971,0.333 l 0.336,0.154 c 0.271,0.12 0.424,0.333 0.424,0.605 v 5.859 c 0,0.15 -0.061,0.211 -0.152,0.211 -0.031,0 -0.121,-0.061 -0.271,-0.152 -0.455,-0.454 -1.125,-0.817 -2.004,-1.122 -0.939,-0.333 -1.791,-0.485 -2.52,-0.485 -2.643,0 -4.854,1.395 -5.855,3.733 -0.334,0.758 -0.486,1.578 -0.486,2.459 0,1.729 0.637,3.123 1.912,4.216 1.184,1.001 2.639,1.52 4.369,1.52 1.973,0 3.492,-0.547 4.611,-1.672 0.092,-0.122 0.184,-0.181 0.244,-0.181 0.121,0 0.184,0.181 0.184,0.576 v 5.647 z"
   id="path3063"
   inkscape:connector-curvature="0"
   style="fill:#ffffff" />
			<path
   class="st4"
   d="m 45.066,145.119 c -1.76,1.428 -3.914,2.124 -6.494,2.124 -2.699,0 -4.916,-0.76 -6.678,-2.276 -1.758,-1.547 -2.639,-3.489 -2.639,-5.827 0,-2.58 0.91,-4.672 2.762,-6.22 1.729,-1.458 3.883,-2.187 6.463,-2.187 2.764,0 5.039,0.759 6.77,2.309 1.758,1.547 2.639,3.518 2.639,5.948 0,2.578 -0.94,4.613 -2.823,6.129 z m -4.003,-8.651 c -0.701,-0.695 -1.52,-1.027 -2.49,-1.027 -0.97,0 -1.791,0.332 -2.488,1.027 -0.699,0.701 -1.031,1.521 -1.031,2.459 0,1.977 1.549,3.551 3.52,3.551 0.971,0 1.789,-0.332 2.49,-1.028 0.695,-0.701 1.027,-1.52 1.027,-2.49 -10e-4,-1.004 -0.333,-1.821 -1.028,-2.492 z"
   id="path3065"
   inkscape:connector-curvature="0"
   style="fill:#ffffff" />
			<path
   class="st4"
   d="m 71.754,146.666 v -7.585 c 0,-1.063 -0.064,-1.729 -0.156,-2.034 -0.453,-1.305 -1.211,-1.759 -2.152,-1.759 -1.334,0 -2.367,1.061 -2.518,2.363 -0.064,0.366 -0.092,0.851 -0.092,1.43 v 7.585 h -5.463 v -7.585 c 0,-1.125 -0.031,-1.793 -0.092,-2.064 -0.336,-1.061 -1.215,-1.851 -2.307,-1.851 -0.818,0 -1.76,0.576 -2.125,1.302 -0.271,0.519 -0.393,1.397 -0.393,2.613 v 7.585 h -5.463 v -15.354 h 5.463 v 1.879 c 0.15,-0.119 0.363,-0.332 0.666,-0.606 1.215,-1.001 2.672,-1.517 4.369,-1.517 2.277,0 4.039,0.939 5.252,2.853 1.213,-1.913 2.941,-2.883 5.221,-2.883 2.031,0 3.488,0.698 4.398,2.063 0.578,0.852 0.852,2.035 0.852,3.581 v 9.984 h -5.46 z"
   id="path3067"
   inkscape:connector-curvature="0"
   style="fill:#ffffff" />
			<path
   class="st4"
   d="m 85.848,139.99 c 0.031,2.305 1.154,3.46 3.34,3.46 1.152,0 2.031,-0.484 2.668,-1.455 h 5.281 c -0.334,1.15 -0.818,2.063 -1.395,2.73 -1.486,1.699 -3.703,2.55 -6.586,2.55 -2.67,0 -4.824,-0.729 -6.432,-2.217 -1.611,-1.488 -2.398,-3.49 -2.398,-5.949 0,-2.518 0.76,-4.521 2.307,-6.009 1.547,-1.483 3.67,-2.213 6.309,-2.213 2.643,0 4.676,0.757 6.162,2.276 1.486,1.517 2.246,3.608 2.246,6.25 v 0.576 H 85.848 z m 6.433,-3.156 c -0.426,-1.638 -1.484,-2.458 -3.184,-2.458 -1.73,0 -2.764,0.82 -3.098,2.458 h 6.282 z m -3.427,-7.768 -2.52,-1.852 4.311,-5.249 3.459,2.485 -5.25,4.616 z"
   id="path3069"
   inkscape:connector-curvature="0"
   style="fill:#ffffff" />
			<path
   class="st4"
   d="m 112.443,146.666 v -1.699 c -0.271,0.333 -0.455,0.546 -0.576,0.668 -1.063,1.003 -2.459,1.519 -4.189,1.519 -2.275,0 -4.127,-0.789 -5.613,-2.399 -1.488,-1.608 -2.215,-3.519 -2.215,-5.795 0,-2.245 0.727,-4.156 2.215,-5.736 1.486,-1.605 3.338,-2.398 5.555,-2.398 1.455,0 2.668,0.305 3.641,0.942 0.332,0.214 0.729,0.577 1.184,1.062 v -8.923 h 5.463 v 22.761 h -5.465 z m -3.369,-11.165 c -0.973,0 -1.793,0.333 -2.488,1.03 -0.699,0.666 -1.033,1.486 -1.033,2.428 0,1.972 1.549,3.519 3.521,3.519 1.941,0 3.521,-1.547 3.521,-3.487 0.001,-1.944 -1.579,-3.49 -3.521,-3.49 z"
   id="path3071"
   inkscape:connector-curvature="0"
   style="fill:#ffffff" />
			<path
   class="st4"
   d="m 124.35,129.796 c -0.818,0 -1.547,-0.305 -2.154,-0.884 -0.607,-0.604 -0.91,-1.303 -0.91,-2.122 0,-1.729 1.367,-3.096 3.064,-3.096 1.699,0 3.096,1.366 3.096,3.063 -0.001,1.7 -1.426,3.039 -3.096,3.039 z m -2.731,16.87 v -15.354 h 5.463 v 15.354 h -5.463 z"
   id="path3073"
   inkscape:connector-curvature="0"
   style="fill:#ffffff" />
			<path
   class="st4"
   d="m 135.734,139.99 c 0.031,2.305 1.152,3.46 3.338,3.46 1.154,0 2.035,-0.484 2.67,-1.455 h 5.281 c -0.334,1.15 -0.818,2.063 -1.398,2.73 -1.482,1.699 -3.699,2.55 -6.582,2.55 -2.67,0 -4.824,-0.729 -6.432,-2.217 -1.611,-1.488 -2.398,-3.49 -2.398,-5.949 0,-2.518 0.76,-4.521 2.305,-6.009 1.547,-1.483 3.672,-2.213 6.311,-2.213 2.643,0 4.676,0.757 6.162,2.276 1.486,1.517 2.246,3.608 2.246,6.25 v 0.576 h -11.503 z m 6.432,-3.156 c -0.424,-1.638 -1.482,-2.458 -3.186,-2.458 -1.729,0 -2.76,0.82 -3.096,2.458 h 6.282 z"
   id="path3075"
   inkscape:connector-curvature="0"
   style="fill:#ffffff" />
		</g>
		<path
   class="st4"
   d="m 180.531,138.353 v 8.191 c 0,0.308 -0.061,0.431 -0.305,0.431 h -6.244 c -0.211,0 -0.338,-0.155 -0.338,-0.369 v -8.192 c 0,-0.335 -0.117,-0.456 -0.393,-0.456 h -8.1 c -0.244,0 -0.365,-0.152 -0.365,-0.426 v -6.211 c 0,-0.244 0.092,-0.363 0.338,-0.363 h 8.158 c 0.244,0 0.361,-0.121 0.361,-0.397 v -7.034 c 0,-0.184 0.127,-0.306 0.307,-0.306 h 6.215 c 0.244,0 0.365,0.092 0.365,0.306 v 7.034 c 0,0.332 0.063,0.397 0.336,0.397 h 8.164 c 0.24,0 0.332,0.119 0.332,0.394 v 6.242 c 0,0.212 -0.119,0.364 -0.332,0.364 h -8.074 c -0.333,-0.001 -0.425,0.063 -0.425,0.395 z"
   id="path3077"
   inkscape:connector-curvature="0"
   style="fill:#ffffff" />
	</g>
</g>
</svg>