<?xml version="1.0" encoding="iso-8859-1"?>
<!-- Generator: Adobe Illustrator 15.0.0, SVG Export Plug-In . SVG Version: 6.00 Build 0)  -->
<!DOCTYPE svg PUBLIC "-//W3C//DTD SVG 1.1//EN" "http://www.w3.org/Graphics/SVG/1.1/DTD/svg11.dtd" [
	<!ENTITY ns_flows "http://ns.adobe.com/Flows/1.0/">
	<!ENTITY ns_extend "http://ns.adobe.com/Extensibility/1.0/">
	<!ENTITY ns_ai "http://ns.adobe.com/AdobeIllustrator/10.0/">
	<!ENTITY ns_graphs "http://ns.adobe.com/Graphs/1.0/">
]>
<svg version="1.1" id="Calque_1" xmlns:x="&ns_extend;" xmlns:i="&ns_ai;" xmlns:graph="&ns_graphs;"
	 xmlns="http://www.w3.org/2000/svg" xmlns:xlink="http://www.w3.org/1999/xlink" xmlns:a="http://ns.adobe.com/AdobeSVGViewerExtensions/3.0/"
	 x="0px" y="0px" width="197.313px" height="176.882px" viewBox="0 0 197.313 176.882"
	 style="enable-background:new 0 0 197.313 176.882;" xml:space="preserve">
<style type="text/css">
<![CDATA[
	.st0{fill:#4D454A;}
	.st1{fill:#F15B40;}
	.st2{fill:#F58220;}
	.st3{fill:#FAA74A;}
	.st4{fill:#FFFFFF;}
	.st5{fill:none;}
]]>
</style>
<g>
	<g>
		<polygon class="st5" points="111.243,158.846 111.242,158.846 111.005,160.146 		"/>
		<polygon class="st3" points="110.436,163.258 111.005,160.146 110.433,163.257 		"/>
	</g>
	<g>
		<polygon class="st2" points="74.834,0 74.53,4.134 137.82,14.321 108.699,172.689 116.082,174.234 146.031,11.453 		"/>
		<polygon class="st3" points="74.53,4.134 66.621,2.861 54.645,165.738 107.928,176.882 108.699,172.689 62.842,163.099 		"/>
		<path class="st1" d="M74.53,4.134L62.842,163.099l45.857,9.591L137.82,14.321L74.53,4.134z M83.05,19.981l7.917,1.186l0.298-4.05
			l38.339,5.729l-16.431,74.474l-3.409-0.716l-3.84-0.799l-0.967,4.379l-24.265-5.076l-3.118-0.653L83.05,19.981z M115.123,125.615
			c-0.801,5.49-3.158,9.998-6.544,13.147c-2.92,2.712-6.603,4.405-10.724,4.819c-3.817,2.482-8.539,3.517-13.659,2.691
			c-5.789-0.927-10.423-3.828-13.351-7.977c-2.813-3.983-4.055-9.105-3.231-14.728c1.43-9.779,8.432-16.564,17.373-17.567
			c2.595-1.642,5.589-2.666,8.831-2.928c1.675-0.139,3.418-0.075,5.208,0.211c2.584,0.413,4.917,1.214,6.961,2.337
			C112.844,109.378,116.418,116.77,115.123,125.615z"/>
		<polygon class="st3" points="120.235,30.924 105.924,95.805 109.764,96.604 113.173,97.319 129.604,22.846 91.265,17.117 
			90.967,21.167 121.388,25.708 		"/>
		<polygon class="st2" points="104.957,100.184 105.924,95.805 85.792,91.593 90.576,26.492 90.967,21.167 83.05,19.981 
			77.574,94.454 80.692,95.107 		"/>
		<path class="st2" d="M92.411,143.413c-11.349-1.818-18.264-11.23-16.582-22.711c0.203-1.37,0.515-2.683,0.925-3.929
			c1.536-4.652,4.454-8.376,8.233-10.771c-8.941,1.003-15.943,7.788-17.373,17.567c-0.823,5.622,0.419,10.744,3.231,14.728
			c2.928,4.148,7.562,7.05,13.351,7.977c5.12,0.825,9.842-0.209,13.659-2.691C96.112,143.763,94.292,143.717,92.411,143.413z"/>
		<path class="st3" d="M105.987,105.622c-2.044-1.123-4.377-1.924-6.961-2.337c-1.79-0.286-3.533-0.35-5.208-0.211
			c-3.242,0.262-6.236,1.286-8.831,2.928c1.867-0.21,3.82-0.174,5.826,0.149c8.095,1.295,13.747,6.343,15.653,13.349
			c0.74,2.729,0.914,5.76,0.443,8.976c-0.989,6.762-4.333,12.044-9.055,15.106c4.121-0.414,7.804-2.107,10.724-4.819
			c3.386-3.149,5.743-7.657,6.544-13.147C116.418,116.77,112.844,109.378,105.987,105.622z"/>
	</g>
	<g>
		<rect y="115.643" class="st0" width="197.313" height="40.819"/>
		<g>
			<path class="st4" d="M26.637,145.635c0,0.335-0.273,0.607-0.852,0.82c-1.607,0.546-3.094,0.82-4.49,0.82
				c-2.096,0-4.098-0.518-6.037-1.579c-3.887-2.154-6.041-5.767-6.041-10.229c0-2.459,0.668-4.671,1.971-6.675
				c1.336-2.003,3.127-3.491,5.373-4.433c1.455-0.638,3.004-0.938,4.674-0.938c1.121,0,2.336,0.18,3.641,0.513
				c0.395,0.092,0.697,0.214,0.971,0.333l0.336,0.154c0.271,0.12,0.424,0.333,0.424,0.605v5.859c0,0.15-0.061,0.211-0.152,0.211
				c-0.031,0-0.121-0.061-0.271-0.152c-0.455-0.454-1.125-0.817-2.004-1.122c-0.939-0.333-1.791-0.485-2.52-0.485
				c-2.643,0-4.854,1.395-5.855,3.733c-0.334,0.758-0.486,1.578-0.486,2.459c0,1.729,0.637,3.123,1.912,4.216
				c1.184,1.001,2.639,1.52,4.369,1.52c1.973,0,3.492-0.547,4.611-1.672c0.092-0.122,0.184-0.181,0.244-0.181
				c0.121,0,0.184,0.181,0.184,0.576V145.635z"/>
			<path class="st4" d="M45.066,145.119c-1.76,1.428-3.914,2.124-6.494,2.124c-2.699,0-4.916-0.76-6.678-2.276
				c-1.758-1.547-2.639-3.489-2.639-5.827c0-2.58,0.91-4.672,2.762-6.22c1.729-1.458,3.883-2.187,6.463-2.187
				c2.764,0,5.039,0.759,6.77,2.309c1.758,1.547,2.639,3.518,2.639,5.948C47.889,141.568,46.949,143.603,45.066,145.119z
				 M41.063,136.468c-0.701-0.695-1.52-1.027-2.49-1.027s-1.791,0.332-2.488,1.027c-0.699,0.701-1.031,1.521-1.031,2.459
				c0,1.977,1.549,3.551,3.52,3.551c0.971,0,1.789-0.332,2.49-1.028c0.695-0.701,1.027-1.52,1.027-2.49
				C42.09,137.956,41.758,137.139,41.063,136.468z"/>
			<path class="st4" d="M71.754,146.666v-7.585c0-1.063-0.064-1.729-0.156-2.034c-0.453-1.305-1.211-1.759-2.152-1.759
				c-1.334,0-2.367,1.061-2.518,2.363c-0.064,0.366-0.092,0.851-0.092,1.43v7.585h-5.463v-7.585c0-1.125-0.031-1.793-0.092-2.064
				c-0.336-1.061-1.215-1.851-2.307-1.851c-0.818,0-1.76,0.576-2.125,1.302c-0.271,0.519-0.393,1.397-0.393,2.613v7.585h-5.463
				v-15.354h5.463v1.879c0.15-0.119,0.363-0.332,0.666-0.606c1.215-1.001,2.672-1.517,4.369-1.517c2.277,0,4.039,0.939,5.252,2.853
				c1.213-1.913,2.941-2.883,5.221-2.883c2.031,0,3.488,0.698,4.398,2.063c0.578,0.852,0.852,2.035,0.852,3.581v9.984H71.754z"/>
			<path class="st4" d="M85.848,139.99c0.031,2.305,1.154,3.46,3.34,3.46c1.152,0,2.031-0.484,2.668-1.455h5.281
				c-0.334,1.15-0.818,2.063-1.395,2.73c-1.486,1.699-3.703,2.55-6.586,2.55c-2.67,0-4.824-0.729-6.432-2.217
				c-1.611-1.488-2.398-3.49-2.398-5.949c0-2.518,0.76-4.521,2.307-6.009c1.547-1.483,3.67-2.213,6.309-2.213
				c2.643,0,4.676,0.757,6.162,2.276c1.486,1.517,2.246,3.608,2.246,6.25v0.576H85.848z M92.281,136.834
				c-0.426-1.638-1.484-2.458-3.184-2.458c-1.73,0-2.764,0.82-3.098,2.458H92.281z M88.854,129.066l-2.52-1.852l4.311-5.249
				l3.459,2.485L88.854,129.066z"/>
			<path class="st4" d="M112.443,146.666v-1.699c-0.271,0.333-0.455,0.546-0.576,0.668c-1.063,1.003-2.459,1.519-4.189,1.519
				c-2.275,0-4.127-0.789-5.613-2.399c-1.488-1.608-2.215-3.519-2.215-5.795c0-2.245,0.727-4.156,2.215-5.736
				c1.486-1.605,3.338-2.398,5.555-2.398c1.455,0,2.668,0.305,3.641,0.942c0.332,0.214,0.729,0.577,1.184,1.062v-8.923h5.463v22.761
				H112.443z M109.074,135.501c-0.973,0-1.793,0.333-2.488,1.03c-0.699,0.666-1.033,1.486-1.033,2.428
				c0,1.972,1.549,3.519,3.521,3.519c1.941,0,3.521-1.547,3.521-3.487C112.596,137.047,111.016,135.501,109.074,135.501z"/>
			<path class="st4" d="M124.35,129.796c-0.818,0-1.547-0.305-2.154-0.884c-0.607-0.604-0.91-1.303-0.91-2.122
				c0-1.729,1.367-3.096,3.064-3.096c1.699,0,3.096,1.366,3.096,3.063C127.445,128.457,126.02,129.796,124.35,129.796z
				 M121.619,146.666v-15.354h5.463v15.354H121.619z"/>
			<path class="st4" d="M135.734,139.99c0.031,2.305,1.152,3.46,3.338,3.46c1.154,0,2.035-0.484,2.67-1.455h5.281
				c-0.334,1.15-0.818,2.063-1.398,2.73c-1.482,1.699-3.699,2.55-6.582,2.55c-2.67,0-4.824-0.729-6.432-2.217
				c-1.611-1.488-2.398-3.49-2.398-5.949c0-2.518,0.76-4.521,2.305-6.009c1.547-1.483,3.672-2.213,6.311-2.213
				c2.643,0,4.676,0.757,6.162,2.276c1.486,1.517,2.246,3.608,2.246,6.25v0.576H135.734z M142.166,136.834
				c-0.424-1.638-1.482-2.458-3.186-2.458c-1.729,0-2.76,0.82-3.096,2.458H142.166z"/>
		</g>
		<path class="st4" d="M180.531,138.353v8.191c0,0.308-0.061,0.431-0.305,0.431h-6.244c-0.211,0-0.338-0.155-0.338-0.369v-8.192
			c0-0.335-0.117-0.456-0.393-0.456h-8.1c-0.244,0-0.365-0.152-0.365-0.426v-6.211c0-0.244,0.092-0.363,0.338-0.363h8.158
			c0.244,0,0.361-0.121,0.361-0.397v-7.034c0-0.184,0.127-0.306,0.307-0.306h6.215c0.244,0,0.365,0.092,0.365,0.306v7.034
			c0,0.332,0.063,0.397,0.336,0.397h8.164c0.24,0,0.332,0.119,0.332,0.394v6.242c0,0.212-0.119,0.364-0.332,0.364h-8.074
			C180.623,137.957,180.531,138.021,180.531,138.353z"/>
	</g>
</g>
</svg>
