<?xml version="1.0" encoding="UTF-8" standalone="no"?>
<!-- Created with Inkscape (http://www.inkscape.org/) -->
<svg
   xmlns:dc="http://purl.org/dc/elements/1.1/"
   xmlns:cc="http://web.resource.org/cc/"
   xmlns:rdf="http://www.w3.org/1999/02/22-rdf-syntax-ns#"
   xmlns:svg="http://www.w3.org/2000/svg"
   xmlns="http://www.w3.org/2000/svg"
   xmlns:xlink="http://www.w3.org/1999/xlink"
   xmlns:sodipodi="http://sodipodi.sourceforge.net/DTD/sodipodi-0.dtd"
   xmlns:inkscape="http://www.inkscape.org/namespaces/inkscape"
   width="495.99918"
   height="153"
   id="svg2"
   sodipodi:version="0.32"
   inkscape:version="0.45.1"
   version="1.0"
   inkscape:output_extension="org.inkscape.output.svg.inkscape">
  <g
     inkscape:label="Layer 1"
     inkscape:groupmode="layer"
     id="layer1"
     transform="translate(-548.42701,-420.56019)">
    <path
       id="path14566"
       d="M 1017.174,522.10949 L 1030.1902,528.17749 L 1041.5903,521.75709 L 1029.3674,515.97499 L 1017.174,522.10949"
       style="fill:#e05c25;fill-rule:nonzero;stroke:none" />
    <path
       id="path14568"
       d="M 1015.5375,457.59799 L 1029.7955,451.00589 L 1029.7955,520.68319 L 1016.96,515.3329 L 1015.5375,457.59799"
       style="fill:#f8c014;fill-rule:nonzero;stroke:none" />
    <path
       id="path14570"
       d="M 1044.4096,459.3804 L 1041.3801,515.87509 L 1029.7955,520.68319 L 1029.7955,451.18669 L 1044.4096,459.3804"
       style="fill:#f08421;fill-rule:nonzero;stroke:none" />
    <path
       id="path14572"
       d="M 1030.1607,528.17749 L 1030.1516,541.53699 L 1017.2829,535.47429 L 1017.1445,522.10949 L 1030.1607,528.17749"
       style="fill:#f8c014;fill-rule:nonzero;stroke:none" />
    <path
       id="path14574"
       d="M 1041.5609,521.75709 L 1041.3801,535.84329 L 1030.1607,541.53699 L 1030.1607,528.17749 L 1041.5609,521.75709"
       style="fill:#f08421;fill-rule:nonzero;stroke:none" />
    <path
       id="path14576"
       d="M 922.2629,467.62179 L 994.4032,467.62179 L 994.4032,482.44989 L 941.3955,482.44989 L 941.3955,492.75949 L 991.457,492.75949 L 991.457,505.90499 L 941.3955,505.90499 L 941.3955,517.46929 L 995.9807,517.46929 L 995.9807,532.29739 L 922.2629,532.29739 L 922.2629,467.62179"
       style="fill:#f6ad1b;fill-rule:nonzero;stroke:none" />
    <path
       id="path14578"
       d="M 891.1918,532.29739 L 910.3512,532.29739 L 910.3512,467.71019 L 891.1918,467.71019 L 891.1918,532.29739 z "
       style="fill:#f6ad1b;fill-rule:nonzero;stroke:none" />
    <g
       id="g14580"
       clip-path="url(#id196)"
       transform="matrix(5.7814289,0,0,-5.7814289,-2221.6723,2384.8965)">
        <path
   id="path14582"
   d="M 511.655,331.661 L 511.655,320.439 L 519.799,320.439 L 519.799,322.727 L 514.448,322.727 L 514.448,325.015 L 519.311,325.015 L 519.311,327.017 L 514.448,327.017 L 514.448,329.34 L 519.546,329.34 L 519.546,331.661 L 511.655,331.661"
   style="fill:#f6ad1b;fill-rule:nonzero;stroke:none" />

        <path
   id="path14584"
   d="M 513.578,334.017 L 514.25,332.871 L 518.203,333.898 L 517.096,335.835 L 513.578,334.017"
   style="fill:#f6ad1b;fill-rule:nonzero;stroke:none" />

      </g>
    <path
       id="path14586"
       d="M 643.7956,467.39489 L 671.67321,467.39489 L 684.24471,507.39029 L 697.72601,467.16799 L 725.83421,467.16799 L 725.83421,531.83989 L 708.69811,531.83989 L 709.84001,483.16749 L 691.33141,532.29739 L 677.16191,532.29739 L 660.47951,482.47939 L 660.71021,531.60919 L 643.7919,531.54649 L 643.7956,467.39489"
       style="fill:#f6ad1b;fill-rule:nonzero;stroke:none" />
    <path
       id="path14588"
       d="M 859.9528,505.96779 C 860.3309,516.20179 850.81831,516.07629 850.81831,516.07629 L 813.13091,516.07629 L 813.13091,481.24139 L 848.204,481.27469 C 859.794,480.89279 859.9528,490.6988 859.9528,490.6988 L 859.9528,505.96779 z M 880.59251,513.20189 L 880.59251,484.3465 C 880.59251,484.3465 880.28621,465.8212 858.3881,466.53879 L 792.1131,466.47609 L 792.1131,532.29739 L 863.33081,532.29739 C 863.33081,532.29739 881.30641,532.54469 880.59251,513.20189"
       style="fill:#f6ad1b;fill-rule:nonzero;stroke:none" />
    <path
       id="path14590"
       d="M 588.5479,487.14529 L 571.55021,487.14529 L 571.55021,482.67669 C 571.55021,479.38719 571.37471,477.32639 571.01331,476.50899 C 570.65711,475.68999 569.86,475.28759 568.62581,475.28759 C 567.24191,475.28759 566.35641,475.78219 565.98741,476.77669 C 565.60931,477.7711 565.42471,479.92409 565.42471,483.23029 L 565.42471,513.55429 C 565.42471,516.73119 565.60931,518.79949 565.98741,519.76439 C 566.35641,520.73319 567.19961,521.2164 568.51321,521.2164 C 569.76771,521.2164 570.58521,520.73319 570.97621,519.76059 C 571.36191,518.78659 571.55021,516.49529 571.55021,512.89559 L 571.55021,507.81449 L 588.5479,507.81449 L 588.5479,510.36979 C 588.5479,517.15389 588.07371,518.79949 587.11791,521.63529 C 586.16051,524.47649 584.04991,526.95989 580.78981,529.09629 C 577.52591,531.22729 573.49291,532.29739 568.71051,532.29739 C 563.7383,532.29739 559.63881,531.39519 556.41201,529.59989 C 553.18521,527.79559 551.04511,525.29019 550.00071,522.10569 C 548.95111,518.92119 548.42701,514.12069 548.42701,507.71319 L 548.42701,488.62679 C 548.42701,483.9185 548.59111,480.38159 548.91401,478.0275 C 549.23311,475.67329 550.19811,473.40769 551.79601,471.23049 C 553.39541,469.04419 555.61491,467.33209 558.44701,466.0813 C 561.27911,464.82669 564.53921,464.20659 568.22731,464.20659 C 573.22901,464.20659 577.34891,465.1754 580.60521,467.10149 C 583.86161,469.03519 585.48141,471.688 587.01651,474.32649 C 588.616,477.06249 588.20461,479.61779 588.5479,480.94799 L 588.5479,487.14529"
       style="fill:#f6ad1b;fill-rule:nonzero;stroke:none" />
    <path
       id="path14592"
       d="M 618.13761,487.14529 L 618.13761,512.89559 C 618.13761,516.49529 617.94551,518.78659 617.55451,519.76439 C 617.16891,520.73319 616.34611,521.2202 615.09151,521.2202 C 613.77791,521.2202 612.9438,520.73319 612.56571,519.76819 C 612.19671,518.79949 612.00311,516.73119 612.00311,513.55429 L 612.00311,483.23029 C 612.00311,479.92409 612.19671,477.7711 612.56571,476.77669 C 612.9438,475.78219 613.82031,475.28759 615.21331,475.28759 C 616.43831,475.28759 617.23541,475.68999 617.59691,476.50899 C 617.95311,477.32639 618.13761,479.38719 618.13761,482.67669 L 618.13761,487.14529 z M 633.60021,474.32649 C 632.0597,471.688 630.43991,469.03519 627.18891,467.10149 C 623.93261,465.1754 619.81261,464.20659 614.81091,464.20659 C 611.12281,464.20659 607.86271,464.82669 605.02541,466.0813 C 602.19331,467.33209 599.97381,469.04419 598.37961,471.23429 C 596.77641,473.40769 595.81151,475.67329 595.49231,478.0275 C 595.16941,480.38159 595.01061,483.9185 595.01061,488.62679 L 595.01061,507.71319 C 595.01061,514.12069 595.53471,518.92119 596.57901,522.10569 C 597.63251,525.29019 599.76351,527.79559 602.99031,529.59989 C 606.21721,531.39519 610.31671,532.29739 615.28891,532.29739 C 620.07661,532.29739 624.10421,531.22729 627.37341,529.09629 C 630.63351,526.95989 632.74411,524.46739 633.70531,521.63529 C 634.65741,518.79949 635.13151,517.15389 635.13151,510.36979 L 635.13151,480.94799 C 634.78291,479.61779 635.19431,477.06249 633.60021,474.32649"
       style="fill:#f6ad1b;fill-rule:nonzero;stroke:none" />
  </g>
</svg>
