<?xml version="1.0" encoding="UTF-8" standalone="no"?>
<!-- Created with Inkscape (http://www.inkscape.org/) -->
<svg
   xmlns:dc="http://purl.org/dc/elements/1.1/"
   xmlns:cc="http://web.resource.org/cc/"
   xmlns:rdf="http://www.w3.org/1999/02/22-rdf-syntax-ns#"
   xmlns:svg="http://www.w3.org/2000/svg"
   xmlns="http://www.w3.org/2000/svg"
   xmlns:sodipodi="http://sodipodi.sourceforge.net/DTD/sodipodi-0.dtd"
   xmlns:inkscape="http://www.inkscape.org/namespaces/inkscape"
   width="487"
   height="565"
   id="svg2"
   sodipodi:version="0.32"
   inkscape:version="0.45.1"
   version="1.0"
   inkscape:output_extension="org.inkscape.output.svg.inkscape">
  <g
     inkscape:label="Layer 1"
     inkscape:groupmode="layer"
     id="layer1"
     transform="translate(-500.90982,-200.59289)">
    <path
       style="fill:#f14337;fill-rule:nonzero;stroke:none"
       d="M 791.84555,487.11895 L 781.36942,485.00333 L 769.51686,482.63282 L 766.56009,495.53044 L 691.82524,480.59367 L 682.21575,478.68197 L 699.08972,259.42236 L 723.45756,262.88892 L 724.37518,250.98538 L 842.46745,267.85935 L 791.84555,487.11895 z M 797.86104,570.41823 C 795.38857,586.57849 788.1241,599.85846 777.69895,609.13659 C 768.72669,617.11476 757.38392,622.11068 744.69021,623.33417 C 732.91412,630.62413 718.38517,633.68286 702.63274,631.23588 C 684.79018,628.534 670.51613,619.96957 661.49289,607.76016 C 652.85199,596.03505 649.00309,580.94534 651.55203,564.40273 C 655.96169,535.59974 677.5257,515.61607 705.05423,512.68479 C 713.0324,507.84181 722.25956,504.83407 732.2259,504.06938 C 737.40025,503.63606 742.7785,503.83998 748.28421,504.68113 C 756.23689,505.90462 763.4249,508.24964 769.72077,511.56326 C 790.82598,522.60016 801.86288,544.39358 797.86104,570.41823 M 672.86115,212.75132 L 671.63766,228.35081 L 640.05632,639.0866 L 785.90653,668.27194 L 864.79614,258.04594 L 867.75291,242.75231 L 672.86115,212.75132 z "
       id="path22206" />
    <path
       style="fill:#f89b35;fill-rule:nonzero;stroke:none"
       d="M 640.05632,639.0866 L 671.63766,228.35081 L 672.86115,212.75132 L 648.49331,209.00438 L 614.74537,647.52359 L 624.35487,649.43529 L 783.40857,681.27152 L 785.90653,668.27194 L 640.05632,639.0866 z "
       id="path22208" />
    <path
       style="fill:#f56f36;fill-rule:nonzero;stroke:none"
       d="M 673.80426,200.59289 L 672.86115,212.75132 L 867.75291,242.75231 L 864.79614,258.04594 L 785.90653,668.27194 L 797.19832,670.515 L 808.71952,672.83454 L 893.03837,234.31533 L 673.80426,200.59289 z "
       id="path22210" />
    <path
       style="fill:#f89b35;fill-rule:nonzero;stroke:none"
       d="M 724.37518,250.98538 L 723.45756,262.88892 L 817.1565,276.27084 L 813.61348,291.64093 L 769.51686,482.63282 L 781.36942,485.00333 L 791.84555,487.11895 L 842.46745,267.85935 L 724.37518,250.98538 z "
       id="path22212" />
    <path
       style="fill:#f56f36;fill-rule:nonzero;stroke:none"
       d="M 707.5267,470.24498 L 722.25956,278.59037 L 723.45756,262.88892 L 699.08972,259.42236 L 682.21575,478.68197 L 691.82524,480.59367 L 766.56009,495.53044 L 769.51686,482.63282 L 707.5267,470.24498 z "
       id="path22214" />
    <path
       style="fill:#f56f36;fill-rule:nonzero;stroke:none"
       d="M 727.9182,622.82438 C 692.94678,617.47161 671.68864,589.76466 676.83749,555.96575 C 677.47473,551.91294 678.44332,548.06405 679.6923,544.39358 C 684.40784,530.68029 693.40558,519.71986 705.05423,512.68479 C 677.5257,515.61607 655.96169,535.59974 651.55203,564.40273 C 649.00309,580.94534 652.85199,596.03505 661.49289,607.76016 C 670.51613,619.96957 684.79018,628.534 702.63274,631.23588 C 718.38517,633.68286 732.91412,630.62413 744.69021,623.33417 C 739.31195,623.84396 733.70429,623.71651 727.9182,622.82438"
       id="path22216" />
    <path
       style="fill:#f89b35;fill-rule:nonzero;stroke:none"
       d="M 769.72077,511.56326 C 763.4249,508.24964 756.23689,505.90462 748.28421,504.68113 C 742.7785,503.83998 737.40025,503.63606 732.2259,504.06938 C 722.25956,504.83407 713.0324,507.84181 705.05423,512.68479 C 710.78934,512.04756 716.80483,512.14952 722.97326,513.11811 C 747.92736,516.91603 765.3366,531.80182 771.19916,552.42273 C 773.46771,560.45188 774.00299,569.37316 772.57558,578.85521 C 769.51686,598.76241 759.21915,614.31093 744.69021,623.33417 C 757.38392,622.11068 768.72669,617.11476 777.69895,609.13659 C 788.1241,599.85846 795.38857,586.57849 797.86104,570.41823 C 801.86288,544.39358 790.82598,522.60016 769.72077,511.56326"
       id="path22218" />
    <path
       style="fill:#f56f36;fill-rule:nonzero;stroke:none"
       d="M 933.08218,645.40797 L 932.85277,648.46669 L 981.58846,655.96057 L 980.84927,659.78398 L 961.12049,762.32773 L 963.92432,762.8885 L 966.80462,763.47475 L 987.90982,653.84495 L 933.08218,645.40797 z "
       id="path22220" />
    <path
       style="fill:#f14337;fill-rule:nonzero;stroke:none"
       d="M 962.59887,717.03311 L 959.97347,716.52332 L 957.0167,715.93707 L 956.27751,719.14873 L 937.5938,715.42728 L 935.1978,714.94298 L 939.40354,660.11534 L 945.52099,661.00747 L 945.72491,658.02521 L 975.2416,662.23096 L 962.59887,717.03311 z M 964.10275,737.88342 C 963.491,741.91074 961.68126,745.22436 959.05585,747.54389 C 956.81279,749.53207 953.98347,750.78104 950.79729,751.08692 C 947.86602,752.92215 944.24652,753.68683 940.29567,753.07509 C 935.83503,752.38688 932.26652,750.24577 930.02345,747.18704 C 927.85686,744.28125 926.88826,740.50883 927.52549,736.37955 C 928.62154,729.16605 934.02529,724.17014 940.90742,723.43095 C 942.89559,722.23294 945.21512,721.46826 947.71308,721.28984 C 948.98755,721.18788 950.33848,721.21337 951.71491,721.44277 C 953.70308,721.74865 955.48734,722.3349 957.06768,723.15056 C 962.34398,725.90341 965.09683,731.35814 964.10275,737.88342 M 932.85277,648.46669 L 932.5469,652.36657 L 924.67068,755.03777 L 961.12049,762.32773 L 980.84927,659.78398 L 981.58846,655.96057 L 932.85277,648.46669 z "
       id="path22222" />
    <path
       style="fill:#f56f36;fill-rule:nonzero;stroke:none"
       d="M 941.51916,712.82737 L 945.21512,664.90734 L 945.52099,661.00747 L 939.40354,660.11534 L 935.1978,714.94298 L 937.5938,715.42728 L 956.27751,719.14873 L 957.0167,715.93707 L 941.51916,712.82737 z "
       id="path22224" />
    <path
       style="fill:#f89b35;fill-rule:nonzero;stroke:none"
       d="M 945.72491,658.02521 L 945.52099,661.00747 L 968.92024,664.34657 L 968.02811,668.16998 L 957.0167,715.93707 L 959.97347,716.52332 L 962.59887,717.03311 L 975.2416,662.23096 L 945.72491,658.02521 z "
       id="path22226" />
    <path
       style="fill:#f56f36;fill-rule:nonzero;stroke:none"
       d="M 946.61704,750.95947 C 937.87418,749.63402 932.5469,742.70091 933.84686,734.26393 C 934.02529,733.24435 934.25469,732.27576 934.56056,731.35814 C 935.75856,727.94256 938.00163,725.2152 940.90742,723.43095 C 934.02529,724.17014 928.62154,729.16605 927.52549,736.37955 C 926.88826,740.50883 927.85686,744.28125 930.02345,747.18704 C 932.26652,750.24577 935.83503,752.38688 940.29567,753.07509 C 944.24652,753.68683 947.86602,752.92215 950.79729,751.08692 C 949.47185,751.23985 948.06993,751.18887 946.61704,750.95947"
       id="path22228" />
    <path
       style="fill:#f89b35;fill-rule:nonzero;stroke:none"
       d="M 924.67068,755.03777 L 932.5469,652.36657 L 932.85277,648.46669 L 926.76081,647.52359 L 918.32383,757.15339 L 920.74532,757.63769 L 960.48326,765.59037 L 961.12049,762.32773 L 924.67068,755.03777 z "
       id="path22230" />
    <path
       style="fill:#f89b35;fill-rule:nonzero;stroke:none"
       d="M 957.06768,723.15056 C 955.48734,722.3349 953.70308,721.74865 951.71491,721.44277 C 950.33848,721.21337 948.98755,721.18788 947.71308,721.28984 C 945.21512,721.46826 942.89559,722.23294 940.90742,723.43095 C 942.33482,723.27801 943.83869,723.3035 945.39355,723.5329 C 951.61295,724.5015 955.97164,728.22295 957.45002,733.3718 C 958.01079,735.38546 958.13823,737.60304 957.78138,739.97355 C 957.0167,744.94398 954.44227,748.84385 950.79729,751.08692 C 953.98347,750.78104 956.81279,749.53207 959.05585,747.54389 C 961.68126,745.22436 963.491,741.91074 964.10275,737.88342 C 965.09683,731.35814 962.34398,725.90341 957.06768,723.15056"
       id="path22232" />
    <path
       style="fill:#f14337;fill-rule:nonzero;stroke:none"
       d="M 538.58312,697.45727 L 520.56213,697.45727 C 508.91349,697.45727 500.90982,700.92383 500.90982,716.88018 L 500.90982,720.93299 C 500.90982,738.95397 512.07417,740.94215 522.65226,740.94215 L 538.99095,740.94215 C 548.16713,740.94215 557.67466,737.73048 557.67466,726.38771 L 557.67466,722.66626 L 542.15163,722.66626 L 542.15163,723.66035 C 542.15163,727.53473 538.07333,728.55431 533.5872,728.55431 L 525.40511,728.55431 C 520.4092,728.55431 516.89166,726.87201 516.89166,721.44277 L 516.89166,715.80962 C 516.89166,711.17056 520.07784,709.36081 526.73056,709.36081 L 532.89899,709.36081 C 539.90857,709.36081 542.15163,710.94115 542.15163,715.22337 L 557.67466,715.22337 L 557.67466,711.42545 C 557.67466,701.76498 550.41019,697.45727 538.58312,697.45727"
       id="path22234" />
    <path
       style="fill:#f14337;fill-rule:nonzero;stroke:none"
       d="M 604.52413,722.1055 C 604.52413,727.71316 602.51047,729.03861 592.18728,729.03861 L 588.33838,729.03861 C 581.02293,729.03861 577.42893,727.20337 577.42893,721.18788 L 577.42893,717.21154 C 577.42893,711.17056 581.02293,709.36081 588.33838,709.36081 L 592.18728,709.36081 C 602.51047,709.36081 604.52413,710.68626 604.52413,716.29392 L 604.52413,722.1055 z M 602.94379,697.45727 L 579.00927,697.45727 C 570.85267,697.45727 561.4216,700.2611 561.4216,714.15281 L 561.4216,724.24661 C 561.4216,738.13831 570.85267,740.94215 579.00927,740.94215 L 602.94379,740.94215 C 611.10039,740.94215 620.53146,738.13831 620.53146,724.24661 L 620.53146,714.15281 C 620.53146,700.2611 611.10039,697.45727 602.94379,697.45727"
       id="path22236" />
    <path
       style="fill:#f14337;fill-rule:nonzero;stroke:none"
       d="M 696.08197,697.45727 L 691.16252,697.45727 C 682.06281,697.45727 678.64724,699.70034 675.97085,707.29617 C 672.9886,700.66893 667.81425,697.45727 660.21842,697.45727 L 654.15195,697.45727 C 646.30122,697.45727 640.79551,700.33757 639.97985,706.37855 L 639.80143,706.37855 L 639.80143,698.12 L 624.55878,698.12 L 624.55878,740.27942 L 640.56611,740.27942 L 640.56611,718.05269 C 640.56611,711.50192 643.80326,709.84511 650.63441,709.84511 C 660.32038,709.84511 662.23208,711.17056 662.23208,716.39588 L 662.23208,740.27942 L 678.23941,740.27942 L 678.23941,717.0586 C 678.23941,711.50192 681.40009,709.84511 689.07239,709.84511 C 698.4015,709.84511 699.90538,711.83328 699.90538,717.61937 L 699.90538,740.27942 L 715.9127,740.27942 L 715.9127,716.54881 C 715.9127,704.49234 710.66189,697.45727 696.08197,697.45727"
       id="path22238" />
    <path
       style="fill:#f14337;fill-rule:nonzero;stroke:none"
       d="M 735.74344,713.33715 C 735.74344,708.29026 736.99242,707.37264 747.41757,707.37264 C 756.74668,707.37264 759.0917,708.29026 759.0917,713.33715 L 735.74344,713.33715 z M 750.57825,697.45727 L 739.41391,697.45727 C 727.73977,697.45727 719.73611,700.92383 719.73611,716.88018 L 719.73611,720.93299 C 719.73611,738.95397 730.90046,740.94215 741.50404,740.94215 L 753.50953,740.94215 C 765.1072,740.94215 774.58924,738.62261 774.58924,728.04452 L 774.58924,726.20929 L 759.60149,726.20929 C 759.60149,728.70725 759.16817,731.02678 750.50178,731.02678 L 745.58234,731.02678 C 738.92961,731.02678 735.74344,729.7778 735.74344,725.31716 L 735.74344,722.76822 L 774.58924,722.76822 L 774.58924,715.6312 C 774.58924,701.02578 767.60516,697.45727 750.57825,697.45727"
       id="path22240" />
    <path
       style="fill:#f14337;fill-rule:nonzero;stroke:none"
       d="M 821.66812,721.26435 C 821.66812,727.63669 818.32901,729.03861 812.00765,729.03861 L 802.57658,729.03861 C 794.90428,729.03861 794.16508,726.38771 794.16508,721.67218 L 794.16508,716.72724 C 794.16508,712.01171 794.90428,709.36081 802.57658,709.36081 L 812.00765,709.36081 C 818.32901,709.36081 821.66812,710.76273 821.66812,717.13507 L 821.66812,721.26435 z M 820.67403,705.89426 L 820.49561,705.89426 C 819.50152,699.26702 812.74684,697.45727 806.14509,697.45727 L 801.40407,697.45727 C 781.1655,697.45727 778.64205,704.64528 778.64205,715.40179 L 778.64205,722.99763 C 778.64205,733.75414 781.1655,740.94215 801.40407,740.94215 L 806.09411,740.94215 C 815.75459,740.94215 819.75642,737.73048 821.51518,732.50516 L 821.66812,732.50516 L 821.66812,740.27942 L 836.68136,740.27942 L 836.68136,680.43037 L 820.67403,680.43037 L 820.67403,705.89426 z "
       id="path22242" />
    <path
       style="fill:#f14337;fill-rule:nonzero;stroke:none"
       d="M 841.21847,692.81821 L 857.2258,692.81821 L 857.2258,680.43037 L 841.21847,680.43037 L 841.21847,692.81821 z "
       id="path22244" />
    <path
       style="fill:#f14337;fill-rule:nonzero;stroke:none"
       d="M 841.21847,740.27942 L 857.2258,740.27942 L 857.2258,698.12 L 841.21847,698.12 L 841.21847,740.27942 z "
       id="path22246" />
    <path
       style="fill:#f14337;fill-rule:nonzero;stroke:none"
       d="M 888.80713,707.37264 C 898.16173,707.37264 900.48127,708.29026 900.48127,713.33715 L 877.15849,713.33715 C 877.15849,708.29026 878.40747,707.37264 888.80713,707.37264 M 916.0043,722.76822 L 916.0043,715.6312 C 916.0043,701.02578 908.99472,697.45727 891.99331,697.45727 L 880.80347,697.45727 C 869.15483,697.45727 861.15116,700.92383 861.15116,716.88018 L 861.15116,720.93299 C 861.15116,738.95397 872.31551,740.94215 882.8936,740.94215 L 894.89909,740.94215 C 906.49676,740.94215 916.0043,738.62261 916.0043,728.04452 L 916.0043,726.20929 L 900.99105,726.20929 C 900.99105,728.70725 900.58323,731.02678 891.89135,731.02678 L 886.99739,731.02678 C 880.31917,731.02678 877.15849,729.7778 877.15849,725.31716 L 877.15849,722.76822 L 916.0043,722.76822 z "
       id="path22248" />
    <path
       style="fill:#f14337;fill-rule:nonzero;stroke:none"
       d="M 761.58966,680.43037 L 743.79808,680.43037 L 736.83948,691.08493 L 750.09395,691.08493 L 761.58966,680.43037 z "
       id="path22250" />
  </g>
</svg>
