<?xml version="1.0" encoding="UTF-8" standalone="no"?>
<!-- Created with Inkscape (http://www.inkscape.org/) -->

<svg
   xmlns:dc="http://purl.org/dc/elements/1.1/"
   xmlns:cc="http://creativecommons.org/ns#"
   xmlns:rdf="http://www.w3.org/1999/02/22-rdf-syntax-ns#"
   xmlns:svg="http://www.w3.org/2000/svg"
   xmlns="http://www.w3.org/2000/svg"
   xmlns:sodipodi="http://sodipodi.sourceforge.net/DTD/sodipodi-0.dtd"
   xmlns:inkscape="http://www.inkscape.org/namespaces/inkscape"
   width="50"
   height="10"
   id="svg2"
   sodipodi:version="0.32"
   inkscape:version="0.48.3.1 r9886"
   version="1.0"
   inkscape:output_extension="org.inkscape.output.svg.inkscape"
   sodipodi:docname="Comédie_2eme.svg">
  <metadata
     id="metadata22">
    <rdf:RDF>
      <cc:Work
         rdf:about="">
        <dc:format>image/svg+xml</dc:format>
        <dc:type
           rdf:resource="http://purl.org/dc/dcmitype/StillImage" />
        <dc:title></dc:title>
      </cc:Work>
    </rdf:RDF>
  </metadata>
  <defs
     id="defs20" />
  <sodipodi:namedview
     pagecolor="#ffffff"
     bordercolor="#666666"
     borderopacity="1"
     objecttolerance="10"
     gridtolerance="10"
     guidetolerance="10"
     inkscape:pageopacity="0"
     inkscape:pageshadow="2"
     inkscape:window-width="1338"
     inkscape:window-height="480"
     id="namedview18"
     showgrid="false"
     inkscape:zoom="0.63104944"
     inkscape:cx="247.99959"
     inkscape:cy="76.5"
     inkscape:window-x="0"
     inkscape:window-y="0"
     inkscape:window-maximized="0"
     inkscape:current-layer="layer1" />
  <g
     inkscape:label="Layer 1"
     inkscape:groupmode="layer"
     id="layer1"
     transform="translate(-548.42701,-563.56019)">
    <path
       id="path14566"
       d="m 595.68139,571.58277 1.31216,0.61763 1.14925,-0.6535 -1.23219,-0.58853 -1.22922,0.6244"
       style="fill:#e05c25;fill-rule:nonzero;stroke:none"
       inkscape:connector-curvature="0" />
    <path
       id="path14568"
       d="m 595.51641,565.0165 1.43735,-0.67098 0,7.09207 -1.29394,-0.54456 -0.14341,-5.87653"
       style="fill:#f8c014;fill-rule:nonzero;stroke:none"
       inkscape:connector-curvature="0" />
    <path
       id="path14570"
       d="m 598.42701,565.19792 -0.3054,5.75029 -1.16785,0.48938 0,-7.07366 1.47325,0.83399"
       style="fill:#f08421;fill-rule:nonzero;stroke:none"
       inkscape:connector-curvature="0" />
    <path
       id="path14572"
       d="m 596.99058,572.2004 -9.2e-4,1.35979 -1.29729,-0.61708 -0.014,-1.36034 1.31216,0.61763"
       style="fill:#f8c014;fill-rule:nonzero;stroke:none"
       inkscape:connector-curvature="0" />
    <path
       id="path14574"
       d="m 598.13983,571.5469 -0.0182,1.43376 -1.13103,0.57953 0,-1.35979 1.14925,-0.6535"
       style="fill:#f08421;fill-rule:nonzero;stroke:none"
       inkscape:connector-curvature="0" />
    <path
       id="path14576"
       d="m 586.1134,566.03677 7.27247,0 0,1.50927 -5.34371,0 0,1.04935 5.0467,0 0,1.33801 -5.0467,0 0,1.17707 5.50273,0 0,1.50927 -7.43149,0 0,-6.58297"
       style="fill:#f6ad1b;fill-rule:nonzero;stroke:none"
       inkscape:connector-curvature="0" />
    <path
       id="path14578"
       d="m 582.98113,572.61974 1.93145,0 0,-6.57397 -1.93145,0 0,6.57397 z"
       style="fill:#f6ad1b;fill-rule:nonzero;stroke:none"
       inkscape:connector-curvature="0" />
    <g
       id="g14580"
       clip-path="url(#id196)"
       transform="matrix(0.58282579,0,0,-0.58846,269.17333,761.18565)">
      <path
         id="path14582"
         d="m 511.655,331.661 0,-11.222 8.144,0 0,2.288 -5.351,0 0,2.288 4.863,0 0,2.002 -4.863,0 0,2.323 5.098,0 0,2.321 -7.891,0"
         style="fill:#f6ad1b;fill-rule:nonzero;stroke:none"
         inkscape:connector-curvature="0" />
      <path
         id="path14584"
         d="m 513.578,334.017 0.672,-1.146 3.953,1.027 -1.107,1.937 -3.518,-1.818"
         style="fill:#f6ad1b;fill-rule:nonzero;stroke:none"
         inkscape:connector-curvature="0" />
    </g>
    <path
       id="path14586"
       d="m 558.04112,566.01368 2.81034,0 1.26733,4.07091 1.35905,-4.09401 2.83359,0 0,6.5826 -1.72749,0 0.11511,-4.9541 -1.86585,5.00066 -1.42843,0 -1.68175,-5.0707 0.0233,5.00066 -1.70554,-0.006 3.8e-4,-6.52964"
       style="fill:#f6ad1b;fill-rule:nonzero;stroke:none"
       inkscape:connector-curvature="0" />
    <path
       id="path14588"
       d="m 579.83192,569.9398 c 0.0381,1.04166 -0.92085,1.02888 -0.92085,1.02888 l -3.79926,0 0,-3.54565 3.53572,0.003 c 1.16838,-0.0389 1.18439,0.95922 1.18439,0.95922 l 0,1.55415 z m 2.08069,0.73631 0,-2.93702 c 0,0 -0.0309,-1.8856 -2.23843,-1.81256 l -6.68118,-0.006 0,6.6996 7.17946,0 c 0,0 1.81212,0.0251 1.74015,-1.94363"
       style="fill:#f6ad1b;fill-rule:nonzero;stroke:none"
       inkscape:connector-curvature="0" />
    <path
       id="path14590"
       d="m 552.4716,568.02396 -1.71354,0 0,-0.45484 c 0,-0.33481 -0.0177,-0.54458 -0.0541,-0.62778 -0.0359,-0.0834 -0.11626,-0.12431 -0.24068,-0.12431 -0.13951,0 -0.22878,0.0504 -0.26598,0.15155 -0.0381,0.10123 -0.0567,0.32037 -0.0567,0.65689 l 0,3.08651 c 0,0.32336 0.0186,0.53388 0.0567,0.6321 0.0372,0.0986 0.12221,0.14779 0.25463,0.14779 0.12647,0 0.20888,-0.0492 0.24829,-0.14818 0.0389,-0.0992 0.0579,-0.33236 0.0579,-0.69875 l 0,-0.51717 1.71354,0 0,0.26008 c 0,0.69052 -0.0478,0.85801 -0.14416,1.14665 -0.0965,0.28919 -0.30929,0.54197 -0.63794,0.75941 -0.32903,0.21692 -0.7356,0.32583 -1.21771,0.32583 -0.50125,0 -0.91452,-0.0919 -1.23981,-0.27456 -0.3253,-0.18366 -0.54104,-0.43866 -0.64633,-0.7628 -0.10581,-0.32413 -0.15864,-0.81275 -0.15864,-1.46493 l 0,-1.94271 c 0,-0.47922 0.0165,-0.83922 0.0491,-1.07883 0.0322,-0.23962 0.12945,-0.47023 0.29054,-0.69183 0.16123,-0.22254 0.38498,-0.3968 0.67049,-0.52412 0.2855,-0.12769 0.61415,-0.19081 0.98595,-0.19081 0.50422,0 0.91955,0.0986 1.24781,0.29466 0.32828,0.19681 0.49157,0.46683 0.64633,0.73539 0.16124,0.27848 0.11977,0.53858 0.15438,0.67396 l 0,0.6308"
       style="fill:#f6ad1b;fill-rule:nonzero;stroke:none"
       inkscape:connector-curvature="0" />
    <path
       id="path14592"
       d="m 555.45453,568.02396 0,2.62098 c 0,0.36639 -0.0194,0.59961 -0.0588,0.69914 -0.0389,0.0986 -0.12182,0.14817 -0.24829,0.14817 -0.13243,0 -0.21651,-0.0496 -0.25463,-0.14778 -0.0372,-0.0987 -0.0567,-0.30913 -0.0567,-0.63249 l 0,-3.08651 c 0,-0.33652 0.0195,-0.55566 0.0567,-0.65689 0.0381,-0.10121 0.12648,-0.15155 0.26691,-0.15155 0.12349,0 0.20384,0.041 0.24029,0.12431 0.0359,0.0832 0.0545,0.29297 0.0545,0.62778 l 0,0.45484 z m 1.55879,-1.30476 c -0.1553,-0.26856 -0.31859,-0.53858 -0.64632,-0.73539 -0.32827,-0.19605 -0.74361,-0.29466 -1.24783,-0.29466 -0.3718,0 -0.70045,0.0631 -0.98648,0.19081 -0.2855,0.12732 -0.50925,0.30158 -0.66996,0.52451 -0.16162,0.22121 -0.25889,0.45182 -0.29107,0.69144 -0.0326,0.23961 -0.0486,0.59961 -0.0486,1.07883 l 0,1.94271 c 0,0.65218 0.0528,1.1408 0.15811,1.46493 0.10621,0.32414 0.32103,0.57914 0.64633,0.7628 0.3253,0.18274 0.73857,0.27456 1.23982,0.27456 0.48265,0 0.88867,-0.10891 1.21824,-0.32583 0.32865,-0.21744 0.54142,-0.47115 0.63831,-0.75941 0.096,-0.28864 0.14378,-0.45613 0.14378,-1.14665 l 0,-2.99469 c -0.0351,-0.13538 0.006,-0.39548 -0.15437,-0.67396"
       style="fill:#f6ad1b;fill-rule:nonzero;stroke:none"
       inkscape:connector-curvature="0" />
  </g>
</svg>
