<?xml version="1.0" encoding="UTF-8" standalone="no"?>
<!-- Created with Inkscape (http://www.inkscape.org/) -->

<svg
   xmlns:dc="http://purl.org/dc/elements/1.1/"
   xmlns:cc="http://creativecommons.org/ns#"
   xmlns:rdf="http://www.w3.org/1999/02/22-rdf-syntax-ns#"
   xmlns:svg="http://www.w3.org/2000/svg"
   xmlns="http://www.w3.org/2000/svg"
   xmlns:sodipodi="http://sodipodi.sourceforge.net/DTD/sodipodi-0.dtd"
   xmlns:inkscape="http://www.inkscape.org/namespaces/inkscape"
   width="43"
   height="50"
   id="svg2"
   sodipodi:version="0.32"
   inkscape:version="0.48.3.1 r9886"
   version="1.0"
   inkscape:output_extension="org.inkscape.output.svg.inkscape"
   sodipodi:docname="Comédie_3eme.svg">
  <metadata
     id="metadata3028">
    <rdf:RDF>
      <cc:Work
         rdf:about="">
        <dc:format>image/svg+xml</dc:format>
        <dc:type
           rdf:resource="http://purl.org/dc/dcmitype/StillImage" />
        <dc:title></dc:title>
      </cc:Work>
    </rdf:RDF>
  </metadata>
  <defs
     id="defs3026" />
  <sodipodi:namedview
     pagecolor="#ffffff"
     bordercolor="#666666"
     borderopacity="1"
     objecttolerance="10"
     gridtolerance="10"
     guidetolerance="10"
     inkscape:pageopacity="0"
     inkscape:pageshadow="2"
     inkscape:window-width="1125"
     inkscape:window-height="833"
     id="namedview3024"
     showgrid="false"
     inkscape:zoom="0.41769912"
     inkscape:cx="243.5"
     inkscape:cy="282.5"
     inkscape:window-x="0"
     inkscape:window-y="0"
     inkscape:window-maximized="0"
     inkscape:current-layer="layer1" />
  <g
     inkscape:label="Layer 1"
     inkscape:groupmode="layer"
     id="layer1"
     transform="translate(-500.90982,-715.59289)">
    <path
       style="fill:#f14337;fill-rule:nonzero;stroke:none"
       d="m 526.59818,740.94929 -0.925,-0.18722 -1.04652,-0.20978 -0.26107,1.14138 -6.59876,-1.32184 -0.84849,-0.16918 1.4899,-19.40359 2.15158,0.30678 0.081,-1.05342 10.42703,1.49328 -4.46969,19.40359 z m 0.53115,7.37165 c -0.21832,1.43012 -0.85973,2.60534 -1.78023,3.42642 -0.79222,0.70604 -1.79373,1.14816 -2.91453,1.25643 -1.03977,0.64513 -2.32262,0.91582 -3.71349,0.69927 -1.57542,-0.23911 -2.83576,-0.99702 -3.63248,-2.07751 -0.76295,-1.03762 -1.10278,-2.373 -0.87772,-3.83696 0.38935,-2.54894 2.29335,-4.31742 4.72401,-4.57682 0.70443,-0.42859 1.51915,-0.69476 2.39914,-0.76243 0.45687,-0.0384 0.93174,-0.0203 1.41788,0.0541 0.70219,0.10828 1.33686,0.3158 1.89276,0.60904 1.86349,0.97673 2.838,2.90536 2.48466,5.20843 m -11.03695,-31.65208 -0.10803,1.38049 -2.7885,36.34847 12.87794,2.58278 6.96561,-36.30335 0.26108,-1.35342 -17.2081,-2.65497 z"
       id="path22206"
       inkscape:connector-curvature="0" />
    <path
       style="fill:#f89b35;fill-rule:nonzero;stroke:none"
       d="m 513.19585,754.39782 2.7885,-36.34847 0.10803,-1.38049 -2.15158,-0.33159 -2.97979,38.80719 0.84847,0.16917 14.04375,2.81738 0.22056,-1.15041 -12.87794,-2.58278 z"
       id="path22208"
       inkscape:connector-curvature="0" />
    <path
       style="fill:#f56f36;fill-rule:nonzero;stroke:none"
       d="m 516.17565,715.59289 -0.0833,1.07597 17.2081,2.65497 -0.26108,1.35342 -6.96561,36.30335 0.99702,0.1985 1.01727,0.20527 7.44499,-38.80718 -19.35742,-2.9843 z"
       id="path22210"
       inkscape:connector-curvature="0" />
    <path
       style="fill:#f89b35;fill-rule:nonzero;stroke:none"
       d="m 520.64084,720.05242 -0.081,1.05342 8.27321,1.18424 -0.31284,1.36019 -3.89353,16.90202 1.04652,0.20978 0.925,0.18722 4.46969,-19.40359 -10.42703,-1.49328 z"
       id="path22212"
       inkscape:connector-curvature="0" />
    <path
       style="fill:#f56f36;fill-rule:nonzero;stroke:none"
       d="m 519.15319,739.45601 1.30085,-16.96066 0.10578,-1.38951 -2.15158,-0.30678 -1.4899,19.40359 0.84849,0.16918 6.59876,1.32184 0.26107,-1.14138 -5.47347,-1.09628 z"
       id="path22214"
       inkscape:connector-curvature="0" />
    <path
       style="fill:#f56f36;fill-rule:nonzero;stroke:none"
       d="m 520.95368,752.95868 c -3.08783,-0.4737 -4.96483,-2.92566 -4.51021,-5.91672 0.0563,-0.35866 0.14179,-0.69927 0.25207,-1.02409 0.41636,-1.21358 1.21082,-2.18353 2.23935,-2.8061 -2.43066,0.2594 -4.33466,2.02788 -4.72401,4.57682 -0.22506,1.46396 0.11477,2.79934 0.87772,3.83696 0.79672,1.08049 2.05706,1.8384 3.63248,2.07751 1.39087,0.21655 2.67372,-0.0541 3.71349,-0.69927 -0.47487,0.0451 -0.97001,0.0338 -1.48089,-0.0451"
       id="path22216"
       inkscape:connector-curvature="0" />
    <path
       style="fill:#f89b35;fill-rule:nonzero;stroke:none"
       d="m 524.64467,743.11251 c -0.5559,-0.29324 -1.19057,-0.50076 -1.89276,-0.60904 -0.48614,-0.0744 -0.96101,-0.0925 -1.41788,-0.0541 -0.87999,0.0677 -1.69471,0.33384 -2.39914,0.76243 0.50638,-0.0564 1.03752,-0.0474 1.58217,0.0383 2.20334,0.3361 3.74049,1.65344 4.25814,3.4783 0.20029,0.71055 0.24756,1.50005 0.12152,2.33917 -0.27006,1.76171 -1.17931,3.13769 -2.46215,3.93621 1.1208,-0.10827 2.12231,-0.55039 2.91453,-1.25643 0.9205,-0.82108 1.56191,-1.9963 1.78023,-3.42642 0.35334,-2.30307 -0.62117,-4.2317 -2.48466,-5.20843"
       id="path22218"
       inkscape:connector-curvature="0" />
    <path
       style="fill:#f56f36;fill-rule:nonzero;stroke:none"
       d="m 539.06876,754.95723 -0.0203,0.27069 4.30315,0.66317 -0.0653,0.33836 -1.74196,9.07471 0.24756,0.0496 0.25432,0.0519 1.8635,-9.7018 -4.84105,-0.74664 z"
       id="path22220"
       inkscape:connector-curvature="0" />
    <path
       style="fill:#f14337;fill-rule:nonzero;stroke:none"
       d="m 541.67496,761.29577 -0.23181,-0.0451 -0.26107,-0.0519 -0.0652,0.28422 -1.6497,-0.32933 -0.21155,-0.0429 0.37135,-4.85203 0.54014,0.0789 0.018,-0.26391 2.6062,0.37219 -1.1163,4.84977 z m 0.13279,1.84517 c -0.054,0.3564 -0.21381,0.64964 -0.44562,0.85491 -0.19805,0.17595 -0.44787,0.28647 -0.7292,0.31354 -0.25882,0.16241 -0.5784,0.23008 -0.92724,0.17595 -0.39386,-0.0609 -0.70894,-0.25039 -0.90699,-0.52107 -0.19131,-0.25715 -0.27683,-0.591 -0.22056,-0.95642 0.0968,-0.63837 0.57389,-1.08048 1.18155,-1.1459 0.17556,-0.10602 0.38036,-0.17369 0.60092,-0.18948 0.11253,-0.009 0.23182,-0.007 0.35334,0.0135 0.17555,0.0271 0.33309,0.0789 0.47263,0.15113 0.46587,0.24361 0.70894,0.72634 0.62117,1.3038 m -2.75924,-7.91302 -0.027,0.34512 -0.69543,9.08599 3.21836,0.64513 1.74196,-9.07471 0.0653,-0.33836 -4.30315,-0.66317 z"
       id="path22222"
       inkscape:connector-curvature="0" />
    <path
       style="fill:#f56f36;fill-rule:nonzero;stroke:none"
       d="m 539.81371,760.92358 0.32634,-4.24073 0.027,-0.34513 -0.54014,-0.0789 -0.37135,4.85203 0.21155,0.0429 1.6497,0.32933 0.0652,-0.28422 -1.36837,-0.27519 z"
       id="path22224"
       inkscape:connector-curvature="0" />
    <path
       style="fill:#f89b35;fill-rule:nonzero;stroke:none"
       d="m 540.18506,756.07381 -0.018,0.26391 2.06605,0.2955 -0.0787,0.33836 -0.97226,4.22719 0.26107,0.0519 0.23181,0.0451 1.1163,-4.84977 -2.6062,-0.37219 z"
       id="path22226"
       inkscape:connector-curvature="0" />
    <path
       style="fill:#f56f36;fill-rule:nonzero;stroke:none"
       d="m 540.26383,764.29811 c -0.77196,-0.11729 -1.24233,-0.73084 -1.12755,-1.47748 0.0158,-0.0902 0.036,-0.17595 0.0631,-0.25715 0.10578,-0.30227 0.30383,-0.54363 0.56039,-0.70153 -0.60766,0.0654 -1.08478,0.50753 -1.18155,1.1459 -0.0563,0.36542 0.0292,0.69927 0.22056,0.95642 0.19805,0.27068 0.51313,0.46016 0.90699,0.52107 0.34884,0.0541 0.66842,-0.0135 0.92724,-0.17595 -0.11703,0.0135 -0.24081,0.009 -0.3691,-0.0113"
       id="path22228"
       inkscape:connector-curvature="0" />
    <path
       style="fill:#f89b35;fill-rule:nonzero;stroke:none"
       d="m 538.32607,764.65903 0.69543,-9.08599 0.027,-0.34512 -0.53789,-0.0835 -0.74495,9.70179 0.2138,0.0429 3.50869,0.70378 0.0563,-0.28873 -3.21836,-0.64513 z"
       id="path22230"
       inkscape:connector-curvature="0" />
    <path
       style="fill:#f89b35;fill-rule:nonzero;stroke:none"
       d="m 541.18658,761.83714 c -0.13954,-0.0722 -0.29708,-0.12407 -0.47263,-0.15113 -0.12152,-0.0203 -0.24081,-0.0226 -0.35334,-0.0135 -0.22056,0.0158 -0.42536,0.0835 -0.60092,0.18948 0.12604,-0.0135 0.25883,-0.0113 0.39612,0.009 0.54914,0.0857 0.934,0.41505 1.06453,0.87071 0.0495,0.1782 0.0608,0.37444 0.0292,0.58422 -0.0675,0.43987 -0.29484,0.78499 -0.61667,0.98349 0.28133,-0.0271 0.53115,-0.13759 0.7292,-0.31354 0.23181,-0.20527 0.3916,-0.49851 0.44562,-0.85491 0.0878,-0.57746 -0.1553,-1.06019 -0.62117,-1.3038"
       id="path22232"
       inkscape:connector-curvature="0" />
    <path
       style="fill:#f14337;fill-rule:nonzero;stroke:none"
       d="m 504.23621,759.56339 -1.59118,0 c -1.02852,0 -1.73521,0.30677 -1.73521,1.71884 l 0,0.35866 c 0,1.59479 0.98576,1.77073 1.91976,1.77073 l 1.44264,0 c 0.81021,0 1.64969,-0.28422 1.64969,-1.28801 l 0,-0.32933 -1.37062,0 0,0.088 c 0,0.34287 -0.36009,0.4331 -0.7562,0.4331 l -0.72245,0 c -0.44111,0 -0.75169,-0.14888 -0.75169,-0.62934 l 0,-0.49852 c 0,-0.41053 0.28132,-0.57069 0.86873,-0.57069 l 0.54464,0 c 0.61892,0 0.81697,0.13985 0.81697,0.51881 l 1.37062,0 0,-0.3361 c 0,-0.85491 -0.64143,-1.23612 -1.6857,-1.23612"
       id="path22234"
       inkscape:connector-curvature="0" />
    <path
       style="fill:#f14337;fill-rule:nonzero;stroke:none"
       d="m 510.05852,761.74465 c 0,0.49626 -0.1778,0.61356 -1.08929,0.61356 l -0.33984,0 c -0.64593,0 -0.96327,-0.16241 -0.96327,-0.69476 l 0,-0.35189 c 0,-0.5346 0.31734,-0.69476 0.96327,-0.69476 l 0.33984,0 c 0.91149,0 1.08929,0.1173 1.08929,0.61355 l 0,0.5143 z m -0.13954,-2.18126 -2.11331,0 c -0.7202,0 -1.55292,0.24812 -1.55292,1.47748 l 0,0.89326 c 0,1.22936 0.83272,1.47749 1.55292,1.47749 l 2.11331,0 c 0.72019,0 1.55291,-0.24813 1.55291,-1.47749 l 0,-0.89326 c 0,-1.22936 -0.83272,-1.47748 -1.55291,-1.47748"
       id="path22236"
       inkscape:connector-curvature="0" />
    <path
       style="fill:#f14337;fill-rule:nonzero;stroke:none"
       d="m 518.14268,759.56339 -0.43437,0 c -0.80347,0 -1.10504,0.1985 -1.34136,0.8707 -0.26332,-0.58649 -0.72019,-0.8707 -1.39087,-0.8707 l -0.53565,0 c -0.69318,0 -1.17931,0.25489 -1.25133,0.78949 l -0.0158,0 0,-0.73085 -1.34587,0 0,3.73094 1.41339,0 0,-1.96697 c 0,-0.57972 0.28582,-0.72634 0.88898,-0.72634 0.85523,0 1.02403,0.1173 1.02403,0.57972 l 0,2.11359 1.41337,0 0,-2.05495 c 0,-0.49174 0.27908,-0.63836 0.95651,-0.63836 0.82372,0 0.95651,0.17594 0.95651,0.68799 l 0,2.00532 1.41337,0 0,-2.10006 c 0,-1.06695 -0.46362,-1.68952 -1.75096,-1.68952"
       id="path22238"
       inkscape:connector-curvature="0" />
    <path
       style="fill:#f14337;fill-rule:nonzero;stroke:none"
       d="m 521.64461,760.96869 c 0,-0.44663 0.11028,-0.52783 1.03077,-0.52783 0.82372,0 1.03078,0.0812 1.03078,0.52783 l -2.06155,0 z m 1.30985,-1.4053 -0.98576,0 c -1.03078,0 -1.73747,0.30677 -1.73747,1.71884 l 0,0.35866 c 0,1.59479 0.98576,1.77073 1.92202,1.77073 l 1.06003,0 c 1.02402,0 1.86125,-0.20527 1.86125,-1.14139 l 0,-0.16241 -1.32336,0 c 0,0.22106 -0.0383,0.42633 -0.80347,0.42633 l -0.43436,0 c -0.58741,0 -0.86873,-0.11053 -0.86873,-0.50528 l 0,-0.22557 3.42992,0 0,-0.6316 c 0,-1.29252 -0.61667,-1.60831 -2.12007,-1.60831"
       id="path22240"
       inkscape:connector-curvature="0" />
    <path
       style="fill:#f14337;fill-rule:nonzero;stroke:none"
       d="m 529.23139,761.67022 c 0,0.56392 -0.29483,0.68799 -0.85299,0.68799 l -0.83272,0 c -0.67743,0 -0.74269,-0.2346 -0.74269,-0.6519 l 0,-0.43761 c 0,-0.41731 0.0652,-0.6519 0.74269,-0.6519 l 0.83272,0 c 0.55816,0 0.85299,0.12406 0.85299,0.68799 l 0,0.36543 z m -0.0878,-1.3602 -0.0158,0 c -0.0878,-0.58648 -0.68417,-0.74663 -1.26708,-0.74663 l -0.41861,0 c -1.78698,0 -2.00979,0.63611 -2.00979,1.58801 l 0,0.6722 c 0,0.95191 0.22281,1.58802 2.00979,1.58802 l 0.41411,0 c 0.85297,0 1.20632,-0.28422 1.36161,-0.74664 l 0.0135,0 0,0.68799 1.3256,0 0,-5.2964 -1.41338,0 0,2.25345 z"
       id="path22242"
       inkscape:connector-curvature="0" />
    <path
       style="fill:#f14337;fill-rule:nonzero;stroke:none"
       d="m 530.95759,759.15285 1.41339,0 0,-1.09628 -1.41339,0 0,1.09628 z"
       id="path22244"
       inkscape:connector-curvature="0" />
    <path
       style="fill:#f14337;fill-rule:nonzero;stroke:none"
       d="m 530.95759,763.35297 1.41339,0 0,-3.73094 -1.41339,0 0,3.73094 z"
       id="path22246"
       inkscape:connector-curvature="0" />
    <path
       style="fill:#f14337;fill-rule:nonzero;stroke:none"
       d="m 535.15947,760.44086 c 0.82597,0 1.03077,0.0812 1.03077,0.52783 l -2.0593,0 c 0,-0.44663 0.11028,-0.52783 1.02853,-0.52783 m 2.40139,1.36244 0,-0.6316 c 0,-1.29252 -0.61891,-1.60831 -2.12007,-1.60831 l -0.98801,0 c -1.02852,0 -1.73521,0.30677 -1.73521,1.71884 l 0,0.35866 c 0,1.59479 0.98576,1.77073 1.91977,1.77073 l 1.06002,0 c 1.02403,0 1.8635,-0.20527 1.8635,-1.14139 l 0,-0.16241 -1.3256,0 c 0,0.22106 -0.036,0.42633 -0.80347,0.42633 l -0.43212,0 c -0.58965,0 -0.86873,-0.11053 -0.86873,-0.50528 l 0,-0.22557 3.42992,0 z"
       id="path22248"
       inkscape:connector-curvature="0" />
    <path
       style="fill:#f14337;fill-rule:nonzero;stroke:none"
       d="m 523.92672,758.05657 -1.57092,0 -0.61442,0.94289 1.17032,0 1.01502,-0.94289 z"
       id="path22250"
       inkscape:connector-curvature="0" />
  </g>
</svg>
