<?xml version="1.0" encoding="UTF-8" standalone="no"?>
<!-- Created with Inkscape (http://www.inkscape.org/) -->
<svg
   xmlns:dc="http://purl.org/dc/elements/1.1/"
   xmlns:cc="http://web.resource.org/cc/"
   xmlns:rdf="http://www.w3.org/1999/02/22-rdf-syntax-ns#"
   xmlns:svg="http://www.w3.org/2000/svg"
   xmlns="http://www.w3.org/2000/svg"
   xmlns:sodipodi="http://sodipodi.sourceforge.net/DTD/sodipodi-0.dtd"
   xmlns:inkscape="http://www.inkscape.org/namespaces/inkscape"
   width="612"
   height="84"
   id="svg2"
   sodipodi:version="0.32"
   inkscape:version="0.45.1"
   version="1.0"
   inkscape:output_extension="org.inkscape.output.svg.inkscape">
  <g
     inkscape:label="Layer 1"
     inkscape:groupmode="layer"
     id="layer1"
     transform="translate(-342.88642,-537.05866)">
    <path
       id="path4585"
       d="M 478.01137,582.65386 C 478.01137,590.86066 478.01137,601.06666 466.32256,601.06666 C 454.26658,601.06666 454.26658,590.86066 454.26658,582.65386 L 454.26658,538.95706 L 429.60385,538.95706 L 429.60385,588.15586 C 429.60385,610.39066 441.72103,621.05866 466.20019,621.05866 C 490.67932,621.05866 502.67412,610.39066 502.67412,588.15586 L 502.67412,538.95706 L 478.01137,538.95706 L 478.01137,582.65386"
       style="fill:#d15120;fill-rule:nonzero;stroke:none" />
    <path
       id="path4587"
       d="M 515.40327,619.16026 L 536.27176,619.16026 L 536.27176,538.95706 L 515.40327,538.95706 L 515.40327,619.16026 z "
       style="fill:#d85b1e;fill-rule:nonzero;stroke:none" />
    <path
       id="path4589"
       d="M 589.39152,571.98586 C 569.31862,566.81986 565.46317,566.03026 565.46317,559.84786 C 565.46317,553.11946 572.01133,550.75906 577.64155,550.75906 C 586.02564,550.75906 592.87981,553.22026 593.43061,562.88866 L 610.50481,562.88866 C 610.50481,544.35826 595.14415,537.05866 578.37592,537.05866 C 563.9332,537.05866 548.38894,544.92106 548.38894,561.31786 C 548.38894,576.36226 560.44491,580.97386 572.31733,584.11546 C 584.1285,587.25706 596.12332,588.71866 596.12332,597.36226 C 596.12332,605.56906 586.69882,607.35826 580.51783,607.35826 C 571.09336,607.35826 562.77045,603.20026 562.77045,592.54066 L 545.69623,592.54066 C 545.51265,612.29746 562.09729,621.05866 579.84466,621.05866 C 601.63111,621.05866 613.19752,610.05466 613.19752,595.34626 C 613.19752,577.15186 595.26652,573.44746 589.39152,571.98586"
       style="fill:#df661b;fill-rule:nonzero;stroke:none" />
    <path
       id="path4591"
       d="M 623.90716,619.16026 L 637.92147,619.16026 L 637.92147,538.95706 L 623.90716,538.95706 L 623.90716,619.16026 z "
       style="fill:#e77018;fill-rule:nonzero;stroke:none" />
    <path
       id="path4593"
       d="M 708.48265,603.98986 L 708.23785,603.98986 L 666.01128,538.95706 L 654.62848,538.95706 L 654.62848,619.16026 L 664.78735,619.16026 L 664.78735,554.79946 L 664.97094,554.79946 L 706.89148,619.16026 L 718.58029,619.16026 L 718.58029,538.95706 L 708.48265,538.95706 L 708.48265,603.98986"
       style="fill:#ef7b15;fill-rule:nonzero;stroke:none" />
    <path
       id="path4595"
       d="M 742.26388,612.63346 L 742.26388,580.97386 L 786.93835,580.97386 L 786.93835,574.45546 L 742.26388,574.45546 L 742.26388,545.48386 L 789.99822,545.48386 L 789.99822,538.95706 L 734.61415,538.95706 L 734.61415,619.16026 L 790.549,619.16026 L 790.549,612.63346 L 742.26388,612.63346"
       style="fill:#f78712;fill-rule:nonzero;stroke:none" />
    <path
       id="path4597"
       d="M 368.89551,579.05866 C 368.89551,577.96666 368.89551,576.87466 368.89551,575.79106 L 343.00881,575.79106 C 342.94762,576.86626 342.88642,577.94146 342.88642,579.05866 C 342.88642,580.15906 342.94762,581.25106 343.00881,582.32626 L 368.89551,582.32626 C 368.89551,581.25106 368.89551,580.14226 368.89551,579.05866"
       style="fill:#ca4823;fill-rule:nonzero;stroke:none" />
    <path
       id="path4599"
       d="M 367.73274,563.14906 L 345.33433,563.14906 C 344.59996,565.23226 344.11039,567.41626 343.68199,569.68426 L 368.58954,569.68426 C 368.34475,567.27346 368.09995,565.04746 367.73274,563.14906"
       style="fill:#ca4823;fill-rule:nonzero;stroke:none" />
    <path
       id="path4601"
       d="M 368.58954,588.42466 L 343.68199,588.42466 C 344.11039,590.69266 344.66116,592.87666 345.39553,594.97666 L 367.73274,594.97666 C 368.09995,593.06986 368.34475,590.84386 368.58954,588.42466"
       style="fill:#ca4823;fill-rule:nonzero;stroke:none" />
    <path
       id="path4603"
       d="M 395.76139,568.83586 L 419.81218,568.83586 C 417.67024,548.74306 405.55306,537.17626 383.5218,537.05866 C 366.99837,537.05866 354.45283,544.54306 347.90464,557.04226 L 382.84864,557.04226 C 393.06868,557.04226 395.33302,565.92106 395.76139,568.83586"
       style="fill:#ca4823;fill-rule:nonzero;stroke:none" />
    <path
       id="path4605"
       d="M 382.84864,601.06666 L 347.96584,601.06666 C 354.33043,613.18786 366.50881,621.05866 383.5218,621.05866 C 407.0218,621.05866 420.17935,603.88066 420.17935,587.71066 L 395.88379,587.71066 C 394.41505,595.23706 391.17157,601.06666 382.84864,601.06666"
       style="fill:#ca4823;fill-rule:nonzero;stroke:none" />
    <path
       id="path4607"
       d="M 809.58156,619.05106 L 819.00604,619.05106 L 819.00604,609.59266 L 809.58156,609.59266 L 809.58156,619.05106 z "
       style="fill:#ca4823;fill-rule:nonzero;stroke:none" />
    <path
       id="path4609"
       d="M 824.45266,538.95706 L 887.91487,538.95706 L 891.21955,545.46706 L 860.00863,545.46706 L 860.00863,619.05106 L 852.3589,619.05106 L 852.3589,545.46706 L 824.45266,545.46706 L 824.45266,538.95706"
       style="fill:#ca4823;fill-rule:nonzero;stroke:none" />
    <path
       id="path4611"
       d="M 886.5685,538.95706 L 894.76903,538.95706 L 920.77813,610.62586 L 921.0229,610.62586 L 946.78722,538.95706 L 954.86533,538.95706 L 925.1232,619.05106 L 916.31067,619.05106 L 886.5685,538.95706"
       style="fill:#ca4823;fill-rule:nonzero;stroke:none" />
  </g>
</svg>
