<?xml version="1.0" encoding="UTF-8" standalone="no"?>
<!-- Created with Inkscape (http://www.inkscape.org/) -->

<svg
   xmlns:dc="http://purl.org/dc/elements/1.1/"
   xmlns:cc="http://creativecommons.org/ns#"
   xmlns:rdf="http://www.w3.org/1999/02/22-rdf-syntax-ns#"
   xmlns:svg="http://www.w3.org/2000/svg"
   xmlns="http://www.w3.org/2000/svg"
   version="1.0"
   width="50"
   height="7"
   id="svg2">
  <metadata
     id="metadata3105">
    <rdf:RDF>
      <cc:Work
         rdf:about="">
        <dc:format>image/svg+xml</dc:format>
        <dc:type
           rdf:resource="http://purl.org/dc/dcmitype/StillImage" />
        <dc:title></dc:title>
      </cc:Work>
    </rdf:RDF>
  </metadata>
  <defs
     id="defs3103" />
  <g
     transform="translate(-342.88642,-614.05866)"
     id="layer1">
    <path
       d="m 353.92642,617.9209 c 0,0.67052 0,1.50437 -0.955,1.50437 -0.985,0 -0.985,-0.83385 -0.985,-1.50437 l 0,-3.57012 -2.015,0 0,4.01965 c 0,1.81663 0.99,2.68823 2.99,2.68823 2,0 2.98,-0.8716 2.98,-2.68823 l 0,-4.01965 -2.015,0 0,3.57012"
       id="path4585"
       style="fill:#d15120;fill-rule:nonzero;stroke:none" />
    <path
       d="m 356.98142,620.90356 1.705,0 0,-6.55278 -1.705,0 0,6.55278 z"
       id="path4587"
       style="fill:#d85b1e;fill-rule:nonzero;stroke:none" />
    <path
       d="m 363.02642,617.04931 c -1.64,-0.42208 -1.955,-0.48659 -1.955,-0.9917 0,-0.54973 0.535,-0.74258 0.995,-0.74258 0.685,0 1.245,0.20109 1.29,0.99102 l 1.395,0 c 0,-1.51398 -1.255,-2.11037 -2.625,-2.11037 -1.18,0 -2.45,0.64237 -2.45,1.98203 0,1.22916 0.985,1.60594 1.955,1.86261 0.965,0.25668 1.945,0.37609 1.945,1.08229 0,0.67052 -0.77,0.8167 -1.275,0.8167 -0.77,0 -1.45,-0.33972 -1.45,-1.21063 l -1.395,0 c -0.015,1.61417 1.34,2.32998 2.79,2.32998 1.78,0 2.725,-0.89905 2.725,-2.10076 0,-1.48652 -1.465,-1.78918 -1.945,-1.90859"
       id="path4589"
       style="fill:#df661b;fill-rule:nonzero;stroke:none" />
    <path
       d="m 365.84642,620.90356 1.145,0 0,-6.55278 -1.145,0 0,6.55278 z"
       id="path4591"
       style="fill:#e77018;fill-rule:nonzero;stroke:none" />
    <path
       d="m 372.75642,619.6641 -0.02,0 -3.45,-5.31332 -0.93,0 0,6.55278 0.83,0 0,-5.25842 0.015,0 3.425,5.25842 0.955,0 0,-6.55278 -0.825,0 0,5.31332"
       id="path4593"
       style="fill:#ef7b15;fill-rule:nonzero;stroke:none" />
    <path
       d="m 375.51642,620.3703 0,-2.58665 3.65,0 0,-0.53257 -3.65,0 0,-2.36704 3.9,0 0,-0.53326 -4.525,0 0,6.55278 4.57,0 0,-0.53326 -3.945,0"
       id="path4595"
       style="fill:#f78712;fill-rule:nonzero;stroke:none" />
    <path
       d="m 345.01142,617.62717 c 0,-0.0892 0,-0.17844 0,-0.26697 l -2.115,0 c -0.005,0.0879 -0.01,0.17569 -0.01,0.26697 0,0.0899 0.005,0.17912 0.01,0.26697 l 2.115,0 c 0,-0.0879 0,-0.17844 0,-0.26697"
       id="path4597"
       style="fill:#ca4823;fill-rule:nonzero;stroke:none" />
    <path
       d="m 344.91642,616.32732 -1.83,0 c -0.06,0.1702 -0.1,0.34864 -0.135,0.53394 l 2.035,0 c -0.02,-0.19697 -0.04,-0.37884 -0.07,-0.53394"
       id="path4599"
       style="fill:#ca4823;fill-rule:nonzero;stroke:none" />
    <path
       d="m 344.98642,618.39239 -2.035,0 c 0.035,0.1853 0.08,0.36374 0.14,0.53531 l 1.825,0 c 0.03,-0.15579 0.05,-0.33765 0.07,-0.53531"
       id="path4601"
       style="fill:#ca4823;fill-rule:nonzero;stroke:none" />
    <path
       d="m 347.20642,616.79194 1.965,0 c -0.175,-1.64162 -1.165,-2.58665 -2.965,-2.59626 -1.35,0 -2.375,0.61149 -2.91,1.6327 l 2.855,0 c 0.835,0 1.02,0.72542 1.055,0.96356"
       id="path4603"
       style="fill:#ca4823;fill-rule:nonzero;stroke:none" />
    <path
       d="m 346.15142,619.42527 -2.85,0 c 0.52,0.99033 1.515,1.63339 2.905,1.63339 1.92,0 2.995,-1.40348 2.995,-2.7246 l -1.985,0 c -0.12,0.61492 -0.385,1.09121 -1.065,1.09121"
       id="path4605"
       style="fill:#ca4823;fill-rule:nonzero;stroke:none" />
    <path
       d="m 381.01642,620.89463 0.77,0 0,-0.77277 -0.77,0 0,0.77277 z"
       id="path4607"
       style="fill:#ca4823;fill-rule:nonzero;stroke:none" />
    <path
       d="m 382.23142,614.35078 5.185,0 0.27,0.53188 -2.55,0 0,6.01197 -0.625,0 0,-6.01197 -2.28,0 0,-0.53188"
       id="path4609"
       style="fill:#ca4823;fill-rule:nonzero;stroke:none" />
    <path
       d="m 387.30642,614.35078 0.67,0 2.125,5.8555 0.02,0 2.105,-5.8555 0.66,0 -2.43,6.54385 -0.72,0 -2.43,-6.54385"
       id="path4611"
       style="fill:#ca4823;fill-rule:nonzero;stroke:none" />
  </g>
</svg>
