<?xml version="1.0" encoding="UTF-8" standalone="no"?>
<!-- Created with Inkscape (http://www.inkscape.org/) -->

<svg
   xmlns:dc="http://purl.org/dc/elements/1.1/"
   xmlns:cc="http://creativecommons.org/ns#"
   xmlns:rdf="http://www.w3.org/1999/02/22-rdf-syntax-ns#"
   xmlns:svg="http://www.w3.org/2000/svg"
   xmlns="http://www.w3.org/2000/svg"
   xmlns:xlink="http://www.w3.org/1999/xlink"
   version="1.1"
   width="50"
   height="20"
   viewBox="0 0 50.000001 20.000001"
   id="Calque_1"
   xml:space="preserve"><metadata
   id="metadata3159"><rdf:RDF><cc:Work
       rdf:about=""><dc:format>image/svg+xml</dc:format><dc:type
         rdf:resource="http://purl.org/dc/dcmitype/StillImage" /><dc:title></dc:title></cc:Work></rdf:RDF></metadata><defs
   id="defs3157" />
<g
   transform="matrix(0.05609035,0,0,0.05609035,-0.70214366,-0.45311935)"
   id="g3108">
	<g
   id="g3110">
		<defs
   id="defs3112">
			<path
   d="m 57.499,17.833 c -24.738,0 -44.981,20.243 -44.981,44.961 v 180.321 c 0,24.718 20.243,44.973 44.981,44.973 h 354.464 v 76.559 l 93.738,-76.559 h 353.264 c 24.74,0 44.972,-20.255 44.972,-44.973 V 62.794 c 0,-24.718 -20.231,-44.961 -44.972,-44.961 H 57.499 z"
   id="SVGID_1_" />
		</defs>
		<clipPath
   id="SVGID_2_">
			<use
   id="use3116"
   style="overflow:visible"
   x="0"
   y="0"
   width="916.45398"
   height="382.48099"
   xlink:href="#SVGID_1_" />
		</clipPath>
		
			<linearGradient
   x1="-56.4883"
   y1="600.06689"
   x2="-52.359001"
   y2="600.06689"
   id="SVGID_3_"
   gradientUnits="userSpaceOnUse"
   gradientTransform="matrix(0,84.1992,84.1992,0,-50066.828,4773.229)">
			<stop
   id="stop3119"
   style="stop-color:#009ee3;stop-opacity:1"
   offset="0" />
			<stop
   id="stop3121"
   style="stop-color:#0298de;stop-opacity:1"
   offset="0.1523" />
			<stop
   id="stop3123"
   style="stop-color:#0886d0;stop-opacity:1"
   offset="0.36050001" />
			<stop
   id="stop3125"
   style="stop-color:#1369b9;stop-opacity:1"
   offset="0.60100001" />
			<stop
   id="stop3127"
   style="stop-color:#214299;stop-opacity:1"
   offset="0.86379999" />
			<stop
   id="stop3129"
   style="stop-color:#292a86;stop-opacity:1"
   offset="1" />
		</linearGradient>
		<rect
   width="891.41901"
   height="346.81299"
   x="12.518"
   y="17.833"
   clip-path="url(#SVGID_2_)"
   id="rect3131"
   style="fill:url(#SVGID_3_)" />
	</g>
	<g
   id="g3133">
		<defs
   id="defs3135">
			<rect
   width="891.41901"
   height="346.81299"
   x="12.518"
   y="17.833"
   id="SVGID_4_" />
		</defs>
		<clipPath
   id="SVGID_5_">
			<use
   id="use3139"
   style="overflow:visible"
   x="0"
   y="0"
   width="916.45398"
   height="382.48099"
   xlink:href="#SVGID_4_" />
		</clipPath>
		<path
   d="m 65.649,68.917 h 68.593 c 48.936,0 78.26,29.739 78.26,79.109 0,52.297 -29.768,80.448 -78.26,80.448 H 65.649 V 68.917 z m 41.563,123.821 h 19.662 c 31.497,-0.697 44.033,-12.964 44.033,-44.94 0,-29.051 -15.623,-43.139 -44.033,-43.139 h -19.662 v 88.079 z"
   clip-path="url(#SVGID_5_)"
   id="path3141"
   style="fill:#ffffff" />
		<path
   d="m 262.014,97.988 h -37.971 v -29.07 h 37.971 v 29.07 z m -37.971,14.518 h 37.971 V 228.475 H 224.043 V 112.506 z"
   clip-path="url(#SVGID_5_)"
   id="path3143"
   style="fill:#ffffff" />
		<path
   d="m 279.153,112.506 h 36.883 v 20.308 h 0.427 c 5.615,-14.721 18.562,-22.548 34.884,-22.548 2.89,0 6.066,0.213 8.948,0.887 v 34.637 c -4.922,-1.346 -9.38,-2.229 -14.563,-2.229 -18.74,0 -28.596,12.951 -28.596,27.482 v 57.432 H 279.154 V 112.506 z"
   clip-path="url(#SVGID_5_)"
   id="path3145"
   style="fill:#ffffff" />
		<path
   d="m 399.072,179.77 c 0.637,15.861 9.795,26.387 25.91,26.387 9.158,0 18.099,-4.277 21.69,-12.734 h 35.552 c -6.96,26.798 -31.763,38.431 -57.701,38.431 -37.77,0 -63.459,-22.799 -63.459,-61.692 0,-35.553 28.386,-61.02 62.596,-61.02 41.527,0 62.338,31.292 60.541,70.629 h -85.129 z m 47.121,-21.246 c -0.669,-12.947 -9.804,-23.674 -22.533,-23.674 -13.451,0 -22.367,9.598 -24.588,23.674 h 47.121 z"
   clip-path="url(#SVGID_5_)"
   id="path3147"
   style="fill:#ffffff" />
		<path
   d="m 571.881,154.96 c -0.183,-9.827 -8.933,-16.757 -18.534,-16.757 -21.235,0 -24.585,18.099 -24.585,34.194 0,14.963 6.486,30.381 22.59,30.381 13.176,0 19.848,-7.606 21.658,-19.885 h 36.887 c -3.342,31.066 -27.507,48.959 -58.34,48.959 -34.848,0 -60.781,-23.927 -60.781,-59.455 0,-36.866 23.456,-63.257 60.781,-63.257 28.833,0 54.542,15.172 57.199,45.819 h -36.875 z"
   clip-path="url(#SVGID_5_)"
   id="path3149"
   style="fill:#ffffff" />
		<path
   d="m 692.041,137.059 h -23.496 v 52.765 c 0,9.17 5.386,11.189 13.648,11.189 3.137,0 6.482,-0.468 9.848,-0.468 v 27.93 c -6.924,0.238 -13.883,1.137 -20.803,1.137 -32.385,0 -40.664,-9.392 -40.664,-40.913 v -51.64 h -19.256 v -24.553 h 19.256 V 77.39 h 37.971 v 35.116 h 23.496 v 24.553 z"
   clip-path="url(#SVGID_5_)"
   id="path3151"
   style="fill:#ffffff" />
		<path
   d="m 760.743,147.157 v -0.439 c -14.95,-3.556 -23.218,-16.772 -23.218,-31.752 0,-30.823 31.756,-42.888 57.908,-42.888 26.568,0 57.214,12.064 57.214,43.138 0,14.064 -8.694,28.354 -23.004,31.502 v 0.439 c 17.856,3.579 29.253,17.22 29.253,36.887 0,34.419 -32.856,47.818 -63.693,47.818 -30.646,0 -64.369,-11.384 -64.369,-47.818 0,-18.12 12.072,-33.752 29.909,-36.887 m 8.079,34.875 c 0,15.435 12.75,21.908 26.145,21.908 12.947,0 25.914,-6.039 25.914,-21.908 0,-14.306 -11.367,-22.367 -25.678,-22.367 -13.631,0 -26.381,7.158 -26.381,22.367 m 2.459,-64.152 c 0,13.866 12.064,18.344 23.686,18.344 11.177,0 23.939,-4.926 23.939,-18.344 0,-12.734 -11.635,-17.877 -23.939,-17.877 -12.493,0 -23.686,4.889 -23.686,17.877"
   clip-path="url(#SVGID_5_)"
   id="path3153"
   style="fill:#ffffff" />
	</g>
</g>
</svg>