<?xml version="1.0" encoding="utf-8"?>
<!-- Generator: Adobe Illustrator 14.0.0, SVG Export Plug-In . SVG Version: 6.00 Build 43363)  -->
<!DOCTYPE svg PUBLIC "-//W3C//DTD SVG 1.1//EN" "http://www.w3.org/Graphics/SVG/1.1/DTD/svg11.dtd">
<svg version="1.1" id="Calque_1" xmlns="http://www.w3.org/2000/svg" xmlns:xlink="http://www.w3.org/1999/xlink" x="0px" y="0px"
	 width="916.454px" height="382.481px" viewBox="0 0 916.454 382.481" enable-background="new 0 0 916.454 382.481"
	 xml:space="preserve">
<g>
	<g>
		<defs>
			<path id="SVGID_1_" d="M57.499,17.833c-24.738,0-44.981,20.243-44.981,44.961v180.321c0,24.718,20.243,44.973,44.981,44.973
				h354.464v76.559l93.738-76.559h353.264c24.74,0,44.972-20.255,44.972-44.973V62.794c0-24.718-20.231-44.961-44.972-44.961H57.499
				z"/>
		</defs>
		<clipPath id="SVGID_2_">
			<use xlink:href="#SVGID_1_"  overflow="visible"/>
		</clipPath>
		
			<linearGradient id="SVGID_3_" gradientUnits="userSpaceOnUse" x1="-56.4883" y1="600.0669" x2="-52.359" y2="600.0669" gradientTransform="matrix(0 84.1992 84.1992 0 -50066.8281 4773.229)">
			<stop  offset="0" style="stop-color:#009EE3"/>
			<stop  offset="0.1523" style="stop-color:#0298DE"/>
			<stop  offset="0.3605" style="stop-color:#0886D0"/>
			<stop  offset="0.601" style="stop-color:#1369B9"/>
			<stop  offset="0.8638" style="stop-color:#214299"/>
			<stop  offset="1" style="stop-color:#292A86"/>
		</linearGradient>
		<rect x="12.518" y="17.833" clip-path="url(#SVGID_2_)" fill="url(#SVGID_3_)" width="891.419" height="346.813"/>
	</g>
	<g>
		<defs>
			<rect id="SVGID_4_" x="12.518" y="17.833" width="891.419" height="346.813"/>
		</defs>
		<clipPath id="SVGID_5_">
			<use xlink:href="#SVGID_4_"  overflow="visible"/>
		</clipPath>
		<path clip-path="url(#SVGID_5_)" fill="#FFFFFF" d="M65.649,68.917h68.593c48.936,0,78.26,29.739,78.26,79.109
			c0,52.297-29.768,80.448-78.26,80.448H65.649V68.917z M107.212,192.738h19.662c31.497-0.697,44.033-12.964,44.033-44.94
			c0-29.051-15.623-43.139-44.033-43.139h-19.662V192.738z"/>
		<path clip-path="url(#SVGID_5_)" fill="#FFFFFF" d="M262.014,97.988h-37.971v-29.07h37.971V97.988z M224.043,112.506h37.971
			v115.969h-37.971V112.506z"/>
		<path clip-path="url(#SVGID_5_)" fill="#FFFFFF" d="M279.153,112.506h36.883v20.308h0.427
			c5.615-14.721,18.562-22.548,34.884-22.548c2.89,0,6.066,0.213,8.948,0.887v34.637c-4.922-1.346-9.38-2.229-14.563-2.229
			c-18.74,0-28.596,12.951-28.596,27.482v57.432h-37.982V112.506z"/>
		<path clip-path="url(#SVGID_5_)" fill="#FFFFFF" d="M399.072,179.77c0.637,15.861,9.795,26.387,25.91,26.387
			c9.158,0,18.099-4.277,21.69-12.734h35.552c-6.96,26.798-31.763,38.431-57.701,38.431c-37.77,0-63.459-22.799-63.459-61.692
			c0-35.553,28.386-61.02,62.596-61.02c41.527,0,62.338,31.292,60.541,70.629H399.072z M446.193,158.524
			c-0.669-12.947-9.804-23.674-22.533-23.674c-13.451,0-22.367,9.598-24.588,23.674H446.193z"/>
		<path clip-path="url(#SVGID_5_)" fill="#FFFFFF" d="M571.881,154.96c-0.183-9.827-8.933-16.757-18.534-16.757
			c-21.235,0-24.585,18.099-24.585,34.194c0,14.963,6.486,30.381,22.59,30.381c13.176,0,19.848-7.606,21.658-19.885h36.887
			c-3.342,31.066-27.507,48.959-58.34,48.959c-34.848,0-60.781-23.927-60.781-59.455c0-36.866,23.456-63.257,60.781-63.257
			c28.833,0,54.542,15.172,57.199,45.819H571.881z"/>
		<path clip-path="url(#SVGID_5_)" fill="#FFFFFF" d="M692.041,137.059h-23.496v52.765c0,9.17,5.386,11.189,13.648,11.189
			c3.137,0,6.482-0.468,9.848-0.468v27.93c-6.924,0.238-13.883,1.137-20.803,1.137c-32.385,0-40.664-9.392-40.664-40.913v-51.64
			h-19.256v-24.553h19.256V77.39h37.971v35.116h23.496V137.059z"/>
		<path clip-path="url(#SVGID_5_)" fill="#FFFFFF" d="M760.743,147.157v-0.439c-14.95-3.556-23.218-16.772-23.218-31.752
			c0-30.823,31.756-42.888,57.908-42.888c26.568,0,57.214,12.064,57.214,43.138c0,14.064-8.694,28.354-23.004,31.502v0.439
			c17.856,3.579,29.253,17.22,29.253,36.887c0,34.419-32.856,47.818-63.693,47.818c-30.646,0-64.369-11.384-64.369-47.818
			C730.834,165.924,742.906,150.292,760.743,147.157 M768.822,182.032c0,15.435,12.75,21.908,26.145,21.908
			c12.947,0,25.914-6.039,25.914-21.908c0-14.306-11.367-22.367-25.678-22.367C781.572,159.665,768.822,166.823,768.822,182.032
			 M771.281,117.88c0,13.866,12.064,18.344,23.686,18.344c11.177,0,23.939-4.926,23.939-18.344
			c0-12.734-11.635-17.877-23.939-17.877C782.474,100.003,771.281,104.892,771.281,117.88"/>
	</g>
</g>
</svg>
