<?xml version="1.0" encoding="UTF-8" standalone="no"?>
<!-- Created with Inkscape (http://www.inkscape.org/) -->

<svg
   xmlns:dc="http://purl.org/dc/elements/1.1/"
   xmlns:cc="http://creativecommons.org/ns#"
   xmlns:rdf="http://www.w3.org/1999/02/22-rdf-syntax-ns#"
   xmlns:svg="http://www.w3.org/2000/svg"
   xmlns="http://www.w3.org/2000/svg"
   version="1.1"
   width="50"
   height="11"
   id="svg4321">
  <defs
     id="defs4323" />
  <metadata
     id="metadata4326">
    <rdf:RDF>
      <cc:Work
         rdf:about="">
        <dc:format>image/svg+xml</dc:format>
        <dc:type
           rdf:resource="http://purl.org/dc/dcmitype/StillImage" />
        <dc:title></dc:title>
      </cc:Work>
    </rdf:RDF>
  </metadata>
  <g
     transform="translate(-469.6496,-407.76615)"
     id="layer1">
    <g
       transform="matrix(0.06992931,0,0,0.06992931,436.66747,389.62198)"
       id="g3085">
      <rect
         width="402.34726"
         height="145.92133"
         rx="13.840593"
         ry="10.889552"
         x="784.31006"
         y="270.84482"
         id="rect4234-1-8"
         style="fill:#ec008c;fill-opacity:1;stroke:none" />
      <rect
         width="402.34726"
         height="145.92133"
         rx="13.840593"
         ry="10.889552"
         x="471.6496"
         y="270.84482"
         id="rect4234-1-8-2"
         style="fill:#ec008c;fill-opacity:1;stroke:none" />
      <path
         d="m 1171.7352,343.44887 c 0,32.42184 -26.2933,58.71517 -58.7151,58.71517 -32.4219,0 -58.7153,-26.29333 -58.7153,-58.71517 0,-32.42186 26.2934,-58.71518 58.7153,-58.71518 32.4218,0 58.7151,26.29332 58.7151,58.71518"
         id="path22698"
         style="fill:#ffffff;fill-rule:nonzero;stroke:none" />
      <path
         d="m 1039.5084,416.76614 0,-145.921 -498.25125,0 0,145.921 498.25125,0 z"
         id="path22660"
         style="fill:#1a1a1a;fill-rule:nonzero;stroke:none" />
      <g
         transform="matrix(0.80875057,0,0,0.80875057,830.25872,42.34775)"
         id="g4423"
         style="fill:#ffffff">
        <path
           d="m -300.23511,415.25426 4.77165,0 c 4.77166,0 7.77239,-4.52569 7.62481,-10.62554 l 0,-64.14678 c 0.14758,-6.14904 -2.85315,-10.62554 -7.62481,-10.62554 l -4.77165,0 0,85.39786 z m -32.51613,-107.04248 40.9772,0 c 22.13655,0 36.45151,4.13215 36.45151,32.95885 l 0,71.03371 c 0,19.28339 -14.51173,24.69454 -28.8267,24.69454 l -48.60201,0 0,-128.6871 z"
           id="path22666"
           style="fill:#ffffff;fill-rule:nonzero;stroke:none" />
        <path
           d="m -206.18924,409.484 c 0,4.5257 1.2298,8.46108 6.19823,8.46108 4.91923,0 6.19823,-3.93538 6.19823,-8.46108 l 0,-73.88686 c 0,-4.4765 -1.279,-8.46108 -6.19823,-8.46108 -4.96843,0 -6.19823,3.98458 -6.19823,8.46108 l 0,73.88686 z m -32.51612,-64.14678 c 0,-20.36562 6.00146,-39.84578 38.71435,-39.84578 32.71289,0 38.71435,19.48016 38.71435,39.84578 l 0,54.40671 c 0,20.36562 -6.00146,39.84577 -38.71435,39.84577 -32.71289,0 -38.71435,-19.48015 -38.71435,-39.84577 l 0,-54.40671 z"
           id="path22670"
           style="fill:#ffffff;fill-rule:nonzero;stroke:none" />
        <path
           d="m -113.21084,357.40902 2.45961,0 c 4.42731,0 9.74008,-1.62335 9.74008,-9.0022 l 0,-10.62554 c 0,-7.37885 -5.31277,-9.00219 -9.74008,-9.00219 l -2.45961,0 0,28.62993 z m -31.48309,-49.19232 35.9104,0 c 20.857542,0 36.943432,1.279 36.943432,26.12112 l 0,11.56019 c 0,14.01981 -5.31277,21.7922 -19.08662,22.67766 l 0,0.34435 c 14.46254,0.93465 20.31643,8.51027 20.31643,22.92362 l 0,45.06016 -30.400862,0 0,-48.84797 c 0,-6.14904 -1.77092,-11.16666 -8.51027,-11.16666 -1.57415,0 -2.45961,0.14758 -3.68942,0.54112 l 0,59.47351 -31.48309,0 0,-128.6871 z"
           id="path22674"
           style="fill:#ffffff;fill-rule:nonzero;stroke:none" />
        <path
           d="m -53.988208,345.3323 c 0,-20.36562 7.96916,-39.84578 39.40305,-39.84578 23.8582701,0 36.45151,13.52789 36.45151,36.25474 l 0,18.20116 -32.56532,0 0,-24.00585 c 0,-4.27973 0,-8.80543 -5.80469,-8.80543 -3.73862,0 -4.96843,3.98458 -4.96843,8.46108 l 0,73.88687 c 0,4.52569 1.22981,8.46107 4.96843,8.46107 5.80469,0 5.80469,-4.87004 5.80469,-10.42877 l 0,-26.12112 32.56532,0 0,21.25108 c 0,22.72685 -13.9706199,36.94343 -37.1402,36.94343 -32.7129,0 -38.71436,-19.48015 -38.71436,-39.84577 l 0,-54.40671 z"
           id="path22678"
           style="fill:#ffffff;fill-rule:nonzero;stroke:none" />
        <path
           d="m 36.692912,308.21178 54.99702,0 0,25.92435 -22.48089,0 0,23.61231 21.05431,0 0,24.89132 -21.05431,0 0,28.28558 24.25181,0 0,25.97354 -56.76794,0 0,-128.6871 z"
           id="path22682"
           style="fill:#ffffff;fill-rule:nonzero;stroke:none" />
        <path
           d="m 107.75614,308.21178 32.51612,0 0,103.79579 21.59543,0 0,24.89131 -54.11155,0 0,-128.6871 z"
           id="path22686"
           style="fill:#ffffff;fill-rule:nonzero;stroke:none" />
        <path
           d="m 167.09191,321.11 -10.92069,0 0,-13.77385 40.3377,0 0,13.77385 -10.96989,0 0,54.55429 -18.44712,0 0,-54.55429 z"
           id="path22702"
           style="fill:#ffffff;fill-rule:nonzero;stroke:none" />
        <path
           d="m 215.95956,307.33123 4.23054,55.0954 0.19677,0 4.72246,-55.0954 17.21731,0 -9.69088,68.32814 -26.21951,0 -8.90381,-68.32814 18.44712,0 z"
           id="path22706"
           style="fill:#ffffff;fill-rule:nonzero;stroke:none" />
        <g
           transform="matrix(1.0006241,0,0,0.99937629,-333.42136,-65.317806)"
           id="text2999-5"
           style="font-size:125.04082489px;font-style:normal;font-weight:normal;line-height:125%;letter-spacing:0px;word-spacing:0px;opacity:0.62790695;fill:#ffffff;fill-opacity:1;stroke:none;font-family:Sans">
          <path
             d="m 0.66356987,373.74875 25.22964913,0 c 16.25287,0 27.249876,-0.20548 32.978423,1.28646 5.728417,1.49219 9.81951,3.84791 12.803727,7.25824 2.984062,3.41056 4.482896,7.34785 5.229014,11.53086 0.745952,4.18323 1.485222,12.26244 1.485307,24.51864 l 0,45.32166 c -8.5e-5,11.61687 -0.06006,18.69239 -1.152382,22.60905 -1.092491,3.9167 -3.483777,7.67201 -6.201398,9.88347 -2.717775,2.21146 -6.002671,3.82715 -9.926242,4.99013 -3.920013,1.16193 -10.093519,1.54966 -18.178383,1.54966 l -42.26771513,0 z m 32.53610313,21.66595 0,85.38786 c 4.936447,0.32545 9.444568,-0.37005 10.314562,-3.24411 1.971028,-1.61532 2.144558,-7.31183 2.144558,-16.03455 l 0,-50.46292 c 0,-5.86161 0,-9.75331 -1.480164,-11.42221 -0.625656,-1.3877 -1.080441,-1.95933 -2.343136,-2.88948 -1.332253,-1.33459 -4.958974,-1.33448 -8.63582,-1.33459 z"
             id="path4004"
             style="font-size:163.70152283px;font-variant:normal;font-stretch:normal;text-align:start;line-height:125%;letter-spacing:1.87px;writing-mode:lr-tb;text-anchor:start;fill:#ffffff;font-family:Impact;-inkscape-font-specification:Impact" />
        </g>
        <g
           transform="matrix(1.0006241,0,0,0.99937629,-333.42136,-65.317806)"
           id="text2999-7"
           style="font-size:125.04082489px;font-style:normal;font-weight:normal;line-height:125%;letter-spacing:0px;word-spacing:0px;opacity:0.44573645;fill:#ffffff;fill-opacity:1;stroke:none;font-family:Sans">
          <path
             d="m 172.27111,449.27946 c -9e-5,13.00238 -0.30649,22.20792 -0.91922,27.61664 -0.6129,5.40878 -2.82176,11.55391 -6.04562,16.03011 -3.22401,4.47622 -7.28984,6.71066 -12.77846,9.10863 -5.48875,2.39797 -11.67494,3.18108 -18.97538,3.18108 -6.92751,0 -13.31067,-0.83386 -18.8726,-2.98125 -5.32145,-2.05454 -8.80778,-4.0564 -12.90461,-9.38774 -3.435251,-4.47041 -5.024901,-10.40332 -6.399065,-15.59113 -1.235789,-4.66541 -0.664021,-14.55543 -0.664021,-27.94824 l 0,-22.16937 c 0,-13.00224 0,-22.14596 0.624055,-27.61664 0.616926,-5.40818 2.385945,-10.57592 5.609891,-15.05224 3.22392,-4.47609 6.72775,-7.53103 12.21647,-9.92913 5.48865,-2.39784 12.88096,-3.75419 20.18149,-3.75432 6.92742,1.3e-4 15.00534,1.61993 20.52073,3.88455 5.51526,2.26488 7.89923,4.39342 11.25646,8.9228 3.35708,4.52961 5.55115,10.23993 6.19069,15.56865 0.63938,5.32892 0.9591,14.65436 0.95919,27.97633 z m -32.70615,-42.35543 c 0,-6.07268 -0.0427,-10.4051 -1.50251,-11.9099 -1.51232,-2.15616 -2.95395,-2.29296 -5.03215,-2.29307 -1.75855,1.1e-4 -3.4135,0.85375 -4.346,2.21249 -0.93259,1.35896 -1.57845,5.18344 -1.57845,11.84436 l 0,60.40641 c 0,7.51367 0.65649,11.98676 1.26934,13.74525 0.61278,1.75853 3.05491,2.59845 5.29306,2.59843 2.29134,2e-5 4.41103,-1.71494 5.05054,-3.73991 0.63941,-2.02493 0.84617,-5.79097 0.84617,-13.41122 z"
             id="path3995"
             style="font-size:163.70152283px;font-variant:normal;font-stretch:normal;text-align:start;line-height:125%;letter-spacing:1.87px;writing-mode:lr-tb;text-anchor:start;fill:#ffffff;font-family:Impact;-inkscape-font-specification:Impact" />
        </g>
        <g
           transform="matrix(1.0006241,0,0,0.99937629,-333.42136,-65.317806)"
           id="text2999-9"
           style="font-size:125.04082489px;font-style:normal;font-weight:normal;line-height:125%;letter-spacing:0px;word-spacing:0px;opacity:0.47286826;fill:#ffffff;fill-opacity:1;stroke:none;font-family:Sans">
          <path
             d="m 188.64475,373.43975 22.74553,0 c 15.87986,0 26.65601,0.25391 32.27798,1.47946 5.62184,1.22575 10.2362,3.12568 13.77994,8.1613 3.71107,4.87564 4.46285,12.53874 4.00256,24.00969 1.03387,10.56423 -0.97311,15.80505 -4.16096,20.17357 -2.80477,3.84356 -7.35239,6.35975 -14.90799,6.94846 6.56953,0.57598 13.02619,2.25582 15.71457,6.80028 2.29132,2.77105 3.29369,5.03726 3.85329,7.35525 0.55945,2.31809 0.83921,8.69935 0.83929,19.1438 l -0.12788,34.87636 -30.47146,0 0,-43.80505 c 0,-6.88417 0.12736,-10.05903 -1.64242,-13.20069 -1.21875,-1.83171 -4.58243,-4.36967 -10.53192,-2.52286 l 0,59.5286 -31.37053,0.309 z m 31.37053,20.94492 0,28.52174 c 3.73467,0.27222 7.79053,-0.34614 9.43781,-2.10279 1.9672,-1.95284 2.73653,-2.55685 2.73653,-9.13358 l 0,-7.02969 c 0.16579,-4.14423 -0.88196,-7.16861 -2.92814,-8.30358 -0.47073,-1.1967 -5.00293,-2.03185 -9.2462,-1.9521 z"
             id="path3982"
             style="font-size:163.70152283px;font-variant:normal;font-stretch:normal;text-align:start;line-height:125%;letter-spacing:1.87px;writing-mode:lr-tb;text-anchor:start;fill:#ffffff;font-family:Impact;-inkscape-font-specification:Impact" />
        </g>
        <g
           transform="matrix(0.98019728,0,0,1.0202028,-333.42136,-65.317806)"
           id="text2999-7-3"
           style="font-size:122.48823547px;font-style:normal;font-weight:normal;line-height:125%;letter-spacing:0px;word-spacing:0px;opacity:0.44573645;fill:#ffffff;fill-opacity:1;stroke:none;font-family:Sans">
          <path
             d="m 362.59635,416.96808 -33.41149,0 0,-17.99183 c 0,-6.42055 -0.0987,-10.17369 -0.79543,-11.76591 -0.69683,-1.592 -2.16144,-2.29998 -4.53567,-2.30009 -2.68398,1.1e-4 -3.62659,0.52541 -4.58766,2.37964 -0.95229,1.83731 -0.91036,6.03048 -0.91036,12.45103 l 0,58.75546 c 0,6.15968 0.007,9.96441 0.72987,11.8436 0.72256,1.87923 2.27105,3.25375 4.80019,3.25373 2.42583,2e-5 3.76801,-1.21485 4.51647,-3.09408 0.74836,-1.87919 0.78259,-6.03138 0.78259,-12.97407 l 0,-19.69676 33.39859,0 -0.0451,9.10349 c -0.0609,12.28182 0.46763,20.87724 -2.92251,27.5227 -1.83239,5.48106 -5.68427,10.34405 -11.95533,14.46788 -6.27121,4.12383 -14.27119,6.02609 -23.45849,6.0261 -9.54869,-10e-6 -18.01936,-1.91388 -24.21305,-5.41131 -6.19373,-3.49742 -10.21438,-9.176 -12.27135,-15.29547 -2.51386,-7.47875 -2.6487,-13.24436 -2.6487,-26.88473 l 0,-37.21786 c 0,-10.49665 0,-16.02483 1.19006,-20.36675 1.22083,-4.45418 2.8449,-8.99284 5.91597,-13.22119 3.07104,-4.22812 7.2841,-7.29164 12.72943,-9.71908 5.64511,-2.01981 11.58102,-3.29402 18.65222,-3.29415 9.32302,-0.37422 17.40053,1.25725 23.64591,5.01555 5.71667,3.02086 10.25835,8.48208 12.21978,14.09351 3.18657,5.71843 3.34333,14.20145 3.24498,25.71812 z"
             id="path3847"
             style="font-size:160.35971069px;font-variant:normal;font-stretch:normal;text-align:start;line-height:125%;letter-spacing:1.83182573px;writing-mode:lr-tb;text-anchor:start;fill:#ffffff;font-family:Impact;-inkscape-font-specification:Impact" />
        </g>
        <g
           transform="matrix(1.0006241,0,0,0.99937629,-333.42136,-65.317806)"
           id="text2999-5-9"
           style="font-size:125.04082489px;font-style:normal;font-weight:normal;line-height:125%;letter-spacing:0px;word-spacing:0px;opacity:0.62790695;fill:#ffffff;fill-opacity:1;stroke:none;font-family:Sans">
          <path
             d="m 369.89909,373.74875 55.08653,0 0,26.01535 -22.56881,0 0,23.45131 21.14491,0 0,25.09192 -21.14491,0 0,28.08585 24.46634,0 -0.18944,26.30374 -56.79462,0 z"
             id="path3957"
             style="font-size:163.70152283px;font-variant:normal;font-stretch:normal;text-align:start;line-height:125%;letter-spacing:1.87px;writing-mode:lr-tb;text-anchor:start;fill:#ffffff;font-family:Impact;-inkscape-font-specification:Impact" />
        </g>
        <g
           transform="matrix(1.0006241,0,0,0.99937629,-333.42136,-65.317806)"
           id="text2999-5-4"
           style="font-size:125.04082489px;font-style:normal;font-weight:normal;line-height:125%;letter-spacing:0px;word-spacing:0px;opacity:0.62790695;fill:#ffffff;fill-opacity:1;stroke:none;font-family:Sans">
          <path
             d="m 473.3982,373.74875 0,103.8097 21.64327,0 0,25.13847 -54.22012,1e-5 0.11194,-128.94818 z"
             id="path3940"
             style="font-size:163.70152283px;font-variant:normal;font-stretch:normal;text-align:start;line-height:125%;letter-spacing:1.87px;writing-mode:lr-tb;text-anchor:start;fill:#ffffff;font-family:Impact;-inkscape-font-specification:Impact" />
        </g>
        <g
           transform="matrix(1.0006241,0,0,0.99937629,-333.55539,-65.349576)"
           id="text2999-5-47"
           style="font-size:66.8000412px;font-style:normal;font-weight:normal;line-height:125%;letter-spacing:0px;word-spacing:0px;opacity:0.62790695;fill:#ffffff;fill-opacity:1;stroke:none;font-family:Sans">
          <path
             d="m 529.77618,372.9208 0,13.75778 -11.03521,0 0,54.67472 -18.34881,0 0,-54.67472 -10.98353,0 0,-13.75778 z"
             id="path3910"
             style="font-size:87.45358276px;font-variant:normal;font-stretch:normal;text-align:start;line-height:125%;letter-spacing:0.99900234px;writing-mode:lr-tb;text-anchor:start;fill:#ffffff;font-family:Impact;-inkscape-font-specification:Impact" />
        </g>
        <g
           transform="matrix(1.0006241,0,0,0.99937629,-333.42136,-65.317806)"
           id="text2999-5-47-0"
           style="font-size:66.8000412px;font-style:normal;font-weight:normal;line-height:125%;letter-spacing:0px;word-spacing:0px;opacity:0.62790695;fill:#ffffff;fill-opacity:1;stroke:none;font-family:Sans">
          <path
             d="m 575.57025,372.889 -9.79495,68.43251 -26.31408,0 -9.10731,-68.43594 18.95966,0 c 1.4532,19.33173 3.18311,41.62907 4.12258,54.78123 1.65223,-18.28243 3.00151,-36.53526 4.75943,-54.78123 z"
             id="path3927"
             style="font-size:87.45358276px;font-variant:normal;font-stretch:normal;text-align:start;line-height:125%;letter-spacing:0.99900234px;writing-mode:lr-tb;text-anchor:start;fill:#ffffff;font-family:Impact;-inkscape-font-specification:Impact" />
        </g>
      </g>
      <path
         d="m 1147.8246,385.27546 c -2.2352,0.19956 -11.1758,0.75835 -14.4088,-0.43905 -3.1531,-1.11758 -4.9094,-3.99135 -6.8252,-6.34624 -2.3948,-2.79394 -4.7896,-5.62779 -7.1445,-8.46165 -2.1553,-2.51454 -4.2707,-5.02909 -6.3861,-7.54364 l -0.04,0 c -5.9072,6.94494 -11.8144,13.88988 -17.6817,20.83481 -0.9179,0.75836 -2.1154,1.43689 -3.5123,1.7562 -2.1953,0.51888 -12.5728,0.63861 -14.6882,0 -1.1575,-0.31931 -2.1553,-1.03775 -2.794,-1.87593 -1.8359,-2.3549 -1.7561,-11.13585 -0.439,-14.12936 1.0777,-2.43472 3.4724,-4.27074 5.1089,-6.2265 5.6677,-6.46598 11.2956,-12.97187 16.9234,-19.43785 -5.6278,-6.46598 -11.2557,-12.93196 -16.9234,-19.43784 -1.6365,-1.95577 -4.0312,-3.75187 -5.1089,-6.22651 -1.3171,-2.9935 -1.3969,-11.77446 0.439,-14.12936 0.6387,-0.83818 1.6365,-1.55662 2.794,-1.87593 2.1154,-0.5987 12.4929,-0.51888 14.6882,0 1.3969,0.31931 2.5944,0.99784 3.5123,1.7562 5.8673,6.94493 11.7745,13.88987 17.6817,20.83482 l 0.04,0 c 5.8673,-6.94495 11.7744,-13.88989 17.6417,-20.83482 0.918,-0.75836 2.1154,-1.43689 3.5124,-1.7562 2.1952,-0.51888 12.5727,-0.5987 14.6881,0 1.1575,0.31931 2.1554,1.03775 2.794,1.87593 1.836,2.3549 1.7561,11.13586 0.439,14.12936 -1.0776,2.47464 -3.4725,4.27074 -5.1089,6.22651 -5.6677,6.50588 -11.2955,12.97186 -16.9233,19.43784 5.6278,6.46598 11.2556,12.97187 16.9233,19.43785 1.7562,2.11541 4.2308,3.95143 5.3085,6.70546 0.5987,1.55662 0.5188,3.83169 0.5188,6.06685 0,5.94709 -0.3192,8.42173 -5.029,9.65905"
         id="path22718"
         style="fill:#ec008c;fill-opacity:1;fill-rule:evenodd;stroke:none" />
      <g
         id="g3075">
        <g
           transform="matrix(0,-0.34219118,0.35615729,0,354.39814,407.46694)"
           id="text2999-7-3-4"
           style="font-size:122.48823547px;font-style:normal;font-weight:normal;line-height:125%;letter-spacing:0px;word-spacing:0px;fill:#ffffff;fill-opacity:1;stroke:none;font-family:Sans">
          <path
             d="m 362.59635,416.96808 -33.41149,0 0,-17.99183 c 0,-6.42055 -0.0987,-10.17369 -0.79543,-11.76591 -0.69683,-1.592 -2.16144,-2.29998 -4.53567,-2.30009 -2.68398,1.1e-4 -3.62659,0.52541 -4.58766,2.37964 -0.95229,1.83731 -0.91036,6.03048 -0.91036,12.45103 l 0,58.75546 c 0,6.15968 0.007,9.96441 0.72987,11.8436 0.72256,1.87923 2.27105,3.25375 4.80019,3.25373 2.42583,2e-5 3.76801,-1.21485 4.51647,-3.09408 0.74836,-1.87919 0.78259,-6.03138 0.78259,-12.97407 l 0,-19.69676 33.39859,0 -0.0451,9.10349 c -0.0609,12.28182 0.46763,20.87724 -2.92251,27.5227 -1.83239,5.48106 -5.68427,10.34405 -11.95533,14.46788 -6.27121,4.12383 -14.27119,6.02609 -23.45849,6.0261 -9.54869,-10e-6 -18.01936,-1.91388 -24.21305,-5.41131 -6.19373,-3.49742 -10.21438,-9.176 -12.27135,-15.29547 -2.51386,-7.47875 -2.6487,-13.24436 -2.6487,-26.88473 l 0,-37.21786 c 0,-10.49665 0,-16.02483 1.19006,-20.36675 1.22083,-4.45418 2.8449,-8.99284 5.91597,-13.22119 3.07104,-4.22812 7.2841,-7.29164 12.72943,-9.71908 5.64511,-2.01981 11.58102,-3.29402 18.65222,-3.29415 9.32302,-0.37422 17.40053,1.25725 23.64591,5.01555 5.71667,3.02086 10.25835,8.48208 12.21978,14.09351 3.18657,5.71843 3.34333,14.20145 3.24498,25.71812 z"
             id="path3847-8"
             style="font-size:160.35971069px;font-variant:normal;font-stretch:normal;text-align:start;line-height:125%;letter-spacing:1.83182573px;writing-mode:lr-tb;text-anchor:start;fill:#ffffff;font-family:Impact;-inkscape-font-specification:Impact" />
        </g>
        <g
           transform="matrix(0,-0.33730708,0.36223136,0,348.58523,402.381)"
           id="text2999-9-9"
           style="font-size:125.04082489px;font-style:normal;font-weight:normal;line-height:125%;letter-spacing:0px;word-spacing:0px;fill:#ffffff;fill-opacity:1;stroke:none;font-family:Sans">
          <path
             d="m 188.64475,373.43975 22.74553,0 c 15.87986,0 26.65601,0.25391 32.27798,1.47946 5.62184,1.22575 10.2362,3.12568 13.77994,8.1613 3.71107,4.87564 4.46285,12.53874 4.00256,24.00969 1.03387,10.56423 -0.97311,15.80505 -4.16096,20.17357 -2.80477,3.84356 -7.35239,6.35975 -14.90799,6.94846 6.56953,0.57598 13.02619,2.25582 15.71457,6.80028 2.29132,2.77105 3.29369,5.03726 3.85329,7.35525 0.55945,2.31809 0.83921,8.69935 0.83929,19.1438 l -0.12788,34.87636 -30.47146,0 0,-43.80505 c 0,-6.88417 0.12736,-10.05903 -1.64242,-13.20069 -1.21875,-1.83171 -4.58243,-4.36967 -10.53192,-2.52286 l 0,59.5286 -31.37053,0.309 z m 31.37053,20.94492 0,28.52174 c 3.73467,0.27222 7.79053,-0.34614 9.43781,-2.10279 1.9672,-1.95284 2.73653,-2.55685 2.73653,-9.13358 l 0,-7.02969 c 0.16579,-4.14423 -0.88196,-7.16861 -2.92814,-8.30358 -0.47073,-1.1967 -5.00293,-2.03185 -9.2462,-1.9521 z"
             id="path3982-6"
             style="font-size:163.70152283px;font-variant:normal;font-stretch:normal;text-align:start;line-height:125%;letter-spacing:1.87px;writing-mode:lr-tb;text-anchor:start;fill:#ffffff;font-family:Impact;-inkscape-font-specification:Impact" />
        </g>
        <g
           transform="matrix(0,-0.96145064,1.040095,0,0,0)"
           id="text2999-0"
           style="font-size:43.4960556px;font-style:normal;font-weight:normal;line-height:125%;letter-spacing:0px;word-spacing:0px;fill:#ffffff;fill-opacity:1;stroke:none;font-family:Sans">
          <path
             d="m -387.16537,465.20447 0,45.01608 -10.2322,0 0,-30.39072 -4.08731,30.39072 -7.25707,0 -4.30976,-29.6956 0,29.6956 -10.23219,0 0,-45.01608 15.15366,0 c 0.44486,2.70638 0.91754,5.89467 1.41804,9.56487 l 1.61269,11.45561 2.66926,-21.02048 z"
             id="path3073"
             style="font-size:56.94437027px;font-variant:normal;font-stretch:normal;text-align:start;line-height:125%;letter-spacing:0.6504885px;writing-mode:lr-tb;text-anchor:start;fill:#ffffff;font-family:Impact;-inkscape-font-specification:Impact" />
        </g>
        <g
           transform="matrix(0,-0.92501933,1.0810585,0,0,0)"
           id="text2999-0-5"
           style="font-size:41.84790039px;font-style:normal;font-weight:normal;line-height:125%;letter-spacing:0px;word-spacing:0px;fill:#ffffff;fill-opacity:1;stroke:none;font-family:Sans">
          <path
             d="m -376.33257,447.57691 6.44706,43.31033 -11.52981,0 -0.56177,-7.78463 -4.03945,0 -0.66878,7.78463 -11.66356,0 5.72478,-43.31033 z m -5.96554,27.84809 c -0.57071,-4.90439 -1.1414,-10.95909 -1.71208,-18.16413 -1.1414,8.27509 -1.85477,14.32979 -2.1401,18.16413 z"
             id="path3070"
             style="font-size:54.78662872px;font-variant:normal;font-stretch:normal;text-align:start;line-height:125%;letter-spacing:0.62584019px;writing-mode:lr-tb;text-anchor:start;fill:#ffffff;font-family:Impact;-inkscape-font-specification:Impact" />
        </g>
      </g>
    </g>
  </g>
</svg>
