<?xml version="1.0" encoding="UTF-8" standalone="no"?>
<!-- Created with Inkscape (http://www.inkscape.org/) -->
<svg xmlns:dc="http://purl.org/dc/elements/1.1/" xmlns:cc="http://creativecommons.org/ns#" xmlns:rdf="http://www.w3.org/1999/02/22-rdf-syntax-ns#" xmlns:svg="http://www.w3.org/2000/svg" xmlns="http://www.w3.org/2000/svg" xmlns:sodipodi="http://sodipodi.sourceforge.net/DTD/sodipodi-0.dtd" xmlns:inkscape="http://www.inkscape.org/namespaces/inkscape" width="403" height="387" id="svg2" version="1.1" inkscape:version="0.47 r22583">
  <g inkscape:label="Layer 1" inkscape:groupmode="layer" id="layer1" transform="translate(-26.090375,207.69244)">
    <path style="fill:#520021;fill-rule:nonzero;stroke:none" d="m 26.090375,-207.68927 403.000005,0 0,386.99682 -403.000005,0 z" id="path8033"/>
    <path style="fill:#231f20;fill-rule:nonzero;stroke:none" d="m 26.090375,-207.68927 403.000005,0 0,386.99682 -403.000005,0 z" id="path8037"/>
    <path id="path8039" d="m 74.010512,127.27487 13.619093,0 c 7.331066,0 14.900545,-1.46026 20.473345,-5.60261 l -2.14568,9.05953 c -3.18872,0.20861 -7.092658,0.50662 -11.354212,0.50662 l -34.181839,0 c 2.592694,-3.36752 2.950307,-8.49331 2.950307,-12.93367 l 0,-37.102342 c 0,-4.440361 0,-9.566147 -2.592694,-12.903868 l 41.274498,0 0.47682,7.599276 C 98.387795,72.917698 92.010364,72.232273 85.00711,72.232273 l -10.996598,0 0,23.572654 c 9.11913,0 18.715078,0 27.804408,-0.685425 -4.142351,5.632408 -17.493235,5.632408 -24.854102,5.632408 l -2.950306,0 0,26.52296" style="fill:#fec057;fill-rule:nonzero;stroke:none"/>
    <path id="path8041" d="m 190.32413,141.10257 c -1.90727,3.45692 -7.45027,3.93374 -11.47342,3.93374 -18.80448,0 -35.49309,-12.21844 -39.87384,-12.21844 -14.78134,0 -22.82763,-10.46018 -22.82763,-21.9038 0,-15.287949 10.16217,-25.271311 27.92361,-25.271311 16.30119,0 22.82763,11.145604 22.82763,21.903791 0,8.99993 -3.54633,16.48 -10.8774,21.21837 -1.54965,0.98344 -2.9801,1.37085 -2.9801,1.87747 0,1.78806 5.21518,3.06951 7.68867,4.05295 9.47675,3.63573 19.54951,6.40723 28.40043,6.40723 l 1.19205,0 z m -33.37721,-29.20506 c 0,-11.53302 -4.26156,-22.678622 -16.77801,-22.678622 -11.1456,0 -14.09591,9.148932 -14.09591,17.344232 0,11.56282 4.26155,22.70842 16.80781,22.70842 11.1158,0 14.06611,-9.17873 14.06611,-17.37403" style="fill:#fec057;fill-rule:nonzero;stroke:none"/>
    <path id="path8043" d="m 209.96304,93.927459 c 0,-3.337721 -0.11921,-5.304592 -2.5927,-6.705243 l 11.35422,-1.579457 0,35.731491 c 0,4.02315 0,7.89729 2.47349,9.86416 l -11.11581,0.59602 0,-3.45692 c 0,-0.80463 -0.1192,-1.57946 -0.59602,-1.57946 -0.83443,0 -5.4238,6.01982 -15.49656,6.01982 -8.04629,0 -14.42372,-4.55957 -14.42372,-13.23168 l 0,-26.046145 c 0,-3.337721 -0.11921,-5.334393 -2.6225,-6.705243 3.18872,-0.387414 7.92709,-1.192043 9.59595,-1.192043 1.54966,0 1.75826,0.804629 1.75826,2.175479 l 0,26.433562 c 0,6.31782 1.07284,13.23168 10.54959,13.23168 10.75819,0 11.1158,-9.86416 11.1158,-16.56941 l 0,-16.986611" style="fill:#fec057;fill-rule:nonzero;stroke:none"/>
    <path id="path8045" d="m 246.85678,85.642759 0,34.926861 c 0,3.66554 0,7.89729 2.14567,10.66879 l -13.02307,0 c 2.14568,-2.7715 2.14568,-7.00325 2.14568,-10.66879 l 0,-26.642161 c -0.11921,-3.337721 -0.11921,-5.304592 -2.6225,-6.705243 l 11.35422,-1.579457 z m -2.95031,-16.360793 5.4536,6.61584 -8.52311,4.619167 -5.4536,-6.407232 8.52311,-4.827775" style="fill:#fec057;fill-rule:nonzero;stroke:none"/>
    <path id="path8047" d="m 299.9921,132.43045 -0.47682,-3.75493 c 0,-0.29801 -0.1192,-0.89403 -0.59602,-0.89403 -0.83443,0 -5.06618,5.03638 -15.97338,5.03638 -14.06611,0 -20.35413,-11.65222 -20.35413,-21.9932 0,-15.794571 12.18864,-25.181911 30.90372,-25.181911 2.11587,0 4.14235,0.208607 6.13902,0.417215 l 0,-12.427051 c 0,-4.052946 0,-7.897286 -2.5927,-9.893958 l 11.35422,-1.579457 0,58.410112 c 0,3.75494 0,7.98669 2.11587,10.66879 l -10.51978,1.19204 z m -0.35761,-36.118905 c 0,-4.648968 -1.28145,-7.092657 -7.33107,-7.092657 -13.14227,0 -20.23493,8.284701 -20.23493,19.519712 0,8.97012 5.21519,18.95348 17.40383,18.95348 6.85425,0 10.16217,-4.35096 10.16217,-9.86415 l 0,-21.516385" style="fill:#fec057;fill-rule:nonzero;stroke:none"/>
    <path id="path8049" d="m 335.8428,85.642759 0,34.926861 c 0,3.66554 0,7.89729 2.11588,10.66879 l -12.99327,0 c 2.11587,-2.7715 2.11587,-7.00325 2.11587,-10.66879 l 0,-26.642161 c -0.1192,-3.337721 -0.1192,-5.304592 -2.59269,-6.705243 l 11.35421,-1.579457 z m -2.95031,-16.360793 5.4238,6.61584 -8.49331,4.619167 -5.4536,-6.407232 8.52311,-4.827775" style="fill:#fec057;fill-rule:nonzero;stroke:none"/>
    <path id="path8051" d="m 382.21328,131.83443 c -1.04304,-3.66553 -0.95363,-6.13902 -1.87747,-6.13902 -0.47681,0 -0.59602,0.20861 -0.71522,0.29801 -3.06951,3.75494 -5.57281,6.82445 -13.85751,6.82445 -8.13569,0 -14.66213,-3.75494 -14.66213,-10.9668 0,-8.58271 13.38069,-12.12904 21.30778,-15.28795 6.73504,-2.6523 8.4039,-2.86091 8.4039,-9.268139 0,-4.946979 -2.26488,-8.672114 -9.23833,-8.672114 -11.23501,0 -6.61584,9.446942 -14.33432,9.446942 -2.5927,0 -4.35096,-1.072839 -4.35096,-3.427124 0,-6.705243 11.95023,-8.999926 21.03956,-8.999926 8.40391,0 15.61577,1.579457 15.61577,8.01649 l 0,21.695191 c 0,5.81121 -0.35762,11.83102 3.33772,15.88397 l -10.66879,0.59602 z m -12.06944,-4.55956 c 7.12246,0 10.66879,-5.30459 10.66879,-10.937 l 0,-9.98336 -6.40723,2.6821 c -8.76152,3.63573 -13.35089,5.6324 -13.35089,11.235 0,4.73838 3.78474,7.00326 9.08933,7.00326" style="fill:#fec057;fill-rule:nonzero;stroke:none"/>
    <path id="path8053" d="m 299.09807,-128.5674 1.99667,9.68535 -88.39,0 63.98292,9.02972 -63.68491,-0.2384 59.90017,8.91052 -59.12534,1.192041 54.20816,8.612513 -54.62538,2.324484 47.59233,7.569474 -0.80463,2.20528 c 0,0 -5.18539,7.569474 -19.3409,6.764845 0,0 -50.00622,-8.672114 -72.77424,-4.648968 -26.61237,4.70857 -61.80744,7.956888 -79.15167,-6.705243 0,0 -1.579457,21.695186 27.02958,26.105746 0,0 9.44694,2.056274 31.85735,-7.807883 0,0 9.26814,-4.768173 14.51313,-6.526437 0,0 -6.28803,5.602603 -7.15226,16.927014 0,0 -44.82082,17.999852 -74.651704,48.545959 l 4.321156,5.0959847 c 0,0 42.049328,-35.3142797 70.837168,-41.9301197 0,0 0.32781,-0.119204 2.98011,5.066184 0,0 -41.3639,15.705169 -71.194782,44.7016198 l 4.887377,6.2582272 c 0,0 115.687795,-101.949495 279.534135,-2.9503074 l 4.70857,-4.7085706 c 0,0 -39.75465,-29.503069 -74.53251,-42.436738 0,0 0.74503,-0.625823 2.47349,-4.350958 0,0 35.7613,12.486653 73.45967,39.695039 l 4.88737,-3.9039415 c 0,0 -45.62545,-34.0626345 -75.99275,-47.1453085 l 0,-38.950012 c 0,0 13.32108,2.413888 24.49649,4.380759 l 9.35754,2.026474 c 0,0 1.10264,0.357613 1.69866,-0.0596 l 7.00325,-4.231753 c 0,0 1.25165,-1.221844 1.04304,-3.665533 0,0 -51.22806,-32.483178 -51.34726,-34.837458" style="fill:#ffffff;fill-rule:nonzero;stroke:none"/>
  </g>
</svg>