<?xml version="1.0" encoding="UTF-8" standalone="no"?>
<!-- Generator: Adobe Illustrator 15.0.0, SVG Export Plug-In . SVG Version: 6.00 Build 0)  -->

<svg
   xmlns:dc="http://purl.org/dc/elements/1.1/"
   xmlns:cc="http://creativecommons.org/ns#"
   xmlns:rdf="http://www.w3.org/1999/02/22-rdf-syntax-ns#"
   xmlns:svg="http://www.w3.org/2000/svg"
   xmlns="http://www.w3.org/2000/svg"
   xmlns:sodipodi="http://sodipodi.sourceforge.net/DTD/sodipodi-0.dtd"
   xmlns:inkscape="http://www.inkscape.org/namespaces/inkscape"
   version="1.1"
   id="Calque_1"
   x="0px"
   y="0px"
   width="580.5083"
   height="235.95062"
   viewBox="0 0 580.5083 235.95062"
   enable-background="new 0 0 612 792"
   xml:space="preserve"
   inkscape:version="0.48.0 r9654"
   sodipodi:docname="Escales Logo.svg"><metadata
   id="metadata33"><rdf:RDF><cc:Work
       rdf:about=""><dc:format>image/svg+xml</dc:format><dc:type
         rdf:resource="http://purl.org/dc/dcmitype/StillImage" /><dc:title /></cc:Work></rdf:RDF></metadata><defs
   id="defs31">
	

		
		
		
		
		
		
		
		
		
		
		
	</defs><sodipodi:namedview
   pagecolor="#ffffff"
   bordercolor="#666666"
   borderopacity="1"
   objecttolerance="10"
   gridtolerance="10"
   guidetolerance="10"
   inkscape:pageopacity="0"
   inkscape:pageshadow="2"
   inkscape:window-width="1920"
   inkscape:window-height="1018"
   id="namedview29"
   showgrid="false"
   inkscape:zoom="1.0392327"
   inkscape:cx="517.9594"
   inkscape:cy="109.00531"
   inkscape:window-x="-8"
   inkscape:window-y="-8"
   inkscape:window-maximized="1"
   inkscape:current-layer="Calque_1"
   fit-margin-top="5"
   fit-margin-left="5"
   fit-margin-right="5"
   fit-margin-bottom="5" />
<g
   id="g3939"
   transform="translate(367.16488,-54.850232)"><path
     inkscape:connector-curvature="0"
     id="path9"
     d="m 129.0542,59.850232 c -2.04364,-7e-5 -4.13649,0.05457 -6.22395,0.05457 l -484.72215,0 c -0.16306,0.02388 -0.13904,0.219404 -0.12739,0.41857 0.14151,49.268078 -0.14559,100.291238 -0.14559,148.992688 0,4.34031 0.0445,8.10191 0.69155,11.73815 1.81463,10.19593 5.80495,18.55699 10.91922,26.15152 6.75302,10.02821 15.58812,17.53786 25.71475,24.04047 10.2594,6.58822 21.83348,11.58893 35.77862,13.68542 7.45826,1.12104 15.68888,0.83714 24.04048,0.83714 157.2594,0 315.655713,0.001 472.67461,0 0.72446,0.10599 0.37722,-0.29555 0.41857,-0.54596 0.60857,-3.6543 0,-8.14719 0,-12.30232 -5.8e-4,-45.38724 5.8e-4,-91.95653 0,-136.69037 0,-8.4803 -0.69024,-15.75832 -2.92999,-21.94762 -2.1885,-6.04779 -5.06884,-11.38729 -8.51699,-16.360621 -6.77573,-9.773134 -15.18935,-18.003019 -25.29618,-24.313452 -10.2198,-6.380869 -22.24505,-11.336882 -36.34278,-13.412406 -1.8982,-0.279241 -3.88914,-0.345706 -5.93278,-0.345775 z"
     style="fill:#697c37;fill-opacity:1;fill-rule:evenodd" /><path
     inkscape:connector-curvature="0"
     id="path3060"
     d="m -171.07077,86.991428 0,117.363362 c 0,1.87409 0.0849,3.72541 0.27298,5.5506 0.18807,1.82519 0.47022,3.63783 0.83714,5.40501 0.36692,1.76719 0.82835,3.48654 1.3649,5.18663 0.53654,1.70008 1.14114,3.38075 1.83807,5.00464 0.69692,1.62389 1.48135,3.19306 2.32943,4.73166 0.84808,1.5386 1.77619,3.03266 2.7662,4.47688 0.99001,1.44421 2.04387,2.84497 3.16657,4.1857 1.12271,1.34072 2.30258,2.62997 3.54875,3.85812 1.24617,1.22815 2.55231,2.38768 3.91272,3.49415 1.3604,1.10647 2.77489,2.15448 4.24029,3.13017 1.46541,0.97569 2.98849,1.89399 4.54967,2.72981 1.56118,0.83581 3.15673,1.58798 4.80446,2.27483 1.64772,0.68685 3.3524,1.30929 5.07743,1.83807 1.72503,0.52878 3.48451,0.96688 5.27762,1.3285 1.79312,0.36163 3.60764,0.63359 5.45961,0.81895 1.85197,0.18535 3.74001,0.29118 5.6416,0.29118 l 133.232616,0 0,-117.38157 c 0,-1.87408 -0.103101,-3.72541 -0.291179,-5.5506 -0.188078,-1.82518 -0.470213,-3.61963 -0.83714,-5.38681 -0.366926,-1.76718 -0.810159,-3.50474 -1.346703,-5.20482 -0.536544,-1.70009 -1.159341,-3.36255 -1.856267,-4.98645 -0.696925,-1.62389 -1.463151,-3.21125 -2.311233,-4.74985 -0.8480827,-1.53861 -1.7761927,-3.03267 -2.7662015,-4.47688 -0.9900088,-1.44422 -2.0438674,-2.82677 -3.1665723,-4.1675 -1.122705,-1.34073 -2.3207729,-2.62998 -3.5669436,-3.85813 -1.24617065,-1.22814 -2.5523184,-2.40587 -3.9127186,-3.512343 -1.3604003,-1.106469 -2.7748899,-2.136287 -4.2402952,-3.111976 -1.4654052,-0.975689 -2.9702948,-1.893986 -4.5314738,-2.729804 -1.56118,-0.835818 -3.17493,-1.606184 -4.822654,-2.293035 -1.647724,-0.686851 -3.334204,-1.291088 -5.059236,-1.819869 -1.725032,-0.528781 -3.484505,-0.966884 -5.27762,-1.328505 -1.793116,-0.361621 -3.625838,-0.651781 -5.477807,-0.837139 -1.851968,-0.185359 -3.72181,-0.272981 -5.623395,-0.272981 l -133.232617,0 z m 39.72774,40.255502 86.243599,0 c 1.560091,0 3.096771,0.13664 4.567871,0.41857 1.471101,0.28193 2.888479,0.70202 4.240295,1.23751 1.351817,0.53549 2.637687,1.18658 3.839924,1.94726 1.202238,0.76069 2.307985,1.62672 3.330361,2.58422 1.022376,0.9575 1.95398,2.02242 2.766201,3.14837 0.812215,1.12596 1.521079,2.3191 2.09285,3.58514 0.57177,1.26604 1.009273,2.58956 1.310305,3.96732 0.301033,1.37775 0.454968,2.81559 0.454968,4.27669 l 0,70.01037 -86.243604,0 c -1.56009,0 -3.07857,-0.13665 -4.54967,-0.41857 -1.4711,-0.28193 -2.88848,-0.70202 -4.24029,-1.23751 -1.35182,-0.53549 -2.63769,-1.18658 -3.83993,-1.94726 -1.20224,-0.76068 -2.32618,-1.62672 -3.34856,-2.58422 -1.02237,-0.9575 -1.95398,-2.02242 -2.7662,-3.14837 -0.81221,-1.12596 -1.50288,-2.31911 -2.07465,-3.58514 -0.57177,-1.26604 -1.02747,-2.58956 -1.3285,-3.96732 -0.30104,-1.37775 -0.45497,-2.81559 -0.45497,-4.27669 l 0,-70.01037 z"
     style="fill:#4e5c27;fill-opacity:1;stroke:none" /><g
     transform="matrix(0.58235813,0,0,0.58235813,98.917169,-38.732081)"
     id="g3831"><path
       clip-rule="evenodd"
       d="m -317.703,307.412 c 9.92,0 19.84,0 29.76,0 15.563,40.358 31.608,80.231 47.04,120.719 -7.68,0 -15.359,0 -23.04,0 -13.066,-33.492 -25.905,-67.212 -39.12,-100.56 -13.042,33.438 -25.989,66.972 -38.88,100.56 -7.68,0 -15.36,0 -23.04,0 15.682,-40.316 31.2,-80.801 47.28,-120.719 z"
       id="path11"
       inkscape:connector-curvature="0"
       style="fill:#98b14e;fill-opacity:1;fill-rule:evenodd" /><path
       clip-rule="evenodd"
       d="m -206.24754,308.10986 c 0.283,23.506 -0.001,48.334 0,73.201 0,10.609 -0.957,21.184 5.52,24.959 4.333,2.527 11.964,2.16 18.48,2.16 20.212,0 42.231,0 61.439,0 0,6.561 0,13.121 0,19.68 -22.275,0 -47.141,0 -70.8,0 -7.808,0 -15.887,0.363 -21.6,-1.92 -12.202,-4.873 -15.359,-16.639 -15.36,-34.08 -0.002,-27.619 -0.394,-57.371 0.479,-84 7.111,-0.654 14.527,0.098 21.842,0 z"
       id="path13"
       inkscape:connector-curvature="0"
       style="fill:#ffffff;fill-rule:evenodd" /><path
       clip-rule="evenodd"
       d="m -625.03368,377.07752 c -32.64,0.561 -66.32,0.08 -99.36,0.24 -1.742,16.758 3.911,27.764 16.56,30.721 7.508,1.756 16.979,0.721 26.16,0.721 9.006,0 18.146,0 26.64,0 0,6.318 0,12.639 0,18.959 -21.067,-1.109 -41.79,1.582 -62.4,-0.24 -16.923,-1.496 -28.221,-15.408 -28.32,-33.84 -0.069,-12.889 -0.935,-27.574 0,-41.28 1.293,-18.956 17.355,-36.122 34.8,-39.12 7.006,-1.203 17.528,-0.24 25.44,-0.24 8.39,0 17.03,-0.64 24.72,0 13.555,1.129 23.557,11.303 29.28,20.641 3.278,5.348 5.673,11.053 6.24,18.72 0.551,7.443 0.088,15.741 0.24,24.718 z m -32.64,-41.76 c -6.225,-3.826 -15.975,-2.88 -26.4,-2.88 -6.849,0 -13.907,-0.37 -19.68,0 -13.951,0.894 -20.449,11.581 -20.88,25.2 25.92,0 51.84,0 77.76,0 -0.272,-10.775 -3.683,-17.945 -10.8,-22.32 z"
       id="path15"
       inkscape:connector-curvature="0"
       style="fill:#ffffff;fill-rule:evenodd" /><path
       clip-rule="evenodd"
       d="m -513.91241,312.95946 c 0,6.48 0,12.961 0,19.44 -17.772,0 -34.309,0 -52.32,0 -5.643,0 -12.169,-0.954 -17.28,0 -4.911,0.917 -10.062,8.188 -8.4,15.601 0.803,3.584 4.495,7.965 7.92,8.879 4.949,1.323 13.561,0.24 19.92,0.24 6.724,0 13.731,0 20.16,0 17.002,0 35.249,-1.875 42,9.361 3.581,5.959 3.84,14.242 3.84,24.24 0,13.506 1.484,26.621 -6.48,32.398 -9.831,7.133 -34.611,4.561 -51.12,4.561 -19.059,0 -36.341,0 -55.68,0 -0.557,-6.162 -0.082,-13.357 -0.24,-19.92 25.437,-0.441 49.179,-0.24 75.12,-0.24 3.572,0 7.63,0.623 10.56,0 3.157,-0.67 7.327,-5.422 8.16,-8.879 0.814,-3.379 0.941,-8.617 0.24,-12.24 -0.715,-3.695 -5.395,-8.148 -7.92,-8.881 -4.385,-1.27 -11.892,-0.24 -18.24,-0.24 -6.244,0 -12.549,0 -18.48,0 -22.776,0 -42.479,2.605 -47.76,-14.4 -1.842,-5.932 -1.799,-14.063 -1.68,-21.84 0.259,-16.943 5.606,-26.96 21.84,-28.08 12.577,-0.867 25.367,0 37.92,0 12.576,0 25.127,0 37.92,0 z"
       id="path17"
       inkscape:connector-curvature="0"
       style="fill:#ffffff;fill-rule:evenodd" /><path
       clip-rule="evenodd"
       d="m -377.26706,313.00005 c -0.158,6.482 0.317,13.598 -0.24,19.681 -19.716,0 -41.601,0 -62.88,0 -9.033,0 -18.196,-0.808 -21.84,4.319 -3.49,4.912 -2.4,17.609 -2.4,26.64 0,16.365 -2.854,36.715 7.44,42.24 4.746,2.547 11.492,2.16 18.48,2.16 20.995,0 40.532,0 61.44,0 0,6.48 0,12.961 0,19.439 -17.166,0.443 -34.61,0.24 -49.68,0.24 -15.385,0 -34.155,2.441 -45.12,-4.561 -6.159,-3.932 -9.912,-10.164 -11.76,-18 -1.821,-7.719 -1.2,-17.748 -1.2,-28.318 0,-9.727 0,-19.092 0,-29.761 0,-10.398 0.388,-19.213 4.32,-25.199 6.844,-10.422 22.712,-8.881 39.84,-8.881 20.997,10e-4 42.162,10e-4 63.6,10e-4 z"
       id="path19"
       inkscape:connector-curvature="0"
       style="fill:#ffffff;fill-rule:evenodd" /><path
       clip-rule="evenodd"
       d="m 14.623434,377.52959 c -33.200003,0 -66.400005,0 -99.601005,0 -0.874,15.279 2.89,24.16 12.24,29.041 6.82,3.559 17.497,2.4 27.601,2.4 10.174002,0 20.589002,0 29.760002,0 0,6.318 0,12.639 0,18.959 -21.486002,-0.465 -42.030002,0.631 -60.240002,0 -17.302,-0.598 -28.713009,-13.58 -30.240009,-29.76 -0.905,-9.596 -0.24,-19.926 -0.239,-29.76 0,-10.345 -0.027,-19.757 2.88,-27.121 5.063009,-12.824 16.539009,-25.529 32.159009,-27.84 7.323,-1.083 17.572,-0.24 25.44,-0.24 8.46,0 16.786002,-0.592 24.480002,0 9.928,0.766 18.4079999,7.207 23.9999999,13.201 5.794,6.211 10.9870031,14.83 11.7600031,25.439 0.63,8.662 -0.471,16.286 0,25.681 z m -38.400003,-44.16 c -5.465,-1.233 -12.758002,-0.72 -19.680002,-0.72 -7,0 -14.298,-0.405 -20.64,0 -14.028,0.897 -20.285,12.258 -20.881,24.96 25.44,0.561 51.920002,0.08 77.7610019,0.24 -0.176,-12.703 -5.2229999,-21.92 -16.5599999,-24.48 z"
       id="path21"
       inkscape:connector-curvature="0"
       style="fill:#ffffff;fill-rule:evenodd" /><path
       clip-rule="evenodd"
       d="m 129.81802,312.96291 c 0,6.48 0,12.961 0,19.44 -17.024,0 -34.766007,0 -52.561007,0 -5.7,0 -12.333,-1.053 -17.28,0 -4.339,0.924 -9.608002,7.735 -8.399,15.12 0.563,3.438 4.453,8.336 7.92,9.359 4,1.182 11.994,0.24 17.52,0.24 5.863,0 12.014,0 17.761,0 18.742007,0 38.232007,-2.328 45.840007,7.681 5.041,6.633 5.041,16.33 5.04,29.279 -0.001,13.346 0.97,23.613 -6.48,29.039 -9.778,7.125 -34.701,4.561 -51.120007,4.561 -19.04,0 -36.894,0 -55.680002,0 -0.399,-6.164 -0.399,-13.994 0,-20.16 25.083002,0 49.336002,0 74.880009,0 3.658,0 7.64,0.621 10.561,0 3.381,-0.719 7.369,-5.65 8.159,-8.879 2.325,-9.502 -1.261,-19.342 -7.92,-21.121 -4.642,-1.24 -11.988,-0.24 -18.479,-0.24 -6.246007,0 -12.592007,0 -18.480007,0 -16.611,0 -34.449002,2.033 -42.479002,-6 -2.027,-2.027 -3.845,-5.32 -4.8,-8.4 -3.548,-11.422 -2.664,-33.17 2.64,-41.279 3.584,-5.48 10.164,-8.133 17.520002,-8.641 12.577,-0.867 25.367,0 37.921,0 12.573007,0.001 25.123007,0.001 37.916007,0.001 z"
       id="path23"
       inkscape:connector-curvature="0"
       style="fill:#ffffff;fill-rule:evenodd" /></g></g>
</svg>