<?xml version="1.0" encoding="UTF-8" standalone="no"?>
<!-- Created with Inkscape (http://www.inkscape.org/) -->
<svg xmlns:dc="http://purl.org/dc/elements/1.1/" xmlns:cc="http://web.resource.org/cc/" xmlns:rdf="http://www.w3.org/1999/02/22-rdf-syntax-ns#" xmlns:svg="http://www.w3.org/2000/svg" xmlns="http://www.w3.org/2000/svg" xmlns:xlink="http://www.w3.org/1999/xlink" xmlns:sodipodi="http://sodipodi.sourceforge.net/DTD/sodipodi-0.dtd" xmlns:inkscape="http://www.inkscape.org/namespaces/inkscape" width="300" height="300" id="svg2" sodipodi:version="0.32" inkscape:version="0.45.1" version="1.0" inkscape:output_extension="org.inkscape.output.svg.inkscape">
  <g inkscape:label="Layer 1" inkscape:groupmode="layer" id="layer1" transform="translate(-315.82941,-214.56939)">
    <g id="g8315" clip-path="url(#id273)" transform="matrix(1,0,0,-1,2.038688,847.66666)">
      <g id="g8317" transform="matrix(7.6449432,0,0,7.9367218,266.3172,448.89307)">
        <use id="use8319" xlink:href="#id274" x="0" y="0" width="744.09448" height="1052.3622"/>
      </g>
    </g>
    <g id="g15821" clip-path="url(#id401)" transform="matrix(1,0,0,-1,2.038688,847.66666)">
      <g id="g15823" transform="matrix(9.3100739,0,0,9.3100739,373.32361,306.15338)">
        <use id="use15825" xlink:href="#id402" x="0" y="0" width="744.09448" height="1052.3622"/>
      </g>
    </g>
    <path id="path19997" d="M 315.82941,214.56939 L 615.82941,214.56939 L 615.82941,514.56939 L 315.82941,514.56939 L 315.82941,214.56939 z " style="fill:#b6b5b5;fill-rule:nonzero;stroke:none"/>
    <g id="g19999" clip-path="url(#id665)" transform="matrix(16.97889,0,0,-16.97889,-4936.607,6598.496)">
      <g id="g20001" transform="translate(318.1853,371.9371)">
        <path id="path20003" d="M 0,0 C -1.891,0 -3.424,-1.533 -3.424,-3.425 C -3.424,-5.316 -1.891,-6.849 0,-6.849 C 1.891,-6.849 3.424,-5.316 3.424,-3.425 C 3.424,-1.533 1.891,0 0,0" style="fill:#ffffff;fill-rule:nonzero;stroke:none"/>
      </g>
      <g id="g20005" transform="translate(315.1577,363.7034)">
        <path id="path20007" d="M 0,0 L -0.005,0 L -0.005,-0.757 C -0.005,-0.85 -0.038,-0.935 -0.098,-0.996 C -0.155,-1.056 -0.232,-1.089 -0.314,-1.089 C -0.396,-1.089 -0.473,-1.056 -0.53,-0.996 C -0.59,-0.935 -0.622,-0.85 -0.622,-0.757 L -0.622,0 L -0.869,0 L -0.869,-0.757 C -0.869,-0.922 -0.815,-1.065 -0.711,-1.169 C -0.61,-1.27 -0.469,-1.325 -0.314,-1.325 C -0.159,-1.325 -0.018,-1.27 0.083,-1.169 C 0.187,-1.065 0.242,-0.922 0.242,-0.757 L 0.242,0 L 0.237,0" style="fill:#ffffff;fill-rule:nonzero;stroke:none"/>
      </g>
      <g id="g20009" transform="translate(317.252,362.7363)">
        <path id="path20011" d="M 0,0 C -0.075,-0.079 -0.181,-0.122 -0.298,-0.122 C -0.416,-0.122 -0.522,-0.079 -0.597,0 C -0.673,0.079 -0.714,0.192 -0.714,0.317 C -0.714,0.442 -0.673,0.556 -0.597,0.635 C -0.522,0.714 -0.416,0.757 -0.298,0.757 C -0.181,0.757 -0.075,0.714 0,0.635 C 0.076,0.556 0.117,0.442 0.117,0.317 C 0.117,0.192 0.076,0.079 0,0 M 0.173,0.806 C 0.048,0.927 -0.121,0.994 -0.298,0.994 C -0.477,0.994 -0.645,0.927 -0.77,0.806 C -0.901,0.68 -0.972,0.507 -0.972,0.317 C -0.972,0.128 -0.901,-0.045 -0.77,-0.171 C -0.645,-0.292 -0.477,-0.358 -0.298,-0.358 C -0.121,-0.358 0.048,-0.292 0.173,-0.171 C 0.304,-0.045 0.375,0.128 0.375,0.317 C 0.375,0.507 0.304,0.68 0.173,0.806" style="fill:#ffffff;fill-rule:nonzero;stroke:none"/>
      </g>
      <g id="g20013" transform="translate(318.3704,363.7303)">
        <path id="path20015" d="M 0,0 C -0.155,0 -0.296,-0.055 -0.397,-0.157 C -0.5,-0.261 -0.556,-0.404 -0.556,-0.569 L -0.556,-1.326 L -0.309,-1.326 L -0.309,-0.569 C -0.309,-0.476 -0.276,-0.391 -0.217,-0.329 C -0.159,-0.269 -0.082,-0.237 0,-0.237 C 0.082,-0.237 0.159,-0.269 0.216,-0.329 C 0.276,-0.391 0.309,-0.476 0.309,-0.569 L 0.309,-1.326 L 0.556,-1.326 L 0.556,-0.569 C 0.556,-0.404 0.501,-0.261 0.397,-0.157 C 0.296,-0.055 0.155,0 0,0" style="fill:#ffffff;fill-rule:nonzero;stroke:none"/>
      </g>
      <g id="g20017" transform="translate(322.0725,363.7034)">
        <path id="path20019" d="M 0,0 L -0.005,0 L -0.005,-0.827 C -0.005,-0.986 -0.094,-1.089 -0.231,-1.089 C -0.395,-1.089 -0.478,-0.988 -0.478,-0.789 L -0.478,0 L -0.725,0 L -0.725,-0.789 C -0.725,-0.988 -0.808,-1.089 -0.972,-1.089 C -1.109,-1.089 -1.197,-0.986 -1.197,-0.827 L -1.197,0 L -1.444,0 L -1.444,-0.88 C -1.444,-1.13 -1.239,-1.325 -0.977,-1.325 C -0.819,-1.325 -0.683,-1.26 -0.601,-1.147 C -0.519,-1.26 -0.383,-1.325 -0.225,-1.325 C 0.036,-1.325 0.242,-1.13 0.242,-0.88 L 0.242,0 L 0.237,0" style="fill:#ffffff;fill-rule:nonzero;stroke:none"/>
      </g>
      <g id="g20021" transform="translate(323.0683,363.1908)">
        <path id="path20023" d="M 0,0 C -0.158,0.044 -0.294,0.082 -0.294,0.169 C -0.289,0.242 -0.265,0.277 -0.146,0.277 L 0.455,0.277 L 0.455,0.513 L -0.106,0.513 C -0.393,0.513 -0.552,0.387 -0.552,0.158 C -0.552,0.042 -0.497,-0.049 -0.384,-0.119 C -0.287,-0.179 -0.159,-0.216 -0.046,-0.249 C 0.119,-0.296 0.262,-0.337 0.262,-0.432 C 0.262,-0.514 0.216,-0.55 0.114,-0.55 L -0.552,-0.55 L -0.552,-0.787 L 0.114,-0.787 C 0.232,-0.787 0.332,-0.756 0.403,-0.697 C 0.479,-0.634 0.52,-0.538 0.52,-0.422 C 0.52,-0.145 0.232,-0.065 0,0" style="fill:#ffffff;fill-rule:nonzero;stroke:none"/>
      </g>
      <g id="g20025" transform="translate(315.6146,363.2111)">
        <path id="path20027" d="M 0,0 L 0,-0.796 L 0.23,-0.796 L 0.23,0 C 0.23,0.147 0.275,0.315 0.627,0.315 L 0.633,0.315 L 0.633,0.545 L 0.627,0.545 C 0.082,0.545 0,0.203 0,0" style="fill:#ffffff;fill-rule:nonzero;stroke:none"/>
      </g>
      <g id="g20029" transform="translate(313.8567,362.8585)">
        <path id="path20031" d="M 0,0 L -0.005,0.002 L -0.007,-0.003 C -0.043,-0.07 -0.096,-0.129 -0.163,-0.171 C -0.371,-0.303 -0.648,-0.24 -0.779,-0.032 C -0.843,0.068 -0.864,0.188 -0.837,0.304 C -0.811,0.421 -0.741,0.52 -0.641,0.584 C -0.492,0.677 -0.303,0.675 -0.157,0.579 L -0.551,0.255 L -0.556,0.252 L -0.552,0.248 L -0.417,0.08 L -0.414,0.075 L -0.41,0.079 L 0.169,0.554 L 0.172,0.557 L 0.17,0.561 L 0.166,0.566 C 0.07,0.717 -0.079,0.822 -0.255,0.861 C -0.43,0.901 -0.61,0.87 -0.761,0.774 C -0.912,0.679 -1.018,0.53 -1.057,0.355 C -1.097,0.179 -1.066,-0.001 -0.97,-0.153 C -0.772,-0.466 -0.356,-0.56 -0.043,-0.362 C 0.056,-0.299 0.137,-0.212 0.192,-0.108 L 0.195,-0.103 L 0.19,-0.1" style="fill:#ffffff;fill-rule:nonzero;stroke:none"/>
      </g>
      <g id="g20033" transform="translate(320.1805,362.8585)">
        <path id="path20035" d="M 0,0 L -0.005,0.002 L -0.008,-0.003 C -0.043,-0.07 -0.097,-0.129 -0.163,-0.171 C -0.371,-0.303 -0.648,-0.24 -0.78,-0.032 C -0.843,0.068 -0.864,0.188 -0.838,0.305 C -0.811,0.421 -0.741,0.52 -0.641,0.584 C -0.493,0.677 -0.304,0.675 -0.157,0.579 L -0.552,0.255 L -0.556,0.252 L -0.552,0.248 L -0.417,0.08 L -0.414,0.075 L -0.409,0.079 L 0.168,0.554 L 0.173,0.557 L 0.169,0.561 L 0.166,0.566 L 0.166,0.566 C -0.032,0.879 -0.448,0.972 -0.761,0.774 C -0.913,0.679 -1.018,0.53 -1.057,0.355 C -1.097,0.179 -1.066,-0.001 -0.971,-0.153 C -0.772,-0.466 -0.356,-0.56 -0.043,-0.362 C 0.056,-0.299 0.137,-0.212 0.192,-0.108 L 0.195,-0.103 L 0.19,-0.1" style="fill:#ffffff;fill-rule:nonzero;stroke:none"/>
      </g>
    </g>
  </g>
</svg>