<?xml version="1.0" encoding="UTF-8" standalone="no"?>
<!-- Created with Inkscape (http://www.inkscape.org/) -->
<svg xmlns:dc="http://purl.org/dc/elements/1.1/" xmlns:cc="http://web.resource.org/cc/" xmlns:rdf="http://www.w3.org/1999/02/22-rdf-syntax-ns#" xmlns:svg="http://www.w3.org/2000/svg" xmlns="http://www.w3.org/2000/svg" xmlns:xlink="http://www.w3.org/1999/xlink" xmlns:sodipodi="http://sodipodi.sourceforge.net/DTD/sodipodi-0.dtd" xmlns:inkscape="http://www.inkscape.org/namespaces/inkscape" width="509" height="142" id="svg2" sodipodi:version="0.32" inkscape:version="0.45.1" version="1.0" inkscape:output_extension="org.inkscape.output.svg.inkscape">
  <g inkscape:label="Layer 1" inkscape:groupmode="layer" id="layer1" transform="translate(-201.87485,-329.42556)">
    <path id="path3938" d="M 151.95157,-293.1681 L 151.95157,-293.1681" style="fill:#ffffff;fill-rule:nonzero;stroke:none"/>
    <g id="g4186" clip-path="url(#id27)" transform="matrix(1,0,0,-1,109.09442,654.68904)">
      <g id="g4188" clip-path="url(#id28)">
        <g id="g4190" clip-path="url(#id29)">
          <g id="g4192" transform="matrix(462.74832,0,0,12.555956,-0.704987,-0.66861)">
            <use id="use4194" xlink:href="#id30" x="0" y="0" width="744.09448" height="1052.3622"/>
          </g>
        </g>
      </g>
    </g>
    <g id="g4878" clip-path="url(#id129)" transform="matrix(7.9806666,0,0,-7.9806666,34.560174,1898.7199)">
      <g id="g4880" clip-path="url(#id130)">
        <path id="path4882" d="M 20.965,178.844 L 84.744,178.844 L 84.744,196.637 L 20.965,196.637 L 20.965,178.844 z " style="fill:#ffffff;fill-rule:nonzero;stroke:none"/>
      </g>
    </g>
    <g id="g4884" clip-path="url(#id131)" transform="matrix(7.9806666,0,0,-7.9806666,34.560174,1898.7199)">
      <path id="path4886" d="M 21.02,178.844 L 84.744,178.844 L 84.744,196.573 L 21.02,196.573 L 21.02,178.844 z " style="fill:#00aeef;fill-rule:nonzero;stroke:none"/>
    </g>
    <path id="path4888" d="M 289.63156,365.14901 L 289.63156,379.70521 L 256.22286,379.70521 L 256.22286,392.12101 L 282.71346,392.12101 L 282.71346,407.05481 L 255.96736,407.05481 L 255.96736,420.74221 L 289.92766,420.74221 L 289.92766,435.88651 L 237.62016,435.88651 L 237.62016,365.14901 L 289.63156,365.14901" style="fill:#ffffff;fill-rule:nonzero;stroke:none"/>
    <path id="path4890" d="M 295.12926,382.96981 C 295.12926,382.96981 295.12926,414.41811 295.12926,422.26501 C 295.12926,430.10811 299.42556,437.10201 309.55216,437.10201 C 319.68836,437.10201 322.73426,433.26051 324.77206,430.36351 C 324.77206,434.43521 324.77206,435.88651 324.77206,435.88651 L 340.61126,435.88651 L 340.61126,382.96981 L 324.26126,382.96981 C 324.26126,382.96981 324.26126,406.95791 324.26126,413.91671 C 324.26126,420.86991 320.09276,423.28681 316.03096,423.28681 C 311.96906,423.28681 311.71356,420.97241 311.71356,416.80801 C 311.71356,412.63951 311.71356,382.96981 311.71356,382.96981 L 295.12926,382.96981" style="fill:#ffffff;fill-rule:nonzero;stroke:none"/>
    <path id="path4892" d="M 350.62006,435.88651 L 350.62006,382.96981 L 366.31026,382.96981 L 366.31026,388.83531 C 366.31026,388.83531 369.96376,381.61121 376.19125,381.61121 C 380.25315,381.61121 380.12545,383.35861 380.12545,383.35861 C 380.12545,383.35861 380.12545,395.92741 380.12545,397.58221 C 380.12545,398.72191 379.15975,398.83981 378.62365,398.83981 C 372.01716,398.83981 367.26056,401.88971 367.26056,413.34411 C 367.26056,424.79421 367.26056,435.88651 367.26056,435.88651 L 350.62006,435.88651" style="fill:#ffffff;fill-rule:nonzero;stroke:none"/>
    <path id="path4894" d="M 406.89815,393.57321 C 414.20925,393.57321 414.68925,402.33881 414.68925,404.07641 L 414.68925,414.18761 C 414.68925,418.68881 412.90115,425.65741 406.89815,425.65741 C 400.89935,425.65741 399.35115,418.25931 399.35115,414.48381 C 399.35115,410.70821 399.45375,405.43511 399.45375,402.62521 C 399.45375,399.82511 401.19205,393.57321 406.89815,393.57321 z M 406.61185,381.91301 C 422.38915,381.91301 432.88355,393.82211 432.88355,410.26331 C 432.88355,428.04911 418.95045,437.51601 406.80495,437.51601 C 399.06075,437.51601 381.35215,432.96851 381.35215,408.67451 C 381.35215,394.88461 390.20525,381.91301 406.61185,381.91301" style="fill:#ffffff;fill-rule:evenodd;stroke:none"/>
    <path id="path4896" d="M 437.99245,435.88651 L 437.99245,365.14901 L 457.01895,365.14901 L 479.04485,402.85531 L 479.04485,365.14901 L 493.66615,365.14901 L 493.66615,435.88651 L 478.50875,435.88651 L 452.61355,392.11541 L 452.61355,435.88651 L 437.99245,435.88651" style="fill:#ffffff;fill-rule:nonzero;stroke:none"/>
    <path id="path4898" d="M 549.68975,382.96981 L 566.95244,382.96981 L 575.06074,412.19461 L 582.63394,382.96981 L 597.60424,382.96981 L 605.01214,412.19461 L 613.11094,382.96981 L 626.85414,382.96981 L 610.82144,435.88651 L 595.85054,435.88651 L 587.91684,405.85471 L 580.34424,435.88651 L 566.42534,435.88651 L 549.68975,382.96981" style="fill:#ffffff;fill-rule:nonzero;stroke:none"/>
    <path id="path4900" d="M 659.92594,399.97391 C 662.48044,399.54441 672.37694,396.89311 672.37694,396.89311 C 669.71924,388.80021 664.92264,382.09681 648.54634,382.09681 C 635.88794,382.09681 627.16574,388.59531 627.16574,400.50021 C 627.16574,409.01691 632.38564,412.83321 638.12394,414.96941 C 643.86224,417.10001 651.40364,417.31521 655.56164,418.27471 C 659.71894,419.23061 659.39964,420.50221 659.39964,421.89171 C 659.39964,423.27141 657.58784,425.92831 650.24554,425.92831 C 640.98834,425.92831 639.18434,419.23061 639.18434,419.23061 L 625.03514,420.93171 C 625.03514,420.93171 626.63064,437.41361 649.82334,437.41361 C 660.98854,437.41361 674.49864,432.73411 674.49864,419.12251 C 674.49864,405.51231 665.36194,403.79571 656.74274,402.41601 C 648.12354,401.03631 642.36954,400.72481 642.36954,396.78081 C 642.36954,393.59191 647.58744,393.26491 649.28854,393.26491 C 656.74274,393.26491 657.58784,395.82501 659.92594,399.97391" style="fill:#ffffff;fill-rule:nonzero;stroke:none"/>
    <path id="path4902" d="M 517.44675,402.50311 L 534.18335,402.50311 C 534.18335,402.50311 533.65705,393.16801 526.25885,393.16801 C 517.79835,393.16801 517.44675,402.50311 517.44675,402.50311 z M 517.44675,412.90481 L 550.56835,412.90481 C 550.56835,400.75001 546.69595,381.89751 524.49565,381.89751 C 503.70565,381.89751 499.47635,401.97671 499.47635,410.43731 C 499.47635,417.48321 502.82805,437.38831 525.55495,437.38831 C 548.27675,437.38831 550.21615,418.18771 550.21615,418.18771 L 535.41985,416.77301 C 535.41985,416.77301 533.83105,425.05951 526.25885,425.05951 C 516.04295,425.05951 517.44675,412.90481 517.44675,412.90481" style="fill:#ffffff;fill-rule:evenodd;stroke:none"/>
    <g id="g6056" clip-path="url(#id254)" transform="matrix(1,0,0,-1,-56.327495,1468.7899)">
      <g id="g6058" transform="matrix(88.58625,0,0,17.763506,352.43189,1319.8898)">
        <use id="use6060" xlink:href="#id255" x="0" y="0" width="744.09448" height="1052.3622"/>
      </g>
      <g id="g6062" transform="matrix(12.963841,0,0,17.763506,440.75479,1319.8898)">
        <use id="use6064" xlink:href="#id256" x="0" y="0" width="744.09448" height="1052.3622"/>
      </g>
    </g>
  </g>
</svg>