<?xml version="1.0" encoding="UTF-8"?>
<!DOCTYPE svg PUBLIC "-//W3C//DTD SVG 1.1//EN" "http://www.w3.org/Graphics/SVG/1.1/DTD/svg11.dtd">
<svg width="558pt" height="206pt" viewBox="0 0 558 206" version="1.1" xmlns="http://www.w3.org/2000/svg">
<g id="#ffffffff">
</g>
<g id="#221e1fff">
<path fill="#221e1f" opacity="1.00" d=" M 309.30 0.00 L 336.47 0.00 C 336.51 42.32 336.37 84.65 336.54 126.97 C 336.33 135.75 339.15 144.34 344.05 151.58 C 338.31 154.35 332.59 157.17 326.86 159.96 C 321.94 153.22 316.37 146.81 312.87 139.17 C 309.36 131.28 309.42 122.47 309.30 114.00 C 309.29 76.00 309.30 38.00 309.30 0.00 Z"/>
<path fill="#221e1f" opacity="1.00" d=" M 429.14 20.21 C 437.54 13.39 448.72 10.98 459.35 11.35 C 462.32 17.48 465.32 23.59 468.38 29.68 C 460.89 29.55 452.33 31.03 447.64 37.51 C 442.83 43.88 444.45 52.25 444.18 59.67 C 449.90 59.67 455.62 59.66 461.35 59.67 C 461.35 65.87 461.36 72.06 461.35 78.26 C 455.62 78.27 449.90 78.26 444.18 78.26 C 444.17 100.19 444.18 122.12 444.18 144.05 C 444.06 154.63 444.55 165.25 443.37 175.78 C 442.03 187.75 433.26 196.76 426.41 206.00 L 426.01 206.00 C 420.76 202.73 415.01 200.38 409.57 197.44 C 414.56 190.28 417.21 181.68 417.08 172.96 C 417.16 141.39 417.10 109.83 417.11 78.26 C 411.80 78.26 406.49 78.27 401.18 78.26 C 401.18 72.06 401.18 65.87 401.18 59.67 C 406.49 59.66 411.80 59.67 417.11 59.67 C 417.23 53.29 416.78 46.88 417.68 40.54 C 418.83 32.67 422.87 25.18 429.14 20.21 Z"/>
<path fill="#221e1f" opacity="1.00" d=" M 476.26 70.26 C 486.65 60.03 501.90 56.55 516.08 57.29 C 527.58 57.56 539.69 61.63 546.95 70.97 C 555.53 81.73 557.45 95.99 558.00 109.31 L 558.00 112.87 C 535.80 112.87 513.60 112.86 491.39 112.87 C 491.58 118.47 492.56 124.37 496.16 128.86 C 501.25 135.43 510.04 137.48 517.95 137.61 C 530.16 137.55 542.57 134.06 552.48 126.81 C 552.45 133.84 552.48 140.87 552.46 147.90 C 541.66 153.91 529.28 156.85 516.97 157.23 C 502.76 157.31 487.70 153.88 476.98 144.02 C 467.51 135.45 463.09 122.54 462.71 110.00 C 461.99 95.76 465.71 80.42 476.26 70.26 M 501.72 77.79 C 495.65 81.37 491.75 88.03 491.17 95.00 C 504.17 95.15 517.18 95.04 530.18 95.06 C 530.12 89.50 528.45 83.67 524.32 79.75 C 518.39 74.03 508.61 73.57 501.72 77.79 Z"/>
<path fill="#221e1f" opacity="1.00" d=" M 361.53 59.48 C 370.59 59.45 379.64 59.48 388.70 59.47 C 388.72 91.27 388.69 123.06 388.71 154.86 C 379.65 154.88 370.60 154.86 361.54 154.87 C 361.52 123.08 361.54 91.28 361.53 59.48 Z"/>
</g>
<g id="#b91702ff">
<path fill="#b91702" opacity="1.00" d=" M 369.36 7.60 C 379.40 3.89 391.18 10.83 393.41 21.13 C 396.66 32.38 386.82 44.94 375.09 44.40 C 364.02 44.93 354.44 33.73 356.37 22.92 C 357.18 15.83 362.61 9.71 369.36 7.60 Z"/>
<path fill="#b91702" opacity="1.00" d=" M 0.00 24.61 C 25.73 24.85 51.48 24.64 77.21 24.72 C 78.17 36.19 78.85 47.70 79.98 59.15 C 65.32 59.13 50.66 59.15 36.01 59.14 C 35.99 65.05 36.00 70.95 36.01 76.86 C 47.71 76.86 59.42 76.85 71.12 76.86 C 71.13 88.33 71.13 99.80 71.12 111.27 C 59.56 111.21 48.01 111.06 36.45 111.06 C 36.48 125.39 36.46 139.72 36.46 154.05 C 24.30 154.05 12.15 154.05 0.00 154.05 L 0.00 24.61 Z"/>
<path fill="#b91702" opacity="1.00" d=" M 184.52 24.71 C 198.02 24.72 211.51 24.71 225.01 24.72 C 230.33 33.73 235.49 42.83 240.67 51.93 C 245.95 42.87 251.00 33.69 256.20 24.59 C 269.32 24.79 282.44 24.71 295.56 24.70 C 283.71 45.40 271.87 66.11 260.22 86.92 C 273.27 109.15 285.73 131.75 298.58 154.11 C 285.08 154.06 271.59 154.14 258.10 154.07 C 253.30 145.39 248.59 136.67 243.74 128.02 C 242.57 125.85 241.62 123.52 239.95 121.67 C 233.78 132.31 228.16 143.30 221.96 153.91 C 208.77 154.20 195.48 154.28 182.28 153.86 C 195.38 131.63 208.10 109.17 221.11 86.88 C 209.19 66.02 196.85 45.35 184.52 24.71 Z"/>
<path fill="#b91702" opacity="1.00" d=" M 137.13 26.17 C 148.65 25.90 160.30 28.93 170.42 34.48 C 181.72 40.86 191.01 50.89 196.22 62.81 C 203.07 78.13 203.91 96.09 198.14 111.89 C 192.19 127.69 179.50 140.67 164.09 147.46 C 151.91 152.80 137.93 153.52 125.09 150.30 C 109.11 146.26 95.57 135.11 86.67 121.45 C 78.40 107.04 76.55 89.38 80.16 73.29 C 84.37 57.73 94.52 43.59 108.52 35.42 C 117.11 30.05 127.08 27.12 137.13 26.17 M 136.52 53.45 C 133.00 54.63 130.05 58.07 130.38 61.93 C 130.41 80.33 130.32 98.73 130.42 117.13 C 130.69 122.25 136.18 125.64 141.01 124.98 C 145.61 125.45 150.94 122.10 150.87 117.11 C 150.97 98.73 150.89 80.34 150.91 61.95 C 151.12 59.30 150.04 56.60 147.92 54.97 C 144.73 52.46 140.27 52.79 136.52 53.45 Z"/>
</g>
</svg>