<?xml version="1.0" encoding="UTF-8" standalone="no"?>
<!-- Created with Inkscape (http://www.inkscape.org/) -->
<svg xmlns:dc="http://purl.org/dc/elements/1.1/" xmlns:cc="http://creativecommons.org/ns#" xmlns:rdf="http://www.w3.org/1999/02/22-rdf-syntax-ns#" xmlns:svg="http://www.w3.org/2000/svg" xmlns="http://www.w3.org/2000/svg" xmlns:sodipodi="http://sodipodi.sourceforge.net/DTD/sodipodi-0.dtd" xmlns:inkscape="http://www.inkscape.org/namespaces/inkscape" width="558" height="206" id="svg2" sodipodi:version="0.32" inkscape:version="0.47 r22583" version="1.0" inkscape:output_extension="org.inkscape.output.svg.inkscape">
  <g inkscape:label="Layer 1" inkscape:groupmode="layer" id="layer1" transform="translate(60.685506,-615.27687)">
    <g id="g3592" clip-path="none" transform="matrix(19.221561,0,0,-19.221561,-4460.7334,10791.07)">
      <g id="g3594" transform="translate(257.942,523.5236)">
        <path id="path3596" d="m 0,0 c 0,1.641 -0.511,2.897 -2.354,2.897 -1.608,0 -2.609,-0.97 -2.609,-2.589 0,-1.746 1.149,-2.619 2.82,-2.619 0.586,0.01 1.342,0.181 1.854,0.489 l 0,1.098 C -0.737,-1.085 -1.48,-1.29 -2.046,-1.29 -2.909,-1.279 -3.462,-0.904 -3.462,0 L 0,0 z m -1.46,0.927 -2.013,0 c 0.033,0.563 0.502,1.043 1.066,1.043 0.605,0 0.958,-0.458 0.958,-1.033 L -1.46,0.927 z m -3.197,3.386 -0.478,0.97 -0.054,0 C -6.337,5.304 -7.328,4.685 -7.328,3.419 l 0,-0.651 -0.832,0 0,-0.97 0.832,0 0,-4.674 c 0,-0.628 -0.031,-0.98 -0.395,-1.525 l 0.884,-0.445 c 0.797,1.064 0.917,1.106 0.917,2.438 l 0,4.206 0.893,0 0,0.97 -0.893,0 0,0.544 c 0,0.701 0.511,1.012 1.149,1.012 l 0.127,0 -0.011,-0.011 z m -4.15,-1.535 -1.415,0 0,-4.963 1.415,0 0,4.963 z m -3.218,-5.229 c -0.712,0.949 -0.914,1.13 -0.914,2.324 l 0,5.998 1.414,0 0,-6.148 c 0,-0.725 -0.022,-1.107 0.396,-1.736 l -0.896,-0.438" style="fill:#221e1f;fill-rule:nonzero;stroke:none"/>
      </g>
      <g id="g3598" transform="translate(249.4152,528.0654)">
        <path id="path3600" d="m 0,0 c 0,-0.547 -0.441,-0.989 -0.99,-0.989 -0.546,0 -0.989,0.442 -0.989,0.989 0,0.545 0.443,0.988 0.989,0.988 C -0.441,0.988 0,0.545 0,0" style="fill:#f78712;fill-rule:nonzero;stroke:none"/>
      </g>
      <g id="g3602" transform="translate(236.7611,523.3182)">
        <path id="path3604" d="m 0,0 c 0,-0.234 -0.214,-0.424 -0.479,-0.424 l -0.1,0 c -0.264,0 -0.479,0.19 -0.479,0.424 l 0,2.894 c 0,0.233 0.215,0.423 0.479,0.423 l 0.1,0 C -0.214,3.317 0,3.127 0,2.894 L 0,0 z M -0.615,4.728 C -1.765,4.663 -2.86,4.036 -3.404,2.962 -3.979,2.01 -3.87,0.466 -3.227,-0.424 c 0.724,-0.963 1.739,-1.513 2.963,-1.411 1.245,0.067 2.438,1.076 2.787,2.258 C 2.822,1.411 2.632,2.548 2.062,3.352 1.415,4.251 0.448,4.686 -0.615,4.728 m 2.362,0.069 1.905,-3.231 -2.028,-3.509 2.08,0 0.936,1.697 0.935,-1.697 2.117,0 -1.994,3.509 1.835,3.231 C 6.837,4.787 5.477,4.803 5.477,4.803 l -0.802,-1.416 -0.812,1.41 -2.116,0 z m -5.434,-1.799 -2.293,0 0,-0.916 1.835,0 0,-1.8 -1.798,0.018 0,-2.24 -1.906,0 0,6.737 4.022,0 0.14,-1.799" style="fill:#f78712;fill-rule:nonzero;stroke:none"/>
      </g>
      <g id="g3606" transform="translate(257.942,506.6877)">
        <path id="path3608" d="m 0,0 c 0,1.641 -0.511,2.897 -2.354,2.897 -1.608,0 -2.609,-0.97 -2.609,-2.589 0,-1.746 1.149,-2.619 2.82,-2.619 0.586,0.01 1.342,0.181 1.854,0.489 l 0,1.098 C -0.737,-1.085 -1.48,-1.29 -2.046,-1.29 -2.909,-1.279 -3.462,-0.904 -3.462,0 L 0,0 z m -1.46,0.927 -2.013,0 c 0.033,0.563 0.502,1.043 1.066,1.043 0.605,0 0.958,-0.458 0.958,-1.033 L -1.46,0.927 z m -3.197,3.387 -0.478,0.969 -0.054,0 C -6.337,5.304 -7.328,4.685 -7.328,3.419 l 0,-0.651 -0.832,0 0,-0.97 0.832,0 0,-4.674 c 0,-0.628 -0.031,-0.98 -0.395,-1.525 l 0.884,-0.445 c 0.797,1.063 0.917,1.106 0.917,2.438 l 0,4.206 0.893,0 0,0.97 -0.893,0 0,0.544 c 0,0.701 0.511,1.012 1.149,1.012 l 0.127,0 -0.011,-0.01 z m -4.15,-1.536 -1.415,0 0,-4.963 1.415,0 0,4.963 z m -3.218,-5.229 c -0.712,0.949 -0.914,1.13 -0.914,2.324 l 0,5.998 1.414,0 0,-6.148 c 0,-0.725 -0.022,-1.107 0.396,-1.736 l -0.896,-0.438" style="fill:#ffffff;fill-rule:nonzero;stroke:none"/>
      </g>
      <g id="g3610" transform="translate(249.4152,511.2295)">
        <path id="path3612" d="m 0,0 c 0,-0.547 -0.441,-0.989 -0.99,-0.989 -0.546,0 -0.989,0.442 -0.989,0.989 0,0.545 0.443,0.988 0.989,0.988 C -0.441,0.988 0,0.545 0,0" style="fill:#f78712;fill-rule:nonzero;stroke:none"/>
      </g>
      <g id="g3614" transform="translate(236.7611,506.4823)">
        <path id="path3616" d="m 0,0 c 0,-0.234 -0.214,-0.424 -0.479,-0.424 l -0.1,0 c -0.264,0 -0.479,0.19 -0.479,0.424 l 0,2.894 c 0,0.233 0.215,0.423 0.479,0.423 l 0.1,0 C -0.214,3.317 0,3.127 0,2.894 L 0,0 z M -0.615,4.728 C -1.765,4.663 -2.86,4.036 -3.404,2.962 -3.979,2.01 -3.87,0.466 -3.227,-0.424 c 0.724,-0.963 1.739,-1.513 2.963,-1.411 1.245,0.067 2.438,1.076 2.787,2.258 C 2.822,1.411 2.632,2.548 2.062,3.352 1.415,4.251 0.448,4.686 -0.615,4.728 m 2.362,0.069 1.905,-3.231 -2.028,-3.509 2.08,0 0.936,1.697 0.935,-1.697 2.117,0 -1.994,3.509 1.835,3.231 C 6.837,4.787 5.477,4.803 5.477,4.803 l -0.802,-1.416 -0.812,1.41 -2.116,0 z m -5.434,-1.799 -2.293,0 0,-0.916 1.835,0 0,-1.8 -1.798,0.018 0,-2.24 -1.906,0 0,6.737 4.022,0 0.14,-1.799" style="fill:#f78712;fill-rule:nonzero;stroke:none"/>
      </g>
    </g>
  </g>
</svg>