<?xml version="1.0" encoding="UTF-8" standalone="no"?>
<!-- Created with Inkscape (http://www.inkscape.org/) -->
<svg xmlns:dc="http://purl.org/dc/elements/1.1/" xmlns:cc="http://creativecommons.org/ns#" xmlns:rdf="http://www.w3.org/1999/02/22-rdf-syntax-ns#" xmlns:svg="http://www.w3.org/2000/svg" xmlns="http://www.w3.org/2000/svg" xmlns:sodipodi="http://sodipodi.sourceforge.net/DTD/sodipodi-0.dtd" xmlns:inkscape="http://www.inkscape.org/namespaces/inkscape" width="996.48022" height="401.25034" id="svg15295" version="1.1" inkscape:version="0.48.1 " sodipodi:docname="Nouveau document 7">
  <defs id="defs15297"/>
  <sodipodi:namedview inkscape:document-units="mm" pagecolor="#ffffff" bordercolor="#666666" borderopacity="1.0" inkscape:pageopacity="0.0" inkscape:pageshadow="2" inkscape:zoom="0.43415836" inkscape:cx="460.11161" inkscape:cy="167.76238" inkscape:current-layer="layer1" id="namedview15299" showgrid="false" units="mm" fit-margin-top="0" fit-margin-left="0" fit-margin-right="0" fit-margin-bottom="0" inkscape:window-width="1366" inkscape:window-height="716" inkscape:window-x="-8" inkscape:window-y="-8" inkscape:window-maximized="1"/>
  <metadata id="metadata15301">
    <rdf:RDF>
      <cc:Work rdf:about="">
        <dc:format>image/svg+xml</dc:format>
        <dc:type rdf:resource="http://purl.org/dc/dcmitype/StillImage"/>
        <dc:title/>
      </cc:Work>
    </rdf:RDF>
  </metadata>
  <g inkscape:label="Layer 1" inkscape:groupmode="layer" id="layer1" transform="translate(-29.888392,-130.60652)">
    <g transform="matrix(5.0994906,0,0,-5.0994906,34.452436,448.28437)" id="g14404">
      <path inkscape:connector-curvature="0" id="path14406" style="fill:#00adef;fill-opacity:1;fill-rule:nonzero;stroke:none" d="M 0,0 C -0.25,0 -0.462,0.106 -0.634,0.309 -0.805,0.51 -0.895,0.747 -0.895,1.02 L -0.895,25.48 C -0.895,25.751 -0.805,25.986 -0.634,26.188 -0.462,26.391 -0.25,26.494 0,26.494 L 17.673,26.494 C 17.918,26.494 18.127,26.391 18.289,26.188 18.45,25.986 18.534,25.751 18.534,25.48 L 18.534,20.548 C 18.534,20.255 18.45,20.006 18.289,19.805 18.127,19.603 17.918,19.499 17.673,19.499 L 7.078,19.499 7.078,16.29 14.909,16.29 C 15.138,16.29 15.341,16.192 15.512,16 15.686,15.812 15.772,15.568 15.772,15.277 L 15.74,10.38 C 15.74,10.108 15.658,9.87 15.483,9.667 15.307,9.465 15.112,9.365 14.877,9.365 L 7.078,9.365 7.078,1.02 C 7.078,0.747 6.995,0.51 6.834,0.309 6.671,0.106 6.464,0 6.216,0 L 0,0 z"/>
    </g>
    <g transform="matrix(5.0994906,0,0,-5.0994906,179.42993,400.53017)" id="g14408">
      <path inkscape:connector-curvature="0" id="path14410" style="fill:#00adef;fill-opacity:1;fill-rule:nonzero;stroke:none" d="M 0,0 0,-8.345 C 0,-8.617 -0.091,-8.854 -0.264,-9.055 -0.434,-9.259 -0.648,-9.365 -0.894,-9.365 L -7.285,-9.365 C -7.513,-9.365 -7.716,-9.259 -7.89,-9.055 -8.064,-8.854 -8.148,-8.617 -8.148,-8.345 L -8.148,16.116 C -8.148,16.386 -8.064,16.622 -7.89,16.824 -7.716,17.026 -7.513,17.13 -7.285,17.13 L 7.165,17.13 C 9.639,17.13 11.625,16.489 13.123,15.203 14.735,13.805 15.542,11.974 15.542,9.698 15.542,7.124 14.88,5.273 13.556,4.119 13.228,3.827 12.849,3.551 12.418,3.291 11.987,3.033 11.512,2.807 10.994,2.6 11.606,2.218 12.132,1.802 12.564,1.349 12.995,0.898 13.351,0.451 13.638,0 L 17.584,-7.811 C 17.778,-8.188 17.791,-8.542 17.626,-8.867 17.463,-9.195 17.2,-9.365 16.836,-9.365 L 9.524,-9.365 C 9.372,-9.365 9.221,-9.303 9.079,-9.187 8.936,-9.078 8.826,-8.942 8.749,-8.785 L 5.066,-0.745 5.091,-0.811 C 5.019,-0.697 4.934,-0.586 4.85,-0.477 4.761,-0.359 4.667,-0.269 4.575,-0.203 4.42,-0.069 3.831,0 2.789,0 L 0,0 z M -0.174,11.08 -0.174,6.05 3.28,6.05 C 4.678,6.05 5.746,6.24 6.471,6.62 7.204,7.001 7.571,7.693 7.571,8.683 7.571,9.518 7.29,10.121 6.735,10.507 6.177,10.89 5.368,11.08 4.313,11.08 L -0.174,11.08 z"/>
    </g>
    <g transform="matrix(5.0994906,0,0,-5.0994906,389.72326,448.29)" id="g14412">
      <path inkscape:connector-curvature="0" id="path14414" style="fill:#00adef;fill-opacity:1;fill-rule:nonzero;stroke:none" d="M 0,0 C -0.135,0 -0.28,0.064 -0.443,0.178 -0.607,0.288 -0.715,0.424 -0.776,0.581 L -2.244,3.89 -13.037,3.89 -14.506,0.581 C -14.586,0.424 -14.697,0.288 -14.854,0.178 -15.003,0.064 -15.156,0 -15.311,0 L -21.269,0 C -21.655,0 -21.933,0.165 -22.106,0.476 -22.28,0.796 -22.268,1.143 -22.078,1.526 L -10.243,25.954 C -10.188,26.09 -10.073,26.211 -9.9,26.327 -9.728,26.435 -9.583,26.497 -9.468,26.497 L -4.376,26.497 C -4.241,26.497 -4.095,26.435 -3.943,26.327 -3.792,26.211 -3.673,26.074 -3.598,25.924 L 7.547,1.492 C 7.702,1.111 7.702,0.767 7.547,0.462 7.388,0.158 7.121,0 6.735,0 L 0,0 z M -10.219,10.626 -4.862,10.626 -7.454,15.716 -10.219,10.626 z"/>
    </g>
    <g transform="matrix(5.0994906,0,0,-5.0994906,509.19408,368.23053)" id="g14416">
      <path inkscape:connector-curvature="0" id="path14418" style="fill:#00adef;fill-opacity:1;fill-rule:nonzero;stroke:none" d="M 0,0 C 0.534,-0.868 1.081,-1.75 1.639,-2.65 L 1.639,9.782 C 1.639,10.051 1.727,10.289 1.898,10.491 2.071,10.691 2.284,10.797 2.529,10.797 L 8.143,10.797 C 8.394,10.797 8.604,10.691 8.777,10.491 8.949,10.289 9.035,10.051 9.035,9.782 L 9.035,-14.68 C 9.035,-14.95 8.949,-15.189 8.777,-15.389 8.604,-15.592 8.394,-15.699 8.143,-15.699 L 1.696,-15.699 C 1.6,-15.699 1.474,-15.655 1.322,-15.577 1.168,-15.498 1.056,-15.399 0.978,-15.285 L -7.141,-2.445 -7.141,-14.68 C -7.141,-14.95 -7.227,-15.189 -7.398,-15.389 -7.573,-15.592 -7.786,-15.699 -8.035,-15.699 L -13.644,-15.699 C -13.875,-15.699 -14.075,-15.592 -14.25,-15.389 -14.423,-15.189 -14.509,-14.95 -14.509,-14.68 L -14.509,9.782 C -14.509,10.051 -14.423,10.289 -14.25,10.491 -14.075,10.691 -13.875,10.797 -13.644,10.797 L -7.258,10.797 C -7.141,10.797 -6.999,10.75 -6.839,10.663 -6.674,10.572 -6.576,10.467 -6.534,10.356 -5.692,9.009 -4.871,7.69 -4.074,6.424 -3.278,5.147 -2.467,3.874 -1.643,2.586 -1.087,1.729 -0.541,0.868 0,0"/>
    </g>
    <g transform="matrix(5.0994906,0,0,-5.0994906,662.91618,424.22245)" id="g14420">
      <path inkscape:connector-curvature="0" id="path14422" style="fill:#00adef;fill-opacity:1;fill-rule:nonzero;stroke:none" d="M 0,0 C -0.474,-1.117 -1.145,-2.052 -2.02,-2.806 -2.89,-3.558 -3.955,-4.136 -5.214,-4.531 -6.468,-4.923 -7.885,-5.115 -9.456,-5.115 -10.3,-5.115 -11.142,-5.084 -11.978,-5.002 -12.811,-4.923 -13.641,-4.804 -14.467,-4.65 -14.659,-4.597 -14.824,-4.567 -14.971,-4.541 -15.117,-4.521 -15.263,-4.492 -15.416,-4.444 L -15.416,-4.478 C -15.971,-4.365 -16.448,-4.258 -16.84,-4.157 -17.233,-4.055 -17.533,-3.982 -17.748,-3.935 -17.921,-3.892 -18.073,-3.778 -18.209,-3.597 -18.342,-3.42 -18.418,-3.227 -18.437,-3.028 L -18.9,3.395 C -18.939,3.824 -18.823,4.143 -18.555,4.36 -18.287,4.573 -17.993,4.59 -17.661,4.408 -16.723,3.869 -15.416,3.25 -13.747,2.547 -12.019,1.877 -10.455,1.539 -9.054,1.539 -8.195,1.539 -7.497,1.662 -6.97,1.909 -6.439,2.153 -6.174,2.514 -6.174,2.984 -6.174,3.24 -6.328,3.482 -6.639,3.735 -7.136,4.091 -8.27,4.477 -10.034,4.882 -13.353,5.669 -15.652,6.695 -16.942,7.952 -18.342,9.304 -19.041,11.204 -19.041,13.633 -19.041,16.47 -18.183,18.62 -16.466,20.086 -14.748,21.552 -12.355,22.282 -9.286,22.282 -7.943,22.282 -6.511,22.121 -4.996,21.81 -4.266,21.648 -3.627,21.506 -3.081,21.371 -2.534,21.233 -2.078,21.101 -1.716,20.963 -1.562,20.917 -1.422,20.808 -1.296,20.627 -1.174,20.444 -1.1,20.263 -1.083,20.086 L -0.507,14.174 C -0.464,13.746 -0.585,13.413 -0.852,13.175 -1.12,12.941 -1.418,12.924 -1.744,13.125 -2.34,13.464 -2.964,13.778 -3.618,14.073 -4.266,14.363 -4.948,14.636 -5.658,14.883 -7.08,15.356 -8.352,15.593 -9.484,15.593 -10.347,15.593 -11.019,15.511 -11.487,15.356 -11.956,15.198 -12.194,14.927 -12.194,14.545 -12.194,14.186 -11.952,13.899 -11.475,13.7 -11.033,13.518 -10.494,13.324 -9.861,13.111 -9.228,12.895 -8.478,12.698 -7.617,12.52 -4.505,11.796 -2.375,10.76 -1.225,9.409 0.058,7.968 0.705,6.121 0.705,3.869 0.705,2.401 0.47,1.117 0,0"/>
    </g>
    <g transform="matrix(5.0994906,0,0,-5.0994906,777.85066,448.29)" id="g14424">
      <path inkscape:connector-curvature="0" id="path14426" style="fill:#00adef;fill-opacity:1;fill-rule:nonzero;stroke:none" d="M 0,0 C -0.136,0 -0.285,0.064 -0.447,0.178 -0.61,0.288 -0.721,0.424 -0.78,0.581 L -2.246,3.89 -13.039,3.89 -14.51,0.581 C -14.583,0.424 -14.701,0.288 -14.852,0.178 -15.008,0.064 -15.158,0 -15.312,0 L -21.272,0 C -21.66,0 -21.937,0.165 -22.109,0.476 -22.282,0.796 -22.271,1.143 -22.079,1.526 L -10.247,25.954 C -10.192,26.09 -10.074,26.211 -9.904,26.327 -9.73,26.435 -9.586,26.497 -9.473,26.497 L -4.379,26.497 C -4.243,26.497 -4.099,26.435 -3.942,26.327 -3.793,26.211 -3.674,26.074 -3.602,25.924 L 7.538,1.492 C 7.694,1.111 7.694,0.767 7.538,0.462 7.387,0.158 7.118,0 6.736,0 L 0,0 z M -10.22,10.626 -4.863,10.626 -7.454,15.716 -10.22,10.626 z"/>
    </g>
    <g transform="matrix(5.0994906,0,0,-5.0994906,830.33992,448.28437)" id="g14428">
      <path inkscape:connector-curvature="0" id="path14430" style="fill:#00adef;fill-opacity:1;fill-rule:nonzero;stroke:none" d="M 0,0 C -0.228,0 -0.43,0.106 -0.602,0.309 -0.772,0.51 -0.859,0.747 -0.859,1.02 L -0.859,19.838 -6.82,19.838 C -7.068,19.838 -7.277,19.938 -7.44,20.14 -7.598,20.344 -7.684,20.593 -7.684,20.884 L -7.684,25.48 C -7.684,25.751 -7.598,25.986 -7.44,26.188 -7.277,26.391 -7.068,26.494 -6.82,26.494 L 13.097,26.494 C 13.351,26.494 13.558,26.391 13.735,26.188 13.902,25.986 13.99,25.751 13.99,25.48 L 13.99,20.884 C 13.99,20.593 13.902,20.344 13.735,20.14 13.558,19.938 13.351,19.838 13.097,19.838 L 7.169,19.838 7.169,1.02 C 7.169,0.747 7.089,0.51 6.926,0.309 6.764,0.106 6.557,0 6.307,0 L 0,0 z"/>
    </g>
    <g transform="matrix(5.0994906,0,0,-5.0994906,683.57067,192.24916)" id="g14432">
      <path inkscape:connector-curvature="0" id="path14434" style="fill:#7b7979;fill-opacity:1;fill-rule:nonzero;stroke:none" d="M 0,0 C -0.674,-0.512 -1.468,-0.711 -2.219,-0.711 -2.646,-0.711 -3.069,-0.65 -3.47,-0.524 -3.819,-0.411 -4.135,-0.24 -4.449,0.027 -4.74,0.29 -5.123,0.68 -5.146,1.401 -5.157,1.939 -4.826,2.445 -4.462,2.707 3.436,8.793 13.145,12.088 23.07,12.088 24.118,12.088 25.17,12.052 26.223,11.977 37.035,11.213 47.554,6.588 55.103,-1.315 62.742,-9.329 67.219,-20.062 67.222,-31.136 67.222,-32.202 67.18,-33.275 67.099,-34.351 66.141,-46.433 60.166,-57.608 50.62,-65.1 49.946,-65.621 49.149,-65.813 48.401,-65.814 47.969,-65.813 47.546,-65.75 47.141,-65.622 46.796,-65.508 46.478,-65.338 46.162,-65.069 45.872,-64.81 45.494,-64.413 45.472,-63.698 45.464,-63.169 45.782,-62.666 46.145,-62.397 53.234,-56.839 58.434,-48.943 60.396,-40.146 61.057,-37.19 61.39,-34.169 61.39,-31.159 61.39,-25.359 60.155,-19.585 57.647,-14.335 52.618,-3.818 43.12,4.21 31.767,6.944 28.94,7.627 26.068,7.957 23.206,7.957 14.897,7.957 6.69,5.154 0.002,0.002"/>
    </g>
    <g transform="matrix(5.0994906,0,0,-5.0994906,299.70603,497.72039)" id="g14436">
      <path inkscape:connector-curvature="0" id="path14438" style="fill:#7b7979;fill-opacity:1;fill-rule:nonzero;stroke:none" d="M 0,0 -1.173,0 C -1.689,0 -1.904,0.376 -1.904,0.743 -1.904,1.119 -1.636,1.486 -1.173,1.486 L 2.787,1.486 C 3.25,1.486 3.52,1.119 3.52,0.743 3.52,0.376 3.304,0 2.787,0 L 1.614,0 1.614,-5.402 C 1.614,-5.94 1.271,-6.242 0.808,-6.242 0.345,-6.242 0,-5.94 0,-5.402 L 0,0 z"/>
    </g>
    <g transform="matrix(5.0994906,0,0,-5.0994906,319.46194,494.91975)" id="g14440">
      <path inkscape:connector-curvature="0" id="path14442" style="fill:#7b7979;fill-opacity:1;fill-rule:nonzero;stroke:none" d="M 0,0 C 0,0.537 0.269,0.936 0.839,0.936 L 3.509,0.936 C 4.024,0.936 4.272,0.57 4.272,0.194 4.272,-0.173 4.013,-0.549 3.509,-0.549 L 1.614,-0.549 1.614,-2.12 3.379,-2.12 C 3.906,-2.12 4.165,-2.486 4.165,-2.863 4.165,-3.229 3.896,-3.606 3.379,-3.606 L 1.614,-3.606 1.614,-5.241 3.605,-5.241 C 4.122,-5.241 4.369,-5.607 4.369,-5.984 4.369,-6.35 4.111,-6.726 3.605,-6.726 L 0.828,-6.726 C 0.355,-6.726 0,-6.403 0,-5.92 L 0,0 z M 2.346,3.229 C 2.507,3.292 2.636,3.336 2.755,3.336 3.077,3.336 3.336,2.959 3.336,2.669 3.336,2.356 3.196,2.141 2.894,2.034 L 1.69,1.56 C 1.377,1.452 1.474,1.452 1.259,1.452 0.936,1.452 0.689,1.862 0.689,2.238 0.689,2.399 0.807,2.571 0.99,2.669 L 1.076,2.712 2.346,3.229 z"/>
    </g>
    <g transform="matrix(5.0994906,0,0,-5.0994906,344.86352,494.0977)" id="g14444">
      <path inkscape:connector-curvature="0" id="path14446" style="fill:#7b7979;fill-opacity:1;fill-rule:nonzero;stroke:none" d="M 0,0 C 0,0.538 0.344,0.839 0.807,0.839 1.269,0.839 1.614,0.538 1.614,0 L 1.614,-5.402 3.53,-5.402 C 4.078,-5.402 4.315,-5.812 4.304,-6.177 4.283,-6.533 4.003,-6.888 3.53,-6.888 L 0.839,-6.888 C 0.312,-6.888 0,-6.543 0,-6.005 L 0,0 z"/>
    </g>
    <g transform="matrix(5.0994906,0,0,-5.0994906,368.236,494.91975)" id="g14448">
      <path inkscape:connector-curvature="0" id="path14450" style="fill:#7b7979;fill-opacity:1;fill-rule:nonzero;stroke:none" d="M 0,0 C 0,0.537 0.269,0.936 0.839,0.936 L 3.509,0.936 C 4.024,0.936 4.272,0.57 4.272,0.194 4.272,-0.173 4.014,-0.549 3.509,-0.549 L 1.614,-0.549 1.614,-2.12 3.379,-2.12 C 3.907,-2.12 4.165,-2.486 4.165,-2.863 4.165,-3.229 3.896,-3.606 3.379,-3.606 L 1.614,-3.606 1.614,-5.241 3.605,-5.241 C 4.122,-5.241 4.369,-5.607 4.369,-5.984 4.369,-6.35 4.111,-6.726 3.605,-6.726 L 0.828,-6.726 C 0.355,-6.726 0,-6.403 0,-5.92 L 0,0 z M 2.346,3.229 C 2.507,3.292 2.636,3.336 2.755,3.336 3.077,3.336 3.336,2.959 3.336,2.669 3.336,2.356 3.196,2.141 2.894,2.034 L 1.69,1.56 C 1.378,1.452 1.474,1.452 1.259,1.452 0.936,1.452 0.689,1.862 0.689,2.238 0.689,2.399 0.807,2.571 0.99,2.669 L 1.076,2.712 2.346,3.229 z"/>
    </g>
    <g transform="matrix(5.0994906,0,0,-5.0994906,391.33824,495.80142)" id="g14452">
      <path inkscape:connector-curvature="0" id="path14454" style="fill:#7b7979;fill-opacity:1;fill-rule:nonzero;stroke:none" d="M 0,0 C -0.054,0.14 -0.076,0.248 -0.076,0.399 -0.076,0.851 0.322,1.173 0.754,1.173 1.119,1.173 1.345,0.936 1.485,0.647 L 3.153,-3.831 4.821,0.647 C 4.961,0.936 5.187,1.173 5.553,1.173 5.984,1.173 6.381,0.851 6.381,0.399 6.381,0.248 6.36,0.14 6.306,0 L 3.95,-5.993 C 3.809,-6.338 3.626,-6.618 3.153,-6.618 2.679,-6.618 2.497,-6.338 2.357,-5.993 L 0,0 z"/>
    </g>
    <g transform="matrix(5.0994906,0,0,-5.0994906,426.12439,494.0977)" id="g14456">
      <path inkscape:connector-curvature="0" id="path14458" style="fill:#7b7979;fill-opacity:1;fill-rule:nonzero;stroke:none" d="M 0,0 C 0,0.538 0.344,0.839 0.807,0.839 1.269,0.839 1.614,0.538 1.614,0 L 1.614,-6.112 C 1.614,-6.651 1.269,-6.952 0.807,-6.952 0.344,-6.952 0,-6.651 0,-6.112 L 0,0 z"/>
    </g>
    <g transform="matrix(5.0994906,0,0,-5.0994906,462.39352,494.97429)" id="g14460">
      <path inkscape:connector-curvature="0" id="path14462" style="fill:#7b7979;fill-opacity:1;fill-rule:nonzero;stroke:none" d="M 0,0 C 0,-0.42 -0.28,-0.797 -0.721,-0.797 -1.162,-0.797 -1.506,-0.474 -2.152,-0.474 -2.614,-0.474 -3.035,-0.721 -3.035,-1.173 -3.035,-2.281 0.56,-1.571 0.56,-4.348 0.56,-5.887 -0.71,-6.844 -2.195,-6.844 -3.024,-6.844 -4.81,-6.651 -4.81,-5.64 -4.81,-5.22 -4.53,-4.875 -4.089,-4.875 -3.583,-4.875 -2.981,-5.295 -2.281,-5.295 -1.571,-5.295 -1.184,-4.897 -1.184,-4.369 -1.184,-3.1 -4.778,-3.863 -4.778,-1.367 -4.778,0.139 -3.54,1.076 -2.109,1.076 -1.506,1.076 0,0.85 0,0"/>
    </g>
    <g transform="matrix(5.0994906,0,0,-5.0994906,468.75617,494.0977)" id="g14464">
      <path inkscape:connector-curvature="0" id="path14466" style="fill:#7b7979;fill-opacity:1;fill-rule:nonzero;stroke:none" d="M 0,0 C 0,0.538 0.344,0.839 0.807,0.839 1.269,0.839 1.614,0.538 1.614,0 L 1.614,-6.112 C 1.614,-6.651 1.269,-6.952 0.807,-6.952 0.344,-6.952 0,-6.651 0,-6.112 L 0,0 z"/>
    </g>
    <g transform="matrix(5.0994906,0,0,-5.0994906,480.38506,509.6853)" id="g14468">
      <path inkscape:connector-curvature="0" id="path14470" style="fill:#7b7979;fill-opacity:1;fill-rule:nonzero;stroke:none" d="M 0,0 C 0,2.239 1.507,3.961 3.702,3.961 5.866,3.961 7.404,2.185 7.404,0 7.404,-2.227 5.908,-3.959 3.702,-3.959 1.518,-3.959 0,-2.227 0,0 M 5.725,0 C 5.725,1.303 5.047,2.476 3.702,2.476 2.357,2.476 1.679,1.303 1.679,0 1.679,-1.313 2.336,-2.475 3.702,-2.475 5.069,-2.475 5.725,-1.313 5.725,0"/>
    </g>
    <g transform="matrix(5.0994906,0,0,-5.0994906,521.20852,494.0977)" id="g14472">
      <path inkscape:connector-curvature="0" id="path14474" style="fill:#7b7979;fill-opacity:1;fill-rule:nonzero;stroke:none" d="M 0,0 C 0,0.538 0.345,0.839 0.808,0.839 1.012,0.839 1.345,0.678 1.486,0.484 L 4.897,-4.068 4.919,-4.068 4.919,0 C 4.919,0.538 5.262,0.839 5.725,0.839 6.188,0.839 6.533,0.538 6.533,0 L 6.533,-6.112 C 6.533,-6.651 6.188,-6.952 5.725,-6.952 5.521,-6.952 5.199,-6.79 5.047,-6.597 L 1.636,-2.099 1.614,-2.099 1.614,-6.112 C 1.614,-6.651 1.27,-6.952 0.808,-6.952 0.345,-6.952 0,-6.651 0,-6.112 L 0,0 z"/>
    </g>
    <g transform="matrix(5.0994906,0,0,-5.0994906,573.50073,494.0977)" id="g14476">
      <path inkscape:connector-curvature="0" id="path14478" style="fill:#7b7979;fill-opacity:1;fill-rule:nonzero;stroke:none" d="M 0,0 C 0,0.538 0.345,0.839 0.808,0.839 1.012,0.839 1.345,0.678 1.486,0.484 L 4.897,-4.068 4.919,-4.068 4.919,0 C 4.919,0.538 5.262,0.839 5.725,0.839 6.188,0.839 6.533,0.538 6.533,0 L 6.533,-6.112 C 6.533,-6.651 6.188,-6.952 5.725,-6.952 5.521,-6.952 5.198,-6.79 5.047,-6.597 L 1.636,-2.099 1.614,-2.099 1.614,-6.112 C 1.614,-6.651 1.27,-6.952 0.808,-6.952 0.345,-6.952 0,-6.651 0,-6.112 L 0,0 z"/>
    </g>
    <g transform="matrix(5.0994906,0,0,-5.0994906,611.08243,494.0977)" id="g14480">
      <path inkscape:connector-curvature="0" id="path14482" style="fill:#7b7979;fill-opacity:1;fill-rule:nonzero;stroke:none" d="M 0,0 C 0,0.538 0.345,0.839 0.808,0.839 1.27,0.839 1.614,0.538 1.614,0 L 1.614,-3.756 C 1.614,-4.746 2.249,-5.532 3.272,-5.532 4.251,-5.532 4.918,-4.703 4.918,-3.756 L 4.918,0 C 4.918,0.538 5.262,0.839 5.725,0.839 6.188,0.839 6.533,0.538 6.533,0 L 6.533,-3.842 C 6.533,-5.649 5.047,-7.016 3.272,-7.016 1.475,-7.016 0,-5.671 0,-3.842 L 0,0 z"/>
    </g>
    <g transform="matrix(5.0994906,0,0,-5.0994906,653.0033,494.0426)" id="g14484">
      <path inkscape:connector-curvature="0" id="path14486" style="fill:#7b7979;fill-opacity:1;fill-rule:nonzero;stroke:none" d="M 0,0 C 0.065,0.387 0.484,0.828 1.055,0.828 1.594,0.828 2.013,0.441 2.131,0.054 L 3.401,-4.208 3.423,-4.208 4.692,0.054 C 4.811,0.441 5.231,0.828 5.768,0.828 6.339,0.828 6.759,0.387 6.824,0 L 7.824,-6.005 7.834,-6.188 C 7.834,-6.661 7.491,-6.963 7.06,-6.963 6.511,-6.963 6.296,-6.715 6.22,-6.209 L 5.586,-1.829 5.564,-1.829 4.273,-6.338 C 4.197,-6.597 3.993,-6.963 3.412,-6.963 2.831,-6.963 2.626,-6.597 2.551,-6.338 L 1.26,-1.829 1.238,-1.829 0.603,-6.209 C 0.528,-6.715 0.312,-6.963 -0.237,-6.963 -0.667,-6.963 -1.011,-6.661 -1.011,-6.188 L -1,-6.005 0,0 z"/>
    </g>
    <g transform="matrix(5.0994906,0,0,-5.0994906,696.73808,494.91975)" id="g14488">
      <path inkscape:connector-curvature="0" id="path14490" style="fill:#7b7979;fill-opacity:1;fill-rule:nonzero;stroke:none" d="M 0,0 C 0,0.537 0.269,0.936 0.839,0.936 L 3.508,0.936 C 4.024,0.936 4.272,0.57 4.272,0.194 4.272,-0.173 4.013,-0.549 3.508,-0.549 L 1.614,-0.549 1.614,-2.12 3.379,-2.12 C 3.906,-2.12 4.165,-2.486 4.165,-2.863 4.165,-3.229 3.896,-3.606 3.379,-3.606 L 1.614,-3.606 1.614,-5.241 3.605,-5.241 C 4.122,-5.241 4.369,-5.607 4.369,-5.984 4.369,-6.35 4.111,-6.726 3.605,-6.726 L 0.828,-6.726 C 0.355,-6.726 0,-6.403 0,-5.92 L 0,0 z M 2.346,3.229 C 2.507,3.292 2.636,3.336 2.755,3.336 3.077,3.336 3.336,2.959 3.336,2.669 3.336,2.356 3.196,2.141 2.894,2.034 L 1.69,1.56 C 1.377,1.452 1.474,1.452 1.258,1.452 0.936,1.452 0.689,1.862 0.689,2.238 0.689,2.399 0.807,2.571 0.99,2.669 L 1.076,2.712 2.346,3.229 z"/>
    </g>
    <g transform="matrix(5.0994906,0,0,-5.0994906,722.13963,494.42816)" id="g14492">
      <path inkscape:connector-curvature="0" id="path14494" style="fill:#7b7979;fill-opacity:1;fill-rule:nonzero;stroke:none" d="M 0,0 C 0,0.517 0.291,0.84 0.828,0.84 L 2.723,0.84 C 4.38,0.84 5.402,0.097 5.402,-1.593 5.402,-2.777 4.509,-3.455 3.411,-3.626 L 5.241,-5.585 C 5.391,-5.747 5.456,-5.908 5.456,-6.058 5.456,-6.478 5.123,-6.887 4.649,-6.887 4.455,-6.887 4.197,-6.812 4.024,-6.607 L 1.636,-3.713 1.614,-3.713 1.614,-6.047 C 1.614,-6.586 1.269,-6.887 0.807,-6.887 0.344,-6.887 0,-6.586 0,-6.047 L 0,0 z M 1.614,-2.551 2.723,-2.551 C 3.314,-2.551 3.724,-2.195 3.724,-1.593 3.724,-0.979 3.314,-0.646 2.723,-0.646 L 1.614,-0.646 1.614,-2.551 z"/>
    </g>
    <g transform="matrix(5.0994906,0,0,-5.0994906,752.64681,494.0977)" id="g14496">
      <path inkscape:connector-curvature="0" id="path14498" style="fill:#7b7979;fill-opacity:1;fill-rule:nonzero;stroke:none" d="M 0,0 C 0,0.538 0.344,0.839 0.807,0.839 1.269,0.839 1.614,0.538 1.614,0 L 1.614,-6.112 C 1.614,-6.651 1.269,-6.952 0.807,-6.952 0.344,-6.952 0,-6.651 0,-6.112 L 0,0 z"/>
    </g>
    <g transform="matrix(5.0994906,0,0,-5.0994906,792.8146,527.4611)" id="g14500">
      <path inkscape:connector-curvature="0" id="path14502" style="fill:#7b7979;fill-opacity:1;fill-rule:nonzero;stroke:none" d="M 0,0 C -0.528,-0.302 -1.162,-0.474 -1.894,-0.474 -4.078,-0.474 -5.596,1.259 -5.596,3.486 -5.596,5.725 -4.089,7.446 -1.894,7.446 0.269,7.446 1.808,5.671 1.808,3.486 1.808,2.539 1.56,1.678 1.087,1 L 1.7,0.472 C 1.905,0.29 2.077,0.118 2.077,-0.184 2.077,-0.56 1.7,-0.862 1.334,-0.862 1.097,-0.862 0.904,-0.765 0.613,-0.517 L 0,0 z M -0.13,2.108 C 0.054,2.518 0.129,2.991 0.129,3.486 0.129,4.767 -0.549,5.962 -1.894,5.962 -3.239,5.962 -3.917,4.789 -3.917,3.486 -3.917,2.173 -3.261,1.011 -1.894,1.011 -1.647,1.011 -1.421,1.043 -1.206,1.087 L -1.593,1.463 C -1.712,1.571 -1.797,1.743 -1.797,1.893 -1.797,2.313 -1.507,2.668 -1.066,2.668 -0.915,2.668 -0.786,2.614 -0.656,2.528 L -0.13,2.108 z"/>
    </g>
    <g transform="matrix(5.0994906,0,0,-5.0994906,805.09826,494.0977)" id="g14504">
      <path inkscape:connector-curvature="0" id="path14506" style="fill:#7b7979;fill-opacity:1;fill-rule:nonzero;stroke:none" d="M 0,0 C 0,0.538 0.345,0.839 0.808,0.839 1.271,0.839 1.614,0.538 1.614,0 L 1.614,-3.756 C 1.614,-4.746 2.249,-5.532 3.272,-5.532 4.251,-5.532 4.919,-4.703 4.919,-3.756 L 4.919,0 C 4.919,0.538 5.263,0.839 5.725,0.839 6.188,0.839 6.533,0.538 6.533,0 L 6.533,-3.842 C 6.533,-5.649 5.047,-7.016 3.272,-7.016 1.475,-7.016 0,-5.671 0,-3.842 L 0,0 z"/>
    </g>
    <g transform="matrix(5.0994906,0,0,-5.0994906,843.01685,494.91975)" id="g14508">
      <path inkscape:connector-curvature="0" id="path14510" style="fill:#7b7979;fill-opacity:1;fill-rule:nonzero;stroke:none" d="M 0,0 C 0,0.537 0.269,0.936 0.839,0.936 L 3.509,0.936 C 4.024,0.936 4.272,0.57 4.272,0.194 4.272,-0.173 4.014,-0.549 3.509,-0.549 L 1.614,-0.549 1.614,-2.12 3.379,-2.12 C 3.906,-2.12 4.165,-2.486 4.165,-2.863 4.165,-3.229 3.896,-3.606 3.379,-3.606 L 1.614,-3.606 1.614,-5.241 3.605,-5.241 C 4.122,-5.241 4.369,-5.607 4.369,-5.984 4.369,-6.35 4.111,-6.726 3.605,-6.726 L 0.828,-6.726 C 0.355,-6.726 0,-6.403 0,-5.92 L 0,0 z"/>
    </g>
  </g>
</svg>