<?xml version="1.0" encoding="UTF-8" standalone="no"?>
<!-- Generator: Adobe Illustrator 12.0.0, SVG Export Plug-In . SVG Version: 6.00 Build 51448)  -->
<svg
   xmlns:dc="http://purl.org/dc/elements/1.1/"
   xmlns:cc="http://web.resource.org/cc/"
   xmlns:rdf="http://www.w3.org/1999/02/22-rdf-syntax-ns#"
   xmlns:svg="http://www.w3.org/2000/svg"
   xmlns="http://www.w3.org/2000/svg"
   xmlns:sodipodi="http://sodipodi.sourceforge.net/DTD/sodipodi-0.dtd"
   xmlns:inkscape="http://www.inkscape.org/namespaces/inkscape"
   version="1.0"
   id="logo"
   width="178.836"
   height="159.62"
   viewBox="0 0 178.836 168.618"
   overflow="visible"
   enable-background="new 0 0 178.836 168.618"
   xml:space="preserve"
   sodipodi:version="0.32"
   inkscape:version="0.45.1"
   sodipodi:docname="FRANCE24.svg"
   inkscape:output_extension="org.inkscape.output.svg.inkscape"
   sodipodi:docbase="H:\001_Inkscape\Logos"><metadata
   id="metadata14"><rdf:RDF><cc:Work
       rdf:about=""><dc:format>image/svg+xml</dc:format><dc:type
         rdf:resource="http://purl.org/dc/dcmitype/StillImage" /></cc:Work></rdf:RDF></metadata><defs
   id="defs12" /><sodipodi:namedview
   inkscape:window-height="579"
   inkscape:window-width="752"
   inkscape:pageshadow="2"
   inkscape:pageopacity="0.0"
   guidetolerance="10.0"
   gridtolerance="10.0"
   objecttolerance="10.0"
   borderopacity="1.0"
   bordercolor="#666666"
   pagecolor="#ffffff"
   id="base"
   showgrid="true"
   height="43.354979mm"
   width="44.263734mm"
   units="mm"
   inkscape:zoom="2.235823"
   inkscape:cx="111.56778"
   inkscape:cy="72.85114"
   inkscape:window-x="108"
   inkscape:window-y="80"
   inkscape:current-layer="logo" />




<g
   id="g10968"><path
     id="path6059"
     d="M 5.1062362,-0.4014263 C 5.1062362,-0.4014263 185.10624,-0.4014263 185.10624,-0.4014263 L 185.10624,169.59858 L 5.1062362,169.59858 L 5.1062362,-0.4014263 z "
     style="fill:#ffffff;fill-opacity:1;fill-rule:evenodd;stroke:none;stroke-width:1px;stroke-linecap:butt;stroke-linejoin:miter;stroke-opacity:1" /><path
     id="path8020"
     d="M 5.5230958,-0.4014263 L 5.5230958,168.618 L 185.10624,168.618 L 185.10624,-0.4014263 L 5.5230958,-0.4014263 z "
     style="fill:#ffffff;fill-opacity:1;fill-rule:evenodd;stroke:none;stroke-width:1px;stroke-linecap:butt;stroke-linejoin:miter;stroke-opacity:1" /><path
     id="path3"
     d="M 75.388236,168.21657 C 91.936236,168.13657 111.34624,165.90657 131.72624,161.34657 C 151.21524,156.98657 169.66524,150.90757 185.10624,143.78657 L 185.10624,-0.4014263 L 6.2702362,-0.4014263 L 6.2702362,168.21657 L 75.388236,168.21657"
     style="fill:#ffffff;fill-opacity:1;stroke:none" /><path
     style="fill:#29b1e6"
     id="path5"
     d="M 90.989096,103.458 C 95.029096,106.023 106.09812,105.967 117.89912,103.331 C 132.60912,100.036 143.80912,93.899 142.85912,89.655996 C 142.70912,88.945996 142.19912,88.323996 141.35912,87.791996 C 137.31912,85.229996 126.24912,85.278996 114.44912,87.917996 C 102.64912,90.561 92.619096,95.231 90.049096,99.272 C 89.517096,100.113 89.326096,100.894 89.488096,101.596 C 89.643096,102.303 90.149096,102.929 90.989096,103.458 M 42.977096,131.032 C 43.532096,133.509 45.274096,135.698 48.156096,137.525 C 60.648096,145.448 91.809096,145.677 125.67812,138.094 C 149.53812,132.756 170.90812,124.398 184.35912,115.149 L 184.35912,-3.8628229e-006 L 5.5230958,-3.8628229e-006 L 5.5230958,168.618 L 30.893096,168.618 C 25.290096,165.538 21.913096,161.708 20.904096,157.208 C 20.694096,156.258 20.589096,155.298 20.589096,154.318 C 20.589096,150.188 22.455096,145.778 26.171096,141.15 C 26.237096,141.066 26.355096,141.046 26.441096,141.108 C 26.528096,141.162 26.556096,141.282 26.503096,141.376 C 24.415096,144.998 23.716096,148.428 24.420096,151.578 C 26.875096,162.548 45.873096,168.498 72.857096,168.618 L 74.641096,168.618 C 91.189096,168.538 110.59912,166.308 130.97912,161.748 C 150.46812,157.388 168.91812,151.309 184.35912,144.188 L 184.35912,123.424 C 169.87912,132.162 149.59812,139.737 127.16912,144.768 C 91.379096,152.768 58.187096,152.358 44.592096,143.738 C 41.263096,141.619 39.247096,139.077 38.597096,136.177 C 37.561096,131.565 40.131096,126.209 46.019096,120.694 C 46.097096,120.621 46.217096,120.621 46.296096,120.694 C 46.373096,120.765 46.383096,120.884 46.316096,120.971 C 43.417096,124.592 42.293096,127.979 42.977096,131.032 z M 114.15912,86.630996 C 132.06912,82.622996 147.67912,83.993996 148.94912,89.689996 C 149.19912,90.78 148.91912,91.965 148.12912,93.208 C 144.81012,98.439 133.01912,104.097 118.78912,107.282 C 100.87912,111.286 85.265096,109.919 83.988096,104.227 C 82.717096,98.532 96.249096,90.643 114.15912,86.630996 z M 70.542096,103.626 C 70.632096,103.565 70.751096,103.584 70.817096,103.672 C 70.878096,103.763 70.865096,103.882 70.780096,103.95 C 66.176096,107.651 64.092096,111.176 64.755096,114.14 C 65.107096,115.712 66.216096,117.104 68.058096,118.268 C 76.301096,123.495 98.189096,123.54 121.26812,118.373 C 150.43812,111.843 172.55912,99.323 170.57912,90.459 C 169.90912,87.493996 166.52912,85.195996 160.78912,83.809996 C 160.67912,83.783996 160.60912,83.682996 160.62912,83.572996 C 160.65912,83.468996 160.74912,83.397996 160.85912,83.412996 C 170.28912,84.833996 175.78912,87.913996 176.77912,92.309 C 177.21812,94.274 176.70912,96.408 175.28912,98.658 C 169.27912,108.124 148.07912,118.329 122.53912,124.047 C 96.989096,129.765 73.456096,129.57 63.986096,123.564 C 61.736096,122.137 60.372096,120.418 59.935096,118.457 C 58.952096,114.06 62.618096,108.933 70.542096,103.626 z " /><g
     transform="translate(5.2963691,0.2190297)"
     id="g6048"><path
       d="M 104.906,29.416 L 104.837,29.416 L 97.696,16.302 L 89.946,16.302 L 89.946,40.834 L 97.106,40.834 L 97.106,27.425 L 97.176,27.425 L 104.696,40.834 L 112.056,40.834 L 112.056,16.302 L 104.906,16.302 L 104.906,29.416 M 127.906,35.299 C 124.386,35.299 123.246,31.877 123.246,28.568 C 123.246,25.27 124.387,21.827 127.906,21.827 C 131.037,21.827 131.726,24.546 131.866,25.438 L 139.226,25.438 C 138.566,19.289 134.866,15.75 128.116,15.714 C 120.566,15.714 115.677,20.835 115.677,28.568 C 115.677,35.822 120.187,41.412 128.116,41.412 C 135.306,41.412 139.326,36.156 139.326,31.217 L 131.906,31.217 C 131.457,33.52 130.457,35.299 127.906,35.299 z M 60.317,24.583 C 60.317,19.24 57.09,16.302 51.229,16.302 L 38.701,16.302 L 38.701,40.834 L 46.122,40.834 C 46.122,40.834 46.122,33.649 46.122,32.5 L 48.725,32.5 C 49.068,33.146 53.013,40.834 53.013,40.834 L 61.046,40.834 C 61.046,40.834 56.501,32.362 55.834,31.181 C 58.577,30.065 60.317,27.559 60.317,24.583 z M 50.748,26.854 C 50.748,26.854 47.143,26.854 46.122,26.854 L 46.122,21.951 C 47.143,21.951 50.748,21.951 50.748,21.951 C 52.367,21.951 53.158,22.752 53.158,24.393 C 53.158,26.036 52.367,26.854 50.748,26.854 z M 162.946,22.01 L 162.946,16.28 L 142.686,16.28 L 142.686,40.835 L 162.946,40.835 L 162.946,35.103 L 150.736,35.103 L 150.736,31.418 L 160.866,31.418 L 160.866,25.704 L 150.736,25.704 L 150.736,22.01 L 162.946,22.01 z M 16.435,40.834 L 24.482,40.834 L 24.482,32.523 L 33.295,32.523 L 33.295,26.789 L 24.482,26.789 L 24.482,22.01 L 35.546,22.01 L 35.546,16.28 L 16.435,16.28 L 16.435,40.834 z M 70.985,16.302 L 62.195,40.834 L 70.062,40.834 L 70.985,37.576 L 78.97,37.576 L 79.928,40.834 L 87.936,40.834 L 79.162,16.302 L 70.985,16.302 L 70.985,16.302 z M 72.51,32.475 L 75.005,23.697 L 77.592,32.475 L 72.51,32.475 z "
       id="path7"
       style="fill:#ffffff;stroke:none" /><path
       d="M 80.175,68.186 L 80.175,45.744 L 68.661,45.744 L 50.259,67.148 L 50.259,76.168 L 32.759,76.168 L 32.759,76.108 C 40.343,71.48 50.401,68.249 50.401,57.934 C 50.401,49.389 43.752,45.281 33.978,45.281 C 23.154,45.281 16.278,51.639 16.918,62.692 L 27.78,62.692 C 27.663,57.769 29.235,54.415 33.859,54.415 C 36.573,54.415 38.717,55.69 38.717,59.338 C 38.717,62.286 35.358,63.896 33.282,65.175 C 28.133,68.298 22.354,71.372 18.991,76.056 C 17.028,78.771 15.865,82.125 16.103,86.002 L 50.983,86.002 L 50.983,78.018 L 68.144,78.018 L 68.144,86.002 L 80.175,86.002 L 80.175,78.018 L 85.616,78.018 L 85.616,68.186 L 80.175,68.186 M 68.144,68.186 L 58.305,68.186 L 68.144,56.904 L 68.144,68.186 z "
       id="path9"
       style="fill:#ffffff;stroke:none" /></g></g></svg>