<?xml version="1.0" encoding="UTF-8" ?>
<!DOCTYPE svg PUBLIC "-//W3C//DTD SVG 1.1//EN" "http://www.w3.org/Graphics/SVG/1.1/DTD/svg11.dtd">
<svg width="788pt" height="142pt" viewBox="0 0 788 142" version="1.1" xmlns="http://www.w3.org/2000/svg">
<g id="#56aa26ff">
<path fill="#56aa26" opacity="1.00" d=" M 0.00 0.00 L 346.61 0.00 C 346.71 47.33 346.61 94.67 346.66 142.00 L 0.00 142.00 L 0.00 0.00 M 274.26 24.28 C 259.35 26.75 245.56 36.42 239.14 50.24 C 233.33 62.36 232.65 76.84 237.27 89.46 C 241.21 100.21 249.62 109.23 260.12 113.83 C 270.96 118.73 283.43 119.61 294.97 116.93 C 308.91 113.63 321.25 103.58 326.50 90.14 C 330.48 81.36 331.09 71.51 330.21 62.03 C 328.84 49.76 322.25 37.88 311.71 31.21 C 300.81 23.96 286.99 22.20 274.26 24.28 M 25.78 27.52 C 25.57 54.68 25.80 81.85 25.66 109.02 C 25.64 111.15 25.82 113.27 26.13 115.38 C 33.67 115.24 41.22 115.31 48.76 115.37 C 49.41 102.26 48.65 89.14 49.07 76.03 C 48.58 59.56 49.25 43.10 48.77 26.63 C 41.33 26.84 33.88 26.57 26.44 26.73 C 26.28 26.92 25.94 27.32 25.78 27.52 M 68.79 62.04 C 66.72 79.81 64.31 97.53 62.38 115.31 C 69.81 115.38 77.25 115.21 84.68 115.39 C 85.54 111.51 85.92 107.55 86.37 103.60 C 88.08 87.44 91.08 71.37 90.87 55.06 C 100.46 76.10 113.49 95.27 124.92 115.31 C 133.14 115.35 141.35 115.28 149.57 115.32 C 153.44 85.82 157.01 56.26 160.47 26.70 C 153.02 26.66 145.58 26.79 138.14 26.62 C 136.15 40.63 134.68 54.70 132.81 68.73 C 132.08 74.52 131.56 80.33 131.37 86.17 C 126.91 76.42 121.57 67.11 116.03 57.95 C 109.85 47.49 103.84 36.93 97.37 26.64 C 89.37 26.74 81.36 26.74 73.35 26.63 C 71.48 38.38 70.38 50.25 68.79 62.04 M 173.67 32.01 C 173.79 59.78 173.64 87.55 173.75 115.32 C 181.42 115.36 189.08 115.24 196.75 115.38 C 197.18 103.73 196.45 92.05 197.17 80.41 C 205.55 80.54 213.93 80.50 222.32 80.44 C 222.08 73.83 222.79 67.17 221.85 60.61 C 213.63 60.79 205.41 60.57 197.20 60.72 C 196.76 55.94 196.82 51.13 196.92 46.34 C 206.15 46.31 215.39 46.24 224.62 46.36 C 224.72 39.79 224.74 33.23 224.58 26.67 C 207.78 26.67 190.97 26.82 174.17 26.59 C 173.89 28.39 173.66 30.19 173.67 32.01 Z" />
<path fill="#56aa26" opacity="1.00" d=" M 274.96 46.30 C 282.87 43.94 292.35 44.64 298.67 50.42 C 310.77 60.40 310.40 81.48 298.23 91.24 C 288.66 99.13 272.88 98.85 264.31 89.57 C 254.63 79.59 255.25 61.82 265.30 52.31 C 267.98 49.57 271.33 47.50 274.96 46.30 Z" />
</g>
<g id="#b2b3b5ff">
<path fill="#b2b3b5" opacity="1.00" d=" M 346.61 0.00 L 788.00 0.00 L 788.00 142.00 L 346.66 142.00 C 346.61 94.67 346.71 47.33 346.61 0.00 M 389.85 24.83 C 379.43 26.37 370.35 34.50 367.83 44.76 C 366.18 52.17 365.82 60.55 369.67 67.37 C 373.39 73.73 380.84 76.15 387.44 78.30 C 392.43 80.00 398.39 80.70 401.90 85.08 C 404.81 89.44 401.96 95.79 396.94 96.94 C 388.03 99.33 379.67 94.22 372.93 88.97 C 368.99 94.63 366.57 101.20 363.14 107.18 C 378.09 118.34 400.62 121.65 416.36 110.28 C 423.30 105.53 425.97 97.04 426.55 89.02 C 427.29 82.06 425.97 74.30 420.69 69.29 C 414.80 62.70 405.72 61.21 397.76 58.48 C 394.42 57.30 390.14 55.21 390.31 51.05 C 390.40 46.64 394.82 43.64 398.96 43.75 C 404.71 43.32 409.97 46.14 414.26 49.69 C 417.22 43.59 420.69 37.71 423.11 31.36 C 412.94 26.22 401.28 23.01 389.85 24.83 M 555.23 24.22 C 543.53 26.30 532.47 32.73 525.48 42.43 C 511.57 60.78 513.22 89.77 530.88 105.17 C 550.34 123.53 584.67 122.58 602.80 102.77 C 613.19 91.45 617.17 74.91 613.77 60.01 C 611.11 46.99 602.23 35.49 590.43 29.42 C 579.77 23.61 567.10 22.32 555.23 24.22 M 439.91 26.41 C 439.58 55.93 439.79 85.46 439.80 114.98 C 447.39 114.97 454.98 115.10 462.56 114.86 C 462.48 105.14 462.49 95.42 462.55 85.70 C 471.03 85.56 479.77 86.62 488.00 83.98 C 493.11 82.42 497.75 79.15 500.57 74.57 C 505.40 66.82 506.00 57.17 504.57 48.34 C 503.04 39.56 496.92 31.60 488.55 28.36 C 482.30 26.02 475.51 26.46 468.97 26.46 C 459.28 26.44 449.59 26.51 439.91 26.41 M 634.54 26.54 C 631.04 56.03 627.27 85.49 623.83 114.99 C 631.38 114.96 638.93 115.13 646.48 114.83 C 647.74 103.46 649.03 92.09 650.63 80.77 C 657.87 91.81 664.08 103.50 671.29 114.54 C 679.98 115.63 688.94 114.67 697.73 115.01 C 690.75 103.40 683.10 92.20 676.18 80.56 C 684.75 77.90 692.29 71.01 693.91 61.94 C 695.63 52.24 695.13 40.60 687.42 33.45 C 681.07 27.83 672.17 26.47 663.98 26.46 C 654.16 26.48 644.35 26.39 634.54 26.54 M 705.67 26.65 C 705.78 33.09 705.72 39.53 705.73 45.97 C 712.01 46.06 718.29 45.89 724.57 46.12 C 724.41 69.06 724.61 91.99 724.47 114.93 C 732.15 115.03 739.85 115.03 747.54 114.93 C 747.38 91.99 747.59 69.06 747.43 46.12 C 753.85 45.90 760.29 46.06 766.72 45.95 C 766.76 39.47 766.75 33.00 766.71 26.52 C 746.36 26.52 726.01 26.23 705.67 26.65 Z" />
<path fill="#b2b3b5" opacity="1.00" d=" M 560.43 44.62 C 574.29 41.44 589.41 51.84 591.15 66.00 C 593.58 79.72 582.88 93.93 569.01 95.27 C 555.02 97.61 540.67 86.17 539.86 72.01 C 538.28 59.33 548.01 46.92 560.43 44.62 Z" />
<path fill="#b2b3b5" opacity="1.00" d=" M 462.45 45.46 C 467.76 45.31 473.85 44.16 478.38 47.68 C 481.96 50.94 482.35 56.51 481.00 60.91 C 480.12 64.09 476.97 66.04 473.88 66.57 C 470.12 67.18 466.31 66.94 462.53 66.90 C 462.48 59.75 462.57 52.60 462.45 45.46 Z" />
<path fill="#b2b3b5" opacity="1.00" d=" M 652.23 65.57 C 653.34 58.91 653.54 52.07 655.33 45.53 C 660.08 45.87 665.57 45.26 669.43 48.65 C 673.01 52.13 672.19 58.46 668.48 61.55 C 664.05 65.44 657.81 65.59 652.23 65.57 Z" />
</g>
<g id="#ffffffff">
<path fill="#ffffff" opacity="1.00" d=" M 274.26 24.28 C 286.99 22.20 300.81 23.96 311.71 31.21 C 322.25 37.88 328.84 49.76 330.21 62.03 C 331.09 71.51 330.48 81.36 326.50 90.14 C 321.25 103.58 308.91 113.63 294.97 116.93 C 283.43 119.61 270.96 118.73 260.12 113.83 C 249.62 109.23 241.21 100.21 237.27 89.46 C 232.65 76.84 233.33 62.36 239.14 50.24 C 245.56 36.42 259.35 26.75 274.26 24.28 M 274.96 46.30 C 271.33 47.50 267.98 49.57 265.30 52.31 C 255.25 61.82 254.63 79.59 264.31 89.57 C 272.88 98.85 288.66 99.13 298.23 91.24 C 310.40 81.48 310.77 60.40 298.67 50.42 C 292.35 44.64 282.87 43.94 274.96 46.30 Z" />
<path fill="#ffffff" opacity="1.00" d=" M 389.85 24.83 C 401.28 23.01 412.94 26.22 423.11 31.36 C 420.69 37.71 417.22 43.59 414.26 49.69 C 409.97 46.14 404.71 43.32 398.96 43.75 C 394.82 43.64 390.40 46.64 390.31 51.05 C 390.14 55.21 394.42 57.30 397.76 58.48 C 405.72 61.21 414.80 62.70 420.69 69.29 C 425.97 74.30 427.29 82.06 426.55 89.02 C 425.97 97.04 423.30 105.53 416.36 110.28 C 400.62 121.65 378.09 118.34 363.14 107.18 C 366.57 101.20 368.99 94.63 372.93 88.97 C 379.67 94.22 388.03 99.33 396.94 96.94 C 401.96 95.79 404.81 89.44 401.90 85.08 C 398.39 80.70 392.43 80.00 387.44 78.30 C 380.84 76.15 373.39 73.73 369.67 67.37 C 365.82 60.55 366.18 52.17 367.83 44.76 C 370.35 34.50 379.43 26.37 389.85 24.83 Z" />
<path fill="#ffffff" opacity="1.00" d=" M 555.23 24.22 C 567.10 22.32 579.77 23.61 590.43 29.42 C 602.23 35.49 611.11 46.99 613.77 60.01 C 617.17 74.91 613.19 91.45 602.80 102.77 C 584.67 122.58 550.34 123.53 530.88 105.17 C 513.22 89.77 511.57 60.78 525.48 42.43 C 532.47 32.73 543.53 26.30 555.23 24.22 M 560.43 44.62 C 548.01 46.92 538.28 59.33 539.86 72.01 C 540.67 86.17 555.02 97.61 569.01 95.27 C 582.88 93.93 593.58 79.72 591.15 66.00 C 589.41 51.84 574.29 41.44 560.43 44.62 Z" />
<path fill="#ffffff" opacity="1.00" d=" M 439.91 26.41 C 449.59 26.51 459.28 26.44 468.97 26.46 C 475.51 26.46 482.30 26.02 488.55 28.36 C 496.92 31.60 503.04 39.56 504.57 48.34 C 506.00 57.17 505.40 66.82 500.57 74.57 C 497.75 79.15 493.11 82.42 488.00 83.98 C 479.77 86.62 471.03 85.56 462.55 85.70 C 462.49 95.42 462.48 105.14 462.56 114.86 C 454.98 115.10 447.39 114.97 439.80 114.98 C 439.79 85.46 439.58 55.93 439.91 26.41 M 462.45 45.46 C 462.57 52.60 462.48 59.75 462.53 66.90 C 466.31 66.94 470.12 67.18 473.88 66.57 C 476.97 66.04 480.12 64.09 481.00 60.91 C 482.35 56.51 481.96 50.94 478.38 47.68 C 473.85 44.16 467.76 45.31 462.45 45.46 Z" />
<path fill="#ffffff" opacity="1.00" d=" M 634.54 26.54 C 644.35 26.39 654.16 26.48 663.98 26.46 C 672.17 26.47 681.07 27.83 687.42 33.45 C 695.13 40.60 695.63 52.24 693.91 61.94 C 692.29 71.01 684.75 77.90 676.18 80.56 C 683.10 92.20 690.75 103.40 697.73 115.01 C 688.94 114.67 679.98 115.63 671.29 114.54 C 664.08 103.50 657.87 91.81 650.63 80.77 C 649.03 92.09 647.74 103.46 646.48 114.83 C 638.93 115.13 631.38 114.96 623.83 114.99 C 627.27 85.49 631.04 56.03 634.54 26.54 M 652.23 65.57 C 657.81 65.59 664.05 65.44 668.48 61.55 C 672.19 58.46 673.01 52.13 669.43 48.65 C 665.57 45.26 660.08 45.87 655.33 45.53 C 653.54 52.07 653.34 58.91 652.23 65.57 Z" />
<path fill="#ffffff" opacity="1.00" d=" M 705.67 26.65 C 726.01 26.23 746.36 26.52 766.71 26.52 C 766.75 33.00 766.76 39.47 766.72 45.95 C 760.29 46.06 753.85 45.90 747.43 46.12 C 747.59 69.06 747.38 91.99 747.54 114.93 C 739.85 115.03 732.15 115.03 724.47 114.93 C 724.61 91.99 724.41 69.06 724.57 46.12 C 718.29 45.89 712.01 46.06 705.73 45.97 C 705.72 39.53 705.78 33.09 705.67 26.65 Z" />
<path fill="#ffffff" opacity="1.00" d=" M 25.78 27.52 C 25.94 27.32 26.28 26.92 26.44 26.73 C 33.88 26.57 41.33 26.84 48.77 26.63 C 49.25 43.10 48.58 59.56 49.07 76.03 C 48.65 89.14 49.41 102.26 48.76 115.37 C 41.22 115.31 33.67 115.24 26.13 115.38 C 25.82 113.27 25.64 111.15 25.66 109.02 C 25.80 81.85 25.57 54.68 25.78 27.52 Z" />
<path fill="#ffffff" opacity="1.00" d=" M 68.79 62.04 C 70.38 50.25 71.48 38.38 73.35 26.63 C 81.36 26.74 89.37 26.74 97.37 26.64 C 103.84 36.93 109.85 47.49 116.03 57.95 C 121.57 67.11 126.91 76.42 131.37 86.17 C 131.56 80.33 132.08 74.52 132.81 68.73 C 134.68 54.70 136.15 40.63 138.14 26.62 C 145.58 26.79 153.02 26.66 160.47 26.70 C 157.01 56.26 153.44 85.82 149.57 115.32 C 141.35 115.28 133.14 115.35 124.92 115.31 C 113.49 95.27 100.46 76.10 90.87 55.06 C 91.08 71.37 88.08 87.44 86.37 103.60 C 85.92 107.55 85.54 111.51 84.68 115.39 C 77.25 115.21 69.81 115.38 62.38 115.31 C 64.31 97.53 66.72 79.81 68.79 62.04 Z" />
<path fill="#ffffff" opacity="1.00" d=" M 173.67 32.01 C 173.66 30.19 173.89 28.39 174.17 26.59 C 190.97 26.82 207.78 26.67 224.58 26.67 C 224.74 33.23 224.72 39.79 224.62 46.36 C 215.39 46.24 206.15 46.31 196.92 46.34 C 196.82 51.13 196.76 55.94 197.20 60.72 C 205.41 60.57 213.63 60.79 221.85 60.61 C 222.79 67.17 222.08 73.83 222.32 80.44 C 213.93 80.50 205.55 80.54 197.17 80.41 C 196.45 92.05 197.18 103.73 196.75 115.38 C 189.08 115.24 181.42 115.36 173.75 115.32 C 173.64 87.55 173.79 59.78 173.67 32.01 Z" />
</g>
</svg>
