<?xml version="1.0" encoding="UTF-8" ?>
<!DOCTYPE svg PUBLIC "-//W3C//DTD SVG 1.1//EN" "http://www.w3.org/Graphics/SVG/1.1/DTD/svg11.dtd">
<svg width="400pt" height="300pt" viewBox="0 0 400 300" version="1.1" xmlns="http://www.w3.org/2000/svg">
<g id="#ce0e41ff">
<path fill="#ce0e41" opacity="1.00" d=" M 0.00 0.00 L 400.00 0.00 L 400.00 300.00 L 0.00 300.00 L 0.00 0.00 M 53.65 120.87 C 53.64 132.59 53.65 144.30 53.65 156.02 C 53.60 159.45 53.49 163.33 51.05 166.02 C 48.37 168.68 43.92 168.69 40.63 167.24 C 37.36 165.64 37.12 161.61 36.73 158.46 C 31.03 158.48 25.34 158.45 19.64 158.48 C 19.67 163.58 20.57 169.02 24.09 172.95 C 29.03 178.59 36.92 180.20 44.09 180.33 C 51.00 180.39 58.55 179.66 64.09 175.11 C 69.06 170.98 70.62 164.23 70.72 158.05 C 70.82 145.66 70.74 133.26 70.76 120.87 C 65.06 120.87 59.35 120.86 53.65 120.87 M 87.12 120.94 C 87.11 140.67 87.11 160.40 87.12 180.13 C 92.65 180.14 98.18 180.13 103.70 180.13 C 103.71 160.40 103.71 140.67 103.70 120.94 C 98.17 120.93 92.65 120.93 87.12 120.94 M 120.30 120.85 C 120.29 140.59 120.29 160.32 120.30 180.06 C 125.84 180.07 131.39 180.07 136.94 180.06 C 136.95 168.38 136.94 156.70 136.94 145.02 C 136.98 141.37 137.30 137.00 140.49 134.61 C 143.46 132.69 147.55 132.76 150.65 134.36 C 153.87 136.36 154.14 140.59 154.24 144.00 C 154.25 156.02 154.23 168.04 154.24 180.06 C 159.76 180.07 165.29 180.07 170.82 180.06 C 170.84 168.37 170.79 156.68 170.84 144.99 C 170.88 141.30 171.41 136.94 174.70 134.65 C 178.09 132.51 183.42 132.52 185.97 135.97 C 188.00 138.86 188.20 142.55 188.25 145.97 C 188.23 157.33 188.24 168.70 188.24 180.06 C 193.78 180.07 199.32 180.07 204.86 180.06 C 204.79 169.70 204.84 159.35 204.76 148.99 C 204.70 143.17 205.35 136.96 202.49 131.63 C 199.91 126.45 194.57 123.20 189.08 121.91 C 180.16 119.81 170.37 120.68 162.38 125.35 C 157.71 122.58 152.33 121.22 146.94 120.90 C 138.07 120.45 129.18 120.68 120.30 120.85 M 220.24 120.85 C 220.23 140.59 220.23 160.33 220.24 180.06 C 225.79 180.07 231.33 180.07 236.88 180.06 C 236.89 168.37 236.88 156.67 236.88 144.98 C 236.93 141.48 237.21 137.43 240.01 134.94 C 242.76 132.76 246.75 132.79 249.91 134.01 C 253.36 135.51 254.04 139.70 254.14 143.04 C 254.24 155.38 254.14 167.72 254.18 180.06 C 259.71 180.07 265.23 180.07 270.76 180.06 C 270.78 168.38 270.74 156.69 270.78 145.01 C 270.82 141.31 271.34 136.94 274.63 134.65 C 278.04 132.49 283.40 132.52 285.94 136.02 C 287.95 138.92 288.13 142.60 288.19 146.01 C 288.17 157.36 288.18 168.71 288.18 180.06 C 293.71 180.07 299.23 180.07 304.76 180.06 C 304.81 167.69 304.68 155.32 304.71 142.95 C 304.76 138.61 304.09 134.10 301.72 130.38 C 298.79 125.63 293.52 122.84 288.18 121.71 C 279.53 119.91 270.09 120.76 262.40 125.35 C 257.70 122.66 252.36 121.22 246.96 120.91 C 238.06 120.45 229.15 120.67 220.24 120.85 M 309.31 120.87 C 317.94 133.16 326.51 145.49 335.20 157.75 C 335.81 158.72 336.71 159.68 336.58 160.93 C 336.63 167.30 336.56 173.68 336.59 180.06 C 342.12 180.07 347.65 180.07 353.17 180.06 C 353.21 173.70 353.14 167.33 353.19 160.97 C 353.04 159.64 353.96 158.61 354.63 157.58 C 363.16 145.38 371.58 133.11 380.06 120.87 C 373.92 120.85 367.79 120.91 361.65 120.83 C 356.31 129.62 351.17 138.51 345.89 147.33 C 340.47 138.53 335.11 129.69 329.71 120.88 C 322.91 120.86 316.11 120.87 309.31 120.87 Z" />
</g>
<g id="#ffffffff">
<path fill="#ffffff" opacity="1.00" d=" M 53.65 120.87 C 59.35 120.86 65.06 120.87 70.76 120.87 C 70.74 133.26 70.82 145.66 70.72 158.05 C 70.62 164.23 69.06 170.98 64.09 175.11 C 58.55 179.66 51.00 180.39 44.09 180.33 C 36.92 180.20 29.03 178.59 24.09 172.95 C 20.57 169.02 19.67 163.58 19.64 158.48 C 25.34 158.45 31.03 158.48 36.73 158.46 C 37.12 161.61 37.36 165.64 40.63 167.24 C 43.92 168.69 48.37 168.68 51.05 166.02 C 53.49 163.33 53.60 159.45 53.65 156.02 C 53.65 144.30 53.64 132.59 53.65 120.87 Z" />
<path fill="#ffffff" opacity="1.00" d=" M 87.12 120.94 C 92.65 120.93 98.17 120.93 103.70 120.94 C 103.71 140.67 103.71 160.40 103.70 180.13 C 98.18 180.13 92.65 180.14 87.12 180.13 C 87.11 160.40 87.11 140.67 87.12 120.94 Z" />
<path fill="#ffffff" opacity="1.00" d=" M 120.30 120.85 C 129.18 120.68 138.07 120.45 146.94 120.90 C 152.33 121.22 157.71 122.58 162.38 125.35 C 170.37 120.68 180.16 119.81 189.08 121.91 C 194.57 123.20 199.91 126.45 202.49 131.63 C 205.35 136.96 204.70 143.17 204.76 148.99 C 204.84 159.35 204.79 169.70 204.86 180.06 C 199.32 180.07 193.78 180.07 188.24 180.06 C 188.24 168.70 188.23 157.33 188.25 145.97 C 188.20 142.55 188.00 138.86 185.97 135.97 C 183.42 132.52 178.09 132.51 174.70 134.65 C 171.41 136.94 170.88 141.30 170.84 144.99 C 170.79 156.68 170.84 168.37 170.82 180.06 C 165.29 180.07 159.76 180.07 154.24 180.06 C 154.23 168.04 154.25 156.02 154.24 144.00 C 154.14 140.59 153.87 136.36 150.65 134.36 C 147.55 132.76 143.46 132.69 140.49 134.61 C 137.30 137.00 136.98 141.37 136.94 145.02 C 136.94 156.70 136.95 168.38 136.94 180.06 C 131.39 180.07 125.84 180.07 120.30 180.06 C 120.29 160.32 120.29 140.59 120.30 120.85 Z" />
<path fill="#ffffff" opacity="1.00" d=" M 220.24 120.85 C 229.15 120.67 238.06 120.45 246.96 120.91 C 252.36 121.22 257.70 122.66 262.40 125.35 C 270.09 120.76 279.53 119.91 288.18 121.71 C 293.52 122.84 298.79 125.63 301.72 130.38 C 304.09 134.10 304.76 138.61 304.71 142.95 C 304.68 155.32 304.81 167.69 304.76 180.06 C 299.23 180.07 293.71 180.07 288.18 180.06 C 288.18 168.71 288.17 157.36 288.19 146.01 C 288.13 142.60 287.95 138.92 285.94 136.02 C 283.40 132.52 278.04 132.49 274.63 134.65 C 271.34 136.94 270.82 141.31 270.78 145.01 C 270.74 156.69 270.78 168.38 270.76 180.06 C 265.23 180.07 259.71 180.07 254.18 180.06 C 254.14 167.72 254.24 155.38 254.14 143.04 C 254.04 139.70 253.36 135.51 249.91 134.01 C 246.75 132.79 242.76 132.76 240.01 134.94 C 237.21 137.43 236.93 141.48 236.88 144.98 C 236.88 156.67 236.89 168.37 236.88 180.06 C 231.33 180.07 225.79 180.07 220.24 180.06 C 220.23 160.33 220.23 140.59 220.24 120.85 Z" />
<path fill="#ffffff" opacity="1.00" d=" M 309.31 120.87 C 316.11 120.87 322.91 120.86 329.71 120.88 C 335.11 129.69 340.47 138.53 345.89 147.33 C 351.17 138.51 356.31 129.62 361.65 120.83 C 367.79 120.91 373.92 120.85 380.06 120.87 C 371.58 133.11 363.16 145.38 354.63 157.58 C 353.96 158.61 353.04 159.64 353.19 160.97 C 353.14 167.33 353.21 173.70 353.17 180.06 C 347.65 180.07 342.12 180.07 336.59 180.06 C 336.56 173.68 336.63 167.30 336.58 160.93 C 336.71 159.68 335.81 158.72 335.20 157.75 C 326.51 145.49 317.94 133.16 309.31 120.87 Z" />
</g>
</svg>
