<?xml version="1.0" encoding="UTF-8" standalone="no"?>
<!-- Created with Inkscape (http://www.inkscape.org/) -->
<svg
   xmlns:dc="http://purl.org/dc/elements/1.1/"
   xmlns:cc="http://creativecommons.org/ns#"
   xmlns:rdf="http://www.w3.org/1999/02/22-rdf-syntax-ns#"
   xmlns:svg="http://www.w3.org/2000/svg"
   xmlns="http://www.w3.org/2000/svg"
   xmlns:xlink="http://www.w3.org/1999/xlink"
   xmlns:sodipodi="http://sodipodi.sourceforge.net/DTD/sodipodi-0.dtd"
   xmlns:inkscape="http://www.inkscape.org/namespaces/inkscape"
   version="1.0"
   width="1710.8281"
   height="478.80249"
   id="svg2"
   sodipodi:version="0.32"
   inkscape:version="0.46"
   sodipodi:docname="Logo W9HD 2011.svg"
   inkscape:output_extension="org.inkscape.output.svg.inkscape">
  <metadata
     id="metadata2473">
    <rdf:RDF>
      <cc:Work
         rdf:about="">
        <dc:format>image/svg+xml</dc:format>
        <dc:type
           rdf:resource="http://purl.org/dc/dcmitype/StillImage" />
        <cc:license
           rdf:resource="" />
      </cc:Work>
    </rdf:RDF>
  </metadata>
  <sodipodi:namedview
     inkscape:window-height="1122"
     inkscape:window-width="944"
     inkscape:pageshadow="2"
     inkscape:pageopacity="0.0"
     guidetolerance="10.0"
     gridtolerance="10.0"
     objecttolerance="10.0"
     borderopacity="1.0"
     bordercolor="#666666"
     pagecolor="#ffffff"
     id="base"
     showgrid="false"
     showguides="true"
     inkscape:guide-bbox="true"
     inkscape:zoom="0.20915194"
     inkscape:cx="658.03405"
     inkscape:cy="-266.62463"
     inkscape:window-x="0"
     inkscape:window-y="0"
     inkscape:current-layer="layer1">
    <sodipodi:guide
       orientation="-0.70710678,0.70710678"
       position="-311.0362,899.30031"
       id="guide3194" />
  </sodipodi:namedview>
  <defs
     id="defs4">
    <linearGradient
       id="linearGradient3249">
      <stop
         style="stop-color:#979797;stop-opacity:1;"
         offset="0"
         id="stop3251" />
      <stop
         style="stop-color:#0b0b0b;stop-opacity:1;"
         offset="1"
         id="stop3253" />
    </linearGradient>
    <linearGradient
       id="linearGradient3372">
      <stop
         id="stop3374"
         style="stop-color:#a6a6a6;stop-opacity:1;"
         offset="0" />
      <stop
         id="stop3376"
         style="stop-color:#e9e9e9;stop-opacity:1;"
         offset="1" />
    </linearGradient>
    <linearGradient
       x1="3754.3923"
       y1="920.25781"
       x2="1555.7098"
       y2="-195.99565"
       id="linearGradient3752"
       xlink:href="#linearGradient3249"
       gradientUnits="userSpaceOnUse"
       gradientTransform="translate(-5.6568539,-2347.5945)" />
    <linearGradient
       x1="2645.8167"
       y1="273.01303"
       x2="228.12325"
       y2="386.36487"
       id="linearGradient3754"
       xlink:href="#linearGradient3372"
       gradientUnits="userSpaceOnUse"
       gradientTransform="translate(-5.6568543,-2347.5945)" />
    <radialGradient
       cx="1428.6265"
       cy="-2174.5312"
       r="1161.2346"
       fx="1428.6265"
       fy="-2174.5312"
       id="radialGradient3756"
       xlink:href="#linearGradient3372"
       gradientUnits="userSpaceOnUse"
       gradientTransform="matrix(0.9547894,0.1501695,-0.169737,1.0792013,-287.92989,-44.90158)" />
    <radialGradient
       inkscape:collect="always"
       xlink:href="#linearGradient3249"
       id="radialGradient3257"
       cx="2122.042"
       cy="-2230.562"
       fx="2122.042"
       fy="-2230.562"
       r="408.67493"
       gradientTransform="matrix(1.2297919,0,0,1.0603803,-492.94377,125.12473)"
       gradientUnits="userSpaceOnUse" />
    <radialGradient
       inkscape:collect="always"
       xlink:href="#linearGradient3372"
       id="radialGradient3354"
       gradientUnits="userSpaceOnUse"
       gradientTransform="matrix(0.4011768,6.3097184e-2,-7.1318921e-2,0.4534514,8.0116055,-1552.1314)"
       cx="1428.6265"
       cy="-2174.5312"
       fx="1428.6265"
       fy="-2174.5312"
       r="1161.2346" />
    <linearGradient
       inkscape:collect="always"
       xlink:href="#linearGradient3372"
       id="linearGradient3357"
       gradientUnits="userSpaceOnUse"
       gradientTransform="matrix(0.4201731,0,0,0.4201731,126.61514,-2519.6611)"
       x1="-1372.1471"
       y1="842.78125"
       x2="3898.6938"
       y2="-420.78085" />
    <radialGradient
       inkscape:collect="always"
       xlink:href="#linearGradient3249"
       id="radialGradient3360"
       gradientUnits="userSpaceOnUse"
       gradientTransform="matrix(0.5167255,0,0,0.4455433,-78.129712,-1480.691)"
       cx="2122.042"
       cy="-2230.562"
       fx="2122.042"
       fy="-2230.562"
       r="408.67493" />
    <linearGradient
       inkscape:collect="always"
       xlink:href="#linearGradient3249"
       id="linearGradient3362"
       gradientUnits="userSpaceOnUse"
       gradientTransform="matrix(0.4201731,0,0,0.4201731,126.61514,-2519.6611)"
       x1="3754.3923"
       y1="920.25781"
       x2="1555.7098"
       y2="-195.99565" />
    <linearGradient
       inkscape:collect="always"
       xlink:href="#linearGradient3372"
       id="linearGradient3399"
       gradientUnits="userSpaceOnUse"
       x1="2341.7253"
       y1="249.75"
       x2="942.0625"
       y2="249.75" />
  </defs>
  <g
     transform="translate(-222.46639,2644.3496)"
     id="layer1">
    <path
       style="fill:#525252;fill-opacity:1;fill-rule:evenodd;stroke:none;stroke-width:5;stroke-linecap:round;stroke-linejoin:round;stroke-miterlimit:4;stroke-dashoffset:0;stroke-opacity:1"
       d="M 1302.641,-2544.2 L 1853.716,-2544.2 L 1853.716,-2241.6158 L 1302.641,-2241.6158 L 1302.641,-2544.2 z"
       id="rect2414" />
    <path
       id="path3387"
       d="M 1187.7945,-2593.373 C 1204.3615,-2580.0933 1219.639,-2564.0442 1231.1695,-2547.6543 C 1254.1291,-2515.0179 1268.0239,-2474.7792 1272.8258,-2426.998 C 1273.995,-2415.3623 1274.4565,-2389.1207 1273.6695,-2379.123 C 1269.9685,-2332.1077 1256.41,-2285.9122 1235.6382,-2249.5605 C 1217.9118,-2218.5381 1194.8631,-2193.5966 1166.9195,-2174.998 L 1724.107,-2174.998 C 1839.5733,-2174.998 1933.2945,-2268.7192 1933.2945,-2384.1855 C 1933.2945,-2499.6518 1839.5733,-2593.373 1724.107,-2593.373 L 1187.7945,-2593.373 z M 1328.3258,-2518.998 L 1404.8258,-2518.998 L 1404.8258,-2422.998 L 1488.5132,-2422.998 L 1488.5132,-2518.998 L 1565.857,-2518.998 L 1565.857,-2244.0918 L 1488.5132,-2244.0918 L 1488.5132,-2356.0918 L 1404.8258,-2356.0918 L 1404.8258,-2244.0918 L 1328.3258,-2244.0918 L 1328.3258,-2518.998 z M 1598.482,-2518.998 L 1723.3882,-2518.998 C 1821.4433,-2518.998 1849.2817,-2440.2104 1849.607,-2381.5605 C 1849.9324,-2322.9106 1816.2738,-2244.0918 1723.3882,-2244.0918 L 1598.482,-2244.0918 L 1598.482,-2518.998 z M 1670.2008,-2456.8418 L 1670.2008,-2314.5918 L 1708.4508,-2314.5918 C 1767.1175,-2314.5918 1774.9373,-2356.0802 1775.3882,-2385.7168 C 1775.8394,-2415.3533 1760.231,-2456.8418 1708.4508,-2456.8418 L 1670.2008,-2456.8418 z"
       style="fill:#434343;fill-opacity:1;fill-rule:evenodd;stroke:none;stroke-width:5;stroke-linecap:round;stroke-linejoin:round;stroke-miterlimit:4;stroke-dashoffset:0;stroke-opacity:1" />
    <g
       transform="matrix(0.4201731,0,0,0.4201731,128.992,-1533.265)"
       id="g3741">
      <path
         d="M 2016.8293,-2487.7779 C 1997.2794,-2487.7764 1978.1935,-2486.9119 1959.6119,-2485.1922 C 1898.1705,-2479.5061 1842.2442,-2464.4713 1793.2966,-2440.3795 C 1697.2085,-2393.0854 1639.8368,-2316.7508 1628.1025,-2220.5833 C 1625.8306,-2201.9649 1625.8037,-2176.3742 1627.6976,-2154.333 C 1628.453,-2145.5413 1629.5139,-2137.3144 1630.8599,-2130.3199 C 1648.2415,-2039.9944 1713.8574,-1972.8188 1813.8065,-1943.0397 C 1874.2661,-1925.0263 1953.3856,-1920.8227 2015.714,-1932.2844 C 2057.6575,-1939.9975 2101.3253,-1957.4741 2134.7454,-1979.9017 C 2143.9509,-1986.0793 2149.5063,-1989.1425 2150.2053,-1988.4372 C 2150.9041,-1987.7318 2149.7342,-1981.3139 2146.9522,-1970.5846 C 2129.9263,-1904.9211 2102.2659,-1863.4152 2061.5048,-1842.3024 C 2055.914,-1839.4066 2047.7818,-1835.7481 2043.4115,-1834.1734 C 2005.8492,-1820.639 1949.5544,-1822.2246 1918.9273,-1837.6751 C 1903.1255,-1845.6467 1889.0388,-1859.2383 1882.8956,-1872.4423 L 1879.3327,-1880.1336 L 1757.3888,-1880.1649 C 1659.2943,-1880.1831 1635.4451,-1879.8981 1635.4451,-1878.7267 C 1635.4452,-1877.9257 1636.9334,-1871.1165 1638.7602,-1863.5942 C 1648.3442,-1824.1348 1664.8623,-1791.4664 1690.2206,-1761.8251 C 1741.472,-1701.9179 1826.4137,-1666.1 1937.6092,-1657.5235 C 1957.6716,-1655.9761 2029.3336,-1656.993 2047.3771,-1659.0868 C 2148.1012,-1670.7748 2225.8908,-1705.1276 2286.6176,-1764.7641 C 2333.9498,-1811.2465 2367.3699,-1869.7765 2387.4628,-1941.2889 C 2409.356,-2019.2084 2414.1161,-2114.5515 2399.8865,-2190.8498 C 2385.163,-2269.7959 2351.1756,-2336.3466 2300.1873,-2386.1652 C 2283.8845,-2402.0941 2273.3121,-2410.6376 2252.6926,-2424.5279 C 2222.4023,-2444.9328 2188.2082,-2460.4261 2150.2521,-2470.9707 C 2109.9604,-2482.1643 2065.4295,-2487.7815 2016.8293,-2487.7779 z M 2007.7517,-2294.3112 C 2019.611,-2294.3077 2031.4437,-2293.5871 2038.0826,-2292.1226 C 2065.7783,-2286.0136 2087.4409,-2274.7695 2105.4987,-2257.1678 C 2125.3528,-2237.8155 2136.1934,-2222.2093 2137.5957,-2195.3208 C 2139.3586,-2161.5205 2124.7743,-2139.3946 2096.1423,-2117.7159 C 2070.3706,-2098.2026 2027.2221,-2086.9286 1991.3623,-2090.3274 C 1954.5034,-2093.8209 1920.6678,-2109.7829 1898.3244,-2134.2554 C 1866.3807,-2169.2428 1863.3883,-2200.6193 1890.641,-2239.3778 C 1896.5696,-2247.8091 1911.0991,-2261.9783 1920.3215,-2268.2983 C 1935.683,-2278.8257 1957.1094,-2287.7851 1977.2347,-2292.1226 C 1984.0109,-2293.583 1995.8923,-2294.3147 2007.7517,-2294.3112 z"
         id="rect3188"
         style="opacity:1;fill:url(#radialGradient3257);fill-opacity:1;fill-rule:nonzero;stroke:url(#linearGradient3752);stroke-width:35.69957352;stroke-linecap:round;stroke-linejoin:round;stroke-miterlimit:4;stroke-dasharray:none;stroke-opacity:1" />
      <path
         d="M 407.59315,-2643.8445 C 294.76261,-2643.8445 222.05474,-2644.981 222.46815,-2643.8445 C 222.75354,-2643.0594 289.73083,-2381.2027 371.28065,-2075.907 L 519.53065,-1504.8133 L 873.28065,-1504.8133 L 899.03065,-1538.8133 C 919.00952,-1656.3584 936.09776,-1739.7117 957.53065,-1857.0008 L 1009.4993,-2139.7195 L 1049.6556,-1856.6883 C 1075.731,-1672.9028 1111.3507,-1505.912 1111.6556,-1504.8133 L 1449.0306,-1504.8133 C 1453.4531,-1522.3028 1456.6504,-1540.0391 1461.9369,-1557.3445 C 1491.0164,-1638.0924 1514.3779,-1724.6506 1529.5931,-1783.9383 C 1532.0099,-1793.3561 1514.466,-1801.0793 1515.0619,-1801.0945 C 1515.6577,-1801.1097 1520.6635,-1793.9564 1526.1869,-1785.1883 C 1600.7327,-1666.8515 1694.153,-1575.6877 1813.2493,-1535.907 C 1928.7932,-1499.7524 2039.7991,-1502.9167 2158.0306,-1524.0008 C 2302.52,-1553.0218 2411.1455,-1641.5889 2481.9681,-1765.532 C 2526.2849,-1843.0889 2555.1971,-1941.6306 2563.0931,-2041.9383 C 2564.7722,-2063.2684 2563.8066,-2119.3011 2561.3119,-2144.1258 C 2551.0671,-2246.0677 2521.4213,-2331.9023 2472.4369,-2401.532 C 2442.1386,-2444.5997 2398.9727,-2487.5898 2354.9369,-2519.7508 C 2276.7428,-2576.8589 2142.4589,-2627.2284 2021.3119,-2638.032 C 1963.8868,-2643.153 1874.1813,-2643.282 1753.2181,-2643.282 L 1454.4681,-2643.282 L 1364.4993,-2303.3758 C 1315.0202,-2121.925 1281.1475,-2011.3771 1279.4369,-2005.1343 C 1277.0971,-1996.5963 1276.0899,-1994.3408 1275.4056,-1996.0093 C 1274.9052,-1997.2293 1251.9089,-2106.7204 1214.4993,-2291.9383 C 1177.09,-2477.1564 1146.1915,-2641.8692 1145.8431,-2643.282 L 834.21815,-2643.282 C 833.89691,-2642.1832 801.50487,-2476.51 762.21815,-2289.0945 C 722.93132,-2101.679 690.37442,-1947.3594 689.8744,-1946.157 C 688.75826,-1943.4734 746.00304,-1906.6998 637.78065,-2294.2195 C 601.31945,-2427.4064 578.2718,-2523.0086 564.46815,-2575.9383 L 515.2494,-2643.8445 L 515.21815,-2643.8445 L 407.59315,-2643.8445 z M 2015.3119,-2488.8445 C 2110.5125,-2488.8514 2190.2328,-2467.6704 2253.2181,-2425.6258 C 2274.0163,-2411.7424 2284.6804,-2403.2031 2301.1243,-2387.282 C 2352.5543,-2337.4881 2386.8359,-2270.9704 2401.6869,-2192.0633 C 2416.0397,-2115.8027 2411.2385,-2020.5068 2389.1556,-1942.6258 C 2368.8887,-1871.1488 2335.1791,-1812.6477 2287.4369,-1766.1883 C 2226.1843,-1706.5813 2147.7207,-1672.2455 2046.1243,-1660.5633 C 2027.9244,-1658.4705 1955.6417,-1657.4541 1935.4056,-1659.0008 C 1823.2469,-1667.573 1737.5696,-1703.3732 1685.8743,-1763.2508 C 1660.2963,-1792.8774 1643.6351,-1825.5297 1633.9681,-1864.9695 C 1632.1255,-1872.4881 1630.6244,-1879.294 1630.6243,-1880.0945 C 1630.6243,-1881.2654 1654.6801,-1881.5502 1753.6243,-1881.532 L 1880.6243,-1881.5008 L 1884.2181,-1873.8133 C 1890.4146,-1860.6158 1900.623,-1847.0309 1916.5619,-1839.0633 C 1947.4543,-1823.6204 2004.2367,-1822.0356 2042.1243,-1835.5633 C 2046.5326,-1837.1372 2054.7352,-1840.7939 2060.3743,-1843.6883 C 2101.4885,-1864.7906 2129.3884,-1906.276 2146.5619,-1971.907 C 2149.3679,-1982.631 2150.548,-1989.0458 2149.8431,-1989.7508 C 2149.1381,-1990.4558 2143.5345,-1987.394 2134.2493,-1981.2195 C 2100.5397,-1958.803 2056.4936,-1941.3351 2014.1869,-1933.6258 C 1951.3187,-1922.1697 1871.5139,-1926.3713 1810.5306,-1944.3758 C 1709.7158,-1974.1401 1643.5315,-2041.2825 1625.9993,-2131.5633 C 1621.2381,-2156.0813 1620.0125,-2195.7501 1623.2181,-2221.782 C 1635.054,-2317.902 1692.9227,-2394.1988 1789.8431,-2441.4695 C 1854.146,-2472.8318 1930.3895,-2488.8382 2015.3119,-2488.8445 z"
         id="path2457"
         style="fill:url(#linearGradient3754);fill-opacity:1" />
      <path
         d="M 1951.4114,-1520.9227 C 1910.9896,-1524.0168 1869.1833,-1532.5667 1829.2425,-1545.9079 C 1710.1462,-1585.6886 1610.7468,-1666.8526 1536.201,-1785.1893 C 1530.6777,-1793.9574 1525.671,-1801.1189 1525.0752,-1801.1038 C 1524.4793,-1801.0886 1522.0142,-1793.3707 1519.5974,-1783.9528 C 1504.3822,-1724.6651 1477.0009,-1638.1012 1447.9214,-1557.3533 C 1442.1556,-1541.3429 1436.8945,-1526.574 1436.2298,-1524.5335 L 1435.0213,-1520.8234 L 1272.6176,-1520.8234 C 1118.9197,-1520.8234 1110.1843,-1520.9305 1109.6594,-1522.8211 C 1109.3545,-1523.9199 1081.4565,-1674.1568 1047.6638,-1856.681 C 1013.8711,-2039.2052 985.89743,-2188.1788 985.49981,-2187.7332 C 985.10239,-2187.2877 957.21858,-2038.4635 923.53625,-1857.0126 C 889.85379,-1675.5618 862.00813,-1525.6893 861.65708,-1523.9627 L 861.0187,-1520.8234 L 695.27912,-1520.8234 L 529.53965,-1520.8234 L 381.26697,-2075.9066 C 299.71716,-2381.2023 232.76101,-2633.0585 232.47562,-2633.8436 C 232.06222,-2634.9801 260.76975,-2633.8436 373.60029,-2633.8436 L 515.24386,-2633.8436 L 516.93195,-2627.8504 C 517.86045,-2624.5542 556.94134,-2474.4249 603.77848,-2294.2297 C 706.05091,-1900.7601 694.75195,-1943.4677 695.86809,-1946.1513 C 696.36813,-1947.3536 732.92088,-2101.6773 772.20771,-2289.0928 C 811.49443,-2476.5083 839.90077,-2632.7448 840.22201,-2633.8436 L 1137.21,-2633.8436 C 1160.6004,-2519.9444 1183.4667,-2405.9236 1206.4934,-2291.9466 C 1243.9029,-2106.7287 1274.9198,-1954.1886 1275.4202,-1952.9686 C 1276.1045,-1951.3001 1277.1006,-1953.563 1279.4404,-1962.1011 C 1281.151,-1968.3439 1323.0336,-2121.9115 1372.5127,-2303.3622 L 1462.4748,-2633.273 L 1719.2039,-2633.273 C 1989.663,-2633.273 1985.2514,-2633.347 2031.2985,-2628.0267 C 2151.1546,-2614.1785 2262.9598,-2574.8736 2344.9435,-2517.7655 C 2389.6877,-2486.5976 2432.1378,-2444.604 2462.436,-2401.5363 C 2511.4206,-2331.9066 2541.0573,-2246.0567 2551.3021,-2144.1148 C 2553.7968,-2119.2902 2554.7868,-2063.2754 2553.1077,-2041.9452 C 2545.2117,-1941.6376 2516.2866,-1843.1039 2471.9698,-1765.547 C 2401.1472,-1641.6039 2290.5146,-1563.0071 2146.0252,-1533.9861 C 2107.5248,-1526.2532 2073.395,-1522.7118 2019.3122,-1520.8381 C 1982.431,-1519.5603 1968.9903,-1519.577 1951.4114,-1520.9227 z M 2046.1387,-1660.5751 C 2147.7351,-1672.2573 2226.1752,-1706.5954 2287.4278,-1766.2024 C 2335.1701,-1812.6618 2368.8994,-1871.1526 2389.1663,-1942.6296 C 2411.2492,-2020.5106 2416.0277,-2115.7995 2401.6748,-2192.0601 C 2386.8239,-2270.9672 2352.559,-2337.5008 2301.1291,-2387.2947 C 2284.685,-2403.2158 2274.0181,-2411.7525 2253.2199,-2425.6359 C 2190.2345,-2467.6805 2110.5173,-2488.8651 2015.3166,-2488.8582 C 1930.3941,-2488.8519 1854.1615,-2472.8273 1789.8586,-2441.465 C 1777.6729,-2435.5217 1766.1045,-2429.1195 1755.1672,-2422.2768 C 1679.1139,-2374.6949 1633.5795,-2305.8097 1623.2317,-2221.7748 C 1620.026,-2195.7429 1621.2469,-2156.0757 1626.0082,-2131.5576 C 1643.5403,-2041.2768 1709.7162,-1974.1516 1810.531,-1944.3873 C 1871.5143,-1926.3828 1951.3069,-1922.1639 2014.1751,-1933.6199 C 2056.4819,-1941.3292 2100.5409,-1958.79 2134.2505,-1981.2065 C 2143.5357,-1987.381 2149.1264,-1990.4419 2149.8314,-1989.7369 C 2150.5363,-1989.0318 2149.3605,-1982.636 2146.5545,-1971.912 C 2129.3811,-1906.281 2101.5012,-1864.7949 2060.3871,-1843.6926 C 2054.7479,-1840.7982 2046.5275,-1837.1424 2042.1193,-1835.5684 C 2004.2316,-1822.0408 1947.4641,-1823.6214 1916.5717,-1839.0644 C 1900.6329,-1847.032 1886.4286,-1860.614 1880.2321,-1873.8115 L 1876.6172,-1881.5109 L 1753.6142,-1881.5335 C 1654.67,-1881.5517 1630.6111,-1881.2714 1630.6111,-1880.1006 C 1630.6111,-1879.3 1632.119,-1872.4934 1633.9616,-1864.9749 C 1643.6286,-1825.535 1660.2976,-1792.8702 1685.8757,-1763.2435 C 1737.5709,-1703.3659 1823.2488,-1667.5741 1935.4075,-1659.0019 C 1955.6437,-1657.4552 2027.9388,-1658.4824 2046.1387,-1660.5751 z M 1989.6315,-2083.586 C 1952.4532,-2087.0777 1918.3304,-2103.0502 1895.7935,-2127.5106 C 1863.5731,-2162.4807 1860.5338,-2209.8282 1888.0225,-2248.5675 C 1894.0025,-2256.9947 1908.6773,-2271.1535 1917.9795,-2277.4704 C 1933.4741,-2287.9926 1955.0623,-2296.9536 1975.3619,-2301.289 C 1989.0317,-2304.2084 2023.3487,-2304.1985 2036.7417,-2301.271 C 2064.6773,-2295.165 2086.5355,-2283.9405 2104.7497,-2266.3475 C 2124.7757,-2247.0048 2135.718,-2223.417 2137.1325,-2196.5418 C 2138.9106,-2162.7583 2124.1873,-2132.6336 2095.3074,-2110.9657 C 2069.3125,-2091.4621 2025.8019,-2080.1889 1989.6315,-2083.586 z"
         id="path2453"
         style="fill:url(#radialGradient3756);fill-opacity:1;stroke:none" />
    </g>
    <path
       style="fill:url(#linearGradient3399);fill-opacity:1;fill-rule:evenodd;stroke:none;stroke-width:5;stroke-linecap:round;stroke-linejoin:round;stroke-miterlimit:4;stroke-dashoffset:0;stroke-opacity:1"
       d="M 962.9375,40.5625 C 979.50448,53.842202 994.78201,69.891318 1006.3125,86.28125 C 1029.2721,118.91755 1043.1669,159.1563 1047.9688,206.9375 C 1049.138,218.5732 1049.5995,244.8148 1048.8125,254.8125 C 1045.1115,301.82781 1031.553,348.0233 1010.7812,384.375 C 993.05476,415.39742 970.00612,440.33894 942.0625,458.9375 L 1499.25,458.9375 C 1614.7163,458.9375 1708.4375,365.2163 1708.4375,249.75 C 1708.4375,134.2837 1614.7163,40.5625 1499.25,40.5625 L 962.9375,40.5625 z M 1103.4688,114.9375 L 1179.9688,114.9375 L 1179.9688,210.9375 L 1263.6562,210.9375 L 1263.6562,114.9375 L 1341,114.9375 L 1341,389.84375 L 1263.6562,389.84375 L 1263.6562,277.84375 L 1179.9688,277.84375 L 1179.9688,389.84375 L 1103.4688,389.84375 L 1103.4688,114.9375 z M 1373.625,114.9375 L 1498.5312,114.9375 C 1596.5863,114.9375 1624.4247,193.7251 1624.75,252.375 C 1625.0754,311.0249 1591.4168,389.84374 1498.5312,389.84375 L 1373.625,389.84375 L 1373.625,114.9375 z M 1445.3438,177.09375 L 1445.3438,319.34375 L 1483.5938,319.34375 C 1542.2605,319.34375 1550.0803,277.85525 1550.5312,248.21875 C 1550.9824,218.58225 1535.374,177.09375 1483.5938,177.09375 L 1445.3438,177.09375 z"
       id="rect3276"
       transform="translate(222.4664,-2644.3496)" />
    <path
       d="M 976.40942,-2578.5624 C 968.19508,-2578.5617 960.1757,-2578.1985 952.36821,-2577.4759 C 926.55218,-2575.0868 903.05346,-2568.7695 882.48699,-2558.6468 C 842.11336,-2538.7751 818.00731,-2506.7014 813.07687,-2466.2944 C 812.12228,-2458.4714 812.11098,-2447.7189 812.90675,-2438.4578 C 813.22415,-2434.7637 813.66991,-2431.307 814.23546,-2428.3681 C 821.53874,-2390.4158 849.10878,-2362.1904 891.1047,-2349.678 C 916.5082,-2342.1093 949.75208,-2340.343 975.9408,-2345.1589 C 993.56433,-2348.3998 1011.9124,-2355.743 1025.9546,-2365.1664 C 1029.8225,-2367.7621 1032.1567,-2369.0492 1032.4504,-2368.7528 C 1032.744,-2368.4564 1032.2525,-2365.7598 1031.0836,-2361.2516 C 1023.9297,-2333.6616 1012.3076,-2316.2219 995.18086,-2307.3509 C 992.83176,-2306.1342 989.41483,-2304.597 987.57854,-2303.9353 C 971.79588,-2298.2485 948.14232,-2298.9148 935.27363,-2305.4066 C 928.63414,-2308.7561 922.71529,-2314.4669 920.13408,-2320.0149 L 918.63705,-2323.2466 L 867.3995,-2323.2597 C 826.18283,-2323.2674 816.16204,-2323.1476 816.16204,-2322.6554 C 816.16208,-2322.3189 816.78738,-2319.4578 817.55495,-2316.2972 C 821.58189,-2299.7174 828.52235,-2285.991 839.17723,-2273.5365 C 860.71169,-2248.3651 896.40191,-2233.3154 943.12326,-2229.7118 C 951.55294,-2229.0616 981.66339,-2229.4889 989.24478,-2230.3686 C 1031.5663,-2235.2796 1064.2514,-2249.7137 1089.7672,-2274.7714 C 1109.6549,-2294.3021 1123.6971,-2318.8948 1132.1396,-2348.9424 C 1141.3386,-2381.6821 1143.3386,-2421.7427 1137.3598,-2453.8012 C 1131.1733,-2486.9722 1116.8927,-2514.935 1095.4688,-2535.8674 C 1088.6188,-2542.5603 1084.1766,-2546.1501 1075.5128,-2551.9864 C 1062.7857,-2560.56 1048.4182,-2567.0699 1032.4701,-2571.5004 C 1015.5406,-2576.2037 996.82992,-2578.5639 976.40942,-2578.5624 z M 972.59526,-2497.2728 C 977.57821,-2497.2714 982.55,-2496.9686 985.33948,-2496.3533 C 996.97647,-2493.7864 1006.0785,-2489.062 1013.6659,-2481.6662 C 1022.0081,-2473.5349 1026.563,-2466.9776 1027.1522,-2455.6797 C 1027.8929,-2441.4778 1021.765,-2432.1811 1009.7346,-2423.0723 C 998.90603,-2414.8733 980.77619,-2410.1363 965.70887,-2411.5643 C 950.22175,-2413.0322 936.00494,-2419.739 926.61685,-2430.0217 C 913.19496,-2444.7225 911.93764,-2457.906 923.38849,-2474.1913 C 925.87953,-2477.7339 931.98443,-2483.6874 935.85944,-2486.3429 C 942.31393,-2490.7663 951.31672,-2494.5308 959.77283,-2496.3533 C 962.62001,-2496.9669 967.61225,-2497.2743 972.59526,-2497.2728 z"
       id="path3285"
       style="fill:url(#radialGradient3360);fill-opacity:1;fill-rule:nonzero;stroke:url(#linearGradient3362);stroke-width:15;stroke-linecap:round;stroke-linejoin:round;stroke-miterlimit:4;stroke-dasharray:none;stroke-opacity:1" />
    <path
       d="M 300.25168,-2644.1373 C 252.84332,-2644.1373 222.29343,-2644.6149 222.46713,-2644.1373 C 222.58705,-2643.8075 250.7291,-2533.7823 284.99414,-2405.5053 L 347.2848,-2165.5471 L 495.92104,-2165.5471 L 506.7405,-2179.833 C 515.13508,-2229.2222 522.3151,-2264.2451 531.32062,-2313.5268 L 553.15645,-2432.3176 L 570.02905,-2313.3955 C 580.98523,-2236.1738 595.95167,-2166.0087 596.07978,-2165.5471 L 737.83568,-2165.5471 C 739.69389,-2172.8957 741.03731,-2180.348 743.25856,-2187.6193 C 755.47698,-2221.5474 765.29286,-2257.9168 771.68587,-2282.8279 C 772.70135,-2286.785 765.32987,-2290.0301 765.58026,-2290.0365 C 765.83059,-2290.0428 767.9339,-2287.0372 770.25468,-2283.3531 C 801.57682,-2233.6312 840.82952,-2195.3266 890.87058,-2178.6118 C 939.41902,-2163.4206 986.06071,-2164.7502 1035.7384,-2173.6091 C 1096.449,-2185.803 1142.0905,-2223.0165 1171.8482,-2275.0941 C 1190.469,-2307.6814 1202.6171,-2349.0859 1205.9348,-2391.2325 C 1206.6403,-2400.1949 1206.2346,-2423.7383 1205.1864,-2434.169 C 1200.8818,-2477.0022 1188.4254,-2513.0676 1167.8435,-2542.3241 C 1155.1129,-2560.42 1136.9758,-2578.4833 1118.4731,-2591.9965 C 1085.6181,-2615.9918 1029.1956,-2637.1557 978.29289,-2641.6951 C 954.1644,-2643.8468 916.47257,-2643.901 865.64708,-2643.901 L 740.12037,-2643.901 L 702.3179,-2501.0816 C 681.52811,-2424.8408 667.29572,-2378.3916 666.57697,-2375.7685 C 665.59385,-2372.1811 665.17065,-2371.2334 664.88312,-2371.9344 C 664.67287,-2372.447 655.01044,-2418.4522 639.29194,-2496.2758 C 623.57355,-2574.0995 610.59084,-2643.3074 610.44445,-2643.901 L 479.50803,-2643.901 C 479.37305,-2643.4393 465.76279,-2573.8279 449.25556,-2495.0809 C 432.74829,-2416.334 419.06876,-2351.493 418.85867,-2350.9878 C 418.38969,-2349.8602 442.44241,-2334.409 396.97027,-2497.2343 C 381.65026,-2553.1959 371.96625,-2593.3653 366.16633,-2615.605 L 345.48594,-2644.1373 L 345.47281,-2644.1373 L 300.25168,-2644.1373 z M 975.77185,-2579.0105 C 1015.7726,-2579.0134 1049.2689,-2570.1137 1075.7336,-2552.4477 C 1084.4725,-2546.6143 1088.9532,-2543.0263 1095.8625,-2536.3367 C 1117.472,-2515.4146 1131.8762,-2487.4657 1138.1162,-2454.311 C 1144.1469,-2422.2684 1142.1296,-2382.2276 1132.8509,-2349.5041 C 1124.3353,-2319.4714 1110.1714,-2294.8908 1090.1115,-2275.3698 C 1064.3748,-2250.3246 1031.4065,-2235.8976 988.71839,-2230.989 C 981.07128,-2230.1097 950.70004,-2229.6826 942.19737,-2230.3325 C 895.0713,-2233.9343 859.07201,-2248.9766 837.35103,-2274.1356 C 826.60384,-2286.5839 819.60326,-2300.3035 815.54144,-2316.875 C 814.76723,-2320.0341 814.13651,-2322.8938 814.13647,-2323.2301 C 814.13647,-2323.7221 824.24407,-2323.8418 865.81776,-2323.8341 L 919.17974,-2323.821 L 920.68976,-2320.5909 C 923.29336,-2315.0457 927.58266,-2309.3377 934.27975,-2305.9899 C 947.25991,-2299.5012 971.11835,-2298.8353 987.0377,-2304.5193 C 988.88995,-2305.1806 992.33646,-2306.7171 994.70586,-2307.9332 C 1011.9809,-2316.7998 1023.7037,-2334.2309 1030.9196,-2361.8073 C 1032.0986,-2366.3132 1032.5944,-2369.0085 1032.2982,-2369.3048 C 1032.002,-2369.601 1029.6475,-2368.3145 1025.7461,-2365.7201 C 1011.5823,-2356.3013 993.07529,-2348.9618 975.29915,-2345.7225 C 948.88363,-2340.909 915.3518,-2342.6744 889.72825,-2350.2394 C 847.36859,-2362.7456 819.55973,-2390.957 812.19317,-2428.8906 C 810.19264,-2439.1924 809.67767,-2455.8601 811.02458,-2466.798 C 815.99771,-2507.1851 840.31258,-2539.2429 881.03592,-2559.1048 C 908.05427,-2572.2824 940.08974,-2579.0079 975.77185,-2579.0105 z"
       id="path3287"
       style="fill:url(#linearGradient3357);fill-opacity:1" />
    <path
       d="M 948.92258,-2172.3158 C 931.93842,-2173.6159 914.37254,-2177.2083 897.59049,-2182.8139 C 847.54943,-2199.5287 805.78448,-2233.6316 774.46234,-2283.3535 C 772.14159,-2287.0376 770.03791,-2290.0467 769.78757,-2290.0404 C 769.53719,-2290.034 768.50142,-2286.7911 767.48595,-2282.834 C 761.09293,-2257.9229 749.58805,-2221.5511 737.36962,-2187.623 C 734.94699,-2180.8958 732.73642,-2174.6903 732.45713,-2173.833 L 731.94935,-2172.2741 L 663.71168,-2172.2741 C 599.13196,-2172.2741 595.46158,-2172.3191 595.24103,-2173.1135 C 595.11292,-2173.5751 583.39093,-2236.7007 569.19215,-2313.3924 C 554.99336,-2390.0842 543.23958,-2452.6789 543.07251,-2452.4916 C 542.90553,-2452.3045 531.1895,-2389.7725 517.03709,-2313.5317 C 502.88463,-2237.291 491.18463,-2174.3186 491.03713,-2173.5931 L 490.7689,-2172.2741 L 421.12958,-2172.2741 L 351.49032,-2172.2741 L 289.19012,-2405.5051 C 254.92509,-2533.7822 226.79192,-2639.6054 226.672,-2639.9352 C 226.4983,-2640.4128 238.56043,-2639.9352 285.96879,-2639.9352 L 345.48361,-2639.9352 L 346.1929,-2637.417 C 346.58303,-2636.0321 363.00377,-2572.9518 382.68348,-2497.2386 C 425.6556,-2331.9133 420.90808,-2349.8578 421.37705,-2350.9854 C 421.58716,-2351.4906 436.94564,-2416.3333 453.45291,-2495.0802 C 469.96013,-2573.8272 481.89571,-2639.4735 482.03069,-2639.9352 L 606.81705,-2639.9352 C 616.64507,-2592.0779 626.25287,-2544.1694 635.92807,-2496.2793 C 651.64654,-2418.4557 664.679,-2354.3625 664.88926,-2353.8499 C 665.17678,-2353.1488 665.59532,-2354.0996 666.57844,-2357.6871 C 667.29719,-2360.3102 684.89513,-2424.8351 705.68492,-2501.0758 L 743.48457,-2639.6955 L 851.35523,-2639.6955 C 964.99487,-2639.6955 963.14124,-2639.7266 982.48899,-2637.4911 C 1032.8493,-2631.6725 1079.8268,-2615.1576 1114.2742,-2591.1623 C 1133.0745,-2578.0664 1150.9109,-2560.4218 1163.6414,-2542.326 C 1184.2234,-2513.0694 1196.6759,-2476.9976 1200.9805,-2434.1644 C 1202.0287,-2423.7337 1202.4447,-2400.1978 1201.7392,-2391.2354 C 1198.4215,-2349.0889 1186.2679,-2307.6877 1167.6472,-2275.1004 C 1137.8895,-2223.0228 1091.4046,-2189.9985 1030.6941,-2177.8047 C 1014.5172,-2174.5555 1000.1768,-2173.0675 977.45267,-2172.2803 C 961.95618,-2171.7434 956.30876,-2171.7504 948.92258,-2172.3158 z M 988.72444,-2230.994 C 1031.4125,-2235.9025 1064.3709,-2250.3305 1090.1076,-2275.3757 C 1110.1677,-2294.8967 1124.3398,-2319.473 1132.8554,-2349.5057 C 1142.1341,-2382.2292 1144.1418,-2422.267 1138.1111,-2454.3097 C 1131.8712,-2487.4643 1117.474,-2515.42 1095.8645,-2536.342 C 1088.9552,-2543.0316 1084.4732,-2546.6185 1075.7344,-2552.452 C 1049.2696,-2570.118 1015.7746,-2579.0192 975.77382,-2579.0163 C 940.09167,-2579.0136 908.06079,-2572.2805 881.04244,-2559.1029 C 875.92233,-2556.6057 871.0616,-2553.9157 866.46604,-2551.0406 C 834.51049,-2531.0479 815.37816,-2502.1042 811.0303,-2466.795 C 809.68335,-2455.8571 810.19634,-2439.19 812.19691,-2428.8882 C 819.56342,-2390.9546 847.36876,-2362.7504 889.72842,-2350.2442 C 915.35197,-2342.6792 948.87867,-2340.9066 975.2942,-2345.7201 C 993.07038,-2348.9593 1011.5828,-2356.2959 1025.7466,-2365.7147 C 1029.648,-2368.309 1031.9971,-2369.5951 1032.2933,-2369.2989 C 1032.5895,-2369.0027 1032.0955,-2366.3153 1030.9165,-2361.8094 C 1023.7007,-2334.233 1011.9863,-2316.8017 994.71124,-2307.935 C 992.34179,-2306.7189 988.8878,-2305.1828 987.0356,-2304.5215 C 971.1162,-2298.8375 947.26403,-2299.5017 934.28387,-2305.9904 C 927.58682,-2309.3382 921.61855,-2315.045 919.01495,-2320.5902 L 917.49607,-2323.8253 L 865.81351,-2323.8348 C 824.23982,-2323.8424 814.13092,-2323.7246 814.13092,-2323.2327 C 814.13092,-2322.8963 814.7645,-2320.0364 815.53871,-2316.8773 C 819.60052,-2300.3057 826.60439,-2286.5808 837.35162,-2274.1325 C 859.07255,-2248.9735 895.0721,-2233.9348 942.19817,-2230.333 C 950.70088,-2229.6831 981.07733,-2230.1147 988.72444,-2230.994 z M 964.98164,-2408.7318 C 949.36031,-2410.1989 935.02283,-2416.9101 925.55343,-2427.1877 C 912.01529,-2441.8812 910.73825,-2461.7754 922.28827,-2478.0526 C 924.8009,-2481.5935 930.96686,-2487.5426 934.87539,-2490.1968 C 941.38581,-2494.6179 950.45659,-2498.3831 958.98593,-2500.2047 C 964.72962,-2501.4314 979.1487,-2501.4272 984.77607,-2500.1972 C 996.51386,-2497.6316 1005.6981,-2492.9154 1013.3512,-2485.5233 C 1021.7656,-2477.396 1026.3633,-2467.485 1026.9576,-2456.1928 C 1027.7047,-2441.9979 1021.5184,-2429.3403 1009.3838,-2420.236 C 998.46145,-2412.0411 980.17946,-2407.3044 964.98164,-2408.7318 z"
       id="path3289"
       style="fill:url(#radialGradient3354);fill-opacity:1;stroke:none" />
  </g>
</svg>
