<?xml version="1.0" encoding="UTF-8" standalone="no"?>
<!-- Created with Inkscape (http://www.inkscape.org/) -->
<svg
   xmlns:svg="http://www.w3.org/2000/svg"
   xmlns="http://www.w3.org/2000/svg"
   version="1.0"
   width="423.83099"
   height="231.349"
   viewBox="0 0 423.831 231.349"
   id="Calque_1"
   xml:space="preserve"
   style="overflow:visible"><defs
   id="defs48" />
<path
   d="M 423.812,155.398 C 400.871,155.398 382.291,137.577 382.291,115.584 C 382.291,93.573 400.87,75.751 423.812,75.751 C 423.831,75.751 423.831,75.751 423.831,75.751 L 423.831,0 L 69.419,0 L 69.419,231.159 L 423.831,231.159 L 423.831,155.398 C 423.831,155.398 423.831,155.398 423.812,155.398"
   id="path15"
   style="fill:#bf1079;fill-opacity:1" /><path
   d="M 295.75,1.28125 C 285.86027,4.1183999 276.24332,7.7741901 266.53125,13.09375 C 202.13518,-12.8867 91.744646,24.37255 78.75,31.875 C 76.379647,33.243524 73.13422,34.942004 69.40625,36.8125 L 69.40625,57.78125 L 105.0625,38.90625 C 174.47095,9.7659721 225.22148,2.8611002 257,18.84375 C 229.95012,36.74695 201.26168,69.432212 163.125,134.84375 C 131.54628,189.00716 123.00923,210.07891 107.15625,231.15625 L 124.28125,231.15625 C 149.00459,208.23535 173.38913,177.28928 198.09375,123.1875 C 214.97386,80.688731 237.80973,45.47182 263.5,22.59375 C 266.55607,24.616914 269.39479,26.907006 272.03125,29.4375 C 282.01432,39.019296 288.9918,52.231533 292.90625,69.15625 C 308.36002,135.97297 228.25779,167.05586 202.375,140.34375 C 233.17707,190.75297 344.21738,126.96948 304.34375,46.625 C 297.20058,32.231682 285.86429,22.2472 272.03125,15.5625 C 279.75113,9.6509402 287.67821,4.8383599 295.75,1.28125 z"
   transform="translate(0,-1.2441592e-6)"
   id="path3281"
   style="fill:#d576ad;fill-rule:evenodd;stroke:none;stroke-width:1px;stroke-linecap:butt;stroke-linejoin:miter;stroke-opacity:1" /><rect
   width="69.343002"
   height="184.89799"
   x="0.075999998"
   y="0"
   id="rect3"
   style="fill:#000000;fill-opacity:1" />
<polyline
   style="fill:#ffffff"
   points="20.618,93.601 31.093,93.601 42.592,113.802 42.592,93.601 50.336,93.601 50.336,124.419   40.316,124.419 28.382,104.171 28.382,124.419 20.618,124.419 20.618,93.601 "
   id="polyline5" />
<path
   d="M 41.814,30.458 C 40.477,32.619 38.126,34.06 35.387,34.06 C 31.235,34.06 27.879,30.695 27.879,26.561 C 27.879,22.428 31.234,19.082 35.387,19.082 C 38.127,19.082 40.477,20.523 41.814,22.675 L 49.777,17.821 C 46.819,12.967 41.482,9.745 35.387,9.745 C 26.069,9.745 18.513,17.281 18.513,26.561 C 18.513,35.861 26.068,43.387 35.387,43.387 C 41.482,43.387 46.819,40.145 49.777,35.311 L 41.814,30.458"
   id="path7"
   style="fill:#ffffff" />
<rect
   width="10.968"
   height="27.434"
   x="30.941"
   y="53.91"
   id="rect9"
   style="fill:#ffffff" />
<polyline
   style="fill:#ffffff"
   points="47.739,144.516 47.739,137.122 39.985,137.122 39.985,132.363 32.278,137.122   23.68,137.122 23.68,170.054 47.739,170.054 47.739,162.679 33.017,162.679 33.017,156.555 47.369,156.555 47.369,150.09   33.017,150.09 33.017,144.516 47.739,144.516 "
   id="polyline11" />
<rect
   width="69.343002"
   height="46.241001"
   x="0"
   y="184.918"
   id="rect13"
   style="fill:#de0000;fill-opacity:1" />










<path
   d="M 15.802,210.702 L 10.911,210.721 L 10.949,216.978 L 15.841,216.94 C 17.993,216.94 19.197,215.594 19.178,213.793 C 19.177,211.973 17.954,210.684 15.802,210.702 z M 15.452,202.038 L 10.845,202.076 L 10.892,207.915 L 15.49,207.915 C 17.471,207.877 18.826,206.853 18.808,204.957 C 18.789,203.062 17.452,202.038 15.452,202.038 z M 16.125,219.727 L 7.84,219.765 L 7.726,199.289 L 15.699,199.251 C 19.491,199.213 21.899,201.355 21.917,204.825 C 21.936,207.043 20.552,208.636 19.178,209.166 C 20.77,209.811 22.268,211.328 22.287,213.906 C 22.305,217.66 19.755,219.708 16.125,219.727 z"
   id="path35"
   style="fill:#ffffff" />
<path
   d="M 15.802,210.702 L 10.911,210.721 L 10.949,216.978 L 15.841,216.94 C 17.993,216.94 19.197,215.594 19.178,213.793 C 19.177,211.973 17.954,210.684 15.802,210.702 z M 15.452,202.038 L 10.845,202.076 L 10.892,207.915 L 15.49,207.915 C 17.471,207.877 18.826,206.853 18.808,204.957 C 18.789,203.062 17.452,202.038 15.452,202.038 z M 16.125,219.727 L 7.84,219.765 L 7.726,199.289 L 15.699,199.251 C 19.491,199.213 21.899,201.355 21.917,204.825 C 21.936,207.043 20.552,208.636 19.178,209.166 C 20.77,209.811 22.268,211.328 22.287,213.906 C 22.305,217.66 19.755,219.708 16.125,219.727 z"
   id="path37"
   style="fill:none;stroke:#ffffff;stroke-width:3.66930008" />
<path
   d="M 38.591,203.668 C 37.814,202.872 36.742,202.474 35.538,202.493 C 34.315,202.493 33.31,202.91 32.533,203.668 C 31.291,204.957 31.139,207.081 31.158,209.318 C 31.158,211.555 31.329,213.716 32.608,214.967 C 33.385,215.726 34.4,216.181 35.623,216.161 C 36.827,216.161 37.889,215.706 38.647,214.929 C 39.908,213.64 40.05,211.517 40.05,209.28 C 40.032,207.043 39.852,204.9 38.591,203.668 z M 41.795,217.395 C 40.458,218.779 38.439,219.86 35.643,219.86 C 32.828,219.86 30.846,218.837 29.481,217.471 C 27.528,215.442 27.035,212.845 26.997,209.357 C 26.978,205.906 27.471,203.308 29.405,201.28 C 30.732,199.877 32.704,198.815 35.519,198.815 C 38.315,198.777 40.353,199.801 41.7,201.204 C 43.662,203.214 44.164,205.811 44.183,209.281 C 44.203,212.73 43.739,215.347 41.795,217.395 z"
   id="path39"
   style="fill:#ffffff" />
<path
   d="M 38.591,203.668 C 37.814,202.872 36.742,202.474 35.538,202.493 C 34.315,202.493 33.31,202.91 32.533,203.668 C 31.291,204.957 31.139,207.081 31.158,209.318 C 31.158,211.555 31.329,213.716 32.608,214.967 C 33.385,215.726 34.4,216.181 35.623,216.161 C 36.827,216.161 37.889,215.706 38.647,214.929 C 39.908,213.64 40.05,211.517 40.05,209.28 C 40.032,207.043 39.852,204.9 38.591,203.668 z M 41.795,217.395 C 40.458,218.779 38.439,219.86 35.643,219.86 C 32.828,219.86 30.846,218.837 29.481,217.471 C 27.528,215.442 27.035,212.845 26.997,209.357 C 26.978,205.906 27.471,203.308 29.405,201.28 C 30.732,199.877 32.704,198.815 35.519,198.815 C 38.315,198.777 40.353,199.801 41.7,201.204 C 43.662,203.214 44.164,205.811 44.183,209.281 C 44.203,212.73 43.739,215.347 41.795,217.395 z"
   id="path41"
   style="fill:none;stroke:#ffffff;stroke-width:2.40739989" />
<polygon
   points="60.043,219.48 55.692,212.484 51.389,219.518 46.393,219.556 53.408,208.996 46.573,198.967 51.559,198.929 55.654,205.621 59.636,198.891 64.622,198.853 57.948,208.977 65.03,219.461 60.043,219.48 "
   id="polygon43"
   style="fill:#ffffff" />
<polygon
   points="60.043,219.48 55.692,212.484 51.389,219.518 46.393,219.556 53.408,208.996 46.573,198.967 51.559,198.929 55.654,205.621 59.636,198.891 64.622,198.853 57.948,208.977 65.03,219.461 60.043,219.48 "
   id="polygon45"
   style="fill:none;stroke:#ffffff;stroke-width:2.40739989" />
<path
   d="M 218.375,90.53125 C 214.6045,90.52393 212.76067,90.953089 209.40625,92.59375 C 207.07996,93.731569 204.6403,95.403051 204,96.28125 C 200.82822,100.63137 201.35479,107.49197 205.1875,111.8125 C 206.37217,113.14794 210.5169,116.53658 214.375,119.34375 C 221.68811,124.66481 223.69329,127.3439 222.96875,130.75 C 222.03419,135.14328 215.76787,136.73197 208.53125,134.4375 C 204.33937,133.10842 204.82558,133.03351 203.40625,135.5 C 202.25972,137.49242 202.29246,137.64635 203.9375,138.4375 C 204.89196,138.89655 206.57626,139.52212 207.6875,139.84375 C 208.79874,140.16537 212.58653,140.36387 216.09375,140.28125 C 221.36774,140.15699 222.95383,139.82069 225.25,138.40625 C 232.92349,133.67933 234.41194,124.74712 228.5625,118.5 C 227.48983,117.35441 223.61869,114.31122 219.96875,111.75 C 216.31883,109.18877 212.79442,106.39014 212.125,105.53125 C 210.229,103.09868 210.58707,99.549698 212.9375,97.4375 C 214.78099,95.78085 215.40291,95.636997 219.84375,95.9375 C 222.52942,96.11922 225.29166,96.504937 226,96.78125 C 226.96905,97.15927 227.52246,96.714356 228.1875,95 C 228.67362,93.74686 229.0625,92.637891 229.0625,92.53125 C 229.0625,91.80822 222.31468,90.538888 218.375,90.53125 z M 82.1875,90.59375 L 82.1875,139.78125 L 92.4375,139.78125 L 92.4375,129.1875 L 92.4375,118.625 L 99.34375,118.375 C 107.93821,118.06194 112.86055,116.13824 116,111.875 C 120.27301,105.54392 118.70801,96.24582 111.4375,93 C 108.35868,91.45481 106.85878,90.914461 95.09375,90.59375 L 82.1875,90.59375 z M 182.875,90.59375 C 172.51625,90.49957 165.87501,95.588554 165.875,103.65625 C 165.875,107.81919 168.35038,111.4816 174.3125,116.125 C 185.13271,124.55197 187.21874,126.63418 187.21875,129.09375 C 187.21875,132.68922 183.55157,135.5 178.9375,135.5 C 176.93557,135.5 174.02807,135.02301 172.46875,134.4375 C 168.69222,133.01948 168.61348,133.04775 167.46875,135.53125 C 166.3107,138.04366 166.39926,138.16339 170.375,139.4375 C 172.03613,139.96985 175.86579,140.42893 178.90625,140.4375 C 185.71874,140.45668 190.05256,138.85535 193.21875,135.125 C 195.24393,132.73893 195.5,131.84703 195.5,127.28125 C 195.5,122.60227 195.28906,121.9227 193.0625,119.4375 C 191.71866,117.93754 187.4656,114.40269 183.625,111.59375 C 175.04162,105.31598 173.39742,102.89934 175.0625,99 C 176.2413,96.23944 184.26186,94.796494 189.15625,96.46875 C 190.96383,97.08634 191.29297,96.972302 191.96875,95.375 C 192.39015,94.37899 192.74999,93.249597 192.75,92.875 C 192.75,91.63004 188.47105,90.64463 182.875,90.59375 z M 136.28125,90.75 L 118.09375,139.96875 L 124.4375,139.96875 L 129.21875,125.9375 L 145.8125,125.9375 L 150.5,139.96875 L 160.78125,139.96875 L 142.375,90.75 L 136.28125,90.75 z M 241.6875,90.8125 L 241.6875,115.28125 L 241.6875,139.78125 L 251.96875,139.78125 L 251.96875,115.28125 L 251.96875,90.8125 L 241.6875,90.8125 z M 317.90625,91.15625 L 317.6875,115.46875 L 317.5,139.78125 L 324.625,139.78125 L 324.625,123.0625 C 324.625,113.86674 324.90118,106.49376 325.25,106.6875 C 325.59882,106.88124 331.38438,114.40906 338.09375,123.40625 L 350.28125,139.78125 L 357,139.78125 L 357,115.25 L 357,91.15625 L 350.28125,91.15625 L 349.90625,107.84375 L 349.5,124.5 L 345.9375,119.875 C 343.98291,117.3291 338.30749,109.73467 333.3125,103 L 324.21875,91.15625 L 317.90625,91.15625 z M 92.4375,95.78125 L 96.8125,95.78125 C 103.05519,95.78125 106.25872,97.165283 107.4375,100.375 C 108.70528,103.82708 107.81055,108.77356 105.5,111.1875 C 103.8996,112.85949 102.98427,113.12507 98.0625,113.375 L 92.4375,113.40625 L 92.4375,104.71875 L 92.4375,95.78125 z M 137.09375,104.375 L 143.3125,120.40625 L 131.125,120.40625 L 137.09375,104.375 z M 285.09525,90.147682 C 271.77158,90.147682 261.54314,100.98228 261.54314,115.06731 C 261.54314,129.15234 271.77158,140.56731 285.09525,140.56731 C 298.41892,140.56731 308.67858,129.15234 308.6786,115.06731 C 308.6786,100.98228 298.41893,90.147682 285.09525,90.147682 z M 285.09525,96.623478 C 294.16696,96.623478 299.94048,105.47721 299.94048,115.06731 C 299.94047,124.6574 294.16696,133.2578 285.09525,133.2578 C 276.02353,133.25779 270.25001,124.65741 270.25001,115.06731 C 270.25001,105.47721 276.02354,96.623478 285.09525,96.623478 z"
   transform="translate(0,-1.2441592e-6)"
   id="path3279"
   style="fill:#ffffff" /></svg>