<?xml version="1.0" encoding="utf-8"?>
<!-- Generator: Adobe Illustrator 14.0.0, SVG Export Plug-In . SVG Version: 6.00 Build 43363)  -->
<!DOCTYPE svg PUBLIC "-//W3C//DTD SVG 1.1//EN" "http://www.w3.org/Graphics/SVG/1.1/DTD/svg11.dtd">
<svg version="1.1" id="Calque_1" xmlns="http://www.w3.org/2000/svg" xmlns:xlink="http://www.w3.org/1999/xlink" x="0px" y="0px"
	 width="116px" height="90px" viewBox="0 0 116 90" enable-background="new 0 0 116 90" xml:space="preserve">
<g>
	<rect fill="none" width="116" height="90"/>
	<g>
		<path d="M14.835,0.936L0.786,88.449h28.607l3.216-26.745C41.576,70.67,49.483,79.25,57.956,88.33
			c8.748-9.559,17.099-17.745,25.437-26.456l3.215,26.575h28.606l-14.05-87.344c-31.008,32.378-37.855,39.436-43.103,44.69
			C53.32,41.129,43.068,30.498,14.835,0.936z"/>
		<path fill="#E42322" d="M58.803,19.564c3.807-6.066,7.333-12.002,11.002-18.028c0,0-15.511,0.041-19.154-0.013
			c-3.751,6.23-4.638,7.834-8.823,15.501c-6.835,12.023-14.25,26.1-8.318,39.949c3.881,8.314,11.372,13.598,20.215,15.332
			c7.475,1.182,14.537-0.855,20.652-5.113c11.661-8.678,13.746-25.604,5.165-37.132c-2.683-3.606-6.376-6.256-10.414-8.163
			C65.973,20.407,62.293,19.564,58.803,19.564 M57.11,34.17c12.183-1.457,17.3,15.65,7.213,21.926
			c-1.357,0.844-2.859,1.443-4.482,1.653c-10.05,1.295-17.354-10.19-11.526-18.549C50.497,36.152,53.564,34.717,57.11,34.17"/>
	</g>
</g>
</svg>
