<?xml version="1.0" encoding="UTF-8" standalone="no"?>
<!-- Created with Inkscape (http://www.inkscape.org/) -->

<svg
   xmlns:dc="http://purl.org/dc/elements/1.1/"
   xmlns:cc="http://creativecommons.org/ns#"
   xmlns:rdf="http://www.w3.org/1999/02/22-rdf-syntax-ns#"
   xmlns:svg="http://www.w3.org/2000/svg"
   xmlns="http://www.w3.org/2000/svg"
   xmlns:xlink="http://www.w3.org/1999/xlink"
   xmlns:sodipodi="http://sodipodi.sourceforge.net/DTD/sodipodi-0.dtd"
   xmlns:inkscape="http://www.inkscape.org/namespaces/inkscape"
   width="195.75793"
   height="330.85364"
   id="svg2"
   version="1.1"
   inkscape:version="0.48.2 r9819"
   sodipodi:docname="Logo France 21.svg">
  <defs
     id="defs4">
    <clipPath
       id="clipPath4280-1-5-1-5"
       clipPathUnits="userSpaceOnUse">
      <path
         inkscape:connector-curvature="0"
         id="path4282-1-2-6-4"
         d="m 617.226,463.603 109.005,0 0,63.36 -109.005,0 0,-63.36 z" />
    </clipPath>
    <clipPath
       id="clipPath4332-8-2-7-3"
       clipPathUnits="userSpaceOnUse">
      <path
         inkscape:connector-curvature="0"
         id="path4334-8-2-9-8"
         d="m 617.215,435.498 109.016,0 0,91.464 -109.016,0 0,-91.464 z" />
    </clipPath>
    <linearGradient
       id="SVGID_1_"
       gradientUnits="userSpaceOnUse"
       x1="218.8721"
       y1="906.11719"
       x2="293.25119"
       y2="55.958401"
       gradientTransform="matrix(1,0,0,-1,4,871.4414)">
      <stop
         offset="0"
         style="stop-color:#F37364"
         id="stop11" />
      <stop
         offset="0.15"
         style="stop-color:#ED4555"
         id="stop13" />
      <stop
         offset="0.5"
         style="stop-color:#F26758"
         id="stop15" />
      <stop
         offset="1"
         style="stop-color:#ED1B2F"
         id="stop17" />
    </linearGradient>
    <linearGradient
       inkscape:collect="always"
       xlink:href="#SVGID_1_"
       id="linearGradient4322"
       gradientUnits="userSpaceOnUse"
       gradientTransform="matrix(0,181.0373,-181.0373,0,97.9012,175.90661)"
       spreadMethod="pad"
       x1="-0.8744126"
       y1="1.165717"
       x2="0.84807271"
       y2="1.0329179" />
    <linearGradient
       inkscape:collect="always"
       xlink:href="#SVGID_1_"
       id="linearGradient4418"
       x1="661.75214"
       y1="527.82446"
       x2="670.40942"
       y2="459.68332"
       gradientUnits="userSpaceOnUse" />
    <linearGradient
       inkscape:collect="always"
       xlink:href="#SVGID_1_"
       id="linearGradient4420"
       gradientUnits="userSpaceOnUse"
       x1="665.94116"
       y1="523.91479"
       x2="671.66614"
       y2="461.7778" />
    <linearGradient
       inkscape:collect="always"
       xlink:href="#SVGID_1_-7"
       id="linearGradient4418-1"
       x1="661.75214"
       y1="527.82446"
       x2="670.40942"
       y2="459.68332"
       gradientUnits="userSpaceOnUse" />
    <linearGradient
       id="SVGID_1_-7"
       gradientUnits="userSpaceOnUse"
       x1="218.8721"
       y1="906.11719"
       x2="293.25119"
       y2="55.958401"
       gradientTransform="matrix(1,0,0,-1,4,871.4414)">
      <stop
         offset="0"
         style="stop-color:#F37364"
         id="stop11-4" />
      <stop
         offset="0.15"
         style="stop-color:#ED4555"
         id="stop13-0" />
      <stop
         offset="0.5"
         style="stop-color:#F26758"
         id="stop15-9" />
      <stop
         offset="1"
         style="stop-color:#ED1B2F"
         id="stop17-4" />
    </linearGradient>
    <linearGradient
       inkscape:collect="always"
       xlink:href="#SVGID_1_-7"
       id="linearGradient4420-8"
       gradientUnits="userSpaceOnUse"
       x1="665.94116"
       y1="523.91479"
       x2="671.66614"
       y2="461.7778" />
    <linearGradient
       inkscape:collect="always"
       xlink:href="#SVGID_1_-7-1"
       id="linearGradient4418-1-1"
       x1="661.75214"
       y1="527.82446"
       x2="670.40942"
       y2="459.68332"
       gradientUnits="userSpaceOnUse" />
    <linearGradient
       id="SVGID_1_-7-1"
       gradientUnits="userSpaceOnUse"
       x1="218.8721"
       y1="906.11719"
       x2="293.25119"
       y2="55.958401"
       gradientTransform="matrix(1,0,0,-1,4,871.4414)">
      <stop
         offset="0"
         style="stop-color:#F37364"
         id="stop11-4-5" />
      <stop
         offset="0.15"
         style="stop-color:#ED4555"
         id="stop13-0-2" />
      <stop
         offset="0.5"
         style="stop-color:#F26758"
         id="stop15-9-7" />
      <stop
         offset="1"
         style="stop-color:#ED1B2F"
         id="stop17-4-6" />
    </linearGradient>
    <linearGradient
       inkscape:collect="always"
       xlink:href="#SVGID_1_-7-1"
       id="linearGradient4420-8-1"
       gradientUnits="userSpaceOnUse"
       x1="665.94116"
       y1="523.91479"
       x2="671.66614"
       y2="461.7778" />
    <linearGradient
       id="SVGID_1_-7-1-2"
       gradientUnits="userSpaceOnUse"
       x1="218.8721"
       y1="906.11719"
       x2="293.25119"
       y2="55.958401"
       gradientTransform="matrix(1,0,0,-1,4,871.4414)">
      <stop
         offset="0"
         style="stop-color:#F37364"
         id="stop11-4-5-3" />
      <stop
         offset="0.15"
         style="stop-color:#ED4555"
         id="stop13-0-2-2" />
      <stop
         offset="0.5"
         style="stop-color:#F26758"
         id="stop15-9-7-2" />
      <stop
         offset="1"
         style="stop-color:#ED1B2F"
         id="stop17-4-6-1" />
    </linearGradient>
    <linearGradient
       gradientTransform="translate(-356.92923,-197.11771)"
       y2="461.7778"
       x2="671.66614"
       y1="523.91479"
       x1="665.94116"
       gradientUnits="userSpaceOnUse"
       id="linearGradient3354"
       xlink:href="#SVGID_1_-7-1-2"
       inkscape:collect="always" />
  </defs>
  <sodipodi:namedview
     id="base"
     pagecolor="#ffffff"
     bordercolor="#666666"
     borderopacity="1.0"
     inkscape:pageopacity="0.0"
     inkscape:pageshadow="2"
     inkscape:zoom="2"
     inkscape:cx="158.12673"
     inkscape:cy="194.57672"
     inkscape:document-units="px"
     inkscape:current-layer="g5139"
     showgrid="false"
     fit-margin-top="5"
     fit-margin-right="5"
     fit-margin-bottom="5"
     fit-margin-left="5"
     inkscape:window-width="636"
     inkscape:window-height="730"
     inkscape:window-x="714"
     inkscape:window-y="0"
     inkscape:window-maximized="1" />
  <metadata
     id="metadata7">
    <rdf:RDF>
      <cc:Work
         rdf:about="">
        <dc:format>image/svg+xml</dc:format>
        <dc:type
           rdf:resource="http://purl.org/dc/dcmitype/StillImage" />
        <dc:title />
      </cc:Work>
    </rdf:RDF>
  </metadata>
  <g
     inkscape:label="Calque 1"
     inkscape:groupmode="layer"
     id="layer1"
     transform="translate(362.90198,-528.03546)">
    <g
       id="g5139"
       transform="matrix(5.0640215,0,0,-5.0640215,-2042.2962,2203.3763)">
      <g
         id="g4276"
         transform="translate(-356.92923,-197.11771)">
        <g
           id="g4278"
           clip-path="url(#clipPath4280-1-5-1-5)">
          <g
             id="g4284"
             transform="translate(726.2281,525.9188)">
            <path
               inkscape:connector-curvature="0"
               d="M 0,0 C 0,0.945 -0.546,1.185 -1.541,0.971 L -34.992,-6.26 c -1.222,-0.267 -1.684,-0.774 -1.684,-2.14 l -0.003,-44.491 c 0,-1.371 0.465,-1.872 1.687,-2.145 l 33.451,-7.223 c 1.01,-0.232 1.533,0.257 1.541,1.141 L 0,0"
               style="fill:#ed1b2f;fill-opacity:1;fill-rule:nonzero;stroke:none"
               id="path4286" />
          </g>
        </g>
      </g>
      <g
         id="g4288"
         transform="translate(-356.92923,-197.11771)">
        <g
           id="g4290">
          <g
             id="g4296">
            <g
               id="g4298"
               style="fill:url(#linearGradient4418-1-1);fill-opacity:1" />
          </g>
        </g>
      </g>
      <path
         inkscape:connector-curvature="0"
         d="m 366.93377,329.07429 c -1.748,-0.39 -32.461,-7.086 -32.461,-7.086 l 0,0 c 5.263,0.527 9.716,0.748 13.488,0.748 l 0,0 c 19.827,0 20.765,-6.126 20.765,-6.126 l 0,0 c 0,0 -0.002,8.837 0,11.86 l 0,0 c 0,0.601 -0.098,0.821 -0.531,0.821 l 0,0 c -0.27,0 -0.672,-0.085 -1.261,-0.217"
         style="fill:url(#linearGradient3354);fill-opacity:1;stroke:none"
         id="path4306" />
      <g
         id="g4328"
         transform="translate(-356.92923,-197.11771)">
        <g
           id="g4330"
           clip-path="url(#clipPath4332-8-2-7-3)">
          <g
             id="g4336"
             transform="translate(726.2274,488.9631)" />
          <g
             id="g4340"
             transform="translate(720.702,514.676)">
            <path
               inkscape:connector-curvature="0"
               d="m 0,0 c 0,-1.47 0.608,-2.2 2.04,-2.2 1.662,0 1.894,0.836 1.981,1.357 l -1.085,0 c -0.072,-0.25 -0.123,-0.515 -0.811,-0.515 -0.792,0 -1.021,0.343 -1.021,1.018 l 2.992,0 C 4.16,0.871 3.934,2.222 2.092,2.222 0.527,2.222 0,1.336 0,0 m 2.949,0.437 -1.815,0 c 0.047,0.425 0.098,0.937 1.001,0.937 0.719,0 0.814,-0.444 0.814,-0.937"
               style="fill:#ffffff;fill-opacity:1;fill-rule:nonzero;stroke:none"
               id="path4342" />
          </g>
          <g
             id="g4344"
             transform="translate(717.9944,516.8981)">
            <path
               inkscape:connector-curvature="0"
               d="m 0,0 c 1.388,0 1.86,-0.737 1.86,-1.551 l -1.062,0 c -0.057,0.323 -0.048,0.703 -0.872,0.703 -0.817,0 -0.984,-0.614 -0.984,-1.28 0,-0.966 0.218,-1.475 0.937,-1.475 0.919,0 0.862,0.407 0.919,0.856 l 1.096,0 c 0,-0.656 -0.346,-1.675 -1.986,-1.675 -1.325,0 -2.059,0.741 -2.059,2.23 C -2.151,-0.936 -1.61,0 0,0"
               style="fill:#ffffff;fill-opacity:1;fill-rule:nonzero;stroke:none"
               id="path4346" />
          </g>
          <g
             id="g4348"
             transform="translate(711.0533,516.7896)">
            <path
               inkscape:connector-curvature="0"
               d="m 0,0 1.075,0 0,-0.57 c 0.074,0.255 0.173,0.679 1.113,0.679 0.974,0 1.485,-0.332 1.485,-1.338 l 0,-2.972 -1.112,0 0,2.783 c 0,0.413 -0.158,0.652 -0.74,0.652 -0.461,0 -0.712,-0.15 -0.712,-0.73 l 0,-2.705 L 0,-4.201 0,0 z"
               style="fill:#ffffff;fill-opacity:1;fill-rule:nonzero;stroke:none"
               id="path4350" />
          </g>
          <g
             id="g4352"
             transform="translate(708.6064,515.6182)">
            <path
               inkscape:connector-curvature="0"
               d="m 0,0 c 0,-0.193 -0.041,-0.353 -0.102,-0.405 -0.23,-0.164 -1.421,-0.1 -1.953,-0.33 -0.32,-0.16 -0.577,-0.438 -0.577,-1.045 0,-0.849 0.443,-1.362 1.519,-1.362 0.564,0 0.92,0.095 1.211,0.621 0.055,-0.098 0.103,-0.251 0.224,-0.353 0.15,-0.131 0.299,-0.156 0.5,-0.156 l 0.552,0 0,0.822 C 1.239,-2.221 1.16,-2.178 1.13,-2.157 1.092,-2.13 1.072,-2.076 1.072,-1.895 l 0,1.783 c 0,1.021 -0.539,1.392 -1.682,1.392 -1.395,0 -1.83,-0.539 -1.854,-1.249 l 0,-0.183 1.015,0 c 0.034,0.342 0,0.648 0.784,0.648 C -0.132,0.496 0,0.299 0,0 m -0.125,-1.059 c 0.036,0.015 0.084,0.042 0.125,0.062 l 0,-0.43 c 0.011,-0.543 -0.268,-0.907 -0.937,-0.907 -0.248,0 -0.58,0.065 -0.58,0.498 0,0.777 0.868,0.535 1.392,0.777"
               style="fill:#ffffff;fill-opacity:1;fill-rule:nonzero;stroke:none"
               id="path4354" />
          </g>
          <g
             id="g4356"
             transform="translate(702.7866,516.7896)">
            <path
               inkscape:connector-curvature="0"
               d="m 0,0 0.988,0 0,-0.787 c 0.16,0.431 0.272,0.896 1.117,0.896 0.178,0 0.355,-0.017 0.538,-0.038 l 0,-0.922 -0.675,0 c -0.253,0 -0.495,-0.065 -0.65,-0.255 C 1.137,-1.343 1.11,-1.731 1.11,-1.93 l 0,-2.271 -1.11,0 L 0,0 z"
               style="fill:#ffffff;fill-opacity:1;fill-rule:nonzero;stroke:none"
               id="path4358" />
          </g>
        </g>
      </g>
      <g
         id="g4368"
         transform="translate(344.70837,320.41512)">
        <path
           inkscape:connector-curvature="0"
           d="m 0,0 -0.309,0 c -0.136,0 -0.282,-0.007 -0.329,-0.071 -0.045,-0.058 -0.058,-0.115 -0.058,-0.224 l 0,-0.448 0.696,0 0,-0.724 -0.696,0 0,-3.477 -1.11,0 0,3.477 -0.552,0 0,0.724 0.552,0 0,0.581 c 0,0.332 0.076,0.587 0.319,0.786 0.245,0.194 0.631,0.224 0.906,0.224 L 0,0.848 0,0 z"
           style="fill:#ffffff;fill-opacity:1;fill-rule:nonzero;stroke:none"
           id="path4370" />
      </g>
      <g
         id="g4308"
         transform="translate(-356.92923,-197.11771)">
        <g
           id="g4310">
          <g
             id="g4316">
            <g
               id="g4318">
              <path
                 style="fill:url(#linearGradient4322);stroke:none;fill-opacity:1"
                 d="m 7.90625,121.3125 0,153.8125 c 0,6.28445 0.9105272,9.36566 5.8125,10.5 7.079502,1.64074 155.26438,33.84147 162.53125,35.40625 3.71193,0.79505 6.22586,1.34375 7.9375,1.34375 3.60052,0 3.63599,-2.36739 3.65625,-9.59375 0.0962,-35.04303 0.0405,-43.44448 0,-99.25 0,0 0.0625,-16.41634 0.0625,-24.625 0.0156,-1.32432 0.0153,-0.7848 0.0153,-2.05776 -9.75138,30.60877 -29.11529,78.50002 -69.39031,75.30776 0,0 -34.475799,10.31608 -64.53125,-10.375 C 10.887151,232.98103 8.0428028,139.18726 7.90625,121.3125 z"
                 transform="matrix(0.19747152,0,0,-0.19747152,688.56175,527.9498)"
                 id="path4326"
                 inkscape:connector-curvature="0"
                 sodipodi:nodetypes="csccsccccccc" />
            </g>
          </g>
        </g>
      </g>
    </g>
    <g
       id="g4387"
       transform="matrix(1.0585837,0,0,1.0650266,66.02623,-21.953891)">
      <g
         id="France_2_2008"
         transform="matrix(0.34373575,0,0,0.34373575,-589.33376,544.30784)">
        <linearGradient
           id="linearGradient3063"
           gradientUnits="userSpaceOnUse"
           x1="264.63229"
           y1="688.77539"
           x2="354.63861"
           y2="178.3242"
           gradientTransform="matrix(1,0,0,-1,4,871.4414)">
          <stop
             offset="0.5"
             style="stop-color:#FFFFFF"
             id="stop3065" />
          <stop
             offset="1"
             style="stop-color:#BFBFBF"
             id="stop3067" />
        </linearGradient>
        <path
           d="M 1059.9598,552.5304 H 840.59368 c 0,0 30.462,-17.461 83.232,-47.266 90.56912,-51.167 124.21712,-91.167 136.13312,-130.516 v -93.54 c -18.532,-63.62 -79.36712,-104.016 -182.61912,-104.016 -102.214,0 -200.105,40.942 -192.98,186.195 0,0 127.125,-0.37 128.951,0 0,-59.805 11.44,-91.156 61.497,-91.156 43.627,0 64.609,19.867 64.609,54.067 0,32.534 -28.661,54.354 -56.714,73.636 -38.652,26.563 -56.549,38.664 -119.417,82.036 -78.044,53.875 -83.326,92.667 -83.326,184.136 0.149,0.106 328.68812,0.023 380.00012,0 v -113.576 h 0 z"
           id="path28"
           style="fill:#ffffff;fill-opacity:1"
           inkscape:connector-curvature="0" />
      </g>
    </g>
  </g>
</svg>
