<?xml version="1.0" encoding="UTF-8" standalone="no"?>
<!-- Created with Inkscape (http://www.inkscape.org/) -->
<svg
   xmlns:svg="http://www.w3.org/2000/svg"
   xmlns="http://www.w3.org/2000/svg"
   version="1.0"
   width="602.85712"
   height="387.09656"
   id="svg2">
  <defs
     id="defs4" />
  <g
     transform="translate(-201.42857,-110.52543)"
     id="layer1">
    <g
       id="g3223">
      <path
         d="M 357.14286,390.93361 C 503.47058,391.85518 601.48614,386.37174 803.57143,392.36218 C 803.50662,299.48321 800.96335,210.32191 804.28571,112.36218 C 671.53623,116.0134 511.30392,114.31144 354.28571,112.36218 C 362.18752,212.16875 356.27324,298.15923 357.14286,390.93361 z"
         id="path3197"
         style="fill:#dfb306;fill-opacity:1;fill-rule:evenodd;stroke:none;stroke-width:1px;stroke-linecap:butt;stroke-linejoin:miter;stroke-opacity:1" />
      <path
         d="M 545.09375,130.5 C 539.53108,130.49999 532.74189,131.22205 530,132.09375 C 496.64867,143.05491 465.71647,162.66725 440.25,186.8125 C 431.27668,196.88411 422.91177,208.3972 419.5625,215.28125 C 417.78318,218.9385 415.15367,224.27807 413.71875,227.125 C 412.12881,230.27948 410.99093,235.80059 410.8125,241.28125 C 410.54585,249.47132 410.92968,250.7613 414.875,255.65625 C 418.27185,259.87072 420.98282,261.51065 427.4375,263.3125 C 457.59662,269.82699 485.60165,255.31792 513.15625,244.96875 C 521.26777,240.83057 522.90625,241.22869 522.90625,247.46875 C 522.90626,250.38647 523.67236,253.54736 524.59375,254.46875 C 527.68971,257.56468 535.67144,256.29174 544.84375,251.25 C 549.73284,248.56262 554.02977,246.375 554.40625,246.375 C 554.78271,246.375 555.66497,247.88249 556.375,249.75 C 557.4955,252.69715 558.2003,253.00172 561.59375,251.96875 C 563.74407,251.31421 567.3691,250.24358 569.65625,249.59375 C 571.9434,248.94392 574.43461,247.15017 575.21875,245.625 C 576.77589,242.59632 590.15051,229.38777 596.71875,224.375 C 600.90872,221.17729 607.25002,220.20535 608.6875,222.53125 C 609.12428,223.23794 604.45548,228.99944 598.3125,235.34375 C 586.27778,247.77287 584.50432,250.85997 587.34375,254.28125 C 588.83223,256.07475 591.03993,256.34498 599.1875,255.65625 C 609.52087,254.78277 619.24804,252.15063 627.4375,248.03125 C 631.94577,245.76355 632.20231,245.77605 633.71875,248.375 C 634.58846,249.86551 636.68231,252.53977 638.375,254.3125 C 640.8221,256.87532 642.95066,257.53125 648.75,257.53125 C 655.90182,257.53125 661.6254,256.18897 670.40625,252.4375 C 672.82577,251.40381 675.55725,250.5625 676.46875,250.5625 C 677.38025,250.5625 681.98762,248.78812 686.71875,246.625 C 699.51054,240.77643 724.19878,232.40625 728.65625,232.40625 C 730.83959,232.40625 733.21439,227.24565 731.71875,225.75 C 729.64932,223.68056 713.09926,228.97263 691.21875,238.6875 C 678.23347,244.45293 665.9059,249.15625 663.84375,249.15625 C 660.14789,249.15625 651.99239,244.00497 651.99239,241.68242 C 662.75951,237.20749 675.59102,233.0318 686.75,227.0625 C 696.95074,220.87503 700.11693,217.54823 692.40625,212.78125 C 688.0434,210.084 686.12764,208.77741 677.65625,209.48763 C 672.00736,209.96121 665.77033,212.48085 662.78125,214.09375 C 654.32814,217.6718 647.56467,222.99656 641.125,229.46875 C 635.34246,235.53116 630.11006,239.32144 622.6875,242.84375 C 616.98905,245.54789 611.99951,247.75 611.59375,247.75 C 611.18801,247.75 610.875,246.48404 610.875,244.9375 C 610.87501,243.30526 614.38775,238.84627 619.25,234.28125 C 621.87865,231.62621 635.57167,216.96537 630.9375,213.25 C 626.65204,210.1164 617.18195,211.11737 608.25,215.65625 C 598.10326,220.81245 598.72053,216.2485 600.88396,212.07828 C 602.01038,209.90701 595.41968,208.19345 587.53125,211.125 C 581.65317,213.30945 577.49772,218.24332 571.46875,227.75 C 565.85328,234.70422 556.29042,242.00343 547.1875,243 C 543.91241,241.74322 545.00385,236.89162 549.78125,231.375 C 554.76949,225.61491 557.14247,222.09157 559.125,217.53125 C 559.84367,215.87823 561.10978,214.1053 561.9375,213.59375 C 564.46876,212.02931 562.06285,210.0625 557.625,210.0625 C 553.42272,210.0625 550.17249,212.27163 535.25,225.125 C 519.51986,238.57221 500.60262,244.94659 481.03125,250.40625 C 475.2726,251.82955 466.49084,253.05465 461.5,253.15625 C 453.10428,253.3272 452.19552,253.05382 449.625,249.5 C 447.6374,246.75206 446.70712,242.82199 446.34375,235.6875 C 445.90853,227.14175 446.40308,224.44825 449.75,216.84375 C 454.94435,205.04177 466.58559,187.4043 475.34375,178.0625 C 488.40281,163.8655 519.64618,142.88038 538.53125,137.59375 C 544.08405,137.59375 548.03125,139.8527 548.03125,145.125 C 548.03126,153.17362 543.24286,161.43651 531.8125,173.0625 C 526.16034,178.13569 504.49062,199.66991 501.1875,185.84375 C 499.98824,181.06551 498.67119,181.18803 495,186.34375 C 491.33814,190.82224 482.05615,192.23437 489.4375,198.90625 C 507.27925,202.89629 527.56382,192.81151 541.75,181.625 C 560.38019,165.71067 562.48624,162.7099 564.09375,149.84375 C 565.32905,135.9199 557.87835,130.96736 545.09375,130.5 z M 695.0625,170.25 C 693.77627,170.24565 692.44576,170.4666 691.125,170.96875 C 686.9982,172.53776 682.84276,176.81364 686.87373,183.71367 C 690.54454,189.99719 680.72051,195.00231 678.93623,195.61099 C 677.74185,196.01843 675.65975,197.64915 675.26339,198.75 C 674.52148,200.81062 683.80237,196.60131 693.8125,192.0625 C 703.5241,187.65905 705.55643,184.21009 703.28125,175.9375 C 702.31356,172.41897 698.9212,170.26306 695.0625,170.25 z M 566.1875,186.46875 C 565.36693,186.4629 564.54636,186.68829 563.75,187.1875 C 560.72773,189.08205 559.93693,193.64098 561.96875,197.4375 C 563.75803,200.78084 567.17467,201.04951 571,198.15625 C 573.19859,196.49337 573.44184,195.40006 572.375,192.40625 C 571.03837,188.65536 568.64922,186.4863 566.1875,186.46875 z M 678.21875,214.5 C 683.57625,217.25546 679.24062,225.05598 670.25,228.8125 C 658.38069,233.77181 654.16279,229.54308 663.40625,221.9375 C 666.20055,219.63834 669.19592,217.05513 670.0625,216.21875 C 672.41099,213.9078 675.24602,213.33005 678.21875,214.5 z M 697.46875,267.28125 C 678.12752,267.60434 664.41472,278.34859 656.53125,299.40625 C 650.11469,328.68822 653.21651,349.2417 675.85273,365.55992 C 682.50008,368.86793 688.23408,373.35212 700.21875,372.96875 C 717.77375,372.40718 722.24244,374.60838 723.77427,363.72367 C 724.34463,359.67086 726.29602,349.78872 726.4094,349.16899 C 721.16575,354.07095 713.76303,356.79485 706.5,357.9375 C 665.40562,360.6846 663.00677,266.38399 707.1875,283.6875 C 710.64268,285.31553 713.98296,286.1586 714.625,285.53125 C 715.26701,284.90391 715.37131,280.91002 714.84375,276.6875 C 713.90447,269.1697 713.76966,269.01245 708.78125,268.1875 C 704.81456,267.53152 701.05046,267.22142 697.46875,267.28125 z M 517.15625,269.40625 C 516.51686,270.04564 516.52645,275.88136 517.1875,282 C 517.84857,288.11865 517.96771,310.41615 517.4375,331.53125 C 516.90728,352.64634 516.5008,370.41491 516.875,370.78125 C 517.4466,371.34085 555.36585,369.87343 556.53125,370.78125 C 557.15197,371.26478 557.93213,365.44097 558.46875,361.6875 C 559.3616,355.44236 559.21547,354.9576 556.875,355.875 C 552.53753,357.57512 539.66534,359.36944 537.5625,358.5625 C 535.88609,357.9192 535.62178,350.78209 535.875,313.59375 L 536.1875,269.40625 L 517.15625,269.40625 z M 371.875,268.96875 L 372.8125,271.96875 C 375.12774,279.41958 376.49891,308.27786 375.90625,337.09375 C 375.55094,354.36974 374.88533,366.44202 374.40625,367.59375 C 373.67321,369.35603 375.23318,369.64059 384.34375,369.53125 C 399.88627,369.34474 399.04368,369.73049 398.0625,363.75 C 397.59011,360.87066 396.87443,353.35669 396.5,343.375 C 396.12554,333.39332 395.5202,317.37902 395.15625,307.78125 C 394.51657,290.91203 395.21139,281.26685 397.0625,281.28125 C 397.5529,281.28506 399.73432,282.69942 401.90625,284.4375 C 405.50741,287.3193 405.94122,288.59927 406.65625,299.03125 C 407.43285,310.36157 405.30217,323.15625 402.65625,323.15625 C 400.77179,323.15625 401.22619,327.02971 403.1875,327.6875 C 406.36828,328.75426 414.23208,326.21873 417.625,323.03125 C 430.47554,310.95877 429.56445,280.15162 416.125,272.71875 C 412.99343,270.98678 406.87831,269.51488 391.90625,268.96875 L 371.875,268.96875 z M 737.65625,269.0625 L 738.78125,277.59375 C 739.98184,286.92739 739.72196,359.19208 738.46875,365.34375 C 738.04241,367.43653 738.07122,369.75567 738.53125,370.5 C 739.01465,371.28213 749.328,371.89151 762.96875,371.9375 C 789.09298,372.02555 786.99326,372.8305 788.71875,362.25 C 789.15702,359.56262 788.927,356.4337 788.21875,355.3125 C 787.11315,353.56224 786.5381,353.62571 784.15625,355.78125 C 780.2798,359.28938 765.69718,360.57368 763.25,357.625 C 762.18265,356.33895 761.26416,350.1309 760.9375,342.09375 C 760.43922,329.8348 760.38048,328.11692 763.375,325.90625 C 766.88757,323.31313 767.47309,324.21813 771.53125,326.09375 C 776.76771,328.51396 776.95663,327.95802 775.84375,318.96875 L 774.90625,311.28125 C 773.27227,309.26812 770.97339,310.912 768.90625,311.28125 C 762.77394,311.28125 759.59947,308.8592 760.9375,305.21875 C 761.31337,304.19618 761.625,298.95193 761.625,293.5625 L 761.625,283.78125 L 770.34375,284.28125 C 773.1567,284.28193 777.6836,286.85353 779.09375,284.75 L 779.09375,277.28125 L 779.09375,269.8125 L 758.375,269.4375 L 737.65625,269.0625 z M 447.15625,270.09375 C 447.89547,274.39511 448.78663,275.25174 447.9375,279.28125 L 430.34375,363.84375 L 427.40625,370.40625 L 445.53125,370.40625 L 443.875,360.15625 L 448.5,339.8125 L 467.71875,339.8125 L 471,352.21875 L 472.3125,357.25 C 474.77161,361.49161 472.7516,366.86831 472.34375,370.625 L 485.5625,370.625 C 499.90217,370.625 499.34498,371.19598 498.25,366.78125 C 497.91911,365.44716 495.127,362.14358 493.96875,357.96875 L 470.34375,270.125 L 458.75,270.125 L 447.15625,270.09375 z M 591.15625,270.09375 C 591.89547,274.39511 592.78663,275.25174 591.9375,279.28125 L 574.34375,363.84375 L 571.40625,370.40625 L 589.53125,370.40625 L 587.875,360.15625 L 592.5,339.8125 L 611.71875,339.8125 L 615,352.21875 L 616.3125,357.25 C 618.77164,361.49161 616.7516,366.86831 616.34375,370.625 L 629.5625,370.625 C 643.90217,370.625 643.34498,371.19598 642.25,366.78125 C 641.91911,365.44716 639.127,362.14358 637.96875,357.96875 L 614.34375,270.125 L 602.75,270.125 L 591.15625,270.09375 z M 458.28125,298.03125 L 463.21875,327.09375 L 451.59375,327.09375 L 458.28125,298.03125 z M 602.28125,298.03125 L 607.21875,327.09375 L 595.59375,327.09375 L 602.28125,298.03125 z"
         id="path2396"
         style="fill:#1b4148;fill-opacity:1" />
      <path
         d="M 147,0 C 118.95432,0.15520735 69.828367,6.603695 60,10.125 C 47.73671,14.51869 28.12715,16.586608 0,77.28125 C 0.99855,112.97851 153.19575,86.029549 74.28125,38.6875 C 64.67224,42.94917 56.9121,44.593909 51.78125,55.125 C 75.78654,55.12894 83.02524,64.163749 69.65625,72.625 C 56.28726,81.08625 19.00357,82.822373 14.28125,71.5625 C 32.9095,14.13439 114.06849,9.1988404 149.28125,15.84375 C 184.37037,22.46532 200.95238,22.49256 230,12.96875 C 205.74234,12.86298 179.6336,7.02507 164.28125,1.5625 C 161.06228,0.41714469 154.85279,-0.043458057 147,0 z M 121.53125,39.25 C 115.54636,39.84554 112.22858,43.11691 108.875,46.34375 C 107.64974,142.24063 104.42159,247.04051 124.0625,250.34375 C 123.43472,180.11331 128.1824,113.09446 121.53125,39.25 z M 146.8125,44.3125 C 140.82761,44.90804 137.54108,48.179409 134.1875,51.40625 C 132.96224,147.30313 129.70284,252.103 149.34375,255.40625 C 148.71597,185.17581 153.46365,118.15696 146.8125,44.3125 z M 91.71875,95.71875 C 85.73386,96.31429 80.41608,99.58566 77.0625,102.8125 C 75.83724,198.70938 80.60909,243.50926 100.25,246.8125 C 99.62222,176.58206 98.369899,169.56321 91.71875,95.71875 z M 531.6875,276.375 C 445.99331,276.95333 394.30329,277.95001 301,277.375 C 213.84527,282.78565 163.71351,284.50405 92.84375,284.3125 C 84.47071,292.35703 83.550712,294.33046 82.6875,302.375 C 215.7341,294.61226 414.78087,288.17846 531.6875,276.375 z M 429.28125,306.8125 C 378.76826,306.9776 327.31562,309.69456 275.34375,313.75 C 188.18902,320.49066 133.02601,320.83238 62.15625,320.59375 C 53.78321,330.61574 52.863209,333.07176 52,343.09375 C 234.90056,338.49692 361.14474,306.4029 549.5,315.875 L 545.21875,311.59375 C 507.2904,308.09675 468.56913,306.68409 429.28125,306.8125 z M 480.8125,353.625 C 409.20807,353.74024 331.03865,361.14095 255.34375,359.75 C 169.59949,358.02782 111.3904,370.64607 40.15625,372.59375 C 31.78321,382.61574 26.863209,377.07176 26,387.09375 C 192.02004,379.05158 353.17522,357.47352 543.5,359.875 L 539.21875,355.59375 C 520.3984,354.1329 500.86174,353.59273 480.8125,353.625 z"
         transform="translate(201.42857,110.52823)"
         id="path3199"
         style="fill:#1b4148;fill-opacity:1;fill-rule:evenodd;stroke:none;stroke-width:1px;stroke-linecap:butt;stroke-linejoin:miter;stroke-opacity:1" />
    </g>
  </g>
</svg>
