<?xml version="1.0" encoding="UTF-8" standalone="no"?>
<!-- Created with Inkscape (http://www.inkscape.org/) -->
<svg
   xmlns:dc="http://purl.org/dc/elements/1.1/"
   xmlns:cc="http://creativecommons.org/ns#"
   xmlns:rdf="http://www.w3.org/1999/02/22-rdf-syntax-ns#"
   xmlns:svg="http://www.w3.org/2000/svg"
   xmlns="http://www.w3.org/2000/svg"
   xmlns:xlink="http://www.w3.org/1999/xlink"
   xmlns:sodipodi="http://sodipodi.sourceforge.net/DTD/sodipodi-0.dtd"
   xmlns:inkscape="http://www.inkscape.org/namespaces/inkscape"
   version="1.0"
   width="999.81116"
   height="999.81146"
   id="svg2"
   sodipodi:version="0.32"
   inkscape:version="0.46"
   sodipodi:docname="LogoPlaneteNoLimit.svg"
   inkscape:output_extension="org.inkscape.output.svg.inkscape">
  <metadata
     id="metadata76">
    <rdf:RDF>
      <cc:Work
         rdf:about="">
        <dc:format>image/svg+xml</dc:format>
        <dc:type
           rdf:resource="http://purl.org/dc/dcmitype/StillImage" />
      </cc:Work>
    </rdf:RDF>
  </metadata>
  <sodipodi:namedview
     inkscape:window-height="652"
     inkscape:window-width="640"
     inkscape:pageshadow="2"
     inkscape:pageopacity="0.0"
     guidetolerance="10.0"
     gridtolerance="10.0"
     objecttolerance="10.0"
     borderopacity="1.0"
     bordercolor="#666666"
     pagecolor="#ffffff"
     id="base"
     showgrid="false"
     inkscape:zoom="0.50009429"
     inkscape:cx="499.90558"
     inkscape:cy="499.90573"
     inkscape:window-x="275"
     inkscape:window-y="275"
     inkscape:current-layer="svg2" />
  <defs
     id="defs4">
    <linearGradient
       id="linearGradient3788">
      <stop
         id="stop3790"
         style="stop-color:#30555c;stop-opacity:1"
         offset="0" />
      <stop
         id="stop3792"
         style="stop-color:#727272;stop-opacity:1"
         offset="0.3357068" />
      <stop
         id="stop3794"
         style="stop-color:#ffffff;stop-opacity:1"
         offset="1" />
    </linearGradient>
    <linearGradient
       id="linearGradient3531">
      <stop
         id="stop3533"
         style="stop-color:#b22328;stop-opacity:1"
         offset="0" />
      <stop
         id="stop3535"
         style="stop-color:#b22328;stop-opacity:0"
         offset="1" />
    </linearGradient>
    <linearGradient
       id="linearGradient3452">
      <stop
         id="stop3454"
         style="stop-color:#ffffff;stop-opacity:1"
         offset="0" />
      <stop
         id="stop3515"
         style="stop-color:#ffffff;stop-opacity:0.81568629"
         offset="0.73732883" />
      <stop
         id="stop3513"
         style="stop-color:#d54d1e;stop-opacity:0.98360658"
         offset="0.87491846" />
      <stop
         id="stop3519"
         style="stop-color:#821b2e;stop-opacity:0.07377049"
         offset="1" />
      <stop
         id="stop3517"
         style="stop-color:#ff030e;stop-opacity:0.09836066"
         offset="1" />
    </linearGradient>
    <linearGradient
       id="linearGradient3435">
      <stop
         id="stop3437"
         style="stop-color:#863636;stop-opacity:1"
         offset="0" />
      <stop
         id="stop3439"
         style="stop-color:#863636;stop-opacity:0"
         offset="1" />
    </linearGradient>
    <linearGradient
       id="linearGradient3402">
      <stop
         id="stop3404"
         style="stop-color:#dd2e0d;stop-opacity:1"
         offset="0" />
      <stop
         id="stop3406"
         style="stop-color:#d62a21;stop-opacity:0"
         offset="1" />
    </linearGradient>
    <linearGradient
       x1="-202.28505"
       y1="1001.8268"
       x2="1089.9105"
       y2="-266.75479"
       id="linearGradient3786"
       xlink:href="#linearGradient3788"
       gradientUnits="userSpaceOnUse"
       gradientTransform="translate(-119.6511,-180)" />
    <radialGradient
       cx="1112.9458"
       cy="806.93372"
       r="101.4099"
       fx="1112.9458"
       fy="806.93372"
       id="radialGradient3796"
       xlink:href="#linearGradient3402"
       gradientUnits="userSpaceOnUse"
       gradientTransform="matrix(1,0,0,0.8666372,0,107.59679)" />
    <radialGradient
       cx="1001.25"
       cy="755.10938"
       r="9.1562252"
       fx="1001.25"
       fy="755.10938"
       id="radialGradient3798"
       xlink:href="#linearGradient3435"
       gradientUnits="userSpaceOnUse"
       gradientTransform="matrix(1.3900547,-3.1921591e-6,1.3084967e-5,5.6979678,-390.55214,-3547.4763)" />
    <radialGradient
       cx="1106.2677"
       cy="591.82971"
       r="69.765648"
       fx="1106.2677"
       fy="591.82971"
       id="radialGradient3800"
       xlink:href="#linearGradient3452"
       gradientUnits="userSpaceOnUse"
       gradientTransform="matrix(2.6047794,1.7531701e-7,-1.3085976e-7,1.9442541,-1766.3679,-575.81232)" />
    <radialGradient
       cx="1162.9688"
       cy="699.5033"
       r="17.42515"
       fx="1162.9688"
       fy="699.5033"
       id="radialGradient3802"
       xlink:href="#linearGradient3531"
       gradientUnits="userSpaceOnUse"
       gradientTransform="matrix(1,0,0,1.416665,0,-291.45852)" />
    <radialGradient
       cx="1162.9688"
       cy="699.5033"
       r="17.42515"
       fx="1162.9688"
       fy="699.5033"
       id="radialGradient3804"
       xlink:href="#linearGradient3531"
       gradientUnits="userSpaceOnUse"
       gradientTransform="matrix(0.8858298,-0.4640102,0.657347,1.2549241,-358.19017,329.9522)" />
    <radialGradient
       cx="1125.9114"
       cy="803.16882"
       r="101.4099"
       fx="1125.9114"
       fy="803.16882"
       id="radialGradient3806"
       xlink:href="#linearGradient3402"
       gradientUnits="userSpaceOnUse"
       gradientTransform="matrix(1.4046048,0,0,0.9708732,-454.94333,20.711855)" />
  </defs>
  <g
     transform="translate(342.25814,149.54226)"
     id="layer3"
     style="display:inline">
    <path
       d="M -342.25814,-149.54226 L 657.553,-149.54226 L 657.553,850.2692 L -342.25814,850.2692 L -342.25814,-149.54226 z"
       id="path2450"
       style="fill:url(#linearGradient3786);fill-opacity:1;fill-rule:nonzero;stroke:none" />
    <path
       d="M -208.83641,517.89949 L -208.83641,539.91329 L 40.931,539.91329 C 43.3628,532.17007 46.6264,524.87479 50.53,517.89949 L -208.83641,517.89949"
       id="path2454"
       style="fill:#ffffff;fill-rule:nonzero;stroke:none" />
    <path
       d="M 35.8755,565.25483 L -208.83641,565.25483 L -208.83641,587.20464 L 36.0035,587.20464 C 35.6195,583.36503 35.4275,579.39743 35.4275,575.36581 C 35.4275,571.97415 35.6195,568.58249 35.8755,565.25483"
       id="path2456"
       style="fill:#ffffff;fill-rule:nonzero;stroke:none" />
    <path
       d="M -208.83641,612.61014 L -208.83641,634.55999 L 51.5539,634.55999 C 47.5223,627.64865 44.1307,620.2894 41.5069,612.61014 L -208.83641,612.61014"
       id="path2458"
       style="fill:#ffffff;fill-rule:nonzero;stroke:none" />
    <path
       d="M 515.1243,539.91329 L 515.1243,517.89949 L 254.222,517.89949 C 258.1256,524.87479 261.3893,532.17007 263.821,539.91329 L 515.1243,539.91329"
       id="path2460"
       style="fill:#ffffff;fill-rule:nonzero;stroke:none" />
    <path
       d="M 268.6846,587.20464 L 515.1243,587.20464 L 515.1243,565.25483 L 268.8766,565.25483 C 269.1325,568.58249 269.3245,571.97415 269.3245,575.36581 C 269.3245,579.39743 269.1325,583.36503 268.6846,587.20464"
       id="path2462"
       style="fill:#ffffff;fill-rule:nonzero;stroke:none" />
    <path
       d="M 515.1243,634.55999 L 515.1243,612.61014 L 263.2451,612.61014 C 260.6214,620.2894 257.2937,627.64865 253.1981,634.55999 L 515.1243,634.55999"
       id="path2464"
       style="fill:#ffffff;fill-rule:nonzero;stroke:none" />
    <path
       d="M -179.12769,48.15872 L -168.43744,48.15872 C -150.40569,48.15872 -144.80297,53.76146 -144.80297,72.88798 C -144.80297,92.01453 -150.40569,97.61723 -168.43744,97.61723 L -179.12769,97.61723 L -179.12769,48.15872 L -179.12769,48.15872 z M -179.12769,186.23041 L -179.12769,120.28573 L -167.08506,120.28573 C -133.0179,120.28573 -117.2401,107.14831 -117.2401,72.88798 C -117.2401,38.62767 -133.0179,25.49026 -167.08506,25.49026 L -206.69051,25.49026 L -206.69051,186.23041 L -179.12769,186.23041"
       id="path2466"
       style="fill:#ffffff;fill-rule:nonzero;stroke:none" />
    <path
       d="M -94.5073,186.23041 L -94.5073,25.49026 L -66.8156,25.49026 L -66.8156,162.14517 L -23.3462,162.14517 L -23.3462,186.23041 L -94.5073,186.23041"
       id="path2468"
       style="fill:#ffffff;fill-rule:nonzero;stroke:none" />
    <path
       d="M 40.6665,57.4966 L 41.1173,57.4966 L 52.0007,126.53246 L 29.7186,126.53246 L 40.6665,57.4966 z M 25.7259,150.55334 L 56.0579,150.55334 L 60.9522,186.23041 L 87.6778,186.23041 L 58.0542,25.49026 L 23.6651,25.49026 L -5.9585,186.23041 L 20.7672,186.23041 L 25.7259,150.55334"
       id="path2470"
       style="fill:#ffffff;fill-rule:nonzero;stroke:none" />
    <path
       d="M 114.8543,186.23041 L 114.8543,25.49026 L 140.4207,25.49026 L 174.037,117.38778 L 174.4878,117.38778 L 174.4878,25.49026 L 199.4103,25.49026 L 199.4103,186.23041 L 175.3894,186.23041 L 140.2275,85.7678 L 139.7767,85.7678 L 139.7767,186.23041 L 114.8543,186.23041"
       id="path2472"
       style="fill:#ffffff;fill-rule:nonzero;stroke:none" />
    <path
       d="M 237.277,186.23041 L 237.277,25.49026 L 311.2071,25.49026 L 311.2071,49.51113 L 264.9042,49.51113 L 264.9042,90.91975 L 300.5169,90.91975 L 300.5169,114.94062 L 264.9042,114.94062 L 264.9042,162.14517 L 314.2983,162.14517 L 314.2983,186.23041 L 237.277,186.23041"
       id="path2474"
       style="fill:#ffffff;fill-rule:nonzero;stroke:none" />
    <path
       d="M 363.2416,49.51113 L 336.5804,49.51113 L 336.5804,25.49026 L 417.5945,25.49026 L 417.5945,49.51113 L 390.8688,49.51113 L 390.8688,186.23041 L 363.2416,186.23041 L 363.2416,49.51113"
       id="path2476"
       style="fill:#ffffff;fill-rule:nonzero;stroke:none" />
    <path
       d="M 444.9641,186.23041 L 444.9641,25.49026 L 518.8943,25.49026 L 518.8943,49.51113 L 472.5913,49.51113 L 472.5913,90.91975 L 508.204,90.91975 L 508.204,114.94062 L 472.5913,114.94062 L 472.5913,162.14517 L 521.9854,162.14517 L 521.9854,186.23041 L 444.9641,186.23041"
       id="path2478"
       style="fill:#ffffff;fill-rule:nonzero;stroke:none" />
    <path
       d="M 109.7882,641.79129 C 109.7882,641.79129 109.7242,641.7273 109.7882,641.79129 C 114.2678,640.3834 120.7951,637.5037 130.9701,631.16832 C 120.7951,637.56768 114.2678,640.44739 109.7882,641.79129"
       id="path2480"
       style="fill:#005cab;fill-rule:nonzero;stroke:none" />
    <g
       transform="translate(-938.6413,-180)"
       id="g3554">
      <path
         d="M 1090.2824,851.72442 C 1034.3478,851.72442 988.8075,806.24916 988.8075,750.31454 C 988.8075,694.44491 1034.3478,648.96962 1090.2824,648.96962 C 1146.152,648.96962 1191.6273,694.44491 1191.6273,750.31454 C 1191.6273,806.24916 1146.152,851.72442 1090.2824,851.72442"
         id="path3410"
         style="fill:url(#radialGradient3796);fill-opacity:1;fill-rule:nonzero;stroke:none" />
      <path
         d="M 1090.2824,851.72442 C 1034.3478,851.72442 988.8075,806.24916 988.8075,750.31454 C 988.8075,694.44491 1034.3478,648.96962 1090.2824,648.96962 C 1146.152,648.96962 1191.6273,694.44491 1191.6273,750.31454 C 1191.6273,806.24916 1146.152,851.72442 1090.2824,851.72442"
         id="path2564"
         style="fill:#9d272b;fill-opacity:1;fill-rule:nonzero;stroke:none" />
      <path
         d="M 1020.9375,680.9375 C 1003.1185,698.70094 992.09374,723.25005 992.09375,750.3125 C 992.09375,804.43653 1036.1572,848.43751 1090.2812,848.4375 L 1119.4688,826.46875 C 1087.4874,826.46876 1005.75,793.56877 1005.75,731.25 C 1005.75,713.73129 1011.5745,695.99033 1020.9375,680.9375 z"
         id="path2566"
         style="fill:#b63238;fill-opacity:1;fill-rule:nonzero;stroke:none" />
      <path
         d="M 1004.3125,702.9375 C 996.51934,716.99149 992.09374,733.14505 992.09375,750.3125 C 992.09375,771.5423 998.89951,791.2109 1010.4062,807.28125 C 1001.8656,789.14626 997.0625,768.93367 997.0625,747.59375 C 997.06245,731.99273 999.5963,716.97538 1004.3125,702.9375 z"
         id="path3420"
         style="fill:url(#radialGradient3798);fill-opacity:1;fill-rule:nonzero;stroke:none" />
      <path
         d="M 1186.07,725.53125 C 1191.8109,770.63817 1180.4263,818.71626 1108.4137,822.375 C 1091.4048,850.80668 1070.305,848.68631 1038.1013,833.59375 C 1053.3464,843.25122 1071.4158,848.875 1090.7575,848.875 C 1145.0523,848.875 1189.2263,804.67061 1189.2263,750.3125 C 1189.2263,741.75035 1188.1343,733.45729 1186.07,725.53125 z"
         id="path3447"
         style="opacity:1;fill:#ffffff;fill-opacity:1;fill-rule:nonzero;stroke:none;stroke-opacity:1" />
      <path
         d="M 1086.6562,657.0625 C 1052.8958,657.92018 1024.0588,678.96761 1011.8125,708.53125 C 1048.5458,682.96667 1086.5781,677.61038 1127.2188,713.78125 L 1151.3438,685.46875 C 1136.0864,668.06763 1113.7117,657.0625 1088.8125,657.0625 C 1088.0953,657.0625 1087.3692,657.04439 1086.6562,657.0625 z"
         id="path3472"
         style="opacity:1;fill:url(#radialGradient3800);fill-opacity:1;fill-rule:nonzero;stroke:none" />
      <path
         d="M 1145.5435,674.81767 C 1171.5651,693.34216 1173.6509,705.85681 1180.3938,724.18887 L 1172.9439,717.24408 C 1167.4814,691.14524 1157.5857,689.0337 1145.5435,674.81767 z"
         id="path3521"
         style="opacity:1;fill:url(#radialGradient3802);fill-opacity:1;fill-rule:evenodd;stroke:none;stroke-width:1px;stroke-linecap:butt;stroke-linejoin:miter;stroke-opacity:1" />
      <path
         d="M 1104.9285,654.36464 C 1136.5748,658.69989 1144.2293,668.81791 1158.7086,681.92822 L 1150.6726,678.87601 C 1133.7236,658.29154 1122.1921,661.36991 1104.9285,654.36464 z"
         id="path3539"
         style="opacity:1;fill:url(#radialGradient3804);fill-opacity:1;fill-rule:evenodd;stroke:none;stroke-width:1px;stroke-linecap:butt;stroke-linejoin:miter;stroke-opacity:1" />
      <path
         d="M 1090.2824,851.7244 C 1034.3478,851.7244 988.8075,806.2492 988.8075,750.31454 C 988.8075,694.44491 1034.3478,648.96962 1090.2824,648.96962 C 1146.152,648.96962 1191.6273,694.44491 1191.6273,750.31454 C 1191.6273,806.2492 1146.152,851.7244 1090.2824,851.7244"
         id="path3384"
         style="fill:url(#radialGradient3806);fill-opacity:1;fill-rule:nonzero;stroke:none;display:inline" />
    </g>
    <path
       d="M -38.5625,255.23041 C -70.443,255.23042 -78.9375,277.89153 -78.9375,298.07416 L -78.9375,377.35541 C -78.9375,377.35539 -78.7472,420.23041 -38.5625,420.23041 C 2.3352,420.23042 -1.4375,377.35541 -1.4375,377.35541 L -1.4375,298.07416 C -1.4375,283.68717 -6.1797,255.23041 -38.5625,255.23041 z M -39.5,278.29291 C -26.5105,278.29291 -24.5937,289.83886 -24.5938,295.66791 L -24.5938,377.79291 C -24.5938,377.79291 -23.0948,395.13666 -39.5,395.13666 C -55.619,395.13666 -55.6875,377.79289 -55.6875,377.79291 L -55.6875,295.66791 C -55.6875,287.4907 -52.2879,278.29291 -39.5,278.29291 z"
       id="path3609"
       style="fill:#ffffff;fill-opacity:1;fill-rule:evenodd;stroke:none;stroke-width:1px;stroke-linecap:butt;stroke-linejoin:miter;stroke-opacity:1" />
    <path
       d="M 83.4927,420.23041 L 83.4927,259.49026 L 111.1844,259.49026 L 111.1844,396.14517 L 154.6538,396.14517 L 154.6538,420.23041 L 83.4927,420.23041"
       id="path3691"
       style="fill:#ffffff;fill-rule:nonzero;stroke:none" />
    <path
       d="M -206.69051,420.23041 L -206.69051,259.49026 L -181.12411,259.49026 L -147.50781,351.38778 L -147.05701,351.38778 L -147.05701,259.49026 L -122.1343,259.49026 L -122.1343,420.23041 L -146.15541,420.23041 L -181.31731,319.7678 L -181.76811,319.7678 L -181.76811,420.23041 L -206.69051,420.23041"
       id="path3693"
       style="fill:#ffffff;fill-rule:nonzero;stroke:none" />
    <path
       d="M 177.4927,420.23041 L 177.4927,259.49026 L 203.0415,259.49026 L 203.0415,420.23041 L 177.4927,420.23041"
       id="path3695"
       style="fill:#ffffff;fill-rule:nonzero;stroke:none" />
    <path
       d="M 395.4927,420.23041 L 395.4927,259.49026 L 421.0415,259.49026 L 421.0415,420.23041 L 395.4927,420.23041"
       id="path3697"
       style="fill:#ffffff;fill-rule:nonzero;stroke:none" />
    <path
       d="M 240.1875,259.51166 L 240.1875,420.23041 L 265.0938,420.23041 L 265.0938,319.79291 L 265.5625,319.79291 L 288.6562,390.73041 L 300.25,390.76166 L 323.375,319.79291 L 323.8125,319.79291 L 323.8125,420.23041 L 348.75,420.23041 L 348.75,259.51166 L 323.1562,259.51166 L 294.4688,341.98041 L 265.75,259.51166 L 240.1875,259.51166 z"
       id="path3699"
       style="fill:#ffffff;fill-rule:nonzero;stroke:none" />
    <path
       d="M 467.6325,283.51113 L 440.9713,283.51113 L 440.9713,259.49026 L 521.9854,259.49026 L 521.9854,283.51113 L 495.2597,283.51113 L 495.2597,420.23041 L 467.6325,420.23041 L 467.6325,283.51113"
       id="path3704"
       style="fill:#ffffff;fill-rule:nonzero;stroke:none" />
  </g>
</svg>
