<?xml version="1.0" encoding="UTF-8" standalone="no"?>
<svg xmlns:dc="http://purl.org/dc/elements/1.1/" xmlns:cc="http://creativecommons.org/ns#" xmlns:rdf="http://www.w3.org/1999/02/22-rdf-syntax-ns#" xmlns:svg="http://www.w3.org/2000/svg" xmlns="http://www.w3.org/2000/svg" xmlns:xlink="http://www.w3.org/1999/xlink" id="svg2" width="208" height="68">
	<style type="text/css" id="style">
		path{fill:#fff;}
	</style>
	<g id="calque">
		<path style="fill:#231f20" d="M 2.01,7.89 C 1.83,4.76 4.94,2.14 7.94,2.15 16,2.07 24.05,2.11 32.11,2.13 37.06,2.1 41.56,4.8 44.83,8.36 48.14,4.63 52.96,2.21 58.01,2.38 65.76,2.7 74.56,0.74 81.1,6.12 82.43,4.51 83.93,2.71 86.16,2.5 90.13,2.22 94.12,2.37 98.1,2.4 c 3.48,-0.16 6.76,2.93 6.66,6.44 0.06,6.25 0.06,12.51 -0.03,18.77 3.04,0.13 6.08,0.12 9.12,0.08 -0.03,-6.26 -0.04,-12.52 -0.02,-18.78 -0.23,-3.36 2.64,-6.77 6.07,-6.76 4.05,-0.05 8.1,-0.16 12.14,0.07 2.24,0.16 3.58,2.14 4.9,3.7 5.65,-4.7 13.3,-3.37 20.06,-3.55 4.4,0.08 9.77,-1.02 12.73,3.17 5.82,-4.47 13.47,-2.87 20.26,-3.18 3.54,0.25 7.86,-0.94 10.63,1.93 3.22,3.05 1.59,7.89 1.98,11.79 0.41,2.64 -1.11,4.83 -2.79,6.67 -0.03,1.85 -0.09,3.7 0.04,5.55 0.75,1.66 2.47,2.89 2.65,4.79 0.3,3.91 0,7.82 -0.05,11.73 0.72,4.76 2.26,9.4 2.54,14.22 0.44,3.8 -3.07,7.4 -6.9,6.85 C 139.73,65.88 81.38,65.88 23.03,65.89 18.7,65.86 13.98,66.3 10.16,63.85 5.62,60.74 1.64,55.76 1.99,49.97 2.02,35.94 1.97,21.92 2.01,7.89 z" id="fond"/>
		<path d="m 7.25,10.21 c 7.9,0 15.8,-0.51 23.71,-0.45 5.29,0 10.19,4.82 9.94,10.18 0.42,7.78 0.28,15.57 0.48,23.35 -3.74,0.04 -7.48,0.13 -11.21,0.15 -0.06,-6.82 -0.45,-13.63 -0.39,-20.46 -0.14,-1.75 0.44,-4.43 -1.86,-5 -3.11,-0.12 -6.21,0.22 -9.32,0.19 0.16,9.95 0.23,19.9 0.64,29.84 0.34,1.75 2.3,1.63 3.66,1.61 57.1,-1.04 114.21,-2.09 171.31,-3.1 1.43,3.65 2.8,7.31 4.32,10.92 C 138.68,58.57 78.84,59.64 18.99,60.7 13.42,61.35 8,56.64 7.9,51.03 7.69,37.43 7.41,23.82 7.25,10.21 z" id="N"/>
		<path d="M 70.03125 9.375 C 69.699626 9.3654077 69.364375 9.3775 69.03125 9.40625 C 63.78125 9.77625 58.39 9.00875 53.25 10.21875 C 49.27 11.66875 46.2925 15.73125 46.5625 20.03125 C 46.6025 24.35125 46.69125 28.68 46.78125 33 C 46.75125 38.26 51.58625 43.185 56.90625 42.875 C 61.30625 42.865 65.725 42.81875 70.125 42.71875 C 75.665 42.82875 80.4025 37.55375 80.0625 32.09375 C 79.8925 27.70375 79.84 23.29625 79.75 18.90625 C 79.675 13.853125 75.005603 9.5188843 70.03125 9.375 z M 62.59375 17.46875 C 64.10625 17.48375 65.6475 17.66875 67.0625 17.59375 C 69.6325 18.62375 68.41 21.89 68.75 24 C 68.41 27.36 69.6475 31.0675 68.1875 34.1875 C 65.4075 35.2775 62.19 34.7975 59.25 34.6875 C 56.81 33.0175 58.18125 29.49 57.78125 27 C 58.11125 24.19 56.855 20.795 58.375 18.375 C 59.6 17.6 61.08125 17.45375 62.59375 17.46875 z " id="O"/>
		<path d="m 86.19,9.2 c 3.66,-0.06 7.33,-0.24 10.99,-0.36 0.16,7.42 0.22,14.85 0.38,22.27 -0.06,1.2 0.32,2.39 1.46,2.96 4.75,0.34 9.5,-0.17 14.25,-0.25 0.02,2.69 0.07,5.37 0.16,8.05 -5.46,0.38 -10.93,0.29 -16.39,0.41 C 91.5,42.64 86.37,37.57 86.56,32.04 86.42,24.43 86.32,16.81 86.19,9.2 z" id="L"/>
		<path d="m 119.31,8.19 c 3.45,-0.02 6.89,-0.12 10.33,-0.36 0.21,11.26 0.48,22.51 0.73,33.76 -3.5,0.13 -6.99,0.19 -10.49,0.15 -0.21,-11.18 -0.35,-22.36 -0.57,-33.55 z" id="I"/>
		<path d="m 146,8.05 c 5.61,-0.37 11.24,-0.17 16.86,-0.32 -0.02,2.66 0.02,5.32 0.09,7.98 -4.64,0.31 -9.35,-0.23 -13.95,0.47 -2.11,0.39 -1.43,2.9 -1.69,4.43 4.31,-0.02 8.62,-0.14 12.94,-0.22 0.06,2.69 0.08,5.39 0.17,8.08 -4.29,0.04 -8.58,0.1 -12.87,0.23 0.15,4.2 0.19,8.41 0.22,12.62 -3.68,0.1 -7.36,0.22 -11.04,0.12 0.02,-7.81 -0.25,-15.62 -0.32,-23.43 -0.12,-5.13 4.44,-9.92 9.59,-9.96 z" id="F"/>
		<path d="m 168.55,18.02 c -0.43,-5.29 4.17,-10.46 9.49,-10.56 5.68,-0.15 11.36,-0.21 17.05,-0.22 0.01,2.65 0.05,5.3 0.06,7.95 -4.6,0.2 -9.21,0 -13.8,0.3 -2.26,0.38 -1.81,3 -1.77,4.67 4.26,-0.23 8.52,-0.34 12.78,-0.38 0.08,2.68 0.12,5.35 0.2,8.03 -4.34,0.06 -8.67,0.11 -13,0.4 0.24,1.46 -0.03,3.85 1.84,4.34 4.68,0.27 9.38,-0.18 14.08,-0.08 -0.02,2.65 0.04,5.3 0.15,7.94 -5.57,0.18 -11.14,0.28 -16.71,0.33 -5.28,0.3 -10.08,-4.47 -10.16,-9.69 -0.13,-4.34 -0.15,-8.69 -0.21,-13.03 z" id="E"/>
	</g>
</svg>