<svg xmlns="http://www.w3.org/2000/svg" width="510.502" height="876.44" viewBox="-0.5 -67.721 510.502 876.44" enable-background="new -0.5 -67.721 510.502 876.44"><g><path fill="#87B919" d="M19.063 32.9c-10.76 2.287-19.563 13.158-19.563 24.158v626.883c0 11 8.803 21.87 19.563 24.157l471.373 100.193c10.76 2.287 19.563-4.842 19.563-15.842v-843.901c0-11-8.803-18.129-19.563-15.842l-471.373 100.194z"/><linearGradient id="a" gradientUnits="userSpaceOnUse" x1="218.872" y1="906.117" x2="293.251" y2="55.958" gradientTransform="matrix(1 0 0 -1 4 871.441)"><stop offset="0" stop-color="#ABC969"/><stop offset=".25" stop-color="#95CC1C"/><stop offset=".5" stop-color="#A6D16F"/><stop offset="1" stop-color="#87B919"/></linearGradient><path fill="url(#a)" d="M23.744 40.411c-10.76 2.287-19.563 13.158-19.563 24.158v611.86c0 11 8.803 21.871 19.563 24.158l459.875 97.749c10.758 2.287 19.563-4.842 19.563-15.842v-823.991c0-11-8.805-18.129-19.563-15.842l-459.875 97.75z"/><path fill="#87B919" d="M5.25 44.569s504.75-116.021 504.75 123.206l.002 257.853c-60.502 216.872-188.377 198.872-188.377 198.872s-307.248 84.704-319.979-333.394c-5.931-136.053 3.604-246.537 3.604-246.537z"/><linearGradient id="b" gradientUnits="userSpaceOnUse" x1="282.759" y1="712.542" x2="371.534" y2="209.076" gradientTransform="matrix(1 0 0 -1 4 871.441)"><stop offset=".5" stop-color="#fff"/><stop offset="1" stop-color="#BFBFBF"/></linearGradient><path fill="url(#b)" d="M153.298 453.088l109.77 17.725c13.736-16.287 31.358-28.029 61.177-28.029 38.93 0 66.09 13.696 66.09 63.011 0 52.729-26.291 68.666-65.021 68.666-46.412 0-61.365-28.39-64.234-52.828h-127.69c0 80.317 52.599 144.854 185.907 144.854 102.104 0 170.586-35.428 190.703-111.765v-101.375c-20.576-76.208-89.389-100.443-156.408-100.443-27.778 0-63.948 11.17-79.639 24.775 0 0-.949-.978-1.24-.828l9.488-88.346h227.799v-111.074h-328.332l-28.37 275.657z"/><path d="M463.68 93.73c-12.406 0-13.084 6.922-13.77 12.679h24.959c.001-6.619-1.339-12.679-11.189-12.679z" fill="none"/><path d="M247.772 124.411c0 5.882 4.608 6.748 7.986 6.748 9.135 0 12.955-4.877 12.842-12.268v-5.857c-.574.341-1.217.677-1.742.876-7.172 3.353-19.086 0-19.086 10.501z" fill="none"/><path fill="#fff" d="M283.236 125.306v-24.214c0-13.886-7.301-18.875-23.01-18.875-19.146 0-25.097 7.268-25.424 16.918v2.492h13.907c.475-4.676 0-8.764 10.767-8.764 7.254 0 9.121 2.684 9.121 6.694 0 2.612-.578 4.793-1.445 5.529-3.118 2.193-19.49 1.317-26.766 4.479-4.391 2.145-7.897 5.863-7.897 14.113 0 11.494 6.07 18.448 20.867 18.448 7.675 0 12.563-1.313 16.594-8.36.721 1.289 1.385 3.345 3.006 4.774 2.1 1.729 4.178 2.058 6.903 2.058h7.593v-11.068c-1.851.101-2.938-.458-3.4-.765-.468-.305-.816-1.077-.816-3.459zm-14.638-6.415c.111 7.391-3.711 12.268-12.842 12.268-3.378 0-7.986-.866-7.986-6.748 0-10.501 11.916-7.148 19.082-10.501.527-.204 1.168-.538 1.742-.876v5.857h.004z"/><path fill="#fff" d="M332.168 82.219c-12.885 0-14.24 5.762-15.332 9.229v-7.731h-14.713v56.884h15.242v-36.677c0-7.811 3.403-9.888 9.764-9.888 7.904 0 10.106 3.272 10.106 8.909v37.653h15.229v-40.261c.001-13.546-7.019-18.118-20.296-18.118z"/><path fill="#fff" d="M202.398 94.359v-10.643h-13.601v56.884h15.216v-30.724c0-2.699.337-8.004 2.853-11.168 2.148-2.598 5.385-3.464 8.891-3.464h9.294v-12.495c-2.515-.323-4.948-.532-7.442-.532-11.53.002-13.072 6.304-15.211 12.142z"/><path fill="#fff" d="M152.675 65.163c-3.394 2.739-4.382 6.177-4.382 10.644v7.91h-7.612v9.792h7.612v47.092h15.209v-47.093h9.549v-9.792h-9.549v-6.067c0-1.517.242-2.254.768-3.039.687-.861 2.669-.983 4.548-.983h4.23v-11.498h-7.964c-3.738 0-9.104.434-12.409 3.034z"/><path fill="#fff" d="M463.034 82.219c-21.408 0-28.627 12.044-28.627 30.157 0 19.872 8.311 29.753 27.943 29.753 22.811 0 25.988-11.289 27.201-18.368h-14.891c-.967 3.39-1.652 6.958-11.066 6.958-10.873 0-14.068-4.67-14.068-13.763h41.029c.871-16.405-2.215-34.737-27.521-34.737zm-13.123 24.19c.686-5.756 1.363-12.679 13.77-12.679 9.85 0 11.189 6.06 11.189 12.679h-24.959z"/><path fill="#fff" d="M395.62 131.058c-9.875 0-12.824-6.854-12.824-19.984 0-9.008 2.303-17.344 13.502-17.344 11.307 0 11.133 5.155 11.922 9.556h14.568c0-11.074-6.479-21.069-25.508-21.069-22.078 0-29.488 12.691-29.488 29.723 0 20.157 10.043 30.187 28.281 30.187 22.471 0 27.189-13.763 27.189-22.7h-15.049c-.783 6.073.006 11.631-12.593 11.631z"/></g></svg>