<?xml version="1.0" encoding="UTF-8" standalone="no"?>
<!-- Created with Inkscape (http://www.inkscape.org/) -->
<svg xmlns:dc="http://purl.org/dc/elements/1.1/" xmlns:cc="http://creativecommons.org/ns#" xmlns:rdf="http://www.w3.org/1999/02/22-rdf-syntax-ns#" xmlns:svg="http://www.w3.org/2000/svg" xmlns="http://www.w3.org/2000/svg" xmlns:xlink="http://www.w3.org/1999/xlink" xmlns:sodipodi="http://sodipodi.sourceforge.net/DTD/sodipodi-0.dtd" xmlns:inkscape="http://www.inkscape.org/namespaces/inkscape" width="735" height="112" id="svg2" version="1.1">
  <g inkscape:label="Layer 1" inkscape:groupmode="layer" id="layer1" transform="translate(316.989, -518.636)">
    <path id="path52329" d="m -212.07188,599.09284 c -9.04936,18.47105 -27.87656,31.13044 -49.63388,31.13044 -30.54766,0 -55.28366,-24.96263 -55.28366,-55.80169 0,-30.80667 24.736,-55.7855 55.28366,-55.7855 15.0391,0 28.62123,6.0383 38.60953,15.83233 l -15.39525,15.50857 c -6.0383,-5.84404 -14.19729,-9.40551 -23.21428,-9.40551 -18.552,0 -33.57491,15.15242 -33.57491,33.85011 0,18.71389 15.02291,33.83393 33.57491,33.83393 8.90367,0 16.99791,-3.49672 23.02002,-9.19506 z" style="fill: rgb(0, 0, 0); fill-rule: nonzero; stroke: none;"/>
    <path id="path52333" d="m -165.30336,521.13721 -3.94999,0 c 0,0 -2.78442,0.17807 -5.63359,1.84549 -2.57397,1.48934 -5.64978,4.6299 -5.64978,4.6299 0,0 -29.52779,30.59623 -31.93987,32.86262 -2.42827,2.21782 -5.50408,3.2215 -9.85878,3.2215 l -36.74785,0 0,0.0486 c -6.6049,0.12951 -11.93091,5.50408 -11.93091,12.14136 0,6.68584 5.43933,12.10898 12.14136,12.10898 l 39.93698,0 c 3.88523,0 7.94854,-0.0162 10.29587,-1.2627 2.34733,-1.27889 3.86905,-2.54159 3.86905,-2.54159 l 22.98764,-23.06858 c 0,0 3.35101,-3.43196 3.35101,-0.40472 l 0,63.39409 c 0,0 -0.16188,6.52396 5.86023,6.52396 l 14.14873,0 c 5.69835,0 5.81167,-6.52396 5.81167,-6.52396 l 0,-86.835 c 0,-8.49896 -4.03093,-16.13992 -12.69177,-16.13992" style="fill: rgb(0, 0, 0); fill-rule: nonzero; stroke: none;"/>
    <path id="path52337" d="m -139.64138,532.88195 c 0,-9.77784 6.66965,-11.99566 13.19361,-11.99566 l 7.09055,0 c 7.56002,0 11.12149,2.9463 13.6307,11.1053 l 21.223102,67.50596 0.307581,0 20.899328,-67.50596 c 2.476837,-8.159 6.038303,-11.1053 13.6307,-11.1053 l 6.799161,0 c 6.523958,0 13.177423,2.21782 13.177423,11.99566 l 0,85.76657 c 0,6.07068 -2.962492,11.84997 -10.813905,11.84997 -7.851412,0 -10.797716,-5.77929 -10.797716,-11.84997 l 0,-65.15863 -0.307581,0 -22.663872,69.86948 c -1.635036,5.06699 -5.342198,7.13912 -10.409192,7.13912 -5.034618,0 -8.74178,-2.07213 -10.360628,-7.13912 l -22.680061,-69.86948 -0.2752,0 0,65.15863 c 0,6.07068 -2.99487,11.84997 -10.8301,11.84997 -7.85141,0 -10.8139,-5.77929 -10.8139,-11.84997 z" style="fill: rgb(0, 0, 0); fill-rule: nonzero; stroke: none;"/>
    <path id="path52341" d="m -18.433375,535.12406 c 0,-10.84628 5.601214,-14.22968 14.1972972,-14.22968 l 57.0805808,0 c 7.106742,0 12.303244,2.07213 12.303244,9.77785 0,7.68952 -5.196502,9.77784 -12.303244,9.77784 l -46.9789693,0 0,24.84931 41.1996813,0 c 6.39445,0 11.412879,1.79693 11.412879,9.34076 0,7.56002 -5.018429,9.34075 -11.412879,9.34075 l -41.1996813,0 0,26.63005 48.1607283,0 c 7.106742,0 12.303244,2.07213 12.303244,9.79403 0,7.72191 -5.196502,9.79403 -12.303244,9.79403 l -58.2623398,0 c -8.5960832,0 -14.1972972,-3.43196 -14.1972972,-14.24586 z" style="fill: rgb(0, 0, 0); fill-rule: nonzero; stroke: none;"/>
    <path id="path52345" d="m 150.733,610.85377 c 21.67638,0 29.0907,-16.90078 29.0907,-36.97449 0,-20.07372 -9.58358,-34.33577 -29.0907,-34.33577 -19.47474,0 -29.0907,14.26205 -29.0907,34.33577 0,20.07371 6.68585,36.97449 29.0907,36.97449 m 0,-90.50979 c 34.33577,0 52.95252,22.82575 52.95252,53.5353 0,29.52779 -17.15979,56.15784 -52.95252,56.15784 -37.52489,0 -52.952515,-24.4608 -52.952515,-56.15784 0,-30.70955 18.616755,-53.5353 52.952515,-53.5353" style="fill: rgb(0, 0, 0); fill-rule: nonzero; stroke: none;"/>
    <path id="path52349" d="m 210.58667,534.85371 c 0,-9.89116 4.79179,-13.97066 14.99053,-13.97066 4.93749,0 9.30838,1.91024 11.93091,6.26494 l 41.7339,68.47727 0.30759,0 0,-63.24839 c 0,-7.7219 4.3547,-11.49382 11.49382,-11.49382 7.12293,0 11.47763,3.77192 11.47763,11.49382 l 0,83.32211 c 0,9.45407 -4.06331,14.82865 -14.10017,14.82865 -7.57621,0 -10.03686,-1.60266 -13.08029,-6.41064 l -41.47489,-66.55084 -0.30758,0 0,61.48384 c 0,7.67334 -4.3547,11.47764 -11.49382,11.47764 -7.12293,0 -11.47763,-3.8043 -11.47763,-11.47764 z" style="fill: rgb(0, 0, 0); fill-rule: nonzero; stroke: none;"/>
    <path id="path52353" d="m 311.77438,534.85371 c 0,-10.61964 5.53646,-13.97066 13.97066,-13.97066 l 56.01214,0 c 7.00961,0 12.10899,2.03975 12.10899,9.59977 0,7.57621 -5.09938,9.61596 -12.10899,9.61596 l -46.0886,0 0,25.67493 40.43882,0 c 6.26494,0 11.18624,1.78073 11.18624,9.19505 0,7.39814 -4.9213,9.13031 -11.18624,9.13031 l -40.43882,0 0,27.16427 47.28655,0 c 6.96105,0 12.06042,2.07212 12.06042,9.61595 0,7.54383 -5.09937,9.61596 -12.06042,9.61596 l -57.21009,0 c -8.4342,0 -13.97066,-3.35102 -13.97066,-13.97066 z" style="fill: rgb(0, 0, 0); fill-rule: nonzero; stroke: none;"/>
    <path id="path52357" d="m 408.44065,528.12416 0.92275,0 c 0.61516,0 1.05225,-0.0971 1.29508,-0.30758 0.2752,-0.17808 0.38852,-0.45328 0.38852,-0.77705 0,-0.29139 -0.11332,-0.55041 -0.35615,-0.74467 -0.24282,-0.21045 -0.64754,-0.30758 -1.23032,-0.30758 l -1.01988,0 z m -2.13688,-3.64241 3.83667,0 c 1.08463,0 1.86168,0.22664 2.33115,0.64754 0.53422,0.45328 0.76085,1.05225 0.76085,1.79692 0,0.5666 -0.19426,1.05225 -0.58278,1.50553 -0.35615,0.40471 -0.93893,0.71229 -1.74836,0.90655 0.32377,0.11332 0.5666,0.24283 0.74467,0.40472 0.19427,0.19426 0.43709,0.48565 0.67992,0.87417 0,0.0324 0.46947,0.82562 1.39221,2.46065 l -2.55778,0 c -0.82561,-1.63503 -1.35983,-2.60634 -1.61885,-2.91392 -0.29139,-0.32377 -0.5666,-0.46947 -0.82561,-0.46947 -0.0648,0 -0.17807,0.0162 -0.27521,0.0324 l 0,3.35101 -2.13688,0 z m 10.1178,4.30614 c 0,-1.78074 -0.63135,-3.30245 -1.89405,-4.61372 -1.2627,-1.24651 -2.8006,-1.86168 -4.59753,-1.86168 -1.76454,0 -3.31863,0.61517 -4.58134,1.86168 -1.2627,1.31127 -1.91024,2.83298 -1.91024,4.61372 0,1.79692 0.64754,3.31863 1.91024,4.59752 1.26271,1.26271 2.8168,1.89406 4.58134,1.89406 1.79693,0 3.33483,-0.63135 4.59753,-1.89406 1.2627,-1.27889 1.89405,-2.8006 1.89405,-4.59752 m 1.57029,0 c 0,1.44077 -0.33996,2.78441 -1.10082,4.03093 -0.71229,1.2627 -1.6836,2.23401 -2.91393,2.9463 -1.2627,0.71229 -2.60634,1.08463 -4.04712,1.08463 -1.42458,0 -2.78441,-0.37234 -4.01474,-1.08463 -1.24651,-0.71229 -2.23401,-1.6836 -2.9463,-2.9463 -0.7123,-1.24652 -1.08463,-2.59016 -1.08463,-4.03093 0,-1.42459 0.37233,-2.76823 1.08463,-4.03094 0.71229,-1.2627 1.69979,-2.23401 2.9463,-2.9463 1.23033,-0.71229 2.59016,-1.08463 4.01474,-1.08463 1.44078,0 2.78442,0.37234 4.04712,1.08463 1.23033,0.71229 2.20164,1.6836 2.91393,2.9463 0.76086,1.26271 1.10082,2.60635 1.10082,4.03094" style="fill: rgb(0, 0, 0); fill-rule: nonzero; stroke: none;"/>
  </g>
</svg>