<?xml version="1.0" encoding="UTF-8" standalone="no"?>
<!-- Generator: Adobe Illustrator 12.0.0, SVG Export Plug-In . SVG Version: 6.00 Build 51448)  -->

<svg
   xmlns:dc="http://purl.org/dc/elements/1.1/"
   xmlns:cc="http://creativecommons.org/ns#"
   xmlns:rdf="http://www.w3.org/1999/02/22-rdf-syntax-ns#"
   xmlns:svg="http://www.w3.org/2000/svg"
   xmlns="http://www.w3.org/2000/svg"
   xmlns:sodipodi="http://sodipodi.sourceforge.net/DTD/sodipodi-0.dtd"
   xmlns:inkscape="http://www.inkscape.org/namespaces/inkscape"
   version="1.1"
   id="Calque_1"
   width="501.63199"
   height="273.621"
   viewBox="0 0 501.632 273.621"
   style="display:inline;overflow:visible"
   xml:space="preserve"
   inkscape:version="0.48.1 "
   sodipodi:docname="Cinebox.svg"><metadata
   id="metadata31"><rdf:RDF><cc:Work
       rdf:about=""><dc:format>image/svg+xml</dc:format><dc:type
         rdf:resource="http://purl.org/dc/dcmitype/StillImage" /><dc:title></dc:title></cc:Work></rdf:RDF></metadata><defs
   id="defs29" /><sodipodi:namedview
   pagecolor="#ffffff"
   bordercolor="#666666"
   borderopacity="1"
   objecttolerance="10"
   gridtolerance="10"
   guidetolerance="10"
   inkscape:pageopacity="0"
   inkscape:pageshadow="2"
   inkscape:window-width="1366"
   inkscape:window-height="706"
   id="namedview27"
   showgrid="false"
   inkscape:zoom="0.95387415"
   inkscape:cx="140.73763"
   inkscape:cy="132.57986"
   inkscape:window-x="-8"
   inkscape:window-y="-8"
   inkscape:window-maximized="1"
   inkscape:current-layer="layer2" />












<g
   inkscape:groupmode="layer"
   id="layer2"
   inkscape:label="Fond"
   style="display:inline"><path
     style="fill:#da0025;display:inline;overflow:visible;fill-opacity:1"
     d="m 501.60901,183.942 c -27.152,0 -49.165,-21.105 -49.165,-47.148 0,-26.043 22.013,-47.138 49.165,-47.138 0,0 0,0 0.022,0 V -2.0308465e-6 H 82.092002 V 273.621 H 501.63201 v -89.679 c -0.023,0 -0.023,0 -0.023,0"
     id="path3"
     inkscape:connector-curvature="0" /><rect
     style="fill:#000000;display:inline;overflow:visible"
     width="82.092003"
     height="273.621"
     id="rect5"
     x="0"
     y="-2.0308466e-006" /></g><g
   inkscape:groupmode="layer"
   id="layer1"
   inkscape:label="Texte"
   style="display:inline"><polyline
     transform="translate(3.6908097e-7,-2.4707101e-6)"
     style="fill:#ffffff;overflow:visible"
     points="19.294,139.738 34.965,139.738 52.108,169.924 52.108,139.738 63.681,139.738   63.681,185.777 48.746,185.777 30.889,155.567 30.889,185.777 19.294,185.777 19.294,139.738 "
     id="polyline7" /><path
     inkscape:connector-curvature="0"
     style="fill:#ffffff;overflow:visible"
     d="m 50.919001,45.450999 c -1.97,3.227001 -5.492,5.378001 -9.579,5.378001 C 35.158,50.829 30.142,45.823999 30.142,39.652999 c 0,-6.183 5.016,-11.199 11.198001,-11.199 4.087,0 7.609,2.163 9.579,5.378 l 11.946,-7.258 c -4.427,-7.235001 -12.41,-12.059001 -21.525,-12.059001 C 27.435,14.514998 16.135,25.769999 16.135,39.651999 16.135,53.523 27.435,64.766 41.340001,64.766 c 9.115,0 17.098,-4.846 21.525,-12.059 l -11.946,-7.256001"
     id="path9" /><rect
     x="34.738998"
     y="80.473"
     style="fill:#ffffff;overflow:visible"
     width="16.396"
     height="40.988998"
     id="rect11" /><polyline
     transform="translate(3.6908097e-7,-2.4707101e-6)"
     style="fill:#ffffff;overflow:visible"
     points="59.808,215.805 59.808,204.754 48.236,204.754 48.236,197.643 36.709,204.754   23.857,204.754 23.857,253.941 59.808,253.941 59.808,242.913 37.796,242.913 37.796,233.787 59.242,233.787 59.242,224.139   37.796,224.139 37.796,215.805 59.808,215.805 "
     id="polyline13" /><path
     inkscape:connector-curvature="0"
     style="fill:#ffffff;overflow:visible"
     d="m 147.154,203.577 h -26.383 v 33.697 h 26.383 c 11.64,0 18.162,-7.134 18.162,-16.895 0,-9.782 -6.522,-16.802 -18.162,-16.802 z m -1.551,-46.697 h -24.832 v 31.659 h 24.832 c 10.711,0 18.015,-5.594 18.015,-15.807 0,-10.258 -7.304,-15.852 -18.015,-15.852 z m 3.113,95.453 H 104.002 V 141.798 h 42.993 c 20.495,0 33.392,11.64 33.392,30.3 0,11.935 -7.462,20.473 -14.912,23.416 8.538,3.442 16.611,11.663 16.611,25.636 -0.001,20.336 -13.803,31.183 -33.37,31.183 z"
     id="path15" /><path
     inkscape:connector-curvature="0"
     style="fill:none;stroke:#ffffff;stroke-width:8.7656002;overflow:visible"
     d="m 147.154,203.577 h -26.383 v 33.697 h 26.383 c 11.64,0 18.162,-7.134 18.162,-16.895 0,-9.782 -6.522,-16.802 -18.162,-16.802 z m -1.551,-46.697 h -24.832 v 31.659 h 24.832 c 10.711,0 18.015,-5.594 18.015,-15.807 0,-10.258 -7.304,-15.852 -18.015,-15.852 z m 3.113,95.453 H 104.002 V 141.798 h 42.993 c 20.495,0 33.392,11.64 33.392,30.3 0,11.935 -7.462,20.473 -14.912,23.416 8.538,3.442 16.611,11.663 16.611,25.636 -0.001,20.336 -13.803,31.183 -33.37,31.183 z"
     id="path17" /><path
     inkscape:connector-curvature="0"
     style="fill:#ffffff;overflow:visible"
     d="m 270.30301,166.301 c -4.121,-4.167 -9.828,-6.363 -16.407,-6.363 -6.556,0 -12.036,2.196 -16.18,6.363 -6.79401,6.794 -7.67701,18.389 -7.67701,30.413 0,12.07 0.883,23.665 7.67701,30.459 4.144,4.145 9.625,6.567 16.18,6.567 6.579,0 12.286,-2.423 16.407,-6.567 6.794,-6.794 7.7,-18.389 7.7,-30.459 0,-12.024 -0.906,-23.619 -7.7,-30.413 z m 16.871,74.234 c -7.224,7.405 -18.185,13.112 -33.278,13.112 -15.093,0 -25.82801,-5.707 -33.04001,-13.112 -10.508,-10.983 -13.146,-24.979 -13.146,-43.82 0,-18.592 2.638,-32.633 13.146,-43.57 7.212,-7.451 17.94701,-13.112 33.04001,-13.112 15.094,0 26.055,5.661 33.278,13.112 10.508,10.938 13.157,24.979 13.157,43.57 0,18.841 -2.649,32.836 -13.157,43.82 z"
     id="path19" /><path
     inkscape:connector-curvature="0"
     style="fill:none;stroke:#ffffff;stroke-width:5.77419996;overflow:visible"
     d="m 270.30301,166.301 c -4.121,-4.167 -9.828,-6.363 -16.407,-6.363 -6.556,0 -12.036,2.196 -16.18,6.363 -6.79401,6.794 -7.67701,18.389 -7.67701,30.413 0,12.07 0.883,23.665 7.67701,30.459 4.144,4.145 9.625,6.567 16.18,6.567 6.579,0 12.286,-2.423 16.407,-6.567 6.794,-6.794 7.7,-18.389 7.7,-30.459 0,-12.024 -0.906,-23.619 -7.7,-30.413 z m 16.871,74.234 c -7.224,7.405 -18.185,13.112 -33.278,13.112 -15.093,0 -25.82801,-5.707 -33.04001,-13.112 -10.508,-10.983 -13.146,-24.979 -13.146,-43.82 0,-18.592 2.638,-32.633 13.146,-43.57 7.212,-7.451 17.94701,-13.112 33.04001,-13.112 15.094,0 26.055,5.661 33.278,13.112 10.508,10.938 13.157,24.979 13.157,43.57 0,18.841 -2.649,32.836 -13.157,43.82 z"
     id="path21" /><polygon
     transform="translate(3.6908097e-7,-2.4707101e-6)"
     style="fill:#ffffff;overflow:visible"
     points="338.92,252.333 311.972,252.333 350.062,195.627 313.512,141.323 340.438,141.323 362.336,177.443 384.031,141.323 410.935,141.323 374.61,195.627 412.475,252.333 385.549,252.333 362.336,214.447 "
     id="polygon23" /><polygon
     transform="translate(3.6908097e-7,-2.4707101e-6)"
     style="fill:none;stroke:#ffffff;stroke-width:5.77419996;overflow:visible"
     points="338.92,252.333 311.972,252.333 350.062,195.627 313.512,141.323 340.438,141.323 362.336,177.443 384.031,141.323 410.935,141.323 374.61,195.627 412.475,252.333 385.549,252.333 362.336,214.447 "
     id="polygon25" /></g></svg>