<?xml version="1.0" encoding="UTF-8" standalone="no"?>
<!-- Created with Inkscape (http://www.inkscape.org/) -->
<svg
   xmlns:svg="http://www.w3.org/2000/svg"
   xmlns="http://www.w3.org/2000/svg"
   version="1.0"
   width="785.45654"
   height="530.28497"
   id="svg2">
  <defs
     id="defs4" />
  <g
     transform="translate(-182.44746,-165.2991)"
     id="layer1">
    <path
       d="M 484.96538,165.2991 C 478.10798,165.2991 467.13107,176.71964 463.15541,187.98786 C 458.15269,202.16709 452.1931,238.20247 448.935,273.94949 C 447.39714,290.82226 445.08913,315.55623 443.82204,328.9138 C 439.43836,375.12807 438.61099,396.63671 440.946,400.09578 C 442.62018,402.5759 446.18831,403.07328 453.40884,401.85336 L 463.47497,400.17566 L 467.94882,369.01857 C 470.39964,351.87802 474.10184,325.92883 476.17749,311.4179 C 480.51606,281.08621 483.20984,272.67128 488.40065,272.67125 C 494.21835,272.67125 495.01929,282.86302 494.15272,343.61355 L 494.31251,405.04896 C 494.02043,405.2354 493.80454,405.50642 493.5935,405.84785 C 492.37544,407.81873 493.67472,410.43832 497.10866,412.71839 C 500.17587,414.75496 502.70093,419.15452 502.70096,422.46498 C 502.70096,425.89355 504.96306,429.64168 507.97369,431.25287 C 512.77159,433.82066 513.13254,436.1768 512.6872,458.25569 L 511.93397,487.14163 C 510.25623,487.4876 508.43493,489.5483 503.9792,491.41004 C 490.75875,496.9339 488.22188,493.89368 491.91581,476.63038 C 496.69742,454.28384 495.05795,449.15027 482.80835,449.06835 C 472.80806,449.00146 458.02246,458.32681 444.14159,473.51467 C 436.11045,482.30202 429.89012,487.22462 428.48316,485.81774 C 427.19976,484.53433 424.08727,474.25401 421.53273,463.04909 C 417.44541,445.12083 416.00925,442.4118 409.94868,440.28044 C 406.16087,438.94834 402.30952,438.6524 401.40045,439.56144 C 403.30933,474.15239 406.49838,504.52953 414.26274,534.47073 C 421.96886,562.2226 423.91204,571.07164 426.00656,587.11823 C 427.1995,596.25765 429.96975,615.1834 432.0782,629.22026 C 434.18664,643.2571 435.43796,655.18011 434.87436,655.74373 C 434.31075,656.30736 436.10752,659.6631 438.86885,663.1735 C 441.63016,666.68393 445.0733,674.03039 446.5383,679.47106 C 448.72437,687.5895 450.34962,689.37745 455.56587,689.37742 C 463.92049,689.37742 468.23325,679.02621 464.43365,668.12669 C 462.9725,663.93515 461.79725,653.17376 461.79728,644.23958 C 461.79728,632.95466 459.37747,620.45957 453.80829,603.41579 C 446.48238,580.9957 445.9727,577.81961 448.53555,565.78761 C 450.07794,558.54621 451.95448,548.77189 452.68982,544.13743 C 453.42517,539.50304 456.82526,532.02538 460.19949,527.5203 C 463.57365,523.01531 467.13273,516.49552 468.18848,512.98034 C 472.39319,498.98033 479.69262,500.94172 479.69264,516.09604 C 479.69264,529.85149 485.30273,535.98867 497.90756,535.98865 C 508.67946,535.98865 512.92685,540.73325 512.92688,552.76555 C 512.92688,556.56153 514.05239,563.81902 515.40346,568.90332 C 516.75456,573.98767 519.18997,596.8006 520.83598,619.63347 C 524.18152,666.04055 526.09229,671.59099 537.53299,667.56746 C 548.315,663.77561 550.80634,651.44731 551.0344,601.97778 C 551.14246,578.5412 551.93852,557.54614 552.79198,555.32203 C 553.91034,552.40763 557.80178,551.32754 566.69283,551.32752 C 581.53869,551.32752 583.06249,554.054 579.23556,574.33584 C 577.77638,582.06919 575.8776,599.07348 575.08129,612.1238 L 573.64326,635.85113 L 583.30996,650.471 C 594.59558,669.25287 613.62819,687.71819 621.89681,686.74105 C 624.86765,686.38996 628.77459,688.54652 630.52493,690.65566 C 634.30916,695.21561 636.60146,698.46093 653.1338,691.77412 L 665.75642,689.05786 L 672.62696,670.68317 C 676.42189,660.57188 680.11501,649.14484 680.85563,645.27815 C 682.68021,635.75178 688.32397,636.40754 691.80055,646.55639 C 693.62399,651.87929 698.47972,657.28287 705.38185,661.57571 C 723.20596,672.66164 727.59787,675.58578 745.24696,677.39392 C 760.29598,678.93573 761.73505,676.66423 769.13406,671.56196 C 781.27581,663.18912 790.46174,642.2646 793.74018,615.23951 C 794.95765,605.20359 796.51549,601.1789 799.25259,601.17888 C 802.09222,601.17888 803.83342,606.2655 805.88345,620.91171 C 809.14057,644.1819 814.14615,651.62455 825.93585,650.471 L 833.76506,649.75198 L 833.52539,624.18719 C 833.39189,610.12656 832.81666,585.39264 832.24715,569.22288 C 831.3194,542.88347 831.74074,539.09953 836.32154,532.87294 C 843.04634,523.73201 846.50636,524.0054 851.66042,534.07128 C 860.83521,551.98975 863.75303,567.1144 861.96623,587.59757 C 860.07996,609.22138 862.59606,617.79601 870.83402,617.79599 C 873.9792,617.79599 876.24616,619.91115 876.90566,623.54808 C 877.47932,626.71171 878.34728,637.56081 880.26103,645.99716 C 883.63755,660.88201 885.15948,659.96267 893.84233,660.77681 C 898.76356,661.23825 904.51561,663.04402 906.62472,664.7713 C 911.9529,669.13491 923.85865,674.00917 929.07381,673.95865 C 934.93495,673.90183 954.47192,653.34202 956.55597,645.03847 C 957.47389,641.38107 960.43461,637.73791 963.10695,636.88971 C 967.52022,635.48898 967.95135,632.62058 967.90034,605.49294 C 967.82863,567.34555 963.80771,556.74212 946.17027,548.45149 C 939.6241,545.3744 930.29124,539.08487 925.39888,534.47073 C 917.77233,527.27801 916.90413,525.33718 919.32724,520.80955 C 922.59495,514.70376 928.46182,513.8696 930.51184,519.21175 C 931.82446,522.63237 943.10099,523.31956 946.25016,520.17043 C 946.97613,519.44447 948.2765,510.58536 949.04632,500.5175 C 950.40247,482.78056 950.13775,481.95604 942.735,474.55325 C 936.6505,468.46878 932.93003,466.96372 924.28041,466.9637 C 914.73945,466.9637 912.03186,468.32226 902.31066,478.46786 C 893.04619,488.13679 891.28583,491.67427 891.28585,500.19793 L 890.56684,517.53406 C 887.54439,517.93599 885.62287,515.39157 883.7762,508.58638 C 881.58554,500.51366 878.92011,497.75782 867.63841,491.88938 C 859.18896,487.4942 850.11759,484.85907 843.43175,484.85905 C 834.34743,484.85905 831.78253,486.10996 826.49507,493.16762 C 823.07153,497.73732 819.43205,504.1628 818.42618,507.46792 C 815.62999,516.65565 812.36676,510.78965 810.99641,494.20618 C 809.6944,478.44945 806.37805,472.02489 799.57215,472.07666 C 793.37792,472.12378 783.91368,488.44186 783.91371,499.07947 C 786.11878,512.37959 793.51155,531.37742 792.22226,542.22006 C 790.03829,543.05812 786.41211,542.06632 784.15338,539.98314 C 761.56151,519.14628 746.49278,510.42388 733.02378,510.42385 C 721.40474,510.42385 689.32394,547.24247 689.32396,560.59476 C 689.32396,564.25438 687.81483,566.66643 685.48924,566.6664 C 683.12412,566.6664 681.65449,564.21785 681.65452,560.35509 C 681.65452,556.91041 678.2192,549.09446 674.06498,542.93908 C 664.8003,529.21142 650.31735,521.94071 636.11723,523.84537 C 630.44277,524.60646 622.72987,523.6383 617.90232,521.60845 C 607.00039,517.02453 607.83248,516.72484 603.52213,527.04097 C 598.18112,539.82381 593.10202,538.50448 591.45874,523.92526 C 589.60725,507.49911 583.41459,502.75444 563.7369,502.75441 C 544.78464,502.75441 544.45358,502.07375 541.76715,456.09866 L 539.76991,422.2253 L 530.18312,421.42641 L 520.59631,420.62751 L 520.11697,407.36577 C 519.84691,400.06884 519.66374,391.22802 519.71752,387.71282 C 519.94004,373.18237 515.54428,265.68958 514.44478,258.61062 C 513.78961,254.39243 512.5321,240.58745 511.64864,227.93285 C 510.76511,215.27829 508.29444,197.08444 506.13623,187.50853 C 502.10616,169.62723 497.94547,165.29913 484.96538,165.2991 z M 572.84436,165.2991 C 568.97163,165.2991 568.65575,167.42806 570.36778,185.11182 C 571.42276,196.00882 572.71861,212.40227 573.24381,221.54166 C 573.76897,230.68107 575.27972,246.21171 576.5193,256.05414 C 578.80888,274.2329 581.21694,296.18627 588.26313,361.34913 C 590.42364,381.32917 593.34245,400.66935 594.73422,404.32995 C 596.85247,409.90137 598.64287,410.9125 605.59925,410.24181 C 613.39977,409.48972 613.96879,408.77656 614.70671,398.57787 C 615.25077,391.05854 616.64934,387.71285 619.26045,387.71282 C 621.33556,387.71282 627.04176,383.68641 631.96295,378.76516 C 636.88418,373.84393 642.04001,369.8175 643.46711,369.81747 C 644.89417,369.81747 647.5201,366.65385 649.21919,362.78716 C 650.91827,358.92048 655.26667,351.15519 658.96577,345.53092 C 668.12574,331.60365 670.85697,311.4792 667.35421,282.89717 C 665.25859,265.79718 659.63135,257.36187 644.58558,248.54447 L 633.1613,241.83372 L 634.75911,226.73451 C 636.77044,207.4912 629.19833,188.39585 617.34309,177.60217 C 607.92801,169.03014 603.36502,171.11659 597.2907,178.08151 C 592.87118,183.14899 587.06475,179.83055 587.06478,174.32667 C 587.06478,170.13088 579.45026,165.29913 572.84436,165.2991 z M 487.44197,176.08425 C 488.89058,175.95413 489.78963,177.00653 491.27669,179.04018 C 501.43292,192.92964 506.95634,242.74403 510.21061,349.36564 C 512.09145,410.98963 511.07289,430.18549 506.69545,416.39334 C 505.14472,411.50737 501.35909,407.04534 498.14722,405.36851 C 497.54698,397.71917 497.77207,393.5176 498.62657,385.79547 C 500.48683,368.32758 500.37699,290.82231 498.46678,277.14508 C 497.15117,267.72505 496.95948,267.55831 485.92406,267.55829 C 476.33146,267.55829 474.46952,268.39733 473.46122,273.31038 C 469.10339,294.54449 466.92566,307.11366 464.43365,325.07908 C 462.87336,336.3276 460.45063,353.00864 459.08102,362.14803 C 457.71139,371.28745 456.38261,382.14854 456.0452,386.3547 C 455.63812,391.42961 453.79029,394.31512 450.69258,394.90293 C 445.56467,395.87603 445.5506,400.53122 451.09203,322.52261 C 457.27735,235.44937 466.69005,189.84941 480.41164,180.07876 C 483.99524,177.527 485.99337,176.21438 487.44197,176.08425 z M 577.71766,186.1504 C 578.44503,186.25365 579.77501,187.48871 582.19149,189.90522 C 586.04459,193.75832 587.46423,198.4949 587.46423,207.00168 C 587.46423,213.46893 586.80563,219.8011 586.02621,221.06232 C 585.24674,222.32353 585.81502,227.23729 587.22456,232.00725 C 588.63415,236.77713 590.92424,257.39631 592.33753,277.78421 C 593.75074,298.17213 596.17385,321.18047 597.69015,328.9138 C 599.20645,336.64715 600.40831,345.27529 600.40641,348.0874 C 600.40449,350.89952 601.97675,362.97892 603.92156,374.93043 C 605.86644,386.88198 607.51212,398.09856 607.51662,399.85611 C 607.53531,407.17718 599.85799,402.38608 597.2907,393.46491 C 593.33015,379.70233 589.09652,342.89798 589.46148,325.63831 C 589.63325,317.51497 588.61775,306.58599 587.22456,301.35175 C 585.11053,293.409 576.83884,204.02683 576.83887,189.18622 C 576.83887,187.11281 576.99029,186.04714 577.71766,186.1504 z M 485.14799,187.50853 C 483.74192,187.50853 480.19478,190.82739 480.1948,192.23343 C 480.1948,193.6395 483.51363,192.165 484.91972,192.16497 C 486.32578,192.16497 488.95985,191.58522 488.95988,190.17913 C 488.95988,188.77306 486.55403,187.50855 485.14799,187.50853 z M 599.20807,190.62423 C 600.61415,190.62426 604.08133,192.81325 604.08135,194.21928 C 604.08133,195.62537 598.69674,198.53336 597.2907,198.53334 C 595.88463,198.53334 594.73419,197.38295 594.73422,195.97686 C 594.73422,194.5708 597.80197,190.62426 599.20807,190.62423 z M 613.58826,190.86391 C 618.52119,190.86391 626.91324,200.54199 628.71341,211.87497 C 629.54685,217.12194 625.36675,228.47534 624.20064,229.19609 C 621.61021,230.79709 619.00777,218.02711 619.00779,210.19728 C 619.00779,207.01506 617.99816,202.35656 615.18606,199.81158 C 609.22414,194.41611 608.57441,190.86393 613.58826,190.86391 z M 606.23838,203.6463 C 617.44169,203.6463 618.97988,227.52648 608.71497,242.63262 C 599.22529,256.5979 598.68628,256.10678 596.17223,229.69044 C 594.21523,209.12711 596.29828,203.64632 606.23838,203.6463 z M 489.19955,209.39839 C 485.79661,210.53269 480.11305,225.66736 479.85242,234.40394 C 479.74546,237.98941 481.04118,242.30352 482.72846,243.99075 C 486.41197,247.67424 494.11469,248.0524 496.22987,244.62986 C 498.68306,240.66052 492.24651,208.38269 489.19955,209.39839 z M 619.73979,239.83647 C 621.65515,239.83747 623.61436,242.9488 624.85275,247.26623 C 626.30871,252.34225 638.67601,256.26977 646.34316,265.40126 C 650.71675,270.61016 655.74443,275.35307 657.60764,291.20573 C 658.66185,300.17552 658.2588,305.77046 656.48918,306.86416 C 653.74608,308.55946 650.68369,303.95632 638.19438,279.06245 C 630.06124,262.85138 623.49076,261.32365 612.86925,273.15059 C 607.06858,279.60959 604.54141,280.92771 602.24388,278.663 C 599.93673,276.38889 601.40599,272.37661 608.4753,261.72633 C 613.5539,254.07508 617.74251,245.86377 617.74253,243.43151 C 617.74253,240.93161 618.59057,239.83587 619.73979,239.83647 z M 628.12823,275.62718 L 632.28251,282.01838 C 634.57041,285.51017 637.45118,294.75406 638.67371,302.5501 C 640.56093,314.58483 640.08064,318.26642 635.63789,327.23611 C 632.75994,333.04661 627.03342,341.60036 622.85549,346.17003 C 613.57138,356.32468 610.07308,356.67515 610.0731,347.44827 C 610.0731,343.58107 608.32308,332.36453 606.23838,322.52261 C 601.46331,299.97908 601.25979,285.45368 605.67914,285.45365 C 607.49095,285.45365 613.27274,283.2664 618.54143,280.58035 L 628.12823,275.62718 z M 651.29633,316.29118 C 653.9711,316.39073 657.61523,319.14266 658.16687,323.00195 C 659.26874,330.7106 643.03302,355.45633 626.13099,371.73483 C 610.88307,386.42022 611.61704,385.8216 609.19431,383.39877 C 604.69327,378.89776 608.64324,371.56546 620.21912,362.78716 C 632.3122,353.6167 648.42026,328.78488 648.42029,319.327 C 648.42029,317.13666 649.69148,316.23146 651.29633,316.29118 z M 527.0674,429.73497 C 527.81338,429.82171 528.62772,430.35982 529.70378,431.25287 C 531.69934,432.90904 532.68555,435.24045 531.94069,436.44572 C 530.4419,438.8708 535.32557,500.80536 537.45311,506.34946 C 538.32652,508.62563 544.46785,510.22557 555.10878,510.90319 C 566.31121,511.6165 573.06772,513.38701 576.67908,516.65527 C 587.10727,526.09265 579.92573,554.34647 569.4091,545.25588 C 566.89618,543.08374 561.75579,542.20884 555.98757,542.93908 C 544.30482,544.4181 544.25206,544.72442 542.08672,604.29458 C 540.90463,636.8149 539.42563,651.4082 536.81398,655.58396 C 530.6225,665.48369 528.26572,659.37568 528.26575,633.45444 C 528.26575,619.75798 527.16557,607.46782 525.86906,606.13205 C 524.57251,604.79629 522.95855,595.68247 522.274,585.83999 C 520.51729,560.58244 515.33285,532.50381 511.96819,530.31646 C 510.40053,529.29732 504.57484,528.5958 499.10591,528.79854 C 483.23058,529.3872 475.89197,514.69008 488.64031,507.86737 C 496.23577,501.69439 493.4609,499.72419 503.02052,501.79574 C 511.73582,502.38288 515.48333,504.47336 515.48336,495.16486 C 518.80143,475.38916 513.63783,452.97502 519.59708,432.76917 C 520.80211,430.47624 525.82411,429.5904 527.0674,429.73497 z M 250.00893,436.36583 C 246.83706,436.42061 242.62315,437.40151 236.74719,439.16199 C 228.04527,441.76913 221.48821,449.30783 221.48821,456.73778 C 221.48821,459.07591 218.41104,462.90262 203.27329,479.58631 C 197.63413,485.8014 195.15705,491.22431 194.80495,498.12079 C 194.53087,503.48916 192.96472,509.22818 191.28979,510.90319 C 187.45144,514.74153 184.79462,526.42143 188.54758,538.94783 C 191.07177,547.37283 191.77235,549.49657 187.43883,555.00571 C 180.78232,563.46809 180.96854,606.96534 186.89584,621.15137 C 189.02661,626.25106 190.79682,634.1922 190.81045,638.80706 C 190.82732,644.51851 193.68442,650.73945 199.75812,658.3801 C 204.6657,664.55374 208.7058,670.93157 208.7058,672.52063 C 208.7058,675.99392 227.86085,686.33495 236.82708,687.69973 C 251.0304,689.86167 255.86909,689.05906 272.61779,681.70798 C 282.22858,677.48979 290.92282,674.03857 291.95117,674.03855 C 292.97954,674.03855 297.75908,669.97134 302.57654,665.01098 C 310.63738,656.71101 311.37318,654.67313 311.6041,639.44617 C 311.90132,619.84573 314.9237,618.35271 324.70607,633.13487 C 337.40738,652.76306 365.65332,643.26761 380.54916,629.85938 C 386.39967,622.94431 388.00455,622.25961 390.13596,625.46543 C 391.53816,627.57453 392.67089,632.49858 392.69244,636.41035 C 392.71397,640.32218 394.45529,647.58936 396.52716,652.54814 C 400.10034,661.09994 401.31349,664.72125 411.68344,663.9724 L 422.17186,659.97791 L 421.45284,644.8787 C 421.07046,636.58979 419.2964,626.236 417.45834,621.87039 C 407.14571,597.37644 404.46023,585.00096 404.35638,561.55344 C 404.26272,540.40193 403.26252,535.2159 396.92661,521.44867 C 382.02694,489.07324 352.96871,474.87321 336.84934,492.12904 C 320.56436,509.56216 315.70092,528.25581 311.84378,587.75736 L 310.24597,612.68303 L 302.41676,612.68303 C 297.2959,612.68303 291.86348,615.18493 286.75832,620.03291 C 282.47318,624.10219 270.70338,631.78814 260.5544,637.04948 C 242.78941,646.25904 241.8892,646.45173 235.70862,642.4021 C 226.97003,636.67636 222.30658,626.9087 218.77195,606.61139 C 215.17328,585.94653 216.44173,535.59423 220.6893,530.47624 C 222.34091,528.48617 224.51157,520.59859 225.4827,512.90044 C 226.45385,505.20224 229.3437,496.61888 231.8739,493.80673 C 234.40407,490.99461 237.18404,485.61693 238.10532,481.90313 C 239.32777,476.97544 241.87791,474.74146 247.61222,473.59456 C 262.38733,470.63955 265.85343,462.30571 259.59573,444.35484 C 257.64659,438.76355 255.2954,436.27455 250.00893,436.36583 z M 247.21277,449.06835 C 250.40723,449.06835 255.16366,458.93927 253.36431,461.85074 C 251.47939,464.90057 245.25327,465.15511 243.45795,462.25019 C 241.64576,459.31807 244.56511,449.06837 247.21277,449.06835 z M 481.21055,461.85074 C 485.35511,461.85074 486.01603,465.91385 482.24912,468.24194 C 480.84306,469.11093 479.69262,474.32974 479.69264,479.90588 C 479.69264,488.13339 478.55363,490.47416 473.78078,492.28883 C 460.94994,497.16709 444.74855,530.55881 440.78622,560.2752 C 438.48891,577.50424 438.75038,583.1481 442.38401,596.06592 C 451.6701,629.07856 466.07164,670.13882 453.32895,670.20383 C 445.6883,670.24276 441.66311,652.20015 438.94874,631.85663 C 437.44702,620.60163 435.03431,607.95358 433.676,603.73536 C 432.31767,599.51717 430.07176,588.58824 428.64294,579.44879 C 426.08518,563.08791 420.65678,535.01245 416.97901,518.73241 C 412.9956,501.90208 411.46217,501.00764 409.54923,478.46786 L 408.1911,465.68546 L 411.94593,477.02983 C 414.00967,483.26557 418.68972,491.44347 422.33163,495.24475 C 426.37642,499.46662 429.53421,506.28182 430.40052,512.74066 C 433.08185,532.73153 441.50052,528.4817 439.58787,508.10704 C 438.59953,497.57835 439.45421,494.87532 447.17741,484.77916 C 455.48301,473.9217 473.43205,461.85076 481.21055,461.85074 z M 223.1659,472.31632 C 224.52147,472.31379 225.85597,472.84935 227.0805,474.0739 C 229.62745,476.62084 229.41401,478.64423 226.04193,484.21994 C 223.72017,488.05892 219.95695,491.6555 217.65348,492.12904 C 214.33669,492.81088 213.65057,491.25074 214.2981,484.69927 C 215.02057,477.38963 219.0992,472.32389 223.1659,472.31632 z M 922.76251,478.78741 C 931.81799,478.39259 936.91553,485.81413 939.21984,502.99408 C 940.29527,511.01213 939.71357,512.98036 936.3438,512.98034 C 934.04957,512.98034 932.1895,511.25473 932.18953,509.14561 C 932.18953,504.56486 930.38854,504.3904 919.72669,508.10704 C 897.56367,515.83313 904.16258,537.0591 934.18677,554.60301 C 954.03405,566.20028 959.58509,577.60174 958.713,604.85381 C 958.18514,621.34855 957.11208,626.10768 952.80114,630.41862 C 949.89373,633.32602 947.52837,637.42027 947.5284,639.52607 C 947.5284,641.63189 943.50192,647.57034 938.58072,652.7878 C 933.6595,658.00522 929.63302,663.17878 929.63305,664.29196 C 929.63305,670.44313 905.20351,659.42111 901.67155,651.66935 C 899.43504,646.76075 898.08578,646.20829 894.00211,648.39386 C 886.8749,652.20823 887.05964,652.35157 885.21421,636.65003 C 883.67915,623.58905 884.03818,621.76818 889.84784,615.95852 L 896.23902,609.56732 L 910.77901,625.14587 C 929.59135,645.36062 934.80076,645.72405 940.65786,627.14312 C 943.02373,619.6377 944.91522,610.1468 944.89203,606.05216 C 944.82717,594.573 934.72691,579.26808 923.32173,573.37715 C 917.76243,570.50567 911.43518,566.33127 909.2611,564.10992 C 903.57748,558.30267 898.53543,544.34765 896.71836,529.59745 C 894.56481,519.31823 894.21568,510.44742 899.03518,500.03816 C 906.40208,485.5978 913.53903,479.18954 922.76251,478.78741 z M 797.89446,486.0574 C 799.05121,486.1338 799.69818,487.86478 800.45094,491.6497 C 809.02302,534.75088 809.37157,535.98867 811.8752,535.98865 C 815.11054,535.98865 824.81736,519.69065 824.81738,514.25858 C 824.81738,509.52489 841.1946,492.52852 845.74855,492.52849 C 847.20365,492.52849 850.51657,495.29619 853.17833,498.68002 C 856.40491,502.78197 859.6964,504.35947 863.08469,503.47343 C 867.1908,502.39966 869.28638,504.5328 873.78994,514.57813 C 878.20248,524.42045 879.68151,534.23181 881.05993,561.55344 C 882.74958,595.04376 881.62714,603.73786 874.98829,608.04942 C 873.48838,609.02354 870.72163,608.49524 868.83677,606.93095 C 866.26917,604.80003 865.61236,597.31693 866.2004,577.0521 C 866.94612,551.35234 866.63032,549.28068 859.40974,535.02997 C 851.25371,518.93309 848.46622,516.65343 839.51714,518.97207 C 822.63617,523.34586 813.89007,560.07818 823.37937,586.79868 C 828.92539,602.41554 828.86467,640.3464 823.29947,642.48199 C 816.10502,645.24276 812.98468,637.52217 808.51982,606.29184 C 804.42971,577.68309 800.55573,556.38166 797.49501,545.33577 C 796.87207,535.22521 795.54957,524.78546 792.86139,514.57813 C 788.87236,501.42949 789.81435,492.03895 795.57764,487.25575 C 796.26889,486.68205 796.83835,486.28352 797.33522,486.13729 C 797.52154,486.08246 797.7292,486.04649 797.89446,486.0574 z M 207.02811,493.96652 C 208.6097,493.98328 210.73128,495.60396 213.33942,498.91969 C 217.66617,504.42024 217.99236,506.6467 215.65623,514.25858 C 214.15078,519.16376 211.91725,523.20627 210.70306,523.20625 C 209.48885,523.20625 208.75903,526.94512 209.02537,531.5148 C 209.2917,536.08452 208.64463,545.86307 207.58735,553.24489 C 205.75897,566.01056 203.98192,568.73326 200.15757,564.90882 C 199.22019,563.97147 198.47989,554.34026 198.47989,543.4983 C 198.47989,529.28714 199.52962,522.97463 202.23471,520.72966 C 204.95524,518.4718 205.5571,514.5882 204.47163,506.66902 C 203.33032,498.34211 204.3921,493.93858 207.02811,493.96652 z M 354.50503,495.08497 C 356.97546,495.08497 364.70618,500.15803 371.68138,506.42935 C 387.47479,520.62898 398.67765,547.91403 395.16903,563.4708 C 392.87206,573.65528 393.85222,582.40685 399.32332,599.90064 C 414.00993,646.86087 415.49223,654.69215 409.62911,656.94209 C 405.52052,658.51871 399.35072,645.31926 396.60705,629.06048 C 393.80292,612.4437 389.91007,602.07968 386.86048,603.09623 C 385.27649,603.62423 381.64426,608.56717 378.79159,614.04117 C 375.93897,619.51515 368.58239,627.37535 362.49402,631.45718 C 344.74352,648.28518 327.0015,629.94047 319.67299,612.28359 C 317.91769,606.428 317.95215,592.34299 319.91267,567.94464 C 322.45805,536.2679 323.59384,530.86004 329.65924,521.28889 C 333.42849,515.34106 336.52978,509.43897 336.52978,508.10704 C 336.52978,504.42154 349.41963,495.085 354.50503,495.08497 z M 350.98987,517.29439 C 346.2939,517.39102 344.19761,519.50745 339.80528,527.36053 C 330.67555,543.68377 325.35048,598.05591 331.33693,613.80149 C 335.50775,624.7716 353.13943,621.31112 366.56842,606.93095 C 373.53973,599.46588 382.37717,575.31638 384.06432,559.15674 C 386.07939,539.85593 370.45271,518.66279 353.22679,517.37428 C 352.43584,517.31512 351.66072,517.28058 350.98987,517.29439 z M 733.58302,518.33296 L 741.49213,522.40734 C 745.8216,524.64621 755.33232,531.65711 762.66297,537.98589 C 773.97174,547.7492 775.58855,550.29445 773.36823,554.44324 C 771.69813,557.56382 771.65209,560.41731 773.20844,562.35234 C 774.54973,564.02006 776.50534,569.41464 777.5225,574.33584 C 778.53971,579.25706 781.49157,585.65187 784.15338,588.55626 C 788.90273,593.73832 788.96488,594.26771 784.07349,617.15687 C 778.19914,644.64575 771.9468,657.84501 761.22496,665.72998 C 747.93272,675.98152 740.05759,669.17653 728.23038,665.57021 C 724.34451,664.79301 718.30481,661.6822 714.80887,658.61978 C 711.31294,655.55741 705.9091,652.01317 702.74548,650.79056 C 698.86035,649.28909 696.99338,646.4962 696.9934,642.08255 C 696.9934,638.48845 695.2831,634.87809 693.23857,634.09355 C 691.19408,633.309 687.16361,627.65012 684.211,621.55082 C 679.73827,612.31138 679.32485,609.65511 681.97408,605.41305 C 684.53619,601.31048 684.49945,599.47747 681.73442,596.1458 C 678.7913,592.59953 679.21894,591.07137 684.77024,585.12099 C 688.33015,581.30517 692.62954,573.90377 694.27715,568.74354 C 695.92471,563.58328 698.87083,557.97136 700.90801,556.2807 C 702.9452,554.59 704.66282,551.99341 704.66285,550.44873 C 704.66285,548.9041 711.16251,541.07702 719.12293,533.03272 L 733.58302,518.33296 z M 356.26261,523.44592 C 360.82584,523.51129 365.93419,529.44899 372.40038,541.58095 C 382.06209,559.70832 377.4414,577.59622 357.62074,599.26151 C 346.92236,610.95562 340.32248,613.00385 337.88791,605.33315 C 335.28777,597.14082 341.48544,543.9166 346.19648,533.91151 C 349.48603,526.92531 352.71343,523.39507 356.26261,523.44592 z M 619.6599,530.87569 C 621.02582,530.85953 622.59184,530.87569 624.37341,530.87569 C 644.98684,530.87569 661.38285,540.48725 669.19169,557.15949 C 674.28223,568.02798 675.00599,573.44396 674.86388,600.69954 C 674.6973,632.6495 673.9124,636.91757 662.88038,667.64735 C 658.80974,678.98607 655.09414,685.52207 652.65446,685.5427 C 650.53678,685.56064 648.25662,686.89873 646.90238,687.46007 C 642.68966,689.20623 638.05507,689.45606 636.59657,685.5427 C 635.81334,683.44119 630.65199,680.54705 625.17231,679.07161 C 619.69262,677.59609 615.18604,675.37551 615.18606,674.11844 C 615.18606,672.86134 612.8581,671.03323 609.9932,670.12393 C 607.12834,669.21467 601.66389,663.84225 597.84992,658.14044 C 594.036,652.43859 588.75195,644.72153 586.18599,641.04398 C 582.06301,635.13473 581.7413,630.74625 583.07028,603.17612 C 584.68948,569.58534 586.00144,563.13978 590.81961,564.98871 C 594.8257,566.526 597.30013,564.61784 604.32101,554.60301 C 607.48466,550.09024 610.07308,542.90007 610.0731,538.62502 C 610.0731,531.85715 610.09836,530.98875 619.6599,530.87569 z M 890.0875,544.69665 C 890.58599,544.67689 891.20957,545.08876 892.08475,545.81512 C 894.24869,547.61101 896.80199,552.65188 897.75694,556.99971 C 899.45188,564.71668 912.76361,579.44882 918.049,579.44879 C 922.61241,579.44879 934.61708,592.06096 936.26391,598.6224 C 937.1291,602.0696 936.79584,609.23117 935.5449,614.52051 C 934.294,619.80986 931.61173,624.38181 929.55316,624.66653 C 927.49455,624.9513 921.21177,620.17375 915.65229,614.04117 C 910.05194,607.86351 902.35643,602.21054 898.39605,601.41854 C 892.11381,600.16208 891.23211,598.87536 891.12608,590.39373 C 891.05968,585.08584 890.38998,572.11994 889.60816,561.63333 C 888.65951,548.90928 888.59201,544.75594 890.0875,544.69665 z M 728.23038,546.93357 C 722.13809,547.35491 721.04136,550.67601 713.85019,567.06585 C 711.59773,572.19957 709.77578,578.73771 709.77581,581.60582 C 709.77581,584.474 708.62536,587.5275 707.21933,588.39647 C 705.81326,589.26547 704.66282,592.51555 704.66285,595.66647 C 704.66285,598.81743 703.40799,602.67345 701.86669,604.2147 C 695.53186,610.54952 710.79184,631.47103 729.42874,641.92277 C 740.02849,647.86717 751.18623,648.38406 761.38473,643.44068 C 767.11497,640.66314 768.58695,637.85836 769.93296,626.98335 C 771.84797,611.5107 763.94413,577.72317 754.11474,559.23664 C 748.08572,547.89758 747.4045,547.52362 735.50037,547.09336 C 733.83554,547.03317 732.45058,546.9643 731.18632,546.93357 C 730.08011,546.90668 729.10071,546.8734 728.23038,546.93357 z M 641.78942,551.16774 C 635.40278,551.09801 627.41052,556.09199 617.82243,566.02728 C 597.90032,586.6708 592.57275,606.23629 599.6874,632.65553 C 602.10166,641.62062 604.36184,644.44803 611.51112,647.43518 C 616.36135,649.46172 622.89931,650.49737 626.0511,649.75198 C 629.2029,649.00664 635.2544,649.34224 639.47262,650.55088 C 649.22596,653.34553 653.32191,651.84013 654.57182,644.95859 C 661.81233,605.09566 662.49276,588.97606 657.68753,570.74079 C 654.27118,557.77622 649.02763,551.24678 641.78942,551.16774 z M 737.01829,551.64708 C 737.35201,551.60653 737.64715,551.61574 737.97697,551.64708 C 738.73082,551.71869 739.48347,551.99456 740.21389,552.44598 C 744.02634,554.80222 755.09934,577.71172 759.38748,592.15131 C 765.2963,612.04839 764.66541,623.84682 757.39024,631.69684 C 748.69595,641.07813 738.91972,639.38227 725.91358,626.26433 C 712.85074,613.08926 712.12319,605.51227 721.43974,576.73254 C 726.55452,560.9325 732.01257,552.25522 737.01829,551.64708 z M 642.66821,559.4763 C 649.19606,560.73332 653.89699,577.76411 654.17237,601.17888 C 654.45864,625.51969 649.49112,638.24786 639.63239,638.24783 C 636.26832,638.24783 631.91814,638.62097 630.0456,639.12662 C 618.58613,642.22073 607.5166,631.21881 607.51662,616.75742 C 607.51662,598.60539 612.98127,584.91104 625.57176,571.77936 C 633.3023,563.71655 639.95249,558.95329 642.66821,559.4763 z M 194.32561,569.22288 C 201.14325,569.22288 205.57607,579.78529 207.26779,599.90064 C 209.59704,627.59671 213.38572,639.75563 222.44688,648.63353 C 228.58082,654.64341 231.90703,656.06567 236.82708,654.86494 C 240.34223,654.00712 247.24473,652.39061 252.16596,651.19001 C 264.87987,648.08841 293.08093,633.40297 294.74731,629.06048 C 296.32996,624.93619 302.2524,624.23523 304.4939,627.86214 C 305.30724,629.17812 304.85726,635.08009 303.53522,640.96409 C 300.94747,652.4812 287.21485,668.92561 280.20735,668.92559 C 277.92073,668.92559 269.86362,672.17408 262.23209,676.19558 C 253.44154,680.82779 246.45749,682.90357 243.21828,681.86777 C 228.07579,677.02568 216.43678,669.68207 212.7003,662.61427 C 210.4303,658.32042 205.71787,650.93461 202.23471,646.15694 C 197.44709,639.58998 195.92341,634.26074 195.92341,624.34697 C 195.92341,616.39749 194.27905,608.9165 191.76913,605.33315 C 188.42563,600.55965 188.20616,598.2199 190.57078,593.0301 C 192.19363,589.46836 192.7517,582.66265 191.84902,577.851 C 190.55242,570.93958 191.09347,569.22291 194.32561,569.22288 z"
       id="path2398"
       style="fill:#8e4819;fill-opacity:1" />
    <rect
       width="0.53571427"
       height="0.35714287"
       x="312.23215"
       y="611.02289"
       id="rect3173"
       style="opacity:1;fill:#ad5419;fill-opacity:1;fill-rule:nonzero;stroke:none;stroke-width:3;stroke-linecap:round;stroke-linejoin:miter;stroke-miterlimit:4;stroke-dasharray:none;stroke-opacity:1" />
  </g>
</svg>
