<?xml version="1.0" encoding="utf-8"?>
<!-- Generator: Adobe Illustrator 16.0.0, SVG Export Plug-In . SVG Version: 6.00 Build 0)  -->
<!DOCTYPE svg PUBLIC "-//W3C//DTD SVG 1.1//EN" "http://www.w3.org/Graphics/SVG/1.1/DTD/svg11.dtd">
<svg version="1.1" id="Calque_1" xmlns="http://www.w3.org/2000/svg" xmlns:xlink="http://www.w3.org/1999/xlink" x="0px" y="0px"
	 width="226.771px" height="226.771px" viewBox="0 0 226.771 226.771" enable-background="new 0 0 226.771 226.771"
	 xml:space="preserve">
<g>
	<g id="XMLID_1_">
		<g>
			<polygon fill="#E30613" points="172.89,36.04 155.97,163.28 126.34,163.28 111.22,36.04 132.84,36.04 142.34,116.58 
				152.52,36.04 			"/>
			<polygon fill="#E30613" points="172.879,186.889 172.879,189.269 161.729,189.269 161.729,171.83 172.879,171.83 
				172.879,174.199 164.379,174.199 164.379,179.299 171.629,179.299 171.629,181.65 164.379,181.65 164.379,186.889 			"/>
			<polygon fill="#E30613" points="156.709,171.83 156.709,189.269 154.279,189.269 146.22,177 146.22,189.269 143.579,189.269 
				143.579,171.83 145.999,171.83 154.059,184.08 154.059,171.83 			"/>
			<rect x="135.91" y="171.83" fill="#E30613" width="2.639" height="17.438"/>
			<polygon fill="#E30613" points="131.99,186.889 131.99,189.269 120.819,189.269 120.819,186.989 128.879,174.199 
				121.159,174.199 121.159,171.83 131.99,171.83 131.99,173.98 123.879,186.889 			"/>
			<path fill="#E30613" d="M112.58,171.83l6.401,17.438h-2.821l-1.199-3.5h-6.88l-1.2,3.5h-2.82l6.39-17.438H112.58z
				 M114.219,183.51l-2.639-7.741l-2.72,7.741H114.219z"/>
			<polygon fill="#FFFFFF" points="111.58,175.769 114.219,183.51 108.859,183.51 			"/>
			<polygon fill="#E30613" points="108.009,36.04 108.009,55.689 93.029,55.649 93.029,163.239 69.49,163.23 69.649,55.7 54,55.689 
				54,36.04 			"/>
			<path fill="#E30613" d="M101.779,179.839v2.671c0,2.25-0.42,3.7-1.57,4.92c-1.32,1.4-2.96,1.989-4.8,1.989
				c-1.81,0-3.38-0.669-4.58-1.87c-1.72-1.71-1.69-3.648-1.69-7c0-3.359-0.03-5.299,1.69-7.01c1.2-1.2,2.72-1.859,4.58-1.859
				c3.7,0,5.85,2.419,6.34,5.409h-2.67c-0.44-1.909-1.71-3.029-3.67-3.029c-1.03,0-1.96,0.409-2.57,1.07
				c-0.86,0.93-1.06,1.909-1.06,5.419c0,3.5,0.2,4.511,1.06,5.44c0.61,0.661,1.54,1.05,2.57,1.05c1.15,0,2.15-0.44,2.84-1.22
				c0.64-0.739,0.88-1.62,0.88-2.75v-0.98h-3.72v-2.25H101.779z"/>
			<path fill="#E30613" d="M80.439,171.83l6.39,17.438h-2.81l-1.2-3.5h-6.89l-1.2,3.5h-2.82l6.4-17.438H80.439z M82.08,183.51
				l-2.64-7.741l-2.72,7.741H82.08z"/>
			<polygon fill="#FFFFFF" points="79.439,175.769 82.08,183.51 76.72,183.51 			"/>
			<polygon fill="#E30613" points="69,171.83 69,189.269 66.35,189.269 66.35,177.609 62.33,186.109 60.37,186.109 56.259,177.609 
				56.259,189.269 53.609,189.269 53.609,171.83 56.259,171.83 61.35,182.68 66.35,171.83 			"/>
		</g>
		<g>
		</g>
	</g>
</g>
</svg>
