<svg xmlns="http://www.w3.org/2000/svg" width="200.714" height="346.811"><path fill="#76246F" d="M192.31.371l-183.091 39.564c-6.683 1.471-9.211 4.234-9.211 11.723l-.008 243.499c0 7.484 2.522 10.252 9.215 11.716l183.078 39.556c5.54 1.241 8.421-.536 8.421-5.276v-52.135c-20.191.011-149.473.05-149.539 0h149.539v-283.352c0-4.756-2.881-6.506-8.404-5.295z"/><linearGradient id="a" gradientUnits="userSpaceOnUse" x1="98.301" y1="7.911" x2="102.345" y2="312.425"><stop offset="0" stop-color="#9E639A"/><stop offset=".226" stop-color="#802A75"/><stop offset=".532" stop-color="#985D93"/><stop offset=".647" stop-color="#91548C"/><stop offset=".849" stop-color="#823B7C"/><stop offset="1" stop-color="#76246F"/></linearGradient><path fill-rule="evenodd" clip-rule="evenodd" fill="url(#a)" d="M189.442 4.014l-177.691 38.73c-6.485 1.438-8.94 4.147-8.94 11.474l-.008 238.37c0 7.335 2.45 10.04 8.945 11.478l177.677 38.719c5.377 1.218 8.173-.521 8.173-5.164v-328.423c0-4.659-2.796-6.37-8.156-5.184z"/><path fill="#76246F" d="M1.876 44.874s176.36-22.635 198.392 28.749l.003 103.393s-1.325 62.363-28.412 71.723l-88.863 20.33s-77.035 27.799-82.026-148.908c-2.325-57.502.906-75.287.906-75.287z"/><path d="M182.235 62.404c-4.953 0-5.223 2.795-5.496 5.12h9.963c0-2.673-.534-5.12-4.467-5.12z" fill="none"/><path d="M96.043 74.795c0 2.376 1.84 2.726 3.188 2.726 3.645 0 5.172-1.97 5.126-4.956v-2.365c-.229.138-.485.273-.695.354-2.863 1.354-7.619 0-7.619 4.241z" fill="none"/><path fill="#fff" d="M110.201 75.156v-9.779c0-5.609-2.915-7.624-9.186-7.624-7.643 0-10.019 2.935-10.15 6.834v1.006h5.552c.19-1.888 0-3.54 4.3-3.54 2.895 0 3.639 1.084 3.639 2.704 0 1.055-.229 1.936-.576 2.233-1.245.886-7.781.533-10.686 1.809-1.752.866-3.152 2.368-3.152 5.7 0 4.642 2.423 7.451 8.33 7.451 3.063 0 5.014-.53 6.624-3.377.287.521.553 1.351 1.2 1.929.838.698 1.667.831 2.756.831h3.031v-4.47c-.738.041-1.172-.185-1.358-.309-.185-.123-.324-.435-.324-1.398zm-5.845-2.591c.046 2.986-1.481 4.956-5.126 4.956-1.348 0-3.188-.35-3.188-2.726 0-4.241 4.756-2.887 7.618-4.241.21-.082.466-.217.695-.354v2.365z"/><path fill="#fff" d="M129.734 57.754c-5.142 0-5.684 2.327-6.121 3.728v-3.124h-5.873v22.976h6.086v-14.814c0-3.154 1.358-3.994 3.896-3.994 3.156 0 4.035 1.322 4.035 3.599v15.208h6.08v-16.261c.001-5.472-2.802-7.318-8.103-7.318z"/><path fill="#fff" d="M77.929 62.657v-4.299h-5.429v22.976h6.074v-12.409c0-1.09.135-3.232 1.139-4.511.858-1.049 2.15-1.4 3.549-1.4h3.711v-5.046c-1.004-.13-1.975-.215-2.971-.215-4.603.001-5.219 2.547-6.073 4.904z"/><path fill="#fff" d="M58.079 50.865c-1.355 1.106-1.749 2.496-1.749 4.299v3.194h-3.039v3.955h3.039v19.021h6.072v-19.021h3.811v-3.955h-3.811v-2.45c0-.612.096-.91.306-1.228.274-.347 1.066-.396 1.816-.396h1.688v-4.645h-3.179c-1.492 0-3.634.176-4.954 1.226z"/><path fill="#fff" d="M181.977 57.754c-8.548 0-11.429 4.865-11.429 12.18 0 8.027 3.318 12.017 11.157 12.017 9.105 0 10.374-4.559 10.859-7.419h-5.945c-.387 1.369-.661 2.811-4.419 2.811-4.34 0-5.615-1.886-5.615-5.559h16.38c.346-6.626-.886-14.03-10.988-14.03zm-5.238 9.77c.273-2.325.543-5.12 5.496-5.12 3.933 0 4.467 2.447 4.467 5.12h-9.963z"/><path fill="#fff" d="M155.065 77.48c-3.942 0-5.12-2.768-5.12-8.072 0-3.638.919-7.005 5.39-7.005 4.514 0 4.444 2.083 4.76 3.86h5.814c0-4.473-2.586-8.51-10.181-8.51-8.814 0-11.774 5.126-11.774 12.005 0 8.142 4.01 12.192 11.291 12.192 8.972 0 10.856-5.558 10.856-9.168h-6.007c-.315 2.454.001 4.698-5.029 4.698z"/><linearGradient id="b" gradientUnits="userSpaceOnUse" x1="99.824" y1="152.939" x2="143.124" y2="300.452"><stop offset=".318" stop-color="#fff"/><stop offset=".503" stop-color="#E7E8E9"/><stop offset=".872" stop-color="#ADB1B5"/></linearGradient><path fill="url(#b)" d="M168.885 95.183h-40.631l-81.033 110.365c-3.343 4.174-3.965 8.381-4.029 10.692v.684l.019 36.175h84.236l-.008 37.218h41.446v-37.595h31.829v-41.077l-31.829-.033v-116.429zm-41.439 116.384s-41.039.026-41.039 0c0-1.237.434-2.382 1.09-3.31l2.335-3.195 37.613-50.732v57.237z"/></svg>