<?xml version="1.0" encoding="UTF-8" standalone="no"?>
<!-- Created with Inkscape (http://www.inkscape.org/) -->
<svg
   xmlns:svg="http://www.w3.org/2000/svg"
   xmlns="http://www.w3.org/2000/svg"
   xmlns:xlink="http://www.w3.org/1999/xlink"
   version="1.0"
   width="991.78412"
   height="428.74628"
   id="svg2">
  <defs
     id="defs4">
    <linearGradient
       id="linearGradient3278">
      <stop
         id="stop3280"
         style="stop-color:#a40000;stop-opacity:1"
         offset="0" />
      <stop
         id="stop3292"
         style="stop-color:#760e12;stop-opacity:1"
         offset="0.22232509" />
      <stop
         id="stop3286"
         style="stop-color:#b65a02;stop-opacity:1"
         offset="0.26935539" />
      <stop
         id="stop3288"
         style="stop-color:#8a0700;stop-opacity:1"
         offset="0.62849587" />
      <stop
         id="stop3290"
         style="stop-color:#882700;stop-opacity:1"
         offset="0.90476191" />
      <stop
         id="stop3282"
         style="stop-color:#5a110a;stop-opacity:1"
         offset="1" />
    </linearGradient>
    <linearGradient
       x1="232.07129"
       y1="471.80505"
       x2="355.83038"
       y2="516.21875"
       id="linearGradient3284"
       xlink:href="#linearGradient3278"
       gradientUnits="userSpaceOnUse"
       gradientTransform="matrix(7.6561837,0,0,7.6561837,-1354.0957,-3456.0154)" />
  </defs>
  <g
     transform="translate(-203.43424,-90.472461)"
     id="layer1">
    <path
       d="M 386.96833,90.472461 C 376.3724,90.472461 347.25188,121.19289 347.25188,132.34222 C 347.25188,138.15992 336.39809,145.2621 323.3263,148.13309 C 288.68506,155.74158 232.40912,182.0039 232.40912,190.48136 C 232.40912,201.74904 253.22506,198.97643 257.77023,187.13178 C 259.99006,181.34715 274.21786,174.22491 289.59125,171.34091 C 304.96455,168.4569 322.57263,164.31888 328.58993,162.00992 C 344.86024,155.76638 342.8005,204.22529 325.00109,245.74944 C 312.06903,275.91871 306.33677,280.80511 275.47516,288.57621 C 256.35046,293.39188 231.06247,305.88064 219.25006,316.32988 C 201.02436,332.45258 199.69486,336.37485 209.44056,343.12653 C 215.75692,347.5025 231.43801,349.43828 244.3719,347.19387 C 257.30565,344.94931 269.89204,344.96033 272.36483,347.43313 C 274.83763,349.90593 265.1857,377.66357 250.83181,409.16111 C 220.71951,475.23826 221.19496,473.28157 236.23722,473.28165 C 242.55356,473.28165 247.72149,469.60798 247.72149,465.14696 C 247.72149,460.68616 262.00709,427.89219 279.5425,392.17395 C 301.84765,346.74001 315.07202,327.92654 323.56556,329.48895 C 330.35169,330.73721 352.65079,366.06844 374.04852,409.63962 C 395.10303,452.51187 418.9022,494.71644 426.92404,503.42787 C 436.08703,513.37846 451.02938,519.21867 467.119,519.21875 C 497.74114,519.21875 498.38379,516.1614 473.57891,494.09689 C 463.15471,484.82442 437.60181,440.09929 416.63604,394.80577 L 378.35512,312.50179 L 415.2005,293.83985 C 449.59967,276.40839 500.37555,228.5502 500.37555,213.44991 C 500.37555,209.72993 502.31708,201.66918 504.68216,195.50573 C 511.08273,178.82612 477.36428,146.881 446.78227,140.71617 C 397.44,130.7694 393.18897,128.25481 393.18897,109.13441 C 393.18897,98.890971 390.38513,90.472384 386.96833,90.472461 z M 400.1274,164.881 C 402.51062,164.91338 405.26324,165.11099 408.26209,165.35951 C 444.71977,168.38071 462.09463,180.38706 462.09463,202.44415 C 462.09463,230.62365 449.87735,248.82041 414.48274,274.46013 C 397.22624,286.96069 377.67549,296.96004 370.93819,296.47165 C 354.66413,295.29176 331.9395,289.10671 331.9395,285.9444 C 331.9395,284.55434 343.56673,256.30035 357.77913,223.25939 C 379.7657,172.14449 383.44503,164.65429 400.1274,164.881 z M 270.9293,310.827 C 280.6917,310.45346 290.82833,311.50855 294.85487,314.89434 C 302.30411,316.8355 284.04059,321.91606 271.40781,322.07202 C 258.7751,322.22805 244.97499,318.84548 249.15703,315.1336 C 251.60792,312.95825 261.16689,311.20054 270.9293,310.827 z M 525.0189,346.47611 C 520.96517,346.8286 515.64152,350.81034 505.63918,358.67814 C 494.11631,367.74207 479.57186,385.14649 473.33966,397.19832 C 461.62224,419.85726 458.1677,459.30613 467.119,468.25727 C 485.11149,486.24985 517.12989,462.97145 531.71805,421.1239 C 536.42446,407.62299 546.75978,393.06682 554.6866,388.82437 C 568.27764,381.55069 568.84496,383.68937 564.73535,429.01933 L 560.18949,477.10974 L 587.7039,448.63831 C 609.98193,425.40393 615.21831,422.77955 615.21831,434.76148 C 615.21831,442.87289 619.17793,451.83507 624.07077,454.85895 C 632.46402,460.04625 644.8492,448.37378 666.41904,414.90324 C 674.31087,402.65718 674.89336,404.42461 670.9649,426.38752 C 665.10508,459.14849 678.90183,468.75202 709.00656,453.18417 C 725.50226,444.65388 733.57747,443.8989 741.30608,450.31309 C 748.99749,456.69637 755.99386,456.32741 768.58124,448.87756 C 781.98822,440.94261 786.17055,440.81246 788.91798,448.39905 C 794.3505,463.40012 823.02689,459.76526 842.51126,441.46063 C 857.05793,427.79465 860.21619,427.00163 860.21619,437.15403 C 860.21619,458.49617 873.30956,458.94016 897.77934,438.35031 C 920.33912,419.36749 921.46566,419.1734 921.46566,434.28297 C 921.46566,447.45986 926.34387,452.09139 950.17635,450.07384 C 963.53447,448.94303 973.34764,418.82987 984.31956,434.79019 C 988.81167,441.32466 1002.6365,441.91028 1016.8604,440.87669 C 1031.0843,439.84312 1054.5115,429.36042 1060.4963,430.48029 C 1128.026,477.30834 1236.2458,370.04038 1179.1441,403.65823 C 1150.5279,421.34402 1114.4991,444.73955 1094.75,425.1767 C 1085.9798,416.48923 1086.61,414.49907 1102.8847,402.4474 C 1130.8652,381.72724 1129.3861,358.43882 1101.6252,358.43889 C 1082.0865,358.43889 1054.505,387.81874 1046.699,412.37395 C 1039.463,435.13586 1009.5117,426.68451 1009.5117,400.5479 C 1009.5117,382.66642 1013.2656,377.10015 1026.7382,375.18679 C 1045.3437,372.54434 1050.7664,358.43882 1033.1981,358.43889 C 1023.2636,358.43889 992.72027,385.06067 972.59801,416.50967 C 960.47491,435.4568 948.30571,425.86959 948.19393,401.43656 C 948.07939,376.39126 926.62179,376.17046 906.87106,402.46194 L 891.08018,423.51645 L 895.62603,398.63385 C 902.03878,364.32405 889.17394,366.61164 852.32074,406.29004 C 835.69864,424.18637 821.54419,435.38346 820.97824,431.17264 C 820.41223,426.96173 819.60342,409.87826 819.0642,393.13097 C 817.58135,347.07627 798.10555,348.38548 752.07259,397.91609 C 715.68734,437.06599 713.5231,438.23202 702.78591,423.99496 C 696.62145,415.82107 691.78015,402.90119 691.78015,395.28428 C 691.78015,374.74304 672.11516,378.47237 654.21699,402.46194 L 638.66538,423.51645 L 638.42611,402.46194 C 638.12124,375.99927 628.38388,375.88197 608.04064,401.74418 L 592.24976,421.84167 L 592.24976,393.37023 C 592.24976,366.44619 591.05324,365.03286 569.52046,367.29135 C 554.43135,368.87411 543.43576,365.20014 536.74242,356.04634 C 531.93128,349.46669 529.07261,346.12361 525.0189,346.47611 z M 382.18322,357.24261 C 383.56562,356.84189 385.89034,357.54166 387.44684,358.43889 C 393.1105,364.16794 394.4397,369.75075 397.49558,378.05786 C 395.53406,382.67814 378.58634,362.53831 381.2262,357.96038 C 381.43827,357.59257 381.72239,357.37621 382.18322,357.24261 z M 1098.5149,366.57359 C 1102.4906,366.2397 1105.2141,368.44208 1105.2141,373.51201 C 1105.2141,377.57476 1098.3235,384.55635 1089.9017,389.06362 C 1073.0381,398.08874 1069.2292,389.87786 1083.681,375.42605 C 1089.2159,369.89124 1094.5393,366.90747 1098.5149,366.57359 z M 523.6028,368.97342 C 526.62156,368.97334 525.23871,372.47053 525.23871,375.20624 C 525.23878,377.94195 524.68807,381.7669 521.66931,381.7669 C 518.65055,381.76698 518.34163,379.47824 518.34163,376.74253 C 518.34156,374.00682 520.58405,368.97342 523.6028,368.97342 z M 802.07704,369.44466 C 804.05349,369.49795 805.81088,370.06817 807.10141,371.3587 C 812.6454,376.9027 808.95857,386.7105 794.89937,403.41898 C 771.9838,430.65255 760.68579,433.94096 760.68579,413.46771 C 760.68579,396.24061 788.24201,369.07188 802.07704,369.44466 z M 499.89704,392.89172 C 502.42457,392.43472 504.94691,393.6601 507.31397,397.43758 C 532.39686,389.81753 522.73881,405.44143 514.25238,423.51645 C 501.68078,450.29243 484.74591,447.54998 485.06318,418.49208 C 485.14687,410.82227 492.31443,394.26279 499.89704,392.89172 z"
       id="path2419"
       style="fill:url(#linearGradient3284);fill-opacity:1" />
  </g>
</svg>
