<svg xmlns="http://www.w3.org/2000/svg" xmlns:xlink="http://www.w3.org/1999/xlink" width="195.758" height="330.854"><defs><clipPath><path d="M617.226 463.603h109.005v63.36h-109.005v-63.36z"/></clipPath><linearGradient id="a" gradientTransform="matrix(0 -15.103 -15.103 0 708.528 526.192)" gradientUnits="userSpaceOnUse" x2="1"><stop offset="0" stop-color="#709cd8"/><stop offset="1" stop-color="#2c77c6"/></linearGradient><linearGradient id="b" gradientTransform="matrix(0 -35.75 -35.75 0 707.894 493.213)" gradientUnits="userSpaceOnUse" x2="1"><stop offset="0" stop-color="#709cd8"/><stop offset="1" stop-color="#2c77c6"/></linearGradient><clipPath><path d="M617.215 435.498h109.016v91.464h-109.016v-91.464z"/></clipPath><linearGradient xlink:href="#a" id="c" gradientUnits="userSpaceOnUse" gradientTransform="matrix(0 -15.103 -15.103 0 708.528 526.192)" x2="1"/><linearGradient xlink:href="#b" id="d" gradientUnits="userSpaceOnUse" gradientTransform="matrix(0 -35.75 -35.75 0 707.894 493.213)" x2="1"/></defs><g transform="matrix(5.064 0 0 -5.064 -1679.396 1675.337)"><path d="M369.299 328.801c0 .945-.546 1.185-1.541.971l-33.451-7.231c-1.222-.267-1.684-.774-1.684-2.14l-.003-44.491c0-1.371.465-1.872 1.687-2.145l33.451-7.223c1.01-.232 1.533.257 1.541 1.141v61.118" fill="#2b78c6"/><path d="M366.934 329.074c-1.748-.39-32.461-7.086-32.461-7.086 5.263.527 9.716.748 13.488.748 19.827 0 20.765-6.126 20.765-6.126s-.002 8.837 0 11.86c0 .601-.098.821-.531.821-.27 0-.672-.085-1.261-.217" fill="url(#c)"/><path d="M333.196 306.877v0m0-30.376c0-1.241.18-1.848 1.148-2.072 1.398-.324 30.658-6.684 32.093-6.993.733-.157 1.232-.262 1.57-.262.711 0 .715.465.719 1.892.019 6.92.01 8.581.002 19.601 0 1.905-.01 3.01-.248 3.01-.202 0-.566-.79-1.225-2.555-.977-2.616-2.601-4.597-5.303-5.237-5.527-1.308-6.943-1.705-14.487-3.221-.696-.139-1.355-.206-1.985-.206-11.569 0-12.254 22.492-12.284 26.419v-30.376z" fill="url(#d)"/><g transform="translate(-356.929 -197.118)"><path d="M726.227 488.963c-1.102 3.889-4.275 5.972-8.703 6.464 0 0 4.604 3.39 8.707 6.718v7.269h-26.399v-8.093h14.88c-.031-.023-9.318-7.211-9.318-7.211l3.478-5.207s2.091 1.079 3.977 1.079c3.336 0 4.651-1.398 4.651-4.557 0-3.42-1.564-4.933-4.719-4.933-3.821 0-4.601 2.73-4.601 4.691h-9.396c-.176-6.653 3.886-11.4 13.535-11.4 7.475 0 12.469 2.605 13.908 8.215v6.965z" fill="#fff"/><path d="M720.702 514.676c0-1.47.608-2.2 2.04-2.2 1.662 0 1.894.836 1.981 1.357h-1.085c-.072-.25-.123-.515-.811-.515-.792 0-1.021.343-1.021 1.018h2.992c.064 1.211-.162 2.562-2.004 2.562-1.565 0-2.092-.886-2.092-2.222m2.949.437h-1.815c.047.425.098.937 1.001.937.719 0 .814-.444.814-.937" fill="#fff"/><path d="M717.994 516.898c1.388 0 1.86-.737 1.86-1.551h-1.062c-.057.323-.048.703-.872.703-.817 0-.984-.614-.984-1.28 0-.966.218-1.475.937-1.475.919 0 .862.407.919.856h1.096c0-.656-.346-1.675-1.986-1.675-1.325 0-2.059.741-2.059 2.23 0 1.256.541 2.192 2.151 2.192" fill="#fff"/><path d="M711.053 516.79h1.075v-.57c.074.255.173.679 1.113.679.974 0 1.485-.332 1.485-1.338v-2.972h-1.112v2.783c0 .413-.158.652-.74.652-.461 0-.712-.15-.712-.73v-2.705h-1.109v4.201z" fill="#fff"/><path d="M708.606 515.618c0-.193-.041-.353-.102-.405-.23-.164-1.421-.1-1.953-.33-.32-.16-.577-.438-.577-1.045 0-.849.443-1.362 1.519-1.362.564 0 .92.095 1.211.621.055-.098.103-.251.224-.353.15-.131.299-.156.5-.156h.552v.822c-.135-.013-.214.03-.244.051-.038.027-.058.081-.058.262v1.783c0 1.021-.539 1.392-1.682 1.392-1.395 0-1.83-.539-1.854-1.249v-.183h1.015c.034.342 0 .648.784.648.533 0 .665-.197.665-.496m-.125-1.059l.125.062v-.43c.011-.543-.268-.907-.937-.907-.248 0-.58.065-.58.498 0 .777.868.535 1.392.777" fill="#fff"/><path d="M702.787 516.79h.988v-.787c.16.431.272.896 1.117.896.178 0 .355-.017.538-.038v-.922h-.675c-.253 0-.495-.065-.65-.255-.181-.237-.208-.625-.208-.824v-2.271h-1.11v4.201z" fill="#fff"/></g><path d="M344.708 320.415h-.309c-.136 0-.282-.007-.329-.071-.045-.058-.058-.115-.058-.224v-.448h.696v-.724h-.696v-3.477h-1.11v3.477h-.552v.724h.552v.581c0 .332.076.587.319.786.245.194.631.224.906.224h.581v-.848z" fill="#fff"/></g></svg>