<?xml version="1.0" encoding="UTF-8" standalone="no"?>
<!-- Created with Inkscape (http://www.inkscape.org/) -->
<svg
   xmlns:svg="http://www.w3.org/2000/svg"
   xmlns="http://www.w3.org/2000/svg"
   xmlns:xlink="http://www.w3.org/1999/xlink"
   version="1.0"
   width="543.41132"
   height="202.48482"
   id="svg2">
  <defs
     id="defs4">
    <linearGradient
       id="linearGradient3324">
      <stop
         id="stop3326"
         style="stop-color:#ca2f1a;stop-opacity:1"
         offset="0" />
      <stop
         id="stop3328"
         style="stop-color:#e4c125;stop-opacity:1"
         offset="1" />
    </linearGradient>
    <radialGradient
       cx="580.51569"
       cy="470.29684"
       r="252.35051"
       fx="580.51569"
       fy="470.29684"
       id="radialGradient3361"
       xlink:href="#linearGradient3324"
       gradientUnits="userSpaceOnUse"
       gradientTransform="matrix(1.3961965,1.4722682e-2,-5.6610476e-3,0.5368543,-227.37576,86.504921)" />
    <radialGradient
       cx="580.51569"
       cy="470.29684"
       r="252.35051"
       fx="580.51569"
       fy="470.29684"
       id="radialGradient3390"
       xlink:href="#linearGradient3324"
       gradientUnits="userSpaceOnUse"
       gradientTransform="matrix(1.475674,1.4722682e-2,-5.9832988e-3,0.5368543,-263.17764,86.504921)" />
    <radialGradient
       cx="580.51569"
       cy="470.29684"
       r="252.35051"
       fx="580.51569"
       fy="470.29684"
       id="radialGradient3393"
       xlink:href="#linearGradient3324"
       gradientUnits="userSpaceOnUse"
       gradientTransform="matrix(1.3959191,3.1486971e-2,-2.2644228e-2,1.0038918,-219.22756,-142.87326)" />
    <radialGradient
       cx="580.51569"
       cy="470.29684"
       r="252.35051"
       fx="580.51569"
       fy="470.29684"
       id="radialGradient3396"
       xlink:href="#linearGradient3324"
       gradientUnits="userSpaceOnUse"
       gradientTransform="matrix(1.470353,1.4722682e-2,-5.961724e-3,0.5368543,-276.68473,86.504921)" />
    <radialGradient
       cx="580.51569"
       cy="470.29684"
       r="252.35051"
       fx="580.51569"
       fy="470.29684"
       id="radialGradient3424"
       xlink:href="#linearGradient3324"
       gradientUnits="userSpaceOnUse"
       gradientTransform="matrix(1.5678823,1.4722682e-2,-6.3571683e-3,0.5368543,-334.4894,82.504921)" />
  </defs>
  <g
     transform="translate(-371.25644,-246.79091)"
     id="layer1">
    <path
       d="M 373.75644,348.01539 L 912.16775,348.01539"
       id="path3347"
       style="fill:none;fill-rule:evenodd;stroke:#525252;stroke-width:5;stroke-linecap:round;stroke-linejoin:miter;stroke-miterlimit:4;stroke-dasharray:none;stroke-opacity:1" />
    <path
       d="M 671.7514,348.28583 C 671.7514,398.4702 631.02205,439.19956 580.83767,439.19956 C 530.6533,439.19956 489.92395,398.4702 489.92395,348.28583 C 489.92395,298.10145 530.6533,257.37211 580.83767,257.37211 C 631.02205,257.37211 671.7514,298.10145 671.7514,348.28583 z"
       id="path3340"
       style="fill:#000000;fill-opacity:0;fill-rule:evenodd;stroke:#525252;stroke-width:5;stroke-linecap:butt;stroke-linejoin:round;stroke-miterlimit:4;stroke-dasharray:none;stroke-opacity:1" />
    <path
       d="M 644.47729,348.28584 C 644.47729,383.4149 615.96674,411.92545 580.83768,411.92545 C 545.70862,411.92545 517.19808,383.4149 517.19808,348.28584 C 517.19808,313.15677 545.70862,284.64624 580.83768,284.64624 C 615.96674,284.64624 644.47729,313.15677 644.47729,348.28584 z"
       id="path3343"
       style="fill:#000000;fill-opacity:0;fill-rule:evenodd;stroke:#525252;stroke-width:5;stroke-linecap:butt;stroke-linejoin:round;stroke-miterlimit:4;stroke-dasharray:none;stroke-opacity:1" />
    <path
       d="M 594.47471,348.28583 C 594.47471,355.81348 588.36531,361.92288 580.83766,361.92288 C 573.31001,361.92288 567.20061,355.81348 567.20061,348.28583 C 567.20061,340.75818 573.31001,334.64878 580.83766,334.64878 C 588.36531,334.64878 594.47471,340.75818 594.47471,348.28583 z"
       id="path3345"
       style="fill:#000000;fill-opacity:0;fill-rule:evenodd;stroke:#525252;stroke-width:5;stroke-linecap:butt;stroke-linejoin:round;stroke-miterlimit:4;stroke-dasharray:none;stroke-opacity:1" />
    <path
       d="M 580.62851,249.29091 L 580.62851,446.77573"
       id="path3349"
       style="fill:none;fill-rule:evenodd;stroke:#525252;stroke-width:5;stroke-linecap:round;stroke-linejoin:miter;stroke-miterlimit:4;stroke-dasharray:none;stroke-opacity:1" />
    <path
       d="M 640.93825,273.48567 C 638.26998,273.48575 635.44053,273.80164 632.79673,275.54817 C 628.72922,278.31186 629.05871,281.80397 632.72655,284.67317 C 635.36723,286.45916 638.25006,286.82948 640.93825,286.82942 L 653.57219,286.82942 L 653.57219,368.89192 L 637.42954,368.89192 C 634.77857,368.89193 631.91345,369.22032 629.28803,370.98567 C 626.66264,372.75102 625.25235,375.98017 625.25237,378.51692 C 625.25238,381.05366 626.66262,384.28282 629.28803,386.04817 C 631.91347,387.81352 634.77854,388.14192 637.42954,388.14192 L 686.80499,388.14192 C 689.4733,388.14192 692.33777,387.79469 694.98159,386.04817 C 697.62542,384.30165 699.0522,381.07724 699.05234,378.51692 L 699.05234,374.26692 L 697.57845,373.79817 C 696.90819,372.70603 696.08586,371.71516 694.98159,370.98567 C 692.3378,369.23913 689.47327,368.89193 686.80499,368.89192 L 675.1542,368.89192 L 675.1542,279.48567 L 675.1542,273.48567 L 668.4164,273.48567 L 640.93825,273.48567 z"
       id="path3388"
       style="font-size:40px;font-style:normal;font-weight:normal;line-height:125%;fill:url(#radialGradient3424);fill-opacity:1;stroke:#000000;stroke-width:5;stroke-linecap:butt;stroke-linejoin:miter;stroke-miterlimit:4;stroke-dasharray:none;stroke-opacity:1;font-family:Bitstream Vera Sans" />
    <path
       d="M 484.53105,302.53571 C 467.28172,302.97411 464.08042,307.37404 463.34477,306.63839 C 462.60912,305.90274 462.18902,303.16071 459.34477,303.16071 C 456.41188,303.16071 452.87111,303.16071 452.87111,303.16071 L 413.28775,303.16071 C 410.74013,303.16078 407.99572,303.49238 405.4599,305.25446 C 402.92405,307.01655 401.56248,310.25255 401.56249,312.78571 C 401.56249,315.31701 402.86498,318.51244 405.39384,320.31696 C 407.92271,322.12149 410.71578,322.50452 413.28775,322.50446 L 434.22806,322.50446 L 434.22806,400.28571 L 419.62929,400.28571 C 417.06053,400.2857 414.29161,400.66592 411.76842,402.44196 C 409.24519,404.21801 407.90403,407.4088 407.90404,409.94196 C 407.90404,412.47512 409.2656,415.71111 411.80145,417.47321 C 414.33726,419.23532 417.08167,419.56692 419.62929,419.56696 L 478.05739,419.56696 C 480.60499,419.56695 483.34772,419.21945 485.88523,417.47321 C 488.42274,415.72698 489.81563,412.50087 489.81567,409.94196 C 489.81561,407.38306 488.44341,404.17095 485.91826,402.41071 C 483.3931,400.65048 480.62608,400.2857 478.05739,400.28571 L 461.34477,400.28571 L 461.34477,390.31696 L 484.63014,390.31696 C 497.70647,390.31697 509.50676,385.99165 518.71595,377.72321 C 527.96078,369.4227 532.85219,358.52084 532.85231,346.37946 C 532.85222,338.78057 530.7275,331.4094 526.64288,324.59821 C 522.47191,317.64357 516.35563,312.06522 508.74122,308.16071 L 508.70819,308.16071 C 501.3713,304.45147 493.17537,302.53581 484.53105,302.53571 z M 511.94502,348.37946 C 511.94495,355.56384 509.48748,362.94574 504.01809,367.81696 C 498.50014,372.73134 492.4548,374.97322 484.63014,374.97321 C 476.80529,374.97322 470.72673,372.71244 465.14309,367.78571 C 459.61423,362.90744 459.23092,355.54689 459.23092,348.37946 C 458.852,312.44479 509.57498,314.32648 511.94502,348.37946 z"
       id="path3386"
       style="font-size:40px;font-style:normal;font-weight:normal;line-height:125%;fill:url(#radialGradient3390);fill-opacity:1;stroke:#000000;stroke-width:5;stroke-linecap:butt;stroke-linejoin:miter;stroke-miterlimit:4;stroke-dasharray:none;stroke-opacity:1;font-family:Bitstream Vera Sans" />
    <path
       d="M 581.5,302.53571 C 568.4343,302.53582 556.63786,307.18305 547.40625,315.97321 C 538.15481,324.78242 533.31249,336.16356 533.3125,348.81696 C 533.31248,361.47046 538.14664,372.84522 547.40625,381.62946 C 556.64338,390.39241 568.44674,395.00447 581.5,395.00446 C 594.55402,395.00447 606.29968,390.35929 615.5,381.56696 C 624.71667,372.7589 629.59368,361.41896 629.59375,348.81696 C 629.59365,336.16451 624.71746,324.81346 615.5,316.00446 C 606.30565,307.21788 594.56559,302.53581 581.5,302.53571 z M 581.40625,321.91071 C 585.28758,321.91074 588.743,322.47721 591.91166,323.65865 C 595.34354,324.93824 598.43909,326.93917 601.375,329.72321 C 606.99298,335.05059 609.53116,340.96764 609.53125,348.81696 C 609.53121,356.59991 607.00399,362.51735 601.375,367.87946 C 595.72885,373.25787 589.49019,375.72323 581.40625,375.72321 C 573.39077,375.72323 567.18208,373.26819 561.5,367.87946 C 555.83898,362.51078 553.24995,356.58507 553.25,348.81696 C 553.25002,341.04782 555.8325,335.12348 561.46875,329.75446 C 567.11484,324.37616 573.3221,321.91076 581.40625,321.91071 z"
       id="path3384"
       style="font-size:40px;font-style:normal;font-weight:normal;line-height:125%;fill:url(#radialGradient3393);fill-opacity:1;stroke:#000000;stroke-width:5;stroke-linecap:butt;stroke-linejoin:miter;stroke-miterlimit:4;stroke-dasharray:none;stroke-opacity:1;font-family:Bitstream Vera Sans" />
    <path
       d="M 879.52266,303.32942 C 872.31582,303.32953 865.0756,306.39463 857.58516,311.61067 C 855.84819,312.80566 853.74078,314.45265 851.46016,316.32942 L 851.46016,311.17317 L 851.46016,305.17317 L 845.46016,305.17317 L 824.89766,305.17317 C 822.53695,305.17323 819.98554,305.50159 817.64766,307.26692 C 815.30976,309.03225 814.08514,312.26144 814.08516,314.79817 C 814.08512,317.33297 815.28224,320.52494 817.61641,322.32942 C 819.95056,324.1339 822.51895,324.51698 824.89766,324.51692 L 832.21016,324.51692 L 832.21016,373.14192 L 820.77266,373.14192 C 818.4479,373.14192 815.98978,373.45762 813.64766,375.14192 C 811.30552,376.82622 809.96015,380.06545 809.96016,382.61067 C 809.96012,385.15085 811.24453,388.38536 813.58516,390.11067 C 815.92577,391.83598 818.42993,392.14192 820.77266,392.14192 L 877.46016,392.14192 C 879.83626,392.14192 882.35585,391.79472 884.71016,390.04817 C 887.06445,388.30162 888.33507,385.07725 888.33516,382.51692 C 888.33507,379.95658 887.06447,376.73222 884.71016,374.98567 C 882.35583,373.23912 879.83626,372.89193 877.46016,372.89192 L 859.46016,372.89192 L 859.46016,341.79817 C 859.46016,330.47392 861.60048,314.47848 872.98248,317.57496 C 888.51035,322.00912 867.16831,333.17129 874.99141,342.11067 C 882.81453,351.05005 901.80301,343.60873 902.21016,333.82942 C 902.61731,324.05011 900.29486,311.90841 893.30391,307.76692 C 888.57282,305.02659 884.15731,303.32956 879.52266,303.32942 z"
       id="path3380"
       style="font-size:40px;font-style:normal;font-weight:normal;line-height:125%;fill:url(#radialGradient3361);fill-opacity:1;stroke:#000000;stroke-width:5;stroke-linecap:butt;stroke-linejoin:miter;stroke-miterlimit:4;stroke-dasharray:none;stroke-opacity:1;font-family:Bitstream Vera Sans" />
    <path
       d="M 748.98251,302.53571 C 735.39188,302.53572 725.38636,304.01611 716.96128,311.62946 C 711.95593,317.75171 711.72193,327.04503 715.87526,332.37946 C 720.02861,337.7139 729.73537,335.06747 734.89712,333.56696 C 743.95804,324.65893 731.55005,315.44782 750.72672,315.91071 C 755.8603,315.91074 757.80499,316.8275 760.96167,318.37946 C 764.78958,320.29246 765.50317,327.5439 765.50322,330.72321 C 766.99955,338.38439 753.28361,336.48656 745.6022,337.03125 C 734.62241,337.03131 725.14537,337.69593 716.75442,342.07142 C 705.92271,347.84146 702.3662,354.80672 701.00004,366.12946 C 700.95646,375.00771 703.2918,382.4939 712.61719,388.28571 C 722.55341,393.73306 747.1566,391.77232 754.64608,391.77232 C 762.31334,391.77232 760.94526,391.06586 766.3219,387.12947 C 771.84089,383.08886 773.41144,391.77232 777.409,391.77232 C 785.7299,391.81122 794.0507,391.74504 802.37148,391.73652 C 810.12392,391.75088 809.50977,383.77718 809.65121,383.77232 C 809.65121,368.74884 812.26226,358.26991 802.27068,358.08735 L 791.859,357.89711 C 787.37781,357.81523 790.90623,372.87946 789.659,372.87946 L 785.84147,372.87946 L 785.84147,330.72321 C 784.54968,310.85658 766.41689,303.19985 748.98251,302.53571 z M 747.89648,353.09821 L 765.50322,351.09821 C 765.8897,361.00963 768.4325,371.32354 746.15511,375.72321 C 735.87029,376.00252 724.76347,377.65669 721.23955,366.12946 C 722.51212,354.59367 738.50111,353.59875 747.89648,353.09821 z"
       id="path3382"
       style="font-size:40px;font-style:normal;font-weight:normal;line-height:125%;fill:url(#radialGradient3396);fill-opacity:1;stroke:#000000;stroke-width:5;stroke-linecap:butt;stroke-linejoin:round;stroke-miterlimit:4;stroke-dasharray:none;stroke-opacity:1;font-family:Bitstream Vera Sans" />
  </g>
</svg>
