<?xml version="1.0" encoding="UTF-8" standalone="no"?>
<!-- Created with Inkscape (http://www.inkscape.org/) -->
<svg
   xmlns:svg="http://www.w3.org/2000/svg"
   xmlns="http://www.w3.org/2000/svg"
   version="1.0"
   width="1063.4375"
   height="882.15619"
   id="svg2">
  <defs
     id="defs4" />
  <g
     transform="translate(116.28125,-80.9375)"
     id="layer1">
    <path
       d="M 915.15625,100.9375 L 707.4375,169.96875 L 707.4375,664 L 915.15625,593.78125 L 915.15625,469.03125 L 813.5,501.625 L 813.5,407.6875 L 915.15625,373.59375 L 915.15625,289.4375 L 815.53125,322.84375 L 815.53125,236.96875 C 815.53125,236.96875 869.6299,219.65224 915.15625,204.625 L 915.15625,100.9375 z M 658.9375,186.09375 L 507.3125,235.125 C 348.86686,287.61662 372.26421,543.01704 469.65625,540.375 L 360.9375,781.09375 L 466.75,745.34375 L 538.25,530.375 C 552.12144,530.11375 559.27789,528.19897 570.0625,524.875 L 570.0625,710.40625 L 658.9375,680.375 L 658.9375,186.09375 z M 336.5625,293.25 L 220.84375,331.71875 L 220.84375,828.46875 L 336.5625,789.34375 L 336.5625,293.25 z M 543.875,319.5 C 546.83211,319.51192 549.81745,319.80507 552.78125,320.40625 C 584.39518,326.81888 603.30633,365.34315 595,406.40625 C 586.69367,447.46934 554.3014,475.60012 522.6875,469.1875 C 491.07357,462.77487 472.16242,424.25061 480.46875,383.1875 C 487.99636,345.97408 515.28964,319.38478 543.875,319.5 z M 78.90625,386.875 C 64.688142,386.803 48.455748,389.37992 30,395.15625 L -116.28125,443.78125 L -116.28125,942.375 L -12.71875,907.375 L -12.71875,701.65625 C -6.53125,702.77427 4.1875,703.21634 10.375,701.65625 L 79.21875,876.3125 L 188.625,839.34375 L 89.71875,662.65625 C 164.42724,637.05094 216.34796,387.57096 78.90625,386.875 z M 21.34375,485.5625 C 23.954707,485.50508 26.581605,485.68161 29.21875,486.0625 C 62.974202,490.93788 85.17842,530.83316 78.78125,575.125 C 72.38408,619.41686 39.817952,651.40663 6.0625,646.53125 C -27.69295,641.65584 -49.897171,601.76058 -43.5,557.46875 C -37.602607,516.6372 -9.465546,486.24002 21.34375,485.5625 z M 304.46875,821.5625 C 288.41259,821.66325 270.9423,825.08886 253.625,832.15625 C 203.2474,852.71592 173.34878,896.34249 186.90625,929.5625 C 200.46371,962.7825 252.34115,973.0597 302.71875,952.5 C 353.09636,931.94033 382.99497,888.31376 369.4375,855.09375 C 360.54042,833.29311 335.12143,821.37017 304.46875,821.5625 z"
       id="path3266"
       style="fill:#9a9a9a;fill-opacity:1;fill-rule:evenodd;stroke:none;stroke-width:3;stroke-linecap:butt;stroke-linejoin:miter;stroke-miterlimit:4;stroke-dasharray:none;stroke-opacity:1" />
    <path
       d="M 110.90625,366.875 C 96.688142,366.803 80.455748,369.37992 62,375.15625 L -84.28125,423.78125 L -84.28125,922.375 L 19.28125,887.375 L 19.28125,681.65625 C 25.46875,682.77427 36.201936,683.21634 42.389436,681.65625 L 111.21875,856.3125 L 220.625,819.34375 L 121.71875,642.65625 C 196.42724,617.05094 248.34796,367.57096 110.90625,366.875 z M 53.34375,465.5625 C 55.954707,465.50508 58.581605,465.68161 61.21875,466.0625 C 94.974202,470.93788 117.17842,510.83316 110.78125,555.125 C 104.38408,599.41686 71.817952,631.40663 38.0625,626.53125 C 4.3070496,621.65584 -17.897171,581.76058 -11.5,537.46875 C -5.6026066,496.6372 22.534454,466.24002 53.34375,465.5625 z"
       id="path2419"
       style="fill:#970017;fill-opacity:1;fill-rule:evenodd;stroke:none;stroke-width:3;stroke-linecap:butt;stroke-linejoin:miter;stroke-miterlimit:4;stroke-dasharray:none;stroke-opacity:1" />
    <path
       d="M 368.5625,769.34375 L 368.5625,273.25 L 252.84375,311.71875 L 252.84375,808.46875 L 368.5625,769.34375 z"
       id="path2424"
       style="fill:#970017;fill-opacity:1;fill-rule:evenodd;stroke:none;stroke-width:3;stroke-linecap:butt;stroke-linejoin:miter;stroke-miterlimit:4;stroke-dasharray:none;stroke-opacity:1" />
    <path
       d="M 947.15625,80.9375 L 739.4375,149.96875 L 739.4375,644 L 947.15625,573.78125 L 947.15625,449.03125 L 845.5,481.625 L 845.5,387.6875 L 947.15625,353.59375 L 947.15625,269.4375 L 847.53125,302.84375 L 847.53125,216.96875 C 847.53125,216.96875 901.6299,199.65224 947.15625,184.625 L 947.15625,80.9375 z"
       id="path2396"
       style="fill:#970017;fill-opacity:1;fill-rule:evenodd;stroke:none;stroke-width:3;stroke-linecap:butt;stroke-linejoin:miter;stroke-miterlimit:4;stroke-dasharray:none;stroke-opacity:1" />
    <path
       d="M 401.4371,835.08048 C 414.99457,868.30049 385.11156,911.94778 334.73395,932.50745 C 284.35635,953.06716 232.46701,942.79206 218.90955,909.57204 C 205.35208,876.35203 235.23509,832.70474 285.61269,812.14507 C 335.9903,791.5854 387.87964,801.86046 401.4371,835.08048 z"
       id="path3225"
       style="fill:#970017;fill-opacity:1;fill-rule:nonzero;stroke:none;stroke-width:3;stroke-linecap:round;stroke-linejoin:miter;stroke-miterlimit:4;stroke-opacity:1" />
    <path
       d="M 690.9375,166.09375 L 539.3125,215.125 C 380.86686,267.61662 404.26421,523.01704 501.65625,520.375 L 392.9375,761.09375 L 498.75,725.34375 L 570.25,510.375 C 584.12144,510.11375 591.27789,508.19897 602.0625,504.875 L 602.0625,690.40625 L 690.9375,660.375 L 690.9375,166.09375 z M 575.875,299.5 C 578.83211,299.51192 581.81745,299.80507 584.78125,300.40625 C 616.39518,306.81888 635.30633,345.34315 627,386.40625 C 618.69367,427.46934 586.3014,455.60012 554.6875,449.1875 C 523.07357,442.77487 504.16242,404.25061 512.46875,363.1875 C 519.99636,325.97408 547.28964,299.38478 575.875,299.5 z"
       id="path3244"
       style="fill:#970017;fill-opacity:1;fill-rule:evenodd;stroke:none;stroke-width:3;stroke-linecap:butt;stroke-linejoin:miter;stroke-miterlimit:4;stroke-dasharray:none;stroke-opacity:1" />
    <path
       d="M 159.31003,402.30325 C 155.71426,406.90476 139.98144,403.8788 134.14944,398.03816 C 128.31751,392.19756 115.391,386.24818 118.98685,381.64667 C 122.58269,377.04517 137.81043,378.05082 143.64236,383.89143 C 149.47436,389.73207 162.90595,397.70176 159.31003,402.30325 z"
       id="path3277"
       style="fill:#ffffff;fill-opacity:1;fill-rule:nonzero;stroke:none;stroke-width:3;stroke-linecap:round;stroke-linejoin:miter;stroke-miterlimit:4;stroke-opacity:1" />
    <path
       d="M -8.162441,753.33673 C 0.7698825,750.81839 3.035229,748.74502 10.101524,749.33673 C 10.89372,792.99124 11.914361,828.41731 10.101524,874.67686 C 3.2292063,875.59187 0.6491623,880.994 -8.162441,878.67686 C -7.7432,834.11037 -4.3793534,796.70256 -8.162441,753.33673 z"
       id="rect3280"
       style="fill:#ffffff;fill-opacity:1;fill-rule:nonzero;stroke:none;stroke-width:3;stroke-linecap:round;stroke-linejoin:miter;stroke-miterlimit:4;stroke-opacity:1" />
    <path
       d="M 363.69477,823.81015 C 366.66108,833.46671 334.20185,847.55767 320.88161,846.12626 C 309.13916,844.86441 288.85246,833.9617 289.40311,824.64732 C 289.74775,818.81764 319.4685,813.86125 327.5304,812.09209 C 337.06091,810.00064 365.5317,813.71451 363.69477,823.81015 z"
       id="path3283"
       style="fill:#ffffff;fill-opacity:1;fill-rule:nonzero;stroke:none;stroke-width:3;stroke-linecap:round;stroke-linejoin:miter;stroke-miterlimit:4;stroke-opacity:1" />
    <path
       d="M 922.55185,95.765303 C 931.48417,93.246963 933.74952,91.173593 940.81582,91.765303 C 941.60801,135.41981 942.62865,112.84588 940.81582,159.10543 C 933.9435,160.02044 931.36345,165.42257 922.55185,163.10543 C 922.97109,118.53894 926.33494,139.13113 922.55185,95.765303 z"
       id="path3289"
       style="fill:#ffffff;fill-opacity:1;fill-rule:nonzero;stroke:none;stroke-width:3;stroke-linecap:round;stroke-linejoin:miter;stroke-miterlimit:4;stroke-opacity:1" />
    <path
       d="M 922.55185,285.7653 C 931.48417,283.24696 933.74952,281.17359 940.81582,281.7653 C 941.60801,325.41981 942.62865,292.84588 940.81582,339.10543 C 933.9435,340.02044 931.36345,345.42257 922.55185,343.10543 C 922.97109,298.53894 926.33494,329.13113 922.55185,285.7653 z"
       id="path3291"
       style="fill:#ffffff;fill-opacity:1;fill-rule:nonzero;stroke:none;stroke-width:3;stroke-linecap:round;stroke-linejoin:miter;stroke-miterlimit:4;stroke-opacity:1" />
    <path
       d="M 922.55185,461.7653 C 931.48417,459.24696 933.74952,457.17359 940.81582,457.7653 C 941.60801,501.41981 942.62865,478.84588 940.81582,525.10543 C 933.9435,526.02044 931.36345,531.42257 922.55185,529.10543 C 922.97109,484.53894 926.33494,505.13113 922.55185,461.7653 z"
       id="path3293"
       style="fill:#ffffff;fill-opacity:1;fill-rule:nonzero;stroke:none;stroke-width:3;stroke-linecap:round;stroke-linejoin:miter;stroke-miterlimit:4;stroke-opacity:1" />
    <path
       d="M 658.53824,189.67161 C 667.47056,187.15327 669.73591,185.0799 676.8022,185.67161 C 677.5944,229.32612 678.61504,264.75219 676.8022,311.01174 C 669.92989,311.92675 667.34984,317.32888 658.53824,315.01174 C 658.95748,270.44525 662.32133,233.03744 658.53824,189.67161 z"
       id="path3295"
       style="fill:#ffffff;fill-opacity:1;fill-rule:nonzero;stroke:none;stroke-width:3;stroke-linecap:round;stroke-linejoin:miter;stroke-miterlimit:4;stroke-opacity:1" />
    <path
       d="M 338.31988,293.71732 C 347.2522,291.19898 349.51755,289.12561 356.58384,289.71732 C 357.37604,333.37183 358.39668,368.7979 356.58384,415.05745 C 349.71153,415.97246 347.13148,421.37459 338.31988,419.05745 C 338.73912,374.49096 342.10297,337.08315 338.31988,293.71732 z"
       id="path3297"
       style="fill:#ffffff;fill-opacity:1;fill-rule:nonzero;stroke:none;stroke-width:3;stroke-linecap:round;stroke-linejoin:miter;stroke-miterlimit:4;stroke-opacity:1" />
  </g>
</svg>
