<svg xmlns="http://www.w3.org/2000/svg" xmlns:xlink="http://www.w3.org/1999/xlink" width="195.758" height="330.854"><defs><clipPath><path d="M617.226 463.603h109.005v63.36h-109.005v-63.36z"/></clipPath><clipPath><path d="M617.215 435.498h109.016v91.464h-109.016v-91.464z"/></clipPath><linearGradient id="a" gradientUnits="userSpaceOnUse" x1="218.872" y1="906.117" x2="293.251" y2="55.958" gradientTransform="matrix(1 0 0 -1 4 871.441)"><stop offset="0" stop-color="#F37364"/><stop offset=".15" stop-color="#ED4555"/><stop offset=".5" stop-color="#F26758"/><stop offset="1" stop-color="#ED1B2F"/></linearGradient><linearGradient xlink:href="#a" id="f" gradientUnits="userSpaceOnUse" gradientTransform="matrix(0 181.037 -181.037 0 97.901 175.907)" x1="-.874" y1="1.166" x2=".848" y2="1.033"/><linearGradient xlink:href="#a" x1="661.752" y1="527.824" x2="670.409" y2="459.683" gradientUnits="userSpaceOnUse"/><linearGradient xlink:href="#a" gradientUnits="userSpaceOnUse" x1="665.941" y1="523.915" x2="671.666" y2="461.778"/><linearGradient xlink:href="#b" x1="661.752" y1="527.824" x2="670.409" y2="459.683" gradientUnits="userSpaceOnUse"/><linearGradient id="b" gradientUnits="userSpaceOnUse" x1="218.872" y1="906.117" x2="293.251" y2="55.958" gradientTransform="matrix(1 0 0 -1 4 871.441)"><stop offset="0" stop-color="#F37364"/><stop offset=".15" stop-color="#ED4555"/><stop offset=".5" stop-color="#F26758"/><stop offset="1" stop-color="#ED1B2F"/></linearGradient><linearGradient xlink:href="#b" gradientUnits="userSpaceOnUse" x1="665.941" y1="523.915" x2="671.666" y2="461.778"/><linearGradient xlink:href="#c" x1="661.752" y1="527.824" x2="670.409" y2="459.683" gradientUnits="userSpaceOnUse"/><linearGradient id="c" gradientUnits="userSpaceOnUse" x1="218.872" y1="906.117" x2="293.251" y2="55.958" gradientTransform="matrix(1 0 0 -1 4 871.441)"><stop offset="0" stop-color="#F37364"/><stop offset=".15" stop-color="#ED4555"/><stop offset=".5" stop-color="#F26758"/><stop offset="1" stop-color="#ED1B2F"/></linearGradient><linearGradient xlink:href="#c" gradientUnits="userSpaceOnUse" x1="665.941" y1="523.915" x2="671.666" y2="461.778"/><linearGradient id="d" gradientUnits="userSpaceOnUse" x1="218.872" y1="906.117" x2="293.251" y2="55.958" gradientTransform="matrix(1 0 0 -1 4 871.441)"><stop offset="0" stop-color="#F37364"/><stop offset=".15" stop-color="#ED4555"/><stop offset=".5" stop-color="#F26758"/><stop offset="1" stop-color="#ED1B2F"/></linearGradient><linearGradient gradientTransform="translate(-356.929 -197.118)" y2="461.778" x2="671.666" y1="523.915" x1="665.941" gradientUnits="userSpaceOnUse" id="e" xlink:href="#d"/></defs><g transform="translate(362.902 -528.035)"><g transform="matrix(5.064 0 0 -5.064 -2042.296 2203.376)"><path d="M369.299 328.801c0 .945-.546 1.185-1.541.971l-33.451-7.231c-1.222-.267-1.684-.774-1.684-2.14l-.003-44.491c0-1.371.465-1.872 1.687-2.145l33.451-7.223c1.01-.232 1.533.257 1.541 1.141v61.118" fill="#ed1b2f"/><path d="M366.934 329.074c-1.748-.39-32.461-7.086-32.461-7.086 5.263.527 9.716.748 13.488.748 19.827 0 20.765-6.126 20.765-6.126s-.002 8.837 0 11.86c0 .601-.098.821-.531.821-.27 0-.672-.085-1.261-.217" fill="url(#e)"/><g transform="translate(-356.929 -197.118)"><path d="M720.702 514.676c0-1.47.608-2.2 2.04-2.2 1.662 0 1.894.836 1.981 1.357h-1.085c-.072-.25-.123-.515-.811-.515-.792 0-1.021.343-1.021 1.018h2.992c.064 1.211-.162 2.562-2.004 2.562-1.565 0-2.092-.886-2.092-2.222m2.949.437h-1.815c.047.425.098.937 1.001.937.719 0 .814-.444.814-.937" fill="#fff"/><path d="M717.994 516.898c1.388 0 1.86-.737 1.86-1.551h-1.062c-.057.323-.048.703-.872.703-.817 0-.984-.614-.984-1.28 0-.966.218-1.475.937-1.475.919 0 .862.407.919.856h1.096c0-.656-.346-1.675-1.986-1.675-1.325 0-2.059.741-2.059 2.23 0 1.256.541 2.192 2.151 2.192" fill="#fff"/><path d="M711.053 516.79h1.075v-.57c.074.255.173.679 1.113.679.974 0 1.485-.332 1.485-1.338v-2.972h-1.112v2.783c0 .413-.158.652-.74.652-.461 0-.712-.15-.712-.73v-2.705h-1.109v4.201z" fill="#fff"/><path d="M708.606 515.618c0-.193-.041-.353-.102-.405-.23-.164-1.421-.1-1.953-.33-.32-.16-.577-.438-.577-1.045 0-.849.443-1.362 1.519-1.362.564 0 .92.095 1.211.621.055-.098.103-.251.224-.353.15-.131.299-.156.5-.156h.552v.822c-.135-.013-.214.03-.244.051-.038.027-.058.081-.058.262v1.783c0 1.021-.539 1.392-1.682 1.392-1.395 0-1.83-.539-1.854-1.249v-.183h1.015c.034.342 0 .648.784.648.533 0 .665-.197.665-.496m-.125-1.059l.125.062v-.43c.011-.543-.268-.907-.937-.907-.248 0-.58.065-.58.498 0 .777.868.535 1.392.777" fill="#fff"/><path d="M702.787 516.79h.988v-.787c.16.431.272.896 1.117.896.178 0 .355-.017.538-.038v-.922h-.675c-.253 0-.495-.065-.65-.255-.181-.237-.208-.625-.208-.824v-2.271h-1.11v4.201z" fill="#fff"/></g><path d="M344.708 320.415h-.309c-.136 0-.282-.007-.329-.071-.045-.058-.058-.115-.058-.224v-.448h.696v-.724h-.696v-3.477h-1.11v3.477h-.552v.724h.552v.581c0 .332.076.587.319.786.245.194.631.224.906.224h.581v-.848z" fill="#fff"/><path d="M333.191 306.933v-30.301c0-1.238.179-1.845 1.145-2.069 1.395-.323 30.587-6.667 32.019-6.975.731-.157 1.226-.265 1.564-.265.709 0 .716.466.72 1.89.019 6.903.008 8.559 0 19.552 0 0 .012 3.234.012 4.851l.003.405c-1.921-6.03-5.736-15.465-13.67-14.836 0 0-6.792-2.032-12.713 2.044-8.493 3.704-9.054 22.181-9.08 25.702z" fill="url(#f)"/></g><g transform="matrix(.364 0 0 .366 -558.079 557.734)"><linearGradient gradientUnits="userSpaceOnUse" x1="264.632" y1="688.775" x2="354.639" y2="178.324" gradientTransform="matrix(1 0 0 -1 4 871.441)"><stop offset=".5" stop-color="#fff"/><stop offset="1" stop-color="#BFBFBF"/></linearGradient><path d="M1059.96 552.53h-219.366s30.462-17.461 83.232-47.266c90.569-51.167 124.217-91.167 136.133-130.516v-93.54c-18.532-63.62-79.367-104.016-182.619-104.016-102.214 0-200.105 40.942-192.98 186.195 0 0 127.125-.37 128.951 0 0-59.805 11.44-91.156 61.497-91.156 43.627 0 64.609 19.867 64.609 54.067 0 32.534-28.661 54.354-56.714 73.636-38.652 26.563-56.549 38.664-119.417 82.036-78.044 53.875-83.326 92.667-83.326 184.136.149.106 328.688.023 380 0v-113.576z" fill="#fff"/></g></g></svg>