<?xml version="1.0" encoding="UTF-8" standalone="no"?>
<!-- Generator: Adobe Illustrator 12.0.0, SVG Export Plug-In . SVG Version: 6.00 Build 51448)  -->

<svg
   xmlns:dc="http://purl.org/dc/elements/1.1/"
   xmlns:cc="http://creativecommons.org/ns#"
   xmlns:rdf="http://www.w3.org/1999/02/22-rdf-syntax-ns#"
   xmlns:svg="http://www.w3.org/2000/svg"
   xmlns="http://www.w3.org/2000/svg"
   xmlns:sodipodi="http://sodipodi.sourceforge.net/DTD/sodipodi-0.dtd"
   xmlns:inkscape="http://www.inkscape.org/namespaces/inkscape"
   version="1.1"
   id="Calque_1"
   width="767.87225"
   height="318.96472"
   viewBox="0 0 767.87226 318.96473"
   style="display:inline;overflow:visible"
   xml:space="preserve"
   inkscape:version="0.48.1 "
   sodipodi:docname="Musique Classique.svg"><metadata
   id="metadata3939"><rdf:RDF><cc:Work
       rdf:about=""><dc:format>image/svg+xml</dc:format><dc:type
         rdf:resource="http://purl.org/dc/dcmitype/StillImage" /></cc:Work></rdf:RDF></metadata><defs
   id="defs3937" /><sodipodi:namedview
   pagecolor="#ffffff"
   bordercolor="#666666"
   borderopacity="1"
   objecttolerance="10"
   gridtolerance="10"
   guidetolerance="10"
   inkscape:pageopacity="0"
   inkscape:pageshadow="2"
   inkscape:window-width="1366"
   inkscape:window-height="706"
   id="namedview3935"
   showgrid="false"
   inkscape:zoom="0.50659468"
   inkscape:cx="162.2042"
   inkscape:cy="260.96586"
   inkscape:window-x="-8"
   inkscape:window-y="-8"
   inkscape:window-maximized="1"
   inkscape:current-layer="layer3"
   showguides="true"
   inkscape:guide-bbox="true"
   fit-margin-top="0"
   fit-margin-left="0"
   fit-margin-right="0"
   fit-margin-bottom="0" />



































<g
   inkscape:groupmode="layer"
   id="layer4"
   inkscape:label="Fond"
   transform="translate(132.25564,54.937377)" /><g
   inkscape:groupmode="layer"
   id="layer3"
   inkscape:label="Texte"
   style="display:inline"
   transform="translate(132.25564,54.937377)"><g
     id="g4096"
     transform="matrix(1.5254902,0,0,1.5254902,-132.25564,-54.937371)"><rect
       y="-3.6621095e-006"
       x="-2.3522662e-015"
       id="rect3865"
       height="209.09"
       width="503.36099"
       style="fill:#9ca1bc;display:inline;overflow:visible" /><polyline
       transform="translate(6.2388153e-7,-3.6621093e-6)"
       id="polyline3867"
       points="495.617,3.874 495.617,201.346 3.874,201.346 3.874,205.218 499.489,205.218 499.489,3.874   495.617,3.874 "
       style="fill:#ffffff;display:inline;overflow:visible" /><polyline
       transform="translate(6.2388153e-7,-3.6621093e-6)"
       id="polyline3869"
       points="499.489,3.874 3.874,3.874 3.874,205.218 7.744,201.282 7.744,7.744 495.594,7.744 499.489,3.874 "
       style="display:inline;overflow:visible" /><path
       inkscape:connector-curvature="0"
       id="path3907"
       d="m 23.442,61.051998 h 0.463 c 7.759,0 8.917,-2.627 8.917,-5.252 V 20.241997 h -8.8 v -1.024 h 29.593 l 19.218,29.434001 h 0.232 L 92.631001,19.217997 H 120.542 v 1.024 h -8.684 v 40.810001 h 8.684 v 1.024 H 83.836001 v -1.024 h 9.957 V 21.421997 h -0.232 L 66.581,62.075998 H 63.454 L 35.785,20.740997 h -0.231 v 34.508001 c 0,4.949 2.433,5.803 8.682,5.803 h 1.625 v 1.024 H 23.442 v -1.024"
       style="overflow:visible" /><path
       inkscape:connector-curvature="0"
       id="path3909"
       d="m 160.725,35.269997 h 8.219 c 4.757,0 13.349,0 15.783,-1.579 v 27.361001 h 7.991 v 1.024 h -24.005 v -5.176 h -0.231 c -3.135,3.718 -10.799,5.843 -18.577,5.843 -11.027,0 -16.365,-2.857 -16.365,-9.439 V 36.291997 h -7.987 v -1.022 h 8.218 c 4.758,0 13.349,0 15.783,-1.579 v 21.134001 c 0,3.596 1.162,5.732 6.736,5.732 6.5,0 12.422,-4.571 12.422,-8.328 V 36.291997 h -8.011 l 0.024,-1.022"
       style="overflow:visible" /><path
       inkscape:connector-curvature="0"
       id="path3911"
       d="m 201.184,52.684998 2.047,-0.065 c 2.088,4.436 9.267,9.113 18.16,9.113 6.281,0 11.398,-2.01 11.398,-5.247 0,-2.809 -3.491,-3.233 -11.861,-3.783 -8.835,-0.55 -20.239,-1.221 -20.239,-9.095001 0,-3.907 5.703,-9.022 17.33,-9.022 5.349,0 8.373,1.271 12.021,1.384 2.195,0 3.585,-0.609 3.585,-1.384 h 1.708 l 0.689,8.693 -1.829,-0.13 c -2.883,-3.95 -7.513,-7.539 -16.174,-7.539 -6.277,0 -11.045,1.71 -11.045,4.58 0,2.687 4.07,3.237 10.583,3.722001 12.441,0.917 22.199,1.463 22.199,8.913 0,5.004 -7.55,9.932 -18.595,9.932 -6.51,0 -10.116,-1.387 -13.182,-1.365 -2.314,0 -4.165,0.489 -4.747,1.365 h -2.047 v -10.072"
       style="overflow:visible" /><path
       inkscape:connector-curvature="0"
       id="path3913"
       d="m 265.223,19.578997 c 5.209,0 9.374,2.193 9.374,4.932 0,2.744 -4.165,4.938 -9.374,4.938 -5.21,0 -9.379,-2.193 -9.379,-4.938 0,-2.739 4.169,-4.932 9.379,-4.932 m -16,41.473001 h 7.989 V 36.291997 h -7.989 v -1.022 h 8.222 c 4.758,0 13.351,0 15.785,-1.579 v 27.361001 h 7.992 v 1.024 h -32 v -1.024 z"
       style="overflow:visible" /><path
       id="path3915"
       d="m 352.50001,77.101998 h -7.989 V 36.291997 h 7.989 v -1.022 h -7.296 c -8.23701,0 -14.62101,-0.058 -16.70801,-1.882 v 5.923 h -0.236 c -3.128,-3.204 -8.223,-4.706 -14.358,-4.706 -15.522,0 -24.679,6.818 -24.679,14.551001 0,8.396 12.861,13.587 24.448,13.587 7.641,0 11.81,-1.745 14.589,-4.461 h 0.236 v 18.82 h -8.804 v 1.024 h 32.80801 v -1.024 M 306.605,42.993997 c 0,-4.226 3.245,-6.887 9.382,-6.887 7.874,0 12.509,3.928 12.509,7.312 v 10.570001 c 0,3.503 -4.401,7.251 -12.05,7.251 -6.365,0 -9.841,-2.538 -9.841,-8.458 v -9.788001 z"
       style="overflow:visible"
       inkscape:connector-curvature="0" /><path
       inkscape:connector-curvature="0"
       id="path3917"
       d="m 392.26601,35.269997 h 8.218 c 4.762,0 13.348,0 15.789,-1.579 v 27.361001 h 7.985 v 1.024 h -24.004 v -5.176 h -0.233 c -3.135,3.718 -10.794,5.843 -18.575,5.843 -11.027,0 -16.366,-2.857 -16.366,-9.439 V 36.291997 h -7.985 v -1.022 h 8.219 c 4.758,0 13.347,0 15.785,-1.579 v 21.134001 c 0,3.596 1.163,5.732 6.732,5.732 6.503,0 12.424,-4.571 12.424,-8.328 V 36.291997 h -8.011 l 0.022,-1.022"
       style="overflow:visible" /><path
       inkscape:connector-curvature="0"
       id="path3919"
       d="m 480.00501,47.391998 c -0.114,-6.586001 -11.705,-12.928001 -23.848,-12.806001 -13.644,0 -25.463,6.22 -25.463,14.433001 0,7.824 11.008,13.725 25.808,13.725 14.232,0 21.303,-4.633 23.852,-10.594 h -2.086 c -2.55,5.601 -9.271,9.091 -18.301,9.091 -10.734,0 -11.887,-4.697 -11.887,-8.791 v -5.058 h 31.925 m -31.924,-1.025 v -5.315001 c 0,-4.141 3.346,-5.441 7.27,-5.441 5.543,0 7.273,2.042 7.273,5.441 v 5.315001 h -14.543 z"
       style="overflow:visible" /><path
       inkscape:connector-curvature="0"
       id="path3921"
       d="m 17.634,57.181998 h 0.465 c 7.757,0 8.913,-2.625 8.913,-5.256 V 16.371997 h -8.798 v -1.022 h 29.591 l 19.222,29.432001 h 0.231 L 86.827001,15.349997 H 114.734 v 1.022 h -8.682 v 40.810001 h 8.682 v 1.024 H 78.028 v -1.024 h 9.955001 V 17.551997 h -0.23 L 60.771,58.205998 H 57.646 L 29.977,16.870997 h -0.231 v 34.504001 c 0,4.952 2.433,5.807 8.686,5.807 h 1.619 v 1.024 H 17.634 v -1.024"
       style="fill:#ffffff;overflow:visible" /><path
       inkscape:connector-curvature="0"
       id="path3923"
       d="m 154.915,31.398997 h 8.219 c 4.761,0 13.349,0 15.789,-1.584 v 27.366001 h 7.987 v 1.024 h -24.007 v -5.18 h -0.231 c -3.133,3.718 -10.797,5.847 -18.573,5.847 -11.029,0 -16.369,-2.861 -16.369,-9.443 V 32.423997 h -7.987 v -1.024 h 8.218 c 4.762,0 13.349,0 15.789,-1.584 v 21.139001 c 0,3.596 1.162,5.729 6.73,5.729 6.503,0 12.422,-4.571 12.422,-8.328 V 32.423997 h -8.009 l 0.022,-1.025"
       style="fill:#ffffff;overflow:visible" /><path
       inkscape:connector-curvature="0"
       id="path3925"
       d="m 195.378,48.813998 2.049,-0.068 c 2.083,4.439 9.262,9.117 18.157,9.117 6.279,0 11.397,-2.014 11.397,-5.247 0,-2.809 -3.49,-3.236 -11.861,-3.787 -8.837,-0.55 -20.239,-1.217 -20.239,-9.095001 0,-3.903 5.703,-9.019 17.332,-9.019 5.347,0 8.371,1.267 12.017,1.38 2.197,0 3.59,-0.605 3.59,-1.38 h 1.707 l 0.688,8.693 -1.825,-0.134 c -2.888,-3.95 -7.516,-7.535 -16.176,-7.535 -6.279,0 -11.046,1.71 -11.046,4.58 0,2.683 4.069,3.233 10.579,3.722 12.442,0.914 22.201,1.464 22.201,8.910001 0,5.004 -7.55,9.936 -18.595,9.936 -6.513,0 -10.116,-1.391 -13.178,-1.365 -2.314,0 -4.17,0.485 -4.747,1.365 h -2.049 v -10.073"
       style="fill:#ffffff;overflow:visible" /><path
       inkscape:connector-curvature="0"
       id="path3927"
       d="m 259.413,15.704997 c 5.21,0 9.378,2.194 9.378,4.936 0,2.744 -4.168,4.938 -9.378,4.938 -5.208,0 -9.376,-2.193 -9.376,-4.938 -0.001,-2.742 4.168,-4.936 9.376,-4.936 m -15.998,41.477001 h 7.991 V 32.423997 h -7.991 v -1.024 h 8.222 c 4.759,0 13.349,0 15.784,-1.584 v 27.366001 h 7.992 v 1.024 h -31.998 v -1.024 z"
       style="fill:#ffffff;overflow:visible" /><path
       inkscape:connector-curvature="0"
       id="path3929"
       d="M 346.68901,73.230998 H 338.701 V 32.423997 h 7.98801 v -1.024 h -7.292 c -8.24001,0 -14.62501,-0.061 -16.71101,-1.886 v 5.927 h -0.229 c -3.128,-3.203 -8.227,-4.709 -14.362,-4.709 -15.525,0 -24.678,6.822 -24.678,14.555001 0,8.396 12.861,13.588 24.444,13.588 7.645,0 11.812,-1.749 14.596,-4.465 h 0.229 v 18.823 h -8.804 v 1.024 h 32.80701 v -1.026 M 300.802,39.122997 c 0,-4.229 3.238,-6.886 9.374,-6.886 7.878,0 12.51,3.928 12.51,7.309 v 10.574001 c 0,3.503 -4.402,7.248 -12.043,7.248 -6.373,0 -9.841,-2.535 -9.841,-8.458 v -9.787001 z"
       style="fill:#ffffff;overflow:visible" /><path
       inkscape:connector-curvature="0"
       id="path3931"
       d="m 386.45601,31.398997 h 8.223 c 4.761,0 13.351,0 15.785,-1.584 v 27.366001 h 7.984 v 1.024 h -24.003 v -5.18 h -0.233 c -3.132,3.718 -10.794,5.847 -18.571,5.847 -11.027,0 -16.367,-2.861 -16.367,-9.443 V 32.423997 h -7.989 v -1.024 h 8.219 c 4.762,0 13.351,0 15.785,-1.584 v 21.139001 c 0,3.596 1.163,5.729 6.736,5.729 6.499,0 12.421,-4.571 12.421,-8.328 V 32.423997 h -8.012 l 0.022,-1.025"
       style="fill:#ffffff;overflow:visible" /><path
       inkscape:connector-curvature="0"
       id="path3933"
       d="m 474.20001,43.520997 c -0.119,-6.586 -11.706,-12.928 -23.849,-12.806 -13.643,0 -25.467,6.219 -25.467,14.429001 0,7.828 11.013,13.729 25.815,13.729 14.229,0 21.295,-4.637 23.848,-10.598 h -2.086 c -2.549,5.601 -9.274,9.091 -18.301,9.091 -10.738,0 -11.891,-4.693 -11.891,-8.787 v -5.058001 h 31.931 m -31.93,-1.024 v -5.315 c 0,-4.145 3.346,-5.441 7.27,-5.441 5.544,0 7.274,2.042 7.274,5.441 v 5.315 h -14.544 z"
       style="fill:#ffffff;overflow:visible" /><path
       id="path3871"
       d="M 69.072,115.925 H 67.566 C 66.223,103.26 59.097,86.403998 49.539,86.403998 c -8.465,0 -13.497,11.643 -13.497,43.257002 0,30.069 3.688,43.309 13.247,43.309 10.814,0 17.101,-15.837 18.277,-25.809 l 0.502,-4.209 h 1.254 v 30.358 h -1.254 c -0.335,-1.86 -1.335,-5.08 -3.101,-5.169 -2.683,0 -6.453,7.047 -16.517,7.047 -16.572,0 -26.408,-21.895 -26.408,-44.042 0,-22.051 10.336,-46.966002 27.498,-46.966002 6.038,0 11.741,6.166 15.261,6.166 1.762,0 2.683,-1.077 2.766,-3.585 h 1.506 V 115.925"
       style="overflow:visible"
       inkscape:connector-curvature="0" /><path
       id="path3873"
       d="m 75.071,171.091 h 6.773001 V 88.282998 H 75.071 v -2.22 h 27.296 v 2.22 H 94.821001 V 171.091 H 104.467 c 14.844,0 18.201,-10.66 18.201,-25.041 v -2.479 h 1.506 v 29.74 H 75.071 v -2.22"
       style="overflow:visible"
       inkscape:connector-curvature="0" /><path
       id="path3875"
       d="m 128.003,173.311 h 15.131 v -2.22 h -2.34 c -1.675,0 -4.015,-0.493 -4.015,-4.584 0,-1.367 0.333,-2.727 0.584,-3.72 l 4.015,-17.479 h 16.217 l 6.104,25.782 h -6.688 v 2.22 h 24.914 v -2.22 h -4.098 L 155.426,84.179998 H 154.17 L 134.772,163.654 c -1,4.091 -2.503,7.066 -5.684,7.437 h -1.083 v 2.22 m 14.039,-30.222 7.442,-31.311 h 0.167 l 7.274,31.311 h -14.883 z"
       style="overflow:visible"
       inkscape:connector-curvature="0" /><path
       id="path3877"
       d="m 186.438,140.381 h 1.503 c 2.006,13.999 8.359,32.589 19.681,32.589 7.22,0 12.092,-6.57 12.092,-17.475 0,-27.013 -33.465,-7.56 -33.465,-44.702 0,-16.355002 7.346,-26.612002 18.421,-26.612002 8.476,0 11.163,6.664 14.938,6.664 2.514,0 2.687,-3.207 2.687,-4.782 h 1.502 V 113.891 h -1.502 c -2.092,-13.136 -6.773,-27.487002 -17.364,-27.487002 -6.382,0 -11.17,6.318 -11.17,15.861002 0,23.917 33.977,5.082 33.977,41.706 0,19.335 -7.353,31.218 -19.171,31.218 -7.296,0 -14.167,-6.433 -17.523,-6.433 -2.264,0 -3.103,2.231 -3.103,4.555 h -1.503 v -32.93"
       style="overflow:visible"
       inkscape:connector-curvature="0" /><path
       id="path3879"
       d="m 236.095,140.381 h 1.502 c 2.008,13.999 8.359,32.589 19.682,32.589 7.222,0 12.094,-6.57 12.094,-17.475 0,-27.013 -33.467,-7.56 -33.467,-44.702 0,-16.355002 7.346,-26.612002 18.423,-26.612002 8.475,0 11.161,6.664 14.937,6.664 2.516,0 2.683,-3.207 2.683,-4.782 h 1.509 V 113.891 h -1.509 c -2.086,-13.136 -6.77,-27.487002 -17.359,-27.487002 -6.383,0 -11.17,6.318 -11.17,15.861002 0,23.917 33.98,5.082 33.98,41.706 0,19.335 -7.355,31.218 -19.18,31.218 -7.292,0 -14.164,-6.433 -17.519,-6.433 -2.264,0 -3.103,2.231 -3.103,4.555 h -1.502 v -32.93"
       style="overflow:visible"
       inkscape:connector-curvature="0" /><polyline
       id="polyline3881"
       points="283.743,171.091 290.516,171.091 290.516,88.283 283.743,88.283 283.743,86.063 310.262,86.063 310.262,88.283   303.492,88.283 303.492,171.091 310.262,171.091 310.262,173.311 283.743,173.311 283.743,171.091 "
       style="overflow:visible"
       transform="translate(-7.0889129e-7,-3.2555364e-6)" /><path
       id="path3883"
       d="m 347.63001,173.978 c 12.184,-4.58 21.27,-24.119 21.018,-44.283 0,-24.244 -10.746,-45.514002 -26.553,-45.514002 -15.79301,0 -26.54601,21.270002 -26.54601,45.514002 -0.252,19.916 8.585,39.21 20.506,44.283 v 11.953 c 0,11.327 8.97801,14.358 13.33201,14.358 5.762,0 8.678,-1.089 12.094,-3.653 l -0.577,-2.112 c -2.005,1.742 -5.255,2.86 -6.922,2.86 -4.18,0 -6.352,-3.856 -6.352,-11.701 v -11.705 m -5.535,-0.99 c -9.79001,0 -12.54701,-11.876 -12.54701,-43.294 0,-39.085002 6.092,-43.291002 12.54701,-43.291002 6.454,0 12.554,4.206 12.554,43.291002 0,31.418 -2.757,43.294 -12.554,43.294 z"
       style="overflow:visible"
       inkscape:connector-curvature="0" /><path
       id="path3885"
       d="m 372.23101,86.062998 h 26.297 v 2.22 h -6.796 V 142.767 c 0,15.848 2.435,27.983 14.688,27.983 8.148,0 15.036,-8.171 15.036,-25.016 V 98.683998 c 0,-7.183 -1.345,-10.401 -5.628,-10.401 h -2.435 v -2.22 h 16.6 v 2.22 h -2.175 c -3.009,0 -4.347,3.218 -4.347,10.401 V 144.995 c 0,18.204 -6.721,30.194 -22.169,30.194 -13.654,0 -22.547,-11.62 -22.547,-30.813 V 88.282998 h -6.525 v -2.22"
       style="overflow:visible"
       inkscape:connector-curvature="0" /><path
       id="path3887"
       d="m 431.76901,171.091 h 6.77 V 88.282998 h -6.77 v -2.22 h 46.71 V 110.645 h -1.508 v -1.727 c 0,-11.244002 -5.61,-20.635002 -15.607,-20.635002 h -9.849 V 126.186 h 5.758 c 5.425,0 8.264,-4.599 8.264,-16.4 v -1.356 h 1.504 v 39.27 h -1.504 v -2.842 c 0,-8.849 -2.839,-16.452 -8.264,-16.452 h -5.758 v 42.687 h 12.013 c 13.669,0 15.666,-16.834 15.666,-23.885 v -1.727 h 1.505 v 27.831 h -48.93 v -2.221"
       style="overflow:visible"
       inkscape:connector-curvature="0" /><path
       id="path3889"
       d="M 63.651,112.053 H 62.145 C 60.806,99.389998 53.674,82.529998 44.122,82.529998 c -8.471,0 -13.5,11.642 -13.5,43.259002 0,30.065 3.692,43.309 13.245,43.309 10.818,0 17.106,-15.837 18.279,-25.805 l 0.504,-4.217 h 1.252 v 30.362 H 62.65 c -0.337,-1.856 -1.339,-5.08 -3.104,-5.166 -2.683,0 -6.455,7.044 -16.517,7.044 -16.574,0 -26.408,-21.891 -26.408,-44.042 0,-22.051 10.334,-46.964002 27.501,-46.964002 6.036,0 11.735,6.162 15.257,6.162 1.76,0 2.683,-1.073 2.766,-3.582 h 1.506 V 112.053"
       style="fill:#ffffff;overflow:visible"
       inkscape:connector-curvature="0" /><path
       id="path3891"
       d="m 69.654,167.219 h 6.768 V 84.408998 h -6.768 v -2.22 h 27.296001 v 2.22 h -7.552 V 167.219 h 9.646 c 14.846999,0 18.202999,-10.66 18.202999,-25.041 v -2.479 h 1.506 v 29.74 H 69.654 v -2.22"
       style="fill:#ffffff;overflow:visible"
       inkscape:connector-curvature="0" /><path
       id="path3893"
       d="m 122.58,169.438 h 15.133 v -2.22 h -2.342 c -1.673,0 -4.011,-0.497 -4.011,-4.588 0,-1.359 0.333,-2.727 0.585,-3.716 l 4.009,-17.479 h 16.222 l 6.101,25.782 h -6.69 v 2.22 h 24.917 v -2.22 h -4.102 L 150.001,80.308998 h -1.256 L 129.353,159.781 c -1.006,4.091 -2.509,7.065 -5.684,7.437 h -1.089 v 2.22 m 14.047,-30.221 7.44,-31.311 h 0.167 l 7.27,31.311 h -14.877 z"
       style="fill:#ffffff;overflow:visible"
       inkscape:connector-curvature="0" /><path
       id="path3895"
       d="m 181.016,136.509 h 1.506 c 2.005,14.002 8.359,32.589 19.678,32.589 7.226,0 12.096,-6.566 12.096,-17.472 0,-27.016 -33.465,-7.559 -33.465,-44.705 0,-16.357002 7.346,-26.610002 18.421,-26.610002 8.472,0 11.159,6.66 14.935,6.66 2.52,0 2.687,-3.207 2.687,-4.782 h 1.506 V 110.022 h -1.506 c -2.09,-13.138002 -6.773,-27.492002 -17.36,-27.492002 -6.384,0 -11.17,6.321 -11.17,15.861 0,23.918002 33.979,5.080002 33.979,41.711002 0,19.327 -7.357,31.214 -19.177,31.214 -7.292,0 -14.167,-6.433 -17.521,-6.433 -2.266,0 -3.102,2.231 -3.102,4.555 h -1.506 v -32.929"
       style="fill:#ffffff;overflow:visible"
       inkscape:connector-curvature="0" /><path
       id="path3897"
       d="m 230.674,136.509 h 1.502 c 2.006,14.002 8.361,32.589 19.681,32.589 7.222,0 12.098,-6.566 12.098,-17.472 0,-27.016 -33.469,-7.559 -33.469,-44.705 0,-16.357002 7.346,-26.610002 18.421,-26.610002 8.475,0 11.157,6.66 14.937,6.66 2.513,0 2.683,-3.207 2.683,-4.782 h 1.505 V 110.022 h -1.505 c -2.09,-13.138002 -6.77,-27.492002 -17.356,-27.492002 -6.386,0 -11.172,6.321 -11.172,15.861 0,23.918002 33.979,5.080002 33.979,41.711002 0,19.327 -7.355,31.214 -19.176,31.214 -7.294,0 -14.169,-6.433 -17.523,-6.433 -2.266,0 -3.103,2.231 -3.103,4.555 h -1.502 v -32.929"
       style="fill:#ffffff;overflow:visible"
       inkscape:connector-curvature="0" /><polyline
       id="polyline3899"
       points="278.321,167.219 285.095,167.219 285.095,84.409 278.321,84.409 278.321,82.189   304.84,82.189 304.84,84.409 298.071,84.409 298.071,167.219 304.84,167.219 304.84,169.438 278.321,169.438 278.321,167.219 "
       style="fill:#ffffff;overflow:visible"
       transform="translate(-7.0889129e-7,-3.2555364e-6)" /><path
       id="path3901"
       d="m 342.21301,170.108 c 12.184,-4.579 21.269,-24.125 21.017,-44.282 0,-24.249 -10.753,-45.516002 -26.55301,-45.516002 -15.8,0 -26.545,21.267002 -26.545,45.516002 -0.252,19.908 8.581,39.206 20.502,44.282 v 11.95 c 0,11.331 8.97801,14.358 13.33501,14.358 5.759,0 8.679,-1.089 12.095,-3.649 l -0.585,-2.116 c -2.001,1.745 -5.251,2.864 -6.915,2.864 -4.18,0 -6.351,-3.861 -6.351,-11.705 v -11.702 m -5.53601,-0.996 c -9.797,0 -12.546,-11.872 -12.546,-43.286 0,-39.087002 6.084,-43.296002 12.546,-43.296002 6.45501,0 12.55401,4.209 12.55401,43.296002 0,31.414 -2.76,43.286 -12.55401,43.286 z"
       style="fill:#ffffff;overflow:visible"
       inkscape:connector-curvature="0" /><path
       id="path3903"
       d="m 366.81301,82.188998 h 26.298 v 2.22 h -6.804 V 138.895 c 0,15.848 2.438,27.983 14.696,27.983 8.145,0 15.028,-8.171 15.028,-25.012 V 94.812998 c 0,-7.183 -1.341,-10.405 -5.624,-10.405 h -2.431 v -2.22 h 16.593 v 2.22 h -2.172 c -3.009,0 -4.347,3.222 -4.347,10.405 V 141.121 c 0,18.201 -6.718,30.195 -22.169,30.195 -13.65,0 -22.551,-11.62 -22.551,-30.813 V 84.408998 h -6.519 v -2.22"
       style="fill:#ffffff;overflow:visible"
       inkscape:connector-curvature="0" /><path
       id="path3905"
       d="m 426.34801,167.219 h 6.773 V 84.408998 h -6.773 v -2.22 h 46.71 V 106.776 h -1.504 v -1.727 c 0,-11.246002 -5.61,-20.641002 -15.615,-20.641002 h -9.841 V 122.312 h 5.758 c 5.421,0 8.259,-4.598 8.259,-16.403 v -1.353 h 1.501 v 39.27 h -1.501 v -2.842 c 0,-8.849 -2.838,-16.452 -8.259,-16.452 h -5.758 v 42.687 h 12.013 c 13.665,0 15.666,-16.83 15.666,-23.885 v -1.727 h 1.501 v 27.831 h -48.93 v -2.219"
       style="fill:#ffffff;overflow:visible"
       inkscape:connector-curvature="0" /></g></g></svg>