<?xml version="1.0" encoding="UTF-8" standalone="no"?>
<!-- Created with Inkscape (http://www.inkscape.org/) -->

<svg
   xmlns:dc="http://purl.org/dc/elements/1.1/"
   xmlns:cc="http://creativecommons.org/ns#"
   xmlns:rdf="http://www.w3.org/1999/02/22-rdf-syntax-ns#"
   xmlns:svg="http://www.w3.org/2000/svg"
   xmlns="http://www.w3.org/2000/svg"
   xmlns:xlink="http://www.w3.org/1999/xlink"
   xmlns:sodipodi="http://sodipodi.sourceforge.net/DTD/sodipodi-0.dtd"
   xmlns:inkscape="http://www.inkscape.org/namespaces/inkscape"
   width="644"
   height="387"
   id="svg2"
   version="1.1">
  <g
     inkscape:label="Layer 1"
     inkscape:groupmode="layer"
     id="layer1"
     transform="translate(-286.98577,-163.43774)">
    <path
       id="path55095"
       d="m 930.98576,501.19742 c 0,27.07134 -22.16899,49.24034 -49.2548,49.24034 l -545.49039,0 c -27.0858,0 -49.2548,-22.169 -49.2548,-49.24034 l 0,-288.51512 c 0,-27.05688 22.169,-49.22588 49.2548,-49.22588 l 545.49039,0 c 27.08581,0 49.2548,22.169 49.2548,49.22588 z"
       style="fill:#59757f;fill-rule:nonzero;stroke:none" />
    <path
       id="path55099"
       d="m 763.41243,431.53065 c -2.54517,-3.26822 -4.16482,-7.70781 -4.16482,-12.01724 0,-0.75198 0.0868,-1.73534 0.24584,-2.87778 l -12.87045,0 -6.0737,27.67871 c -0.13015,1.25813 -0.41938,2.34271 -0.41938,3.41284 0,6.31954 4.20821,7.05706 10.00714,7.02814 -0.36153,-1.66304 -0.65075,-3.39838 -0.89659,-5.11926 l 31.97368,-1.33043 c 0.41938,2.38609 1.21474,6.53646 8.67671,8.02596 3.0947,0.60737 6.16047,0.75198 8.17057,0.75198 8.9804,0 9.25516,-4.9168 9.25516,-6.10262 0,-4.16482 -3.89006,-5.03249 -6.18938,-5.63986 l -16.2833,-3.57192 c -7.25951,-1.61965 -16.21099,-3.70206 -21.43148,-10.23852 m 79.82575,-120.99674 c -0.69414,5.04695 -3.49961,7.69335 -9.29854,7.69335 -6.43523,0 -7.89581,-2.18364 -7.10045,-7.69335 0.66522,-4.96019 3.52853,-7.64997 9.26963,-7.64997 6.55091,0 7.86688,2.57409 7.12936,7.64997 m -4.67096,-21.86531 c -17.58481,0 -25.0757,9.73238 -26.69535,21.18563 -1.85103,13.18861 4.83003,21.67732 20.34689,21.67732 11.01942,0 19.62383,-3.15254 23.86095,-14.28765 l 41.09869,0 c -9.06716,35.64682 -41.67713,39.71042 -68.69063,39.71042 -36.10958,0 -62.81939,-10.9905 -57.81582,-46.63733 4.94572,-35.18406 34.76469,-46.17456 70.85981,-46.17456 36.91941,0 57.58444,9.44315 57.7869,38.01845 l -41.14208,0 c 0.26031,-5.33617 -1.76426,-8.63332 -5.85678,-10.83142 -3.34053,-1.89442 -8.72009,-2.66086 -13.75258,-2.66086 m -72.03117,4.68542 -39.24766,0 3.60084,-25.74091 39.27658,0 z m -47.75084,102.16828 5.0325,-22.99329 31.91583,0 -4.77219,22.99329 17.33896,0 -1.44611,7.53428 c 1.59073,-1.51843 3.57191,-2.93562 5.94354,-4.20821 8.95148,-4.88788 19.63829,-5.6254 33.43426,-5.6254 6.27616,0 12.29201,0.14461 18.56817,2.22702 7.25951,2.37164 14.49011,7.36075 17.55588,14.20089 1.33043,3.10915 2.35717,7.33182 2.89223,11.06281 l -29.79004,-0.0145 c 0,-4.3239 -3.21038,-8.77794 -15.40116,-8.77794 -9.08163,0 -10.16622,4.45404 -10.16622,6.26169 0,3.25377 3.64422,4.43958 5.77002,4.88788 l 14.96733,2.81993 c 11.93047,2.21256 19.94197,3.71653 24.77201,9.64561 2.80547,3.4273 4.41066,8.4598 4.41066,13.36214 0,13.07291 -9.11055,20.95426 -22.21238,24.82985 -7.36075,2.05349 -15.09748,2.80547 -25.16247,2.80547 -24.81539,0 -36.67356,-8.24287 -40.4624,-16.31221 l -2.67531,13.92612 c -5.35064,0.14461 -10.62898,0.30368 -15.82054,0.30368 -15.54578,0 -26.73873,-2.02456 -26.73873,-17.12204 0,-2.61748 0.41937,-5.1048 0.83874,-7.59212 l 6.70999,-33.10166 -13.94058,0 -11.93048,57.51214 -30.75894,0 16.34114,-78.69778 z m -66.92637,78.59655 -31.12047,0.0289 7.60659,-36.81818 c 0.95443,-4.43959 1.34489,-6.84014 1.34489,-9.06716 0,-7.72228 -5.07588,-11.29419 -11.10619,-11.29419 -4.96019,0 -9.47208,2.81993 -12.19078,6.10262 -0.31815,0.41937 -0.6363,0.91105 -0.92552,1.38827 -2.40056,4.19375 -3.75991,9.48654 -4.97465,14.27319 l -0.18799,0.72306 -7.53428,34.69239 -30.78787,0 21.95208,-104.8436 30.64326,0 -7.0426,35.76251 -0.0289,0.0723 c 5.82785,-5.2928 13.4489,-11.91602 27.53409,-11.91602 9.47208,0 18.59709,3.29715 23.31144,11.78587 2.16917,3.52853 3.60083,8.21395 3.60083,14.50457 0,4.67096 -0.86767,9.39977 -1.7498,14.43226 z m -102.9058,-120.6063 1.34489,-9.58776 -0.31814,0 c -4.8445,5.50971 -18.4814,13.02953 -37.30986,13.02953 -21.66286,0 -36.63019,-9.73238 -33.27519,-33.6078 l 7.8235,-55.73341 39.27658,0 -6.4063,45.53827 c -1.51843,10.84589 3.64422,15.56024 12.89938,15.56024 12.23416,0 19.27676,-7.70781 21.06994,-20.57827 l 5.69771,-40.52024 39.27658,0 -12.06063,85.89944 z m 161.25669,15.79162 -3.73099,18.27894 -30.90355,0 3.73099,-18.27894 z M 666.53695,323.34652 628.74987,319.442 c -22.41484,-2.35717 -27.70763,-11.46772 -25.62522,-26.39166 2.81993,-20.26013 22.89205,-28.90791 61.2142,-28.90791 26.69535,0 55.34296,4.88788 52.7544,29.21159 l -44.30907,0 c 0.28922,-2.18364 -0.21692,-4.06359 -2.22702,-5.30725 -2.03903,-1.28705 -5.52418,-2.21257 -11.32311,-2.21257 -11.77141,0 -14.33104,2.66086 -14.80826,5.97247 -0.31814,2.18364 1.4172,4.55528 9.77577,5.32172 l 36.89048,3.31161 c 20.9398,1.8655 27.62087,11.29419 25.55292,25.88553 -3.0947,22.15453 -23.44158,30.62879 -64.88734,30.62879 -40.83839,0 -57.36753,-8.47426 -55.5888,-30.13711 l 46.1601,0 c 0,3.44176 1.43166,5.65432 3.91898,6.91244 2.63194,1.24366 6.522,1.57627 10.9182,1.57627 10.03606,0 13.39106,-2.67532 13.96951,-6.5943 0.3326,-2.51625 -0.60737,-4.88788 -4.59866,-5.3651 m 59.56562,-21.50378 39.24766,0 -7.25951,51.66981 -39.24766,0 z m -290.78552,51.66981 -0.43384,-36.38434 -38.42337,36.38434 -30.4408,-36.38434 -8.43087,36.38434 -38.90059,0 23.29697,-85.89944 31.95922,0 c 6.43523,-11.48218 15.70485,-24.52617 25.16247,-36.03728 l 24.72862,0 c -4.78665,5.79894 -11.48218,14.92395 -17.81618,24.1068 10.38313,0.23138 19.17553,4.80112 24.8877,11.93048 l 38.98736,0 4.30943,85.89944 z m 466.98061,-83.62903 c -11.58341,-13.30429 -30.88909,-19.47922 -60.7659,-19.47922 -26.62304,0 -45.14782,5.59648 -57.98936,14.09966 -0.47722,-2.16918 -1.4895,-4.20821 -2.96454,-5.91463 -2.61747,-3.02239 -6.42077,-4.74327 -10.41205,-4.74327 l -39.27658,0 c -5.98694,0 -11.14958,3.83222 -13.02953,9.34193 -10.9905,-8.70564 -28.22824,-12.78369 -53.52085,-12.78369 -10.74466,0 -35.32868,0.0145 -53.52085,10.12283 -0.40491,-0.67968 -0.85321,-1.33043 -1.40274,-1.9378 -2.61747,-3.02239 -6.4063,-4.74327 -10.38313,-4.74327 l -39.27658,0 c -6.8546,0 -12.68246,5.06142 -13.62244,11.85817 l -6.34846,45.20567 c -0.28922,2.11133 -1.46058,3.38392 -3.45622,3.38392 -1.51843,0 -2.37164,-0.76644 -2.1258,-2.55963 l 5.92909,-42.2122 c 0.53507,-3.94791 -0.63629,-7.93919 -3.25377,-10.93266 -2.60301,-3.02239 -6.4063,-4.74327 -10.38313,-4.74327 l -39.27658,0 c -3.2393,0 -6.27615,1.1569 -8.66225,3.09469 -2.38609,-1.93779 -5.37956,-3.09469 -8.66225,-3.09469 l -33.10165,0 c -2.51625,-2.28487 -5.27834,-4.26605 -8.25734,-5.92909 2.25594,-2.979 4.25159,-5.55309 5.90016,-7.54873 3.4273,-4.10698 4.15036,-9.83361 1.87996,-14.63472 -2.28487,-4.8445 -7.14383,-7.92473 -12.48001,-7.92473 l -24.72862,0 c -4.07806,0 -7.96812,1.83657 -10.61452,5.00357 -8.50317,10.32528 -16.26883,21.12779 -22.41483,31.0337 l -24.09234,0 c -6.23277,0 -11.6991,4.16482 -13.30429,10.18068 l -23.29697,85.88498 c -1.08459,4.15036 -0.24584,8.57548 2.37163,11.97386 2.60302,3.38392 6.65215,5.39402 10.93266,5.39402 l 38.90059,0 c 6.40631,0 11.9594,-4.41066 13.41998,-10.64343 l 2.16918,-9.47208 12.71138,15.18425 c 2.41502,2.9067 5.97247,4.68542 9.77576,4.9168 3.75991,0.21692 7.4909,-1.14243 10.25298,-3.74544 l 15.5747,-14.73595 0.0723,4.85896 c 0.0868,7.57766 6.21831,13.63689 13.75259,13.63689 l 38.88612,0 c 3.39838,0 6.68107,-1.27258 9.19732,-3.54299 6.62322,3.91898 16.00853,6.99922 29.26944,6.99922 10.9905,0 20.92534,-2.1981 29.09591,-5.49525 2.15471,1.31596 4.61311,2.03902 7.1872,2.03902 l 19.53707,0 -25.17693,120.30261 156.06512,0 1.85103,-9.02378 c 9.58777,9.313 25.2637,9.34193 32.24845,9.34193 l 27.10026,-0.52061 0.50614,-2.81993 c 8.67671,3.58638 19.17553,5.42295 31.35185,5.42295 11.94494,0 20.54935,-1.01229 28.82115,-3.32608 20.33242,-5.98693 31.98814,-19.73951 31.98814,-37.75815 0,-5.58202 -1.40273,-11.19296 -3.9479,-16.10976 l 9.32746,0 c 0,0 0.33261,-18.16325 -4.87342,-29.52975 -5.32171,-11.87263 -15.89284,-17.68603 -24.71416,-20.60719 -8.15611,-2.66085 -15.43009,-2.89223 -22.8053,-2.89223 -10.0939,0 -18.51031,0.39045 -26.55073,2.31379 l -9.80469,-0.0434 -0.53506,0 c 1.05567,-5.71216 3.57191,-19.66721 4.61312,-25.43722 12.17632,9.48654 30.10819,14.14304 54.53313,14.14304 50.84553,0 78.2784,-19.07431 83.75919,-58.33643 2.48732,-17.72941 -0.83875,-32.03152 -9.9493,-42.51588 m -499.56167,7.38966 c -7.99703,0 -15.18424,6.47861 -16.02299,14.49011 -0.89659,7.99704 4.90234,14.49011 12.9283,14.49011 7.96811,0 15.16978,-6.49307 16.02299,-14.49011 0.88214,-8.0115 -4.9168,-14.49011 -12.9283,-14.49011"
       style="fill:#ffffff;fill-rule:nonzero;stroke:none" />
  </g>
</svg>
