<?xml version="1.0" encoding="UTF-8" standalone="no"?>
<!-- Created with Inkscape (http://www.inkscape.org/) -->
<svg xmlns:dc="http://purl.org/dc/elements/1.1/" xmlns:cc="http://creativecommons.org/ns#" xmlns:rdf="http://www.w3.org/1999/02/22-rdf-syntax-ns#" xmlns:svg="http://www.w3.org/2000/svg" xmlns="http://www.w3.org/2000/svg" xmlns:xlink="http://www.w3.org/1999/xlink" xmlns:sodipodi="http://sodipodi.sourceforge.net/DTD/sodipodi-0.dtd" xmlns:inkscape="http://www.inkscape.org/namespaces/inkscape" width="663" height="329" id="svg2" sodipodi:version="0.32" inkscape:version="0.47 r22583" version="1.0" sodipodi:docname="MCM Pop.svg" inkscape:output_extension="org.inkscape.output.svg.inkscape">
  <defs id="defs4">
    <inkscape:perspective sodipodi:type="inkscape:persp3d" inkscape:vp_x="0 : 6 : 1" inkscape:vp_y="0 : 1000 : 0" inkscape:vp_z="24 : 6 : 1" inkscape:persp3d-origin="12 : 4 : 1" id="perspective30"/>
  </defs>
  <sodipodi:namedview id="base" pagecolor="#ffffff" bordercolor="#666666" borderopacity="1.0" gridtolerance="10000" guidetolerance="10" objecttolerance="10" inkscape:pageopacity="0.0" inkscape:pageshadow="2" inkscape:zoom="1.0316742" inkscape:cx="331.50001" inkscape:cy="164.13226" inkscape:document-units="px" inkscape:current-layer="layer1" width="24px" height="12px" inkscape:window-width="784" inkscape:window-height="575" inkscape:window-x="132" inkscape:window-y="58" showgrid="false" inkscape:window-maximized="0"/>
  <metadata id="metadata7">
    <rdf:RDF>
      <cc:Work rdf:about="">
        <dc:format>image/svg+xml</dc:format>
        <dc:type rdf:resource="http://purl.org/dc/dcmitype/StillImage"/>
      </cc:Work>
    </rdf:RDF>
  </metadata>
  <g inkscape:label="Layer 1" inkscape:groupmode="layer" id="layer1" transform="translate(-2.3671815,-727.5859)">
    <text id="text65160" x="-45.989502" y="224.64862">
      <tspan style="font-size:10.1637001px;letter-spacing:0;fill:#000000;fill-rule:nonzero;stroke:none;font-family:font4" font-size="10.1637" letter-spacing="0" y="514.68164" x="534.98651" id="tspan65162">
        <altGlyph xlink:href="#id63" id="altGlyph65164"/>
      </tspan>
    </text>
    <path id="path68368" d="m 9.2261847,902.81327 612.9273453,0 38.67795,-145.86054 -23.33769,-20.34933 -182.11934,-1.76455 -23.99228,20.23548 -27.12295,-23.33769 -88.62629,0 -38.67794,25.7853 -28.34675,-22.68309 -169.226691,0 -25.899141,17.21866 -44.2562233,150.75576" style="fill:#ffffff;fill-rule:nonzero;stroke:none"/>
    <path id="path68370" d="m 652.37868,772.20761 -33.83964,125.25507 -62.3287,0 c 0,0 28.14752,-110.00019 28.7452,-112.73241 0.45536,-2.41915 -0.9392,-6.31825 -4.72446,-6.859 -0.28461,0 -3.92757,0 -4.24063,0 -4.41139,0 -5.72058,4.35447 -5.72058,4.35447 l -29.11519,115.35078 -61.87333,0 c 0,0 29.39979,-110.00019 29.85516,-112.73241 0.56921,-2.41915 -0.85382,-6.31825 -4.61061,-6.859 -0.28461,0 -3.95603,0 -4.32601,0 -4.4114,0 -5.66366,4.35447 -5.66366,4.35447 l -30.31053,115.35079 -61.50335,0 c 0,0 32.95737,-124.03127 35.12037,-131.65871 2.19147,-7.5136 11.81115,-25.41531 35.60421,-25.41531 24.02074,0 145.68978,0 145.68978,0 17.87325,0 32.6443,9.96121 33.98195,23.05308 0.19922,2.64683 0.0854,5.46443 -0.73998,8.76586 z m -298.2101,125.25507 -74.19677,0 c -13.20572,0 -23.56537,-8.02589 -24.7038,-19.12552 -0.2846,-3.30143 0.19923,-6.97284 1.25227,-10.27427 l 26.52527,-98.50212 c 2.07763,-7.7982 10.07505,-17.58865 18.75554,-22.85386 6.859,-4.15524 15.16949,-6.31825 23.90689,-6.31825 l 69.7,0 c 17.21866,0 25.98452,6.77362 27.37909,20.91854 0.28461,2.8176 0.28461,5.6352 -0.25614,8.08281 l -10.35966,38.70641 -60.08032,0 c 0,0 5.23675,-23.08155 5.43598,-24.10613 0.48383,-2.47607 -0.82536,-6.11902 -4.41139,-6.77362 -0.36999,0 -7.54206,0 -7.91205,0 -4.41139,0 -5.74904,4.24063 -5.74904,4.24063 l -16.93405,63.83711 -0.11384,0.28461 c -0.54076,2.44761 0.85381,6.23287 4.43985,6.859 0.36999,0 7.51359,0 7.91204,0 4.43986,0 5.72058,-4.35447 5.72058,-4.35447 l 5.94827,-18.72707 61.58872,0 -12.06729,39.27562 c -4.58216,17.24712 -21.63005,28.91596 -41.78015,28.91596 z m -182.40394,0 c 0,0 29.37133,-111.02478 29.94054,-113.75699 0.48383,-2.533 -0.9392,-6.28979 -4.61061,-6.88747 -0.39845,0 -4.06987,0 -4.35448,0 -4.41139,0 -5.72057,4.32601 -5.72057,4.32601 l -30.339,116.40383 -61.958711,0 c 0,0 29.485171,-111.02477 30.054391,-113.75699 0.48383,-2.53299 -0.9392,-6.28979 -4.61062,-6.88747 -0.28461,0 -4.0414,0 -4.32601,0 -4.43985,0 -5.74904,4.32602 -5.74904,4.32602 l -30.310533,116.40382 -61.503343,0 c 32.957367,-124.03126 32.957367,-124.03126 35.120373,-131.6587 2.163005,-7.5136 11.668843,-25.41531 35.604203,-25.41531 23.9069,0 145.66131,0 145.66131,0 17.90172,0 32.67277,9.9612 33.89657,23.05308 0.28461,2.64683 0.0854,5.46443 -0.65459,8.76586 l -33.81119,125.25507 -62.32869,0 z m 493.39285,-135.1309 c -1.8784,-19.41012 -21.63005,-34.01041 -46.02078,-34.01041 l -145.68978,0 c -20.63393,0 -33.78273,10.4735 -41.04018,21.0893 -3.95602,-10.33119 -13.77493,-21.0893 -36.99877,-21.0893 l -69.7,0 c -11.01425,0 -21.45928,2.76068 -30.22515,7.99743 -6.57439,3.95602 -12.80726,9.90428 -17.3325,16.30792 -6.37517,-14.40106 -23.42307,-24.30535 -43.48779,-24.30535 l -145.66131,0 c -29.6844,0 -43.715473,21.48775 -47.358429,34.18117 -2.191465,7.6559 -39.2756195,147.08435 -39.2756195,147.08435 l 616.1718585,0 c 5.57827,0 10.35965,-3.64295 11.78268,-8.93662 l 33.81119,-125.312 c 0.0854,0 0.0854,-0.2846 0.0854,-0.39845 1.05304,-4.32601 1.42303,-8.56663 0.9392,-12.60804" style="fill:#22005c;fill-rule:nonzero;stroke:none"/>
    <path id="path68372" d="m 291.92526,923.13414 0,0 c -19.12552,1.25226 -38.1372,16.10869 -42.86166,33.83964 l -0.19922,-0.2846 -26.83834,99.89672 20.06472,0 c 16.19408,0 30.02593,-8.9367 34.75038,-22.4839 l 21.57313,-81.16962 c 1.02459,-3.67142 4.98061,-3.67142 4.98061,-3.67142 0,0 3.38681,0 3.7568,0 3.01682,0.56921 4.0414,3.84218 3.50065,6.11903 0,0.36999 -12.60804,48.09841 -12.60804,48.09841 l 30.59514,-0.2846 c 9.42045,0 20.23548,-6.31826 25.87068,-15.25489 1.33764,-2.07762 1.99224,-3.95602 2.47607,-5.54982 l 16.27946,-59.53956 -81.34038,0" style="fill:#22005c;fill-rule:nonzero;stroke:none"/>
    <path id="path68374" d="m 541.92312,923.13414 0,0 c -19.12552,1.25226 -38.22258,16.10869 -42.9755,33.83964 l -0.0569,-0.2846 -22.22773,82.47882 20.06472,0 c 16.19408,0 30.02593,-8.8513 34.83577,-22.427 l 16.84867,-63.83708 c 0.9392,-3.67142 4.89522,-3.67142 4.89522,-3.67142 0,0 3.38682,0 3.87065,0 3.01682,0.56921 4.0414,3.84218 3.35835,6.11903 0,0.36999 -12.57959,48.09837 -12.57959,48.09837 l 30.68052,-0.2846 c 9.33508,0 20.23549,-6.31822 25.87068,-15.25485 1.25227,-2.07762 1.99224,-3.95602 2.47607,-5.54982 l 16.27946,-59.53956 -81.34037,0" style="fill:#22005c;fill-rule:nonzero;stroke:none"/>
    <path id="path68376" d="m 411.11823,1009.882 -3.01683,12.5227 17.58865,-69.13079 c 0.96766,-3.35835 4.63908,-3.35835 4.63908,-3.35835 0.36999,0 3.38681,0 3.7568,0.2846 2.73221,0.56921 3.87064,3.58604 3.13066,5.17983 l -14.79951,56.69351 c -0.9392,3.3014 -4.89522,3.1022 -4.61061,3.1022 0,0 -3.38681,0.2846 -3.58604,0.37 -2.70375,-0.5692 -3.64295,-3.4722 -3.1022,-5.5498 z m -50.46064,19.9509 c 0.73998,8.5951 8.73741,14.7141 18.72707,14.7141 l 54.33128,0.2846 c 15.53948,0 28.71674,-9.1358 32.18893,-22.6831 l 20.26394,-76.38819 c 0.56922,-1.76456 0.56922,-4.04141 0.36999,-6.28979 l 0.19923,0 C 485.5996,928.57011 478.7406,923.27644 465.4495,923.27644 l -50.65986,0.39845 c -6.77362,0 -13.26263,1.50841 -18.5563,4.696 -6.60286,3.87064 -12.72189,11.38423 -14.40106,17.70249 l -20.60547,75.61982 c -0.68306,2.6468 -1.05305,5.5498 -0.56922,8.3674" style="fill:#22005c;fill-rule:nonzero;stroke:none"/>
    <text id="text69410" x="-45.989502" y="224.64862">
      <tspan style="font-size:6.77580023px;letter-spacing:0.0447203;fill:#000000;fill-rule:nonzero;stroke:none;font-family:font6" font-size="6.7758" letter-spacing=".0447203" y="700.37762" x="-33.153" id="tspan69412"/>
    </text>
    <text id="text69420" x="-45.989502" y="224.64862">
      <tspan style="font-size:6.77580023px;letter-spacing:0.0447203;fill:#000000;fill-rule:nonzero;stroke:none;font-family:font6" font-size="6.7758" letter-spacing=".0447203" y="700.37762" x="-6.3739977" id="tspan69422"/>
      <tspan style="font-size:6.77580023px;letter-spacing:0.0447203;fill:#ffffff;fill-rule:nonzero;stroke:none;font-family:font6" font-size="6.7758" letter-spacing=".0447203" y="700.37762" x="-2.8967006" id="tspan69424"/>
    </text>
  </g>
</svg>