<?xml version="1.0" encoding="UTF-8" standalone="no"?>
<!-- Created with Inkscape (http://www.inkscape.org/) -->
<svg xmlns:dc="http://purl.org/dc/elements/1.1/" xmlns:cc="http://creativecommons.org/ns#" xmlns:rdf="http://www.w3.org/1999/02/22-rdf-syntax-ns#" xmlns:svg="http://www.w3.org/2000/svg" xmlns="http://www.w3.org/2000/svg" xmlns:sodipodi="http://sodipodi.sourceforge.net/DTD/sodipodi-0.dtd" xmlns:inkscape="http://www.inkscape.org/namespaces/inkscape" width="664" height="217" id="svg2" sodipodi:version="0.32" inkscape:version="0.47 r22583" version="1.0" inkscape:output_extension="org.inkscape.output.svg.inkscape">
  <g inkscape:label="Layer 1" inkscape:groupmode="layer" id="layer1" transform="translate(-4.7140346,-829.48563)">
    <path id="path13477" d="m 639.26443,833.38713 -565.596059,0 -0.21945,1.89838 c 0.0867,0 9.798467,2.40881 13.15138,8.6039 1.372795,2.5067 1.50549,5.37001 0.392961,8.48678 -4.873716,13.68199 -19.903134,54.78038 -33.605677,92.2236 l -1.235014,3.34752 2.750715,-2.26023 c 4.388896,-3.63944 10.92631,-5.81751 17.458621,-5.81751 l 533.235613,0 c 11.2223,0 19.69899,4.1691 22.15371,10.86413 l 0.9186,2.52069 34.76925,-98.78054 -0.0315,0 c 0.20418,-0.45449 4.24602,-10.74176 -3.11815,-16.34601 -7.09878,-5.36302 -20.43898,-4.8421 -21.02587,-4.79665" style="fill:#ffffff;fill-rule:nonzero;stroke:none"/>
    <path id="path13481" d="m 511.02471,876.00808 c 0.0153,0 4.59304,-12.03882 4.53689,-12.03882 1.09218,-2.95945 2.15363,-4.32817 4.79207,-5.41546 2.64354,-1.08379 8.35931,-0.45449 10.70687,0.41953 7.41009,2.79164 8.42055,9.2769 5.52695,13.88651 -2.4139,3.84221 -6.19039,6.44506 -10.3037,8.13367 -1.03083,0.34961 -8.9105,3.66916 -13.87608,1.2586 -1.79638,-1.18868 -2.34754,-3.58176 -1.38305,-6.25627 m -39.398,38.50429 c -3.16919,8.14591 -13.67193,12.77474 -13.66172,12.83068 l 20.55126,0 c 6.27716,0 10.27818,-0.1748 14.43744,-4.68477 1.3626,-1.46836 2.23016,-3.45065 3.07731,-5.85946 0.0262,0 5.68006,-15.63106 5.65454,-15.66253 2.46493,-7.14428 2.68948,-5.96959 7.56831,-5.96959 4.88901,0 6.63437,0 6.88443,2.81087 0.23476,1.71308 3.57747,24.42025 3.57747,24.42025 0,0 0.13285,1.39844 1.91376,3.01538 2.00563,1.81273 4.83799,1.82672 4.83799,1.82672 l 11.36519,0 c 0,0 2.24039,0.0157 3.10796,-1.77078 0.86249,-1.76553 0.35206,-3.07132 0.35206,-3.07132 0,0 -3.9551,-20.0309 -4.83288,-23.47631 -0.85218,-3.44365 0.61234,-4.89803 3.37331,-6.21956 3.93981,-1.87391 8.7778,-5.31931 11.39583,-8.14066 4.91454,-5.3333 12.19195,-15.55065 9.02276,-26.54763 -1.99542,-7.01143 -11.06411,-9.97263 -17.34125,-11.03894 -7.48664,-1.27607 -23.11315,-0.75166 -23.11315,-0.75166 l -33.10044,0 c 0,0 7.69077,4.42432 5.22585,11.79409 -2.44963,7.35929 -17.13201,48.36504 -20.2961,56.49871" style="fill:#3580cb;fill-rule:nonzero;stroke:none"/>
    <path id="path13485" d="m 575.19159,920.46797 c -6.81809,0 -13.59537,-1.86867 -16.93808,-1.88265 -3.89386,0 -7.32333,4.01527 -2.92932,7.16001 4.48586,3.20418 14.54969,4.09218 19.80617,4.28097 21.99551,0.69922 41.92926,-4.95047 49.90582,-21.76496 1.18395,-2.53642 2.06177,-5.27212 2.39858,-8.17563 0.27043,-2.32316 0.19911,-4.66554 -0.62265,-7.40998 -1.24531,-4.14987 -4.0929,-6.6758 -7.59891,-8.513 -4.29194,-2.24625 -14.54972,-4.8386 -19.08661,-6.73174 -1.93928,-0.80411 -7.51215,-3.19369 -8.11946,-7.38901 -0.41848,-2.74618 0.38282,-5.12878 1.74543,-7.08834 5.26157,-7.51836 16.63697,-10.72254 25.90469,-9.68245 8.1858,0.92647 11.07942,0.17481 11.75815,-3.73033 0.90846,-5.13403 -14.89161,-6.06748 -22.71508,-6.06748 -7.84388,0 -15.28968,2.20953 -16.9636,2.74618 -8.32868,2.5976 -14.18226,7.78232 -18.62218,15.05421 -2.16382,3.58874 -3.72546,7.64946 -4.00614,12.08951 -0.22463,3.31255 0.32653,7.60926 2.89361,10.96202 3.62338,4.75119 18.48949,9.33982 23.52141,11.62627 1.91376,0.85655 6.3435,2.20954 7.44071,6.10769 2.37817,11.95316 -16.41242,18.40871 -27.77252,18.40871" style="fill:#3580cb;fill-rule:nonzero;stroke:none"/>
    <path id="path13489" d="m 258.14853,917.00333 c 14.31496,-4.44529 25.40967,-22.97986 29.11982,-37.56034 3.35802,-13.25371 -0.0961,-29.00713 -17.2851,-23.69481 -12.88091,3.99604 -25.96084,21.53597 -29.47706,36.75449 -3.99594,17.33541 4.48075,28.57362 17.64234,24.50066 m -10.79873,12.86565 c -25.33821,0 -39.17855,-18.24964 -30.56407,-41.41829 4.63387,-12.46884 12.65637,-23.36967 22.67427,-30.94747 11.74796,-8.90981 25.32291,-14.02984 40.72488,-14.02984 24.60333,0 38.61208,18.48562 29.50768,42.98104 -9.60964,25.83268 -36.24924,43.41456 -62.34276,43.41456" style="fill:#3580cb;fill-rule:nonzero;stroke:none"/>
    <path id="path13493" d="m 208.85423,846.0972 -7.73671,0 c -8.11944,0 -13.98833,1.80224 -17.03504,7.36978 0,0.0105 -23.10294,31.54355 -23.16927,31.63095 -5.5831,8.37316 -13.26877,14.67138 -14.11592,2.76017 0.0153,0.0157 -3.98063,-26.72593 -3.99594,-26.74166 -2.05156,-11.88499 -6.68542,-15.01924 -11.53872,-15.01924 l -25.51684,0 c 0,0 6.61396,9.19649 2.76092,20.05188 -1.92907,5.4644 -14.309842,38.06028 -16.703321,44.23439 -4.873716,12.58071 -11.298857,16.91937 -11.298857,16.91937 l 16.080712,0 c 3.802006,0 6.522106,-3.66041 10.125086,-13.48445 1.68407,-4.50647 11.69181,-31.56978 11.94187,-32.26725 0.11712,-0.34961 0.45939,-1.90013 1.80149,-1.90013 1.08187,0 1.0053,1.60821 1.03607,1.94558 0.8471,7.84874 3.13346,33.99782 3.28145,35.87173 0.4746,6.41009 3.80201,9.77159 7.8541,9.77159 0.0153,0 8.77777,0 8.74717,0 3.55193,0 6.20569,-0.83906 9.00233,-4.84209 2.80175,-3.9908 29.18106,-40.67362 29.18106,-40.67362 0.84204,-1.52081 2.34244,-2.40357 3.22023,-2.10815 1.1177,0.38457 1.2044,1.4334 0.77578,2.63256 -3.21003,8.7385 -12.50836,33.73911 -13.23303,35.69867 -2.12301,5.66543 -1.07173,9.29263 4.38379,9.29263 3.82751,0 8.11945,0.0157 11.64077,0.0157 6.1802,0 8.55326,-6.45555 9.71171,-9.30837 0.97978,-2.40881 15.69798,-42.72583 21.83732,-59.31132 2.84768,-8.07774 -0.75027,-12.53876 -9.03807,-12.53876" style="fill:#3580cb;fill-rule:nonzero;stroke:none"/>
    <path id="path13497" d="m 318.88592,917.74276 c -0.82159,2.32141 -1.3932,9.29263 5.25647,9.29263 l 11.16617,0 c 6.16487,0 7.26719,-3.65342 9.29833,-9.30836 0,0 10.95183,-29.41968 16.27975,-43.42855 4.63385,-12.17167 14.82017,-17.4333 22.07716,-18.39822 10.77322,-0.8915 11.19679,-1.48584 13.02379,-6.03252 2.53639,-6.29298 2.32204,-6.4101 -10.24245,-6.4101 0.0402,0 -54.88673,0.0157 -54.88673,0 -13.55964,0 -14.12611,-0.1748 -16.93297,6.35416 -1.95458,4.4855 0.75533,6.08846 8.20112,6.08846 14.02916,0 15.02431,12.47233 12.91661,18.32655 -2.11279,5.83849 -16.15725,43.51595 -16.15725,43.51595" style="fill:#3580cb;fill-rule:nonzero;stroke:none"/>
    <path id="path13503" d="m 417.85087,917.00333 c 14.31495,-4.44529 25.40967,-22.97986 29.10961,-37.56034 3.36823,-13.25371 -0.0874,-29.00713 -17.27489,-23.69481 -12.8707,3.99604 -25.96085,21.53597 -29.47707,36.75449 -3.99593,17.33541 4.48076,28.57362 17.64235,24.50066 m -10.79873,12.86565 c -25.33312,0 -39.17345,-18.24964 -30.55897,-41.41829 4.62877,-12.46884 12.65125,-23.36967 22.65895,-30.94747 11.76328,-8.90981 25.33312,-14.02984 40.7351,-14.02984 24.59822,0 38.61718,18.48562 29.51788,42.98104 -9.59434,25.83268 -36.27474,43.41456 -62.35296,43.41456" style="fill:#3580cb;fill-rule:nonzero;stroke:none"/>
    <path id="path13507" d="m 662.53097,854.16095 -33.87616,96.2546 c -2.48023,-6.81739 -11.04368,-11.51265 -23.05702,-11.51265 l -533.235595,0 c -6.741549,0 -13.437168,2.22002 -18.071025,6.0465 14.090398,-38.55498 28.793201,-78.74439 33.600574,-92.23758 4.934955,-13.81484 -14.223088,-18.36151 -14.223088,-18.36151 l 565.682804,0 c 0,0 13.48311,-0.59434 20.36245,4.60785 6.84362,5.19521 2.81706,15.20279 2.81706,15.20279 m 0.27042,-19.1324 c -7.80305,-5.90491 -23.36321,-5.53782 -23.36321,-5.53782 l -565.48889,0 c -2.449617,0 -4.603239,1.81797 -5.062541,4.23552 -0.454195,2.4193 0.949226,4.70575 3.271258,5.31932 6.721136,1.79524 13.585165,6.53071 11.19679,12.25208 -0.01531,0 -10.145495,27.47759 -10.145495,27.47759 -19.229491,52.68621 -51.411329,140.88756 -53.860945,147.92516 -1.888246,5.4819 -8.869654,9.3801 -11.3958198,10.4411 -2.1791396,0.8915 -3.516221,3.1745 -3.189605,5.4505 0.3419185,2.2514 2.214861,3.8894 4.5266864,3.8894 0,0 568.0405714,0 568.2242914,0 1.64334,0 11.5234,0.3146 18.87226,-4.4646 7.68056,-4.9557 11.43665,-17.5766 12.01842,-19.648 0.0874,-0.2448 57.98446,-164.78692 58.68363,-166.76221 2.23528,-5.34379 3.24064,-14.81997 -4.28683,-20.54658 m -66.39991,206.94109 c 0,0 -0.0153,0 -0.0153,0.016 l -0.0102,0 c 0.0102,0 0.0262,-0.016 0.0262,-0.016" style="fill:#3580cb;fill-rule:nonzero;stroke:none"/>
    <path id="path13513" d="m 355.3595,956.61064 c -0.35206,-4.09218 -0.39804,-6.91528 5.80763,-6.91528 l 8.98704,0 c 4.68998,0 7.58359,0.24472 8.51751,9.21746 0.0153,0 3.80711,33.72163 3.7714,33.72163 0.8471,11.50395 8.27255,5.4207 13.68212,-2.66753 0.0455,-0.1748 17.84647,-25.0478 25.42498,-35.64797 2.03113,-2.87205 3.93979,-4.68477 6.9916,-4.68477 3.05692,0 4.0878,0.0157 6.38432,0.0157 2.30672,0 3.00589,2.1029 0.56654,5.56754 -11.94187,17.05047 -47.31332,67.61455 -49.55369,70.81875 -2.72011,3.8544 -5.2871,4.6848 -8.71656,4.6848 0.0315,0.01 -8.44097,0.01 -8.46649,0 -3.91939,0 -7.1294,-3.2654 -7.5887,-9.4605 -0.1381,-1.797 -2.36286,-27.10525 -3.17941,-34.70402 -0.0153,-0.22725 -1.68914,-19.34566 -2.62822,-29.94584" style="fill:#ffffff;fill-rule:nonzero;stroke:none"/>
    <path id="path13517" d="m 274.13637,1021.5245 c -0.78085,2.2305 -1.34722,8.9919 5.08296,8.9919 l 10.79872,0 c 5.98114,0 7.03244,-3.5415 9.01256,-8.9919 0,0 10.57416,-28.45654 15.74388,-42.01091 4.46544,-11.77836 14.33026,-16.87218 21.35249,-17.78466 10.41088,-0.87402 10.81403,-1.45088 12.59001,-5.85946 2.44962,-6.07797 2.25058,-6.20558 -9.92095,-6.20558 0.0507,0 -53.06993,0 -53.06993,0 -13.12075,0 -13.6617,-0.1748 -16.38181,6.14964 -1.88824,4.35265 0.73995,5.9154 7.93064,5.9154 13.56987,0 14.51909,12.03882 12.48795,17.70774 -2.03626,5.65494 -15.62652,42.08783 -15.62652,42.08783" style="fill:#ffffff;fill-rule:nonzero;stroke:none"/>
  </g>
</svg>