<?xml version="1.0" encoding="UTF-8"?>
<!DOCTYPE svg PUBLIC "-//W3C//DTD SVG 1.1//EN" "http://www.w3.org/Graphics/SVG/1.1/DTD/svg11.dtd">
<svg width="800pt" height="200pt" viewBox="0 0 800 200" version="1.1" xmlns="http://www.w3.org/2000/svg">
<g id="#056198ff">
<path fill="#056198" opacity="1.00" d=" M 284.90 25.82 C 288.45 22.68 293.52 22.99 297.95 22.69 C 317.94 22.62 337.93 22.69 357.92 22.66 C 362.21 22.21 366.64 25.67 366.70 30.09 C 366.83 34.71 364.63 38.99 362.46 42.94 C 357.75 50.75 351.82 57.74 345.66 64.43 C 332.51 79.02 319.35 93.60 306.16 108.16 C 299.95 115.27 293.57 122.31 288.50 130.31 C 311.01 130.81 333.56 130.35 356.09 130.54 C 355.42 134.40 355.79 138.82 353.05 141.99 C 350.95 144.10 348.11 145.76 345.05 145.67 C 322.36 145.66 299.68 145.69 277.00 145.65 C 272.97 145.78 269.16 142.18 269.31 138.10 C 269.24 132.83 271.98 128.06 274.77 123.78 C 281.57 113.98 289.87 105.37 297.78 96.49 C 310.01 83.12 322.15 69.68 334.33 56.28 C 338.86 50.75 343.77 45.22 346.20 38.39 C 324.27 38.32 302.34 38.41 280.41 38.34 C 280.82 33.94 281.30 28.89 284.90 25.82 Z"/>
<path fill="#056198" opacity="1.00" d=" M 636.04 31.23 C 638.19 29.55 640.87 29.05 643.54 28.93 C 642.71 35.57 641.81 42.21 641.10 48.87 C 652.16 48.92 663.22 48.89 674.28 48.89 C 673.52 52.75 673.93 57.25 670.89 60.23 C 667.95 63.68 663.16 64.18 658.93 64.31 C 652.45 64.43 645.97 64.37 639.50 64.32 C 637.65 77.19 636.28 90.14 634.62 103.04 C 633.94 109.66 632.40 116.36 633.63 123.01 C 634.45 127.55 638.29 131.27 642.90 131.78 C 649.79 132.74 656.99 131.93 663.43 129.26 C 662.53 133.72 662.98 138.92 659.47 142.37 C 655.06 147.07 648.16 147.78 642.07 147.51 C 633.76 147.78 624.40 145.14 619.82 137.65 C 614.79 128.97 616.11 118.44 617.33 108.93 C 619.67 89.97 622.00 71.01 624.24 52.03 C 624.94 43.89 628.68 35.41 636.04 31.23 Z"/>
<path fill="#056198" opacity="1.00" d=" M 54.00 52.91 C 62.84 47.38 73.68 46.24 83.84 47.61 C 92.91 49.02 100.67 55.61 103.95 64.12 C 111.73 54.48 123.19 46.74 136.01 47.16 C 145.92 46.66 157.01 49.68 162.85 58.28 C 169.01 66.83 168.81 77.95 168.22 88.01 C 165.81 107.21 163.67 126.46 161.00 145.61 C 157.13 145.51 152.65 146.62 149.32 144.09 C 146.32 141.87 145.24 137.84 145.74 134.26 C 147.65 118.86 149.57 103.45 151.38 88.03 C 151.85 82.16 151.94 75.91 149.29 70.50 C 146.56 64.91 140.00 62.22 134.02 62.49 C 127.53 62.28 120.57 64.09 116.05 69.01 C 111.29 74.19 109.60 81.35 108.51 88.11 C 105.99 107.27 103.82 126.48 101.48 145.66 C 97.90 145.51 94.18 146.17 90.72 145.11 C 86.75 143.62 85.52 138.88 85.97 135.06 C 87.66 119.98 89.63 104.95 91.43 89.89 C 92.08 82.87 91.93 75.18 87.77 69.17 C 84.64 64.30 78.55 62.19 72.97 62.49 C 66.04 62.16 59.05 65.32 54.96 70.96 C 50.38 77.38 49.00 85.41 48.07 93.07 C 45.99 110.68 43.90 128.30 41.63 145.88 C 37.53 145.58 32.75 146.61 29.34 143.72 C 26.38 141.45 25.97 137.36 26.40 133.92 C 28.29 118.82 30.04 103.71 31.87 88.61 C 33.71 74.35 41.33 60.28 54.00 52.91 Z"/>
<path fill="#056198" opacity="1.00" d=" M 390.68 61.71 C 399.77 52.28 412.85 46.49 426.04 47.16 C 439.02 46.93 451.91 55.33 456.13 67.75 C 458.84 75.39 457.70 83.98 454.44 91.26 C 451.59 97.42 445.07 100.70 438.79 102.29 C 431.65 103.98 424.27 104.55 416.94 104.43 C 408.01 104.78 399.08 104.69 390.15 104.59 C 389.23 111.68 392.05 118.97 396.63 124.34 C 401.41 129.85 408.91 131.95 415.98 132.16 C 423.71 132.29 431.67 131.33 438.67 127.85 C 442.23 126.33 445.11 123.67 448.57 121.97 C 447.91 127.44 447.96 133.66 443.86 137.90 C 435.97 146.09 423.86 147.82 413.01 147.50 C 400.18 148.12 387.00 141.91 379.96 131.06 C 375.67 124.54 373.34 116.78 373.19 108.99 C 372.60 91.81 378.59 74.12 390.68 61.71 M 409.17 65.24 C 399.18 70.04 392.29 80.29 391.33 91.31 C 403.58 91.17 415.83 91.12 428.05 90.14 C 432.14 89.51 436.99 89.21 439.80 85.76 C 442.24 81.42 441.83 75.84 439.63 71.47 C 437.17 66.60 431.92 63.79 426.72 62.83 C 420.80 62.04 414.53 62.37 409.17 65.24 Z"/>
<path fill="#056198" opacity="1.00" d=" M 486.66 59.28 C 495.42 50.78 507.85 46.49 519.98 47.16 C 530.35 46.86 541.61 50.60 547.62 59.49 C 553.64 68.06 553.19 79.09 552.54 89.04 C 550.34 107.93 547.93 126.79 545.62 145.67 C 541.43 145.33 536.59 146.77 532.97 144.01 C 529.84 141.31 530.24 136.76 530.74 133.07 C 532.69 118.07 534.38 103.03 536.23 88.01 C 536.77 81.77 536.76 74.99 533.39 69.48 C 529.29 63.72 521.63 62.27 514.99 62.50 C 507.21 62.13 499.28 65.75 494.89 72.25 C 491.26 77.84 489.80 84.50 488.97 91.02 C 486.81 109.23 484.51 127.43 482.38 145.65 C 478.07 145.32 472.83 146.95 469.41 143.52 C 466.53 140.80 467.17 136.49 467.43 132.94 C 469.20 118.15 471.04 103.37 472.87 88.59 C 474.42 77.76 478.72 67.02 486.66 59.28 Z"/>
<path fill="#056198" opacity="1.00" d=" M 184.15 48.90 C 188.74 49.22 193.62 48.05 198.01 49.74 C 202.12 52.54 202.24 58.20 202.83 62.66 C 205.76 82.98 210.84 103.10 219.16 121.91 C 219.47 122.76 220.29 124.76 221.20 123.12 C 233.87 103.49 244.43 82.48 252.86 60.70 C 254.36 56.83 255.66 52.88 256.84 48.90 C 260.91 49.25 265.90 47.67 269.18 50.83 C 271.38 53.89 269.89 57.88 268.88 61.12 C 258.35 91.73 240.55 119.04 223.64 146.41 C 217.21 156.02 210.81 166.10 201.40 173.11 C 195.77 177.39 188.33 178.95 181.43 177.43 C 178.36 176.50 175.35 174.11 174.94 170.74 C 175.00 168.37 175.48 166.04 175.74 163.69 C 181.50 163.52 187.96 164.54 192.97 161.00 C 198.78 157.10 202.55 151.02 206.60 145.46 C 207.64 143.77 209.17 142.26 209.59 140.26 C 199.14 119.72 192.20 97.52 187.38 75.03 C 185.69 66.42 184.24 57.70 184.15 48.90 Z"/>
<path fill="#056198" opacity="1.00" d=" M 687.63 48.89 C 691.37 49.02 695.16 48.55 698.87 49.19 C 702.79 50.03 704.32 54.39 704.60 57.94 C 706.01 74.10 708.30 90.29 713.03 105.84 C 715.34 113.59 718.81 120.92 722.18 128.25 C 724.77 126.73 726.03 123.87 727.78 121.55 C 738.07 105.91 745.91 88.82 753.11 71.58 C 755.85 64.17 759.12 56.91 760.92 49.20 C 764.28 49.01 768.11 48.05 771.17 49.91 C 774.64 52.98 773.15 58.04 772.15 61.91 C 767.30 77.75 759.88 92.67 752.03 107.22 C 743.98 121.40 735.49 135.53 724.34 147.53 C 721.86 147.48 719.37 147.60 716.91 147.34 C 712.88 146.19 711.33 141.92 709.50 138.62 C 695.40 110.93 688.51 79.84 687.63 48.89 Z"/>
<path fill="#056198" opacity="1.00" d=" M 577.11 121.07 C 582.16 119.69 588.55 120.86 591.24 125.80 C 594.17 131.25 592.44 138.77 587.52 142.53 C 581.68 147.66 570.51 147.00 567.22 139.26 C 564.40 131.75 569.53 123.05 577.11 121.07 Z"/>
</g>
</svg>