<?xml version="1.0" encoding="UTF-8"?>
<!DOCTYPE svg PUBLIC "-//W3C//DTD SVG 1.1//EN" "http://www.w3.org/Graphics/SVG/1.1/DTD/svg11.dtd">
<svg width="800pt" height="280pt" viewBox="0 0 800 280" version="1.1" xmlns="http://www.w3.org/2000/svg">
<g id="#808184ff">
<path fill="#808184" opacity="1.00" d=" M 227.93 22.04 C 231.09 22.06 234.26 22.06 237.42 22.12 C 248.60 38.79 260.19 55.21 270.43 72.49 C 270.59 55.68 270.46 38.87 270.50 22.06 C 273.88 22.06 277.26 22.06 280.65 22.06 C 280.61 45.95 280.69 69.85 280.61 93.75 C 277.55 93.84 274.50 93.83 271.45 93.77 C 259.91 77.08 248.58 60.25 237.88 43.01 C 238.08 59.94 237.74 76.87 238.08 93.80 C 234.69 93.83 231.31 93.83 227.93 93.83 C 227.93 69.90 227.93 45.97 227.93 22.04 Z"/>
<path fill="#808184" opacity="1.00" d=" M 308.97 22.06 C 312.41 22.06 315.86 22.06 319.30 22.09 C 326.73 46.01 334.28 69.89 341.57 93.85 C 337.00 93.81 332.42 93.83 327.85 93.83 C 325.95 87.24 324.00 80.67 322.19 74.05 C 315.40 74.08 308.62 74.06 301.83 74.06 C 299.49 80.50 298.20 87.29 295.54 93.60 C 291.99 94.06 288.40 93.78 284.84 93.81 C 292.69 69.83 300.92 45.98 308.97 22.06 M 312.83 36.10 C 310.75 45.95 307.95 55.64 304.93 65.24 C 310.01 65.25 315.09 65.25 320.17 65.24 C 318.28 55.39 314.52 45.99 312.83 36.10 Z"/>
<path fill="#808184" opacity="1.00" d=" M 335.23 22.07 C 351.40 22.05 367.56 22.06 383.73 22.07 C 383.72 25.40 383.72 28.74 383.72 32.07 C 377.75 32.07 371.79 32.07 365.82 32.07 C 365.83 52.64 365.84 73.20 365.82 93.77 C 361.60 93.86 357.39 93.86 353.19 93.77 C 353.16 73.20 353.18 52.64 353.18 32.07 C 347.20 32.07 341.23 32.07 335.25 32.07 C 335.24 28.74 335.24 25.40 335.23 22.07 Z"/>
<path fill="#808184" opacity="1.00" d=" M 434.49 24.26 C 442.19 22.57 450.29 24.81 456.77 29.08 C 455.50 31.93 454.20 34.76 452.91 37.59 C 447.60 34.79 441.40 33.00 435.44 34.65 C 427.23 36.79 422.08 45.02 420.83 53.01 C 420.32 59.39 420.05 66.14 422.87 72.08 C 425.20 77.81 429.95 82.91 436.15 84.28 C 439.95 85.13 443.84 84.32 447.51 83.28 C 447.48 76.28 447.52 69.29 447.48 62.29 C 451.34 62.27 455.20 62.27 459.07 62.30 C 458.82 71.85 458.96 81.40 458.96 90.94 C 448.28 94.85 435.96 96.87 425.36 91.60 C 417.48 87.17 411.34 79.40 409.37 70.52 C 406.84 61.00 407.57 50.61 411.65 41.62 C 416.10 32.83 424.61 25.80 434.49 24.26 Z"/>
<path fill="#808184" opacity="1.00" d=" M 531.37 24.59 C 539.91 21.99 549.42 25.31 555.60 31.47 C 561.60 37.00 564.41 45.11 565.57 52.99 C 566.70 64.93 564.41 78.11 555.97 87.14 C 546.42 97.62 527.69 97.42 518.57 86.49 C 510.89 78.43 508.94 66.72 509.46 55.99 C 509.33 42.47 517.76 28.11 531.37 24.59 M 533.47 34.62 C 526.47 36.90 523.41 44.62 522.15 51.25 C 520.95 60.46 521.45 70.53 526.49 78.61 C 528.89 82.46 533.17 84.57 537.62 84.82 C 540.47 84.28 543.54 83.83 545.73 81.72 C 550.48 77.84 551.68 71.46 552.74 65.75 C 553.93 57.82 553.27 49.41 549.88 42.07 C 547.08 36.08 539.90 32.39 533.47 34.62 Z"/>
<path fill="#808184" opacity="1.00" d=" M 470.72 24.94 C 480.81 24.93 490.91 24.94 501.00 24.93 C 501.06 28.15 501.06 31.37 501.07 34.59 C 494.69 34.63 488.31 34.59 481.93 34.63 C 481.92 40.73 481.94 46.84 482.08 52.94 C 488.32 53.16 494.56 52.99 500.80 53.06 C 500.79 56.24 500.79 59.41 500.82 62.59 C 494.52 62.64 488.23 62.59 481.94 62.63 C 481.90 69.85 481.95 77.06 482.08 84.28 C 489.65 84.28 497.23 84.27 504.81 84.29 C 504.79 87.47 504.79 90.64 504.79 93.81 C 493.43 93.85 482.08 93.81 470.72 93.83 C 470.72 70.87 470.72 47.90 470.72 24.94 Z"/>
<path fill="#808184" opacity="1.00" d=" M 216.41 112.10 C 228.91 110.70 241.39 109.09 253.91 107.90 C 259.78 142.48 265.28 177.14 270.35 211.84 C 278.43 177.65 287.37 143.67 297.14 109.93 C 307.35 109.93 317.55 109.91 327.76 109.94 C 331.16 122.55 335.15 134.99 338.65 147.57 C 342.73 163.09 347.61 178.40 351.14 194.06 C 352.74 200.31 354.29 206.57 355.94 212.81 C 359.78 177.70 365.67 142.84 370.91 107.92 C 381.74 109.02 392.50 110.71 403.31 112.08 C 399.66 131.82 395.60 151.48 391.52 171.14 C 387.91 190.49 383.80 209.73 379.97 229.04 C 378.38 238.43 376.28 247.73 374.42 257.07 C 360.75 257.05 347.07 257.07 333.39 257.06 C 324.83 227.99 316.40 198.85 309.60 169.30 C 306.58 183.18 303.44 197.03 299.95 210.80 C 296.51 226.35 291.66 241.55 288.05 257.07 C 274.30 257.06 260.54 257.06 246.78 257.06 C 236.59 208.76 226.39 160.45 216.41 112.10 Z"/>
<path fill="#808184" opacity="1.00" d=" M 410.21 109.94 C 422.67 109.99 435.13 109.77 447.59 110.06 C 447.70 159.06 447.63 208.06 447.63 257.06 C 435.15 257.06 422.66 257.06 410.18 257.06 C 410.18 208.02 410.13 158.98 410.21 109.94 Z"/>
<path fill="#808184" opacity="1.00" d=" M 463.46 109.92 C 475.74 109.93 488.02 109.92 500.31 109.93 C 500.30 149.71 500.32 189.50 500.30 229.28 C 515.03 229.27 529.77 229.28 544.51 229.28 C 544.49 238.54 544.50 247.80 544.50 257.06 C 517.49 257.06 490.48 257.07 463.47 257.06 C 463.46 208.02 463.47 158.97 463.46 109.92 Z"/>
<path fill="#808184" opacity="1.00" d=" M 555.21 109.93 C 571.49 109.97 587.77 109.83 604.05 110.00 C 617.45 110.14 631.13 113.22 642.48 120.55 C 656.53 129.76 665.40 145.42 668.28 161.76 C 670.21 170.43 669.81 179.33 669.66 188.14 C 668.34 205.66 663.00 223.72 650.65 236.72 C 638.42 250.24 619.93 256.84 601.98 257.07 C 586.39 257.06 570.80 257.07 555.22 257.06 C 555.20 208.02 555.21 158.97 555.21 109.93 M 591.93 138.11 C 592.05 168.50 591.74 198.89 592.08 229.28 C 601.29 229.73 611.51 229.30 618.68 222.67 C 626.69 214.72 629.95 203.31 631.29 192.39 C 632.49 180.33 632.59 167.61 627.53 156.34 C 624.30 149.52 619.47 142.94 612.33 139.92 C 605.89 137.07 598.74 138.30 591.93 138.11 Z"/>
<path fill="#808184" opacity="1.00" d=" M 680.73 189.68 C 714.81 189.66 748.88 189.67 782.95 189.67 C 782.93 211.54 782.94 233.41 782.94 255.28 C 736.15 255.25 689.35 255.34 642.55 255.23 C 657.55 248.28 668.62 234.48 674.40 219.21 C 678.18 209.81 680.18 199.77 680.73 189.68 M 698.27 203.12 C 698.30 216.14 698.25 229.16 698.30 242.18 C 701.10 242.15 703.91 242.14 706.72 242.13 C 706.73 236.55 706.73 230.96 706.68 225.38 C 710.54 225.33 714.40 225.31 718.26 225.29 C 718.28 230.91 718.28 236.54 718.29 242.16 C 721.09 242.15 723.90 242.15 726.71 242.15 C 726.74 229.14 726.70 216.13 726.73 203.12 C 723.91 203.12 721.08 203.12 718.27 203.12 C 718.28 208.03 718.27 212.94 718.28 217.85 C 714.42 217.84 710.57 217.84 706.72 217.85 C 706.72 212.94 706.71 208.03 706.73 203.12 C 703.91 203.12 701.08 203.12 698.27 203.12 M 735.63 203.12 C 735.62 216.12 735.61 229.12 735.63 242.13 C 741.86 242.26 748.21 242.80 754.32 241.31 C 760.29 239.24 764.53 233.43 765.21 227.21 C 766.35 219.87 765.29 210.71 758.54 206.32 C 751.79 201.70 743.28 203.44 735.63 203.12 Z"/>
<path fill="#808184" opacity="1.00" d=" M 744.50 210.27 C 747.41 210.49 750.80 209.76 753.23 211.79 C 756.41 214.07 756.86 218.36 756.85 221.98 C 756.61 226.08 755.91 230.89 752.21 233.36 C 749.85 234.52 747.09 234.13 744.56 234.36 C 744.52 226.33 744.59 218.30 744.50 210.27 Z"/>
</g>
<g id="#fad91aff">
<path fill="#fad91a" opacity="1.00" d=" M 17.45 23.43 C 71.89 23.56 126.33 23.43 180.77 23.50 C 180.72 101.59 180.70 179.68 180.78 257.78 C 126.33 257.68 71.88 257.69 17.43 257.77 C 17.57 179.66 17.51 101.55 17.45 23.43 M 40.99 47.54 C 41.15 109.78 41.02 172.03 41.05 234.28 C 79.68 234.24 118.30 234.36 156.92 234.22 C 157.09 171.99 156.74 109.76 157.05 47.54 C 118.36 47.51 79.68 47.51 40.99 47.54 Z"/>
</g>
<g id="#ffffffff">
<path fill="#ffffff" opacity="1.00" d=" M 698.27 203.12 C 701.08 203.12 703.91 203.12 706.73 203.12 C 706.71 208.03 706.72 212.94 706.72 217.85 C 710.57 217.84 714.42 217.84 718.28 217.85 C 718.27 212.94 718.28 208.03 718.27 203.12 C 721.08 203.12 723.91 203.12 726.73 203.12 C 726.70 216.13 726.74 229.14 726.71 242.15 C 723.90 242.15 721.09 242.15 718.29 242.16 C 718.28 236.54 718.28 230.91 718.26 225.29 C 714.40 225.31 710.54 225.33 706.68 225.38 C 706.73 230.96 706.73 236.55 706.72 242.13 C 703.91 242.14 701.10 242.15 698.30 242.18 C 698.25 229.16 698.30 216.14 698.27 203.12 Z"/>
<path fill="#ffffff" opacity="1.00" d=" M 735.63 203.12 C 743.28 203.44 751.79 201.70 758.54 206.32 C 765.29 210.71 766.35 219.87 765.21 227.21 C 764.53 233.43 760.29 239.24 754.32 241.31 C 748.21 242.80 741.86 242.26 735.63 242.13 C 735.61 229.12 735.62 216.12 735.63 203.12 M 744.50 210.27 C 744.59 218.30 744.52 226.33 744.56 234.36 C 747.09 234.13 749.85 234.52 752.21 233.36 C 755.91 230.89 756.61 226.08 756.85 221.98 C 756.86 218.36 756.41 214.07 753.23 211.79 C 750.80 209.76 747.41 210.49 744.50 210.27 Z"/>
</g>
</svg>