<?xml version="1.0" encoding="UTF-8" standalone="no"?>
<!-- Created with Inkscape (http://www.inkscape.org/) -->
<svg xmlns:svg="http://www.w3.org/2000/svg" xmlns="http://www.w3.org/2000/svg" version="1.0" width="211" height="50.000767" id="svg5701">
  <defs id="defs5703"/>
  <g transform="translate(-23.72143,-495.93323)" id="layer1">
    <g transform="translate(-178.81813,334.48054)" id="g5615">
      <g transform="translate(182.73956,86.253071)" id="g5486">
        <path d="M 49.7,120.15 L 49.7,80.4 L 25,80.4 L 25,120.15 L 49.7,120.15 z M 54.75,75.35 L 54.75,125.2 L 20,125.2 L 20,75.35 L 54.75,75.35 z " style="fill:#fdd500;stroke-linecap:round;stroke-linejoin:round" id="path5488"/>
      </g>
      <g transform="matrix(1,0,0,1.0000153,327.13956,186.45307)" id="g5490">
        <g id="g5492">
          <path d="M -67.2,-24.7 L -67.2,-6.5 L -69.4,-6.5 C -73.3,-12.133333 -76.183334,-16.483334 -78.05,-19.55 L -78.05,-6.5 L -80.5,-6.5 L -80.5,-24.7 L -78.3,-24.7 C -74.46667,-19.166666 -71.6,-14.849998 -69.7,-11.75 L -69.65,-24.7 L -67.2,-24.7 z M -69.7,-11.75 L -69.65,-11.75 L -69.7,-11.75 z " style="fill:#9c9c9c;stroke-linecap:round;stroke-linejoin:round" id="path5494"/>
          <path d="M -60.95,-13.7 L -56.9,-13.7 L -58.9,-21.1 C -59.233334,-19.666668 -59.916668,-17.2 -60.95,-13.7 z M -58.9,-21.1 L -58.95,-21.1 L -58.9,-21.1 z M -57.3,-24.7 L -51.65,-6.5 L -55.05,-6.5 L -56.45,-11.45 L -61.8,-11.45 L -63.35,-6.5 L -65.95,-6.5 L -59.85,-24.7 L -57.3,-24.7 z " style="fill:#9c9c9c;stroke-linecap:round;stroke-linejoin:round" id="path5496"/>
          <path d="M -40.8,-22.25 L -45.45,-22.25 L -45.45,-6.5 L -48.5,-6.5 L -48.5,-22.25 L -53.1,-22.25 L -53.1,-24.7 L -40.8,-24.7 L -40.8,-22.25 z " style="fill:#9c9c9c;stroke-linecap:round;stroke-linejoin:round" id="path5498"/>
          <path d="M -20.95,-14.8 L -20.95,-7.3 C -22.816668,-6.5666666 -24.5,-6.2 -26,-6.2 C -28.566668,-6.2 -30.633335,-7.1166663 -32.2,-8.95 C -33.733334,-10.716667 -34.5,-12.966667 -34.5,-15.7 C -34.5,-18.266666 -33.733334,-20.433334 -32.2,-22.2 C -30.566668,-24.066668 -28.466667,-25 -25.9,-25 C -24.233334,-25 -22.800001,-24.533333 -21.6,-23.6 L -22.6,-21.45 C -23.6,-22.083334 -24.683334,-22.4 -25.85,-22.4 C -27.483334,-22.4 -28.783333,-21.783333 -29.75,-20.55 C -30.783333,-19.316668 -31.3,-17.683334 -31.3,-15.65 C -31.3,-13.583333 -30.766666,-11.9 -29.7,-10.6 C -28.7,-9.400001 -27.516666,-8.8 -26.15,-8.8 L -24,-9.2 L -24,-14.8 L -20.95,-14.8 z " style="fill:#9c9c9c;stroke-linecap:round;stroke-linejoin:round" id="path5500"/>
          <path d="M -9.7,-22.25 L -14.75,-22.25 L -14.75,-17.25 L -9.8,-17.25 L -9.8,-14.8 L -14.75,-14.8 L -14.75,-8.95 L -8.75,-8.95 L -8.75,-6.5 L -17.8,-6.5 L -17.8,-24.7 L -9.7,-24.7 L -9.7,-22.25 z " style="fill:#9c9c9c;stroke-linecap:round;stroke-linejoin:round" id="path5502"/>
          <path d="M 7.55,-15.85 C 7.55,-13.083333 6.8833337,-10.799999 5.55,-9 C 4.15,-7.133333 2.3166666,-6.2 0.05,-6.2 C -2.2500002,-6.2 -4.0833335,-7.133333 -5.45,-9 C -6.7833333,-10.8 -7.45,-13.083334 -7.45,-15.85 C -7.45,-18.416668 -6.75,-20.583334 -5.35,-22.35 C -3.9166665,-24.116667 -2.1166663,-25 0.05,-25 C 2.1833334,-25 3.9666667,-24.116667 5.4,-22.35 C 6.8333335,-20.583334 7.55,-18.416668 7.55,-15.85 z M -4.25,-15.85 C -4.25,-13.883333 -3.9333334,-12.266666 -3.3,-11 C -2.5333333,-9.533334 -1.4166666,-8.8 0.05,-8.8 C 1.5166667,-8.8 2.6166668,-9.533334 3.35,-11 C 3.9833336,-12.266666 4.3,-13.883333 4.3,-15.85 C 4.3,-17.683334 3.9666667,-19.183334 3.3,-20.35 C 2.5333333,-21.716667 1.4499999,-22.4 0.05,-22.4 C -1.3833333,-22.4 -2.4833333,-21.716667 -3.25,-20.35 C -3.9166667,-19.183334 -4.25,-17.683334 -4.25,-15.85 z " style="fill:#9c9c9c;stroke-linecap:round;stroke-linejoin:round" id="path5504"/>
          <path d="M -77.15,-0.25 C -77.15,-0.7833333 -77.23334,-1.15 -77.4,-1.35 C -77.23334,-1.9833333 -76.76667,-2.4833333 -76,-2.85 L -75.8,-2.85 L -74.9,-2.6 C -74.66667,-2.3333333 -74.200005,-0.7333331 -73.5,2.2 L -71.85,8.05 L -71.4,9.8 L -70.95,11.5 L -70.95,11.65 L -70.45,13.25 L -69.9,15 L -69.8,15.5 L -69.5,15.95 L -68.95,18 C -68.78333,18.033333 -68.7,18.266666 -68.7,18.7 L -68.3,20 C -68.066666,20.633333 -67.95,21.116667 -67.95,21.45 L -67.6,22.75 C -68.63333,23.35 -69.35,23.65 -69.75,23.65 L -70.6,22.8 L -71.35,21.65 L -71.9,19.7 C -72.1,18.966667 -72.45,18.4 -72.95,18 C -72.98333,17.766666 -73.166664,17.583334 -73.5,17.45 C -73.799995,17.35 -73.95,17.05 -73.95,16.55 C -73.95,16.383333 -74.066666,16.233334 -74.3,16.1 L -74.7,15.65 L -74.65,15.5 L -74.4,15.3 L -74.45,15.2 L -74.7,14.85 L -74.7,14.35 C -74.63333,14.150001 -74.4,13.983334 -74,13.85 C -73.700005,13.716666 -73.55,13.466666 -73.55,13.1 C -73.55,12.733334 -73.683334,12.150001 -73.95,11.35 C -74.183334,10.616667 -74.28333,10.033334 -74.25,9.6 L -74.6,8.75 L -75,7.85 L -75.15,6.45 C -75.683334,5.85 -76.35,3.6166666 -77.15,-0.25 z " style="fill:#636467;stroke-linecap:round;stroke-linejoin:round" id="path5506"/>
          <path d="M -77.9,3.15 L -77.35,5.3 C -77.35,5.6666665 -77.816666,6.783333 -78.75,8.65 C -79.65,10.55 -80.1,11.75 -80.1,12.25 L -79.45,12.7 L -78.45,13 L -77,13.15 L -75.8,13.5 L -75.7,16.4 L -78.75,16.7 C -78.98333,16.7 -79.399994,16.9 -80,17.3 L -81.05,18.25 C -81.683334,18.550001 -82.2,19.216667 -82.6,20.25 L -83.25,21.9 C -83.28333,22.6 -83.5,23 -83.9,23.1 C -84.36667,23.733334 -84.833336,24.066668 -85.3,24.1 L -86.2,23.55 C -86.333336,22.583334 -86.23334,21.916668 -85.9,21.55 L -85.3,19.2 L -84.7,17.1 L -84.25,15.75 L -83.8,14.45 C -81.53333,8.416667 -80.21667,4.633333 -79.85,3.1 C -79.316666,2.4666667 -79.05,1.9333334 -79.05,1.5 L -78.8,1.35 L -78.55,1.35 C -78.25,1.7166667 -78.03333,2.3166666 -77.9,3.15 z " style="fill:#636467;stroke-linecap:round;stroke-linejoin:round" id="path5508"/>
          <path d="M -50.65,-1.2 L -50.15,-0.75 L -49.55,-0.6 L -48,0.95 L -46.6,3.3 C -46.43333,3.4666667 -46.38333,3.8333335 -46.45,4.4 L -45.75,6.3 L -45.6,8.35 L -45.4,9.95 L -45.5,11.85 L -45.6,13.3 L -45.8,14.5 L -46.3,16.35 L -46.75,17.25 L -46.6,17.45 L -47.6,19.2 L -48.15,19.95 L -48.6,20.55 C -48.633335,20.816668 -49.000004,21.066668 -49.7,21.3 C -50,21.766666 -50.25,22 -50.45,22 C -51.083336,22.166666 -51.4,22.4 -51.4,22.7 C -51.600002,22.533335 -51.933334,22.533335 -52.4,22.7 C -52.866665,22.9 -53.1,23.116667 -53.1,23.35 L -53.95,23.4 C -54.316666,23.5 -54.566666,23.633333 -54.7,23.8 L -55.6,23.7 L -56.55,23.9 L -57.15,23.95 L -58.8,23.75 L -59.8,21.95 L -59.45,21.15 C -59.38333,20.916666 -59.05,20.783333 -58.45,20.75 L -56,20.8 C -55.366665,20.766666 -54.38333,20.316668 -53.05,19.45 C -52.916664,19.35 -52.583332,19.2 -52.05,19 C -51.61667,18.866667 -51.300003,18.683334 -51.1,18.45 C -50.466667,17.783335 -50.2,17.383335 -50.3,17.25 L -49.55,14.8 C -49.05,12.133333 -48.88333,9.65 -49.05,7.35 C -49.183334,6.083333 -49.45,5.1166663 -49.85,4.45 C -50.116665,3.8166666 -50.366665,3.35 -50.6,3.05 L -50.95,2.5 L -51.75,1.75 C -51.883335,1.5166667 -52.216667,1.2666667 -52.75,1 C -53.25,0.76666665 -53.616665,0.65 -53.85,0.65 L -56.9,0.5 L -58.55,0.6 C -58.95,0.6666667 -59.133335,0.45 -59.1,-0.05 L -58.9,-1.35 L -58.7,-2.95 L -58.15,-3 L -57.5,-2.9 L -54.65,-2.7 L -53.05,-2.2 L -50.65,-1.2 z " style="fill:#636467;stroke-linecap:round;stroke-linejoin:round" id="path5510"/>
          <path d="M -64.3,0.05 C -64.3,-0.81666666 -63.883335,-1.6833334 -63.05,-2.55 L -62.65,-2.45 L -62.35,-2.7 L -61.85,-2.9 L -61.6,-2.8 L -61.1,-1.5 L -61.2,-1.1 C -61.1,-0.76666665 -61.083332,-0.21666658 -61.15,0.55 L -61.15,2.15 L -61.3,4.8 L -61.15,8.95 L -61.3,11.45 L -61,22.15 L -61.05,23.6 L -61.45,24.05 L -62.65,24 L -64.25,22.9 C -64.183334,17.5 -64.200005,14.316667 -64.3,13.35 L -64.2,13 L -64.3,12.2 L -64.15,8.85 L -64.3,0.05 z M -61.85,-2.9 L -61.8,-2.9 L -61.85,-2.9 z " style="fill:#636467;stroke-linecap:round;stroke-linejoin:round" id="path5512"/>
          <path d="M -28,-2.1 C -27.966667,-2.5333333 -27.550001,-2.9333334 -26.75,-3.3 C -26.616667,-3.1666665 -26.266666,-3.0666666 -25.7,-3 C -25.2,-2.8333333 -24.95,-2.3999999 -24.95,-1.7 C -24.95,-1.2333333 -25.25,-0.049999952 -25.85,1.85 C -26.416668,3.65 -26.833334,4.8 -27.1,5.3 C -27.366667,6.666667 -27.7,7.6333337 -28.1,8.2 L -28.1,8.3 C -28.066666,8.733334 -28.233332,9.35 -28.6,10.15 L -29.7,13.45 L -30.7,17.05 C -30.9,18.083334 -31.199999,18.816668 -31.6,19.25 C -31.733334,19.283333 -31.8,19.449999 -31.8,19.75 L -31.85,20 C -32.016666,20.666666 -32.216667,21.15 -32.45,21.45 L -32.85,22.45 L -33.25,23.45 L -34.15,23.95 C -34.350002,23.95 -34.466667,23.85 -34.5,23.65 L -34.7,23.3 L -34.95,23.55 L -34.9,23.65 C -34.9,23.85 -35.016666,23.95 -35.25,23.95 C -35.55,23.95 -35.816666,23.566668 -36.05,22.8 C -36.283333,21.966665 -36.466667,21.516666 -36.6,21.45 L -37.65,17.75 L -37.85,17.1 C -37.85,16.8 -37.93333,16.599998 -38.1,16.5 L -38.5,15.3 L -38.75,14.35 C -38.816666,13.95 -38.95,13.65 -39.15,13.45 L -39.05,13.2 L -39.35,12.25 L -41.6,5 L -41.75,4.35 L -42,3.95 C -43.066666,1.1500001 -43.6,-0.6666665 -43.6,-1.5 L -43.15,-2.6 C -42.850002,-2.9666667 -42.483334,-3.15 -42.05,-3.15 C -41.61667,-3.15 -41.216667,-2.9666667 -40.85,-2.6 C -40.483334,-2.2333333 -40.316666,-1.8833333 -40.35,-1.55 L -40.15,-0.95 L -39.9,-0.5 L -39.95,-0.35 L -39.7,0 L -39.7,0.1 L -39.5,1.6 C -39.266666,1.8666667 -39.066666,2.3166666 -38.9,2.95 L -38.65,4.15 C -38.55,4.6833334 -38.38333,5.0833335 -38.15,5.35 L -37.05,8.5 L -36.65,9.3 C -36.416668,9.6 -36.3,9.85 -36.3,10.05 C -36.2,10.116667 -36,10.5 -35.7,11.2 C -35.466667,11.766666 -35.2,12.05 -34.9,12.05 L -33.8,13 L -32.95,12.4 C -32.55,12.066667 -32.233334,11.3 -32,10.1 C -31.800001,8.833333 -31.550001,8.033333 -31.25,7.7 C -30.916666,6.7999997 -30.733334,6.1 -30.7,5.6 C -30.466667,5.2666664 -30.283333,4.7 -30.15,3.9 C -30.016666,3.1333332 -29.783333,2.5666666 -29.45,2.2 C -29.45,1.8333333 -29.333334,1.55 -29.1,1.35 L -28.7,-0.4 C -28.566668,-1.1 -28.333334,-1.6666667 -28,-2.1 z " style="fill:#636467;stroke-linecap:round;stroke-linejoin:round" id="path5514"/>
          <path d="M -22.35,-0.7 C -22.083334,-1.7666667 -21.766666,-2.4166667 -21.4,-2.65 L -19.25,-2.85 L -14.35,-2.95 L -14.2,-2.85 L -13.7,-2.85 L -11.95,-2.7 L -11.5,-2.55 C -11.3,-2.5166667 -11.133333,-2.2166667 -11,-1.65 L -11.4,-1.6 L -11.5,-1.45 L -11.1,-1.25 C -11,-1.1833333 -10.95,-1.0333333 -10.95,-0.8 C -10.95,-0.36666667 -11.366667,-0.099999994 -12.2,0 L -12.4,0 L -13.35,0.05 L -15.55,0.1 L -15.9,0.2 C -17.666666,0.099999994 -18.933332,0.43333334 -19.7,1.2 L -20.15,3.25 L -20.05,3.85 L -19.85,5.6 L -19.55,7.1 C -19.016666,7.833333 -18.45,8.283333 -17.85,8.45 L -16.2,8.55 L -14.35,8.45 L -12.45,8.5 C -11.816667,8.8 -11.45,9.083334 -11.35,9.35 L -10.8,10.3 C -10.866667,11.033333 -11.216667,11.483333 -11.85,11.65 L -13.55,11.9 L -15.4,11.8 C -17.633333,11.8 -18.85,12.133333 -19.05,12.8 L -19.3,14.2 L -19.3,15.5 L -19.35,15.85 C -19.25,16.083334 -19.25,16.483334 -19.35,17.05 L -19.5,17.55 L -19.35,18.6 L -19.1,19.25 L -18.65,19.8 L -17.85,20.35 L -17.3,20.25 L -15.55,20.55 L -15.15,20.5 L -14.95,20.4 L -14.85,20.4 L -14.3,20.45 L -13.35,20.35 L -12.9,20.45 L -12.5,20.45 L -12.4,20.4 C -11.433333,20.466667 -10.75,20.683334 -10.35,21.05 L -10.1,22.15 C -10.1,22.55 -10.233334,22.783333 -10.5,22.85 L -10.5,23 L -11.5,23.75 L -12.5,23.7 L -13.1,23.7 L -15.1,23.9 L -20.15,23.5 L -20.55,23.6 C -21.816668,23.6 -22.45,23.166666 -22.45,22.3 C -22.216667,15.633333 -22.1,10.716667 -22.1,7.55 C -22.1,3.5500002 -22.183334,0.8000002 -22.35,-0.7 z M -14.95,20.4 L -14.9,20.4 L -14.95,20.4 z " style="fill:#636467;stroke-linecap:round;stroke-linejoin:round" id="path5516"/>
          <path d="M -6.35,-2.05 L -5.45,-2.7 L -5.15,-2.45 L -4.9,-2.1 L -5.15,-1.75 C -5.15,-1.6833333 -5.0833335,-1.65 -4.95,-1.65 C -4.75,-1.65 -4.6,-1.75 -4.5,-1.95 L -4.2,-2.2 C -3.8333333,-2.2 -3.5166667,-1.9666667 -3.25,-1.5 L -2.5,-0.5 L -0.65,1.9 L 0.35,3.45 L 1.5,5.05 L 2.9,6.75 C 3.5333333,7.65 3.8333333,8.25 3.8,8.55 L 5.25,10.05 L 5.8,10.6 C 6.0333333,10.866667 6.2833333,11.016666 6.55,11.05 L 6.8,11 L 8.65,11.05 L 9.05,11.1 C 9.283333,11 9.4,10.816667 9.4,10.55 L 9.35,4.3 L 9.25,4 C 9.116667,3.233333 9.05,1.3999997 9.05,-1.5 C 9.05,-1.7333333 9.366667,-2.1166668 10,-2.65 L 10.85,-2.65 L 11.7,-2.75 L 12,-2.45 C 12.566667,-2.15 12.85,-1.6833334 12.85,-1.05 L 12.6,0.85 L 12.8,6.95 L 12.75,7.75 L 12.85,8 C 12.75,8.633333 12.766666,9.633333 12.9,11 L 13.05,18.15 L 13.3,20.8 C 13.166667,21.033333 13.133333,21.35 13.2,21.75 L 13.3,22.7 L 13.05,23.35 L 11.65,24 C 10.95,23.733334 10.533333,23.4 10.4,23 L 7.9,19.9 C 6.633333,18.2 5.9666667,17.116667 5.9,16.65 C 4.866667,14.916667 3.9166667,13.733334 3.05,13.1 C 3.0166667,12.833333 2.8,12.483333 2.4,12.05 L 1.6,11 L 0.85,10.2 C 0.5833333,9.9 0.2833333,9.716666 -0.05,9.65 C -1.1833334,9.75 -1.8166668,10.066667 -1.95,10.6 C -2.25,10.966666 -2.4333334,11.483333 -2.5,12.15 L -2.65,13.85 L -2.45,14.1 L -2.65,14.8 L -2.3,21.35 L -2.4,22.8 L -3.1,23.7 C -3.3666666,24 -3.7166667,24.15 -4.15,24.15 C -4.8166666,24.15 -5.333333,23.966667 -5.7,23.6 C -6.1,23.466667 -6.3,22.866667 -6.3,21.8 L -6.25,19.55 L -6.45,11.25 L -6.35,8.15 L -6.45,5.95 L -6.45,2.1 L -6.3,0.9 C -6.3333335,0.36666667 -6.416667,0 -6.55,-0.2 L -6.5,-0.35 L -6.65,-1.1 L -6.35,-2.05 z " style="fill:#636467;stroke-linecap:round;stroke-linejoin:round" id="path5518"/>
          <path d="M 14.3,-0.5 C 14.3,-1.0666667 14.466667,-1.5 14.8,-1.8 L 16,-2.55 L 17.85,-2.55 L 18.75,-2.65 L 21.9,-2.6 L 22.75,-2.6 L 24.8,-2.7 L 25.75,-2.8 L 26.55,-2.75 L 31.5,-2.95 L 32.35,-2.55 L 32.85,-1.85 L 32.85,-1.7 L 32.7,-1.5 L 33.1,-1.05 L 33.1,-0.8 C 33.1,-0.6 32.8,-0.18333334 32.2,0.45 L 32.1,0.45 L 30.75,0.8 L 26.8,0.7 C 25.933332,0.7 25.416666,0.9666667 25.25,1.5 L 24.85,3.4 L 24.9,4.55 L 25.15,5 L 25.1,6.9 L 25.05,7.05 L 25.2,7.55 L 25.15,8 L 25.15,10.55 L 25.25,18.05 L 25.15,22.3 C 25.15,23.166666 24.949999,23.75 24.55,24.05 L 22.7,24.45 L 21.95,23.85 C 21.683332,22.783333 21.55,21.233334 21.55,19.2 L 21.55,17 C 21.516666,15.8 21.566668,14.916667 21.7,14.35 C 21.466667,13.283334 21.466667,12.066667 21.7,10.7 C 21.6,10.566667 21.55,10.25 21.55,9.75 L 21.25,4.95 C 21.516666,4.6833334 21.65,4.2166667 21.65,3.55 C 21.716667,2.6833334 21.616667,2.0666666 21.35,1.7 C 20.383333,1.2 19.516666,0.9166667 18.75,0.85 L 16.05,0.85 L 15.4,0.85 C 14.666667,0.38333333 14.3,-0.06666669 14.3,-0.5 z " style="fill:#636467;stroke-linecap:round;stroke-linejoin:round" id="path5520"/>
          <path d="M 34.25,0.55 C 34.25,-1.55 34.783333,-2.6 35.85,-2.6 L 37,-2.25 L 37.5,-1.3 L 37.3,-0.9 L 37.5,-0.05 L 37.35,2.2 C 37.25,2.4 37.233334,2.6833334 37.3,3.05 L 37.2,3.85 L 37.25,7.65 L 37.35,8.1 L 37.25,9.2 L 37.45,10.2 L 37.25,11.6 L 37.5,12.35 L 37.5,12.5 L 37.65,13.3 L 37.25,13.4 L 37.05,14.55 L 37.25,16.95 L 37.9,18.4 C 38.033333,19.2 38.266666,19.75 38.6,20.05 L 40,20.85 L 41.45,21.5 L 42.25,21.45 L 43,21.3 L 44.25,21.35 L 44.4,21.6 L 43.65,22.15 L 44.3,22.55 L 44.5,22.5 L 45.05,21.9 L 46.9,19.7 C 47.600002,18.833334 47.916668,18 47.85,17.2 L 48,15.55 L 47.95,13.75 L 47.85,13.45 L 47.95,12.7 L 48,7.65 L 48.1,2.25 L 48.1,-0.25 C 48.2,-1.4166667 48.533333,-2.1333334 49.1,-2.4 L 50.3,-2.65 C 50.9,-2.65 51.25,-2.3166666 51.35,-1.65 L 51.3,-0.05 L 51.55,2.55 L 51.35,2.75 L 51.65,9.2 L 51.55,9.95 L 51.5,10.45 L 51.6,10.85 L 51.5,11.4 L 51.6,13.75 C 51.6,16.449999 51.399998,18.099998 51,18.7 L 51.05,18.85 C 51.05,19.616667 50.45,20.616667 49.25,21.85 C 48.083332,23.05 47.05,23.783333 46.15,24.05 C 45.850002,24.383333 45.36667,24.6 44.7,24.7 L 42.95,25 L 42,25 C 41.600002,24.966667 41.300003,24.866667 41.1,24.7 L 39.3,24.35 L 38.4,23.7 L 37.45,23.05 C 37.016666,22.916666 36.6,22.6 36.2,22.1 L 35.15,20.95 C 34.45,19.316668 34.1,17.566668 34.1,15.7 L 34.15,11.7 L 34.35,10.4 C 34.18333,9.766666 34.13333,8.85 34.2,7.65 L 34.15,4.85 L 34.2,4.6 L 34.25,0.55 z " style="fill:#636467;stroke-linecap:round;stroke-linejoin:round" id="path5522"/>
          <path d="M 55.75,-0.6 L 56.05,-1.15 C 56.25,-2.2166667 56.566666,-2.75 57,-2.75 L 58.05,-2.85 L 58.5,-2.25 L 59.4,-2.15 L 59.45,-1.55 L 59.4,0.7 L 59.35,1 L 59.55,1.9 L 59.35,4.1 L 59.45,6.75 L 59.35,8 L 59.35,10.05 L 59.5,11.3 L 59.45,14 L 59.45,16.65 L 59.55,16.8 L 59.45,19.55 L 59.25,23.6 L 58.6,24.6 L 57.75,24.9 L 57.6,24.9 C 57.2,24.9 56.81667,24.75 56.45,24.45 C 56.05,24.15 55.85,23.783333 55.85,23.35 L 55.7,21.2 L 55.75,20.4 L 55.85,20.15 L 55.75,19.8 L 55.8,11.8 L 55.85,11.6 L 55.8,11.1 L 55.9,10.9 L 55.85,9.85 L 55.95,7.85 L 55.95,7.3 L 56.05,4.45 L 56.05,0.8 L 55.75,-0.6 z " style="fill:#636467;stroke-linecap:round;stroke-linejoin:round" id="path5524"/>
          <path d="M 61.4,-0.6 L 61.25,-1.3 L 61.3,-1.55 L 61.3,-1.95 C 61.3,-2.3833332 61.7,-2.6166666 62.5,-2.65 L 64.1,-2.7 L 65.35,-2.65 L 66.25,-2.35 L 67.1,-1.8 C 67.96667,-1.1666666 68.8,0.01666677 69.6,1.75 C 69.6,2.3833334 69.7,2.8000002 69.9,3 L 70.05,3.7 L 70,5.4 L 69.75,7.75 C 69.583336,8.75 69.333336,9.416667 69,9.75 L 68.2,10.15 C 67.86666,10.349999 67.7,10.599999 67.7,10.9 L 66.95,11.7 L 66.95,11.8 L 66.8,12.65 C 66.8,12.849999 66.85,12.983333 66.95,13.05 L 67.6,15.7 C 68.066666,16.4 68.566666,17.583332 69.1,19.25 L 70.2,21.25 L 71.15,23.2 C 71.15,23.9 71,24.349998 70.7,24.55 L 69,24.8 C 68.6,24.8 67.86667,23.566666 66.8,21.1 L 64.7,16.25 L 63.2,14.35 C 63.1,14.216666 62.666664,14.099999 61.9,14 C 61.233334,13.933333 60.866665,13.75 60.8,13.45 L 60.85,13 L 60.75,11.35 L 60.8,10.8 C 60.933334,10.566667 61.333336,10.466666 62,10.5 L 63,10.45 L 63.35,10.3 L 65,10.25 C 65.299995,10.25 65.6,9.866667 65.9,9.1 L 66.55,6.75 L 66.75,5.35 C 66.75,3.8166666 66.35,2.6499999 65.55,1.85 C 64.78333,1.1166667 63.816666,0.8333333 62.65,1 L 61.3,0.55 L 61.45,-0.4 L 61.4,-0.6 z " style="fill:#636467;stroke-linecap:round;stroke-linejoin:round" id="path5526"/>
          <path d="M 73.7,-0.35 C 73.9,-1.3833333 74.333336,-2.0166667 75,-2.25 L 77.4,-2.45 L 82.25,-2.6 L 84.5,-2.45 L 83.25,-2.5 L 84.7,-2.3 C 84.73333,-2.2 84.88333,-2.15 85.15,-2.15 L 85.55,-1.25 L 85.2,-1.2 L 85.1,-1.05 L 85.45,-0.9 L 85.6,-0.4 C 85.6,2.9802322e-08 85.23333,0.2666667 84.5,0.4 L 84.3,0.35 L 83.45,0.45 L 80.6,0.5 L 80.3,0.6 C 78.8,0.5 77.683334,0.81666666 76.95,1.55 C 76.71667,2.65 76.6,3.3333335 76.6,3.6 L 76.65,4.25 L 76.8,5.95 C 76.86667,6.7166667 76.96667,7.2333336 77.1,7.5 C 77.53333,8.233334 78.03333,8.666667 78.6,8.8 L 80.35,8.95 L 82.3,8.8 L 83.95,8.9 C 84.48333,9.166667 84.816666,9.450001 84.95,9.75 L 85.4,10.7 C 85.36667,11.433333 85.05,11.883333 84.45,12.05 L 82.7,12.25 L 80.8,12.15 C 78.8,12.15 77.71667,12.483333 77.55,13.15 C 77.35,13.95 77.26666,14.433333 77.3,14.6 L 77.3,15.85 L 77.25,16.2 L 77.3,17.4 L 77.2,17.95 L 77.3,19 L 77.5,19.65 C 77.53333,19.916666 77.666664,20.083332 77.9,20.15 L 78.55,20.75 L 79.05,20.65 L 80.6,20.9 L 81.25,20.8 L 82.5,20.9 C 82.86667,20.766666 83.450005,20.766666 84.25,20.9 L 84.45,20.95 L 84.9,20.8 C 85.333336,20.833334 85.73334,21.050001 86.1,21.45 L 86.3,22.55 C 86.3,22.949999 86.16667,23.183332 85.9,23.25 L 85.9,23.35 L 85.1,24.1 L 84.9,24.2 L 84.5,24.25 L 84,24.2 L 82.3,24.25 L 76.6,23.9 L 76.2,23.95 C 75.7,23.95 75.21667,23.766666 74.75,23.4 C 74.28333,23.033333 74.05,22.633333 74.05,22.2 L 73.9,7.95 L 73.7,-0.35 z M 84.6,20.85 L 84.25,20.9 L 84.4,20.7 C 84.566666,20.7 84.63333,20.75 84.6,20.85 z " style="fill:#636467;stroke-linecap:round;stroke-linejoin:round" id="path5528"/>
        </g>
      </g>
    </g>
  </g>
</svg>