<?xml version="1.0" encoding="UTF-8"?>
<!-- Generator: Adobe Illustrator 14.0.0, SVG Export Plug-In . SVG Version: 6.00 Build 43363)  -->
<!DOCTYPE svg PUBLIC "-//W3C//DTD SVG 1.1//EN" "http://www.w3.org/Graphics/SVG/1.1/DTD/svg11.dtd">
<svg version="1.1" id="Calque_1" xmlns="http://www.w3.org/2000/svg" xmlns:xlink="http://www.w3.org/1999/xlink" x="0px" y="0px" width="160px" height="55px" viewBox="0 0 160 55" enable-background="new 0 0 160 55" xml:space="preserve">
<g>
	<g>
		<path d="M53.386,5.312h15.979v30.035h13.224v14.137H53.386V5.312z"/>
		<path d="M87.554,19.329h-8.32V5.312h31.753v14.016h-8.249v30.156H87.554V19.329z"/>
	</g>
	<path d="M27.979,4.724C15.288,4.724,5,14.921,5,27.5c0,12.578,10.288,22.775,22.979,22.775c12.691,0,22.979-10.197,22.979-22.775   C50.957,14.921,40.67,4.724,27.979,4.724z M27.979,36.402c-4.812,0-8.712-3.986-8.712-8.902c0-4.918,3.9-8.904,8.712-8.904   c4.812,0,8.712,3.986,8.712,8.904C36.69,32.416,32.791,36.402,27.979,36.402z"/>
	<path d="M124.327,5.312l6.402,21.484c0.137,0.429,0.495,2.485,1.078,5.495c0.579-3.01,0.984-5.066,1.115-5.495l6.357-21.484H155   l-16.95,44.172h-12.471L108.607,5.312H124.327z"/>
</g>
</svg>