<?xml version="1.0" encoding="UTF-8" standalone="no"?>
<!-- Generator: Adobe Illustrator 14.0.0, SVG Export Plug-In . SVG Version: 6.00 Build 43363)  -->
<svg xmlns:dc="http://purl.org/dc/elements/1.1/" xmlns:cc="http://creativecommons.org/ns#" xmlns:rdf="http://www.w3.org/1999/02/22-rdf-syntax-ns#" xmlns:svg="http://www.w3.org/2000/svg" xmlns="http://www.w3.org/2000/svg" xmlns:xlink="http://www.w3.org/1999/xlink" xmlns:sodipodi="http://sodipodi.sourceforge.net/DTD/sodipodi-0.dtd" xmlns:inkscape="http://www.inkscape.org/namespaces/inkscape" version="1.1" id="Layer_1" x="0px" y="0px" width="571" height="228" viewBox="0 0 570.99999 228" enable-background="new 0 0 623.622 768.661" xml:space="preserve">
<path id="path9935" d="m 408.303,418.933 c 0,0.134 0.108,0.242 0.243,0.243 0.134,0 0.242,-0.109 0.242,-0.243 l 0.002,-2.236 c 10e-4,-0.134 -0.107,-0.243 -0.242,-0.243 -0.135,0 -0.243,0.108 -0.243,0.243 l -0.002,2.236" clip-path="url(#SVGID_988_)" style="fill:#f68b1e" transform="matrix(0,30.923388,-30.923388,0,13322.847,-12626.11)"/><path id="path9937" d="m 409.07,412.369 v 15.812 c -10e-4,0.956 0.773,1.872 1.729,2.049 l 3.146,0.575 c 0.956,0.175 1.731,-0.459 1.732,-1.415 v -14.104 c 10e-4,-0.956 -0.762,-1.873 -1.716,-2.047 l -4.891,-0.87" clip-path="url(#SVGID_988_)" style="fill:#231f20" transform="matrix(0,30.923388,-30.923388,0,13322.847,-12626.11)"/><path style="fill:#ffffff" d="M 93.140909,44.593372 C 65.526324,44.562449 45.116888,62.528937 40.84946,86.216252 L 26.501008,164.45242 c -4.360198,23.68732 9.49348,41.68473 37.077142,41.71565 27.676432,0 48.27141,-17.96648 52.56976,-41.6538 L 130.46544,86.309023 C 134.79471,62.590784 120.78642,44.624296 93.140909,44.593372 m 6.184678,41.653804 -14.317529,78.205244 c -1.329706,7.23608 -6.617605,14.71954 -16.482166,14.71954 -9.86456,0 -12.462125,-7.45254 -11.132419,-14.75046 L 71.741925,86.216252 C 73.07163,78.98018 78.390453,71.49672 88.22409,71.527643 c 9.864561,0.03092 12.4312,7.48346 11.101497,14.719533 z" id="path9939"/><path style="fill:#ffffff" d="m 498.70114,44.933529 c -27.64551,-0.03092 -48.02402,17.935565 -52.32237,41.622881 l -14.34845,78.23617 c -4.32928,23.65639 9.46255,41.6538 37.10806,41.68473 27.61459,0.0309 48.20957,-17.93557 52.53884,-41.62288 l 14.31753,-78.236174 c 4.3602,-23.656391 -9.67902,-41.653803 -37.29361,-41.684727 m 6.2156,41.653804 -14.31752,78.267097 c -1.32971,7.17422 -6.67946,14.68861 -16.51309,14.65768 -9.86456,0 -12.43121,-7.45253 -11.1015,-14.68861 l 14.31753,-78.26709 c 1.3297,-7.20515 6.6176,-14.657686 16.51309,-14.657686 9.83363,0 12.4312,7.48346 11.10149,14.688609 z" id="path9941"/><path style="fill:#ffffff" d="m 213.15458,203.63236 -19.11066,-0.0309 c -3.06141,0 -6.0919,-2.41202 -6.46298,-5.25697 l -11.13242,-79.1948 c -0.24739,-1.08232 -1.0514,-1.51525 -1.94818,-1.51525 -1.08232,0 -2.07186,0.6494 -2.31925,1.9791 l -14.34845,78.20525 c -0.55662,3.09234 -3.64896,5.72083 -6.7413,5.72083 l -18.86327,-0.0309 c -3.06141,0 -5.22605,-2.62848 -4.60758,-5.72082 L 154.18368,52.509759 c 0.58754,-3.123262 3.61803,-5.535286 6.7413,-5.504363 l 19.72912,0 c 4.14373,0 6.12283,2.412025 6.49391,5.256976 l 10.79226,77.679548 c 0.24739,1.0514 0.77309,1.73171 1.66986,1.73171 1.11325,0 2.35018,-0.86585 2.59757,-2.19556 l 14.07014,-76.906464 c 0.58754,-3.092339 3.37065,-5.504363 6.49391,-5.504363 l 19.01789,0.03092 c 3.12326,0 5.07143,2.412024 4.51481,5.504363 l -26.59411,145.309 c -0.61847,3.09234 -3.49435,5.72083 -6.55576,5.72083" id="path9943"/><path style="fill:#ffffff" d="m 321.13905,182.44984 -2.81403,15.55446 c -0.61847,3.09234 -3.46342,5.75175 -6.55576,5.72083 l -72.97919,-0.0619 c -3.09234,0 -5.00959,-2.62849 -4.45297,-5.72083 l 2.84495,-15.55446 c 0.58754,-3.06142 1.94817,-7.01961 4.39112,-10.73042 l 62.52709,-92.460927 c 1.82448,-2.844951 0.71124,-5.256976 -2.31925,-5.256976 l -38.15946,-0.06185 c -3.06142,0 -5.25698,-2.412025 -4.66943,-5.47344 l 2.87587,-15.770928 c 0.61847,-3.092339 3.64896,-5.535286 6.71038,-5.535286 l 71.03102,0.06185 c 3.09234,0.03092 5.25697,2.442948 4.70035,5.535287 l -2.87587,15.801851 c -1.02047,5.47344 -2.75218,7.854541 -4.60759,10.730416 L 274.47566,171.6885 c -1.85541,2.84495 -0.92771,5.00959 2.13371,5.00959 l 40.13856,0.0309 c 3.06141,0.0309 5.00959,2.65941 4.39112,5.72083" id="path9945"/><path style="fill:#ffffff" d="m 386.20186,107.55339 29.59368,0.0309 c 3.06141,0 5.22605,2.59757 4.63851,5.72083 l -2.87588,15.55446 c -0.55662,3.06142 -3.64896,5.68991 -6.71037,5.68991 l -29.62461,-0.0309 c -3.09234,0 -5.90637,2.41203 -6.46299,5.50437 l -5.78267,31.35631 c -0.55662,3.06142 1.42248,5.47344 4.51481,5.47344 l 38.59239,0.0309 c 3.06142,0 5.22606,2.65941 4.60759,5.72082 l -2.84495,15.58539 c -0.55662,3.06142 -3.67989,5.6899 -6.7413,5.6899 l -69.48486,-0.0618 c -3.06141,0 -5.22605,-2.62849 -4.66943,-5.72083 l 26.59412,-145.309 c 0.58754,-3.092339 3.64896,-5.504363 6.71037,-5.504363 l 67.10375,0.06185 c 3.06142,0 5.25698,2.412024 4.66944,5.535286 l -2.87588,15.770928 c -0.58754,3.061415 -3.64896,5.47344 -6.7413,5.47344 l -36.18036,-0.03092 c -3.06142,0 -5.90637,2.628488 -6.49391,5.720827 l -4.05097,22.141149 c -0.46385,2.93772 1.42248,5.59713 4.51482,5.59713" id="path9947"/>
</svg>