<?xml version="1.0" encoding="UTF-8" standalone="no"?>
<!-- Created with Inkscape (http://www.inkscape.org/) -->
<svg
   xmlns:dc="http://purl.org/dc/elements/1.1/"
   xmlns:cc="http://web.resource.org/cc/"
   xmlns:rdf="http://www.w3.org/1999/02/22-rdf-syntax-ns#"
   xmlns:svg="http://www.w3.org/2000/svg"
   xmlns="http://www.w3.org/2000/svg"
   xmlns:sodipodi="http://sodipodi.sourceforge.net/DTD/sodipodi-0.dtd"
   xmlns:inkscape="http://www.inkscape.org/namespaces/inkscape"
   width="542"
   height="293"
   id="svg2"
   sodipodi:version="0.32"
   inkscape:version="0.45.1"
   version="1.0">
  <g
     inkscape:label="Layer 1"
     inkscape:groupmode="layer"
     id="layer1"
     transform="translate(-106.13582,-381.68531)">
    <path
       d="M 604.75346,445.52965 C 602.49559,439.5834 599.33448,434.06187 595.27023,429.17748 C 594.81865,428.96513 579.46488,416.64793 555.98268,408.79043 L 555.98268,408.79043 C 554.1763,408.57799 552.82157,408.57799 551.46685,408.57799 C 519.85606,408.57799 494.11591,434.06187 494.11591,465.70435 C 494.11591,497.34683 519.85606,522.83071 551.46685,522.83071 C 572.2396,522.83071 590.30283,511.78764 600.23763,495.22321 L 600.23763,495.22321 C 600.23763,495.22321 597.97976,468.67747 604.75346,445.52965"
       class="ps036"
       id="path2024"
       style="font-size:7.5px;letter-spacing:0px;word-spacing:0.20999999;fill:#f6de1b;fill-rule:nonzero;stroke:none;stroke-width:0.30000001;stroke-linecap:butt;stroke-linejoin:miter;stroke-miterlimit:10;stroke-dasharray:none;font-family:fnt0" />
    <path
       d="M 593.91551,382.66939 C 579.91645,375.66139 555.98268,408.36563 555.98268,408.79043 L 555.98268,408.79043 C 579.46488,416.64793 594.81865,428.96513 595.27023,429.17748 L 595.27023,429.38983 C 595.27023,429.38983 608.36614,389.88984 593.91551,382.66939"
       class="ps037"
       id="path2026"
       style="font-size:7.5px;letter-spacing:0px;word-spacing:0.20999999;fill:#ea6f29;fill-rule:nonzero;stroke:none;stroke-width:0.30000001;stroke-linecap:butt;stroke-linejoin:miter;stroke-miterlimit:10;stroke-dasharray:none;font-family:fnt0" />
    <path
       d="M 538.82252,410.06455 L 538.82252,409.85219 C 538.82252,409.85219 519.40449,392.65061 507.66339,400.72048 C 498.18016,407.09142 504.50228,431.08875 504.95386,432.36295 C 513.08236,421.31997 524.82346,413.03767 538.82252,410.06455"
       class="ps037"
       id="path2028"
       style="font-size:7.5px;letter-spacing:0px;word-spacing:0.20999999;fill:#ea6f29;fill-rule:nonzero;stroke:none;stroke-width:0.30000001;stroke-linecap:butt;stroke-linejoin:miter;stroke-miterlimit:10;stroke-dasharray:none;font-family:fnt0" />
    <path
       d="M 563.20795,521.5565 L 562.75638,521.76886 L 560.95008,521.98121 C 557.78897,522.61836 554.62787,522.83071 551.46685,522.83071 C 544.24149,522.83071 537.4678,521.5565 531.14567,519.00809 C 531.59725,520.91936 538.82252,548.52695 552.82157,546.40324 C 561.40165,545.12903 569.0785,521.5565 569.53007,519.85759 C 568.17535,520.2823 566.36905,520.91936 565.01425,521.1318"
       class="ps037"
       id="path2030"
       style="font-size:7.5px;letter-spacing:0px;word-spacing:0.20999999;fill:#ea6f29;fill-rule:nonzero;stroke:none;stroke-width:0.30000001;stroke-linecap:butt;stroke-linejoin:miter;stroke-miterlimit:10;stroke-dasharray:none;font-family:fnt0" />
    <path
       d="M 498.63173,443.61829 C 497.27701,443.83073 459.3441,450.62639 460.69891,466.97856 C 461.60205,483.75543 499.98646,490.55109 499.98646,490.55109 L 499.53488,490.12638 C 496.37386,482.69358 494.11591,474.41136 494.11591,465.70435 C 494.11591,457.84684 495.92229,450.41404 498.63173,443.61829"
       class="ps037"
       id="path2032"
       style="font-size:7.5px;letter-spacing:0px;word-spacing:0.20999999;fill:#ea6f29;fill-rule:nonzero;stroke:none;stroke-width:0.30000001;stroke-linecap:butt;stroke-linejoin:miter;stroke-miterlimit:10;stroke-dasharray:none;font-family:fnt0" />
    <path
       d="M 604.75346,445.52965 L 604.75346,445.52965 C 597.97976,468.67747 600.23763,495.22321 600.23763,495.22321 L 600.23763,495.22321 C 601.14086,495.22321 646.75062,491.61294 648.10535,473.77421 C 649.46007,455.93557 605.20503,445.52965 604.75346,445.52965"
       class="ps037"
       id="path2034"
       style="font-size:7.5px;letter-spacing:0px;word-spacing:0.20999999;fill:#ea6f29;fill-rule:nonzero;stroke:none;stroke-width:0.30000001;stroke-linecap:butt;stroke-linejoin:miter;stroke-miterlimit:10;stroke-dasharray:none;font-family:fnt0" />
    <path
       d="M 582.62598,482.90593 C 582.62598,498.19624 570.43331,510.72587 555.07944,510.72587 C 539.72567,510.72587 527.53299,498.19624 527.53299,482.90593 C 527.53299,467.40326 539.72567,455.08607 555.07944,455.08607 C 570.43331,455.08607 582.62598,467.40326 582.62598,482.90593"
       class="ps037"
       id="path2036"
       style="font-size:7.5px;letter-spacing:0px;word-spacing:0.20999999;fill:#ea6f29;fill-rule:nonzero;stroke:none;stroke-width:0.30000001;stroke-linecap:butt;stroke-linejoin:miter;stroke-miterlimit:10;stroke-dasharray:none;font-family:fnt0" />
    <path
       d="M 507.21181,437.4597 C 507.21181,438.09684 517.59819,463.58073 555.98268,449.56454 L 552.37,442.98123 C 521.21087,454.23657 514.88866,437.24734 513.08236,433.63716"
       class="ps023"
       id="path2038"
       style="font-size:7.5px;letter-spacing:0px;word-spacing:0.20999999;fill:#231f20;fill-rule:nonzero;stroke:none;stroke-width:0.30000001;stroke-linecap:butt;stroke-linejoin:miter;stroke-miterlimit:10;stroke-dasharray:none;font-family:fnt0" />
    <path
       d="M 516.69504,422.80653 C 517.14662,423.44359 524.37189,424.50544 531.59725,421.74468 C 538.82252,418.98391 543.78992,414.94902 542.88677,412.61296 C 541.98362,410.48934 535.6615,410.91405 528.43614,413.88717 C 521.21087,416.64793 515.34032,421.10762 516.69504,422.80653"
       class="ps015"
       id="path2040"
       style="font-size:7.5px;letter-spacing:0px;word-spacing:0.20999999;fill:#ffffff;fill-rule:nonzero;stroke:none;stroke-width:0.30000001;stroke-linecap:butt;stroke-linejoin:miter;stroke-miterlimit:10;stroke-dasharray:none;font-family:fnt0" />
    <path
       d="M 568.17535,423.23124 C 567.72378,426.62907 560.95008,428.54042 553.72472,427.47857 C 546.04788,426.41671 540.6289,422.80653 541.08047,419.4087 C 541.53205,416.22314 547.85417,414.31187 555.5311,415.37373 C 562.75638,416.43558 568.62693,420.04576 568.17535,423.23124"
       class="ps015"
       id="path2042"
       style="font-size:7.5px;letter-spacing:0px;word-spacing:0.20999999;fill:#ffffff;fill-rule:nonzero;stroke:none;stroke-width:0.30000001;stroke-linecap:butt;stroke-linejoin:miter;stroke-miterlimit:10;stroke-dasharray:none;font-family:fnt0" />
    <path
       d="M 553.72472,419.62106 C 553.72472,421.10762 551.91843,421.95703 549.66047,421.53232 C 547.85417,421.31997 546.49945,420.04576 546.49945,418.5592 C 546.95102,417.285 548.75732,416.43558 550.5637,416.64793 C 552.37,417.07264 553.72472,418.34685 553.72472,419.62106"
       class="ps023"
       id="path2044"
       style="font-size:7.5px;letter-spacing:0px;word-spacing:0.20999999;fill:#231f20;fill-rule:nonzero;stroke:none;stroke-width:0.30000001;stroke-linecap:butt;stroke-linejoin:miter;stroke-miterlimit:10;stroke-dasharray:none;font-family:fnt0" />
    <path
       d="M 527.53299,417.7097 C 527.98457,418.77156 527.08142,420.04576 525.27512,420.89526 C 523.92031,421.74468 522.11402,421.74468 521.66244,420.89526 C 521.21087,419.83341 522.11402,418.34685 523.92031,417.49735 C 525.27512,416.64793 527.08142,416.86029 527.53299,417.7097"
       class="ps023"
       id="path2046"
       style="font-size:7.5px;letter-spacing:0px;word-spacing:0.20999999;fill:#231f20;fill-rule:nonzero;stroke:none;stroke-width:0.30000001;stroke-linecap:butt;stroke-linejoin:miter;stroke-miterlimit:10;stroke-dasharray:none;font-family:fnt0" />
    <path
       d="M 215.03838,581.65599 C 215.48995,575.28495 214.5868,569.7635 211.87727,564.66667 C 209.16783,559.56993 205.10357,555.95975 199.6846,553.62369 C 196.52349,552.34948 192.91081,551.71242 189.29822,551.50007 C 181.62129,551.07528 175.29917,553.41134 170.78334,557.87102 C 165.81594,562.54305 164.00964,568.70165 164.46122,576.34681 C 164.91279,583.3549 167.62223,589.30114 172.13806,594.39789 C 177.10546,599.49463 182.52444,602.6801 189.29822,603.74196 C 199.23302,605.22852 206.4583,601.40598 211.4257,592.48662 C 213.23199,589.5135 214.13523,585.90323 215.03838,581.65599 z M 247.55223,569.97586 C 247.55223,582.0807 245.29436,592.91133 240.77853,602.46775 C 235.35955,613.51082 227.68262,621.15598 217.74782,624.97851 C 213.23199,626.67743 209.6194,627.52693 205.55515,627.52693 C 201.03932,627.52693 194.26562,626.67743 184.78239,624.97851 C 181.62129,624.55381 178.00861,624.55381 173.94444,624.97851 C 169.88019,625.61557 167.62223,628.37634 167.62223,633.04838 C 167.62223,636.44629 168.97704,642.18009 170.78334,649.82525 C 171.68649,653.43552 171.68649,656.40864 170.78334,658.74461 C 168.97704,664.05379 165.36436,668.08868 159.94539,671.0618 C 155.42956,673.61022 150.01059,674.67207 143.68838,674.67207 C 133.302,674.24737 125.17358,670.42474 119.7546,663.20429 C 116.5935,659.38176 113.88405,649.6129 112.07767,633.89788 C 110.72295,624.76616 109.8198,610.96241 108.46499,592.48662 C 108.46499,586.75273 108.01342,577.83337 107.11027,565.94088 C 106.6587,560.63179 106.6587,555.11025 106.20712,549.58872 C 105.30397,532.81184 112.98082,523.04306 129.23783,520.06994 C 133.302,519.4328 138.72097,520.707 145.94633,523.68013 C 148.2042,524.74198 150.46216,525.37904 152.72003,525.37904 C 154.52641,525.80383 157.23586,524.31727 161.75168,520.91936 C 167.17066,517.09682 170.33176,514.9732 171.23491,514.54841 C 176.20231,512.21243 180.71814,511.36293 185.68554,511.57529 C 211.87727,513.2742 230.39215,523.46777 241.2301,542.36835 C 245.74593,550.43822 247.55223,559.56993 247.55223,569.97586"
       class="ps038"
       id="path2048"
       style="font-size:7.5px;letter-spacing:0px;word-spacing:0.20999999;fill:#47b23d;fill-rule:nonzero;stroke:none;stroke-width:0.30000001;stroke-linecap:butt;stroke-linejoin:miter;stroke-miterlimit:10;stroke-dasharray:none;font-family:fnt0" />
    <path
       d="M 318.90214,634.95973 C 320.25695,653.64787 312.58002,665.328 296.77467,669.57524 C 291.80726,670.84945 287.29144,671.69895 283.67876,671.69895 C 276.00191,671.69895 270.13136,668.72583 266.06711,662.56723 C 262.00286,656.62099 259.29341,646.00271 258.84175,630.50005 L 257.9386,609.6882 C 257.03546,584.62902 266.97026,571.46242 287.74301,570.18821 C 300.38734,569.55115 308.51576,574.43554 313.03159,585.47852 C 314.83797,591.21241 316.64427,599.28228 317.09585,609.90055 C 317.99899,618.39521 318.45057,626.67743 318.90214,634.95973 z M 321.1601,527.92745 C 322.06325,535.99732 317.09585,542.36835 305.80632,547.04039 C 299.4842,549.58872 292.25884,551.07528 284.58199,551.07528 C 275.09876,551.07528 266.97026,548.7393 261.09971,544.27962 C 257.48703,541.73121 255.68073,538.33338 255.22916,533.8737 C 254.32601,524.10492 259.29341,516.45976 270.58294,510.93823 C 276.90506,507.96511 283.67876,506.26619 291.35569,506.26619 C 299.03254,506.26619 305.35475,507.96511 310.77372,511.57529 C 317.09585,515.39791 320.25695,520.91936 321.1601,527.92745"
       class="ps038"
       id="path2050"
       style="font-size:7.5px;letter-spacing:0px;word-spacing:0.20999999;fill:#47b23d;fill-rule:nonzero;stroke:none;stroke-width:0.30000001;stroke-linecap:butt;stroke-linejoin:miter;stroke-miterlimit:10;stroke-dasharray:none;font-family:fnt0" />
    <path
       d="M 508.11496,574.01075 C 508.11496,579.53228 508.11496,585.05382 508.11496,590.78771 C 508.11496,620.73118 500.88969,638.99462 485.53591,645.57801 C 480.11694,647.70163 473.79473,648.76348 465.66631,648.76348 C 463.85993,648.76348 461.60205,648.12634 459.79567,647.06457 L 453.47355,643.87909 C 450.31253,642.18009 448.05457,640.90597 446.24828,640.26883 C 443.53875,638.99462 440.8293,638.35756 438.57135,638.35756 C 435.41033,637.93285 429.53969,639.20697 421.41127,642.18009 C 412.83119,645.15321 406.05749,646.63977 401.54167,646.63977 C 382.12364,646.63977 366.76986,643.66665 355.48033,637.2957 C 347.35183,632.83602 341.48128,626.25272 338.77175,617.54571 C 336.0623,610.5377 335.15915,602.6801 335.15915,593.33603 C 336.0623,576.34681 336.51388,565.51618 336.96545,561.05649 C 338.77175,547.67745 341.48128,537.48388 345.9971,530.26351 C 349.60978,523.68013 357.28663,520.707 369.02773,521.1318 C 377.60781,521.5565 384.83317,523.68013 389.80057,527.50275 C 394.76797,531.11293 397.02584,539.18288 397.92899,551.92478 C 397.92899,558.08337 397.92899,567.42744 397.92899,579.74463 C 397.92899,580.59413 397.92899,583.77961 397.92899,588.87635 C 397.47741,598.00807 398.83214,605.86558 401.09009,611.81182 C 402.44481,615.20973 404.70268,617.33336 407.86379,618.18286 C 413.28276,619.66942 417.79859,617.121 420.9597,610.32526 C 423.66914,605.01616 425.02395,598.22042 425.9271,590.36291 C 426.37867,583.56726 426.83025,576.77151 427.28182,569.97586 C 427.28182,564.66667 428.18497,556.80917 429.99135,546.19089 C 432.24922,535.99732 437.21662,531.11293 444.44189,531.11293 C 449.4093,531.11293 451.66725,535.78496 452.5704,545.55383 C 452.11883,545.34147 452.11883,551.92478 451.66725,565.72853 C 451.66725,568.06459 451.66725,572.09948 451.21568,578.04572 C 450.7641,583.56726 450.31253,587.60214 450.31253,590.57527 C 450.31253,600.76884 452.11883,608.62635 456.18308,614.36023 C 458.44095,617.97042 461.15048,619.88177 464.76307,619.88177 C 470.63371,619.88177 474.69788,616.48386 476.95583,609.6882 C 477.85898,606.71508 478.31056,602.89254 478.31056,598.22042 C 478.76213,594.39789 478.76213,590.57527 479.2137,586.54038 C 479.2137,579.53228 480.11694,569.12636 481.47166,554.8979 C 483.72953,539.39523 488.24536,531.75007 494.56748,531.75007 C 500.88969,531.75007 505.40552,537.90867 507.21181,550.43822 C 507.66339,555.3226 508.11496,559.99464 508.11496,564.66667"
       class="ps038"
       id="path2052"
       style="font-size:7.5px;letter-spacing:0px;word-spacing:0.20999999;fill:#47b23d;fill-rule:nonzero;stroke:none;stroke-width:0.30000001;stroke-linecap:butt;stroke-linejoin:miter;stroke-miterlimit:10;stroke-dasharray:none;font-family:fnt0" />
    <path
       d="M 583.52913,634.95973 C 584.88385,653.64787 577.65858,665.328 561.85323,669.57524 C 556.43425,670.84945 552.37,671.69895 548.30575,671.69895 C 540.6289,671.69895 534.75827,668.72583 530.6941,662.56723 C 526.62985,656.62099 524.37189,646.00271 523.46874,630.50005 L 522.56559,609.6882 C 521.66244,584.62902 531.59725,571.46242 552.37,570.18821 C 565.01425,569.55115 573.14275,574.43554 577.65858,585.47852 C 579.46488,591.21241 581.27126,599.28228 582.17441,609.90055 C 582.62598,618.39521 583.07756,626.67743 583.52913,634.95973"
       class="ps038"
       id="path2054"
       style="font-size:7.5px;letter-spacing:0px;word-spacing:0.20999999;fill:#47b23d;fill-rule:nonzero;stroke:none;stroke-width:0.30000001;stroke-linecap:butt;stroke-linejoin:miter;stroke-miterlimit:10;stroke-dasharray:none;font-family:fnt0" />
  </g>
</svg>
