<?xml version="1.0" encoding="iso-8859-1"?>
<!-- Generator: Adobe Illustrator 15.0.0, SVG Export Plug-In . SVG Version: 6.00 Build 0)  -->
<!DOCTYPE svg PUBLIC "-//W3C//DTD SVG 1.1//EN" "http://www.w3.org/Graphics/SVG/1.1/DTD/svg11.dtd" [
	<!ENTITY ns_flows "http://ns.adobe.com/Flows/1.0/">
	<!ENTITY ns_extend "http://ns.adobe.com/Extensibility/1.0/">
	<!ENTITY ns_ai "http://ns.adobe.com/AdobeIllustrator/10.0/">
	<!ENTITY ns_graphs "http://ns.adobe.com/Graphs/1.0/">
]>
<svg version="1.1" id="Calque_1" xmlns:x="&ns_extend;" xmlns:i="&ns_ai;" xmlns:graph="&ns_graphs;"
	 xmlns="http://www.w3.org/2000/svg" xmlns:xlink="http://www.w3.org/1999/xlink" xmlns:a="http://ns.adobe.com/AdobeSVGViewerExtensions/3.0/"
	 x="0px" y="0px" width="230px" height="121.5px" viewBox="0 0 230 121.5" style="enable-background:new 0 0 230 121.5;"
	 xml:space="preserve">
<style type="text/css">
<![CDATA[
	.st0{opacity:0.27;fill:url(#SVGID_5_);}
	.st1{fill:#4D454A;}
	.st2{opacity:0.04;fill:url(#SVGID_8_);adobe-blending-mode:lighten;}
	.st3{opacity:0.15;fill:url(#SVGID_3_);}
	.st4{fill:url(#SVGID_1_);}
	.st5{fill:url(#SVGID_4_);}
	.st6{fill:#FFFFFF;}
	.st7{opacity:0.39;fill:url(#SVGID_6_);}
	.st8{opacity:0.04;fill:url(#SVGID_7_);adobe-blending-mode:lighten;}
	.st9{fill:#034EA2;}
	.st10{opacity:0.22;fill:url(#SVGID_2_);}
]]>
</style>
<g>
	<g>
		
			<radialGradient id="SVGID_1_" cx="807.8828" cy="-11.3091" r="89.3638" gradientTransform="matrix(-0.9982 0.0605 -0.0605 -0.9982 883.6388 -41.5545)" gradientUnits="userSpaceOnUse">
			<stop  offset="0.1278" style="stop-color:#7BAFDE"/>
			<stop  offset="0.1869" style="stop-color:#74A7D9"/>
			<stop  offset="0.2886" style="stop-color:#6292CC"/>
			<stop  offset="0.4207" style="stop-color:#4474BA"/>
			<stop  offset="0.5766" style="stop-color:#0D52A4"/>
			<stop  offset="0.5955" style="stop-color:#034EA2"/>
			<stop  offset="0.8371" style="stop-color:#034EA2"/>
			<a:midPointStop  offset="0.1278" style="stop-color:#7BAFDE"/>
			<a:midPointStop  offset="0.5875" style="stop-color:#7BAFDE"/>
			<a:midPointStop  offset="0.5955" style="stop-color:#034EA2"/>
			<a:midPointStop  offset="0.3846" style="stop-color:#034EA2"/>
			<a:midPointStop  offset="0.8371" style="stop-color:#034EA2"/>
		</radialGradient>
		<path class="st4" d="M74.93,114.023c-19.127-8.478-32.964-27.068-34.319-49.386C38.67,32.766,62.95,5.349,94.83,3.415
			c31.872-1.935,59.274,22.344,61.208,54.227c1.939,31.872-22.336,59.277-54.214,61.21C92.266,119.43,83.118,117.655,74.93,114.023"
			/>
		
			<radialGradient id="SVGID_2_" cx="810.0967" cy="-95.2505" r="31.5504" gradientTransform="matrix(-1 0 0 -1 882.3281 -29.3047)" gradientUnits="userSpaceOnUse">
			<stop  offset="0.6629" style="stop-color:#034EA2"/>
			<stop  offset="0.7472" style="stop-color:#426AB3"/>
			<stop  offset="0.7978" style="stop-color:#5087C7"/>
			<stop  offset="0.8118" style="stop-color:#6599D2"/>
			<stop  offset="0.8268" style="stop-color:#75A9DB"/>
			<stop  offset="0.8371" style="stop-color:#7BAFDE"/>
			<stop  offset="0.8989" style="stop-color:#FFFFFF"/>
			<a:midPointStop  offset="0.6629" style="stop-color:#034EA2"/>
			<a:midPointStop  offset="0.5" style="stop-color:#034EA2"/>
			<a:midPointStop  offset="0.7472" style="stop-color:#426AB3"/>
			<a:midPointStop  offset="0.5" style="stop-color:#426AB3"/>
			<a:midPointStop  offset="0.7978" style="stop-color:#5087C7"/>
			<a:midPointStop  offset="0.375" style="stop-color:#5087C7"/>
			<a:midPointStop  offset="0.8371" style="stop-color:#7BAFDE"/>
			<a:midPointStop  offset="0.5" style="stop-color:#7BAFDE"/>
			<a:midPointStop  offset="0.8989" style="stop-color:#FFFFFF"/>
		</radialGradient>
		<path class="st10" d="M50.668,87.682c0,0-8.838-13.244-6.454-31.922c0.176,0,4.751,3.054,8.824,3.226
			C53.214,58.813,49.816,70.699,50.668,87.682z"/>
		
			<radialGradient id="SVGID_3_" cx="813.3926" cy="-80.9888" r="37.0001" gradientTransform="matrix(-1 0 0 -1 882.3281 -29.3047)" gradientUnits="userSpaceOnUse">
			<stop  offset="0.4382" style="stop-color:#7BAFDE"/>
			<stop  offset="0.4442" style="stop-color:#8EB9E3"/>
			<stop  offset="0.456" style="stop-color:#AFCBEA"/>
			<stop  offset="0.4688" style="stop-color:#CADBF1"/>
			<stop  offset="0.4826" style="stop-color:#DFE9F6"/>
			<stop  offset="0.4981" style="stop-color:#EFF3FB"/>
			<stop  offset="0.5164" style="stop-color:#F9FBFE"/>
			<stop  offset="0.5449" style="stop-color:#FDFEFF"/>
			<a:midPointStop  offset="0.4382" style="stop-color:#7BAFDE"/>
			<a:midPointStop  offset="0.2105" style="stop-color:#7BAFDE"/>
			<a:midPointStop  offset="0.5449" style="stop-color:#FDFEFF"/>
		</radialGradient>
		<path class="st3" d="M51.66,55.436l0.781-2.721c0,0-3.882-10.389-2.724-17.67c0-0.095-3.584,7.281-3.879,9.324
			C45.938,44.369,48.46,51.454,51.66,55.436z"/>
		
			<radialGradient id="SVGID_4_" cx="794.3926" cy="-90.7412" r="109.7207" gradientTransform="matrix(-1 0 0 -1 882.3281 -29.3047)" gradientUnits="userSpaceOnUse">
			<stop  offset="0.5225" style="stop-color:#345B88"/>
			<stop  offset="0.594" style="stop-color:#406DA0"/>
			<stop  offset="0.6966" style="stop-color:#5087C7"/>
			<a:midPointStop  offset="0.5225" style="stop-color:#345B88"/>
			<a:midPointStop  offset="0.5238" style="stop-color:#345B88"/>
			<a:midPointStop  offset="0.6966" style="stop-color:#5087C7"/>
		</radialGradient>
		<path class="st5" d="M156.037,57.642c-0.779-12.843-5.695-24.447-13.366-33.606c5.187,10.225,16.429,39.084,0.33,73.792
			C151.94,86.949,156.96,72.805,156.037,57.642z"/>
		
			<radialGradient id="SVGID_5_" cx="745.8193" cy="-78.4385" r="38.4246" gradientTransform="matrix(-1 0 0 -1 882.3281 -29.3047)" gradientUnits="userSpaceOnUse">
			<stop  offset="0.2056" style="stop-color:#034EA2"/>
			<stop  offset="0.226" style="stop-color:#1151A4"/>
			<stop  offset="0.2548" style="stop-color:#2C59A8"/>
			<stop  offset="0.2884" style="stop-color:#4A67B1"/>
			<stop  offset="0.3257" style="stop-color:#6C7DBD"/>
			<stop  offset="0.3661" style="stop-color:#97A0D1"/>
			<stop  offset="0.4084" style="stop-color:#D1D5EC"/>
			<stop  offset="0.4326" style="stop-color:#FFFFFF"/>
			<a:midPointStop  offset="0.2056" style="stop-color:#034EA2"/>
			<a:midPointStop  offset="0.6346" style="stop-color:#034EA2"/>
			<a:midPointStop  offset="0.4326" style="stop-color:#FFFFFF"/>
		</radialGradient>
		<path class="st0" d="M151.627,43.038c0,0-2.021,6.782-6.438,12.7c0,0-0.465-2.439-0.639-2.9c0-0.058,4.338-8.115,2.246-21.037
			C146.86,31.746,150.063,37.473,151.627,43.038z"/>
		
			<radialGradient id="SVGID_6_" cx="744.2119" cy="-94.5742" r="46.241" gradientTransform="matrix(-1 0 0 -1 882.3281 -29.3047)" gradientUnits="userSpaceOnUse">
			<stop  offset="0.2135" style="stop-color:#034EA2"/>
			<stop  offset="0.2408" style="stop-color:#1151A4"/>
			<stop  offset="0.2792" style="stop-color:#2C59A8"/>
			<stop  offset="0.3241" style="stop-color:#4A67B1"/>
			<stop  offset="0.3739" style="stop-color:#6C7DBD"/>
			<stop  offset="0.4279" style="stop-color:#97A0D1"/>
			<stop  offset="0.4843" style="stop-color:#D1D5EC"/>
			<stop  offset="0.5167" style="stop-color:#FFFFFF"/>
			<a:midPointStop  offset="0.2135" style="stop-color:#034EA2"/>
			<a:midPointStop  offset="0.6346" style="stop-color:#034EA2"/>
			<a:midPointStop  offset="0.5167" style="stop-color:#FFFFFF"/>
		</radialGradient>
		<path class="st7" d="M146.727,89.157c0,0,2.608-2.268,5.215-10.761c-0.23-0.113-2.266-7.011-6.564-12.787
			C145.146,65.489,149.113,79.759,146.727,89.157z"/>
		
			<radialGradient id="SVGID_7_" cx="1016.1514" cy="-87.8315" r="249.0167" gradientTransform="matrix(-1 0 0 -1 882.3281 -29.3047)" gradientUnits="userSpaceOnUse">
			<stop  offset="0.6685" style="stop-color:#034EA2"/>
			<stop  offset="0.7154" style="stop-color:#1E5CAB"/>
			<stop  offset="0.82" style="stop-color:#437ABE"/>
			<stop  offset="0.8708" style="stop-color:#5087C7"/>
			<stop  offset="0.8858" style="stop-color:#568AC8"/>
			<stop  offset="0.9061" style="stop-color:#6693CD"/>
			<stop  offset="0.9294" style="stop-color:#80A2D5"/>
			<stop  offset="0.955" style="stop-color:#A4BAE1"/>
			<stop  offset="0.9821" style="stop-color:#D5DEF1"/>
			<stop  offset="1" style="stop-color:#FFFFFF"/>
			<a:midPointStop  offset="0.6685" style="stop-color:#034EA2"/>
			<a:midPointStop  offset="0.4563" style="stop-color:#034EA2"/>
			<a:midPointStop  offset="0.8708" style="stop-color:#5087C7"/>
			<a:midPointStop  offset="0.6429" style="stop-color:#5087C7"/>
			<a:midPointStop  offset="1" style="stop-color:#FFFFFF"/>
		</radialGradient>
		<path class="st8" d="M139.869,97.553c0,0,15.382-13.473,14.451-39.414c-0.98-27.197-18.992-39.869-21.302-41.25
			c-14.05-8.42-37.047-18.898-42.576,1.163C90.442,17.83,169.709,37.486,139.869,97.553z"/>
		
			<radialGradient id="SVGID_8_" cx="1016.1514" cy="-87.8315" r="249.0167" gradientTransform="matrix(-1 0 0 -1 882.3281 -29.3047)" gradientUnits="userSpaceOnUse">
			<stop  offset="0.6685" style="stop-color:#034EA2"/>
			<stop  offset="0.7154" style="stop-color:#1E5CAB"/>
			<stop  offset="0.82" style="stop-color:#437ABE"/>
			<stop  offset="0.8708" style="stop-color:#5087C7"/>
			<stop  offset="0.8858" style="stop-color:#568AC8"/>
			<stop  offset="0.9061" style="stop-color:#6693CD"/>
			<stop  offset="0.9294" style="stop-color:#80A2D5"/>
			<stop  offset="0.955" style="stop-color:#A4BAE1"/>
			<stop  offset="0.9821" style="stop-color:#D5DEF1"/>
			<stop  offset="1" style="stop-color:#FFFFFF"/>
			<a:midPointStop  offset="0.6685" style="stop-color:#034EA2"/>
			<a:midPointStop  offset="0.4563" style="stop-color:#034EA2"/>
			<a:midPointStop  offset="0.8708" style="stop-color:#5087C7"/>
			<a:midPointStop  offset="0.6429" style="stop-color:#5087C7"/>
			<a:midPointStop  offset="1" style="stop-color:#FFFFFF"/>
		</radialGradient>
		<path class="st2" d="M139.869,97.553c0,0,15.382-13.473,14.451-39.414c-0.98-27.197-18.992-39.869-21.302-41.25
			c-14.05-8.42-37.047-18.898-42.576,1.163C90.442,17.83,169.709,37.486,139.869,97.553z"/>
	</g>
	<g>
		<rect x="3.078" y="30.521" class="st1" width="190.486" height="40.819"/>
		<g>
			<path class="st6" d="M22.195,53.79h-3.701v7.557h-5.915V38.589h9.404c2.427,0,4.307,0.646,5.671,1.917
				c1.49,1.392,2.218,3.271,2.218,5.646C29.872,51.239,27.325,53.79,22.195,53.79z M20.465,43.354h-1.971v5.671h1.942
				c2.154,0,3.246-0.937,3.246-2.816C23.683,44.291,22.623,43.354,20.465,43.354z"/>
			<path class="st6" d="M32.395,61.347V38.589h5.92V56.34h7.101v5.007H32.395z"/>
			<path class="st6" d="M63.941,61.347l-1.487-3.943h-8.161l-1.543,3.943H46.5l8.736-22.758h6.434l8.581,22.758H63.941z
				 M58.423,45.626l-2.484,7.258h4.909L58.423,45.626z"/>
			<path class="st6" d="M88.41,61.347l-10.862-13.93v13.93h-5.911V38.589h5.911L88.41,52.518V38.589h5.918v22.758H88.41z"/>
			<path class="st6" d="M98.499,61.347V38.589h1.965l-0.364-0.937h9.008l0.337,0.937h1.975v5.012h-7.015v3.791h6.651v4.999h-6.651
				v3.949h7.015v5.007H98.499z"/>
			<path class="st6" d="M123.939,43.601v17.746h-5.914V43.601h-4.794v-5.012h15.625v5.012H123.939z"/>
			<path class="st6" d="M130.834,61.347V38.589h12.926v5.012h-7.008v3.791h6.641v4.999h-6.641v3.949h7.008v5.007H130.834z"/>
		</g>
	</g>
	<path class="st6" d="M176.783,53.231v8.191c0,0.308-0.06,0.43-0.305,0.43h-6.244c-0.21,0-0.337-0.154-0.337-0.369v-8.191
		c0-0.335-0.119-0.456-0.394-0.456h-8.1c-0.244,0-0.366-0.152-0.366-0.427v-6.211c0-0.243,0.092-0.363,0.338-0.363h8.161
		c0.241,0,0.36-0.12,0.36-0.396v-7.034c0-0.184,0.127-0.306,0.306-0.306h6.216c0.244,0,0.364,0.092,0.364,0.306v7.034
		c0,0.331,0.063,0.396,0.336,0.396h8.165c0.241,0,0.332,0.12,0.332,0.395v6.242c0,0.212-0.12,0.364-0.332,0.364h-8.074
		C176.877,52.836,176.783,52.899,176.783,53.231z"/>
</g>
<rect x="71.108" y="64.537" class="st9" width="156.472" height="34.016"/>
<g>
	<g>
		<path class="st6" d="M91.938,69.455H77.694v3.941c0,0,4.773,0,4.954,0c0,0.181,0,18.455,0,18.455h4.432c0,0,0-18.274,0-18.455
			c0.177,0,4.95,0,4.95,0v-3.941H91.938z"/>
		<path class="st6" d="M111.058,69.455h-4.338c0,0,0,8.674,0,8.857c-0.176,0-5.631,0-5.811,0c0-0.184,0-8.857,0-8.857h-4.43v22.396
			h4.43c0,0,0-9.416,0-9.6c0.18,0,5.635,0,5.811,0c0,0.184,0,9.6,0,9.6h4.43V69.455H111.058z"/>
		<path class="st6" d="M126.566,69.455h-0.072h-5.514l-5.557,22.396h4.284c0,0,1.166-4.541,1.199-4.678c0.143,0,5.586,0,5.727,0
			c0.035,0.143,1.078,4.678,1.078,4.678h4.252L126.566,69.455z M125.699,83.234c-0.215,0-3.76,0-3.975,0
			c0.045-0.215,1.889-8.123,2-8.604C123.836,75.116,125.65,83.02,125.699,83.234z"/>
		<path class="st6" d="M140.191,87.908c0-0.182,0-18.453,0-18.453h-0.096h-4.338v22.396h11.258v-3.943
			C147.016,87.908,140.369,87.908,140.191,87.908z"/>
		<path class="st6" d="M160.791,69.455h-0.074h-5.52l-5.551,22.396h4.285c0,0,1.164-4.541,1.197-4.678c0.143,0,5.588,0,5.727,0
			c0.035,0.143,1.08,4.678,1.08,4.678h4.256L160.791,69.455z M159.924,83.234c-0.215,0-3.766,0-3.98,0
			c0.055-0.215,1.891-8.123,2.006-8.604C158.059,75.116,159.873,83.02,159.924,83.234z"/>
		<path class="st6" d="M177.291,78.33c-1.834-0.982-3.42-1.835-3.42-3.154c0-1.481,0.816-2.333,2.244-2.333
			c1.424,0,2.326,0.874,3.018,2.917l0.029,0.086l3.984-1.159l-0.021-0.083c-0.818-3.467-3.338-5.457-6.916-5.457
			c-4.305,0-6.773,2.302-6.773,6.307c0,3.469,2.918,5.058,5.486,6.459c2.143,1.162,3.99,2.17,3.99,4.002
			c0,1.525-1.012,2.549-2.52,2.549c-1.234,0-2.721-0.934-3.203-3.551l-0.014-0.096l-4.373,0.934l0.025,0.096
			c1.074,4.127,3.617,6.311,7.348,6.311c4.418,0,7.164-2.461,7.164-6.428C183.34,81.572,179.984,79.77,177.291,78.33z"/>
		<path class="st6" d="M195.711,78.33c-1.836-0.982-3.422-1.835-3.422-3.154c0-1.481,0.818-2.333,2.244-2.333
			c1.424,0,2.324,0.874,3.018,2.917l0.029,0.086l3.984-1.159l-0.023-0.083c-0.813-3.467-3.334-5.457-6.916-5.457
			c-4.301,0-6.773,2.302-6.773,6.307c0,3.469,2.92,5.058,5.49,6.459c2.139,1.162,3.986,2.17,3.986,4.002
			c0,1.525-1.012,2.549-2.518,2.549c-1.23,0-2.719-0.934-3.199-3.551l-0.02-0.096l-4.371,0.934l0.021,0.096
			c1.08,4.127,3.621,6.311,7.352,6.311c4.422,0,7.166-2.461,7.166-6.428C201.76,81.572,198.404,79.77,195.711,78.33z"/>
		<path class="st6" d="M215.488,69.455h-0.072H209.9l-5.553,22.396h4.283c0,0,1.164-4.541,1.199-4.678c0.141,0,5.584,0,5.727,0
			c0.035,0.143,1.08,4.678,1.08,4.678h4.25L215.488,69.455z M214.623,83.234c-0.215,0-3.762,0-3.979,0
			c0.049-0.215,1.893-8.123,2.002-8.604C212.76,75.111,214.576,83.02,214.623,83.234z"/>
	</g>
</g>
</svg>
