<?xml version="1.0" encoding="UTF-8" ?>
<!DOCTYPE svg PUBLIC "-//W3C//DTD SVG 1.1//EN" "http://www.w3.org/Graphics/SVG/1.1/DTD/svg11.dtd">
<svg width="303pt" height="303pt" viewBox="0 0 303 303" version="1.1" xmlns="http://www.w3.org/2000/svg">
<g id="#01a8ddff">
<path fill="#01a8dd" opacity="1.00" d=" M 0.00 0.00 L 303.00 0.00 L 303.00 303.00 L 0.00 303.00 L 0.00 0.00 M 42.10 58.24 C 41.92 74.56 41.93 90.88 42.10 107.20 C 44.85 107.10 47.60 107.13 50.35 107.24 C 50.64 100.59 50.45 93.93 50.47 87.27 C 55.03 86.96 59.95 87.43 64.08 85.10 C 66.58 83.17 68.79 80.41 68.91 77.11 C 69.39 71.46 69.76 64.20 64.43 60.61 C 57.60 56.87 49.52 58.69 42.10 58.24 M 76.05 58.27 C 75.97 74.59 75.95 90.91 76.06 107.23 C 83.26 107.05 90.46 107.09 97.66 107.20 C 97.75 104.63 97.73 102.05 97.65 99.48 C 93.27 99.52 88.88 99.52 84.50 99.50 C 84.50 85.78 84.47 72.06 84.52 58.33 C 81.69 58.27 78.87 58.27 76.05 58.27 M 111.74 58.25 C 108.94 74.58 105.31 90.79 102.98 107.19 C 105.70 107.22 108.43 107.15 111.14 106.91 C 111.56 103.34 112.02 99.76 112.44 96.19 C 115.46 96.09 118.47 96.10 121.49 96.11 C 122.01 99.83 122.31 103.60 123.33 107.24 C 125.88 107.13 128.44 107.14 131.00 107.21 C 128.77 90.83 124.98 74.68 122.37 58.36 C 118.82 58.25 115.28 58.23 111.74 58.25 M 139.28 58.27 C 139.25 74.54 139.25 90.81 139.27 107.07 C 141.81 107.14 144.36 107.15 146.90 107.25 C 147.25 97.00 146.67 86.74 147.29 76.50 C 150.10 86.92 154.23 96.93 157.65 107.16 C 160.06 107.14 162.47 107.15 164.89 107.18 C 165.08 90.87 165.04 74.56 164.92 58.26 C 162.38 58.26 159.84 58.27 157.31 58.28 C 157.11 67.16 157.46 76.05 157.10 84.93 C 153.70 76.13 150.42 67.27 147.33 58.35 C 144.65 58.27 141.96 58.26 139.28 58.27 M 176.21 58.27 C 176.25 74.53 176.24 90.80 176.21 107.06 C 184.07 107.16 191.92 107.16 199.77 107.06 C 199.76 104.56 199.77 102.06 199.80 99.56 C 194.90 99.52 189.99 99.48 185.08 99.55 C 184.97 94.85 184.94 90.13 185.10 85.43 C 188.63 85.48 192.16 85.47 195.69 85.50 C 195.73 83.02 195.74 80.55 195.73 78.08 C 192.10 78.00 188.47 77.96 184.84 77.93 C 185.11 73.87 185.09 69.79 184.82 65.73 C 189.50 65.73 194.18 65.72 198.86 65.76 C 198.93 63.26 199.01 60.76 199.11 58.27 C 191.47 58.24 183.84 58.27 176.21 58.27 M 206.26 58.34 C 206.25 60.80 206.26 63.25 206.30 65.70 C 209.03 65.75 211.76 65.74 214.49 65.72 C 214.61 79.55 214.45 93.38 214.58 107.21 C 217.35 107.15 220.13 107.14 222.90 107.19 C 223.27 93.33 222.63 79.45 223.23 65.60 C 225.76 65.71 228.31 65.75 230.85 65.78 C 230.93 63.28 231.02 60.77 231.12 58.27 C 222.84 58.28 214.55 58.16 206.26 58.34 M 239.34 58.27 C 239.24 74.57 239.06 90.89 239.44 107.19 C 247.19 107.05 254.95 107.15 262.70 107.15 C 262.71 104.60 262.70 102.05 262.66 99.51 C 257.71 99.53 252.75 99.51 247.80 99.50 C 247.76 94.81 247.70 90.11 247.87 85.43 C 251.40 85.48 254.92 85.49 258.45 85.49 C 258.48 83.05 258.51 80.61 258.54 78.17 C 254.97 77.99 251.40 77.97 247.82 78.00 C 247.74 73.92 247.73 69.84 247.79 65.76 C 252.41 65.78 257.04 65.78 261.66 65.72 C 261.72 63.24 261.74 60.76 261.74 58.28 C 254.27 58.23 246.81 58.25 239.34 58.27 M 148.16 121.19 C 134.79 122.43 123.24 133.52 121.37 146.79 C 119.33 158.65 125.18 171.39 135.59 177.47 C 146.52 184.48 161.90 183.17 171.54 174.49 C 179.25 167.92 183.18 157.28 181.69 147.27 C 180.56 138.63 175.40 130.68 168.17 125.87 C 162.26 122.17 155.11 120.35 148.16 121.19 M 41.89 134.48 C 41.78 136.51 41.82 138.54 41.79 140.58 C 67.14 140.96 92.50 140.62 117.86 140.75 C 118.68 138.41 119.61 136.12 120.67 133.88 C 95.78 133.92 70.88 133.97 45.99 133.85 C 44.64 134.03 42.95 133.37 41.89 134.48 M 182.90 133.87 C 183.74 136.20 184.69 138.50 185.61 140.81 C 211.15 140.55 236.69 141.00 262.21 140.57 C 262.18 138.56 262.22 136.54 262.11 134.53 C 261.11 133.29 259.34 134.07 258.00 133.85 C 232.97 133.97 207.93 133.93 182.90 133.87 M 41.82 148.33 C 41.84 150.52 41.84 152.71 41.81 154.90 C 66.65 155.09 91.50 155.02 116.34 154.93 C 116.19 152.73 116.13 150.52 116.15 148.32 C 91.37 148.22 66.59 148.19 41.82 148.33 M 187.20 148.27 C 187.19 150.50 187.17 152.74 187.15 154.98 C 212.16 154.96 237.18 155.12 262.19 154.90 C 262.16 152.70 262.15 150.50 262.17 148.30 C 237.18 148.19 212.19 148.28 187.20 148.27 M 41.92 162.52 C 41.89 164.80 41.83 167.07 41.76 169.35 C 68.21 169.62 94.68 169.39 121.14 169.46 C 119.98 167.21 118.94 164.90 118.06 162.52 C 92.68 162.52 67.30 162.53 41.92 162.52 M 182.18 169.41 C 208.84 169.53 235.50 169.45 262.17 169.45 C 262.14 167.14 262.11 164.83 262.10 162.52 C 236.59 162.54 211.08 162.50 185.56 162.54 C 184.50 164.86 183.40 167.16 182.18 169.41 M 51.16 188.19 C 44.71 190.35 42.46 197.79 42.30 203.94 C 42.17 218.20 42.32 232.46 42.24 246.73 C 44.66 246.72 47.09 246.69 49.51 246.62 C 49.42 236.42 49.50 226.23 49.45 216.04 C 53.64 215.99 57.83 216.00 62.03 215.99 C 62.00 213.75 61.97 211.51 61.95 209.27 C 57.80 209.30 53.64 209.30 49.49 209.27 C 49.57 205.88 49.25 202.39 50.18 199.08 C 52.13 191.84 64.11 191.57 66.91 198.29 C 68.75 196.84 70.63 195.44 72.48 194.00 C 68.57 186.43 58.39 185.68 51.16 188.19 M 123.53 193.88 C 123.51 197.87 123.49 201.86 123.54 205.86 C 122.33 205.93 121.13 205.99 119.93 206.07 C 119.92 208.20 119.92 210.33 119.93 212.46 C 121.12 212.48 122.31 212.49 123.51 212.51 C 123.56 220.33 123.41 228.14 123.57 235.96 C 123.55 239.24 124.87 242.51 127.37 244.68 C 131.14 247.71 136.41 247.66 140.93 246.72 C 140.95 244.32 140.95 241.93 140.94 239.54 C 138.20 239.92 135.11 240.98 132.55 239.44 C 130.63 238.37 130.91 235.86 130.74 234.00 C 130.72 226.84 130.83 219.68 130.69 212.52 C 134.15 212.49 137.62 212.49 141.09 212.48 C 141.11 210.34 141.14 208.21 141.20 206.09 C 137.68 206.02 134.17 205.99 130.66 205.92 C 130.75 201.87 130.79 197.82 130.60 193.78 C 128.24 193.86 125.89 193.88 123.53 193.88 M 215.44 205.38 C 212.93 206.20 211.33 208.44 209.72 210.39 C 209.69 209.26 209.64 207.01 209.61 205.89 C 207.23 205.97 204.86 206.04 202.48 206.11 C 202.57 219.64 202.51 233.18 202.51 246.71 C 204.92 246.72 207.33 246.70 209.75 246.66 C 209.76 239.44 209.74 232.22 209.80 225.00 C 210.00 220.74 210.23 215.84 213.52 212.69 C 216.16 210.57 219.53 211.70 222.26 212.94 C 223.33 210.66 225.00 208.42 224.67 205.77 C 221.64 205.33 218.43 204.22 215.44 205.38 M 73.73 206.11 C 74.22 215.41 73.54 224.74 74.09 234.04 C 74.34 239.81 78.18 245.65 83.95 247.10 C 89.97 248.80 97.17 248.24 101.97 243.86 C 105.56 240.21 106.15 234.86 106.45 230.00 C 106.57 222.05 106.43 214.10 106.52 206.15 C 104.12 206.06 101.73 205.99 99.33 205.93 C 99.13 214.29 99.38 222.65 99.20 231.01 C 98.93 234.12 98.62 237.90 95.84 239.88 C 92.78 241.67 88.86 241.66 85.57 240.52 C 82.23 239.24 81.41 235.26 81.07 232.09 C 80.84 223.42 81.16 214.74 80.91 206.07 C 78.52 206.00 76.12 206.01 73.73 206.11 M 154.48 206.05 C 155.05 216.76 153.36 227.70 155.77 238.24 C 158.27 247.45 169.86 249.72 177.84 246.89 C 183.25 245.05 186.61 239.64 186.90 234.08 C 187.46 224.79 186.88 215.46 187.21 206.16 C 184.85 206.05 182.48 205.96 180.12 205.89 C 179.81 214.62 180.15 223.37 179.95 232.11 C 179.65 235.42 178.60 239.74 174.92 240.73 C 171.33 241.64 166.79 241.77 164.04 238.88 C 162.05 236.40 161.88 233.06 161.78 230.02 C 161.73 222.06 161.82 214.09 161.74 206.13 C 159.32 206.05 156.90 206.03 154.48 206.05 M 234.42 210.43 C 230.33 214.87 229.51 221.25 229.32 227.04 C 229.31 232.22 229.54 237.94 232.93 242.16 C 237.68 248.00 246.29 248.96 253.19 247.18 C 257.05 246.26 259.76 243.19 261.72 239.92 C 259.61 238.70 257.48 237.52 255.35 236.35 C 253.35 242.17 245.69 242.25 241.01 239.92 C 237.21 237.73 236.17 233.16 236.36 229.08 C 245.21 228.92 254.06 229.00 262.91 229.09 C 263.15 223.49 263.82 217.34 260.65 212.37 C 258.26 207.85 252.85 206.02 248.02 205.96 C 243.23 205.94 237.86 206.77 234.42 210.43 Z" />
<path fill="#01a8dd" opacity="1.00" d=" M 50.49 65.46 C 53.47 65.78 57.52 64.46 59.50 67.41 C 61.81 71.00 60.89 75.67 59.09 79.28 C 56.28 80.01 53.38 80.11 50.50 80.08 C 50.49 75.20 50.48 70.33 50.49 65.46 Z" />
<path fill="#01a8dd" opacity="1.00" d=" M 113.66 88.71 C 114.96 82.28 115.65 75.75 117.02 69.33 C 118.22 75.84 119.34 82.38 120.16 88.95 C 117.99 88.89 115.83 88.81 113.66 88.71 Z" />
<path fill="#01a8dd" opacity="1.00" d=" M 148.11 128.08 C 161.30 125.77 174.61 136.66 175.09 149.99 C 176.24 162.54 165.66 174.65 153.05 175.05 C 140.80 176.23 128.92 166.22 127.97 153.96 C 126.42 141.74 135.94 129.63 148.11 128.08 Z" />
<path fill="#01a8dd" opacity="1.00" d=" M 242.12 213.28 C 245.86 211.54 250.42 211.85 253.80 214.26 C 256.13 216.51 256.16 219.97 256.33 222.99 C 249.66 223.00 242.98 223.05 236.31 222.93 C 236.97 219.24 238.10 214.62 242.12 213.28 Z" />
</g>
<g id="#fdfefdff">
<path fill="#fdfefd" opacity="1.00" d=" M 42.10 58.24 C 49.52 58.69 57.60 56.87 64.43 60.61 C 69.76 64.20 69.39 71.46 68.91 77.11 C 68.79 80.41 66.58 83.17 64.08 85.10 C 59.95 87.43 55.03 86.96 50.47 87.27 C 50.45 93.93 50.64 100.59 50.35 107.24 C 47.60 107.13 44.85 107.10 42.10 107.20 C 41.93 90.88 41.92 74.56 42.10 58.24 M 50.49 65.46 C 50.48 70.33 50.49 75.20 50.50 80.08 C 53.38 80.11 56.28 80.01 59.09 79.28 C 60.89 75.67 61.81 71.00 59.50 67.41 C 57.52 64.46 53.47 65.78 50.49 65.46 Z" />
<path fill="#fdfefd" opacity="1.00" d=" M 76.05 58.27 C 78.87 58.27 81.69 58.27 84.52 58.33 C 84.47 72.06 84.50 85.78 84.50 99.50 C 88.88 99.52 93.27 99.52 97.65 99.48 C 97.73 102.05 97.75 104.63 97.66 107.20 C 90.46 107.09 83.26 107.05 76.06 107.23 C 75.95 90.91 75.97 74.59 76.05 58.27 Z" />
<path fill="#fdfefd" opacity="1.00" d=" M 111.74 58.25 C 115.28 58.23 118.82 58.25 122.37 58.36 C 124.98 74.68 128.77 90.83 131.00 107.21 C 128.44 107.14 125.88 107.13 123.33 107.24 C 122.31 103.60 122.01 99.83 121.49 96.11 C 118.47 96.10 115.46 96.09 112.44 96.19 C 112.02 99.76 111.56 103.34 111.14 106.91 C 108.43 107.15 105.70 107.22 102.98 107.19 C 105.31 90.79 108.94 74.58 111.74 58.25 M 113.66 88.71 C 115.83 88.81 117.99 88.89 120.16 88.95 C 119.34 82.38 118.22 75.84 117.02 69.33 C 115.65 75.75 114.96 82.28 113.66 88.71 Z" />
<path fill="#fdfefd" opacity="1.00" d=" M 139.28 58.27 C 141.96 58.26 144.65 58.27 147.33 58.35 C 150.42 67.27 153.70 76.13 157.10 84.93 C 157.46 76.05 157.11 67.16 157.31 58.28 C 159.84 58.27 162.38 58.26 164.92 58.26 C 165.04 74.56 165.08 90.87 164.89 107.18 C 162.47 107.15 160.06 107.14 157.65 107.16 C 154.23 96.93 150.10 86.92 147.29 76.50 C 146.67 86.74 147.25 97.00 146.90 107.25 C 144.36 107.15 141.81 107.14 139.27 107.07 C 139.25 90.81 139.25 74.54 139.28 58.27 Z" />
<path fill="#fdfefd" opacity="1.00" d=" M 176.21 58.27 C 183.84 58.27 191.47 58.24 199.11 58.27 C 199.01 60.76 198.93 63.26 198.86 65.76 C 194.18 65.72 189.50 65.73 184.82 65.73 C 185.09 69.79 185.11 73.87 184.84 77.93 C 188.47 77.96 192.10 78.00 195.73 78.08 C 195.74 80.55 195.73 83.02 195.69 85.50 C 192.16 85.47 188.63 85.48 185.10 85.43 C 184.94 90.13 184.97 94.85 185.08 99.55 C 189.99 99.48 194.90 99.52 199.80 99.56 C 199.77 102.06 199.76 104.56 199.77 107.06 C 191.92 107.16 184.07 107.16 176.21 107.06 C 176.24 90.80 176.25 74.53 176.21 58.27 Z" />
<path fill="#fdfefd" opacity="1.00" d=" M 206.26 58.34 C 214.55 58.16 222.84 58.28 231.12 58.27 C 231.02 60.77 230.93 63.28 230.85 65.78 C 228.31 65.75 225.76 65.71 223.23 65.60 C 222.63 79.45 223.27 93.33 222.90 107.19 C 220.13 107.14 217.35 107.15 214.58 107.21 C 214.45 93.38 214.61 79.55 214.49 65.72 C 211.76 65.74 209.03 65.75 206.30 65.70 C 206.26 63.25 206.25 60.80 206.26 58.34 Z" />
<path fill="#fdfefd" opacity="1.00" d=" M 239.34 58.27 C 246.81 58.25 254.27 58.23 261.74 58.28 C 261.74 60.76 261.72 63.24 261.66 65.72 C 257.04 65.78 252.41 65.78 247.79 65.76 C 247.73 69.84 247.74 73.92 247.82 78.00 C 251.40 77.97 254.97 77.99 258.54 78.17 C 258.51 80.61 258.48 83.05 258.45 85.49 C 254.92 85.49 251.40 85.48 247.87 85.43 C 247.70 90.11 247.76 94.81 247.80 99.50 C 252.75 99.51 257.71 99.53 262.66 99.51 C 262.70 102.05 262.71 104.60 262.70 107.15 C 254.95 107.15 247.19 107.05 239.44 107.19 C 239.06 90.89 239.24 74.57 239.34 58.27 Z" />
<path fill="#fdfefd" opacity="1.00" d=" M 148.16 121.19 C 155.11 120.35 162.26 122.17 168.17 125.87 C 175.40 130.68 180.56 138.63 181.69 147.27 C 183.18 157.28 179.25 167.92 171.54 174.49 C 161.90 183.17 146.52 184.48 135.59 177.47 C 125.18 171.39 119.33 158.65 121.37 146.79 C 123.24 133.52 134.79 122.43 148.16 121.19 M 148.11 128.08 C 135.94 129.63 126.42 141.74 127.97 153.96 C 128.92 166.22 140.80 176.23 153.05 175.05 C 165.66 174.65 176.24 162.54 175.09 149.99 C 174.61 136.66 161.30 125.77 148.11 128.08 Z" />
<path fill="#fdfefd" opacity="1.00" d=" M 41.89 134.48 C 42.95 133.37 44.64 134.03 45.99 133.85 C 70.88 133.97 95.78 133.92 120.67 133.88 C 119.61 136.12 118.68 138.41 117.86 140.75 C 92.50 140.62 67.14 140.96 41.79 140.58 C 41.82 138.54 41.78 136.51 41.89 134.48 Z" />
<path fill="#fdfefd" opacity="1.00" d=" M 182.90 133.87 C 207.93 133.93 232.97 133.97 258.00 133.85 C 259.34 134.07 261.11 133.29 262.11 134.53 C 262.22 136.54 262.18 138.56 262.21 140.57 C 236.69 141.00 211.15 140.55 185.61 140.81 C 184.69 138.50 183.74 136.20 182.90 133.87 Z" />
<path fill="#fdfefd" opacity="1.00" d=" M 41.82 148.33 C 66.59 148.19 91.37 148.22 116.15 148.32 C 116.13 150.52 116.19 152.73 116.34 154.93 C 91.50 155.02 66.65 155.09 41.81 154.90 C 41.84 152.71 41.84 150.52 41.82 148.33 Z" />
<path fill="#fdfefd" opacity="1.00" d=" M 187.20 148.27 C 212.19 148.28 237.18 148.19 262.17 148.30 C 262.15 150.50 262.16 152.70 262.19 154.90 C 237.18 155.12 212.16 154.96 187.15 154.98 C 187.17 152.74 187.19 150.50 187.20 148.27 Z" />
<path fill="#fdfefd" opacity="1.00" d=" M 41.92 162.52 C 67.30 162.53 92.68 162.52 118.06 162.52 C 118.94 164.90 119.98 167.21 121.14 169.46 C 94.68 169.39 68.21 169.62 41.76 169.35 C 41.83 167.07 41.89 164.80 41.92 162.52 Z" />
<path fill="#fdfefd" opacity="1.00" d=" M 182.18 169.41 C 183.40 167.16 184.50 164.86 185.56 162.54 C 211.08 162.50 236.59 162.54 262.10 162.52 C 262.11 164.83 262.14 167.14 262.17 169.45 C 235.50 169.45 208.84 169.53 182.18 169.41 Z" />
<path fill="#fdfefd" opacity="1.00" d=" M 51.16 188.19 C 58.39 185.68 68.57 186.43 72.48 194.00 C 70.63 195.44 68.75 196.84 66.91 198.29 C 64.11 191.57 52.13 191.84 50.18 199.08 C 49.25 202.39 49.57 205.88 49.49 209.27 C 53.64 209.30 57.80 209.30 61.95 209.27 C 61.97 211.51 62.00 213.75 62.03 215.99 C 57.83 216.00 53.64 215.99 49.45 216.04 C 49.50 226.23 49.42 236.42 49.51 246.62 C 47.09 246.69 44.66 246.72 42.24 246.73 C 42.32 232.46 42.17 218.20 42.30 203.94 C 42.46 197.79 44.71 190.35 51.16 188.19 Z" />
<path fill="#fdfefd" opacity="1.00" d=" M 123.53 193.88 C 125.89 193.88 128.24 193.86 130.60 193.78 C 130.79 197.82 130.75 201.87 130.66 205.92 C 134.17 205.99 137.68 206.02 141.20 206.09 C 141.14 208.21 141.11 210.34 141.09 212.48 C 137.62 212.49 134.15 212.49 130.69 212.52 C 130.83 219.68 130.72 226.84 130.74 234.00 C 130.91 235.86 130.63 238.37 132.55 239.44 C 135.11 240.98 138.20 239.92 140.94 239.54 C 140.95 241.93 140.95 244.32 140.93 246.72 C 136.41 247.66 131.14 247.71 127.37 244.68 C 124.87 242.51 123.55 239.24 123.57 235.96 C 123.41 228.14 123.56 220.33 123.51 212.51 C 122.31 212.49 121.12 212.48 119.93 212.46 C 119.92 210.33 119.92 208.20 119.93 206.07 C 121.13 205.99 122.33 205.93 123.54 205.86 C 123.49 201.86 123.51 197.87 123.53 193.88 Z" />
<path fill="#fdfefd" opacity="1.00" d=" M 215.44 205.38 C 218.43 204.22 221.64 205.33 224.67 205.77 C 225.00 208.42 223.33 210.66 222.26 212.94 C 219.53 211.70 216.16 210.57 213.52 212.69 C 210.23 215.84 210.00 220.74 209.80 225.00 C 209.74 232.22 209.76 239.44 209.75 246.66 C 207.33 246.70 204.92 246.72 202.51 246.71 C 202.51 233.18 202.57 219.64 202.48 206.11 C 204.86 206.04 207.23 205.97 209.61 205.89 C 209.64 207.01 209.69 209.26 209.72 210.39 C 211.33 208.44 212.93 206.20 215.44 205.38 Z" />
<path fill="#fdfefd" opacity="1.00" d=" M 73.73 206.11 C 76.12 206.01 78.52 206.00 80.91 206.07 C 81.16 214.74 80.84 223.42 81.07 232.09 C 81.41 235.26 82.23 239.24 85.57 240.52 C 88.86 241.66 92.78 241.67 95.84 239.88 C 98.62 237.90 98.93 234.12 99.20 231.01 C 99.38 222.65 99.13 214.29 99.33 205.93 C 101.73 205.99 104.12 206.06 106.52 206.15 C 106.43 214.10 106.57 222.05 106.45 230.00 C 106.15 234.86 105.56 240.21 101.97 243.86 C 97.17 248.24 89.97 248.80 83.95 247.10 C 78.18 245.65 74.34 239.81 74.09 234.04 C 73.54 224.74 74.22 215.41 73.73 206.11 Z" />
<path fill="#fdfefd" opacity="1.00" d=" M 154.48 206.05 C 156.90 206.03 159.32 206.05 161.74 206.13 C 161.82 214.09 161.73 222.06 161.78 230.02 C 161.88 233.06 162.05 236.40 164.04 238.88 C 166.79 241.77 171.33 241.64 174.92 240.73 C 178.60 239.74 179.65 235.42 179.95 232.11 C 180.15 223.37 179.81 214.62 180.12 205.89 C 182.48 205.96 184.85 206.05 187.21 206.16 C 186.88 215.46 187.46 224.79 186.90 234.08 C 186.61 239.64 183.25 245.05 177.84 246.89 C 169.86 249.72 158.27 247.45 155.77 238.24 C 153.36 227.70 155.05 216.76 154.48 206.05 Z" />
<path fill="#fdfefd" opacity="1.00" d=" M 234.42 210.43 C 237.86 206.77 243.23 205.94 248.02 205.96 C 252.85 206.02 258.26 207.85 260.65 212.37 C 263.82 217.34 263.15 223.49 262.91 229.09 C 254.06 229.00 245.21 228.92 236.36 229.08 C 236.17 233.16 237.21 237.73 241.01 239.92 C 245.69 242.25 253.35 242.17 255.35 236.35 C 257.48 237.52 259.61 238.70 261.72 239.92 C 259.76 243.19 257.05 246.26 253.19 247.18 C 246.29 248.96 237.68 248.00 232.93 242.16 C 229.54 237.94 229.31 232.22 229.32 227.04 C 229.51 221.25 230.33 214.87 234.42 210.43 M 242.12 213.28 C 238.10 214.62 236.97 219.24 236.31 222.93 C 242.98 223.05 249.66 223.00 256.33 222.99 C 256.16 219.97 256.13 216.51 253.80 214.26 C 250.42 211.85 245.86 211.54 242.12 213.28 Z" />
</g>
</svg>
