<?xml version="1.0" encoding="UTF-8" ?>
<!DOCTYPE svg PUBLIC "-//W3C//DTD SVG 1.1//EN" "http://www.w3.org/Graphics/SVG/1.1/DTD/svg11.dtd">
<svg width="800pt" height="279pt" viewBox="0 0 800 279" version="1.1" xmlns="http://www.w3.org/2000/svg">
<g id="#ffffffff">
<path fill="#ffffff" opacity="1.00" d=" M 156.57 200.78 C 159.43 200.75 162.29 200.72 165.15 200.73 C 171.96 210.06 177.80 220.07 184.66 229.35 C 185.28 219.74 184.22 210.06 185.21 200.49 C 188.38 200.48 191.55 200.46 194.72 200.41 C 194.72 216.82 195.19 233.22 195.15 249.63 C 192.68 250.05 190.18 250.45 187.67 250.23 C 185.67 249.74 184.78 247.75 183.69 246.23 C 178.10 237.51 172.10 229.06 166.64 220.26 C 166.34 230.29 166.83 240.34 166.55 250.38 C 163.50 250.37 160.46 250.37 157.41 250.48 C 156.84 249.02 156.58 247.52 156.64 245.97 C 156.68 230.90 156.26 215.84 156.57 200.78 Z" />
<path fill="#ffffff" opacity="1.00" d=" M 200.48 200.42 C 211.54 200.20 222.61 200.25 233.68 200.17 C 233.75 203.00 233.77 205.84 233.77 208.67 C 231.18 208.72 228.59 208.74 226.00 208.89 C 221.04 209.64 216.01 209.13 211.02 209.33 C 210.73 212.99 210.76 216.67 211.20 220.31 C 217.66 220.28 224.11 220.23 230.56 220.28 C 230.59 223.08 230.62 225.87 230.62 228.66 C 228.41 228.71 226.20 228.76 223.99 228.87 C 219.76 229.59 215.46 229.21 211.19 229.30 C 211.16 233.09 211.20 236.87 211.20 240.66 C 218.91 240.56 226.61 240.52 234.32 240.55 C 234.36 243.52 234.37 246.48 234.35 249.45 C 223.15 249.60 211.94 249.88 200.74 249.59 C 200.71 233.20 200.40 216.81 200.48 200.42 Z" />
<path fill="#ffffff" opacity="1.00" d=" M 236.44 200.21 C 248.45 200.22 260.44 199.83 272.44 199.85 C 272.56 202.73 272.59 205.60 272.55 208.48 C 268.26 208.52 263.96 208.55 259.67 208.56 C 259.57 222.13 259.84 235.71 259.63 249.28 C 256.58 249.28 253.52 249.49 250.48 249.26 C 250.29 249.04 249.92 248.61 249.74 248.40 C 249.52 235.14 249.72 221.88 249.54 208.63 C 245.17 208.66 240.80 208.74 236.43 208.65 C 236.43 205.83 236.42 203.02 236.44 200.21 Z" />
<path fill="#ffffff" opacity="1.00" d=" M 276.26 199.85 C 287.04 199.64 297.83 199.63 308.62 199.53 C 308.72 202.47 308.74 205.41 308.72 208.36 C 301.18 208.48 293.64 208.35 286.11 208.55 C 286.36 212.22 286.37 215.90 286.26 219.58 C 292.69 219.71 299.11 219.47 305.54 219.54 C 305.63 222.50 305.64 225.46 305.53 228.43 C 299.15 228.54 292.78 228.53 286.40 228.55 C 286.39 232.47 286.38 236.39 286.48 240.31 C 294.10 240.32 301.73 240.16 309.35 240.28 C 309.39 243.06 309.39 245.85 309.41 248.64 C 298.42 248.90 287.41 248.74 276.42 248.77 C 276.41 232.47 276.26 216.16 276.26 199.85 Z" />
<path fill="#ffffff" opacity="1.00" d=" M 78.69 201.75 C 81.96 201.69 85.23 201.69 88.50 201.69 C 88.64 215.01 88.77 228.34 88.68 241.67 C 96.20 242.68 103.83 241.84 111.39 242.16 C 111.36 244.80 111.33 247.44 111.51 250.08 C 116.27 237.84 120.40 225.31 124.79 212.91 C 126.31 209.20 127.64 205.42 128.88 201.61 C 131.64 201.39 134.41 201.39 137.19 201.50 C 140.83 212.39 145.13 223.06 149.23 233.79 C 149.39 234.34 149.72 235.43 149.88 235.98 C 151.70 240.72 153.81 245.39 155.06 250.32 C 151.67 250.47 148.27 250.46 144.88 250.39 C 144.11 247.69 142.92 245.11 142.40 242.33 C 136.54 241.17 130.56 242.31 124.65 242.16 C 123.78 244.89 122.80 247.61 122.18 250.42 C 112.10 250.66 102.02 250.54 91.94 250.85 C 87.84 251.59 83.65 251.14 79.51 251.30 C 79.27 234.78 78.37 218.29 78.69 201.75 M 132.89 217.35 C 131.11 222.75 129.23 228.11 127.46 233.52 C 131.60 233.56 135.76 233.65 139.89 233.22 C 139.59 232.99 138.99 232.52 138.69 232.29 C 137.38 227.25 135.00 222.54 134.05 217.40 C 133.76 217.39 133.18 217.36 132.89 217.35 Z" />
<path fill="#ffffff" opacity="1.00" d=" M 41.27 202.35 C 46.46 201.33 51.77 201.93 57.02 201.73 C 62.48 201.55 68.57 202.41 72.52 206.57 C 74.42 208.25 75.24 210.69 76.33 212.90 C 77.23 218.37 76.31 224.16 72.47 228.36 C 66.79 233.69 58.68 232.71 51.52 232.80 C 51.21 239.02 51.55 245.25 51.35 251.48 C 48.06 251.67 44.77 251.69 41.48 251.60 C 41.26 235.19 41.38 218.77 41.27 202.35 M 51.50 210.75 C 51.19 215.04 51.36 219.34 51.33 223.64 C 55.29 223.67 59.25 223.63 63.21 223.51 C 64.33 222.46 65.43 221.39 66.52 220.31 C 66.51 218.17 66.46 216.03 66.36 213.90 C 64.81 212.63 63.13 211.53 61.32 210.64 C 58.05 210.66 54.78 210.69 51.50 210.75 Z" />
</g>
<g id="#ff0000ff">
<path fill="#ff0000" opacity="1.00" d=" M 717.11 5.26 C 727.92 5.16 738.72 5.12 749.53 5.19 C 749.58 37.80 749.60 70.41 749.75 103.02 C 750.70 125.41 750.23 147.85 750.76 170.25 C 751.30 170.50 752.40 170.99 752.94 171.23 C 768.26 171.72 783.75 180.18 790.85 194.06 C 793.69 200.08 795.52 206.70 794.83 213.40 C 771.88 213.53 748.92 213.55 725.96 213.71 C 724.66 213.73 723.38 213.85 722.12 214.09 C 694.78 214.44 667.43 214.61 640.08 214.78 C 596.05 215.57 551.98 214.91 507.97 216.02 C 468.68 216.69 429.31 216.81 389.99 216.82 C 374.45 217.47 358.89 217.26 343.34 217.55 C 342.62 221.67 342.87 225.86 342.85 230.02 C 343.41 243.81 343.15 257.63 343.32 271.43 C 314.58 272.83 285.79 272.03 257.02 272.44 C 239.00 272.73 220.94 272.33 202.95 273.27 C 154.28 273.61 105.63 274.18 56.97 274.49 C 48.42 274.84 39.79 273.65 31.88 270.29 C 30.20 269.49 28.53 268.67 26.92 267.75 C 24.38 266.54 22.14 264.85 19.90 263.18 C 16.89 260.80 14.05 258.19 11.67 255.16 C 9.22 251.93 6.90 248.58 5.27 244.85 C 4.24 242.68 3.46 240.41 2.75 238.12 C 2.52 236.72 2.44 235.26 1.73 234.00 C 0.90 225.95 0.89 217.60 4.13 210.04 C 6.41 203.88 10.32 198.53 14.75 193.76 C 19.71 188.89 25.42 184.82 31.73 181.88 C 35.00 180.72 38.32 179.71 41.58 178.49 C 41.42 132.32 41.27 86.15 41.22 39.99 C 41.12 30.58 39.97 21.02 41.49 11.69 C 77.16 11.86 112.83 11.20 148.48 10.60 C 148.49 20.18 148.89 29.76 148.47 39.32 C 130.66 39.50 112.84 39.65 95.03 39.81 C 87.54 40.54 80.02 40.09 72.51 40.36 C 72.38 53.79 72.69 67.23 72.55 80.65 C 76.61 81.79 80.88 81.18 85.03 81.05 C 102.56 80.44 120.12 80.84 137.67 80.65 C 137.82 90.18 137.76 99.72 137.74 109.26 C 117.50 109.33 97.26 109.53 77.02 109.73 C 75.47 109.83 72.47 109.50 72.84 111.92 C 72.58 133.51 73.35 155.09 73.26 176.69 C 102.49 176.59 131.73 176.50 160.97 176.33 C 166.97 176.20 172.99 176.49 178.97 175.83 C 186.76 175.61 194.56 175.74 202.35 175.48 C 202.11 175.05 201.64 174.20 201.40 173.77 C 187.48 168.89 175.20 158.68 168.72 145.32 C 165.94 139.58 164.51 133.33 163.42 127.08 C 162.43 120.43 162.77 113.66 161.93 107.01 C 161.49 95.34 161.54 83.63 161.85 71.96 C 163.04 65.39 162.28 58.53 164.37 52.09 C 167.63 34.71 181.17 20.94 196.81 13.67 C 197.36 13.55 198.48 13.29 199.04 13.17 C 204.28 10.53 210.29 10.25 215.92 8.87 C 226.73 7.74 237.96 9.00 248.03 13.20 C 248.55 13.34 249.58 13.61 250.10 13.74 C 251.41 14.43 252.73 15.10 254.04 15.78 C 266.59 22.72 277.18 33.91 281.27 47.86 C 283.58 56.38 284.92 65.22 284.82 74.06 C 285.29 88.38 285.60 102.73 284.85 117.04 C 284.87 124.51 283.34 131.94 281.14 139.05 C 276.53 153.20 265.15 164.16 252.32 171.15 C 249.48 172.37 246.57 173.40 243.61 174.31 C 247.68 175.46 251.90 175.18 256.06 174.83 C 273.55 174.74 291.04 174.90 308.53 174.64 C 308.35 133.45 308.61 92.26 308.01 51.08 C 307.50 37.16 307.71 23.22 307.57 9.29 C 330.33 8.29 353.15 8.58 375.94 8.49 C 390.50 9.16 405.60 14.32 415.38 25.59 C 423.78 34.42 428.34 46.83 427.77 58.98 C 428.49 70.41 424.20 82.04 416.32 90.34 C 415.46 91.16 414.62 91.99 413.77 92.81 C 410.50 95.78 406.84 98.27 402.99 100.41 C 401.33 101.12 399.70 101.86 398.07 102.61 C 398.23 103.44 398.40 104.26 398.58 105.09 C 401.50 109.50 403.51 114.42 406.24 118.94 C 410.74 127.32 415.11 135.76 419.91 143.96 C 424.10 151.61 428.07 159.38 432.27 167.03 C 433.43 169.10 434.17 171.50 435.91 173.18 C 455.20 173.16 474.57 173.67 493.82 172.30 C 479.53 168.84 466.37 160.04 458.54 147.49 C 452.91 138.74 450.22 128.32 449.62 118.01 C 449.72 81.25 449.27 44.49 449.31 7.74 C 460.03 7.79 470.75 7.55 481.47 7.55 C 481.54 36.05 481.47 64.55 481.87 93.05 C 483.37 105.50 480.09 118.81 485.58 130.57 C 489.14 138.59 497.25 143.97 505.81 145.22 C 513.69 146.25 522.04 145.10 528.89 140.92 C 537.46 135.42 541.53 124.86 541.23 114.97 C 541.04 97.32 541.53 79.65 540.79 62.01 C 540.73 43.59 540.34 25.17 540.44 6.76 C 551.17 6.73 561.90 6.78 572.64 6.71 C 572.78 23.47 573.29 40.20 573.13 56.96 C 573.01 78.64 573.47 100.33 573.18 122.01 C 572.27 132.98 568.00 143.63 561.18 152.28 C 560.85 152.63 560.20 153.34 559.87 153.69 C 553.15 161.89 543.74 167.28 534.03 171.19 C 532.79 171.48 531.56 171.78 530.33 172.09 C 538.89 172.76 547.48 172.22 556.05 172.31 C 561.37 172.15 566.73 172.61 572.03 171.91 C 574.31 172.25 576.65 172.49 578.92 171.85 C 585.52 171.64 592.12 171.67 598.72 171.60 C 598.35 123.73 598.34 75.86 598.21 27.99 C 597.63 21.08 597.86 14.15 597.57 7.23 C 599.60 6.42 601.82 6.60 603.97 6.58 C 612.73 6.60 621.48 6.32 630.24 6.47 C 631.64 9.74 633.38 12.84 634.85 16.08 C 637.47 20.95 639.70 26.01 642.29 30.89 C 643.75 33.95 645.24 36.99 646.73 40.05 C 648.21 42.74 649.50 45.53 650.89 48.27 C 658.25 63.24 665.76 78.13 673.08 93.11 C 673.37 93.75 673.78 94.31 674.29 94.80 C 676.45 91.83 677.58 88.28 679.30 85.06 C 683.13 76.66 687.15 68.36 691.17 60.05 C 699.73 41.74 708.66 23.61 717.11 5.26 M 204.73 43.63 C 197.95 48.47 195.57 57.06 194.86 64.96 C 193.96 80.29 194.17 95.66 194.63 111.00 C 194.91 115.98 194.69 121.13 196.23 125.94 C 196.44 127.30 196.65 128.67 196.84 130.04 C 199.51 137.91 205.97 144.36 213.94 146.80 C 222.20 149.51 231.63 148.58 239.23 144.30 C 243.62 141.04 247.67 136.98 249.57 131.74 C 251.61 127.10 251.46 121.95 252.47 117.06 C 253.17 102.40 252.99 87.70 252.49 73.03 C 251.30 64.04 251.39 53.91 244.96 46.73 C 235.32 35.03 216.23 34.30 204.73 43.63 M 340.53 37.55 C 340.34 50.37 340.69 63.19 340.69 76.01 C 340.66 77.89 340.92 79.76 341.24 81.62 C 352.14 81.37 363.05 81.67 373.94 81.16 C 381.77 80.64 389.75 76.41 393.10 69.05 C 395.43 64.73 395.47 59.65 394.93 54.90 C 393.65 46.83 387.05 39.94 379.05 38.26 C 374.18 36.77 369.03 37.30 364.02 37.25 C 356.19 37.35 348.36 37.31 340.53 37.55 M 631.46 75.86 C 630.73 87.23 631.34 98.64 631.14 110.03 C 631.30 130.44 631.05 150.88 631.80 171.28 C 654.86 171.73 677.97 171.21 701.05 171.25 C 706.62 170.81 712.20 170.65 717.79 170.61 C 718.82 163.53 718.12 156.32 717.78 149.21 C 717.60 127.80 717.41 106.40 717.25 84.99 C 717.32 81.79 717.14 78.58 716.42 75.45 C 706.72 96.32 695.51 116.48 685.95 137.39 C 678.52 137.87 671.06 137.67 663.63 137.72 C 662.25 134.76 660.63 131.93 659.23 128.99 C 649.94 111.30 640.55 93.66 631.46 75.86 M 341.25 108.53 C 341.18 130.49 341.05 152.45 341.44 174.41 C 350.95 174.46 360.47 174.28 369.98 174.21 C 378.96 173.32 387.99 173.88 397.00 173.45 C 396.36 170.81 395.08 168.40 393.72 166.08 C 392.28 162.98 390.72 159.93 389.24 156.85 C 380.94 140.77 373.11 124.42 364.52 108.52 C 356.78 108.10 349.01 108.59 341.25 108.53 M 156.57 200.78 C 156.26 215.84 156.68 230.90 156.64 245.97 C 156.58 247.52 156.84 249.02 157.41 250.48 C 160.46 250.37 163.50 250.37 166.55 250.38 C 166.83 240.34 166.34 230.29 166.64 220.26 C 172.10 229.06 178.10 237.51 183.69 246.23 C 184.78 247.75 185.67 249.74 187.67 250.23 C 190.18 250.45 192.68 250.05 195.15 249.63 C 195.19 233.22 194.72 216.82 194.72 200.41 C 191.55 200.46 188.38 200.48 185.21 200.49 C 184.22 210.06 185.28 219.74 184.66 229.35 C 177.80 220.07 171.96 210.06 165.15 200.73 C 162.29 200.72 159.43 200.75 156.57 200.78 M 200.48 200.42 C 200.40 216.81 200.71 233.20 200.74 249.59 C 211.94 249.88 223.15 249.60 234.35 249.45 C 234.37 246.48 234.36 243.52 234.32 240.55 C 226.61 240.52 218.91 240.56 211.20 240.66 C 211.20 236.87 211.16 233.09 211.19 229.30 C 215.46 229.21 219.76 229.59 223.99 228.87 C 226.20 228.76 228.41 228.71 230.62 228.66 C 230.62 225.87 230.59 223.08 230.56 220.28 C 224.11 220.23 217.66 220.28 211.20 220.31 C 210.76 216.67 210.73 212.99 211.02 209.33 C 216.01 209.13 221.04 209.64 226.00 208.89 C 228.59 208.74 231.18 208.72 233.77 208.67 C 233.77 205.84 233.75 203.00 233.68 200.17 C 222.61 200.25 211.54 200.20 200.48 200.42 M 236.44 200.21 C 236.42 203.02 236.43 205.83 236.43 208.65 C 240.80 208.74 245.17 208.66 249.54 208.63 C 249.72 221.88 249.52 235.14 249.74 248.40 C 249.92 248.61 250.29 249.04 250.48 249.26 C 253.52 249.49 256.58 249.28 259.63 249.28 C 259.84 235.71 259.57 222.13 259.67 208.56 C 263.96 208.55 268.26 208.52 272.55 208.48 C 272.59 205.60 272.56 202.73 272.44 199.85 C 260.44 199.83 248.45 200.22 236.44 200.21 M 276.26 199.85 C 276.26 216.16 276.41 232.47 276.42 248.77 C 287.41 248.74 298.42 248.90 309.41 248.64 C 309.39 245.85 309.39 243.06 309.35 240.28 C 301.73 240.16 294.10 240.32 286.48 240.31 C 286.38 236.39 286.39 232.47 286.40 228.55 C 292.78 228.53 299.15 228.54 305.53 228.43 C 305.64 225.46 305.63 222.50 305.54 219.54 C 299.11 219.47 292.69 219.71 286.26 219.58 C 286.37 215.90 286.36 212.22 286.11 208.55 C 293.64 208.35 301.18 208.48 308.72 208.36 C 308.74 205.41 308.72 202.47 308.62 199.53 C 297.83 199.63 287.04 199.64 276.26 199.85 M 78.69 201.75 C 78.37 218.29 79.27 234.78 79.51 251.30 C 83.65 251.14 87.84 251.59 91.94 250.85 C 102.02 250.54 112.10 250.66 122.18 250.42 C 122.80 247.61 123.78 244.89 124.65 242.16 C 130.56 242.31 136.54 241.17 142.40 242.33 C 142.92 245.11 144.11 247.69 144.88 250.39 C 148.27 250.46 151.67 250.47 155.06 250.32 C 153.81 245.39 151.70 240.72 149.88 235.98 C 149.72 235.43 149.39 234.34 149.23 233.79 C 145.13 223.06 140.83 212.39 137.19 201.50 C 134.41 201.39 131.64 201.39 128.88 201.61 C 127.64 205.42 126.31 209.20 124.79 212.91 C 120.40 225.31 116.27 237.84 111.51 250.08 C 111.33 247.44 111.36 244.80 111.39 242.16 C 103.83 241.84 96.20 242.68 88.68 241.67 C 88.77 228.34 88.64 215.01 88.50 201.69 C 85.23 201.69 81.96 201.69 78.69 201.75 M 41.27 202.35 C 41.38 218.77 41.26 235.19 41.48 251.60 C 44.77 251.69 48.06 251.67 51.35 251.48 C 51.55 245.25 51.21 239.02 51.52 232.80 C 58.68 232.71 66.79 233.69 72.47 228.36 C 76.31 224.16 77.23 218.37 76.33 212.90 C 75.24 210.69 74.42 208.25 72.52 206.57 C 68.57 202.41 62.48 201.55 57.02 201.73 C 51.77 201.93 46.46 201.33 41.27 202.35 Z" />
<path fill="#ff0000" opacity="1.00" d=" M 51.50 210.75 C 54.78 210.69 58.05 210.66 61.32 210.64 C 63.13 211.53 64.81 212.63 66.36 213.90 C 66.46 216.03 66.51 218.17 66.52 220.31 C 65.43 221.39 64.33 222.46 63.21 223.51 C 59.25 223.63 55.29 223.67 51.33 223.64 C 51.36 219.34 51.19 215.04 51.50 210.75 Z" />
<path fill="#ff0000" opacity="1.00" d=" M 132.89 217.35 C 133.18 217.36 133.76 217.39 134.05 217.40 C 135.00 222.54 137.38 227.25 138.69 232.29 C 138.99 232.52 139.59 232.99 139.89 233.22 C 135.76 233.65 131.60 233.56 127.46 233.52 C 129.23 228.11 131.11 222.75 132.89 217.35 Z" />
</g>
</svg>
