<?xml version="1.0" encoding="UTF-8" standalone="no"?>
<!-- Created with Inkscape (http://www.inkscape.org/) -->

<svg
   xmlns:dc="http://purl.org/dc/elements/1.1/"
   xmlns:cc="http://creativecommons.org/ns#"
   xmlns:rdf="http://www.w3.org/1999/02/22-rdf-syntax-ns#"
   xmlns:svg="http://www.w3.org/2000/svg"
   xmlns="http://www.w3.org/2000/svg"
   xmlns:sodipodi="http://sodipodi.sourceforge.net/DTD/sodipodi-0.dtd"
   xmlns:inkscape="http://www.inkscape.org/namespaces/inkscape"
   width="300"
   height="300"
   id="svg2"
   version="1.1"
   inkscape:version="0.47 r22583">
  <g
     inkscape:label="Layer 1"
     inkscape:groupmode="layer"
     id="layer1"
     transform="translate(-166.48858,-403.16368)">
    <path
       id="path11511"
       d="m 166.48858,403.16368 300.00001,0 0,299.99999 -300.00001,0 z"
       style="fill:#0056a2;fill-rule:nonzero;stroke:none" />
    <path
       id="path11513"
       d="m 216.43609,472.86519 3.1948,0 c 5.3773,0 7.0422,1.66492 7.0422,7.37963 0,5.71472 -1.6649,7.37963 -7.0422,7.37963 l -3.1948,0 0,-14.75926 z m 0,41.26294 0,-19.70902 3.5773,0 c 10.192,0 14.9168,-3.9148 14.9168,-14.17429 0,-10.25949 -4.7248,-14.17429 -14.9168,-14.17429 l -11.83439,0 0,48.0576 8.25709,0"
       style="fill:#ffffff;fill-rule:nonzero;stroke:none" />
    <path
       id="path11515"
       d="m 241.72479,514.12813 0,-48.0576 8.2571,0 0,40.85796 13.0044,0 0,7.19964 -21.2615,0"
       style="fill:#ffffff;fill-rule:nonzero;stroke:none" />
    <path
       id="path11517"
       d="m 282.11029,475.65505 0.135,0 3.2623,20.63147 -6.6596,0 3.2623,-20.63147 z m -4.4548,27.80861 9.0671,0 1.4624,10.66447 7.9871,0 -8.842,-48.0576 -10.282,0 -8.8646,48.0576 7.9871,0 1.4849,-10.66447"
       style="fill:#ffffff;fill-rule:nonzero;stroke:none" />
    <path
       id="path11519"
       d="m 304.29419,514.12813 0,-48.0576 7.6496,0 10.0345,27.47113 0.1575,0 0,-27.47113 7.4471,0 0,48.0576 -7.1996,0 -10.507,-30.036 -0.135,0 0,30.036 -7.4471,0"
       style="fill:#ffffff;fill-rule:nonzero;stroke:none" />
    <path
       id="path11521"
       d="m 340.89989,514.12813 0,-48.0576 22.0939,0 0,7.19964 -13.8593,0 0,12.37438 10.6419,0 0,7.17714 -10.6419,0 0,14.1068 14.7817,0 0,7.19964 -23.0163,0"
       style="fill:#ffffff;fill-rule:nonzero;stroke:none" />
    <path
       id="path11523"
       d="m 378.56299,473.27017 -7.9871,0 0,-7.19964 24.2088,0 0,7.19964 -7.9871,0 0,40.85796 -8.2346,0 0,-40.85796"
       style="fill:#ffffff;fill-rule:nonzero;stroke:none" />
    <path
       id="path11525"
       d="m 402.97429,514.12813 0,-48.0576 22.0939,0 0,7.19964 -13.8368,0 0,12.37438 10.6419,0 0,7.17714 -10.6419,0 0,14.1068 14.7592,0 0,7.19964 -23.0163,0"
       style="fill:#ffffff;fill-rule:nonzero;stroke:none" />
    <path
       id="path11527"
       d="m 229.80039,531.99223 -22.02637,0 0,6.0747 c 0,0 7.40217,0 7.67207,0 0,0.29249 0,28.55107 0,28.55107 l 6.8622,0 c 0,0 0,-28.25858 0,-28.55107 0.27,0 7.6496,0 7.6496,0 l 0,-6.0747 -0.1575,0"
       style="fill:#ffffff;fill-rule:nonzero;stroke:none" />
    <path
       id="path11529"
       d="m 258.39649,531.99223 -6.7047,0 c 0,0 0,13.40933 0,13.70182 -0.27,0 -8.707,0 -8.977,0 0,-0.29249 0,-13.70182 0,-13.70182 l -6.8622,0 0,34.62577 6.8622,0 c 0,0 0,-14.55677 0,-14.84926 0.27,0 8.707,0 8.977,0 0,0.29249 0,14.84926 0,14.84926 l 6.8622,0 0,-34.62577 -0.1575,0"
       style="fill:#ffffff;fill-rule:nonzero;stroke:none" />
    <path
       id="path11531"
       d="m 281.30039,531.99223 -8.6621,0 -8.5721,34.62577 6.6147,0 c 0,0 1.7999,-7.01965 1.8674,-7.22214 0.2025,0 8.6171,0 8.842,0 0.068,0.20249 1.665,7.22214 1.665,7.22214 l 6.5696,0 -8.3245,-34.62577 z m -1.35,21.30644 c -0.3375,0 -5.8047,0 -6.1647,0 0.09,-0.33748 2.9474,-12.55437 3.1049,-13.31934 0.18,0.76497 2.9923,12.98186 3.0598,13.31934"
       style="fill:#ffffff;fill-rule:nonzero;stroke:none" />
    <path
       id="path11533"
       d="m 301.63929,560.52081 c 0,-0.26999 0,-28.52858 0,-28.52858 l -6.8621,0 0,34.62577 17.4141,0 0,-6.09719 c 0,0 -10.282,0 -10.552,0"
       style="fill:#ffffff;fill-rule:nonzero;stroke:none" />
    <path
       id="path11535"
       d="m 334.57769,531.99223 -8.6621,0 -8.5945,34.62577 6.6371,0 c 0,0 1.7999,-7.01965 1.8449,-7.22214 0.225,0 8.6396,0 8.8646,0 0.045,0.20249 1.6649,7.22214 1.6649,7.22214 l 6.5697,0 -8.3246,-34.62577 z m -1.3499,21.30644 c -0.3375,0 -5.8273,0 -6.1647,0 0.09,-0.33748 2.9248,-12.55437 3.1048,-13.31934 0.1575,0.76497 2.9924,12.98186 3.0599,13.31934"
       style="fill:#ffffff;fill-rule:nonzero;stroke:none" />
    <path
       id="path11537"
       d="m 359.70889,545.71655 c -2.8348,-1.52993 -5.2872,-2.83486 -5.2872,-4.88226 0,-2.29488 1.2599,-3.62232 3.4873,-3.62232 2.2049,0 3.5773,1.37243 4.6573,4.52228 l 0.045,0.13499 6.1647,-1.79991 -0.023,-0.13499 c -1.26,-5.33224 -5.1748,-8.41458 -10.7095,-8.41458 -6.6597,0 -10.462,3.55482 -10.462,9.74201 0,5.37723 4.4998,7.80711 8.4821,9.9895 3.3073,1.79991 6.1647,3.35233 6.1647,6.18719 0,2.36238 -1.5749,3.9373 -3.8923,3.9373 -1.9124,0 -4.2073,-1.43992 -4.9498,-5.48972 l -0.045,-0.13499 -6.7496,1.41742 0.045,0.1575 c 1.6649,6.38968 5.5797,9.76451 11.3619,9.76451 6.8397,0 11.092,-3.80231 11.092,-9.9445 0,-6.43468 -5.1973,-9.20204 -9.3821,-11.42943"
       style="fill:#ffffff;fill-rule:nonzero;stroke:none" />
    <path
       id="path11539"
       d="m 387.11259,545.71655 c -2.8349,-1.52993 -5.2873,-2.83486 -5.2873,-4.88226 0,-2.29488 1.26,-3.62232 3.4649,-3.62232 2.2048,0 3.6223,1.37243 4.6797,4.52228 l 0.045,0.13499 6.1647,-1.79991 -0.045,-0.13499 c -1.2599,-5.33224 -5.1522,-8.41458 -10.687,-8.41458 -6.6596,0 -10.4619,3.55482 -10.4619,9.74201 0,5.37723 4.4997,7.80711 8.4595,9.9895 3.3074,1.79991 6.1872,3.35233 6.1872,6.18719 0,2.36238 -1.5749,3.9373 -3.9148,3.9373 -1.8899,0 -4.1848,-1.43992 -4.9272,-5.48972 l -0.045,-0.13499 -6.7497,1.41742 0.022,0.1575 c 1.6874,6.38968 5.6022,9.76451 11.3844,9.76451 6.8397,0 11.0695,-3.80231 11.0695,-9.9445 0,-6.43468 -5.1747,-9.20204 -9.3595,-11.42943"
       style="fill:#ffffff;fill-rule:nonzero;stroke:none" />
    <path
       id="path11541"
       d="m 417.71099,531.99223 -8.6395,0 -8.5946,34.62577 6.6147,0 c 0,0 1.7999,-7.01965 1.8674,-7.22214 0.2025,0 8.6395,0 8.842,0 0.067,0.20249 1.6649,7.22214 1.6649,7.22214 l 6.5922,0 -8.3471,-34.62577 z m -1.3499,21.30644 c -0.315,0 -5.8272,0 -6.1422,0 0.067,-0.33748 2.9249,-12.57687 3.1049,-13.31934 0.1574,0.76497 2.9698,12.98186 3.0373,13.31934"
       style="fill:#ffffff;fill-rule:nonzero;stroke:none" />
    <path
       id="path11543"
       d="m 316.44359,580.49981 c -16.6942,0 -30.2835,13.58932 -30.2835,30.30598 0,16.69417 13.5893,30.28349 30.2835,30.28349 16.7167,0 30.306,-13.58932 30.306,-30.28349 0,-16.71666 -13.5893,-30.30598 -30.306,-30.30598"
       style="fill:#ffffff;fill-rule:nonzero;stroke:none" />
    <path
       id="path11545"
       d="m 286.70009,591.59175 c -2.2949,0.44998 -3.9373,0.80996 -3.9373,0.85496 -0.99,0.22499 -2.0024,0.44998 -3.0149,0.69747 -6.0747,1.48492 -11.8794,2.74486 -17.9091,2.78986 -6.0972,0.045 -11.8794,-1.12495 -17.9316,-2.58737 -6.0747,-1.48493 -11.8794,-2.90236 -17.9316,-3.19484 -6.0747,-0.26999 -11.8794,0.69746 -17.93159,2.09239 0,1.12494 0,6.0972 0,7.19964 6.09719,-1.41743 11.90189,-2.36238 17.93159,-2.09239 6.0747,0.29248 11.8794,1.70991 17.9316,3.17234 6.0747,1.48492 11.8794,2.63237 17.9316,2.60987 6.0747,-0.0675 11.8794,-1.32744 17.9091,-2.78986 1.035,-0.24749 2.0699,-0.49498 3.0824,-0.71997 0.9449,-2.85736 2.2499,-5.53472 3.8698,-8.0321"
       style="fill:#ffffff;fill-rule:nonzero;stroke:none" />
    <path
       id="path11547"
       d="m 408.23899,595.82154 c -7.6046,-0.51747 -9.0445,-1.25993 -17.9091,-3.37483 -6.0972,-1.43993 -11.8794,-2.49737 -17.9316,-2.31738 -6.0747,0.20249 -11.8794,1.55242 -17.9316,3.01485 -2.2049,0.53997 -4.3648,1.03494 -6.5022,1.46242 1.08,2.0924 1.9574,4.31979 2.6099,6.63717 0.5625,-0.09 0.8774,-0.17999 0.8774,-0.20249 1.0125,-0.22499 2.0024,-0.44998 3.0149,-0.69746 6.0747,-1.46243 11.8794,-2.83486 17.9316,-3.01485 6.0747,-0.17999 11.8794,0.87745 17.9316,2.31738 6.0747,1.43993 11.8569,2.96985 17.9091,3.37483 6.0972,0.38248 11.8794,-0.42748 17.9316,-1.79991 0,-1.10244 0,-6.09719 0,-7.17714 -6.0747,1.39493 -11.8794,2.18239 -17.9316,1.77741"
       style="fill:#ffffff;fill-rule:nonzero;stroke:none" />
    <path
       id="path11549"
       d="m 281.00789,610.80579 c 0,-1.12494 0.068,-2.22739 0.1575,-3.30733 -0.45,0.11249 -0.9225,0.22499 -1.4175,0.33748 -6.0747,1.46243 -11.8794,2.72237 -17.9091,2.78986 -6.0972,0.0225 -11.8794,-1.12494 -17.9316,-2.60987 -6.0747,-1.46242 -11.8794,-2.90235 -17.9316,-3.17234 -6.0747,-0.26999 -11.8794,0.69747 -17.93159,2.0924 0,1.12494 0,6.09719 0,7.19964 6.09719,-1.41743 11.90189,-2.36239 17.93159,-2.0924 6.0747,0.29249 11.8794,1.70992 17.9316,3.19484 6.0747,1.46243 11.8794,2.60987 17.9316,2.58737 6.0747,-0.0675 11.8794,-1.32743 17.9091,-2.78986 0.495,-0.13499 0.99,-0.24749 1.485,-0.35998 -0.135,-1.25994 -0.225,-2.56487 -0.225,-3.86981"
       style="fill:#ffffff;fill-rule:nonzero;stroke:none" />
    <path
       id="path11551"
       d="m 408.23899,610.51331 c -7.6046,-0.51748 -9.0445,-1.25994 -17.9091,-3.37483 -6.0972,-1.46243 -11.8794,-2.49738 -17.9316,-2.33989 -6.0747,0.20249 -11.8794,1.57492 -17.9316,3.03735 -0.9,0.22499 -1.7774,0.42748 -2.6549,0.62997 0.045,0.78746 0.09,1.55242 0.09,2.33988 0,1.66492 -0.135,3.30734 -0.36,4.92726 0.9675,-0.22499 1.9574,-0.47248 2.9249,-0.69747 6.0747,-1.46243 11.8794,-2.83486 17.9316,-3.01485 6.0747,-0.17999 11.8794,0.85496 17.9316,2.29489 6.0747,1.46242 11.8569,2.96985 17.9091,3.39733 6.0972,0.38248 11.8794,-0.42748 17.9316,-1.79991 0,-1.10245 0,-6.0972 0,-7.19964 -6.0747,1.39493 -11.8794,2.18239 -17.9316,1.79991"
       style="fill:#ffffff;fill-rule:nonzero;stroke:none" />
    <path
       id="path11553"
       d="m 282.76279,621.80774 0,0 c -0.99,0.22499 -2.0024,0.47248 -3.0149,0.71997 -6.0747,1.46242 -11.8794,2.72236 -17.9091,2.78986 -6.0972,0.0225 -11.8794,-1.14745 -17.9316,-2.60987 -6.0747,-1.46243 -11.8794,-2.90236 -17.9316,-3.17234 -6.0747,-0.26999 -11.8794,0.67496 -17.93159,2.09239 0,1.12495 0,6.0972 0,7.19964 6.09719,-1.41743 11.90189,-2.38488 17.93159,-2.11489 6.0747,0.29248 11.8794,1.73241 17.9316,3.19484 6.0747,1.46242 11.8794,2.63237 17.9316,2.58737 6.0747,-0.0675 11.8794,-1.30494 17.9091,-2.78986 2.0024,-0.47248 3.9823,-0.94495 5.9397,-1.34993 -1.1924,-2.0699 -2.1599,-4.27479 -2.9248,-6.54718"
       style="fill:#ffffff;fill-rule:nonzero;stroke:none" />
    <path
       id="path11555"
       d="m 408.23899,625.20507 c -7.6046,-0.53997 -9.0445,-1.25993 -17.9091,-3.39733 -6.0972,-1.43993 -11.8794,-2.47487 -17.9316,-2.31738 -6.0747,0.20249 -11.8794,1.55242 -17.9316,3.03735 -1.6874,0.40498 -3.3523,0.78746 -5.0173,1.12494 -1.1024,2.85736 -2.5648,5.53472 -4.3422,7.9646 3.4198,-0.53997 6.3446,-1.16994 6.3446,-1.19244 1.0125,-0.22499 2.0024,-0.47247 3.0149,-0.71996 6.0747,-1.46243 11.8794,-2.83486 17.9316,-3.01485 6.0747,-0.15749 11.8794,0.87745 17.9316,2.31738 6.0747,1.43993 11.8569,2.96985 17.9091,3.39733 6.0972,0.38248 11.8794,-0.42748 17.9316,-1.79991 0,-1.12494 0,-6.09719 0,-7.19964 -6.0747,1.39493 -11.8794,2.18239 -17.9316,1.79991"
       style="fill:#ffffff;fill-rule:nonzero;stroke:none" />
  </g>
</svg>
