<?xml version="1.0" encoding="UTF-8" standalone="no"?>
<!-- Generator: Adobe Illustrator 14.0.0, SVG Export Plug-In . SVG Version: 6.00 Build 43363)  -->
<svg xmlns:dc="http://purl.org/dc/elements/1.1/" xmlns:cc="http://creativecommons.org/ns#" xmlns:rdf="http://www.w3.org/1999/02/22-rdf-syntax-ns#" xmlns:svg="http://www.w3.org/2000/svg" xmlns="http://www.w3.org/2000/svg" xmlns:xlink="http://www.w3.org/1999/xlink" xmlns:sodipodi="http://sodipodi.sourceforge.net/DTD/sodipodi-0.dtd" xmlns:inkscape="http://www.inkscape.org/namespaces/inkscape" version="1.1" id="Layer_1" x="0px" y="0px" width="700" height="300" viewBox="0 0 699.99999 299.99999" enable-background="new 0 0 841.89 1190.55" xml:space="preserve">
<rect style="fill:#b51621" id="rect862" height="81.638" width="190.48801" clip-path="url(#SVGID_2_)" y="470.26599" x="435.40201" transform="matrix(3.6747592,0,0,3.6747592,-1599.9975,-1728.1143)"/><path clip-path="url(#SVGID_117_)" d="m 464.632,495.617 h -7.863 v -5.95 h 7.863 c 2.794,0 4.191,0.828 4.191,2.846 0.001,2.173 -1.397,3.104 -4.191,3.104 m 1.45,-11.744 h -17.3 l 0.001,0.001 c 0.123,0.002 0.222,0.848 0.225,1.338 v 0.022 2.268 19.957 2.268 0.022 c -0.003,0.49 -0.102,1.336 -0.225,1.338 h -0.001 8.214 -0.002 c -0.123,-0.002 -0.222,-0.848 -0.225,-1.338 v -0.022 -0.192 -2.076 -6.357 h 9.313 c 6.52,0 9.882,-3.984 9.882,-8.589 -10e-4,-4.604 -3.363,-8.64 -9.882,-8.64" id="path872" style="fill:#ffffff" transform="matrix(3.6747592,0,0,3.6747592,-1599.9975,-1728.1143)"/><path clip-path="url(#SVGID_117_)" d="m 506.387,488.26 v -0.023 c 0.003,-0.489 0.104,-1.336 0.226,-1.338 h 0.002 -7.36 10e-4 c 0.124,0.002 0.224,0.849 0.227,1.338 v 0.023 2.267 10.442 c 0,2.629 -2.165,3.66 -5.154,3.66 -2.989,0 -5.154,-1.031 -5.154,-3.66 v -10.442 -2.081 -0.186 -0.023 c 0.003,-0.489 0.104,-1.336 0.227,-1.338 h 0.001 -7.359 0.001 c 0.123,0.002 0.222,0.849 0.225,1.338 v 0.023 2.267 9.257 c 0,5.463 2.989,10.102 12.061,10.102 9.072,0 12.06,-4.639 12.06,-10.102 v -9.257 -2.081 -0.186 z" id="path874" style="fill:#ffffff" transform="matrix(3.6747592,0,0,3.6747592,-1599.9975,-1728.1143)"/><path clip-path="url(#SVGID_117_)" d="m 526.539,505.247 h -5.617 v -5.566 h 5.617 c 2.011,0 4.278,0 4.278,2.783 0,2.061 -1.907,2.783 -4.278,2.783 m -5.618,-14.018 h 6.133 c 2.268,0 3.401,0.412 3.401,2.473 0,1.341 -0.722,2.475 -3.401,2.475 h -6.133 v -4.948 z m 12.215,6.235 c 1.854,-0.876 3.4,-2.783 3.4,-4.948 0,-4.586 -2.474,-5.617 -8.657,-5.617 h -14.091 10e-4 c 0.123,0.002 0.224,0.849 0.227,1.338 v 0.023 2.267 h -10e-4 v 15.42 h 10e-4 v 2.268 0.022 c -0.003,0.489 -0.104,1.336 -0.227,1.338 h -10e-4 14.297 c 6.493,0 9.225,-2.577 9.225,-6.597 0,-2.987 -1.443,-4.638 -4.174,-5.514" id="path876" style="fill:#ffffff" transform="matrix(3.6747592,0,0,3.6747592,-1599.9975,-1728.1143)"/><path clip-path="url(#SVGID_117_)" d="m 578.371,508.238 v -0.022 -0.186 -2.081 -15.421 -2.082 -0.185 -0.023 c 0.003,-0.489 0.103,-1.336 0.226,-1.338 h 10e-4 -7.359 10e-4 c 0.123,0.002 0.223,0.849 0.226,1.338 v 0.023 2.267 15.421 2.267 0.022 c -0.003,0.489 -0.103,1.336 -0.226,1.338 -10e-4,0 -10e-4,10e-4 -10e-4,10e-4 h 7.359 c -10e-4,0 -10e-4,-10e-4 -10e-4,-10e-4 -0.124,-0.002 -0.223,-0.849 -0.226,-1.338" id="path878" style="fill:#ffffff" transform="matrix(3.6747592,0,0,3.6747592,-1599.9975,-1728.1143)"/><path clip-path="url(#SVGID_117_)" d="m 607.99,500.252 c -0.007,0.172 -0.427,0.781 -0.716,1.119 -0.005,0.005 -0.01,0.011 -0.015,0.017 l -0.192,0.224 c -0.771,0.969 -3.829,2.81 -7.386,2.81 -3.865,0 -8.349,-1.804 -8.349,-6.184 0,-4.381 4.483,-6.185 8.349,-6.185 2.766,0 5.735,0.988 6.749,1.8 l 0.228,0.185 c 0.007,0.005 0.012,0.01 0.019,0.014 0.367,0.298 0.938,0.872 0.909,0.998 l 3.216,-6.523 c -0.131,0.08 -0.892,-0.031 -1.332,-0.144 -0.007,-0.002 -0.014,-0.004 -0.021,-0.006 l -0.676,-0.178 c -0.708,-0.169 -1.702,-0.461 -2.854,-0.733 -1.753,-0.412 -3.969,-0.876 -6.236,-0.876 -7.525,0 -15.049,3.195 -15.049,11.648 0,8.452 7.523,11.647 15.049,11.647 4.166,0 7.495,-1.252 9.498,-2.163 l 1.173,-0.557 c 0.237,-0.116 0.429,-0.209 0.576,-0.274 l 0.091,-0.043 c 0.007,-0.004 0.013,-0.007 0.021,-0.01 0.383,-0.179 1.038,-0.407 1.243,-0.395 l -4.295,-6.191 z" id="path880" style="fill:#ffffff" transform="matrix(3.6747592,0,0,3.6747592,-1599.9975,-1728.1143)"/><path clip-path="url(#SVGID_117_)" d="m 465.798,518.38 c 0,-1.19 1.553,-2.431 6.054,-2.431 4.144,0 9.036,1.052 10.394,2.163 l 0.001,-10e-4 0.23,0.186 c 0.006,0.004 0.011,0.009 0.017,0.014 0.327,0.264 0.815,0.747 0.899,0.94 l 2.964,-5.971 c -0.152,0.07 -0.891,-0.043 -1.322,-0.157 -0.007,-0.002 -0.014,-0.004 -0.021,-0.006 l -1.634,-0.442 c -2.305,-0.583 -6.631,-1.9 -12.149,-1.9 -7.605,0 -12.572,3.57 -12.572,8.744 0,9.985 21.316,5.742 21.316,9.571 0,2.277 -2.328,3.518 -7.502,3.518 -4.668,0 -9.451,-1.752 -10.637,-3.128 l -0.162,-0.154 c -0.006,-0.005 -0.012,-0.01 -0.017,-0.015 -0.312,-0.292 -0.772,-0.822 -0.831,-1.013 l -3.159,7.598 c 0.17,-0.055 0.886,0.1 1.304,0.237 0.008,0.002 0.014,0.005 0.021,0.006 l 0.751,0.252 c 1.752,0.535 5.615,2.219 12.884,2.219 11.229,0 14.591,-4.915 14.591,-9.364 0,-11.9 -21.42,-6.261 -21.42,-10.866" id="path882" style="fill:#ffffff" transform="matrix(3.6747592,0,0,3.6747592,-1599.9975,-1728.1143)"/><path clip-path="url(#SVGID_117_)" d="m 549.993,536.787 c -0.123,-0.001 -0.222,-0.849 -0.226,-1.338 v -0.022 -0.183 -0.003 -19.584 -0.003 -0.183 -0.022 c 0.004,-0.489 0.103,-1.336 0.226,-1.338 h 10e-4 -6.637 c 0.124,0.002 0.224,0.849 0.227,1.338 v 0.022 0.186 2.082 8.071 c -1.953,-2.115 -7.708,-8.214 -8.34,-8.918 l -0.491,-0.528 c -0.011,-0.011 -0.02,-0.021 -0.03,-0.033 -0.619,-0.675 -1.541,-1.924 -1.511,-2.22 h -8.976 10e-4 c 0.123,0.002 0.223,0.849 0.226,1.338 v 0.022 2.268 15.42 2.268 0.022 c -0.003,0.489 -0.103,1.337 -0.226,1.338 l -10e-4,10e-4 h 6.637 v -10e-4 c -0.124,-0.001 -0.223,-0.849 -0.226,-1.338 v -0.022 -2.268 -11.421 l 0.103,-0.103 c 3.938,4.6 8.229,8.776 10.596,11.365 l 1.418,1.503 c 0.011,0.011 0.021,0.021 0.03,0.032 0.666,0.713 1.678,2.073 1.511,2.253 h 4.879 0.812 c -10e-4,0 -0.002,-10e-4 -0.003,-10e-4" id="path884" style="fill:#ffffff" transform="matrix(3.6747592,0,0,3.6747592,-1599.9975,-1728.1143)"/><path clip-path="url(#SVGID_117_)" d="m 564.214,528.491 4.228,-10.3 4.329,10.3 h -8.557 z m 19.381,8.297 c -0.142,-0.061 -0.501,-0.668 -0.692,-1.08 -0.011,-0.018 -0.023,-0.034 -0.031,-0.054 -0.088,-0.207 -0.184,-0.428 -0.287,-0.661 l -0.206,-0.464 c -2.283,-5.117 -7.241,-15.172 -8.624,-18.33 l -0.341,-0.749 c -0.003,-0.007 -0.006,-0.013 -0.009,-0.02 -0.201,-0.446 -0.461,-1.258 -0.352,-1.311 10e-4,0 10e-4,0 10e-4,-10e-4 l 0.017,-0.007 h -8.743 c 0.057,0.147 -0.164,0.877 -0.34,1.294 -0.003,0.007 -0.006,0.013 -0.009,0.021 l -0.473,1.098 c -1.196,2.903 -4.587,10.166 -7.767,17.507 l -0.096,0.221 c -0.201,0.468 -0.402,0.935 -0.603,1.402 -0.005,0.012 -0.014,0.022 -0.02,0.034 -0.186,0.411 -0.543,1.031 -0.688,1.1 h 6.324 c -0.08,-0.104 0.183,-0.867 0.383,-1.294 0.003,-0.007 0.007,-0.013 0.01,-0.02 l 0.271,-0.565 c 0.365,-0.845 1.024,-2.049 1.245,-2.708 h 11.956 c 0.209,0.537 0.676,1.435 1.032,2.208 l 0.513,1.067 c 0.004,0.008 0.006,0.013 0.01,0.021 0.2,0.424 0.462,1.181 0.386,1.291 h 7.133 z" id="path886" style="fill:#ffffff" transform="matrix(3.6747592,0,0,3.6747592,-1599.9975,-1728.1143)"/><path clip-path="url(#SVGID_117_)" d="m 606.786,513.885 c -0.002,0.123 -0.85,0.222 -1.338,0.226 h -0.022 -0.181 -0.005 -21.646 -0.005 -0.18 -0.023 c -0.489,-0.004 -1.336,-0.103 -1.338,-0.226 v -10e-4 5.71 -0.002 c 0.002,-0.122 0.849,-0.222 1.338,-0.225 h 0.023 0.185 2.082 5.288 v 15.874 c 0,10e-4 0,0.002 0,0.003 v 0.183 0.022 c -0.003,0.489 -0.103,1.337 -0.225,1.338 -10e-4,0 -10e-4,0 -0.002,0 h 7.359 -10e-4 c -0.123,-0.001 -0.223,-0.849 -0.226,-1.338 v -0.022 -0.183 -0.003 -15.874 h 5.288 2.082 0.186 0.022 c 0.488,0.003 1.336,0.103 1.338,0.225 0,10e-4 0,0.002 0,0.002 v -5.709 l 10e-4,0" id="path888" style="fill:#ffffff" transform="matrix(3.6747592,0,0,3.6747592,-1599.9975,-1728.1143)"/><path clip-path="url(#SVGID_117_)" d="m 566.167,504.094 c -0.002,0.123 -0.849,0.222 -1.338,0.225 h -0.022 -0.186 -2.082 -12.039 v -15.873 c 0,-0.001 0,-0.002 0,-0.003 v -0.183 -0.022 c 0.003,-0.49 0.103,-1.336 0.226,-1.338 10e-4,0 10e-4,-10e-4 10e-4,-10e-4 h -7.359 l 10e-4,10e-4 c 0.123,0.002 0.222,0.848 0.226,1.338 v 0.022 0.183 0.003 19.584 0.002 0.184 0.022 c -0.004,0.489 -0.103,1.336 -0.226,1.338 h -10e-4 21.254 c 0.001,0 0.002,0 0.002,0 h 0.184 0.022 c 0.489,0.003 1.336,0.103 1.338,0.226 v 10e-4 -5.709 l -10e-4,0 z" id="path890" style="fill:#ffffff" transform="matrix(3.6747592,0,0,3.6747592,-1599.9975,-1728.1143)"/><path clip-path="url(#SVGID_117_)" d="m 515.594,518.646 h 0.003 0.182 0.023 c 0.488,0.003 1.336,0.102 1.338,0.226 v -4.987 c -0.002,0.123 -0.85,0.223 -1.338,0.226 h -0.023 -0.185 -4.484 l 2.285,-2.269 h -7.763 c -0.124,0 -0.282,0.086 -0.351,0.19 l -1.352,2.079 -10.519,10e-4 h 10e-4 c 0.123,0.002 0.223,0.849 0.226,1.338 v 0.022 0.185 2.083 15.42 2.082 0.186 0.022 c -0.003,0.487 -0.102,1.328 -0.224,1.337 h 20.097 1.671 0.597 0.023 c 0.488,0.003 1.336,0.103 1.338,0.226 v -4.986 c -0.002,0.123 -0.85,0.222 -1.338,0.225 h -0.023 -0.593 -0.004 -14.637 v -5.102 h 7.606 2.269 0.021 c 0.49,0.003 1.336,0.102 1.338,0.225 v -4.78 c -0.002,0.123 -0.848,0.223 -1.338,0.225 h -0.021 -0.187 -2.082 -7.606 v -4.174 h 15.05 z" id="path892" style="fill:#ffffff" transform="matrix(3.6747592,0,0,3.6747592,-1599.9975,-1728.1143)"/>
</svg>