<?xml version="1.0" encoding="UTF-8" standalone="no"?>
<!-- Created with Inkscape (http://www.inkscape.org/) -->

<svg
   xmlns:dc="http://purl.org/dc/elements/1.1/"
   xmlns:cc="http://creativecommons.org/ns#"
   xmlns:rdf="http://www.w3.org/1999/02/22-rdf-syntax-ns#"
   xmlns:svg="http://www.w3.org/2000/svg"
   xmlns="http://www.w3.org/2000/svg"
   xmlns:sodipodi="http://sodipodi.sourceforge.net/DTD/sodipodi-0.dtd"
   xmlns:inkscape="http://www.inkscape.org/namespaces/inkscape"
   width="858"
   height="215"
   id="svg2"
   version="1.1"
   inkscape:version="0.47 r22583">
  <g
     inkscape:label="Layer 1"
     inkscape:groupmode="layer"
     id="layer1"
     transform="translate(37.526685,-398.70758)">
    <path
       id="path24315"
       d="m -37.526685,461.01661 0,-62.30834 279.380785,0 0,62.30834 -52.727,0 0,-0.68406 c -1.37026,-15.74901 -12.32592,-23.28116 -28.76049,-26.01698 l -149.276651,0 0,26.7019 -48.616644,0 z"
       style="fill:#be0027;fill-rule:nonzero;stroke:none" />
    <path
       id="path24317"
       d="m 81.620713,461.70046 c 0,-3.42351 0.684061,-6.16232 0.684061,-8.90092 l 31.499516,0 c 5.47826,0 8.9022,4.10843 8.9022,7.53216 l 0,0.68406 -41.086205,0.68406 z"
       style="fill:#be0027;fill-rule:nonzero;stroke:none" />
    <path
       id="path24319"
       d="m -37.526685,461.01661 0,91.75247 279.380785,0 0,-91.75247 -52.727,0 c -2.05432,19.85637 -15.74986,28.75836 -33.55105,26.70361 l 45.19163,27.38959 -73.26657,0 -31.50058,-28.07451 -13.695115,0 0,28.07451 -71.215456,0 0,-54.0932 -48.616644,0 z"
       style="fill:#be0027;fill-rule:nonzero;stroke:none" />
    <path
       id="path24321"
       d="m 81.620713,461.70046 c 0,2.73966 0.684061,5.47826 0.684061,8.21686 l 31.499516,0 c 4.79334,-0.68407 8.21707,-3.42352 8.9022,-8.90071 l -41.086205,0.68406 z"
       style="fill:#be0027;fill-rule:nonzero;stroke:none" />
    <path
       id="path24323"
       d="m 256.91905,474.71087 0,-76.0026 269.7943,0 0,76.0026 -96.55008,0 0,-20.54235 49.30071,0 0,-19.17166 -174.61043,0 0,19.17166 49.9852,0 0,20.54235 -97.9197,0 z"
       style="fill:#e6cf29;fill-rule:nonzero;stroke:none" />
    <path
       id="path24325"
       d="m 256.91905,474.71087 0,78.05821 269.7943,0 0,-78.05821 -96.55008,0 0,40.39894 -75.32452,0 0,-40.39894 -97.9197,0 z"
       style="fill:#e6cf29;fill-rule:nonzero;stroke:none" />
    <path
       id="path24327"
       d="m 541.09275,474.71087 0,-76.0026 279.38056,0 0,76.0026 -148.5913,0 0,-39.71401 -78.74633,0 0,39.71401 -52.04293,0 z"
       style="fill:#381778;fill-rule:nonzero;stroke:none" />
    <path
       id="path24329"
       d="m 541.09275,474.71087 0,78.05821 279.38056,0 0,-78.05821 -148.5913,0 0,23.96501 100.66022,0 0,16.43393 -179.40655,0 0,-40.39894 -52.04293,0 z"
       style="fill:#381778;fill-rule:nonzero;stroke:none" />
    <path
       id="path24331"
       d="m -23.14644,588.37467 0,24.648 -4.108428,0 0,-24.648 -10.271817,0 0,-3.42651 26.021681,0 0,3.42651 -11.641436,0 z"
       style="fill:#000000;fill-rule:nonzero;stroke:none" />
    <path
       id="path24333"
       d="m 57.654207,613.02267 0,-28.07451 22.597528,0 0,3.42651 -18.488886,0 0,8.21407 17.80397,0 0,4.10843 -17.80397,0 0,8.90199 19.172734,0 0,3.42351 -23.281376,0 z"
       style="fill:#000000;fill-rule:nonzero;stroke:none" />
    <path
       id="path24335"
       d="m 152.8366,613.02267 0,-28.07451 4.10864,0 0,24.651 17.80162,0 0,3.42351 -21.91026,0 z"
       style="fill:#000000;fill-rule:nonzero;stroke:none" />
    <path
       id="path24337"
       d="m 244.59312,613.02267 0,-28.07451 22.59774,0 0,3.42651 -18.48931,0 0,8.21407 17.80397,0 0,4.10843 -17.80397,0 0,8.90199 19.1738,0 0,3.42351 -23.28223,0 z"
       style="fill:#000000;fill-rule:nonzero;stroke:none" />
    <path
       id="path24339"
       d="m 347.99108,613.02267 -12.32549,-28.07451 4.108,0 10.27117,24.651 10.95631,-24.651 4.10864,0 -13.00977,28.07451 -4.10886,0 z"
       style="fill:#000000;fill-rule:nonzero;stroke:none" />
    <path
       id="path24341"
       d="m 434.9564,613.02267 0,-28.07451 4.10886,0 0,28.07451 -4.10886,0 z"
       style="fill:#000000;fill-rule:nonzero;stroke:none" />
    <path
       id="path24343"
       d="m 510.96349,603.43876 4.10886,0 c 0,2.05218 0.68406,4.10543 2.05432,4.79056 1.37026,1.37026 3.42394,2.05433 6.84766,2.05433 2.05432,0 4.10886,-0.68407 6.16403,-1.36813 1.36812,-0.68406 2.05432,-2.05432 2.05432,-3.42351 0,-1.37026 -0.68406,-2.05218 -1.37026,-2.73881 -0.68406,-0.68406 -1.36812,-1.37026 -4.10778,-1.37026 l -6.84788,-1.37026 c -2.73967,-0.68406 -4.79313,-1.36812 -6.16339,-2.73859 -1.36812,-0.68406 -2.05432,-2.7386 -2.05432,-4.79057 0,-2.74159 1.36812,-4.79334 3.42372,-6.1651 2.05432,-1.37026 4.79313,-2.05218 8.21729,-2.05218 4.10864,0 7.53151,0.68192 9.58668,2.05218 1.37026,2.05646 2.73881,4.11035 2.73881,6.84703 l -4.10885,0 c 0,-2.05433 -0.6862,-2.73668 -2.05432,-4.10544 -2.05432,-0.68406 -3.42394,-1.37026 -6.16275,-1.37026 -2.05432,0 -4.10864,0.68406 -5.4789,1.37026 -1.36812,0.68192 -2.05432,2.05218 -2.05432,3.42351 0,0.68193 0.68406,2.05219 1.36812,2.05219 0.68406,0.68619 2.05432,1.37025 4.10885,1.37025 l 6.16361,1.36813 c 3.42287,0.68406 6.16296,1.37239 6.84766,2.73859 1.37026,1.37026 2.05432,2.73967 2.05432,4.79335 0,2.73859 -0.68406,4.79355 -2.73859,6.84723 -2.74009,1.37026 -6.16296,2.05432 -10.27161,2.05432 -4.10864,0 -6.84787,-0.68406 -9.58754,-2.73966 -2.05432,-1.36812 -2.73859,-4.10864 -2.73859,-7.52916 z"
       style="fill:#000000;fill-rule:nonzero;stroke:none" />
    <path
       id="path24345"
       d="m 607.51593,613.02267 0,-28.07451 4.10821,0 0,28.07451 -4.10821,0 z"
       style="fill:#000000;fill-rule:nonzero;stroke:none" />
    <path
       id="path24347"
       d="m 683.52323,598.6452 c 0,-4.11014 1.36812,-7.53386 4.10779,-10.27053 2.73966,-2.73881 6.1636,-4.10843 10.95651,-4.10843 5.47848,0 9.58648,1.37026 12.32572,4.10843 2.73902,2.73667 4.10928,6.16039 4.10928,10.27053 l -4.79377,0 c 0,-2.7403 -0.6862,-5.48018 -2.73903,-7.53386 -2.05432,-2.05218 -4.79377,-3.42159 -8.9022,-3.42159 -3.42372,0 -6.16296,1.37026 -8.21685,3.42159 -2.05432,2.05432 -2.73966,4.79356 -2.73966,7.53386 l -4.10779,0 z"
       style="fill:#000000;fill-rule:nonzero;stroke:none" />
    <path
       id="path24349"
       d="m 683.52323,598.6452 0,0.68193 c 0,4.11142 1.36812,7.53193 4.10779,10.2716 2.73966,2.73859 6.1636,4.10843 10.95651,4.10843 5.47848,0 9.58648,-1.37026 12.32572,-4.10843 2.73902,-2.73967 4.10928,-6.16018 4.10928,-10.2716 l 0,-0.68193 -4.79377,0 0,0.68193 c 0,3.42436 -0.6862,5.47826 -2.73903,7.53193 -2.05432,2.05433 -4.79377,3.42373 -8.9022,3.42373 -3.42372,0 -6.16296,-1.36812 -8.21685,-3.42373 -2.05432,-1.36812 -2.73966,-4.10757 -2.73966,-7.53193 l 0,-0.68193 -4.10779,0 z"
       style="fill:#000000;fill-rule:nonzero;stroke:none" />
    <path
       id="path24351"
       d="m 786.23521,613.02267 0,-28.07451 5.47847,0 18.48931,23.96608 0,-23.96608 4.10779,0 0,28.07451 -5.47783,0 -18.48632,-23.96309 0,23.96309 -4.11142,0 z"
       style="fill:#000000;fill-rule:nonzero;stroke:none" />
  </g>
</svg>
