<?xml version="1.0" encoding="UTF-8" standalone="no"?>
<!-- Created with Inkscape (http://www.inkscape.org/) -->
<svg xmlns:dc="http://purl.org/dc/elements/1.1/" xmlns:cc="http://web.resource.org/cc/" xmlns:rdf="http://www.w3.org/1999/02/22-rdf-syntax-ns#" xmlns:svg="http://www.w3.org/2000/svg" xmlns="http://www.w3.org/2000/svg" xmlns:xlink="http://www.w3.org/1999/xlink" xmlns:sodipodi="http://sodipodi.sourceforge.net/DTD/sodipodi-0.dtd" xmlns:inkscape="http://www.inkscape.org/namespaces/inkscape" width="248" height="77" id="svg2" sodipodi:version="0.32" inkscape:version="0.45.1" version="1.0" inkscape:output_extension="org.inkscape.output.svg.inkscape">
  <g inkscape:label="Layer 1" inkscape:groupmode="layer" id="layer1" transform="translate(-100.10947,-918.80293)">
    <g id="g3766" clip-path="url(#id36)" transform="matrix(1,0,0,-1,40.309196,1416.7183)">
      <g id="g3768" clip-path="url(#id37)">
        <g id="g3770" transform="matrix(5.0401,0,0,4.9633,536.9738,923.9075)">
          <use id="use3772" xlink:href="#id38" x="0" y="0" width="744.09448" height="1052.3622"/>
        </g>
      </g>
    </g>
    <g id="g9522" clip-path="url(#id123)" transform="matrix(1,0,0,-1,40.309196,1416.7183)">
      <g id="g9524" transform="matrix(2.98877,-5.627914,-2.368079,-1.2576,127.81424,907.27368)">
        <g id="g9526" clip-path="url(#id124)">
          <g id="g9528" transform="matrix(0.461702,0,0,-0.928993,-9.701e-2,0.964531)">
            <use id="use9530" xlink:href="#id125" x="0" y="0" width="744.09448" height="1052.3622"/>
          </g>
        </g>
      </g>
    </g>
    <g id="g9532" clip-path="url(#id126)" transform="matrix(1,0,0,-1,40.309196,1416.7183)">
      <g id="g9534" transform="matrix(2.98877,-5.627914,-1.607287,-0.853574,125.84421,906.22748)">
        <g id="g9536" clip-path="url(#id127)">
          <g id="g9538" transform="matrix(0.592333,0,0,-1.611694,0.256922,1.09642)">
            <use id="use9540" xlink:href="#id128" x="0" y="0" width="744.09448" height="1052.3622"/>
          </g>
        </g>
      </g>
    </g>
    <g id="g9542" clip-path="url(#id129)" transform="matrix(1,0,0,-1,40.309196,1416.7183)">
      <g id="g9544" transform="matrix(2.98877,-5.627914,-3.64952,-1.938136,130.57352,908.73907)">
        <g id="g9546" clip-path="url(#id130)">
          <g id="g9548" transform="matrix(0.953197,0,0,-1.019833,0.156406,1.042942)">
            <use id="use9550" xlink:href="#id131" x="0" y="0" width="744.09448" height="1052.3622"/>
          </g>
        </g>
      </g>
    </g>
    <g id="g9552" clip-path="url(#id132)" transform="matrix(1,0,0,-1,40.309196,1416.7183)">
      <g id="g9554" transform="matrix(3.04801,0,0,-0.767771,128.26166,907.26373)">
        <g id="g9556" clip-path="url(#id133)">
          <g id="g9558" transform="matrix(0.999985,0,0,-0.751587,-3.304e-3,0.875854)">
            <use id="use9560" xlink:href="#id134" x="0" y="0" width="744.09448" height="1052.3622"/>
          </g>
        </g>
      </g>
    </g>
    <g id="g9570" clip-path="url(#id138)" transform="matrix(1,0,0,-1,40.309196,1416.7183)">
      <g id="g9572" transform="matrix(0,7.154098,7.154098,0,128.10525,898.52161)">
        <g id="g9574" clip-path="url(#id139)">
          <g id="g9576" transform="matrix(9.5924e-2,0,0,-0.481243,0.755779,0.228798)">
            <use id="use9578" xlink:href="#id140" x="0" y="0" width="744.09448" height="1052.3622"/>
          </g>
        </g>
      </g>
    </g>
    <g id="g9580" clip-path="url(#id141)" transform="matrix(1,0,0,-1,40.309196,1416.7183)">
      <g id="g9582" transform="matrix(-1.303587,5.850471,2.852159,0.635516,124.5257,901.55084)">
        <g id="g9584" clip-path="url(#id142)">
          <g id="g9586" transform="matrix(1.042439,0,0,-0.977676,-0.134702,1.010315)">
            <use id="use9588" xlink:href="#id143" x="0" y="0" width="744.09448" height="1052.3622"/>
          </g>
        </g>
      </g>
    </g>
    <g id="g9590" clip-path="url(#id144)" transform="matrix(1,0,0,-1,40.309196,1416.7183)">
      <g id="g9592" transform="matrix(3.042443,0,0,-0.767953,124.73013,907.26392)">
        <g id="g9594" clip-path="url(#id145)">
          <g id="g9596" transform="matrix(0.999992,0,0,-0.751556,-3.273e-3,0.875916)">
            <use id="use9598" xlink:href="#id146" x="0" y="0" width="744.09448" height="1052.3622"/>
          </g>
        </g>
      </g>
    </g>
    <g id="g9600" clip-path="url(#id147)" transform="matrix(1,0,0,-1,40.309196,1416.7183)">
      <g id="g9602" transform="matrix(1.094848,0,0,-0.767569,126.25134,901.79102)">
        <g id="g9604" clip-path="url(#id148)">
          <g id="g9606" transform="matrix(2.778687,0,0,-0.751404,-1.398529,0.875854)">
            <use id="use9608" xlink:href="#id149" x="0" y="0" width="744.09448" height="1052.3622"/>
          </g>
        </g>
      </g>
    </g>
    <g id="g9610" clip-path="url(#id150)" transform="matrix(1,0,0,-1,40.309196,1416.7183)">
      <g id="g9612" transform="matrix(-4.419651,4.419651,1.202455,1.202455,130.80536,903.25671)">
        <g id="g9614" clip-path="url(#id151)">
          <g id="g9616" transform="matrix(0.45751,0,0,-1.68158,0.273922,1.18438)">
            <use id="use9618" xlink:href="#id152" x="0" y="0" width="744.09448" height="1052.3622"/>
          </g>
        </g>
      </g>
    </g>
    <g id="g9620" clip-path="url(#id153)" transform="matrix(1,0,0,-1,40.309196,1416.7183)">
      <g id="g9622" transform="matrix(-4.419651,4.419651,2.627123,2.627123,128.393,900.84448)">
        <g id="g9624" clip-path="url(#id154)">
          <g id="g9626" transform="matrix(0.563894,0,0,-0.948647,-0.121582,0.974327)">
            <use id="use9628" xlink:href="#id155" x="0" y="0" width="744.09448" height="1052.3622"/>
          </g>
        </g>
      </g>
    </g>
    <g id="g9630" clip-path="url(#id156)" transform="matrix(1,0,0,-1,40.309196,1416.7183)">
      <g id="g9632" transform="matrix(1.098599,0,0,-0.772229,129.78348,901.79553)">
        <g id="g9634" clip-path="url(#id157)">
          <g id="g9636" transform="matrix(2.772614,0,0,-0.75296,-1.392609,0.876465)">
            <use id="use9638" xlink:href="#id158" x="0" y="0" width="744.09448" height="1052.3622"/>
          </g>
        </g>
      </g>
    </g>
    <g id="g10128" clip-path="url(#id189)" transform="matrix(1,0,0,-1,40.309196,1416.7183)">
      <g id="g10130" clip-path="url(#id190)">
        <g id="g10132" transform="matrix(5.0395,0,0,4.8479,279.143,797.9768)">
          <use id="use10134" xlink:href="#id191" x="0" y="0" width="744.09448" height="1052.3622"/>
        </g>
      </g>
    </g>
    <g id="g10492" clip-path="url(#id223)" transform="matrix(1,0,0,-1,40.309196,1416.7183)">
      <g id="g10494" clip-path="url(#id224)">
        <g id="g10496" clip-path="url(#id225)">
          <g id="g10498" transform="matrix(40.0893,0,0,20.0998,350.61,945.9702)">
            <use id="use10500" xlink:href="#id226" x="0" y="0" width="744.09448" height="1052.3622"/>
          </g>
        </g>
      </g>
    </g>
    <g id="g10728" clip-path="url(#id242)" transform="matrix(1,0,0,-1,40.309196,1416.7183)">
      <g id="g10730" transform="matrix(8.3998,0,0,8.3914,437.8569,826.4144)">
        <use id="use10732" xlink:href="#id243" x="0" y="0" width="744.09448" height="1052.3622"/>
      </g>
    </g>
    <g id="g6238" transform="matrix(9.6060735,0,0,9.6060735,-861.54955,-8569.9452)">
      <path style="fill:#632692;fill-rule:nonzero;stroke:none" d="M 111.33448,991.545 C 109.22148,992.712 107.69348,993.256 106.45348,993.645 C 107.21548,994.375 108.44948,994.787 109.72548,994.12 C 110.45548,993.739 111.12848,992.902 111.27948,992.093 C 111.31148,991.919 111.33048,991.735 111.33448,991.545 z M 110.77948,988.716 C 113.25748,988.026 115.04448,987.859 115.25448,988.393 C 115.46548,988.927 114.16848,989.929 112.02948,991.177 C 112.08848,991.567 112.08948,991.973 112.02548,992.382 C 111.86248,993.434 111.29948,994.358 110.44048,994.985 C 109.58048,995.613 108.52848,995.868 107.47748,995.705 C 106.43248,995.542 105.51048,994.975 104.89248,994.143 C 102.66448,994.72 101.07148,995.018 100.10948,995.143 C 106.34648,993.469 110.59348,990.807 111.19448,990.468 C 110.79648,989.089 109.27948,987.569 106.72448,988.027 C 107.35348,987.797 108.03748,987.73 108.70248,987.834 C 110.08248,988.049 111.18848,988.952 111.72348,990.139 C 112.69748,989.507 113.23348,988.994 113.12648,988.722 C 113.00548,988.413 112.12748,988.434 110.77948,988.716" id="path11026"/>
      <path style="fill:#632692;fill-rule:nonzero;stroke:none" d="M 119.96648,992.491 L 120.74048,992.491 L 120.74048,995.712 L 119.96648,995.712 L 119.96648,992.491 z " id="path11028"/>
      <path style="fill:#632692;fill-rule:nonzero;stroke:none" d="M 123.11848,993.779 L 123.11848,995.719 L 122.33948,995.719 L 122.33948,992.359 C 122.33948,991.76 122.36248,991.409 122.64148,991.147 C 122.92448,990.882 123.31148,990.851 124.06548,990.851 L 124.91148,990.851 L 124.91148,991.554 C 124.82948,991.554 124.41748,991.553 124.13348,991.553 C 123.64448,991.553 123.43848,991.572 123.28148,991.732 C 123.16348,991.853 123.11848,992.047 123.11848,992.347 L 123.11848,993.004 L 124.53948,993.004 L 124.53948,993.779 L 123.11848,993.779" id="path11030"/>
      <path style="fill:#632692;fill-rule:nonzero;stroke:none" d="M 125.15248,992.491 L 125.92648,992.491 L 125.92648,995.712 L 125.15248,995.712 L 125.15248,992.491 z " id="path11032"/>
      <path style="fill:#632692;fill-rule:nonzero;stroke:none" d="M 116.77248,994.139 C 116.77248,995.069 117.54648,995.798 118.53448,995.798 C 118.87348,995.798 119.16048,995.732 119.43648,995.59 L 119.46848,995.573 L 119.46848,994.659 L 119.36548,994.769 C 119.12748,995.024 118.85048,995.134 118.54048,995.134 C 117.92848,995.134 117.50048,994.714 117.50048,994.113 C 117.50048,993.567 117.95848,993.106 118.50048,993.106 C 118.84148,993.106 119.12548,993.21 119.36548,993.473 L 119.46848,993.585 L 119.46848,992.668 L 119.43748,992.651 C 119.20048,992.518 118.88348,992.442 118.56848,992.442 C 117.54448,992.442 116.77248,993.171 116.77248,994.139" id="path11034"/>
      <path style="fill:#632692;fill-rule:nonzero;stroke:none" d="M 114.75848,995.082 C 115.21348,995.082 115.61748,994.734 115.61748,994.274 C 115.61748,994.034 115.52548,993.88 115.38548,993.758 C 115.31248,993.695 115.22548,993.64 115.12648,993.587 C 115.02648,993.534 114.91948,993.486 114.81248,993.437 L 114.52348,993.311 C 113.97148,993.06 113.42448,992.75 113.42448,991.993 C 113.42448,991.179 114.11548,990.672 114.86548,990.672 C 115.43548,990.672 115.92048,990.966 116.19148,991.467 L 116.24248,991.561 L 115.63048,991.955 L 115.56948,991.85 C 115.39548,991.548 115.20248,991.392 114.85248,991.392 C 114.48448,991.392 114.18248,991.653 114.18248,992.012 C 114.18248,992.17 114.26148,992.289 114.38948,992.392 C 114.52148,992.497 114.69248,992.575 114.85548,992.648 L 115.16948,992.786 C 115.78548,993.056 116.37548,993.391 116.37548,994.223 C 116.37548,995.119 115.65448,995.802 114.77148,995.802 C 113.95348,995.802 113.34348,995.271 113.18148,994.485 L 113.16248,994.382 L 113.90548,994.171 L 113.92348,994.301 C 113.98648,994.739 114.31748,995.082 114.75848,995.082" id="path11036"/>
    </g>
    <g id="g11250" clip-path="url(#id290)" transform="matrix(1,0,0,-1,40.309196,1416.7183)">
      <g id="g11252" transform="matrix(-8.678422,12.388888,14.344501,10.039913,421.36868,789.32349)">
        <g id="g11254" clip-path="url(#id291)">
          <g id="g11256" transform="matrix(1.090526,0,0,-1.094668,-0.100624,0.99128)">
            <use id="use11258" xlink:href="#id292" x="0" y="0" width="744.09448" height="1052.3622"/>
          </g>
        </g>
      </g>
    </g>
    <g id="g11322" clip-path="url(#id299)" transform="matrix(1,0,0,-1,40.309196,1416.7183)">
      <g id="g11324" transform="matrix(9.419251,-9.498138,-6.989892,-7.048432,211.69089,779.40576)">
        <g id="g11326" clip-path="url(#id300)">
          <g id="g11328" transform="matrix(1.151451,0,0,-1.551641,-1.7009e-2,1.202825)">
            <use id="use11330" xlink:href="#id301" x="0" y="0" width="744.09448" height="1052.3622"/>
          </g>
        </g>
      </g>
    </g>
    <g id="g11332" clip-path="url(#id302)" transform="matrix(1,0,0,-1,40.309196,1416.7183)">
      <g id="g11334" transform="matrix(-11.075449,-2.992517,-3.116866,11.729728,221.5865,769.21942)">
        <g id="g11336" clip-path="url(#id303)">
          <g id="g11338" transform="matrix(1.081403,0,0,-1.085418,-4.0782e-2,1.040157)">
            <use id="use11340" xlink:href="#id304" x="0" y="0" width="744.09448" height="1052.3622"/>
          </g>
        </g>
      </g>
    </g>
    <g id="g12370" clip-path="url(#id349)" transform="matrix(1,0,0,-1,40.309196,1416.7183)">
      <g id="g12372" transform="matrix(14.425248,-14.425248,-14.425597,-14.425597,186.89969,834.87714)">
        <g id="g12374" clip-path="url(#id350)">
          <g id="g12376" transform="matrix(0.969971,0,0,-0.969947,1.4997e-2,0.984974)">
            <use id="use12378" xlink:href="#id351" x="0" y="0" width="744.09448" height="1052.3622"/>
          </g>
        </g>
      </g>
    </g>
    <g id="g12380" clip-path="url(#id352)" transform="matrix(1,0,0,-1,40.309196,1416.7183)">
      <g id="g12382" transform="matrix(0,6.514376,6.637661,0,171.65855,818.68323)">
        <g id="g12384" clip-path="url(#id353)">
          <g id="g12386" transform="matrix(0.90596,0,0,-0.907677,4.6989e-2,0.953827)">
            <use id="use12388" xlink:href="#id354" x="0" y="0" width="744.09448" height="1052.3622"/>
          </g>
        </g>
      </g>
    </g>
    <g id="g12390" clip-path="url(#id355)" transform="matrix(1,0,0,-1,40.309196,1416.7183)">
      <g id="g12392" transform="matrix(0,6.514376,6.637967,0,195.49745,818.6828)">
        <g id="g12394" clip-path="url(#id356)">
          <g id="g12396" transform="matrix(0.90596,0,0,-0.907642,4.7058e-2,0.953825)">
            <use id="use12398" xlink:href="#id357" x="0" y="0" width="744.09448" height="1052.3622"/>
          </g>
        </g>
      </g>
    </g>
    <g id="g14230" transform="matrix(21.8228,0,0,-14.534,358.28919,421.08229)">
      <use id="use14232" xlink:href="#id399" x="0" y="0" width="744.09448" height="1052.3622"/>
    </g>
    <g id="g14242" clip-path="url(#id403)" transform="matrix(1,0,0,-1,40.309196,1416.7183)">
      <g id="g14244" transform="matrix(5.761,0,0,8.0655,152.7613,996.3373)">
        <use id="use14246" xlink:href="#id404" x="0" y="0" width="744.09448" height="1052.3622"/>
      </g>
    </g>
    <g id="g14288" clip-path="url(#id408)" transform="matrix(1,0,0,-1,40.309196,1416.7183)">
      <g id="g14290" clip-path="url(#id409)">
        <g id="g14292" clip-path="url(#id410)">
          <g id="g14294" transform="matrix(29.7555,0,0,24.7666,179.53,993.2234)">
            <use id="use14296" xlink:href="#id411" x="0" y="0" width="744.09448" height="1052.3622"/>
          </g>
        </g>
      </g>
    </g>
    <g id="g14298" clip-path="url(#id412)" transform="matrix(1,0,0,-1,40.309196,1416.7183)">
      <g id="g14300" clip-path="url(#id413)">
        <g id="g14302" clip-path="url(#id414)">
          <g id="g14304" transform="matrix(30.4652,0,0,18.219,221.58,994.991)">
            <use id="use14306" xlink:href="#id415" x="0" y="0" width="744.09448" height="1052.3622"/>
          </g>
        </g>
      </g>
    </g>
    <g id="g14356" transform="matrix(38.1582,0,0,-10.6474,436.00919,419.42569)">
      <use id="use14358" xlink:href="#id416" x="0" y="0" width="744.09448" height="1052.3622"/>
    </g>
  </g>
</svg>