<?xml version="1.0" encoding="UTF-8" standalone="no"?>
<!-- Created with Inkscape (http://www.inkscape.org/) -->
<svg
   xmlns:dc="http://purl.org/dc/elements/1.1/"
   xmlns:cc="http://web.resource.org/cc/"
   xmlns:rdf="http://www.w3.org/1999/02/22-rdf-syntax-ns#"
   xmlns:svg="http://www.w3.org/2000/svg"
   xmlns="http://www.w3.org/2000/svg"
   xmlns:xlink="http://www.w3.org/1999/xlink"
   xmlns:sodipodi="http://sodipodi.sourceforge.net/DTD/sodipodi-0.dtd"
   xmlns:inkscape="http://www.inkscape.org/namespaces/inkscape"
   width="661"
   height="225"
   id="svg2"
   sodipodi:version="0.32"
   inkscape:version="0.45.1"
   version="1.0"
   inkscape:output_extension="org.inkscape.output.svg.inkscape">
  <g
     inkscape:label="Layer 1"
     inkscape:groupmode="layer"
     id="layer1"
     transform="translate(-96.421811,-513.22965)">
    <g
       id="g3960"
       transform="matrix(5.4676679,0,0,5.4676679,-430.77893,-3298.1549)">
      <path
         style="fill:#f7a500;fill-rule:nonzero;stroke:#f7a500;stroke-width:4.96099997;stroke-linecap:butt;stroke-linejoin:miter;stroke-miterlimit:4"
         d="M 214.833,717.65232 C 214.833,727.64532 188.882,735.74732 156.869,735.74732 C 124.856,735.74732 98.902,727.64532 98.902,717.65232 C 98.902,707.65432 124.856,699.55732 156.869,699.55732 C 188.882,699.55732 214.833,707.65432 214.833,717.65232 z "
         stroke-miterlimit="4"
         id="path2805" />
      <path
         style="fill:#ffffff;fill-rule:nonzero;stroke:none"
         d="M 211.693,711.49032 C 204.274,704.67132 180.788,699.52632 157.058,699.52632 C 141.666,699.52632 127.23,701.32532 116.416,704.59432 C 105.113,708.01332 99.027,712.74932 99.283,717.92632 C 99.452,721.27032 102.666,723.98932 106.454,723.98932 L 120.136,723.98932 C 121.088,723.98932 121.956,723.64132 122.573,723.00532 C 123.236,722.32132 123.585,721.33432 123.552,720.22432 C 123.485,717.90732 121.934,716.63132 119.189,716.63132 L 116.401,716.63132 C 115.271,716.63132 115.255,716.24032 115.249,715.98332 C 115.239,715.73132 115.298,715.63432 115.351,715.58432 C 115.571,715.35832 116.283,715.33732 116.994,715.33732 L 124.065,715.33732 L 124.135,715.19132 C 124.363,714.58432 124.696,714.06432 125.122,713.62332 C 125.697,713.03532 126.438,712.60932 127.334,712.34332 L 115.738,712.34332 C 114.092,712.34332 112.945,712.70532 112.232,713.44532 C 111.618,714.08232 111.348,714.96632 111.393,716.15732 C 111.506,719.04032 113.058,719.58532 115.883,719.58532 L 118.536,719.58532 C 119.857,719.58532 119.876,720.07132 119.879,720.32932 C 119.89,720.58832 119.813,720.70332 119.753,720.76532 C 119.584,720.93832 119.195,721.02932 118.606,721.02932 L 106.398,721.02932 C 104.401,721.02932 102.709,719.62332 102.628,717.89232 C 102.562,716.50132 103.311,715.07732 104.855,713.65932 C 112.063,707.05132 133.041,702.61132 157.058,702.61132 C 181.075,702.61132 202.056,707.05132 209.265,713.65932 C 210.806,715.07732 211.558,716.50132 211.492,717.89232 C 211.326,721.41932 205.637,725.19632 196.28,727.99732 C 185.934,731.09032 172.004,732.79432 157.058,732.79432 C 136.688,732.79432 118.919,729.88432 109.531,725.00832 L 109.452,724.96732 L 103.746,724.97032 L 104.642,725.59632 C 113.557,731.85632 133.64,735.74732 157.058,735.74732 C 181.198,735.74732 202.918,731.13532 211.107,724.27132 C 213.471,722.29132 214.72,720.15632 214.833,717.92632 C 214.945,715.67532 213.888,713.51032 211.693,711.49032"
         id="path2807" />
      <path
         style="fill:#ffffff;fill-rule:nonzero;stroke:#ffffff;stroke-width:0.85500002;stroke-linecap:butt;stroke-linejoin:miter;stroke-miterlimit:4"
         d="M 125.322,718.20432 C 125.322,714.63632 127.193,712.72932 130.825,712.72932 L 135.038,712.72932 L 135.038,715.01032 L 131.218,715.01032 C 129.371,715.01032 128.582,715.32032 128.522,717.06232 L 135.038,717.06232 L 135.038,719.34632 L 128.522,719.34632 C 128.582,721.15132 129.329,721.38132 131.2,721.38132 L 135.038,721.38132 L 135.038,723.66332 L 130.825,723.66332 C 127.193,723.66332 125.322,721.79332 125.322,718.20432 z "
         stroke-miterlimit="4"
         id="path2809" />
      <path
         style="fill:#ffffff;fill-rule:nonzero;stroke:#ffffff;stroke-width:0.85500002;stroke-linecap:butt;stroke-linejoin:miter;stroke-miterlimit:4"
         d="M 141.912,712.72932 C 144.194,712.72932 144.983,713.45532 144.983,715.48732 L 144.983,717.31532 L 142.224,717.31532 L 142.224,715.90232 C 142.224,714.92532 141.891,714.82132 140.959,714.82132 L 139.942,714.82132 L 139.942,723.66332 L 137.054,723.66332 L 137.054,712.72932 L 141.912,712.72932 z "
         stroke-miterlimit="4"
         id="path2811" />
      <path
         style="fill:#ffffff;fill-rule:nonzero;stroke:#ffffff;stroke-width:0.85500002;stroke-linecap:butt;stroke-linejoin:miter;stroke-miterlimit:4"
         d="M 146.811,712.72932 L 149.838,712.72932 L 149.838,723.66332 L 146.811,723.66332 L 146.811,712.72932 z M 146.811,708.76332 L 149.838,708.76332 L 149.838,711.48032 L 146.811,711.48032 L 146.811,708.76332 z "
         stroke-miterlimit="4"
         id="path2813" />
      <path
         style="fill:#ffffff;fill-rule:nonzero;stroke:#ffffff;stroke-width:0.85500002;stroke-linecap:butt;stroke-linejoin:miter;stroke-miterlimit:4"
         d="M 151.536,718.20432 C 151.536,714.63632 153.4,712.72932 157.033,712.72932 L 161.246,712.72932 L 161.246,715.01032 L 157.426,715.01032 C 155.578,715.01032 154.79,715.32032 154.728,717.06232 L 161.246,717.06232 L 161.246,719.34632 L 154.728,719.34632 C 154.79,721.15132 155.539,721.38132 157.405,721.38132 L 161.246,721.38132 L 161.246,723.66332 L 157.033,723.66332 C 153.4,723.66332 151.536,721.79332 151.536,718.20432 z "
         stroke-miterlimit="4"
         id="path2815" />
      <path
         style="fill:#ffffff;fill-rule:nonzero;stroke:#ffffff;stroke-width:0.85500002;stroke-linecap:butt;stroke-linejoin:miter;stroke-miterlimit:4"
         d="M 172.636,721.31632 L 172.636,723.66332 L 168.714,723.66332 C 166.909,723.66332 165.621,723.34732 164.606,722.35432 C 163.611,721.38132 162.985,719.88332 162.985,718.24532 C 162.985,716.52532 163.59,715.01032 164.606,714.03332 C 165.621,713.06132 166.909,712.72932 168.714,712.72932 L 172.636,712.72932 L 172.636,715.09132 L 169.565,715.09132 C 167.096,715.09132 165.995,715.71232 165.995,718.24532 C 165.995,719.55332 166.388,720.42632 167.284,720.96332 C 167.865,721.31632 168.589,721.31632 169.565,721.31632 L 172.636,721.31632 z "
         stroke-miterlimit="4"
         id="path2817" />
      <path
         style="fill:#ffffff;fill-rule:nonzero;stroke:#ffffff;stroke-width:0.85500002;stroke-linecap:butt;stroke-linejoin:miter;stroke-miterlimit:4"
         d="M 174.502,708.76332 L 177.513,708.76332 L 177.513,723.66332 L 174.502,723.66332 L 174.502,708.76332 z "
         stroke-miterlimit="4"
         id="path2819" />
      <path
         style="fill:#ffffff;fill-rule:nonzero;stroke:#ffffff;stroke-width:0.85500002;stroke-linecap:butt;stroke-linejoin:miter;stroke-miterlimit:4"
         d="M 184.1,723.66332 C 180.964,723.66332 179.554,722.52032 179.554,719.65932 L 179.554,712.72932 L 182.437,712.72932 L 182.437,719.43032 C 182.437,720.88132 182.81,721.25432 184.327,721.25432 L 186.651,721.25432 L 186.651,712.72932 L 189.536,712.72932 L 189.536,723.66332 L 184.1,723.66332 z "
         stroke-miterlimit="4"
         id="path2821" />
      <path
         style="fill:#ffffff;fill-rule:nonzero;stroke:#ffffff;stroke-width:0.85500002;stroke-linecap:butt;stroke-linejoin:miter;stroke-miterlimit:4"
         d="M 196.627,715.09132 C 198.866,715.09132 199.841,715.90232 199.841,718.26632 C 199.841,720.54732 198.99,721.31632 196.851,721.31632 L 194.86,721.31632 L 194.86,715.09132 L 196.627,715.09132 z M 194.86,708.76332 L 191.978,708.76332 L 191.978,723.66332 L 197.538,723.66332 C 200.92,723.66332 202.87,721.54532 202.87,718.05732 C 202.87,716.60832 202.477,715.40332 201.689,714.40732 C 200.65,713.10032 199.32,712.72932 197.35,712.72932 L 194.86,712.72932 L 194.86,708.76332 z "
         stroke-miterlimit="4"
         id="path2823" />
    </g>
  </g>
</svg>
