<?xml version="1.0" encoding="UTF-8"?>
<!DOCTYPE svg PUBLIC "-//W3C//DTD SVG 1.1//EN" "http://www.w3.org/Graphics/SVG/1.1/DTD/svg11.dtd">
<svg width="270pt" height="49pt" viewBox="0 0 270 49" version="1.1" xmlns="http://www.w3.org/2000/svg">
<g id="#ffffffff">
<path fill="#ffffff" opacity="1.00" d=" M 242.97 0.00 L 270.00 0.00 L 270.00 26.19 C 268.69 20.95 265.76 15.68 260.57 13.47 C 254.88 10.69 248.20 11.94 242.94 15.08 C 242.93 10.05 242.91 5.03 242.97 0.00 Z"/>
</g>
<g id="#97cde8ff">
<path fill="#97cde8" opacity="1.00" d=" M 183.07 0.00 L 191.06 0.00 C 191.58 15.63 191.17 31.29 191.27 46.93 C 188.54 46.92 185.81 46.92 183.07 46.93 C 183.05 31.29 183.07 15.64 183.07 0.00 Z"/>
<path fill="#97cde8" opacity="1.00" d=" M 234.77 0.00 L 242.97 0.00 C 242.91 5.03 242.93 10.05 242.94 15.08 C 248.20 11.94 254.88 10.69 260.57 13.47 C 265.76 15.68 268.69 20.95 270.00 26.19 L 270.00 33.44 C 268.37 37.34 266.37 41.34 262.84 43.86 C 255.74 49.32 244.30 48.43 238.56 41.39 C 235.70 37.96 234.73 33.39 234.76 29.01 C 234.76 19.34 234.78 9.67 234.77 0.00 M 248.34 20.37 C 241.75 23.45 241.16 33.88 246.98 38.02 C 250.08 40.32 254.68 40.26 257.73 37.87 C 262.21 34.42 262.72 27.21 259.28 22.86 C 256.78 19.62 251.99 18.56 248.34 20.37 Z"/>
<path fill="#97cde8" opacity="1.00" d=" M 151.66 18.64 C 158.02 10.14 171.81 9.57 179.09 17.19 C 177.53 19.04 175.99 20.91 174.40 22.73 C 170.64 19.87 165.24 18.01 160.94 20.84 C 154.58 24.61 154.86 35.14 161.29 38.69 C 165.54 41.33 170.75 39.35 174.39 36.60 C 175.93 38.32 177.44 40.06 178.94 41.82 C 172.44 48.83 160.27 49.34 153.41 42.59 C 146.79 36.61 145.94 25.51 151.66 18.64 Z"/>
<path fill="#97cde8" opacity="1.00" d=" M 197.38 12.42 C 200.11 12.40 202.84 12.40 205.58 12.42 C 205.62 18.61 205.55 24.80 205.58 30.99 C 205.57 33.72 206.02 36.90 208.50 38.51 C 211.34 40.28 215.43 40.18 218.02 38.00 C 220.25 35.98 220.30 32.76 220.33 29.97 C 220.31 24.12 220.28 18.26 220.32 12.41 C 223.05 12.40 225.78 12.41 228.52 12.43 C 228.45 19.57 228.71 26.71 228.38 33.85 C 228.14 39.06 225.08 44.30 220.03 46.12 C 214.83 47.98 208.68 47.88 203.81 45.12 C 199.62 42.69 197.54 37.78 197.45 33.08 C 197.24 26.20 197.40 19.31 197.38 12.42 Z"/>
</g>
<g id="#004b94ff">
<path fill="#004b94" opacity="1.00" d=" M 6.09 14.11 C 12.55 10.21 20.92 11.64 26.99 15.66 C 25.96 17.48 24.93 19.32 23.93 21.15 C 20.25 19.29 15.98 17.28 11.82 18.73 C 9.90 19.31 8.60 22.11 10.34 23.57 C 15.04 26.52 21.27 26.68 25.33 30.76 C 29.56 35.32 27.11 43.33 21.65 45.73 C 14.56 49.09 6.07 47.04 0.00 42.49 L 0.00 42.40 C 1.15 40.44 2.39 38.53 3.62 36.62 C 7.59 39.38 12.59 42.32 17.54 40.37 C 19.77 39.55 20.13 36.09 18.03 34.91 C 13.73 32.24 8.30 31.89 4.25 28.75 C -0.32 24.92 1.14 16.96 6.09 14.11 Z"/>
<path fill="#004b94" opacity="1.00" d=" M 37.53 15.58 C 43.67 10.34 53.93 10.48 59.49 16.52 C 63.64 20.97 64.59 27.34 64.39 33.20 C 56.16 33.22 47.92 33.16 39.69 33.23 C 40.66 36.25 42.74 39.08 45.99 39.82 C 50.24 41.23 54.62 39.41 57.98 36.82 C 59.41 38.56 60.84 40.31 62.28 42.06 C 55.68 48.13 44.56 49.48 37.34 43.77 C 28.91 36.93 29.17 22.37 37.53 15.58 M 39.65 26.52 C 45.15 26.55 50.64 26.55 56.14 26.51 C 55.49 22.93 53.09 19.26 49.14 19.00 C 44.44 18.24 40.44 22.10 39.65 26.52 Z"/>
<path fill="#004b94" opacity="1.00" d=" M 72.39 20.44 C 76.06 14.00 83.94 11.92 90.88 11.91 C 90.88 14.52 90.88 17.12 90.88 19.72 C 85.77 19.71 79.92 22.01 78.50 27.41 C 77.06 33.82 78.05 40.48 77.77 46.99 C 75.02 47.00 72.28 47.00 69.53 47.00 C 70.06 38.18 67.86 28.53 72.39 20.44 Z"/>
<path fill="#004b94" opacity="1.00" d=" M 96.13 12.39 C 98.87 12.39 101.61 12.41 104.36 12.41 C 104.35 23.92 104.36 35.42 104.35 46.93 C 101.60 46.93 98.86 46.93 96.12 46.93 C 96.13 35.42 96.11 23.91 96.13 12.39 Z"/>
<path fill="#004b94" opacity="1.00" d=" M 114.82 16.86 C 120.64 10.54 131.76 9.98 137.85 16.20 C 142.25 20.63 143.32 27.20 143.03 33.20 C 134.81 33.22 126.59 33.16 118.37 33.23 C 119.32 36.36 121.58 39.23 124.94 39.89 C 129.12 41.18 133.36 39.33 136.66 36.82 C 138.09 38.57 139.52 40.31 140.96 42.06 C 134.40 48.08 123.41 49.46 116.17 43.89 C 108.10 37.53 107.75 24.10 114.82 16.86 M 118.26 26.49 C 123.79 26.57 129.32 26.56 134.85 26.49 C 134.14 23.04 131.93 19.43 128.11 19.04 C 123.32 18.08 119.16 22.00 118.26 26.49 Z"/>
</g>
</svg>