<?xml version="1.0" encoding="utf-8"?>
<!-- Generator: Adobe Illustrator 16.0.0, SVG Export Plug-In . SVG Version: 6.00 Build 0)  -->
<!DOCTYPE svg PUBLIC "-//W3C//DTD SVG 1.1//EN" "http://www.w3.org/Graphics/SVG/1.1/DTD/svg11.dtd">
<svg version="1.1" id="Calque_1" xmlns="http://www.w3.org/2000/svg" xmlns:xlink="http://www.w3.org/1999/xlink" x="0px" y="0px"
	 width="400px" height="400px" viewBox="0 0 400 400" enable-background="new 0 0 400 400" xml:space="preserve">
<g id="_x23_000000ff">
	<path d="M0,15h40v8.897H0V15 M2.23,18.791c-0.192,0.964-0.397,1.926-0.593,2.889c0.378-0.003,0.757,0.001,1.135-0.003
		c0.091-0.487,0.203-0.97,0.297-1.456c1.449,0,2.896,0,4.345,0c-0.087,0.487-0.203,0.97-0.287,1.458c0.34,0,0.679-0.003,1.019,0.002
		c0.224-0.972,0.397-1.956,0.613-2.929c0.071-0.314,0.054-0.658-0.108-0.942c-0.21-0.381-0.646-0.599-1.074-0.589
		c-1.155-0.004-2.311-0.001-3.466-0.001C3.218,17.199,2.371,17.91,2.23,18.791 M9.301,18.541c-0.103,0.406-0.167,0.82-0.262,1.227
		c-0.074,0.364-0.19,0.75-0.059,1.115c0.141,0.47,0.616,0.791,1.1,0.793c1.175,0.006,2.351,0,3.525,0.003
		c0.875,0.022,1.698-0.657,1.876-1.508c-0.346,0.004-0.692,0.003-1.038,0c-0.044,0.235-0.218,0.475-0.481,0.462
		c-1.213,0.002-2.427,0.008-3.64-0.002c-0.206,0.01-0.313-0.231-0.251-0.404c0.114-0.539,0.212-1.08,0.337-1.616
		c0.047-0.212,0.259-0.362,0.474-0.345c1.198,0.001,2.397-0.003,3.595,0.002c0.235-0.015,0.318,0.252,0.265,0.442
		c0.347-0.005,0.693-0.004,1.04-0.001c0.079-0.426-0.019-0.907-0.367-1.191c-0.228-0.213-0.549-0.3-0.856-0.298
		c-1.154-0.001-2.31-0.001-3.464,0C10.296,17.211,9.539,17.785,9.301,18.541 M16.415,17.216c-0.086,0.339-0.179,0.676-0.247,1.019
		c0.902,0,1.805-0.001,2.708,0.001c-0.223,1.148-0.465,2.294-0.703,3.439c0.363,0.004,0.725,0,1.087,0.004
		c0.244-1.147,0.468-2.299,0.716-3.446c0.901-0.001,1.804,0.006,2.705-0.003c0.077-0.338,0.163-0.674,0.246-1.011
		C20.756,17.215,18.585,17.223,16.415,17.216 M23.496,17.219c-0.298,1.487-0.609,2.973-0.913,4.458c0.363,0.001,0.725,0,1.087,0.001
		c0.306-1.488,0.612-2.975,0.918-4.462C24.224,17.221,23.86,17.217,23.496,17.219 M26.56,17.224
		c-0.813,0.055-1.558,0.704-1.705,1.509c-0.109,0.491-0.206,0.985-0.307,1.478c-0.087,0.375,0.012,0.787,0.264,1.078
		c0.232,0.254,0.576,0.394,0.919,0.388c1.154,0.003,2.308,0,3.462,0.001c0.86,0.022,1.691-0.625,1.872-1.468
		c0.102-0.466,0.19-0.936,0.29-1.402c0.07-0.336,0.075-0.708-0.105-1.012c-0.215-0.385-0.668-0.588-1.099-0.577
		C28.955,17.221,27.757,17.212,26.56,17.224 M31.841,18.735c-0.201,0.981-0.415,1.958-0.599,2.942c0.376,0.001,0.752,0,1.129,0.001
		c0.194-1.001,0.398-2,0.606-2.998c0.027-0.227,0.237-0.432,0.473-0.414c1.2-0.001,2.401-0.002,3.602,0
		c0.173-0.017,0.279,0.141,0.304,0.293c-0.226,1.036-0.417,2.08-0.643,3.116c0.345,0.002,0.692,0,1.038,0
		c0.195-0.998,0.415-1.99,0.611-2.987c0.066-0.372,0.007-0.783-0.251-1.073c-0.245-0.273-0.617-0.407-0.979-0.398
		c-1.129-0.001-2.258,0-3.388-0.001C32.859,17.18,32.001,17.863,31.841,18.735z"/>
	<path d="M3.776,18.271c1.218-0.012,2.436-0.002,3.654-0.004c0.153-0.016,0.322,0.092,0.317,0.259
		c-0.004,0.212-0.077,0.416-0.109,0.625c-1.452,0.001-2.904,0-4.356,0.001C3.366,18.833,3.347,18.321,3.776,18.271z"/>
	<path d="M26,18.629c0.041-0.217,0.247-0.375,0.467-0.363c1.199,0.001,2.4-0.002,3.6,0.001c0.172-0.017,0.276,0.143,0.303,0.292
		c-0.137,0.594-0.244,1.195-0.379,1.79c-0.085,0.16-0.247,0.294-0.437,0.284c-1.152,0.005-2.303-0.001-3.455,0.003
		c-0.122,0.005-0.243-0.016-0.36-0.048c-0.034-0.094-0.112-0.186-0.08-0.292C25.769,19.74,25.88,19.183,26,18.629z"/>
</g>
<g id="_x23_ffffffff">
	<path fill="#FFFFFF" d="M2.23,18.791c0.141-0.881,0.988-1.592,1.881-1.571c1.155,0,2.311-0.002,3.466,0.001
		c0.429-0.01,0.864,0.208,1.074,0.589c0.162,0.284,0.179,0.628,0.108,0.942c-0.216,0.974-0.39,1.958-0.613,2.929
		c-0.34-0.005-0.679-0.001-1.019-0.002c0.084-0.488,0.199-0.971,0.287-1.458c-1.448,0-2.896,0-4.345,0
		c-0.094,0.486-0.206,0.969-0.297,1.456c-0.378,0.004-0.757,0-1.135,0.003C1.833,20.716,2.038,19.754,2.23,18.791 M3.776,18.271
		c-0.429,0.05-0.41,0.561-0.495,0.881c1.452-0.001,2.904,0,4.356-0.001c0.032-0.209,0.105-0.413,0.109-0.625
		c0.005-0.167-0.164-0.275-0.317-0.259C6.212,18.269,4.994,18.26,3.776,18.271z"/>
	<path fill="#FFFFFF" d="M9.301,18.541c0.238-0.756,0.995-1.33,1.793-1.321c1.155-0.001,2.31-0.001,3.464,0
		c0.307-0.002,0.628,0.084,0.856,0.298c0.348,0.285,0.446,0.766,0.367,1.191c-0.347-0.002-0.693-0.004-1.04,0.001
		c0.054-0.19-0.03-0.457-0.265-0.442c-1.198-0.005-2.397-0.001-3.595-0.002c-0.215-0.018-0.427,0.132-0.474,0.345
		c-0.125,0.536-0.224,1.077-0.337,1.616c-0.061,0.173,0.045,0.414,0.251,0.404c1.212,0.011,2.426,0.004,3.64,0.002
		c0.263,0.013,0.438-0.227,0.481-0.462c0.346,0.003,0.692,0.004,1.038,0c-0.178,0.852-1.001,1.53-1.876,1.508
		c-1.175-0.002-2.351,0.003-3.525-0.003c-0.483-0.003-0.959-0.324-1.1-0.793c-0.131-0.365-0.015-0.75,0.059-1.115
		C9.135,19.36,9.199,18.946,9.301,18.541z"/>
	<path fill="#FFFFFF" d="M16.415,17.216c2.171,0.006,4.341-0.001,6.512,0.003c-0.083,0.337-0.169,0.673-0.246,1.011
		c-0.901,0.009-1.804,0.002-2.705,0.003c-0.248,1.146-0.472,2.299-0.716,3.446c-0.362-0.004-0.724,0-1.087-0.004
		c0.238-1.146,0.48-2.291,0.703-3.439c-0.902-0.003-1.805-0.001-2.708-0.001C16.236,17.893,16.328,17.555,16.415,17.216z"/>
	<path fill="#FFFFFF" d="M23.496,17.219c0.364-0.002,0.728,0.002,1.092-0.003c-0.306,1.487-0.612,2.975-0.918,4.462
		c-0.362-0.001-0.725,0-1.087-0.001C22.887,20.192,23.198,18.707,23.496,17.219z"/>
	<path fill="#FFFFFF" d="M26.56,17.224c1.197-0.012,2.395-0.003,3.591-0.005c0.431-0.011,0.884,0.192,1.099,0.577
		c0.18,0.304,0.175,0.676,0.105,1.012c-0.1,0.466-0.188,0.937-0.29,1.402c-0.18,0.843-1.011,1.49-1.872,1.468
		c-1.154-0.001-2.308,0.001-3.462-0.001c-0.343,0.006-0.687-0.134-0.919-0.388c-0.252-0.291-0.351-0.704-0.264-1.078
		c0.101-0.493,0.198-0.987,0.307-1.478C25.002,17.928,25.748,17.279,26.56,17.224 M26,18.629c-0.12,0.554-0.231,1.111-0.34,1.668
		c-0.032,0.106,0.046,0.198,0.08,0.292c0.118,0.032,0.238,0.053,0.36,0.048c1.151-0.004,2.303,0.002,3.455-0.003
		c0.189,0.01,0.351-0.124,0.437-0.284c0.135-0.595,0.242-1.196,0.379-1.79c-0.027-0.15-0.131-0.309-0.303-0.292
		c-1.2-0.003-2.401,0-3.6-0.001C26.247,18.254,26.041,18.412,26,18.629z"/>
	<path fill="#FFFFFF" d="M31.841,18.735c0.16-0.872,1.018-1.555,1.903-1.517c1.129,0.001,2.258,0,3.388,0.001
		c0.362-0.008,0.734,0.125,0.979,0.398c0.258,0.29,0.318,0.701,0.251,1.073c-0.196,0.997-0.416,1.99-0.611,2.987
		c-0.346,0-0.693,0.001-1.038,0c0.226-1.036,0.417-2.08,0.643-3.116c-0.024-0.152-0.131-0.31-0.304-0.293
		c-1.201-0.003-2.401-0.001-3.602,0c-0.235-0.018-0.445,0.187-0.473,0.414c-0.208,0.998-0.412,1.997-0.606,2.998
		c-0.377-0.001-0.753,0-1.129-0.001C31.426,20.694,31.641,19.716,31.841,18.735z"/>
</g>
<g id="_x23_ffffffff_1_">
</g>
<g id="_x23_e83b71ff">
	<path fill="#E83B71" d="M45.137,10.041c1.347-0.057,2.698,0.001,4.045-0.041c-0.018,0.074-0.05,0.218-0.067,0.291
		c-0.781,1.415-1.56,2.832-2.349,4.244c1.541-0.059,3.119,0.328,4.361,1.266c0.974,0.74,1.795,1.735,2.181,2.91
		c0.094-0.587,0.052-1.181,0.059-1.772c0.003-2.256-0.006-4.51,0.004-6.766c1.223,0.003,2.447,0,3.67,0.001
		c0.004,1.176-0.001,2.352,0.001,3.528c0.833,0.004,1.663,0,2.496,0c0.016,1.007-0.012,2.014,0.015,3.021
		c0.344-0.317,0.554-0.749,0.884-1.079c1.113-1.178,2.622-2.025,4.241-2.216c1.12-0.031,2.285-0.115,3.351,0.3
		c2.303,0.71,4.042,2.785,4.521,5.123c0.249-1.381,0.707-2.787,1.733-3.792c0.671-0.663,1.506-1.148,2.412-1.409
		c1.06-0.357,2.192-0.213,3.289-0.241c0.006,1.128,0.02,2.256,0.015,3.382c-0.828,0-1.721-0.091-2.456,0.371
		c-0.975,0.512-1.398,1.669-1.388,2.719c0.004,2.655,0.007,5.313-0.001,7.968c-1.172,0.006-2.342,0.007-3.514,0
		c-0.025-1.872-0.003-3.744-0.011-5.616c-3.502-0.001-7.003-0.006-10.506,0.003c0.273,1.018,0.973,1.932,1.929,2.396
		c1.525,0.722,3.622,0.313,4.508-1.203c1.262-0.047,2.526-0.011,3.789-0.018c0.025,0.634-0.35,1.175-0.651,1.7
		c-1.042,1.728-2.978,2.773-4.952,2.999c-2.128,0.317-4.373-0.371-5.943-1.844c-0.411-0.314-0.645-0.806-1.061-1.107
		c-0.01,0.844,0.016,1.689-0.003,2.533c-0.109,0.248-0.429,0.147-0.638,0.18c-1.23,0.04-2.516-0.208-3.533-0.935
		c-1.162-0.813-1.838-2.177-2.045-3.554c-0.581,1.692-1.768,3.197-3.38,4.007c-2.019,1.067-4.572,1.05-6.576-0.042
		c-2.7-1.407-4.141-4.764-3.351-7.698c0.229-0.99,0.687-1.904,1.151-2.8c1.114-2.023,2.225-4.049,3.327-6.08
		C44.84,10.528,44.927,10.235,45.137,10.041 M62.165,19.289c2.326,0.004,4.651,0.006,6.977-0.001
		c-0.312-1.748-2.135-2.944-3.864-2.722C63.792,16.685,62.513,17.856,62.165,19.289 M57.043,16.94
		c-0.001,1.765,0.001,3.529-0.001,5.295c0.006,0.689,0.213,1.453,0.804,1.872c0.422,0.341,0.985,0.395,1.507,0.422
		c-0.16-0.531-0.467-1.004-0.6-1.545c-0.632-2-0.321-4.225,0.698-6.042C58.649,16.936,57.846,16.938,57.043,16.94 M46.24,17.921
		c-1.71,0.342-2.914,2.161-2.594,3.87c0.199,1.36,1.307,2.523,2.659,2.779c0.999,0.191,2.089-0.132,2.816-0.845
		c1.034-0.925,1.354-2.531,0.807-3.797C49.376,18.499,47.746,17.593,46.24,17.921z"/>
</g>
<g id="_x23_ffffffff_2_">
</g>
<g id="_x23_010101ff">
	<path fill="#010101" d="M96.068,0h0.015c0.846,0.821,1.662,1.674,2.514,2.489c-3.676,3.653-7.334,7.325-11.011,10.977
		c-1.684,1.704-3.41,3.368-5.072,5.094c-0.851-0.82-1.673-1.669-2.514-2.498v-0.15l0.001,0.142C85.351,10.696,90.721,5.359,96.068,0
		z"/>
	<path fill="#010101" d="M96.762,6.488c1.044-0.826,2.437-1.168,3.749-0.972c1.519,0.183,2.902,1.136,3.683,2.44
		c0.785,1.281,0.857,2.942,0.285,4.318c-0.648,1.342-1.76,2.368-2.802,3.4c-0.66,0.625-1.347,1.303-2.251,1.543
		c-0.573,0.166-1.167,0.031-1.732-0.092c0.113,0.545,0.172,1.113,0.069,1.664c-0.159,0.734-0.636,1.341-1.127,1.887
		c-0.8,0.848-1.627,1.669-2.478,2.466c-0.606,0.532-1.23,1.082-1.998,1.365c-1.174,0.385-2.501,0.437-3.647-0.075
		c-1.425-0.657-2.566-1.94-2.99-3.458c-0.356-1.161-0.17-2.453,0.438-3.498c0.611-1.059,1.606-1.808,2.421-2.698
		c0.844,0.896,1.746,1.737,2.602,2.622c-0.444,0.375-0.825,0.815-1.249,1.212c-0.285,0.264-0.521,0.593-0.612,0.976
		c-0.16,0.817,0.659,1.674,1.486,1.53c0.438-0.055,0.789-0.355,1.087-0.658c0.75-0.755,1.508-1.502,2.261-2.253
		c0.368-0.393,0.844-0.899,0.64-1.485c-0.265-0.61-0.759-1.086-1.236-1.534c0.782-0.767,1.568-1.529,2.327-2.317
		c0.489,0.417,0.91,0.948,1.519,1.201c0.502,0.208,1.011-0.125,1.361-0.463c0.755-0.746,1.511-1.49,2.256-2.248
		c0.342-0.342,0.516-0.89,0.303-1.345c-0.22-0.497-0.716-0.952-1.29-0.914c-0.463-0.033-0.855,0.273-1.151,0.593
		c-0.408,0.429-0.856,0.82-1.237,1.273c-0.895-0.852-1.732-1.762-2.634-2.606C95.48,7.756,96.064,7.062,96.762,6.488z"/>
	<path fill="#010101" d="M104.735,14.814c1.022-1.043,2.077-2.054,3.087-3.109c0.516,0.457,0.967,0.979,1.477,1.441
		c-0.184,0.203-0.378,0.395-0.567,0.593c-0.266-0.292-0.556-0.563-0.828-0.851c-0.212,0.232-0.432,0.457-0.67,0.662
		c0.238,0.265,0.5,0.504,0.762,0.744c-0.191,0.186-0.378,0.377-0.559,0.573c-0.24-0.264-0.5-0.507-0.744-0.768
		c-0.243,0.263-0.496,0.515-0.754,0.762c0.28,0.27,0.558,0.544,0.843,0.81c-0.186,0.196-0.385,0.377-0.566,0.577
		C105.7,15.793,105.261,15.258,104.735,14.814z"/>
	<path fill="#010101" d="M106.568,16.634c1.028-1.021,2.062-2.039,3.073-3.077c0.33,0.272,0.607,0.601,0.918,0.893
		c-0.62,0.952-1.22,1.918-1.892,2.834c0.913-0.681,1.896-1.26,2.834-1.903c0.294,0.297,0.57,0.617,0.9,0.877
		c-0.076,0.114-0.166,0.218-0.268,0.309c-0.959,0.928-1.874,1.899-2.845,2.815c-0.189-0.211-0.391-0.41-0.602-0.597
		c0.496-0.472,0.967-0.967,1.463-1.438c0.374-0.353,0.78-0.673,1.111-1.069c-0.954,0.765-2.032,1.347-3.039,2.034
		c-0.182-0.197-0.372-0.385-0.57-0.564c0.641-1.061,1.307-2.104,2.031-3.111c-0.811,0.896-1.654,1.761-2.515,2.608
		C106.964,17.048,106.761,16.846,106.568,16.634z"/>
	<path fill="#010101" d="M100.92,18.603c1.027-0.984,2.008-2.015,3.032-3.004c0.385,0.389,0.75,0.799,1.167,1.155
		c-0.58,0.56-1.127,1.154-1.724,1.696c0.449,0.48,0.938,0.924,1.391,1.403c0.497-0.517,1.027-1,1.504-1.536
		c0.416,0.337,0.739,0.775,1.166,1.1c-0.466,0.563-1.021,1.055-1.546,1.565c0.528,0.511,1.055,1.024,1.556,1.56
		c0.569-0.579,1.142-1.154,1.718-1.728c0.354,0.427,0.833,0.774,1.143,1.218c-1.006,0.994-2.013,1.988-3,3.002
		C105.218,22.865,103.04,20.762,100.92,18.603z"/>
	<path fill="#010101" d="M109.692,19.777c1.013-1.057,2.074-2.069,3.095-3.118c0.473,0.497,0.966,0.974,1.449,1.461v0.018
		c-0.195,0.182-0.384,0.369-0.569,0.559c-0.265-0.287-0.546-0.56-0.814-0.845c-0.223,0.231-0.451,0.46-0.675,0.689
		c0.253,0.238,0.506,0.479,0.755,0.723c-0.188,0.183-0.373,0.369-0.552,0.559c-0.25-0.254-0.5-0.507-0.76-0.75
		c-0.236,0.261-0.484,0.511-0.741,0.752c0.286,0.266,0.564,0.543,0.85,0.811c-0.202,0.188-0.396,0.385-0.58,0.592
		C110.672,20.738,110.188,20.251,109.692,19.777z"/>
	<path fill="#010101" d="M98.816,20.713c0.438-0.429,0.858-0.875,1.306-1.293c1.399,1.405,2.806,2.803,4.209,4.205
		c0.602,0.606,1.234,1.31,1.298,2.204c0.063,0.778-0.379,1.491-0.922,2.01c-0.496,0.512-1.147,0.93-1.879,0.953
		c-0.769-0.029-1.444-0.468-1.994-0.973c-1.542-1.504-3.034-3.057-4.584-4.55c0.436-0.433,0.881-0.858,1.297-1.311
		c1.295,1.288,2.588,2.579,3.878,3.871c0.44,0.453,0.842,0.988,1.448,1.23c0.597,0.208,1.269-0.473,1.04-1.064
		c-0.211-0.55-0.694-0.921-1.107-1.313C101.472,23.361,100.151,22.031,98.816,20.713z"/>
	<path fill="#010101" d="M93.776,25.741c0.493-0.528,1.161-1.007,1.92-0.935c0.932,0.146,1.623,0.871,2.192,1.566
		c0.389,0.461,0.556,1.12,0.248,1.668c0.559-0.343,1.206-0.027,1.659,0.342c0.748,0.621,1.388,1.461,2.361,1.738
		c-0.036,0.137-0.153,0.224-0.249,0.319c-0.386,0.359-0.734,0.762-1.135,1.107c-0.858-0.342-1.402-1.11-2.091-1.681
		c-0.275-0.208-0.642-0.471-0.996-0.29c-0.321,0.159-0.536,0.463-0.791,0.707c0.878,0.842,1.721,1.723,2.595,2.572
		c-0.452,0.438-0.892,0.886-1.332,1.336c-2.136-2.144-4.273-4.286-6.429-6.412C92.419,27.108,93.098,26.423,93.776,25.741
		 M94.154,27.549c0.578,0.541,1.114,1.123,1.689,1.666c0.31-0.436,0.961-0.72,0.886-1.34c-0.377-0.473-0.77-1.059-1.394-1.201
		C94.808,26.709,94.514,27.225,94.154,27.549z"/>
	<path fill="#010101" d="M96.625,37.172c0.052-0.047,0.154-0.141,0.206-0.188c0,0.31,0,0.622-0.001,0.933
		c-0.066-0.075-0.133-0.148-0.198-0.223c-0.599,0-1.197,0.002-1.795-0.001c-0.001,0.165-0.002,0.331-0.005,0.498
		c0.374,0.002,0.747,0,1.121,0.003c0.08-0.051,0.159-0.103,0.239-0.153c-0.009,0.271-0.013,0.542,0.002,0.813
		c-0.408-0.243-0.907-0.091-1.357-0.136c0,0.199-0.001,0.399-0.003,0.599c0.589-0.016,1.177-0.008,1.766-0.007
		c0.058-0.049,0.171-0.148,0.229-0.198c-0.002,0.295-0.001,0.591,0.005,0.888h-0.012c-0.059-0.033-0.177-0.099-0.237-0.133
		c-0.924-0.063-1.858,0.024-2.785-0.038c0.058-0.042,0.173-0.129,0.23-0.171c-0.002-0.762-0.001-1.525,0.001-2.287
		c-0.075-0.066-0.15-0.132-0.224-0.198C94.746,37.161,95.685,37.171,96.625,37.172z"/>
	<path fill="#010101" d="M80.94,37.159c0.366,0.04,0.749-0.06,1.1,0.055c-0.043,0.031-0.128,0.092-0.171,0.124
		c0.012,0.504-0.02,1.012,0.015,1.518c-0.005,0.145,0.134,0.226,0.211,0.33c0.322,0.058,0.75,0.129,0.985-0.156
		c0.14-0.523,0.031-1.074,0.074-1.609c-0.049-0.088-0.097-0.174-0.145-0.262c0.34,0.007,0.682,0.02,1.021-0.009
		c-0.272,0.623,0.008,1.336-0.16,1.981c-0.167,0.56-0.8,0.772-1.332,0.765c-0.476,0.002-1.044-0.109-1.3-0.559
		C80.865,38.665,81.348,37.799,80.94,37.159z"/>
	<path fill="#010101" d="M84.663,37.183c0.484-0.04,0.974,0.024,1.459-0.026c-0.027,0.059-0.082,0.176-0.109,0.235
		c0.374,0.375,0.703,0.798,1.106,1.143c-0.014-0.38-0.025-0.761-0.022-1.141c-0.068-0.074-0.129-0.151-0.183-0.235
		c0.344,0.021,0.687,0.004,1.029,0.013c0.169,0.024-0.074,0.148-0.091,0.189c-0.035,0.763-0.006,1.53-0.018,2.295
		c0.07,0.068,0.141,0.138,0.211,0.208c-0.402-0.01-0.807-0.038-1.208,0.024c0.053-0.059,0.159-0.174,0.211-0.233
		c-0.475-0.549-1.003-1.05-1.478-1.6c-0.005,0.514,0.002,1.029,0.003,1.544c0.038,0.068,0.113,0.203,0.151,0.27
		c-0.352-0.03-0.706-0.024-1.057-0.002c0.042-0.068,0.126-0.205,0.167-0.274c-0.001-0.714-0.001-1.428-0.002-2.143
		C84.857,37.312,84.665,37.303,84.663,37.183z"/>
	<path fill="#010101" d="M88.656,37.156c0.379,0.025,0.76,0.013,1.14,0.009c0.208-0.002-0.053,0.18-0.115,0.187
		c-0.028,0.764,0,1.531-0.014,2.297c0.081,0.067,0.163,0.134,0.242,0.203c-0.42,0.001-0.842-0.001-1.263-0.001
		c0.05-0.081,0.115-0.144,0.198-0.19c0.003-0.769,0.008-1.537,0-2.304C88.756,37.311,88.694,37.244,88.656,37.156z"/>
	<path fill="#010101" d="M90.282,37.17c0.407,0.001,0.815,0.013,1.222-0.01c-0.042,0.047-0.127,0.14-0.168,0.186
		c0.168,0.499,0.378,0.984,0.518,1.494c0.273-0.45,0.402-0.977,0.65-1.442c-0.047-0.076-0.096-0.152-0.144-0.228
		c0.355,0.027,0.717-0.042,1.067,0.03c-0.26,0.236-0.316,0.597-0.461,0.901c-0.224,0.5-0.4,1.018-0.633,1.514
		c0.025,0.062,0.076,0.186,0.102,0.248c-0.413-0.011-0.825-0.029-1.237,0.005c0.019-0.07,0.054-0.208,0.071-0.279
		c-0.259-0.703-0.465-1.426-0.756-2.119C90.458,37.354,90.362,37.268,90.282,37.17z"/>
	<path fill="#010101" d="M97.411,37.138c0.734,0.076,1.474-0.008,2.208,0.053c0.483,0.02,0.872,0.511,0.745,0.983
		c-0.046,0.346-0.368,0.545-0.664,0.664c0.255,0.346,0.445,0.744,0.789,1.017c-0.43,0.004-0.859-0.022-1.288,0.012
		c0.038-0.055,0.114-0.167,0.151-0.223c-0.138-0.273-0.289-0.542-0.46-0.797c-0.186-0.02-0.372-0.014-0.558-0.019
		c-0.004,0.283-0.005,0.565-0.007,0.847c0.052,0.041,0.153,0.122,0.204,0.162c-0.362,0.015-0.725,0.022-1.087,0.016
		c0.066-0.135,0.097-0.276,0.095-0.425c0.001-0.671-0.015-1.343,0.006-2.014C97.5,37.322,97.456,37.23,97.411,37.138 M98.319,37.68
		c0.007,0.218,0.007,0.436-0.001,0.655c0.345,0.002,0.69,0.017,1.035-0.013c0.318-0.045,0.352-0.565,0.021-0.62
		C99.023,37.683,98.671,37.706,98.319,37.68z"/>
	<path fill="#010101" d="M101.202,37.574c0.367-0.424,0.991-0.484,1.515-0.428c0.373,0.021,0.747,0.212,1.117,0.072
		c-0.138,0.273-0.27,0.55-0.415,0.821c-0.227-0.414-0.78-0.34-1.182-0.345c-0.179-0.026-0.572,0.173-0.357,0.362
		c0.551,0.238,1.248,0.054,1.738,0.463c0.369,0.292,0.231,0.901-0.143,1.127c-0.465,0.266-1.035,0.304-1.552,0.187
		c-0.332-0.047-0.666-0.214-1.001-0.094c0.114-0.276,0.191-0.563,0.271-0.849c0.186,0.338,0.597,0.381,0.942,0.42
		c0.332,0.015,0.741,0.081,0.961-0.236c-0.489-0.457-1.275-0.143-1.803-0.543C100.952,38.339,100.953,37.842,101.202,37.574z"/>
	<path fill="#010101" d="M105.169,37.153c0.414,0.037,0.831,0.032,1.246,0.007c-0.008,0.069-0.023,0.207-0.03,0.275
		c0.462,0.784,0.726,1.674,1.234,2.431c-0.339-0.02-0.679-0.029-1.018,0.005c0.063-0.198-0.014-0.385-0.097-0.563
		c-0.483,0.002-0.965-0.002-1.447,0.001c-0.085,0.177-0.169,0.361-0.11,0.56c-0.31-0.027-0.622-0.019-0.932-0.024
		c0.427-0.479,0.565-1.138,0.859-1.699C104.967,37.814,105.301,37.515,105.169,37.153 M105.744,37.802
		c-0.131,0.368-0.313,0.713-0.469,1.071c0.333-0.006,0.667-0.006,1,0.003C106.108,38.513,105.954,38.142,105.744,37.802z"/>
	<path fill="#010101" d="M107.997,37.184c0.387-0.037,0.777-0.001,1.164-0.037c-0.043,0.09-0.087,0.181-0.131,0.272
		c0.003,0.598,0.005,1.198-0.004,1.797c0.625-0.06,1.279,0.101,1.882-0.112c-0.051,0.296-0.038,0.596-0.042,0.896h-0.118
		l-0.021-0.073c-0.068-0.02-0.204-0.061-0.272-0.082c-0.816,0.005-1.632-0.006-2.448,0.013c0.063-0.072,0.129-0.143,0.193-0.214
		c0.009-0.689,0.006-1.379,0.007-2.068C108.244,37.399,108.109,37.29,107.997,37.184z"/>
</g>
<g>
	<path fill="none" d="M150.731,17.309c0.251-0.158,0.532-0.265,0.832-0.309c0.606-0.076,1.498-0.09,2.672-0.025
		c-1.174-0.065-2.066-0.05-2.672,0.025C151.263,17.043,150.981,17.15,150.731,17.309c-0.507,0.334-0.63,0.716-0.63,1.952
		c0,0.138,0,0.299,0,0.475l0,0c0-0.176,0-0.337,0-0.475C150.101,18.024,150.224,17.643,150.731,17.309z"/>
	<path fill="none" d="M152.601,23.149c0.44,0.031,0.924,0.035,1.352,0.019c0.088-0.003,0.177-0.007,0.265-0.01l1.048-0.076
		c0.728-0.04,0.902-0.171,0.902-0.669c0-0.277-0.035-0.441-0.166-0.535c0.131,0.094,0.166,0.258,0.166,0.535
		c0,0.498-0.175,0.629-0.902,0.669l-1.047,0.075c-0.088,0.003-0.177,0.007-0.265,0.011C153.525,23.184,153.041,23.18,152.601,23.149
		c-0.173-0.015-0.278-0.039-0.342-0.125C152.323,23.111,152.428,23.135,152.601,23.149z"/>
	<path fill="none" d="M154.875,20.09c0.941,0.01,1.163-0.111,1.163-0.61c0-0.307-0.039-0.468-0.316-0.56
		c0.277,0.092,0.316,0.253,0.316,0.56C156.039,19.979,155.817,20.1,154.875,20.09l-1.501-0.017v1.707h0v-1.707L154.875,20.09z"/>
	<path fill="none" d="M150.079,22.459v-0.287l2.065-0.045l0,0l-2.065,0.045L150.079,22.459c0,1.25,0.111,1.768,0.487,2.145
		c0.107,0.114,0.257,0.211,0.439,0.282c-0.182-0.07-0.332-0.167-0.438-0.282C150.191,24.227,150.079,23.709,150.079,22.459z"/>
	<path fill="#FFFFFF" d="M130.546,14.59l-8.036-0.958c-0.065-0.008-0.131-0.012-0.195-0.012c-0.966,0-1.695,0.841-1.695,1.957
		v10.167c0,1.115,0.729,1.956,1.696,1.956c0,0,0,0,0,0c0.064,0,0.13-0.004,0.195-0.012l8.035-0.958
		c0.723-0.086,1.311-0.953,1.311-1.932v-8.275C131.856,15.543,131.269,14.677,130.546,14.59z M129.521,24.684L129,23.46
		l-4.274,0.198l-0.6,1.393l-2.567,0.174l3.828-8.216l3.056,0.186l3.051,7.355L129.521,24.684z"/>
	<polygon fill="#FFFFFF" points="126.754,18.903 125.468,21.881 128.351,21.83 127.142,18.915 	"/>
	<path fill="#ED9B47" d="M130.62,13.975l-8.036-0.958c-0.089-0.011-0.18-0.016-0.269-0.016c-1.298,0-2.315,1.132-2.315,2.577v10.167
		c0,1.444,1.017,2.576,2.316,2.576c0,0,0,0,0,0c0.088,0,0.179-0.005,0.268-0.016l8.036-0.958c1.041-0.125,1.856-1.244,1.856-2.547
		v-8.275C132.477,15.218,131.661,14.099,130.62,13.975z M131.856,24.798c0,0.979-0.587,1.845-1.31,1.932l-8.035,0.958
		c-0.065,0.008-0.131,0.012-0.195,0.012h0c-0.967,0-1.696-0.841-1.696-1.956V15.577c0-1.116,0.729-1.957,1.695-1.957
		c0.064,0,0.13,0.004,0.195,0.012l8.036,0.958c0.723,0.086,1.31,0.953,1.31,1.932V24.798L131.856,24.798z"/>
	<path fill="#FFFFFF" d="M144.308,14.59l-8.036-0.958c-0.065-0.008-0.131-0.012-0.195-0.012c-0.967,0-1.696,0.841-1.696,1.957
		v10.167c0,1.115,0.729,1.956,1.696,1.956l0,0c0.064,0,0.13-0.004,0.195-0.012l8.036-0.958c0.722-0.086,1.31-0.953,1.31-1.932
		v-8.275C145.618,15.543,145.031,14.677,144.308,14.59z M144.331,24.197c-0.293,0.336-0.659,0.449-1.604,0.524l-1.23,0.084
		l-4.887,0.332v-8.283l4.878,0.297l1.112,0.068c0.817,0.062,1.169,0.149,1.421,0.373c0.327,0.303,0.464,0.768,0.464,1.598
		c0,1.091-0.154,1.429-0.778,1.715c0.4,0.098,0.546,0.174,0.684,0.359c0.205,0.271,0.298,0.715,0.298,1.324
		C144.688,23.36,144.561,23.933,144.331,24.197z"/>
	<path fill="#FFFFFF" d="M142.114,21.693l-0.607,0.009l-2.85,0.044v1.361l2.841-0.106l0.58-0.033
		c0.786-0.029,0.903-0.124,0.903-0.684C142.98,21.735,142.908,21.692,142.114,21.693z"/>
	<path fill="#FFFFFF" d="M142.755,19.568c0-0.494-0.101-0.577-0.78-0.597l-0.487-0.026l-2.832-0.087v1.265l2.841,0.029
		C142.646,20.163,142.755,20.12,142.755,19.568z"/>
	<path fill="#ED9B47" d="M144.381,13.975l-8.035-0.958c-0.09-0.011-0.18-0.016-0.269-0.016c-1.298,0-2.315,1.132-2.315,2.577v10.167
		c0,1.444,1.017,2.576,2.316,2.576l0,0c0.089,0,0.179-0.005,0.269-0.016l8.036-0.958c1.041-0.125,1.856-1.244,1.856-2.547v-8.275
		C146.238,15.218,145.423,14.099,144.381,13.975z M145.618,24.798c0,0.979-0.587,1.845-1.31,1.932l-8.035,0.958
		c-0.065,0.008-0.131,0.012-0.195,0.012l0,0c-0.967,0-1.696-0.841-1.696-1.956V15.577c0-1.116,0.729-1.957,1.695-1.957
		c0.064,0,0.13,0.004,0.195,0.012l8.036,0.958c0.723,0.086,1.311,0.953,1.311,1.932L145.618,24.798L145.618,24.798z"/>
	<path fill="#ED9B47" d="M158.333,14.014l-8.456-0.999c-1.279-0.151-2.354,0.897-2.354,2.348v10.596c0,1.45,1.075,2.498,2.354,2.348
		l8.456-0.999c0.933-0.111,1.667-1.154,1.667-2.334v-8.625C160,15.167,159.266,14.124,158.333,14.014z M157.501,24.178
		c-0.259,0.255-0.552,0.418-1.119,0.542c-0.578,0.126-1.454,0.213-2.917,0.314c-1.207,0.084-1.701,0.058-2.267-0.086
		c-0.068-0.017-0.132-0.038-0.193-0.062c-0.182-0.07-0.332-0.167-0.439-0.282c-0.376-0.376-0.488-0.895-0.488-2.145v-0.287
		l2.065-0.045l0,0l0,0c0.01,0.061,0.01,0.109,0.01,0.146c0.006,0.428,0.021,0.642,0.104,0.752c0.064,0.086,0.169,0.11,0.342,0.125
		c0.44,0.031,0.925,0.035,1.352,0.019c0.088-0.004,0.177-0.007,0.265-0.011l1.047-0.076c0.728-0.04,0.902-0.171,0.902-0.669
		c0-0.277-0.035-0.44-0.166-0.535c-0.131-0.094-0.359-0.119-0.746-0.118l-0.727,0l-1.155,0.019v0l0,0v-1.707l1.5,0.017
		c0.941,0.01,1.164-0.111,1.164-0.61c0-0.307-0.039-0.468-0.316-0.56c-0.245-0.081-0.674-0.107-1.427-0.133l-0.215-0.006
		l-0.918-0.019c-0.873-0.017-0.956,0.065-0.977,0.838c0,0.036,0,0.097,0,0.169l-2.084-0.033l0,0h0c0-0.176,0-0.338,0-0.476
		c0-1.236,0.123-1.617,0.63-1.952c0.251-0.159,0.532-0.265,0.832-0.309c0.606-0.075,1.498-0.09,2.672-0.025
		c0.093,0.005,0.188,0.011,0.284,0.017c2.03,0.128,2.568,0.284,2.938,0.782c0.235,0.321,0.34,0.766,0.34,1.448
		c0,1.101-0.209,1.452-0.959,1.652c0.514,0.143,0.681,0.231,0.829,0.44c0.165,0.251,0.243,0.646,0.243,1.271
		C157.909,23.407,157.789,23.886,157.501,24.178z"/>
	<path fill="#ED9B47" d="M125.387,17.009l-3.828,8.216l2.567-0.174l0.6-1.393L129,23.46l0.52,1.224l1.974-0.133l-3.051-7.355
		L125.387,17.009z M125.468,21.881l1.286-2.978l0.388,0.011l1.209,2.915L125.468,21.881z"/>
	<path fill="#ED9B47" d="M143.707,20.905c0.624-0.286,0.778-0.624,0.778-1.715c0-0.83-0.137-1.295-0.464-1.598
		c-0.252-0.224-0.604-0.312-1.421-0.373l-1.112-0.068l-4.878-0.297v8.283l4.887-0.332l1.23-0.084
		c0.945-0.075,1.311-0.188,1.604-0.524c0.23-0.264,0.358-0.837,0.358-1.609c0-0.609-0.094-1.054-0.298-1.324
		C144.253,21.079,144.107,21.003,143.707,20.905z M138.656,18.857l2.832,0.087l0.487,0.026c0.68,0.021,0.78,0.104,0.78,0.598
		c0,0.551-0.109,0.595-1.257,0.583l-2.841-0.029V18.857L138.656,18.857z M142.077,22.968l-0.58,0.033l-2.841,0.106v-1.361
		l2.85-0.044l0.607-0.01c0.794-0.001,0.866,0.042,0.866,0.592C142.98,22.845,142.863,22.939,142.077,22.968z"/>
	<path fill="#FFFFFF" d="M156.837,20.873c0.751-0.2,0.959-0.551,0.959-1.652c0-0.682-0.104-1.126-0.34-1.448
		c-0.37-0.498-0.908-0.654-2.938-0.782c-0.097-0.006-0.191-0.012-0.284-0.017c-1.174-0.064-2.066-0.05-2.672,0.025
		c-0.3,0.044-0.581,0.15-0.832,0.309c-0.507,0.334-0.63,0.716-0.63,1.952c0,0.138,0,0.3,0,0.476l0,0l2.084,0.033
		c0-0.072,0-0.133,0-0.169c0.021-0.772,0.104-0.854,0.977-0.838l0.917,0.019l0.215,0.006c0.752,0.025,1.182,0.052,1.427,0.133
		c0.277,0.092,0.316,0.253,0.316,0.56c0,0.499-0.222,0.621-1.163,0.61l-1.501-0.017v1.707l0,0l1.155-0.019h0.727
		c0.387-0.001,0.614,0.023,0.746,0.117c0.131,0.094,0.166,0.258,0.166,0.535c0,0.498-0.175,0.629-0.902,0.669l-1.048,0.076
		c-0.088,0.003-0.177,0.007-0.265,0.011c-0.428,0.016-0.912,0.012-1.352-0.019c-0.173-0.015-0.278-0.039-0.342-0.125
		c-0.083-0.111-0.099-0.325-0.104-0.753c0-0.037,0-0.084-0.01-0.145l0,0l-2.065,0.045v0.287c0,1.25,0.112,1.768,0.488,2.145
		c0.107,0.114,0.256,0.211,0.438,0.282c0.061,0.023,0.125,0.044,0.193,0.061c0.566,0.145,1.061,0.171,2.267,0.086
		c1.463-0.101,2.338-0.188,2.917-0.314c0.567-0.123,0.86-0.287,1.119-0.542c0.287-0.292,0.408-0.771,0.408-1.594
		c0-0.625-0.078-1.02-0.242-1.271C157.519,21.104,157.352,21.016,156.837,20.873z"/>
</g>
<g id="g5" transform="matrix(1.6223634,0,0,1.6223634,-105.8694,-0.5076134)">
	<path id="path7" fill="#F47920" d="M177.429,9.561c0.817-0.001,1.633-0.002,2.45-0.003c0,0.37,0.001,0.742,0.001,1.113
		c0.481,0,0.959-0.001,1.44-0.002c0,0.51,0.001,1.02,0.001,1.531c-0.481,0-0.959,0.001-1.44,0.001
		c0.001,1.109,0.002,2.211,0.003,3.319c-0.604,0.053-1.345,0.098-1.818-0.054c-0.252-0.081-0.465-0.314-0.556-0.556
		c-0.08-0.21-0.083-2.055-0.084-2.707c-0.329,0-0.664,0-0.993,0.001c-0.001-0.51-0.001-1.021-0.001-1.53
		c0.328,0,0.664-0.001,0.992-0.001C177.425,10.308,177.415,9.905,177.429,9.561z"/>
	<path id="path9" fill="#F47920" d="M167.138,10.546c1.398-0.104,2.963,0.331,3.259,1.325c0.009,0.045,0.046,0.24,0.046,0.24
		s0.008,2.729,0.009,3.428c-0.812,0.001-1.626,0.002-2.437,0.002c-0.001-0.459-0.001-0.92-0.001-1.379
		c-0.683,0.202-2.142,0.495-1.211,1.381c-0.589,0.001-2.149,0.006-2.424,0.002c-0.356-0.079-0.567-0.568-0.481-1.037
		c0.078-0.426,0.348-0.725,0.668-0.911c0.786-0.457,1.951-0.431,2.967-0.674c0.133-0.032,0.266-0.046,0.366-0.114
		c0.061-0.042,0.085-0.098,0.101-0.19c0.068-0.412-0.346-0.534-0.733-0.53c-0.116,0.001-0.276,0.019-0.379,0.051
		c-0.072,0.021-0.171,0.068-0.227,0.114c-0.118,0.095-0.189,0.229-0.189,0.443c-0.783,0.001-1.567,0.002-2.349,0.002
		c0.028-0.209,0.064-0.382,0.126-0.544c0.111-0.294,0.259-0.525,0.454-0.734C165.236,10.845,166.103,10.622,167.138,10.546z"/>
	<path id="path11" fill="#F47920" d="M175.195,10.562c0.269-0.02,0.504,0.049,0.695,0.113c0.001,0.51,0.001,1.02,0.001,1.53
		c-0.436,0.001-0.909-0.026-1.212,0.103c-0.183,0.077-0.367,0.257-0.442,0.443c-0.096,0.237-0.063,0.623-0.062,0.949
		c0.001,0.61,0.001,1.223,0.002,1.834c-0.829,0.001-1.659,0.002-2.488,0.002c-0.002-1.619-0.003-3.238-0.005-4.857
		c0.758-0.001,1.537-0.002,2.295-0.003c0,0.191-0.014,0.432,0.003,0.582C174.23,10.865,174.598,10.607,175.195,10.562z"/>
	<g id="g13">
		<g id="g15">
			<path id="path17" fill="#F47920" d="M188.254,12.269c-0.239-0.531-0.64-0.98-1.138-1.251c-0.573-0.312-1.385-0.522-2.311-0.453
				c-1.654,0.122-2.787,0.885-3.066,2.394c-0.105,0.564-0.037,1.217,0.128,1.669c0.07,0.192,0.386,0.847,0.532,0.897
				c0.21-0.011,1.355-0.002,1.806-0.002c-0.001-0.405-0.001-0.809-0.001-1.214c1.43-0.001,2.863-0.003,4.294-0.004
				C188.595,13.569,188.488,12.791,188.254,12.269z M184.126,13.033c0.017-0.22,0.044-0.376,0.125-0.519
				c0.127-0.225,0.354-0.38,0.669-0.413c0.777-0.081,1.128,0.283,1.2,0.929C185.456,13.031,184.79,13.032,184.126,13.033z"/>
		</g>
	</g>
</g>
<g>
	<polygon fill="#925B45" points="207.207,16.746 202.997,15.646 203.099,20.324 207.254,19.296 	"/>
	<polygon fill="#925B45" points="235.815,11.505 234.635,35.775 238.642,33.83 240,10.501 	"/>
	<path fill="#788DA6" d="M216.957,13.881l0.025-5.522l-3.926-0.656l0.09,15.714l1.783,0.542l0.004,4.987l14.783,5.127l0.631-17.334
		L216.957,13.881z M225.344,24.396l-0.066,2.653l-8.373-2.541l0.027-5.248l8.484,2.197L225.344,24.396L225.344,24.396z"/>
	<polygon fill="#456F8A" points="216.957,13.881 221.252,12.934 221.326,7.607 216.982,8.359 	"/>
	<polygon fill="#456F8A" points="221.14,20.352 216.932,19.262 216.904,24.509 221.098,23.2 	"/>
	<polygon fill="#D26F4E" points="213.146,23.417 213.086,13.049 202.859,10.864 202.957,14.279 202.958,14.279 202.997,15.646
		209.548,17.341 209.614,22.288 203.099,20.324 202.997,15.646 202.997,15.646 200,14.869 200.317,23.881 214.934,28.946
		214.93,23.958 	"/>
	<polygon fill="#E29C7A" points="207.254,19.296 203.099,20.324 209.614,22.288 209.582,19.95 	"/>
	<polygon fill="#E29C7A" points="202.958,14.279 202.957,14.279 200,14.869 202.997,15.646 	"/>
	<polygon fill="#E29C7A" points="235.815,11.505 240,10.501 232.983,9.413 228.908,10.351 228.9,10.353 	"/>
	<polygon fill="#E29C7A" points="213.072,11.309 207.086,10.123 202.859,10.864 213.086,13.049 	"/>
	<polygon fill="#97A8BD" points="221.326,7.607 217.408,7 213.057,7.703 216.982,8.359 	"/>
	<polygon fill="#97A8BD" points="216.904,24.509 225.277,27.05 225.344,24.396 225.344,24.396 221.098,23.2 	"/>
	<polygon fill="#97A8BD" points="225.563,15.716 225.608,13.798 221.252,12.934 216.957,13.881 	"/>
	<polygon fill="#D26F4E" points="228.9,10.353 228.908,10.351 228.893,10.348 225.662,12.379 225.563,15.716 230.348,16.739
		229.717,34.073 234.635,35.775 235.815,11.505 	"/>
</g>
<g id="g2993" transform="matrix(1.25,0,0,-1.25,-2221.2732,1111.2997)" inkscape:label="DP25052012" inkscape:groupmode="layer">
	<g id="g2995" transform="scale(850.32001,1218.96)">
		<g id="g3040" transform="matrix(25.043864,0,0,25.043864,-50.099163,-15.960334)">
			<g id="g3388" transform="matrix(0.16388711,0,0,0.16388711,1.7332667,0.56015138)">

					<linearGradient id="path3095_1_" gradientUnits="userSpaceOnUse" x1="2.1402" y1="0.5844" x2="2.1494" y2="0.5844" gradientTransform="matrix(1 0 0 1 -1.0238 401.0317)">
					<stop  offset="0" style="stop-color:#1A0526"/>
					<stop  offset="0.0972" style="stop-color:#200A30"/>
					<stop  offset="0.2" style="stop-color:#230D34"/>
					<stop  offset="0.3" style="stop-color:#2C1241"/>
					<stop  offset="0.4" style="stop-color:#2F1545"/>
					<stop  offset="0.5" style="stop-color:#371A54"/>
					<stop  offset="0.5978" style="stop-color:#3D1A5A"/>
					<stop  offset="0.7" style="stop-color:#461E67"/>
					<stop  offset="0.8" style="stop-color:#482069"/>
					<stop  offset="0.9" style="stop-color:#55227E"/>
					<stop  offset="1" style="stop-color:#562380"/>
				</linearGradient>
				<path id="path3095" sodipodi:nodetypes="ccccccccccccccccccc" inkscape:connector-curvature="0" fill="url(#path3095_1_)" d="
					M2.2,0.645C2.2,0.645,2.2,0.645,2.2,0.645l0,0.001c0,0,0,0.001,0.001,0.001c0,0,0.001,0,0.001,0l0.001-0.001c0,0,0,0,0,0
					c0,0,0,0,0,0v0.001c0,0,0,0,0,0c0,0,0,0,0,0V0.645c0,0,0-0.001-0.001-0.001c0,0,0,0-0.001,0L2.201,0.646c0,0,0,0,0,0
					c0,0,0,0,0,0L2.2,0.645C2.201,0.645,2.201,0.645,2.2,0.645L2.2,0.645z"/>

					<linearGradient id="path3103_1_" gradientUnits="userSpaceOnUse" x1="2.1402" y1="0.5844" x2="2.1517" y2="0.5844" gradientTransform="matrix(1 0 0 1 -1.0238 401.0317)">
					<stop  offset="0" style="stop-color:#1A0526"/>
					<stop  offset="0.0972" style="stop-color:#200A30"/>
					<stop  offset="0.2" style="stop-color:#230D34"/>
					<stop  offset="0.3" style="stop-color:#2C1241"/>
					<stop  offset="0.4" style="stop-color:#2F1545"/>
					<stop  offset="0.5" style="stop-color:#371A54"/>
					<stop  offset="0.5978" style="stop-color:#3D1A5A"/>
					<stop  offset="0.7" style="stop-color:#461E67"/>
					<stop  offset="0.8" style="stop-color:#482069"/>
					<stop  offset="0.9" style="stop-color:#55227E"/>
					<stop  offset="1" style="stop-color:#562380"/>
				</linearGradient>
				<path id="path3103" sodipodi:nodetypes="ccccccccccccccccccccc" inkscape:connector-curvature="0" fill="url(#path3103_1_)" d="
					M2.199,0.644C2.199,0.644,2.199,0.644,2.199,0.644C2.199,0.644,2.199,0.644,2.199,0.644C2.199,0.644,2.199,0.644,2.199,0.644
					C2.199,0.644,2.199,0.644,2.199,0.644C2.199,0.644,2.199,0.644,2.199,0.644C2.2,0.644,2.2,0.644,2.199,0.644
					C2.2,0.644,2.2,0.644,2.199,0.644C2.199,0.644,2.199,0.644,2.199,0.644C2.199,0.644,2.199,0.644,2.199,0.644
					C2.2,0.644,2.2,0.644,2.199,0.644L2.199,0.644C2.2,0.644,2.2,0.644,2.199,0.644C2.2,0.644,2.2,0.644,2.199,0.644
					C2.2,0.644,2.2,0.644,2.199,0.644C2.2,0.644,2.2,0.644,2.199,0.644C2.199,0.644,2.199,0.644,2.199,0.644
					C2.199,0.644,2.199,0.644,2.199,0.644C2.2,0.644,2.2,0.644,2.199,0.644C2.2,0.644,2.2,0.644,2.199,0.644
					C2.199,0.644,2.199,0.644,2.199,0.644L2.199,0.644z"/>

					<linearGradient id="path3105_1_" gradientUnits="userSpaceOnUse" x1="2.1402" y1="0.5844" x2="2.1504" y2="0.5844" gradientTransform="matrix(1 0 0 1 -1.0238 401.0317)">
					<stop  offset="0" style="stop-color:#1A0526"/>
					<stop  offset="0.0972" style="stop-color:#200A30"/>
					<stop  offset="0.2" style="stop-color:#230D34"/>
					<stop  offset="0.3" style="stop-color:#2C1241"/>
					<stop  offset="0.4" style="stop-color:#2F1545"/>
					<stop  offset="0.5" style="stop-color:#371A54"/>
					<stop  offset="0.5978" style="stop-color:#3D1A5A"/>
					<stop  offset="0.7" style="stop-color:#461E67"/>
					<stop  offset="0.8" style="stop-color:#482069"/>
					<stop  offset="0.9" style="stop-color:#55227E"/>
					<stop  offset="1" style="stop-color:#562380"/>
				</linearGradient>
				<path id="path3105" inkscape:connector-curvature="0" fill="url(#path3105_1_)" d="M2.2,0.644C2.2,0.644,2.2,0.644,2.2,0.644
					L2.2,0.644C2.2,0.644,2.2,0.644,2.2,0.644C2.2,0.644,2.2,0.644,2.2,0.644L2.2,0.644L2.2,0.644
					C2.201,0.644,2.201,0.644,2.2,0.644C2.201,0.644,2.201,0.644,2.2,0.644L2.2,0.644z M2.2,0.644
					C2.201,0.644,2.201,0.644,2.2,0.644C2.201,0.644,2.201,0.644,2.2,0.644L2.2,0.644L2.2,0.644C2.2,0.644,2.2,0.644,2.2,0.644
					L2.2,0.644z"/>

					<linearGradient id="path3110_1_" gradientUnits="userSpaceOnUse" x1="2.1402" y1="0.5844" x2="2.146" y2="0.5844" gradientTransform="matrix(1 0 0 1 -1.0238 401.0317)">
					<stop  offset="0" style="stop-color:#1A0526"/>
					<stop  offset="0.0972" style="stop-color:#200A30"/>
					<stop  offset="0.2" style="stop-color:#230D34"/>
					<stop  offset="0.3" style="stop-color:#2C1241"/>
					<stop  offset="0.4" style="stop-color:#2F1545"/>
					<stop  offset="0.5" style="stop-color:#371A54"/>
					<stop  offset="0.5978" style="stop-color:#3D1A5A"/>
					<stop  offset="0.7" style="stop-color:#461E67"/>
					<stop  offset="0.8" style="stop-color:#482069"/>
					<stop  offset="0.9" style="stop-color:#55227E"/>
					<stop  offset="1" style="stop-color:#562380"/>
				</linearGradient>
				<path id="path3110" sodipodi:nodetypes="csssscccccccsccssscss" inkscape:connector-curvature="0" fill="url(#path3110_1_)" d="
					M2.202,0.644C2.202,0.644,2.202,0.644,2.202,0.644L2.202,0.644C2.202,0.644,2.202,0.644,2.202,0.644
					C2.202,0.644,2.202,0.644,2.202,0.644L2.202,0.644L2.202,0.644L2.202,0.644C2.203,0.644,2.203,0.644,2.202,0.644
					C2.203,0.644,2.203,0.644,2.202,0.644C2.203,0.644,2.203,0.644,2.202,0.644L2.202,0.644C2.203,0.644,2.203,0.644,2.202,0.644
					C2.203,0.644,2.203,0.644,2.202,0.644L2.202,0.644z M2.203,0.644C2.203,0.644,2.203,0.644,2.203,0.644
					C2.203,0.644,2.203,0.644,2.203,0.644L2.203,0.644L2.203,0.644C2.202,0.644,2.202,0.644,2.203,0.644L2.203,0.644z"/>

					<linearGradient id="path3112_1_" gradientUnits="userSpaceOnUse" x1="2.1402" y1="0.5844" x2="2.1479" y2="0.5844" gradientTransform="matrix(1 0 0 1 -1.0238 401.0317)">
					<stop  offset="0" style="stop-color:#1A0526"/>
					<stop  offset="0.0972" style="stop-color:#200A30"/>
					<stop  offset="0.2" style="stop-color:#230D34"/>
					<stop  offset="0.3" style="stop-color:#2C1241"/>
					<stop  offset="0.4" style="stop-color:#2F1545"/>
					<stop  offset="0.5" style="stop-color:#371A54"/>
					<stop  offset="0.5978" style="stop-color:#3D1A5A"/>
					<stop  offset="0.7" style="stop-color:#461E67"/>
					<stop  offset="0.8" style="stop-color:#482069"/>
					<stop  offset="0.9" style="stop-color:#55227E"/>
					<stop  offset="1" style="stop-color:#562380"/>
				</linearGradient>
				<path id="path3112" inkscape:connector-curvature="0" fill="url(#path3112_1_)" d="M2.201,0.644
					C2.201,0.644,2.201,0.644,2.201,0.644C2.201,0.644,2.201,0.644,2.201,0.644C2.202,0.644,2.202,0.644,2.201,0.644
					C2.202,0.644,2.202,0.644,2.201,0.644L2.201,0.644z M2.201,0.644C2.202,0.644,2.202,0.644,2.201,0.644
					C2.202,0.644,2.202,0.644,2.201,0.644C2.201,0.644,2.201,0.644,2.201,0.644C2.201,0.644,2.201,0.644,2.201,0.644L2.201,0.644z"
					/>

					<linearGradient id="path3117_1_" gradientUnits="userSpaceOnUse" x1="2.1402" y1="0.5844" x2="2.1517" y2="0.5844" gradientTransform="matrix(1 0 0 1 -1.0238 401.0317)">
					<stop  offset="0" style="stop-color:#1A0526"/>
					<stop  offset="0.0972" style="stop-color:#200A30"/>
					<stop  offset="0.2" style="stop-color:#230D34"/>
					<stop  offset="0.3" style="stop-color:#2C1241"/>
					<stop  offset="0.4" style="stop-color:#2F1545"/>
					<stop  offset="0.5" style="stop-color:#371A54"/>
					<stop  offset="0.5978" style="stop-color:#3D1A5A"/>
					<stop  offset="0.7" style="stop-color:#461E67"/>
					<stop  offset="0.8" style="stop-color:#482069"/>
					<stop  offset="0.9" style="stop-color:#55227E"/>
					<stop  offset="1" style="stop-color:#562380"/>
				</linearGradient>
				<path id="path3117" sodipodi:nodetypes="cccccccccccc" inkscape:connector-curvature="0" fill="url(#path3117_1_)" d="
					M2.203,0.644C2.203,0.644,2.203,0.644,2.203,0.644L2.203,0.644L2.203,0.644C2.203,0.644,2.203,0.644,2.203,0.644
					C2.203,0.644,2.203,0.644,2.203,0.644L2.203,0.644C2.204,0.644,2.204,0.644,2.203,0.644C2.204,0.644,2.204,0.644,2.203,0.644
					L2.203,0.644L2.203,0.644C2.203,0.644,2.203,0.644,2.203,0.644L2.203,0.644z"/>

					<linearGradient id="path3036_1_" gradientUnits="userSpaceOnUse" x1="2.1402" y1="0.5844" x2="2.1494" y2="0.5844" gradientTransform="matrix(1 0 0 1 -1.0238 401.0317)">
					<stop  offset="0" style="stop-color:#1A0526"/>
					<stop  offset="0.0972" style="stop-color:#200A30"/>
					<stop  offset="0.2" style="stop-color:#230D34"/>
					<stop  offset="0.3" style="stop-color:#2C1241"/>
					<stop  offset="0.4" style="stop-color:#2F1545"/>
					<stop  offset="0.5" style="stop-color:#371A54"/>
					<stop  offset="0.5978" style="stop-color:#3D1A5A"/>
					<stop  offset="0.7" style="stop-color:#461E67"/>
					<stop  offset="0.8" style="stop-color:#482069"/>
					<stop  offset="0.9" style="stop-color:#55227E"/>
					<stop  offset="1" style="stop-color:#562380"/>
				</linearGradient>
				<path id="path3036" inkscape:connector-curvature="0" fill="url(#path3036_1_)" d="M2.195,0.647
					C2.195,0.647,2.195,0.647,2.195,0.647l0-0.001c0-0.001,0.001-0.001,0.001-0.001c0.001,0,0.001,0,0.001,0.001
					c0,0.001-0.001,0.001-0.001,0.001C2.195,0.646,2.195,0.646,2.195,0.647L2.195,0.647C2.195,0.647,2.195,0.647,2.195,0.647
					L2.195,0.647z M2.196,0.646c0.001,0,0.001,0,0.001-0.001c0,0,0-0.001-0.001-0.001c-0.001,0-0.001,0-0.001,0.001
					C2.195,0.646,2.195,0.646,2.196,0.646L2.196,0.646z"/>

					<linearGradient id="path3085_1_" gradientUnits="userSpaceOnUse" x1="2.1402" y1="0.5844" x2="2.1494" y2="0.5844" gradientTransform="matrix(1 0 0 1 -1.0238 401.0317)">
					<stop  offset="0" style="stop-color:#1A0526"/>
					<stop  offset="0.0972" style="stop-color:#200A30"/>
					<stop  offset="0.2" style="stop-color:#230D34"/>
					<stop  offset="0.3" style="stop-color:#2C1241"/>
					<stop  offset="0.4" style="stop-color:#2F1545"/>
					<stop  offset="0.5" style="stop-color:#371A54"/>
					<stop  offset="0.5978" style="stop-color:#3D1A5A"/>
					<stop  offset="0.7" style="stop-color:#461E67"/>
					<stop  offset="0.8" style="stop-color:#482069"/>
					<stop  offset="0.9" style="stop-color:#55227E"/>
					<stop  offset="1" style="stop-color:#562380"/>
				</linearGradient>
				<path id="path3085" sodipodi:nodetypes="ccccccccccccccccc" inkscape:connector-curvature="0" fill="url(#path3085_1_)" d="
					M2.197,0.645c0,0,0,0.001,0.001,0.001c0.001,0,0.001,0,0.001-0.001c0,0,0,0,0,0H2.198C2.198,0.645,2.198,0.645,2.197,0.645
					c0.001,0,0.001,0,0.001,0h0.001c0,0,0,0.001-0.001,0.001C2.198,0.646,2.197,0.646,2.197,0.645c0,0,0.001-0.001,0.001-0.001
					c0,0,0.001,0,0.001,0c0,0,0,0,0,0c0,0,0,0,0,0c0,0,0,0,0,0c0,0-0.001,0-0.001,0C2.198,0.645,2.197,0.645,2.197,0.645
					L2.197,0.645z"/>

					<linearGradient id="path3087_1_" gradientUnits="userSpaceOnUse" x1="2.1402" y1="0.5844" x2="2.1402" y2="0.5844" gradientTransform="matrix(1 0 0 1 -1.0238 401.0317)">
					<stop  offset="0" style="stop-color:#1A0526"/>
					<stop  offset="0.0972" style="stop-color:#200A30"/>
					<stop  offset="0.2" style="stop-color:#230D34"/>
					<stop  offset="0.3" style="stop-color:#2C1241"/>
					<stop  offset="0.4" style="stop-color:#2F1545"/>
					<stop  offset="0.5" style="stop-color:#371A54"/>
					<stop  offset="0.5978" style="stop-color:#3D1A5A"/>
					<stop  offset="0.7" style="stop-color:#461E67"/>
					<stop  offset="0.8" style="stop-color:#482069"/>
					<stop  offset="0.9" style="stop-color:#55227E"/>
					<stop  offset="1" style="stop-color:#562380"/>
				</linearGradient>
				<path id="path3087" sodipodi:nodetypes="ccccccc" inkscape:connector-curvature="0" fill="url(#path3087_1_)" d="M2.2,0.645
					C2.2,0.645,2.2,0.645,2.2,0.645l0,0.002c0,0,0,0,0,0c0,0,0,0,0,0L2.2,0.645C2.2,0.645,2.2,0.645,2.2,0.645L2.2,0.645z"/>
			</g>
		</g>
	</g>
</g>
</svg>
