<svg xmlns="http://www.w3.org/2000/svg" xmlns:xlink="http://www.w3.org/1999/xlink" width="200" height="200"><defs id="defs4"><linearGradient xlink:href="#linearGradient4119" id="linearGradient3399" gradientUnits="userSpaceOnUse" x1="2.14" y1=".641" x2="2.185" y2=".641"/><linearGradient id="linearGradient4119"><stop offset="0" id="stop4121" stop-color="#1a0526"/><stop id="stop4143" offset=".097" stop-color="#200a30"/><stop id="stop4141" offset=".2" stop-color="#230d34"/><stop id="stop4139" offset=".3" stop-color="#2c1241"/><stop id="stop4137" offset=".4" stop-color="#2f1545"/><stop id="stop4135" offset=".5" stop-color="#371a54"/><stop id="stop4133" offset=".598" stop-color="#3d1a5a"/><stop id="stop4131" offset=".7" stop-color="#461e67"/><stop id="stop4129" offset=".8" stop-color="#482069"/><stop id="stop4127" offset=".9" stop-color="#55227e"/><stop offset="1" id="stop4123" stop-color="#562380"/></linearGradient><linearGradient xlink:href="#linearGradient4119" id="linearGradient3401" gradientUnits="userSpaceOnUse" x1="2.14" y1=".641" x2="2.185" y2=".641"/><linearGradient id="linearGradient3137"><stop offset="0" id="stop3139" stop-color="#1a0526"/><stop id="stop3141" offset=".097" stop-color="#200a30"/><stop id="stop3143" offset=".2" stop-color="#230d34"/><stop id="stop3145" offset=".3" stop-color="#2c1241"/><stop id="stop3147" offset=".4" stop-color="#2f1545"/><stop id="stop3149" offset=".5" stop-color="#371a54"/><stop id="stop3151" offset=".598" stop-color="#3d1a5a"/><stop id="stop3153" offset=".7" stop-color="#461e67"/><stop id="stop3155" offset=".8" stop-color="#482069"/><stop id="stop3157" offset=".9" stop-color="#55227e"/><stop offset="1" id="stop3159" stop-color="#562380"/></linearGradient><linearGradient xlink:href="#linearGradient4119" id="linearGradient3403" gradientUnits="userSpaceOnUse" x1="2.14" y1=".641" x2="2.185" y2=".641"/><linearGradient id="linearGradient3162"><stop offset="0" id="stop3164" stop-color="#1a0526"/><stop id="stop3166" offset=".097" stop-color="#200a30"/><stop id="stop3168" offset=".2" stop-color="#230d34"/><stop id="stop3170" offset=".3" stop-color="#2c1241"/><stop id="stop3172" offset=".4" stop-color="#2f1545"/><stop id="stop3174" offset=".5" stop-color="#371a54"/><stop id="stop3176" offset=".598" stop-color="#3d1a5a"/><stop id="stop3178" offset=".7" stop-color="#461e67"/><stop id="stop3180" offset=".8" stop-color="#482069"/><stop id="stop3182" offset=".9" stop-color="#55227e"/><stop offset="1" id="stop3184" stop-color="#562380"/></linearGradient><linearGradient xlink:href="#linearGradient4119" id="linearGradient3405" gradientUnits="userSpaceOnUse" x1="2.14" y1=".641" x2="2.185" y2=".641"/><linearGradient id="linearGradient3187"><stop offset="0" id="stop3189" stop-color="#1a0526"/><stop id="stop3191" offset=".097" stop-color="#200a30"/><stop id="stop3193" offset=".2" stop-color="#230d34"/><stop id="stop3195" offset=".3" stop-color="#2c1241"/><stop id="stop3197" offset=".4" stop-color="#2f1545"/><stop id="stop3199" offset=".5" stop-color="#371a54"/><stop id="stop3201" offset=".598" stop-color="#3d1a5a"/><stop id="stop3203" offset=".7" stop-color="#461e67"/><stop id="stop3205" offset=".8" stop-color="#482069"/><stop id="stop3207" offset=".9" stop-color="#55227e"/><stop offset="1" id="stop3209" stop-color="#562380"/></linearGradient><linearGradient xlink:href="#linearGradient4119" id="linearGradient3407" gradientUnits="userSpaceOnUse" x1="2.14" y1=".641" x2="2.185" y2=".641"/><linearGradient id="linearGradient3212"><stop offset="0" id="stop3214" stop-color="#1a0526"/><stop id="stop3216" offset=".097" stop-color="#200a30"/><stop id="stop3218" offset=".2" stop-color="#230d34"/><stop id="stop3220" offset=".3" stop-color="#2c1241"/><stop id="stop3222" offset=".4" stop-color="#2f1545"/><stop id="stop3224" offset=".5" stop-color="#371a54"/><stop id="stop3226" offset=".598" stop-color="#3d1a5a"/><stop id="stop3228" offset=".7" stop-color="#461e67"/><stop id="stop3230" offset=".8" stop-color="#482069"/><stop id="stop3232" offset=".9" stop-color="#55227e"/><stop offset="1" id="stop3234" stop-color="#562380"/></linearGradient><linearGradient xlink:href="#linearGradient4119" id="linearGradient3409" gradientUnits="userSpaceOnUse" x1="2.14" y1=".641" x2="2.185" y2=".641"/><linearGradient id="linearGradient3237"><stop offset="0" id="stop3239" stop-color="#1a0526"/><stop id="stop3241" offset=".097" stop-color="#200a30"/><stop id="stop3243" offset=".2" stop-color="#230d34"/><stop id="stop3245" offset=".3" stop-color="#2c1241"/><stop id="stop3247" offset=".4" stop-color="#2f1545"/><stop id="stop3249" offset=".5" stop-color="#371a54"/><stop id="stop3251" offset=".598" stop-color="#3d1a5a"/><stop id="stop3253" offset=".7" stop-color="#461e67"/><stop id="stop3255" offset=".8" stop-color="#482069"/><stop id="stop3257" offset=".9" stop-color="#55227e"/><stop offset="1" id="stop3259" stop-color="#562380"/></linearGradient><linearGradient xlink:href="#linearGradient4119" id="linearGradient3411" gradientUnits="userSpaceOnUse" x1="2.14" y1=".641" x2="2.185" y2=".641"/><linearGradient id="linearGradient3262"><stop offset="0" id="stop3264" stop-color="#1a0526"/><stop id="stop3266" offset=".097" stop-color="#200a30"/><stop id="stop3268" offset=".2" stop-color="#230d34"/><stop id="stop3270" offset=".3" stop-color="#2c1241"/><stop id="stop3272" offset=".4" stop-color="#2f1545"/><stop id="stop3274" offset=".5" stop-color="#371a54"/><stop id="stop3276" offset=".598" stop-color="#3d1a5a"/><stop id="stop3278" offset=".7" stop-color="#461e67"/><stop id="stop3280" offset=".8" stop-color="#482069"/><stop id="stop3282" offset=".9" stop-color="#55227e"/><stop offset="1" id="stop3284" stop-color="#562380"/></linearGradient><linearGradient xlink:href="#linearGradient4119" id="linearGradient3413" gradientUnits="userSpaceOnUse" x1="2.14" y1=".641" x2="2.185" y2=".641"/><linearGradient id="linearGradient3287"><stop offset="0" id="stop3289" stop-color="#1a0526"/><stop id="stop3291" offset=".097" stop-color="#200a30"/><stop id="stop3293" offset=".2" stop-color="#230d34"/><stop id="stop3295" offset=".3" stop-color="#2c1241"/><stop id="stop3297" offset=".4" stop-color="#2f1545"/><stop id="stop3299" offset=".5" stop-color="#371a54"/><stop id="stop3301" offset=".598" stop-color="#3d1a5a"/><stop id="stop3303" offset=".7" stop-color="#461e67"/><stop id="stop3305" offset=".8" stop-color="#482069"/><stop id="stop3307" offset=".9" stop-color="#55227e"/><stop offset="1" id="stop3309" stop-color="#562380"/></linearGradient><linearGradient xlink:href="#linearGradient4119" id="linearGradient3415" gradientUnits="userSpaceOnUse" x1="2.14" y1=".641" x2="2.185" y2=".641"/><linearGradient id="linearGradient3312"><stop offset="0" id="stop3314" stop-color="#1a0526"/><stop id="stop3316" offset=".097" stop-color="#200a30"/><stop id="stop3318" offset=".2" stop-color="#230d34"/><stop id="stop3320" offset=".3" stop-color="#2c1241"/><stop id="stop3322" offset=".4" stop-color="#2f1545"/><stop id="stop3324" offset=".5" stop-color="#371a54"/><stop id="stop3326" offset=".598" stop-color="#3d1a5a"/><stop id="stop3328" offset=".7" stop-color="#461e67"/><stop id="stop3330" offset=".8" stop-color="#482069"/><stop id="stop3332" offset=".9" stop-color="#55227e"/><stop offset="1" id="stop3334" stop-color="#562380"/></linearGradient><linearGradient y2=".641" x2="2.185" y1=".641" x1="2.14" gradientUnits="userSpaceOnUse" id="linearGradient3346" xlink:href="#linearGradient4119"/></defs><g id="layer1" transform="translate(0 -852.362)"><g id="g3388"><path d="M29.221 870.069c-.578 0-.952-.482-.952-.95v-6.379c0-2.095 1.563-3.438 3.301-3.438 1.624 0 2.507 1.066 2.961 1.808l3.939 6.174c.37.564.601.904 1.328.904.926 0 1.424-.706 1.424-1.476v-6.49c0-.491.426-.922.926-.922.547 0 .961.408.961.962v6.301c0 2.693-2.149 3.517-3.284 3.517-1.415 0-2.166-.608-2.952-1.815l-3.86-6.026c-.415-.684-.741-1.058-1.493-1.058-.307 0-1.362.27-1.362 1.545v6.4c0 .524-.437.944-.935.944z" id="path3095" fill="url(#linearGradient3399)"/><path d="M23.116 874.273l.012-.167c.025-.208.174-.274.281-.274.169 0 .282.14.282.283l-.012.153c0 .386.371.919 1.223.919.794 0 1.188-.496 1.188-.975 0-.603-.641-.773-1.258-.796-1.205-.051-1.712-.598-1.712-1.266 0-.769.545-1.561 1.755-1.561 1.048 0 1.686.767 1.686 1.564l-.005.095c-.016.165-.14.263-.286.263-.167 0-.275-.148-.275-.278l.006-.098c0-.536-.471-.985-1.153-.985-.754 0-1.179.439-1.179 1.004 0 .486.537.669 1.135.702.961.018 1.825.414 1.825 1.347 0 .676-.496 1.547-1.764 1.547-1.1 0-1.773-.737-1.773-1.476z" id="path3103" fill="url(#linearGradient3401)"/><path d="M28.84 870.604c-1.153 0-1.755.795-1.755 1.641v3.25c0 .168.133.281.281.281.148 0 .279-.116.279-.276v-1.356h1.197c.952 0 1.79-.746 1.79-1.718 0-.942-.692-1.823-1.79-1.823zm.01.562c.765 0 1.223.615 1.223 1.262 0 .701-.645 1.154-1.205 1.154h-1.223v-1.336c0-.559.383-1.081 1.205-1.081z" id="path3105" fill="url(#linearGradient3403)"/><path id="path3110" d="M37.94 870.604c-1.153 0-1.755.795-1.755 1.641v3.25c0 .168.133.281.281.281.148 0 .279-.116.279-.276v-1.356h1.214l.917 1.501c.052.081.136.134.242.134.146 0 .277-.123.277-.28l-.051-.162-.795-1.297c.681-.258 1.179-.857 1.179-1.614 0-.942-.692-1.823-1.79-1.823zm.01.562c.765 0 1.223.615 1.223 1.262 0 .701-.645 1.154-1.205 1.154h-1.223v-1.336c0-.559.383-1.081 1.205-1.081z" fill="url(#linearGradient3405)"/><path d="M33.31 870.601c-1.668 0-2.594 1.405-2.594 2.55 0 1.633 1.284 2.63 2.611 2.63 1.511 0 2.568-1.277 2.568-2.549 0-1.569-1.249-2.63-2.585-2.63zm-.001.562c.969 0 2.018.753 2.018 2.072 0 1.022-.871 1.984-2.009 1.984-1.118 0-2.052-.861-2.052-2.083 0-.926.781-1.973 2.035-1.973z" id="path3112" fill="url(#linearGradient3407)"/><path d="M41.316 875.775c-.17 0-.281-.14-.281-.281v-4.142h-1.17c-.157 0-.275-.141-.275-.277 0-.154.119-.283.283-.283h2.9c.18 0 .28.152.28.28 0 .158-.126.281-.281.281h-1.179v4.132c0 .171-.126.292-.28.292z" id="path3117" fill="url(#linearGradient3409)"/><path id="path3036" d="M3.5 855.916c-.265 0-.393.218-.393.421v8.088c0 3.533 2.638 5.561 5.389 5.561 2.55 0 5.293-2.09 5.293-5.307 0-3.294-2.707-5.354-5.336-5.354-3.144 0-4.559 2.535-4.559 2.535v-5.51c0-.253-.166-.437-.399-.437zm4.943 4.207c2.515 0 4.55 1.999 4.55 4.529 0 2.513-2.035 4.541-4.542 4.541-2.585 0-4.55-2.042-4.55-4.649 0-2.122 1.825-4.422 4.542-4.422z" fill="url(#linearGradient3411)"/><path id="path3085" d="M14.252 864.601c0-2.54 2.114-5.281 5.363-5.281 2.987 0 5.319 2.449 5.319 5.321 0 .273-.204.415-.447.415h-5.651c-.206 0-.388-.173-.388-.395 0-.225.176-.4.407-.4h5.266c-.136-2.012-1.869-4.148-4.533-4.148-2.611 0-4.55 2.191-4.55 4.447 0 2.689 2.14 4.631 4.542 4.631 2.07 0 3.31-1.262 3.86-2.112.081-.138.201-.218.358-.218.248 0 .393.205.393.396 0 .1-.031.183-.114.3-.865 1.288-2.411 2.428-4.498 2.428-2.838 0-5.336-2.296-5.336-5.386z" fill="url(#linearGradient3413)"/><path id="path3087" d="M26.492 870.066c-.483 0-.943-.389-.943-.94v-8.897c0-.488.403-.934.935-.934.507 0 .943.393.943.947v8.908c0 .525-.468.916-.943.916z" fill="url(#linearGradient3346)"/></g><g id="g3683" transform="matrix(.054 0 0 .054 45.546 857.522)"><g id="#ffffffff" fill="#fff"><path id="path3649" d="M643.6 16.63c4.54-.27 9.1-.24 13.66-.42 2.77 16.89 6.04 33.69 8.71 50.59-4.36.49-8.72 1-13.07 1.55-1.22-7.1-2.51-14.19-3.8-21.28-6.01.69-12.05 1.04-18.07 1.57.94 7.33 2.8 14.5 3.91 21.8-4.4.45-8.77 1.06-13.16 1.53-3.33-18.21-7.1-36.34-10.53-54.53 4.59-.22 9.19-.28 13.8-.28.9 6.84 2.57 13.55 3.67 20.36 6.11-.28 12.22-.72 18.33-1.1-1.03-6.61-2.36-13.18-3.45-19.79z"/><path id="path3651" d="M673.34 15.79c11.01.39 22.81-2.47 33.08 2.75 7.95 3.71 14.82 11.27 15.26 20.36.92 11.8-9.39 22.12-20.62 23.78-6.47.86-12.97 1.42-19.43 2.32-2.84-16.39-5.54-32.81-8.29-49.21m15.29 10.45c1.61 8.8 2.93 17.64 4.3 26.47 4.33-.33 9.09-1.21 12.11-4.64 4.81-5.39 2.9-14.43-2.57-18.63-3.91-3.06-9.07-3.53-13.84-3.2z"/><path id="path3653" d="M48.94 94.99c14.33-11.16 33.72-13.63 51.15-10.08 7.57 1.69 15.2 4.15 21.34 9.06-1.84 8.4-2.91 16.97-5.09 25.28-9.35-6.4-20.72-10.55-32.17-9.11-9.67 1.1-19.1 6.68-23.45 15.59-4.89 10.33-4.9 23.8 2.63 32.9 6.93 8.57 19.15 11.34 29.63 9.35 5.52-.85 10.61-3.23 15.86-4.98-1.19 8.91-2.69 17.84-4.62 26.62-5.73 3.52-12.74 4.23-19.32 4.9-16.32 1.35-33.74-4.09-44.82-16.51-6.77-7.5-10.58-17.19-12.2-27.07-.7-6.34-.7-12.72-.02-19.06 2.6-14.14 9.06-28.37 21.08-36.89z"/><path id="path3655" d="M566.5 85.38c10.07-.13 20.14-.09 30.21-.03.23 11.62.03 23.24.11 34.86 12.65.03 25.3-.07 37.95.05.01 10.2.05 20.39-.03 30.58-11.25.18-22.49.02-33.74.08-1.44-.01-2.82.31-4.2.62-.05 13.36.16 26.73-.11 40.09-10.05.05-20.11.21-30.16-.09-.31-13.4.4-26.88-.34-40.24-12.76-.92-25.67-.06-38.48-.44-.05-10.1-.05-20.21 0-30.31 12.91-.4 25.84-.05 38.76-.18.05-11.67-.01-23.33.03-34.99z"/><path id="path3657" d="M163.46 87.58c11.33-.24 22.67-.03 34-.09 3.75 14.7 6.35 29.68 9.7 44.48 4.11 19.81 8.39 39.58 12.5 59.38-9.01.36-18.04.02-27.05.22-1.45-6.08-2.89-12.17-4.42-18.23-11.08-.04-22.16-.01-33.24-.03-1.2.07-2.8-.1-3.5 1.13-3.15 5.41-4.92 11.55-8.29 16.82-10.38.5-20.83.25-31.22.1 15.33-32.24 31.65-64.03 47.27-96.13 1.38-2.54 2.18-5.61 4.25-7.65m-1.6 62.74c7.15-.01 14.3.08 21.45.2-2.54-10.83-4.77-21.73-7.27-32.56-4.72 10.79-9.42 21.59-14.18 32.36z"/><path id="path3659" d="M395.62 87.62c11.25-.28 22.53-.15 33.8-.05 6.29 28.72 11.91 57.6 18 86.37 1.02 5.98 2.7 11.84 3.49 17.86-9.15.05-18.3.05-27.45 0-1.6-6.14-2.48-12.45-4.14-18.59-11.92.14-23.88-.37-35.76.25-3.07 5.97-5.67 12.18-8.67 18.2-10.45-.03-20.9.21-31.35-.13 15.59-31.35 31.11-62.74 46.8-94.04 1.77-3.28 3.01-6.89 5.28-9.87m12.45 29.95c-4.73 11.02-9.7 21.93-14.41 32.95 7.22.04 14.43-.03 21.65.03-2.6-10.95-4.66-22.02-7.24-32.98z"/><path id="path3661" d="M477 87.49c9.65 0 19.3-.05 28.95.03-.35 7.15-1.7 14.2-2.59 21.28-2.69 19.68-5.49 39.35-8.09 59.04 10.43.26 20.88.03 31.32.12-1.01 7.91-1.87 15.85-3.2 23.71-20.38-.06-40.77.22-61.14-.14 3.75-30.25 8.61-60.38 12.66-90.6.79-4.46 1.17-8.99 2.09-13.44z"/><path id="path3663" d="M244.38 93.14c.4-1.84-.11-4.14 1.57-5.45 9.8-.24 19.6 0 29.4-.1 11.58 19.37 21.97 39.46 33.71 58.72 3.17-19.52 5.46-39.18 8.69-58.69 6.1-.13 12.19.24 18.29.13 3.4.07 6.87-.33 10.22.51-4.49 32.57-9.19 65.12-13.77 97.68-.26 1.93-.59 3.86-1.02 5.76-9.25-.02-18.5-.02-27.75.01-11.98-21.39-24-42.75-35.92-64.16-3.17 21.29-5.86 42.66-9.21 63.93-8.92.04-17.84.04-26.75 0-.26-.36-.77-1.08-1.03-1.45 2.58-17 4.82-34.07 7.16-51.11 2.21-15.25 4.24-30.53 6.41-45.78z"/></g><g id="#ce0d21ff" fill="#ce0d21"><path id="path3666" d="M586.63 3.05c48.96-.03 97.91.08 146.87-.06 3.28 23.11 6.96 46.21 9.23 69.44-22.57 3.44-45.16 6.72-67.71 10.26-4.81.73-9.69 1.06-14.4 2.33-18.55 3.3-37.26 5.65-55.85 8.68-2.4-11.88-5.23-23.69-7.05-35.67-3.38-18.39-7.35-36.67-11.09-54.98m56.97 13.58c1.09 6.61 2.42 13.18 3.45 19.79-6.11.38-12.22.82-18.33 1.1-1.1-6.81-2.77-13.52-3.67-20.36-4.61 0-9.21.06-13.8.28 3.43 18.19 7.2 36.32 10.53 54.53 4.39-.47 8.76-1.08 13.16-1.53-1.11-7.3-2.97-14.47-3.91-21.8 6.02-.53 12.06-.88 18.07-1.57 1.29 7.09 2.58 14.18 3.8 21.28 4.35-.55 8.71-1.06 13.07-1.55-2.67-16.9-5.94-33.7-8.71-50.59-4.56.18-9.12.15-13.66.42m29.74-.84c2.75 16.4 5.45 32.82 8.29 49.21 6.46-.9 12.96-1.46 19.43-2.32 11.23-1.66 21.54-11.98 20.62-23.78-.44-9.09-7.31-16.65-15.26-20.36-10.27-5.22-22.07-2.36-33.08-2.75z"/><path id="path3668" d="M688.63 26.24c4.77-.33 9.93.14 13.84 3.2 5.47 4.2 7.38 13.24 2.57 18.63-3.02 3.43-7.78 4.31-12.11 4.64-1.37-8.83-2.69-17.67-4.3-26.47z"/></g><g id="#000000ff"><path id="path3671" d="M3.07 57.99c198.22.02 396.44-.06 594.65.04 1.82 11.98 4.65 23.79 7.05 35.67 18.59-3.03 37.3-5.38 55.85-8.68.13 46.99.01 93.99.06 140.98-219.2-.02-438.4-.02-657.6 0l-.01-168.01m45.87 37c-12.02 8.52-18.48 22.75-21.08 36.89-.68 6.34-.68 12.72.02 19.06 1.62 9.88 5.43 19.57 12.2 27.07 11.08 12.42 28.5 17.86 44.82 16.51 6.58-.67 13.59-1.38 19.32-4.9 1.93-8.78 3.43-17.71 4.62-26.62-5.25 1.75-10.34 4.13-15.86 4.98-10.48 1.99-22.7-.78-29.63-9.35-7.53-9.1-7.52-22.57-2.63-32.9 4.35-8.91 13.78-14.49 23.45-15.59 11.45-1.44 22.82 2.71 32.17 9.11 2.18-8.31 3.25-16.88 5.09-25.28-6.14-4.91-13.77-7.37-21.34-9.06-17.43-3.55-36.82-1.08-51.15 10.08m566.5 85.38c-.04 11.66.02 23.32-.03 34.99-12.92.13-25.85-.22-38.76.18-.05 10.1-.05 20.21 0 30.31 12.81.38 25.72-.48 38.48.44.74 13.36.03 26.84.34 40.24 10.05.3 20.11.14 30.16.09.27-13.36.06-26.73.11-40.09 1.38-.31 2.76-.63 4.2-.62 11.25-.06 22.49.1 33.74-.08.08-10.19.04-20.38.03-30.58-12.65-.12-25.3-.02-37.95-.05-.08-11.62.12-23.24-.11-34.86-10.07-.06-20.14-.1-30.21.03m-403.04 2.2c-2.07 2.04-2.87 5.11-4.25 7.65-15.62 32.1-31.94 63.89-47.27 96.13 10.39.15 20.84.4 31.22-.1 3.37-5.27 5.14-11.41 8.29-16.82.7-1.23 2.3-1.06 3.5-1.13 11.08.02 22.16-.01 33.24.03 1.53 6.06 2.97 12.15 4.42 18.23 9.01-.2 18.04.14 27.05-.22-4.11-19.8-8.39-39.57-12.5-59.38-3.35-14.8-5.95-29.78-9.7-44.48-11.33.06-22.67-.15-34 .09m232.16.04c-2.27 2.98-3.51 6.59-5.28 9.87-15.69 31.3-31.21 62.69-46.8 94.04 10.45.34 20.9.1 31.35.13 3-6.02 5.6-12.23 8.67-18.2 11.88-.62 23.84-.11 35.76-.25 1.66 6.14 2.54 12.45 4.14 18.59 9.15.05 18.3.05 27.45 0-.79-6.02-2.47-11.88-3.49-17.86-6.09-28.77-11.71-57.65-18-86.37-11.27-.1-22.55-.23-33.8.05m477 87.49c-.92 4.45-1.3 8.98-2.09 13.44-4.05 30.22-8.91 60.35-12.66 90.6 20.37.36 40.76.08 61.14.14 1.33-7.86 2.19-15.8 3.2-23.71-10.44-.09-20.89.14-31.32-.12 2.6-19.69 5.4-39.36 8.09-59.04.89-7.08 2.24-14.13 2.59-21.28-9.65-.08-19.3-.03-28.95-.03m-232.62 5.65c-2.17 15.25-4.2 30.53-6.41 45.78-2.34 17.04-4.58 34.11-7.16 51.11.26.37.77 1.09 1.03 1.45 8.91.04 17.83.04 26.75 0 3.35-21.27 6.04-42.64 9.21-63.93 11.92 21.41 23.94 42.77 35.92 64.16 9.25-.03 18.5-.03 27.75-.01.43-1.9.76-3.83 1.02-5.76 4.58-32.56 9.28-65.11 13.77-97.68-3.35-.84-6.82-.44-10.22-.51-6.1.11-12.19-.26-18.29-.13-3.23 19.51-5.52 39.17-8.69 58.69-11.74-19.26-22.13-39.35-33.71-58.72-9.8.1-19.6-.14-29.4.1-1.68 1.31-1.17 3.61-1.57 5.45z"/><path id="path3673" d="M161.86 150.32c4.76-10.77 9.46-21.57 14.18-32.36 2.5 10.83 4.73 21.73 7.27 32.56-7.15-.12-14.3-.21-21.45-.2z"/><path id="path3675" d="M408.07 117.57c2.58 10.96 4.64 22.03 7.24 32.98-7.22-.06-14.43.01-21.65-.03 4.71-11.02 9.68-21.93 14.41-32.95z"/></g></g><g id="g3793" transform="matrix(.078 0 0 .078 88.625 855.398)"><g id="#000000ff-1"><path id="path3766" d="M0 0h83.41c.05 74.31-.08 148.62.07 222.93-27.83.17-55.65.02-83.48.07v-223m22.16 32.01c-.23 9.58 7.39 18.47 16.83 19.89 8.05 1.49 16.76-2.43 20.81-9.57-3.21-1.83-6.38-3.74-9.49-5.73-1.53 1.53-2.98 3.37-5.18 3.91-5.39 2.07-11.79-2.76-11.61-8.46-.41-5.4 5.26-10.01 10.46-8.94 2.61.31 4.53 2.2 6.19 4.06 3.34-1.8 6.54-3.85 9.77-5.85-4.49-6.73-12.84-10.99-20.95-9.34-9.49 1.42-17.1 10.41-16.83 20.03m14.94 32.68v33.14c4.43-.01 8.86-.01 13.29 0-.01-11.01-.01-22.03 0-33.04-4.43-.17-8.86-.08-13.29-.1m-12.51 47.76c.04 12.4.04 24.8 0 37.2 3.14 0 6.27 0 9.4.01.03-8.07-.02-16.13.03-24.2 4.8 8.03 9.59 16.08 14.26 24.18l12.22.02c-.02-12.41-.02-24.81 0-37.21-3.13.02-6.26.02-9.39.01-.01 8.1-.02 16.2 0 24.31-4.63-8.08-9.21-16.2-13.77-24.31-4.25.01-8.5.01-12.75-.01m14.04 52.53c-3.42.03-6.85.02-10.28.03.01 13.2.01 26.39 0 39.59 9.68-.01 19.37-.01 29.05 0 .04-3.01 0-6.02-.16-9.03-5.87.02-11.74 0-17.61.01.01-2.39.01-4.78 0-7.17l17.22.02c-.01-2.66-.01-5.32-.01-7.98-5.73.03-11.47 0-17.21.02.01-2.22.01-4.43.01-6.65l17.75.01c-.01-2.94-.01-5.89 0-8.83h-9.39v-5.88c-3.1 1.99-6.29 3.83-9.37 5.86z"/><path id="path3768" d="M151.67 86.04c2.58-13.38 15.67-23.86 29.29-23.34 29.69.03 59.37 0 89.06.01 7.7.07 15.5-.44 23.08 1.27 8.08 1.54 15.39 5.95 21.09 11.81 8.11 8.5 15.75 17.44 23.66 26.12 11.16-12.55 22.55-24.89 33.73-37.41.9-.83 1.72-2.24 3.21-1.8 15.41.01 30.82.01 46.23.01-19.72 22.01-39.53 43.96-59.17 66.04 19.82 21.88 39.35 44.02 59.18 65.9-15.89-.02-31.78 0-47.67-.01-11.81-13.15-23.64-26.27-35.36-39.49-11.71 13.23-23.55 26.34-35.34 39.49-16.31.01-32.62-.02-48.93.01 20.13-22.08 40.14-44.27 60.19-66.43-5.86-6.19-11.37-12.7-17.18-18.93-4.73-5.37-9.92-10.93-16.92-13.2-6.7-2.09-13.81-1.89-20.75-1.97-19.35.03-38.7-.06-58.05.04-4.93.18-10.94.07-14.32 4.34-4.25 6.17-4.81 13.9-6.64 20.98 26.14-.01 52.28 0 78.42 0-2.3 10.45-4.41 20.95-6.74 31.41-26.14.26-52.28.04-78.42.11-3.1 14.55-6.23 29.09-9.29 43.64-11.84 0-23.68-.01-35.52 0 7.78-36.19 15.46-72.4 23.16-108.6z"/></g><path id="path3771" d="M83.41 0h427.59v91.23c-13.06.28-26.09 5.09-35.53 14.25-8.96 8.67-14.67 20.94-14.5 33.5-.51 15.31 7.61 30.32 20.05 39.05 8.63 6.35 19.33 9.42 29.98 9.68v91.29h-427.59c.29-18.68.15-37.38.07-56.07-.15-74.31-.02-148.62-.07-222.93m58.75 84.93c-8.4 39.81-17.16 79.55-25.31 119.41 18.31-.13 36.64.32 54.94-.22 3.07-14.57 6.22-29.11 9.31-43.67 26.14.04 52.29-.03 78.43.03 3.4-16.85 7.34-33.6 10.6-50.48-25.97-.02-51.94.04-77.91-.03.47-2.61 1.24-6.61 4.8-6.1 21.99-.44 44-.08 66.01-.19 6.47.05 13.76-.06 18.99 4.39 6.91 6.15 12.68 13.43 18.96 20.2-20.51 22.74-41.13 45.39-61.62 68.15-2.32 2.55-4.94 4.87-6.74 7.85 24.73.19 49.47.03 74.21.08 10.52-11.56 20.59-23.56 31.54-34.72 9.89 11.89 20.66 23.04 30.81 34.72 24.38-.03 48.77.07 73.15-.05-22.36-25.38-45.21-50.35-67.65-75.66 22.59-25.08 45.11-50.22 67.62-75.37-23.79-.14-47.59 0-71.38-.07-2.57-.53-3.69 2.14-5.19 3.63-9.41 10.16-18.51 20.61-27.98 30.72-4.49-5.28-9.3-10.26-13.82-15.5-6.15-6.84-13.67-12.67-22.44-15.68-9.14-3.22-18.94-3.39-28.52-3.26h-91.93c-18.33-.61-35.79 13.78-38.88 31.82z" fill="#b4d700"/><g id="#ffffffff-8" fill="#fff"><path id="path3774" d="M22.16 32.01c-.27-9.62 7.34-18.61 16.83-20.03 8.11-1.65 16.46 2.61 20.95 9.34-3.23 2-6.43 4.05-9.77 5.85-1.66-1.86-3.58-3.75-6.19-4.06-5.2-1.07-10.87 3.54-10.46 8.94-.18 5.7 6.22 10.53 11.61 8.46 2.2-.54 3.65-2.38 5.18-3.91 3.11 1.99 6.28 3.9 9.49 5.73-4.05 7.14-12.76 11.06-20.81 9.57-9.44-1.42-17.06-10.31-16.83-19.89z"/><path id="path3776" d="M142.16 84.93c3.09-18.04 20.55-32.43 38.88-31.82h91.93c9.58-.13 19.38.04 28.52 3.26 8.77 3.01 16.29 8.84 22.44 15.68 4.52 5.24 9.33 10.22 13.82 15.5 9.47-10.11 18.57-20.56 27.98-30.72 1.5-1.49 2.62-4.16 5.19-3.63 23.79.07 47.59-.07 71.38.07-22.51 25.15-45.03 50.29-67.62 75.37 22.44 25.31 45.29 50.28 67.65 75.66-24.38.12-48.77.02-73.15.05-10.15-11.68-20.92-22.83-30.81-34.72-10.95 11.16-21.02 23.16-31.54 34.72-24.74-.05-49.48.11-74.21-.08 1.8-2.98 4.42-5.3 6.74-7.85 20.49-22.76 41.11-45.41 61.62-68.15-6.28-6.77-12.05-14.05-18.96-20.2-5.23-4.45-12.52-4.34-18.99-4.39-22.01.11-44.02-.25-66.01.19-3.56-.51-4.33 3.49-4.8 6.1 25.97.07 51.94.01 77.91.03-3.26 16.88-7.2 33.63-10.6 50.48-26.14-.06-52.29.01-78.43-.03-3.09 14.56-6.24 29.1-9.31 43.67-18.3.54-36.63.09-54.94.22 8.15-39.86 16.91-79.6 25.31-119.41m9.51 1.11c-7.7 36.2-15.38 72.41-23.16 108.6 11.84-.01 23.68 0 35.52 0 3.06-14.55 6.19-29.09 9.29-43.64 26.14-.07 52.28.15 78.42-.11 2.33-10.46 4.44-20.96 6.74-31.41-26.14 0-52.28-.01-78.42 0 1.83-7.08 2.39-14.81 6.64-20.98 3.38-4.27 9.39-4.16 14.32-4.34 19.35-.1 38.7-.01 58.05-.04 6.94.08 14.05-.12 20.75 1.97 7 2.27 12.19 7.83 16.92 13.2 5.81 6.23 11.32 12.74 17.18 18.93-20.05 22.16-40.06 44.35-60.19 66.43 16.31-.03 32.62 0 48.93-.01 11.79-13.15 23.63-26.26 35.34-39.49 11.72 13.22 23.55 26.34 35.36 39.49 15.89.01 31.78-.01 47.67.01-19.83-21.88-39.36-44.02-59.18-65.9 19.64-22.08 39.45-44.03 59.17-66.04-15.41 0-30.82 0-46.23-.01-1.49-.44-2.31.97-3.21 1.8-11.18 12.52-22.57 24.86-33.73 37.41-7.91-8.68-15.55-17.62-23.66-26.12-5.7-5.86-13.01-10.27-21.09-11.81-7.58-1.71-15.38-1.2-23.08-1.27-29.69-.01-59.37.02-89.06-.01-13.62-.52-26.71 9.96-29.29 23.34z"/><path id="path3778" d="M37.1 64.69c4.43.02 8.86-.07 13.29.1-.01 11.01-.01 22.03 0 33.04-4.43-.01-8.86-.01-13.29 0v-33.14z"/><path id="path3780" d="M24.59 112.45c4.25.02 8.5.02 12.75.01 4.56 8.11 9.14 16.23 13.77 24.31-.02-8.11-.01-16.21 0-24.31 3.13.01 6.26.01 9.39-.01-.02 12.4-.02 24.8 0 37.21l-12.22-.02c-4.67-8.1-9.46-16.15-14.26-24.18-.05 8.07 0 16.13-.03 24.2-3.13-.01-6.26-.01-9.4-.01.04-12.4.04-24.8 0-37.2z"/><path id="path3782" d="M38.63 164.98c3.08-2.03 6.27-3.87 9.37-5.86v5.88h9.39c-.01 2.94-.01 5.89 0 8.83l-17.75-.01c0 2.22 0 4.43-.01 6.65 5.74-.02 11.48.01 17.21-.02 0 2.66 0 5.32.01 7.98l-17.22-.02c.01 2.39.01 4.78 0 7.17 5.87-.01 11.74.01 17.61-.01.16 3.01.2 6.02.16 9.03-9.68-.01-19.37-.01-29.05 0 .01-13.2.01-26.39 0-39.59 3.43-.01 6.86 0 10.28-.03z"/></g><path id="path3785" d="M0 223c27.83-.05 55.65.1 83.48-.07.08 18.69.22 37.39-.07 56.07h-83.41v-56z" fill="#d7002a"/></g><g id="g3900" transform="matrix(.078 0 0 .078 134.625 855.398)"><g id="#000000ff-7"><path id="path3857" d="M0 0h511v91.33c-12.59.13-25.12 4.7-34.44 13.24-9.59 8.7-15.73 21.43-15.58 34.47-.45 15.03 7.34 29.8 19.47 38.54 8.73 6.6 19.66 9.88 30.55 10.08v91.34h-428v-56h-83v-223m22.21 32c-.27 9.64 7.37 18.65 16.9 20.05 8.1 1.62 16.47-2.64 20.96-9.38-3.27-1.94-6.45-4.06-9.82-5.83-2.2 2.78-5.68 4.93-9.33 4.03-4.53-.73-7.95-5.35-7.3-9.89.48-5.2 6.23-9.27 11.26-7.61 2.35.5 3.95 2.42 5.61 4 3.12-2.11 6.42-3.91 9.57-5.97-4.49-6.84-12.96-10.99-21.12-9.37-9.42 1.49-16.97 10.41-16.73 19.97m328.38 20.73c-3.63.4-6.56 2.78-9.75 4.32-5.28 3.12-10.95 5.55-16.08 8.92 7.77-2.28 15.49-4.74 23.26-6.99 12.4-1.26 24.85-2.01 37.26-3.24 4.38 10.98 8.26 22.17 12.84 33.06 10.63-.03 21.24.52 31.87.66-8.24 6.87-16.58 13.62-24.58 20.77 1.29 7.07.5 14.19-.23 21.26 2.89.76 5.75 1.64 8.63 2.44 5.38 12.69 11.13 25.21 16.54 37.89.66 1.49 1.25 3.11 2.59 4.16 14.13 12.24 28.05 24.74 42.23 36.93-12.26-14.77-25.02-29.14-37.45-43.77-.53-.71-.96-1.47-1.29-2.28-4.96-12.22-9.6-24.57-14.59-36.79-3.27-.5-6.57-.81-9.86-1.08 1.03-6.1 1.55-12.27 1.67-18.46 6.2-5.06 12.27-10.26 18.44-15.36 3.64-2.7 5.53-6.96 8.1-10.57-12.72-.05-25.44-.01-38.16-.02-4.45-12.14-8.54-24.41-13.17-36.47-12.75 1.6-25.51 3.13-38.27 4.62m37.2 65.01c.01 10.99.01 21.99 0 32.98 4.43.02 8.86.01 13.29.01v-33c-4.43 0-8.86-.01-13.29.01m359.35 85.2c-2.34 2.87-3.48 6.51-5.78 9.41-7.46 4.05-15.63 6.75-22.92 11.13 8.42-1.93 16.95-3.24 25.41-4.95 3.62-.77 7.41-1.04 10.78-2.68 7.73-3.54 15.53-6.91 23.27-10.43-1.74-4.44-3.75-8.76-5.47-13.2-8.43 3.58-16.99 6.88-25.29 10.72m-203.81 16.41c-8.16 2-14.18 9.99-14.11 18.36-.06 14.34.01 28.69-.03 43.03-.07 4.54.89 9.26 3.59 13 5.45 7.66 16.69 10.17 24.99 5.86 6.45-2.93 10.57-9.84 10.63-16.84.07-14.7.01-29.4.03-44.09.1-5.43-1.9-11.02-5.97-14.7-4.88-4.97-12.55-6.25-19.13-4.62m96.2 101.52c.01 27.26 0 54.53 0 81.8 3.92-.02 7.83-.02 11.75-.01.01-10.63-.03-21.27.02-31.9 5.68.03 11.82.37 16.91-2.61 5.5-3.22 8.61-9.53 8.98-15.76.29-5.82.51-11.74-.59-17.49-1.58-7.59-8.62-13.42-16.31-13.87-6.91-.37-13.84-.05-20.76-.16m93.3-.01c.03 27.22.01 54.44.01 81.66 14.4.26 28.81.13 43.21.14 1.15-5.86 2.39-11.7 3.41-17.59 5.31-.02 10.62-.01 15.93-.01 1.05 5.8 2.32 11.56 3.34 17.36 3.9.43 7.82.18 11.74.22-5.83-27.3-12.17-54.49-18.11-81.77-3.27 0-6.54.01-9.81-.01-5.07 23.3-10.61 46.5-15.39 69.85-7.5.25-15 .01-22.5.14-.1-23.33.22-46.67-.16-69.99-3.89.02-7.78.02-11.67 0m83.5.01v81.78c3.91-.05 7.83.21 11.73-.23-.09-11.53 0-23.06-.05-34.59 2.33 0 4.67 0 7.01.01 3.4 11.57 7.21 23.02 10.67 34.57 4.18.48 8.39.16 12.58.24-4.13-12.44-8.46-24.81-12.58-37.26 4.46-2.68 7.97-7.01 9.1-12.14 1.57-7.24 1.32-15.11-1.52-22.01-2.59-6.33-9.34-10.02-15.97-10.28-6.99-.21-13.98-.03-20.97-.09m24.67 113c0 12.34-.01 24.67 0 37h9.33c.04-8.03-.09-16.07.07-24.1 4.98 7.9 9.51 16.07 14.32 24.08 4.09.03 8.17.02 12.26.01-.01-12.33-.01-24.65 0-36.98-302.06 43.85-305.21 43.85-308.35 43.85 0 8.04-.02 16.08.01 24.13-4.55-8.01-9.14-15.99-13.58-24.06-4.32-.13-8.65-.06-12.97-.07m310.22 12.18c-1.17 2.36-2.42 4.68-3.67 6.99 1.91.97 3.84 1.91 5.76 2.88 3.42-3.33 6.82-6.68 10.25-10.01 7.19-1.31 14.35-2.78 21.52-4.18-3.33 2.81-6.95 5.29-10.03 8.38 3.72.55 7.44 1.09 11.17 1.59-2.36 2.39-4.72 4.77-7.09 7.13-3.12.15-6.23.39-9.33.64l-4.6 4.2c-2.89-1.23-5.56-3.6-8.89-3.28-1.23.18-3.76-.44-3.45 1.59-.25 6.44-.58 12.9-.64 19.35 1.13.49 2.25 1.01 3.36 1.56 3.46-.98 6.77-2.37 10.13-3.61-.08 3.54-.17 7.07-.28 10.61 12.05-10.26 23.82-20.85 35.89-31.09 2.03-1.93 5.01-2.23 7.2-3.86 1.37-3.34 2.18-6.89 3.44-10.27-1.64-3.24-3.34-6.45-4.94-9.71-1.86.06-3.71.11-5.56.2-1.51 3.9-3.09 7.76-4.64 11.65-3.12-4.14-6.2-8.32-9.29-12.48-12.05 4.07-24.29 7.57-36.31 11.72m38.84 165.25c-3.47.25-6.96.04-10.44.09.02 13.22.01 26.43 0 39.65 9.7.02 19.39 0 29.09.01v-8.84c-5.92.03-11.83.01-17.75.01v-7.34c5.75 0 11.5-.01 17.25 0-296.04 37.46-296.04 34.85-296.04 32.24h-17.25c0-2.21-.01-4.42-.03-6.63 5.74-.09 11.47.13 17.2-.09 1.33-2.57.22-6.03.58-8.94-3.16.01-6.33.01-9.49-.01-.01-1.85-.01-3.71-.03-5.56-3.17 1.62-6 3.81-9.14 5.48z"/><path id="path3859" d="M107.95 112.66c4.34.27 9.78-1.14 13.06 2.53 2.73 4.06 1.99 9.18 2.1 13.81-.19 3.4-.08 7.72-3.28 9.84-3.53 2.21-7.94 1.19-11.88 1.45v-27.63z"/><path id="path3861" d="M157.33 113.44c3.1-1.45 7.23-.95 9.6 1.64 1.77 1.78 1.87 4.52 2.07 6.88.02 13.35-.02 26.69.01 40.04.09 3.19-.56 6.85-3.28 8.89-2.9 1.66-6.55 1.64-9.45 0-3.09-2.26-3.24-6.42-3.29-9.89.03-12.71-.02-25.41.02-38.11.06-3.53.52-7.96 4.32-9.45z"/><path id="path3863" d="M284.69 112.65c4.27.26 9.17-.88 12.87 1.84 3.26 2.83 2.94 7.6 3.02 11.53-.04 3.83-.15 8.55-3.78 10.85-3.78 1.82-8.07 1.03-12.11 1.18 0-8.47.01-16.93 0-25.4z"/><path id="path3865" d="M238.29 154.61c1.96-9.9 3.73-19.83 5.77-29.71 1.94 9.9 3.96 19.79 5.74 29.72-3.84-.06-7.67-.05-11.51-.01z"/></g><g id="#ffffffff-9" fill="#fff"><path id="path3868" d="M22.21 32c-.24-9.56 7.31-18.48 16.73-19.97 8.16-1.62 16.63 2.53 21.12 9.37-3.15 2.06-6.45 3.86-9.57 5.97-1.66-1.58-3.26-3.5-5.61-4-5.03-1.66-10.78 2.41-11.26 7.61-.65 4.54 2.77 9.16 7.3 9.89 3.65.9 7.13-1.25 9.33-4.03 3.37 1.77 6.55 3.89 9.82 5.83-4.49 6.74-12.86 11-20.96 9.38-9.53-1.4-17.17-10.41-16.9-20.05z"/><path id="path3870" d="M350.59 52.73c12.76-1.49 25.52-3.02 38.27-4.62 4.63 12.06 8.72 24.33 13.17 36.47 12.72.01 25.44-.03 38.16.02-2.57 3.61-4.46 7.87-8.1 10.57-6.17 5.1-12.24 10.3-18.44 15.36-.12 6.19-.64 12.36-1.67 18.46 3.29.27 6.59.58 9.86 1.08 4.99 12.22 9.63 24.57 14.59 36.79.33.81.76 1.57 1.29 2.28 12.43 14.63 25.19 29 37.45 43.77-14.18-12.19-28.1-24.69-42.23-36.93-1.34-1.05-1.93-2.67-2.59-4.16-5.41-12.68-11.16-25.2-16.54-37.89-2.88-.8-5.74-1.68-8.63-2.44.73-7.07 1.52-14.19.23-21.26 8-7.15 16.34-13.9 24.58-20.77-10.63-.14-21.24-.69-31.87-.66-4.58-10.89-8.46-22.08-12.84-33.06-12.41 1.23-24.86 1.98-37.26 3.24-7.77 2.25-15.49 4.71-23.26 6.99 5.13-3.37 10.8-5.8 16.08-8.92 3.19-1.54 6.12-3.92 9.75-4.32z"/><path id="path3872" d="M37.2 65.01c4.43-.02 8.86-.01 13.29-.01v33c-4.43 0-8.86.01-13.29-.01.01-10.99.01-21.99 0-32.98z"/><path id="path3874" d="M155.54 101.61c6.58-1.63 14.25-.35 19.13 4.62 4.07 3.68 6.07 9.27 5.97 14.7-.02 14.69.04 29.39-.03 44.09-.06 7-4.18 13.91-10.63 16.84-8.3 4.31-19.54 1.8-24.99-5.86-2.7-3.74-3.66-8.46-3.59-13 .04-14.34-.03-28.69.03-43.03-.07-8.37 5.95-16.36 14.11-18.36m1.79 11.83c-3.8 1.49-4.26 5.92-4.32 9.45-.04 12.7.01 25.4-.02 38.11.05 3.47.2 7.63 3.29 9.89 2.9 1.64 6.55 1.66 9.45 0 2.72-2.04 3.37-5.7 3.28-8.89-.03-13.35.01-26.69-.01-40.04-.2-2.36-.3-5.1-2.07-6.88-2.37-2.59-6.5-3.09-9.6-1.64z"/><path id="path3876" d="M96.2 101.52c6.92.11 13.85-.21 20.76.16 7.69.45 14.73 6.28 16.31 13.87 1.1 5.75.88 11.67.59 17.49-.37 6.23-3.48 12.54-8.98 15.76-5.09 2.98-11.23 2.64-16.91 2.61-.05 10.63-.01 21.27-.02 31.9-3.92-.01-7.83-.01-11.75.01 0-27.27.01-54.54 0-81.8m11.75 11.14v27.63c3.94-.26 8.35.76 11.88-1.45 3.2-2.12 3.09-6.44 3.28-9.84-.11-4.63.63-9.75-2.1-13.81-3.28-3.67-8.72-2.26-13.06-2.53z"/><path id="path3878" d="M189.5 101.51c3.89.02 7.78.02 11.67 0 .38 23.32.06 46.66.16 69.99 7.5-.13 15 .11 22.5-.14 4.78-23.35 10.32-46.55 15.39-69.85 3.27.02 6.54.01 9.81.01 5.94 27.28 12.28 54.47 18.11 81.77-3.92-.04-7.84.21-11.74-.22-1.02-5.8-2.29-11.56-3.34-17.36-5.31 0-10.62-.01-15.93.01-1.02 5.89-2.26 11.73-3.41 17.59-14.4-.01-28.81.12-43.21-.14 0-27.22.02-54.44-.01-81.66m48.79 53.1c3.84-.04 7.67-.05 11.51.01-1.78-9.93-3.8-19.82-5.74-29.72-2.04 9.88-3.81 19.81-5.77 29.71z"/><path id="path3880" d="M273 101.52c6.99.06 13.98-.12 20.97.09 6.63.26 13.38 3.95 15.97 10.28 2.84 6.9 3.09 14.77 1.52 22.01-1.13 5.13-4.64 9.46-9.1 12.14 4.12 12.45 8.45 24.82 12.58 37.26-4.19-.08-8.4.24-12.58-.24-3.46-11.55-7.27-23-10.67-34.57-2.34-.01-4.68-.01-7.01-.01.05 11.53-.04 23.06.05 34.59-3.9.44-7.82.18-11.73.23v-81.78m11.69 11.13c.01 8.47 0 16.93 0 25.4 4.04-.15 8.33.64 12.11-1.18 3.63-2.3 3.74-7.02 3.78-10.85-.08-3.93.24-8.7-3.02-11.53-3.7-2.72-8.6-1.58-12.87-1.84z"/><path id="path3882" d="M24.67 113c4.32.01 8.65-.06 12.97.07 4.44 8.07 9.03 16.05 13.58 24.06-.03-8.05-.01-16.09-.01-24.13 3.14 0 6.29 0 9.44.01-.01 12.33-.01 24.65 0 36.98-4.09.01-8.17.02-12.26-.01-4.81-8.01-9.34-16.18-14.32-24.08-.16 8.03-.03 16.07-.07 24.1h-9.33c-.01-12.33 0-24.66 0-37z"/><path id="path3884" d="M38.84 165.25c3.14-1.67 5.97-3.86 9.14-5.48.02 1.85.02 3.71.03 5.56 3.16.02 6.33.02 9.49.01-.36 2.91.75 6.37-.58 8.94-5.73.22-11.46 0-17.2.09.02 2.21.03 4.42.03 6.63h17.25c0 2.61 0 5.22-.01 7.83-5.75-.01-11.5 0-17.25 0v7.34c5.92 0 11.83.02 17.75-.01v8.84c-9.7-.01-19.39.01-29.09-.01.01-13.22.02-26.43 0-39.65 3.48-.05 6.97.16 10.44-.09z"/></g><g id="#ffdd00ff" fill="#fd0"><path id="path3887" d="M359.35 85.2c8.3-3.84 16.86-7.14 25.29-10.72 1.72 4.44 3.73 8.76 5.47 13.2-7.74 3.52-15.54 6.89-23.27 10.43-3.37 1.64-7.16 1.91-10.78 2.68-8.46 1.71-16.99 3.02-25.41 4.95 7.29-4.38 15.46-7.08 22.92-11.13 2.3-2.9 3.44-6.54 5.78-9.41z"/><path id="path3889" d="M334.89 125.18c12.02-4.15 24.26-7.65 36.31-11.72 3.09 4.16 6.17 8.34 9.29 12.48 1.55-3.89 3.13-7.75 4.64-11.65 1.85-.09 3.7-.14 5.56-.2 1.6 3.26 3.3 6.47 4.94 9.71-1.26 3.38-2.07 6.93-3.44 10.27-2.19 1.63-5.17 1.93-7.2 3.86-12.07 10.24-23.84 20.83-35.89 31.09.11-3.54.2-7.07.28-10.61-3.36 1.24-6.67 2.63-10.13 3.61-1.11-.55-2.23-1.07-3.36-1.56.06-6.45.39-12.91.64-19.35-.31-2.03 2.22-1.41 3.45-1.59 3.33-.32 6 2.05 8.89 3.28l4.6-4.2c3.1-.25 6.21-.49 9.33-.64 2.37-2.36 4.73-4.74 7.09-7.13-3.73-.5-7.45-1.04-11.17-1.59 3.08-3.09 6.7-5.57 10.03-8.38-7.17 1.4-14.33 2.87-21.52 4.18-3.43 3.33-6.83 6.68-10.25 10.01-1.92-.97-3.85-1.91-5.76-2.88 1.25-2.31 2.5-4.63 3.67-6.99z"/></g><path id="path3892" d="M0 223h83v56h-83v-56z" fill="#df1e2f"/></g><g id="g3971" transform="matrix(.26 0 0 .26 1.189 880.376)"><rect id="rect3975" height="40.82" width="129.245" class="st0" y="2.483" x="2.987" fill="#4d454a"/><path id="path3977" d="M27.395 32.311c0 .332-.274.605-.854.818-1.616.547-3.11.82-4.513.82-2.105 0-4.117-.516-6.071-1.578-3.904-2.154-6.07-5.766-6.07-10.227 0-2.457.671-4.672 1.984-6.676 1.341-2.002 3.14-3.488 5.398-4.43 1.462-.639 3.019-.939 4.697-.939 1.13 0 2.35.182 3.66.516.397.09.702.213.976.334l.334.152c.275.119.428.332.428.605v5.855c0 .152-.06.215-.153.215l-.275-.154c-.456-.453-1.126-.818-2.012-1.123-.945-.332-1.8-.484-2.531-.484-2.654 0-4.88 1.396-5.888 3.732-.335.758-.486 1.578-.486 2.457 0 1.73.639 3.127 1.922 4.219 1.187 1.002 2.653 1.518 4.392 1.518 1.983 0 3.506-.545 4.634-1.67.092-.121.184-.18.244-.18.123 0 .184.18.184.574v5.646z" class="st1" fill="#fff"/><path id="path3979" d="M31.749 33.34v-22.756h5.947v22.756h-5.947z" class="st1" fill="#fff"/><path id="path3981" d="M59.316 33.34l-10.921-13.925v13.925h-5.947v-22.756h5.947l10.921 13.928v-13.928h5.947v22.756h-5.947z" class="st1" fill="#fff"/><path id="path3983" d="M69.434 33.34v-22.756h1.982l.337-.941h9.028l-.337.941h1.983v5.008h-7.045v3.791h6.679v5.008h-6.679v3.943h7.045v5.006h-12.993z" class="st1" fill="#fff"/><g id="g3985"><path id="path3987" d="M157.059 68.931c-40.825 4.423-81.652 8.834-122.478 13.251-1.262-14.212-2.525-28.425-3.783-42.638l122.108-6.938c1.381 12.109 2.764 24.218 4.153 36.325z" class="st2" fill="#002f67"/><g id="g3989" fill="#fff"><path id="path3991" d="M78.242 62.811c-.695 2.151-2.587 5.837-4.907 6.062-1.142.111-1.824-.321-1.975-1.745-.079-.745.122-1.639.339-2.97 1.051-6.728 1.576-10.072 2.623-16.729.133-.867.385-2.117.335-2.629-.06-.612-.728-.774-1.57-.821l.022-.723 5.042-.532c-1.385 8.476-2.078 12.742-3.468 21.335-.102.56-.219 1.295-.179 1.704.053.545.186.636.465.609.897-.084 2.134-3.082 2.456-3.934l.817.373z" class="st1"/><path id="path3993" d="M94.241 51.117c-.871 4.833-1.307 7.261-2.18 12.135-.084.413-.086.683-.076.782.047.467.289.715.444.7.804-.075 1.862-2.895 2.255-3.634l.666.408c-.789 1.781-2.386 5.463-4.519 5.67-1.175.113-1.61-.825-1.72-1.931-.1-1.006.107-2.039.17-2.991l-.061.008c-.973 2.453-2.254 5.287-5.131 5.566-2.041.197-3.315-1.355-3.523-3.488-.44-4.503 3.234-12.426 8.33-12.814 1.482-.113 2.465.84 3.137.865.492.019.912-.84 1.156-1.193l1.052-.083zm-10.352 13.398c.096.978.635 1.708 1.564 1.62 2.535-.24 5.307-9.03 5.016-11.935-.09-.901-.635-2.005-1.592-1.932-3.18.247-5.16 10.492-4.988 12.247z" class="st1"/><path id="path3995" d="M104.477 52.219c-.189-.828-.535-1.065-1.231-1.063-.972.004-1.765.701-1.654 1.788.242 2.368 5.304 3.992 5.705 7.885.337 3.27-1.956 4.945-4.771 5.218-1.826.177-4.947-.125-5.202-2.644-.081-.796.42-1.707 1.224-1.78 2.721-.246 2.078 3.875 4.584 3.635 1.02-.097 1.745-1.559 1.645-2.545-.341-3.313-5.346-4.371-5.712-7.971-.269-2.643 1.79-4.13 4.075-4.306 1.359-.104 4.482.283 4.682 2.21.092.882-.365 1.576-1.23 1.646-1.33.111-1.847-.9-2.115-2.073z" class="st1"/><path id="path3997" d="M116.963 51.233c-.191-.813-.536-1.046-1.232-1.043-.973.006-1.766.691-1.652 1.761.244 2.329 5.307 3.919 5.713 7.746.341 3.216-1.953 4.866-4.768 5.14-1.824.176-4.947-.113-5.204-2.59-.081-.783.419-1.683 1.221-1.756 2.722-.246 2.085 3.809 4.589 3.569 1.021-.098 1.743-1.536 1.642-2.505-.344-3.259-5.349-4.293-5.718-7.833-.271-2.599 1.785-4.063 4.07-4.238 1.36-.104 4.482.27 4.684 2.163.093.867-.363 1.554-1.227 1.624-1.331.108-1.849-.887-2.118-2.038z" class="st1"/><path id="path3999" d="M130.695 58.458c-.845 1.995-2.354 5.092-4.735 5.322-.898.087-1.723-.319-1.836-1.375-.041-.384-.071-.962.282-2.317.704-2.75 1.056-4.119 1.761-6.851.244-.92.4-1.507.369-1.794-.033-.319-.141-.44-.419-.418-.926.073-1.655 2.285-2.61 3.85l-.718-.293c1.22-2.88 2.892-5.867 4.622-6 1.204-.092 1.943.683 2.055 1.696.058.539-.076 1.604-.375 2.877-.676 2.629-1.014 3.948-1.689 6.594-.177.69-.289 1.122-.241 1.568.021.189.226.331.41.313.866-.081 2.04-2.787 2.401-3.492l.723.32zm-2.052-13.167c-.957.069-1.941-.692-2.058-1.774-.116-1.08.688-1.97 1.646-2.034.957-.063 1.943.702 2.061 1.777.117 1.075-.692 1.961-1.649 2.031z" class="st1"/><path id="path4001" d="M144.016 56.53c-1.26 2.688-2.639 5.76-5.979 6.083-2.506.242-4.076-.979-4.361-3.598-.461-4.229 2.277-11.086 7.097-11.454 1.39-.106 3.714.343 3.88 1.831.115 1.024-.22 1.928-1.395 2.024-1.143.094-1.75-.609-1.865-1.64-.145-1.309-.327-1.547-1.1-1.487-2.719.21-3.393 8.274-3.16 10.379.221 2.009.746 2.5 2.014 2.38 1.947-.185 3.291-3.275 4.059-4.79l.81.272z" class="st1"/></g><path id="path4003" d="M66.417 61.575c-.723 3.704-1.083 5.563-1.807 9.292l-.833-.194c.19-.611-.411-.992-1.149-.922-.771.075-2.787 1.584-5.558 1.856-5.612.551-10.367-3.386-10.872-9.768-.699-8.828 5.297-19.754 14.738-20.564 2.285-.196 4.623.856 6.684 2.134l1.199-.701.574.473c-.568 3.478-.854 5.218-1.422 8.714l-1.143-.147c-.02-.588-.05-1.256-.114-1.918-.338-3.551-1.52-8.084-5.256-7.521-8.116 1.223-10.544 13.678-9.948 21.208.274 3.465 2.268 7.334 5.775 6.993 4.105-.397 6.585-5.635 8.036-9.351l1.096.416z" class="st1" fill="#fff"/></g><path id="path4005" d="M115.451 25.194v8.191c0 .307-.06.43-.305.43h-6.245c-.209 0-.336-.154-.336-.369v-8.191c0-.336-.119-.457-.393-.457h-8.102c-.243 0-.365-.152-.365-.426v-6.211c0-.244.092-.363.338-.363h8.16c.242 0 .361-.121.361-.396v-7.035c0-.184.127-.305.306-.305h6.216c.244 0 .364.092.364.305v7.035c0 .33.063.396.335.396h8.165c.241 0 .333.119.333.395v6.242c0 .211-.12.363-.333.363h-8.073c-.334-.001-.426.064-.426.396z" class="st1" fill="#fff"/></g><g id="g4076" transform="matrix(.26 0 0 .26 46.953 881.024)"><rect id="rect4080" height="40.82" width="129.245" class="st0" fill="#4d454a"/><path id="path4082" d="M24.408 29.828c0 .332-.274.605-.854.818-1.616.547-3.11.82-4.513.82-2.105 0-4.117-.516-6.071-1.578-3.905-2.154-6.07-5.765-6.07-10.226 0-2.457.671-4.672 1.984-6.676 1.341-2.002 3.14-3.488 5.398-4.43 1.462-.639 3.019-.939 4.697-.939 1.13 0 2.35.182 3.66.516.397.09.702.213.976.334l.334.152c.275.119.428.332.428.605v5.855c0 .152-.06.215-.153.215l-.275-.154c-.456-.453-1.126-.818-2.012-1.123-.945-.332-1.8-.484-2.531-.484-2.654 0-4.88 1.396-5.888 3.732-.335.758-.486 1.578-.486 2.457 0 1.73.639 3.127 1.922 4.219 1.187 1.002 2.653 1.518 4.392 1.518 1.983 0 3.506-.545 4.634-1.67.092-.121.184-.18.244-.18.123 0 .184.18.184.574v5.645z" class="st1" fill="#fff"/><path id="path4084" d="M28.762 30.857v-22.755h5.947v22.756h-5.947z" class="st1" fill="#fff"/><path id="path4086" d="M56.33 30.857l-10.922-13.925v13.926h-5.947v-22.756h5.947l10.922 13.927v-13.927h5.947v22.756h-5.947z" class="st1" fill="#fff"/><path id="path4088" d="M66.447 30.857v-22.755h1.982l.337-.941h9.028l-.337.941h1.983v5.008h-7.045v3.79h6.679v5.008h-6.679v3.943h7.045v5.006h-12.993z" class="st1" fill="#fff"/><g id="g4090"><path id="path4094" d="M154.094 66.456c-40.831 4.413-81.664 8.835-122.498 13.245-1.519-17.052-2.276-25.586-3.789-42.641 40.713-2.309 81.424-4.626 122.131-6.935 1.661 14.529 2.494 21.798 4.156 36.331z" class="st2" fill="#0095da"/><path id="path4098" d="M47.707 50.029l.227 2.462.199 2.164.185 2.012.186 2.013.197 2.159.227 2.463 2.567-.244 2.229-.209 2.116-.202 2.229-.211 2.565-.241-.206-2.214-.208-2.197 2.217.302c.665.092 1.329.184 2.214.301l.229 2.405c.091.955.095 1.743-.004 2.394-.099.646-.303 1.162-.626 1.563-.324.404-.771.694-1.355.911-.583.216-1.305.352-2.18.441l-2.442.246-2.12.216c-.677.069-1.335.136-2.013.201l-2.123.216-2.438.244c-.877.094-1.61.103-2.224.004-.612-.101-1.104-.306-1.497-.647-.393-.339-.688-.817-.907-1.457-.219-.641-.365-1.445-.456-2.434l-.222-2.442-.193-2.118-.184-2.012-.192-2.115-.222-2.44c-.093-.991-.096-1.808.004-2.478.1-.666.302-1.183.626-1.586.326-.4.772-.684 1.354-.881.584-.196 1.304-.304 2.181-.362l2.44-.156 2.12-.134 2.012-.13c.676-.04 1.373-.083 2.119-.134l2.44-.154c.879-.059 1.609-.039 2.224.075.612.116 1.103.336 1.498.679.393.343.691.813.911 1.437.219.628.364 1.403.454 2.361l.184 1.931-2.134.538-2.135.545-.183-1.946-.181-1.951-2.57.181c-.788.057-1.518.105-2.229.153l-2.115.15-2.23.151-2.565.177z" class="st1" fill="#fff"/><path id="path4100" d="M71.787 47.13l1.878-.125 1.88-.125.24 2.464.21 2.159.193 2.001.196 1.999.206 2.148.24 2.451c.959-.092 1.822-.173 2.629-.246l2.285-.215 2.168-.204 2.285-.213 2.629-.248.15 1.5.15 1.505-2.527.25-2.248.222-2.088.209-2.031.202c-.68.066-1.367.136-2.084.202l-2.253.229c-.79.076-1.626.16-2.525.25l-.257-2.655-.226-2.346-.208-2.162-.204-2.104-.207-2.159-.225-2.341-.256-2.648z" class="st1" fill="#fff"/><path id="path4102" d="M97.403 58.175l2.33-.222 2.024-.189 1.921-.18 2.024-.189 2.328-.217-.238-2.301-.209-2.01-.193-1.871-.195-1.869-.207-2.028-.243-2.325 1.88-.126 1.88-.127c.097.944.185 1.785.268 2.562l.229 2.203.216 2.069.23 2.183.262 2.528c.1.947.067 1.677-.135 2.243-.199.566-.568.964-1.139 1.248-.57.282-1.344.443-2.354.546-.813.077-1.539.15-2.22.218l-1.93.195-1.83.181-1.925.188-2.219.222c-1.013.1-1.803.088-2.413-.083-.612-.173-1.05-.501-1.357-1.034-.307-.534-.485-1.271-.585-2.252l-.264-2.627-.229-2.273-.219-2.159c-.07-.726-.145-1.472-.227-2.28l-.268-2.653 1.86-.128 1.861-.127.241 2.377.208 2.066.196 1.918.193 1.913.205 2.058c.08.722.157 1.497.243 2.352z" class="st1" fill="#fff"/><path id="path4104" d="M119.549 43.909l2.545-.171 2.236-.151 2.086-.141 2.084-.141 2.238-.153 2.543-.17c.82-.053 1.506-.015 2.061.141.557.156.986.425 1.294.824.31.401.495.929.572 1.605l.19 1.714c.07.652-.103 1.207-.502 1.647-.398.441-1.834.973-1.834.973.002.011 1.598.327 2.105.751.514.427.822 1.016.906 1.737l.2 1.828c.069.637-.046 1.186-.352 1.646-.302.457-.796.834-1.473 1.117-.679.281-1.542.475-2.591.58-.848.081-1.625.16-2.355.235l-2.072.202-1.933.193-1.933.191c-.658.063-1.344.132-2.074.206l-2.355.232-.258-2.432-.229-2.132-.209-1.953-.201-1.896-.208-1.948-.226-2.12c-.075-.746-.16-1.542-.255-2.414zm3.951 2.187l.187 1.743.183 1.728c.836-.066 1.568-.124 2.246-.181l1.93-.156 1.93-.149 2.244-.18c1.119-.09 1.645-.301 1.551-1.146l-.15-1.359c-.09-.849-.617-.984-1.771-.901l-2.244.163-1.93.138-1.932.139-2.244.161zm.629 5.884l.202 1.867.202 1.886 2.242-.212 1.932-.183 1.931-.183 2.243-.206c.633-.062 1.078-.163 1.353-.383.271-.218.37-.56.313-1.089l-.12-1.085c-.056-.523-.229-.833-.544-.998-.313-.162-.771-.185-1.406-.13-.832.071-1.563.132-2.242.194l-1.932.162-1.929.167-2.245.193z" class="st1" fill="#fff"/></g><path id="path4106" d="M112.464 22.711v8.191c0 .307-.06.43-.305.43h-6.245c-.209 0-.336-.154-.336-.369v-8.191c0-.336-.119-.457-.393-.457h-8.102c-.243 0-.365-.152-.365-.426v-6.211c0-.244.092-.363.338-.363h8.16c.242 0 .361-.121.361-.396v-7.036c0-.184.127-.305.306-.305h6.216c.244 0 .364.092.364.305v7.035c0 .33.063.396.335.396h8.165c.241 0 .333.119.333.395v6.242c0 .211-.12.363-.333.363h-8.073c-.333 0-.426.065-.426.397z" class="st1" fill="#fff"/></g><g id="g4189" transform="matrix(.26 0 0 .26 90.608 881.243)"><g id="g4191"><rect id="rect4195" height="40.82" width="129.245" class="st0" y="1.642" x="1.369" fill="#4d454a"/><path id="path4197" d="M25.776 31.47c0 .333-.274.606-.854.818-1.616.547-3.11.82-4.513.82-2.105 0-4.117-.516-6.071-1.578-3.904-2.154-6.07-5.765-6.07-10.226 0-2.458.671-4.672 1.984-6.676 1.341-2.001 3.14-3.487 5.398-4.43 1.462-.637 3.019-.939 4.697-.939 1.13 0 2.35.182 3.66.516.397.091.702.213.976.334l.334.152c.275.121.428.333.428.605v5.856c0 .152-.06.214-.153.214l-.275-.153c-.456-.454-1.126-.819-2.012-1.123-.945-.333-1.8-.485-2.531-.485-2.654 0-4.88 1.397-5.888 3.732-.335.758-.486 1.578-.486 2.458 0 1.729.639 3.126 1.922 4.218 1.187 1.002 2.653 1.518 4.392 1.518 1.983 0 3.506-.545 4.634-1.669.092-.122.184-.181.244-.181.123 0 .184.181.184.574v5.645z" class="st2" fill="#fff"/><path id="path4199" d="M30.131 32.5v-22.757h5.947v22.757h-5.947z" class="st2" fill="#fff"/><path id="path4201" d="M57.698 32.5l-10.921-13.927v13.927h-5.947v-22.757h5.947l10.921 13.928v-13.928h5.947v22.757h-5.947z" class="st2" fill="#fff"/><path id="path4203" d="M67.816 32.5v-22.757h1.982l.337-.941h9.028l-.337.941h1.983v5.007h-7.045v3.792h6.679v5.006h-6.679v3.944h7.045v5.008h-12.993z" class="st2" fill="#fff"/><g id="g4207"><path id="path4209" d="M155.442 68.096c-40.825 4.418-81.651 8.828-122.479 13.25-1.263-14.213-2.522-28.428-3.782-42.641 40.703-2.31 81.406-4.624 122.106-6.935 1.386 12.109 2.767 24.217 4.155 36.326z" class="st1" fill="#ec008c"/><g id="g4211" fill="#fff"><path id="path4213" d="M61.689 56.907c.845-2.023 2.333-3.727 4.453-3.889 1.922-.149 4.267 3.033 4.267 3.033.141.014 2.726-3.574 4.909-3.746 1.64-.124 3.768.486 3.97 2.561l1.007 10.291 2.088-.195.098.981c-3.226.307-4.84.461-8.063.769l-.097-.991 1.669-.159-.951-9.816c-.092-.955-.287-1.936-1.44-1.844-1.864.145-3.013 2.958-2.837 4.805l.698 7.283 1.672-.158.097.995c-3.061.291-4.59.437-7.647.731l-.095-1.004 1.67-.158-.844-8.855c-.226-2.359-.514-3.02-1.701-2.928-1.027.083-2.968 1.793-2.667 4.99l.684 7.219 1.67-.156.095 1.003-7.743.741-.094-1.016 1.765-.164-1.148-12.282c-.823.064-1.233.095-2.055.163l-.093-1.017 2.053-.159c1.444-.111 2.842-.365 4.287-.479l.323 3.451z" class="st2"/><path id="path4215" d="M98.521 46.889l1.892-.139c.833-.061 1.677-.361 2.5-.523l.451 4.389 2.438-.189.1.948-2.441.194c.38 3.688.571 5.533.949 9.221.073.682.021 1.748.952 1.663 1.254-.118 1.368-1.19 1.448-2.295l.953.122c-.258 2.793-1.895 3.943-4.434 4.188-2.988.289-3.127-1.083-3.303-2.795-.398-3.9-.596-5.854-.993-9.754l-1.959.155-.098-.96 1.959-.152c-.168-1.629-.25-2.444-.414-4.073z" class="st2"/><path id="path4217" d="M138.379 50.502c1.113-2.512 2.739-3.287 4.921-3.457 1.959-.15 3.693.293 3.975 2.798.403 3.563.605 5.346 1.007 8.909l1.991-.186.101.895c-3.212.307-4.819.46-8.03.77l-.102-.908 1.736-.164c-.371-3.29-.553-4.935-.92-8.223-.231-2.066-.764-2.479-1.66-2.405-2.057.161-2.916 2.913-2.719 4.698.282 2.545.421 3.818.705 6.363l1.702-.161.101.907-8.064.77-.1-.915 2.056-.196-1.217-11.102-2.057.162-.1-.918 2.054-.16c1.445-.113 2.844-.354 4.286-.461l.334 2.984z" class="st2"/><path id="path4219" d="M96.572 54.704c.449 4.43-2.852 7.367-6.995 7.749-4.594.421-8.036-2.623-8.415-6.478-.451-4.589 3.121-7.71 6.971-7.992 3.851-.279 7.982 2.22 8.439 6.721zm-5.576-3.309c-.209-2.107-.621-2.67-2.771-2.512-1.958.146-2.447.779-2.235 2.902l.736 7.418c.2 2.016 1.221 2.484 2.763 2.346 1.54-.141 2.447-.779 2.247-2.787l-.74-7.367z" class="st2"/><path id="path4221" d="M131.367 51.829c.462 4.228-2.836 7.048-6.979 7.426-4.591.422-8.043-2.471-8.433-6.152-.466-4.388 3.103-7.377 6.95-7.658 3.853-.282 7.991 2.087 8.462 6.384zm-5.585-3.137c-.22-2.014-.633-2.551-2.783-2.393-1.958.148-2.442.754-2.226 2.781.303 2.833.455 4.25.756 7.082.207 1.927 1.227 2.372 2.768 2.232 1.543-.141 2.447-.757 2.244-2.669-.305-2.814-.458-4.221-.759-7.033z" class="st2"/></g><path id="path4223" d="M109.232 50.838l-2.217.176-.098-.949 2.216-.172 4.411-.479c.527 4.995.791 7.492 1.314 12.486l1.963-.184.1.938-8.484.809-.098-.947 2.088-.195c-.478-4.594-.718-6.891-1.195-11.483z" class="st2" fill="#fff"/><path id="path4225" d="M42.661 59.706l.567 6.248c.229 2.52 1.536 3.271 3.732 3.063 3.342-.318 5.792-2.434 6.417-6.25l1.007.293c-.688 4.537-3.692 6.843-7.604 7.238-5.676.577-10.392-3.444-10.881-9.094-.479-5.518 3.357-10.574 8.958-11.012 4.153-.326 8.499 2.703 8.958 7.669.109 1.146-1.225 1.017-1.901 1.073-3.7.307-5.551.463-9.253.772zm5.421-1.713c-.172-1.886-.258-2.828-.432-4.715-.114-1.25-1.115-1.951-3.141-1.803-1.818.133-2.493 1.11-2.373 2.422.164 1.818.246 2.729.413 4.549l5.533-.453z" class="st2" fill="#fff"/><path id="path4227" d="M113.035 44.769c.131 1.271-.805 2.487-2.021 2.579-1.217.089-2.426-.975-2.559-2.256-.133-1.281.87-2.468 2.055-2.548 1.183-.08 2.387.95 2.525 2.225z" class="st2" fill="#fff"/><path id="path4231" d="M49.2 43.407c-.164-1.771-1.489-2.801-2.964-2.711-1.816.109-2.578 1.512-2.394 3.541.035.387.287.81.533 1.18.248.37.491.744.515.986.079.865-1.67 1.279-2.133 1.313l.317 1.217c2.642-.362 6.451-2.005 6.126-5.526z" class="st2" fill="#fff"/></g></g><path id="path4233" d="M113.833 24.352v8.191c0 .307-.06.43-.305.43h-6.245c-.209 0-.336-.154-.336-.369v-8.191c0-.335-.119-.456-.393-.456h-8.102c-.243 0-.365-.152-.365-.427v-6.211c0-.244.092-.363.338-.363h8.16c.242 0 .361-.121.361-.397v-7.034c0-.184.127-.306.306-.306h6.216c.244 0 .364.092.364.306v7.034c0 .332.063.397.335.397h8.165c.241 0 .333.12.333.394v6.242c0 .212-.12.365-.333.365h-8.073c-.334 0-.426.063-.426.395z" class="st2" fill="#fff"/></g><g id="g4313" transform="matrix(.26 0 0 .26 136.271 881.33)"><rect id="rect4317" height="40.82" width="129.245" class="st0" y="2.661" x="2.663" fill="#4d454a"/><path id="path4319" d="M27.071 32.488c0 .333-.274.605-.854.818-1.616.547-3.11.82-4.513.82-2.105 0-4.117-.516-6.071-1.578-3.904-2.154-6.07-5.766-6.07-10.227 0-2.457.671-4.672 1.984-6.676 1.341-2.002 3.14-3.488 5.398-4.43 1.462-.638 3.019-.939 4.697-.939 1.13 0 2.35.182 3.66.516.397.091.702.213.976.334l.334.152c.275.12.428.332.428.605v5.855c0 .152-.06.215-.153.215l-.275-.154c-.456-.453-1.126-.818-2.012-1.122-.945-.333-1.8-.485-2.531-.485-2.654 0-4.88 1.396-5.888 3.732-.335.758-.486 1.578-.486 2.457 0 1.73.639 3.127 1.922 4.219 1.187 1.002 2.653 1.518 4.392 1.518 1.983 0 3.506-.545 4.634-1.67.092-.121.184-.18.244-.18.123 0 .184.18.184.574v5.646z" class="st2" fill="#fff"/><path id="path4321" d="M31.425 33.519v-22.757h5.947v22.757h-5.947z" class="st2" fill="#fff"/><path id="path4323" d="M58.993 33.519l-10.922-13.927v13.927h-5.947v-22.757h5.947l10.921 13.928v-13.928h5.947v22.757h-5.946z" class="st2" fill="#fff"/><path id="path4325" d="M69.11 33.519v-22.757h1.982l.338-.942h9.028l-.337.941h1.983v5.008h-7.044v3.792h6.679v5.007h-6.679v3.943h7.045v5.007h-12.995z" class="st2" fill="#fff"/><g id="g4329"><path id="path4333" d="M156.739 69.11c-40.834 4.413-81.667 8.835-122.5 13.25-1.264-14.211-2.525-28.421-3.786-42.634 40.712-2.315 81.42-4.63 122.131-6.941 1.383 12.109 2.767 24.217 4.155 36.325z" class="st1" fill="#fdb913"/><path id="path4335" d="M103.997 60.527c.59 2.593.886 3.888 1.478 6.474 2.333-.23 3.501-.343 5.835-.575-1.965-7.788-3.917-15.581-5.863-23.376-2.305.152-3.46.231-5.766.387-.885 3.296-1.329 4.956-2.219 8.28-.036.125-.08.241-.137.352-.058.111-.123.217-.197.315-.078.097-.161.186-.254.266-.093.079-.19.149-.296.207-.11.062-.224.11-.342.146-.116.037-.241.061-.372.07-.129.009-.255.008-.38-.01-.124-.018-.246-.048-.362-.088-.115-.044-.229-.097-.338-.162-.107-.063-.209-.137-.302-.226-.093-.082-.177-.174-.257-.275-.076-.103-.147-.211-.205-.329-1.479-3.155-2.213-4.741-3.689-7.924l-5.762.385c-.467 8.25-.929 16.497-1.393 24.746l5.807-.569.25-6.771c.011-.134.036-.264.069-.387.036-.127.083-.246.14-.359.056-.114.123-.221.198-.319.076-.101.161-.19.253-.274.092-.079.191-.151.298-.211.107-.063.222-.112.339-.149.119-.037.246-.063.373-.074.129-.011.258-.007.381.011.125.014.247.044.362.085.118.042.23.095.337.156.104.064.207.139.301.223.096.085.18.176.258.278.076.102.146.209.208.327 1.317 2.72 1.976 4.07 3.296 6.771l2.334-.229c.809-2.901 1.215-4.345 2.025-7.225.033-.125.082-.242.139-.354.055-.112.12-.218.197-.316.074-.099.158-.187.252-.266.093-.082.192-.152.298-.212.106-.063.222-.111.341-.146.117-.039.244-.063.372-.074.13-.01.256-.009.382.008.122.016.243.045.361.084.115.041.228.095.338.156.105.063.204.134.299.219.094.082.184.172.26.273.078.099.146.206.207.32.056.113.107.234.146.361z" class="st2" fill="#fff"/><path id="path4337" d="M70.666 45.375l-6.334.423c-2.095 8.614-4.177 17.236-6.245 25.856l6.165-.606.787-3.175c.069-.255.186-.492.337-.698.152-.205.338-.378.553-.505.215-.124.456-.205.711-.229l5.482-.51c.257-.022.51.011.744.095.232.085.449.217.635.388.189.17.346.381.464.618.532 1.173.8 1.76 1.327 2.933 2.491-.244 3.736-.367 6.226-.613-3.647-7.979-7.265-15.972-10.852-23.977zm-1.704 15.855c-1.578.138-2.99-1.175-3.157-2.935-.167-1.758.975-3.282 2.551-3.405 1.576-.125 2.989 1.192 3.158 2.937.166 1.744-.976 3.268-2.552 3.403z" class="st2" fill="#fff"/><path id="path4339" d="M115.146 66.019c3.266-.322 4.898-.482 8.166-.802-.527-4.927-1.055-9.854-1.578-14.783l-8.154.64c.521 4.981 1.044 9.961 1.566 14.945z" class="st2" fill="#fff"/><path id="path4341" d="M116.472 39.854c-2.418.151-4.163 2.332-3.897 4.868.265 2.537 2.442 4.445 4.862 4.261 2.421-.183 4.165-2.363 3.897-4.868-.267-2.51-2.444-4.415-4.862-4.261z" class="st2" fill="#fff"/><path id="path4343" d="M50.852 64.392c-.111-1.173.64-2.194 1.672-2.283l4.501-.386-.52-5.564c-1.8.141-2.7.211-4.497.355-1.033.081-1.956-.804-2.066-1.977-.107-1.173.642-2.186 1.675-2.263 2.047-.149 3.072-.227 5.123-.378-.207-2.223-.312-3.334-.521-5.556-5.125.343-7.688.514-12.813.856.78 8.555 1.557 17.113 2.339 25.669l5.833-.575c-.29-3.156-.437-4.739-.726-7.898z" class="st2" fill="#fff"/><path id="path4345" d="M138.11 58.737c-.125.013-.256.011-.379-.003-.123-.015-.248-.041-.363-.078-.118-.036-.231-.088-.338-.147-.107-.059-.207-.127-.303-.205-.093-.08-.181-.166-.258-.261-.08-.095-.15-.2-.209-.308-.06-.107-.109-.227-.147-.348-.04-.12-.065-.248-.081-.38-.015-.129-.015-.259-.004-.386.012-.126.039-.249.07-.365.034-.118.082-.232.136-.338 2.368-5.143 4.756-10.278 7.163-15.405-6.177.415-12.348.827-18.521 1.238l.546 5.081 5.5-.406c.129-.009.257-.005.38.013.125.014.245.044.364.086.115.038.229.09.336.152.105.061.207.131.301.21.095.081.182.17.259.267.079.096.149.201.208.31.06.111.11.229.148.35.039.124.066.25.08.384.016.128.016.26.004.385-.01.127-.035.248-.069.366-.035.117-.081.23-.138.337-2.43 5.238-4.84 10.486-7.229 15.743 6.404-.628 12.809-1.256 19.213-1.887-.223-1.984-.334-2.977-.555-4.962-2.444.223-3.666.336-6.114.557z" class="st2" fill="#fff"/></g><path id="path4347" d="M115.127 25.371v8.191c0 .307-.06.43-.305.43h-6.245c-.209 0-.336-.154-.336-.369v-8.191c0-.336-.119-.456-.393-.456h-8.102c-.243 0-.365-.152-.365-.427v-6.211c0-.244.092-.363.338-.363h8.16c.242 0 .361-.121.361-.396v-7.034c0-.185.127-.306.306-.306h6.216c.244 0 .364.092.364.306v7.034c0 .331.063.396.335.396h8.165c.241 0 .333.119.333.395v6.242c0 .212-.12.364-.333.364h-8.073c-.333 0-.426.063-.426.395z" class="st2" fill="#fff"/></g><g id="g4440" transform="matrix(.26 0 0 .26 1.97 907.52)"><rect id="rect4444" height="40.82" width="129.245" class="st0" fill="#4d454a"/><path id="path4446" d="M24.408 29.828c0 .332-.274.605-.854.818-1.616.547-3.11.82-4.513.82-2.105 0-4.117-.516-6.071-1.578-3.905-2.154-6.07-5.765-6.07-10.226 0-2.457.671-4.672 1.984-6.676 1.341-2.002 3.14-3.488 5.398-4.43 1.462-.639 3.019-.939 4.697-.939 1.13 0 2.35.182 3.66.516.397.09.702.213.976.334l.334.152c.275.119.428.332.428.605v5.855c0 .152-.06.215-.153.215l-.275-.154c-.456-.453-1.126-.818-2.012-1.123-.945-.332-1.8-.484-2.531-.484-2.654 0-4.88 1.396-5.888 3.732-.335.758-.486 1.578-.486 2.457 0 1.73.639 3.127 1.922 4.219 1.187 1.002 2.653 1.518 4.392 1.518 1.983 0 3.506-.545 4.634-1.67.092-.121.184-.18.244-.18.123 0 .184.18.184.574v5.645z" class="st2" fill="#fff"/><path id="path4448" d="M28.762 30.857v-22.755h5.947v22.756h-5.947z" class="st2" fill="#fff"/><path id="path4450" d="M56.33 30.857l-10.922-13.925v13.926h-5.947v-22.756h5.947l10.922 13.927v-13.927h5.947v22.756h-5.947z" class="st2" fill="#fff"/><path id="path4452" d="M66.447 30.857v-22.755h1.982l.337-.941h9.028l-.337.941h1.983v5.008h-7.045v3.79h6.679v5.008h-6.679v3.943h7.045v5.006h-12.993z" class="st2" fill="#fff"/><g id="g4454"><path id="path4458" d="M154.061 66.45c-40.82 4.416-81.643 8.832-122.465 13.252-1.513-17.059-2.272-25.59-3.785-42.64 40.699-2.312 81.399-4.622 122.097-6.936 1.662 14.527 2.488 21.8 4.153 36.324z" class="st3" fill="#00a77e"/><g id="g4462"><path id="path4466" d="M46.408 46.479l-1.61-.643-1.493.934-2.563.521-.29 1.531.469 2.24.143 1.199.344 3.08.728.357 2.585-.285 1.193.396.775 1.252-.066 1.477-.337.592-4.139.693-.622.811.863 9.857c-.375.547-.56.828-.934 1.383l-1.509.188-1.085-1.377c-.136-2.975-.202-4.461-.34-7.434-.335-3.012-.51-4.521-.847-7.537l.247-2.035-.559-5.092.016-3.832.578-.57 1.143-.115.98-.855 3.976-.109 1.359.398 1.528.125.561.711.111 1.232-1.205.907z" class="st1" fill="#fafafa"/><path id="path4470" d="M66.331 68.868l-1.414 1.139-.879-.131-.836-1.137-.75-2.666-.419-1.664-.652-1.643-.765-3.189-.608-1.168-.985-.656-.624.084-.583.832c.389 3.459.585 5.188.978 8.643l.192 1.693-.354.816-.354.48-1.373.174-.989-1.355-1.456-14.861-.145-1.217c-.231-2.893-.347-4.334-.575-7.219l.197-1.764.205-.273 1.439-.84 1.093-.332c1.614.059 2.418.086 4.033.139l1.376.574.759.684.952 3.098.351 2.951.562 4.85c-.58 1.156-.868 1.73-1.445 2.887l.675 1.898c.849 2.803 1.274 4.199 2.124 6.994l.554.605-.284 1.574zm-5.39-21.926l-.84-1.193c-1.125.105-1.687.158-2.812.27l.237 3.951-.04 1.709.354 3.014.685-.092c1.011-.217 1.517-.322 2.528-.535l.573-1.266c-.272-2.344-.41-3.514-.685-5.858z" class="st1" fill="#fafafa"/><path id="path4474" d="M77.577 67.934l-1.901.223-1.007-.805-1.506-12.836-.195-1.662c-.102-3.229-.156-4.838-.256-8.059l-.24-2.164c.371-.506.559-.762.933-1.262l.704.096.356-.018.507.434.546 4.598-.309 1.223-.721 1.072 1.196 1.066-.421 1.484.953.938.04 2.43c.279 2.316.417 3.467.697 5.779l.62 3.285.353 2.941-.349 1.237z" class="st1" fill="#fafafa"/><path id="path4478" d="M93.336 65.934l-1.669.881-1.582.441-.819.117-1.604-.48-1.916-1.25-1.092-1.299-.367-3.059.809-.865 1.332.096.836 1.066.312 1.48 1.755.941 1.481-.428.885-1.762-.05-2.133-.201-1.654-.91-1.811-.443-.459c-1.377-.139-2.064-.209-3.443-.352l-1.654-1.008-1.221-1.299-.711-1.85-.623-5.27.848-2.43 1.561-1.898 1.669-.822 2.379.02 1.44.542 1.277 1.551.381 1.176-.405.559.173 1.375-.41.525-.357.064c-.74-.799-1.111-1.199-1.852-2.004l-.44-.432-2.175.691-.572 2.902.557 2.604.107.746 1.68 1.221c.912.115 1.365.17 2.276.279.87.771 1.308 1.152 2.179 1.92l1.212 5.088.171.725c.093 1.311.139 1.965.229 3.277l-1.033 2.278z" class="st1" fill="#fafafa"/><path id="path4482" d="M99.602 40.003l1.666-.811 1.578-.379.817-.088 1.603.52 1.914 1.267 1.092 1.28.375 2.961-.808.82-1.335-.109-.835-1.055-.313-1.441c-.701-.379-1.052-.57-1.75-.955l-1.48.377-.881 1.709.052 2.102.2 1.627.91 1.793.448.457 3.44.352 1.658.98 1.224 1.258.714 1.779c.254 2.037.383 3.055.635 5.09l-.846 2.381-1.564 1.893-1.667.863-2.384.061-1.447-.492-1.278-1.496-.382-1.158.402-.566-.171-1.357.409-.531.359-.064 1.855 1.934.438.416 2.183-.73.564-2.85-.561-2.531-.109-.727-1.676-1.184-2.279-.264c-.807-.762-1.211-1.139-2.018-1.908l-.849-5.066-.534-.699-.398-3.242c.411-.891.618-1.336 1.029-2.217z" class="st1" fill="#fafafa"/><path id="path4486" d="M127.281 59.608l-.657 1.939-1.812 1.648-1.464.588-2.022.033c-.849-.342-1.271-.514-2.117-.859l-1.537-1.672-.795-2.479.369-.93-.166-2.773.424-1.656-.128-.885c-.517-1.359-.773-2.039-1.287-3.4l-.607-4.498.509-1.418-.21-1.668c1.004-.992 1.508-1.484 2.512-2.466l1.054-.347 2.215.024 2.145.914 1.537 1.691c.365 2.77.549 4.158.916 6.928l.229 1.813.358 2.723c.213 2.703.319 4.053.534 6.75zm-5.905-17.6l-2.218-.047-.583 1.031-.11 2.717.612 1.051c.118 2.238.177 3.359.297 5.602l.378 2.916.117 3.906.773 1.021 2.303.434.807-.828.36-1.881c-.389-3.609-.582-5.416-.97-9.025-.215-2.373-.324-3.557-.541-5.928l-1.225-.969z" class="st1" fill="#fafafa"/><path id="path4490" d="M144.076 52.834c.34 2.572.51 3.855.854 6.424l-.51 1.385-.606.529-1.079.137-1.186-.787-1.354-3.207-.531-.617-.408-1.303-.469-.629-.764-2.107-1.225-2.369-.443-.4-.407.5.206 5.154c.277 2.029.416 3.041.691 5.068l-.526 1.232-.6.334-.688.064-1.478-1.369c-.066-1.926-.097-2.889-.161-4.813-.45-4.1-.675-6.148-1.122-10.246l-.086-1.646c-.13-2.398-.193-3.597-.326-5.994l.435-.266 1.333.116 1.832 2.254.419 1.374.805 1.01c.842 1.639 1.264 2.455 2.106 4.086l.713 1.947.527.555.163-.01-.495-8.893-.311-2.204.592-.906 1.501-.167.637 1.293.596 2.637.717 2.564.648 9.27z" class="st1" fill="#fafafa"/></g></g><path id="path4492" d="M112.464 22.711v8.191c0 .307-.06.43-.305.43h-6.245c-.209 0-.336-.154-.336-.369v-8.191c0-.336-.119-.457-.393-.457h-8.102c-.243 0-.365-.152-.365-.426v-6.211c0-.244.092-.363.338-.363h8.16c.242 0 .361-.121.361-.396v-7.036c0-.184.127-.305.306-.305h6.216c.244 0 .364.092.364.305v7.035c0 .33.063.396.335.396h8.165c.241 0 .333.119.333.395v6.242c0 .211-.12.363-.333.363h-8.073c-.333 0-.426.065-.426.397z" class="st2" fill="#fff"/></g><g id="g4586" transform="matrix(.203 0 0 .203 .844 932.445)"><g id="g4588"><polygon id="polygon4590" points="111.242,158.846 111.005,160.146 111.243,158.846" class="st5" fill="none"/><polygon id="polygon4592" points="111.005,160.146 110.433,163.257 110.436,163.258" class="st3" fill="#faa74a"/></g><g id="g4594"><polygon id="polygon4596" points="116.082,174.234 146.031,11.453 74.834,0 74.53,4.134 137.82,14.321 108.699,172.689" class="st2" fill="#f58220"/><polygon id="polygon4598" points="108.699,172.689 62.842,163.099 74.53,4.134 66.621,2.861 54.645,165.738 107.928,176.882" class="st3" fill="#faa74a"/><path id="path4600" d="M74.53 4.134l-11.688 158.965 45.857 9.591 29.121-158.369-63.29-10.187zm8.52 15.847l7.917 1.186.298-4.05 38.339 5.729-16.431 74.474-3.409-.716-3.84-.799-.967 4.379-24.265-5.076-3.118-.653 5.476-74.474zm32.073 105.634c-.801 5.49-3.158 9.998-6.544 13.147-2.92 2.712-6.603 4.405-10.724 4.819-3.817 2.482-8.539 3.517-13.659 2.691-5.789-.927-10.423-3.828-13.351-7.977-2.813-3.983-4.055-9.105-3.231-14.728 1.43-9.779 8.432-16.564 17.373-17.567 2.595-1.642 5.589-2.666 8.831-2.928 1.675-.139 3.418-.075 5.208.211 2.584.413 4.917 1.214 6.961 2.337 6.857 3.758 10.431 11.15 9.136 19.995z" class="st1" fill="#f15b40"/><polygon id="polygon4602" points="129.604,22.846 91.265,17.117 90.967,21.167 121.388,25.708 120.235,30.924 105.924,95.805 109.764,96.604 113.173,97.319" class="st3" fill="#faa74a"/><polygon id="polygon4604" points="90.967,21.167 83.05,19.981 77.574,94.454 80.692,95.107 104.957,100.184 105.924,95.805 85.792,91.593 90.576,26.492" class="st2" fill="#f58220"/><path id="path4606" d="M92.411 143.413c-11.349-1.818-18.264-11.23-16.582-22.711.203-1.37.515-2.683.925-3.929 1.536-4.652 4.454-8.376 8.233-10.771-8.941 1.003-15.943 7.788-17.373 17.567-.823 5.622.419 10.744 3.231 14.728 2.928 4.148 7.562 7.05 13.351 7.977 5.12.825 9.842-.209 13.659-2.691-1.743.18-3.563.134-5.444-.17z" class="st2" fill="#f58220"/><path id="path4608" d="M105.987 105.622c-2.044-1.123-4.377-1.924-6.961-2.337-1.79-.286-3.533-.35-5.208-.211-3.242.262-6.236 1.286-8.831 2.928 1.867-.21 3.82-.174 5.826.149 8.095 1.295 13.747 6.343 15.653 13.349.74 2.729.914 5.76.443 8.976-.989 6.762-4.333 12.044-9.055 15.106 4.121-.414 7.804-2.107 10.724-4.819 3.386-3.149 5.743-7.657 6.544-13.147 1.296-8.846-2.278-16.238-9.135-19.994z" class="st3" fill="#faa74a"/></g><g id="g4610"><rect id="rect4612" height="40.819" width="197.313" class="st0" y="115.643" fill="#4d454a"/><g id="g4614" fill="#fff"><path id="path4616" d="M26.637 145.635c0 .335-.273.607-.852.82-1.607.546-3.094.82-4.49.82-2.096 0-4.098-.518-6.037-1.579-3.887-2.154-6.041-5.767-6.041-10.229 0-2.459.668-4.671 1.971-6.675 1.336-2.003 3.127-3.491 5.373-4.433 1.455-.638 3.004-.938 4.674-.938 1.121 0 2.336.18 3.641.513.395.092.697.214.971.333l.336.154c.271.12.424.333.424.605v5.859c0 .15-.061.211-.152.211l-.271-.152c-.455-.454-1.125-.817-2.004-1.122-.939-.333-1.791-.485-2.52-.485-2.643 0-4.854 1.395-5.855 3.733-.334.758-.486 1.578-.486 2.459 0 1.729.637 3.123 1.912 4.216 1.184 1.001 2.639 1.52 4.369 1.52 1.973 0 3.492-.547 4.611-1.672.092-.122.184-.181.244-.181.121 0 .184.181.184.576v5.647z" class="st4"/><path id="path4618" d="M45.066 145.119c-1.76 1.428-3.914 2.124-6.494 2.124-2.699 0-4.916-.76-6.678-2.276-1.758-1.547-2.639-3.489-2.639-5.827 0-2.58.91-4.672 2.762-6.22 1.729-1.458 3.883-2.187 6.463-2.187 2.764 0 5.039.759 6.77 2.309 1.758 1.547 2.639 3.518 2.639 5.948 0 2.578-.94 4.613-2.823 6.129zm-4.003-8.651c-.701-.695-1.52-1.027-2.49-1.027-.97 0-1.791.332-2.488 1.027-.699.701-1.031 1.521-1.031 2.459 0 1.977 1.549 3.551 3.52 3.551.971 0 1.789-.332 2.49-1.028.695-.701 1.027-1.52 1.027-2.49-.001-1.004-.333-1.821-1.028-2.492z" class="st4"/><path id="path4620" d="M71.754 146.666v-7.585c0-1.063-.064-1.729-.156-2.034-.453-1.305-1.211-1.759-2.152-1.759-1.334 0-2.367 1.061-2.518 2.363-.064.366-.092.851-.092 1.43v7.585h-5.463v-7.585c0-1.125-.031-1.793-.092-2.064-.336-1.061-1.215-1.851-2.307-1.851-.818 0-1.76.576-2.125 1.302-.271.519-.393 1.397-.393 2.613v7.585h-5.463v-15.354h5.463v1.879c.15-.119.363-.332.666-.606 1.215-1.001 2.672-1.517 4.369-1.517 2.277 0 4.039.939 5.252 2.853 1.213-1.913 2.941-2.883 5.221-2.883 2.031 0 3.488.698 4.398 2.063.578.852.852 2.035.852 3.581v9.984h-5.46z" class="st4"/><path id="path4622" d="M85.848 139.99c.031 2.305 1.154 3.46 3.34 3.46 1.152 0 2.031-.484 2.668-1.455h5.281c-.334 1.15-.818 2.063-1.395 2.73-1.486 1.699-3.703 2.55-6.586 2.55-2.67 0-4.824-.729-6.432-2.217-1.611-1.488-2.398-3.49-2.398-5.949 0-2.518.76-4.521 2.307-6.009 1.547-1.483 3.67-2.213 6.309-2.213 2.643 0 4.676.757 6.162 2.276 1.486 1.517 2.246 3.608 2.246 6.25v.576h-11.502zm6.433-3.156c-.426-1.638-1.484-2.458-3.184-2.458-1.73 0-2.764.82-3.098 2.458h6.282zm-3.427-7.768l-2.52-1.852 4.311-5.249 3.459 2.485-5.25 4.616z" class="st4"/><path id="path4624" d="M112.443 146.666v-1.699c-.271.333-.455.546-.576.668-1.063 1.003-2.459 1.519-4.189 1.519-2.275 0-4.127-.789-5.613-2.399-1.488-1.608-2.215-3.519-2.215-5.795 0-2.245.727-4.156 2.215-5.736 1.486-1.605 3.338-2.398 5.555-2.398 1.455 0 2.668.305 3.641.942.332.214.729.577 1.184 1.062v-8.923h5.463v22.761h-5.465zm-3.369-11.165c-.973 0-1.793.333-2.488 1.03-.699.666-1.033 1.486-1.033 2.428 0 1.972 1.549 3.519 3.521 3.519 1.941 0 3.521-1.547 3.521-3.487.001-1.944-1.579-3.49-3.521-3.49z" class="st4"/><path id="path4626" d="M124.35 129.796c-.818 0-1.547-.305-2.154-.884-.607-.604-.91-1.303-.91-2.122 0-1.729 1.367-3.096 3.064-3.096 1.699 0 3.096 1.366 3.096 3.063-.001 1.7-1.426 3.039-3.096 3.039zm-2.731 16.87v-15.354h5.463v15.354h-5.463z" class="st4"/><path id="path4628" d="M135.734 139.99c.031 2.305 1.152 3.46 3.338 3.46 1.154 0 2.035-.484 2.67-1.455h5.281c-.334 1.15-.818 2.063-1.398 2.73-1.482 1.699-3.699 2.55-6.582 2.55-2.67 0-4.824-.729-6.432-2.217-1.611-1.488-2.398-3.49-2.398-5.949 0-2.518.76-4.521 2.305-6.009 1.547-1.483 3.672-2.213 6.311-2.213 2.643 0 4.676.757 6.162 2.276 1.486 1.517 2.246 3.608 2.246 6.25v.576h-11.503zm6.432-3.156c-.424-1.638-1.482-2.458-3.186-2.458-1.729 0-2.76.82-3.096 2.458h6.282z" class="st4"/></g><path id="path4630" d="M180.531 138.353v8.191c0 .308-.061.431-.305.431h-6.244c-.211 0-.338-.155-.338-.369v-8.192c0-.335-.117-.456-.393-.456h-8.1c-.244 0-.365-.152-.365-.426v-6.211c0-.244.092-.363.338-.363h8.158c.244 0 .361-.121.361-.397v-7.034c0-.184.127-.306.307-.306h6.215c.244 0 .365.092.365.306v7.034c0 .332.063.397.336.397h8.164c.24 0 .332.119.332.394v6.242c0 .212-.119.364-.332.364h-8.074c-.333-.001-.425.063-.425.395z" class="st4" fill="#fff"/></g></g><g id="g3085" transform="matrix(.056 0 0 .056 19.61 897.008)"><rect id="rect4234-1-8" width="402.347" height="145.921" x="784.31" y="270.845" rx="13.841" ry="10.89" fill="#ec008c"/><rect id="rect4234-1-8-2" width="402.347" height="145.921" x="471.65" y="270.845" rx="13.841" ry="10.89" fill="#ec008c"/><path id="path22698" d="M1171.735 343.449c0 32.422-26.293 58.715-58.715 58.715-32.422 0-58.715-26.293-58.715-58.715 0-32.422 26.293-58.715 58.715-58.715 32.422 0 58.715 26.293 58.715 58.715" fill="#fff"/><path id="path22660" d="M1039.508 416.766v-145.921h-498.251v145.921h498.251z" fill="#1a1a1a"/><g id="g4423" fill="#fff"><path d="M587.443 378.185h3.859c3.859 0 6.286-3.66 6.167-8.593v-51.879c.119-4.973-2.307-8.593-6.167-8.593h-3.859v69.066zm-26.297-86.571h33.14c17.903 0 29.48 3.342 29.48 26.655v57.449c0 15.595-11.736 19.972-23.314 19.972h-39.307v-104.076z" id="path22666"/><path d="M663.503 373.518c0 3.66.995 6.843 5.013 6.843 3.978 0 5.013-3.183 5.013-6.843v-59.756c0-3.62-1.034-6.843-5.013-6.843-4.018 0-5.013 3.223-5.013 6.843v59.756zm-26.297-51.879c0-16.471 4.854-32.225 31.31-32.225 26.457 0 31.31 15.755 31.31 32.225v44.001c0 16.471-4.854 32.225-31.31 32.225-26.457 0-31.31-15.755-31.31-32.225v-44.001z" id="path22670"/><path d="M738.699 331.402h1.989c3.581 0 7.877-1.313 7.877-7.281v-8.593c0-5.968-4.297-7.281-7.877-7.281h-1.989v23.154zm-25.462-39.784h29.043c16.869 0 29.878 1.034 29.878 21.125v9.349c0 11.339-4.297 17.624-15.436 18.341v.278c11.697.756 16.431 6.883 16.431 18.539v36.442h-24.587v-39.506c0-4.973-1.432-9.031-6.883-9.031-1.273 0-1.989.119-2.984.438v48.099h-25.462v-104.076z" id="path22674"/><path d="M786.596 321.635c0-16.471 6.445-32.225 31.867-32.225 19.295 0 29.48 10.941 29.48 29.321v14.72h-26.337v-19.415c0-3.461 0-7.121-4.695-7.121-3.024 0-4.018 3.223-4.018 6.843v59.756c0 3.66.995 6.843 4.018 6.843 4.695 0 4.695-3.939 4.695-8.434v-21.125h26.337v17.187c0 18.38-11.299 29.878-30.037 29.878-26.457 0-31.31-15.755-31.31-32.225v-44.001z" id="path22678"/><path d="M859.934 291.614h44.479v20.966h-18.181v19.096h17.028v20.131h-17.028v22.876h19.614v21.006h-45.911v-104.076z" id="path22682"/><path d="M917.407 291.614h26.297v83.945h17.465v20.131h-43.763v-104.076z" id="path22686"/><path d="M965.394 302.046h-8.832v-11.14h32.623v11.14h-8.872v44.121h-14.919v-44.121z" id="path22702"/><path d="M1004.916 290.902l3.421 44.558h.159l3.819-44.558h13.925l-7.838 55.26h-21.205l-7.201-55.26h14.919z" id="path22706"/><path id="path4004" style="text-align:start;line-height:125%;-inkscape-font-specification:Impact" d="M561.141 291.511h20.411c13.149 0 22.045-.166 26.68 1.039 4.634 1.206 7.944 3.109 10.358 5.865 2.414 2.756 3.627 5.937 4.23 9.317.603 3.38 1.202 9.908 1.202 19.811v36.62c0 9.386-.049 15.103-.932 18.268-.884 3.165-2.818 6.199-5.017 7.986-2.199 1.787-4.856 3.092-8.03 4.032-3.171.939-8.166 1.252-14.706 1.252h-34.195zm26.322 17.506v68.993c3.994.263 7.641-.299 8.344-2.621 1.595-1.305 1.735-5.908 1.735-12.956v-40.774c0-4.736 0-7.881-1.197-9.229-.506-1.121-.874-1.583-1.896-2.335-1.078-1.078-4.012-1.078-6.986-1.078z" font-size="163.702" letter-spacing="1.87" fill="#fff" font-family="Impact" word-spacing="0" opacity=".628"/><path id="path3995-3" style="text-align:start;line-height:125%;-inkscape-font-specification:Impact" d="M699.971 352.54c0 10.506-.248 17.944-.744 22.314-.496 4.37-2.283 9.336-4.891 12.952-2.608 3.617-5.897 5.422-10.338 7.36-4.44 1.938-9.445 2.57-15.351 2.57-5.604 0-10.768-.674-15.268-2.409-4.305-1.66-7.125-3.278-10.44-7.585-2.779-3.612-4.065-8.406-5.177-12.598-1-3.77-.537-11.761-.537-22.582v-17.913c0-10.506 0-17.894.505-22.314.499-4.37 1.93-8.545 4.538-12.162 2.608-3.617 5.443-6.085 9.883-8.023 4.44-1.937 10.421-3.033 16.327-3.033 5.604 0 12.139 1.309 16.601 3.139 4.462 1.83 6.39 3.55 9.106 7.21s4.491 8.274 5.008 12.579c.517 4.306.776 11.841.776 22.605zm-26.459-34.223c0-4.907-.035-8.407-1.216-9.623-1.223-1.742-2.39-1.853-4.071-1.853-1.423 0-2.762.69-3.516 1.788s-1.277 4.188-1.277 9.57v48.808c0 6.071.531 9.685 1.027 11.106.496 1.421 2.471 2.1 4.282 2.1 1.854 0 3.569-1.386 4.086-3.022.517-1.636.685-4.679.685-10.836z" font-size="163.702" letter-spacing="1.87" fill="#fff" font-family="Impact" word-spacing="0" opacity=".446"/><path id="path3982" style="text-align:start;line-height:125%;-inkscape-font-specification:Impact" d="M713.218 291.261h18.401c12.847 0 21.565.205 26.113 1.195 4.548.99 8.281 2.526 11.148 6.594 3.002 3.94 3.61 10.131 3.238 19.4.836 8.536-.787 12.77-3.366 16.3-2.269 3.106-5.948 5.139-12.061 5.614 5.315.465 10.538 1.823 12.713 5.495 1.854 2.239 2.665 4.07 3.117 5.943.453 1.873.679 7.029.679 15.468l-.103 28.18h-24.651v-35.394c0-5.562.103-8.128-1.329-10.666-.986-1.48-3.707-3.531-8.52-2.038v48.099l-25.379.25zm25.379 16.923v23.046c3.021.22 6.303-.28 7.635-1.699 1.591-1.578 2.214-2.066 2.214-7.38v-5.68c.134-3.349-.714-5.792-2.369-6.709-.381-.967-4.047-1.642-7.48-1.577z" font-size="163.702" letter-spacing="1.87" fill="#fff" font-family="Impact" word-spacing="0" opacity=".473"/><path id="path3847" style="text-align:start;line-height:125%;-inkscape-font-specification:Impact" d="M848.143 333.521h-26.495v-14.843c0-5.297-.078-8.393-.631-9.707-.553-1.313-1.714-1.897-3.597-1.898-2.128 0-2.876.433-3.638 1.963-.755 1.516-.722 4.975-.722 10.272v48.473c0 5.082.006 8.221.579 9.771.573 1.55 1.801 2.684 3.807 2.684 1.924 0 2.988-1.002 3.582-2.553.593-1.55.621-4.976.621-10.704v-16.25h26.485l-.036 7.51c-.048 10.133.371 17.224-2.318 22.706-1.453 4.522-4.508 8.534-9.481 11.936-4.973 3.402-11.317 4.972-18.603 4.972-7.572 0-14.289-1.579-19.201-4.464-4.912-2.885-8.1-7.57-9.731-12.619-1.993-6.17-2.1-10.927-2.1-22.18v-30.705c0-8.66 0-13.22.944-16.803.968-3.675 2.256-7.419 4.691-10.907 2.435-3.488 5.776-6.016 10.094-8.018 4.477-1.666 9.184-2.718 14.791-2.718 7.393-.309 13.799 1.037 18.751 4.138 4.533 2.492 8.135 6.998 9.69 11.627 2.527 4.718 2.651 11.716 2.573 21.217z" font-size="160.36" letter-spacing="1.832" fill="#fff" font-family="Impact" word-spacing="0" opacity=".446"/><path id="path3957" style="text-align:start;line-height:125%;-inkscape-font-specification:Impact" d="M859.852 291.511h44.565v21.02h-18.258v18.949h17.106v20.274h-17.106v22.693h19.793l-.153 21.253h-45.947z" font-size="163.702" letter-spacing="1.87" fill="#fff" font-family="Impact" word-spacing="0" opacity=".628"/><path id="path3940" style="text-align:start;line-height:125%;-inkscape-font-specification:Impact" d="M943.583 291.511v83.878h17.509v20.312h-43.864l.091-104.19z" font-size="163.702" letter-spacing="1.87" fill="#fff" font-family="Impact" word-spacing="0" opacity=".628"/><path id="path3910" style="text-align:start;line-height:125%;-inkscape-font-specification:Impact" d="M989.085 290.816v11.116h-8.927v44.177h-14.844v-44.177h-8.886v-11.116z" font-size="87.454" letter-spacing=".999" fill="#fff" font-family="Impact" word-spacing="0" opacity=".628"/><path id="path3927" style="text-align:start;line-height:125%;-inkscape-font-specification:Impact" d="M1026.24 290.816l-7.924 55.293h-21.288l-7.368-55.296h15.338c1.176 15.62 2.575 33.636 3.335 44.263 1.337-14.772 2.428-29.52 3.85-44.263z" font-size="87.454" letter-spacing=".999" fill="#fff" font-family="Impact" word-spacing="0" opacity=".628"/></g><path id="path22718" d="M1147.825 385.275c-2.235.2-11.176.758-14.409-.439-3.153-1.118-4.909-3.991-6.825-6.346-2.395-2.794-4.79-5.628-7.144-8.462-2.155-2.515-4.271-5.029-6.386-7.544h-.04c-5.907 6.945-11.814 13.89-17.682 20.835-.918.758-2.115 1.437-3.512 1.756-2.195.519-12.573.639-14.688 0-1.157-.319-2.155-1.038-2.794-1.876-1.836-2.355-1.756-11.136-.439-14.129 1.078-2.435 3.472-4.271 5.109-6.226 5.668-6.466 11.296-12.972 16.923-19.438-5.628-6.466-11.256-12.932-16.923-19.438-1.637-1.956-4.031-3.752-5.109-6.227-1.317-2.994-1.397-11.774.439-14.129.639-.838 1.637-1.557 2.794-1.876 2.115-.599 12.493-.519 14.688 0 1.397.319 2.594.998 3.512 1.756 5.867 6.945 11.774 13.89 17.682 20.835h.04c5.867-6.945 11.774-13.89 17.642-20.835.918-.758 2.115-1.437 3.512-1.756 2.195-.519 12.573-.599 14.688 0 1.157.319 2.155 1.038 2.794 1.876 1.836 2.355 1.756 11.136.439 14.129-1.078 2.475-3.473 4.271-5.109 6.227-5.668 6.506-11.296 12.972-16.923 19.438 5.628 6.466 11.256 12.972 16.923 19.438 1.756 2.115 4.231 3.951 5.309 6.705.599 1.557.519 3.832.519 6.067 0 5.947-.319 8.422-5.029 9.659" fill="#ec008c" fill-rule="evenodd"/><g id="g3075" letter-spacing="0" word-spacing="0" fill="#fff" font-family="Sans"><path id="path3847-8" style="text-align:start;line-height:125%;-inkscape-font-specification:Impact" d="M502.904 283.39v11.433h-6.408c-2.287 0-3.623.034-4.191.272-.567.238-.819.74-.819 1.552 0 .918.187 1.241.848 1.57.654.326 2.148.312 4.435.312h20.926c2.194 0 3.549-.002 4.218-.25.669-.247 1.159-.777 1.159-1.643 0-.83-.433-1.289-1.102-1.545s-2.148-.268-4.621-.268h-7.015v-11.429l3.242.015c4.374.021 7.436-.16 9.802 1 1.952.627 3.684 1.945 5.153 4.091 1.469 2.146 2.146 4.883 2.146 8.027 0 3.267-.682 6.166-1.927 8.285-1.246 2.119-3.268 3.495-5.448 4.199-2.664.86-4.717.906-9.575.906h-13.255c-3.738 0-5.707 0-7.254-.407-1.586-.418-3.203-.973-4.709-2.024-1.506-1.051-2.597-2.493-3.462-4.356-.719-1.932-1.173-3.963-1.173-6.383-.133-3.19.448-5.954 1.786-8.091 1.076-1.956 3.021-3.51 5.02-4.182 2.037-1.09 5.058-1.144 9.16-1.11z" font-size="160.36" letter-spacing="1.832" fill="#fff" font-family="Impact"/><path id="path3982-6" style="text-align:start;line-height:125%;-inkscape-font-specification:Impact" d="M483.857 338.75v-7.672c0-5.356.092-8.991.536-10.888.444-1.896 1.132-3.453 2.956-4.648 1.766-1.252 4.542-1.505 8.697-1.35 3.827-.349 5.725.328 7.307 1.404 1.392.946 2.304 2.48 2.517 5.029.209-2.216.817-4.394 2.463-5.301 1.004-.773 1.825-1.111 2.664-1.3.84-.189 3.151-.283 6.934-.283l12.633.043v10.278h-15.868c-2.494 0-3.644-.043-4.782.554-.664.411-1.583 1.546-.914 3.552h21.563l.112 10.582zm7.587-10.582h10.331c.099-1.26-.125-2.628-.762-3.183-.707-.664-.926-.923-3.308-.923h-2.546c-1.501-.056-2.597.297-3.008.988-.433.159-.736 1.688-.707 3.119z" font-size="163.702" letter-spacing="1.87" fill="#fff" font-family="Impact"/><path id="path3073" style="text-align:start;line-height:125%;-inkscape-font-specification:Impact" d="M483.857 372.24h46.821v9.838h-31.609l31.609 3.93v6.977l-30.886 4.144h30.886v9.838h-46.821v-14.569c2.815-.428 6.131-.882 9.948-1.363l11.915-1.551-21.863-2.566z" font-size="56.944" letter-spacing=".65" fill="#fff" font-family="Impact"/><path id="path3070" style="text-align:start;line-height:125%;-inkscape-font-specification:Impact" d="M483.857 348.115l46.821-5.964v10.665l-8.416.52v3.737l8.416.619v10.789l-46.821-5.296zm30.105 5.518c-5.302.528-11.847 1.056-19.636 1.584 8.946 1.056 15.491 1.716 19.636 1.98z" font-size="54.787" letter-spacing=".626" fill="#fff" font-family="Impact"/></g></g></g><style id="style3969" type="text/css">.st0{fill:#4D454A;} .st1{fill:#FFFFFF;} .st2{fill:#002F67;}</style><style id="style4074" type="text/css">.st0{fill:#4D454A;} .st1{fill:#FFFFFF;} .st2{fill:#0095DA;}</style><style id="style4187" type="text/css">.st0{fill:#4D454A;} .st1{fill:#EC008C;} .st2{fill:#FFFFFF;}</style><style id="style4311" type="text/css">.st0{fill:#4D454A;} .st1{fill:#FDB913;} .st2{fill:#FFFFFF;}</style><style id="style4438" type="text/css">.st0{fill:#4D454A;} .st1{fill:#FAFAFA;} .st2{fill:#FFFFFF;} .st3{fill:#00A77E;}</style><style id="style4584" type="text/css">.st0{fill:#4D454A;} .st1{fill:#F15B40;} .st2{fill:#F58220;} .st3{fill:#FAA74A;} .st4{fill:#FFFFFF;} .st5{fill:none;}</style></svg>