<?xml version="1.0" encoding="UTF-8" standalone="no"?>
<svg
   xmlns:dc="http://purl.org/dc/elements/1.1/"
   xmlns:cc="http://creativecommons.org/ns#"
   xmlns:rdf="http://www.w3.org/1999/02/22-rdf-syntax-ns#"
   xmlns:svg="http://www.w3.org/2000/svg"
   xmlns="http://www.w3.org/2000/svg"
   xmlns:xlink="http://www.w3.org/1999/xlink"
   xmlns:sodipodi="http://sodipodi.sourceforge.net/DTD/sodipodi-0.dtd"
   xmlns:inkscape="http://www.inkscape.org/namespaces/inkscape"
   width="300"
   height="100"
   id="svg2"
   version="1.1"
   inkscape:version="0.48.3.1 r9886"
   sodipodi:docname="sprite_min.svg">
  <metadata
     id="metadata52">
    <rdf:RDF>
      <cc:Work
         rdf:about="">
        <dc:format>image/svg+xml</dc:format>
        <dc:type
           rdf:resource="http://purl.org/dc/dcmitype/StillImage" />
        <dc:title></dc:title>
      </cc:Work>
    </rdf:RDF>
  </metadata>
  <defs
     id="defs50">
    <linearGradient
       gradientTransform="translate(-356.929,-197.118)"
       gradientUnits="userSpaceOnUse"
       xlink:href="#d"
       id="e"
       y2="461.77802"
       x2="671.66602"
       y1="523.91498"
       x1="665.94098" />
    <linearGradient
       gradientTransform="matrix(1,0,0,-1,4,871.441)"
       gradientUnits="userSpaceOnUse"
       id="d"
       y2="55.958"
       x2="293.25101"
       y1="906.117"
       x1="218.87199">
      <stop
         offset="0"
         style="stop-color:#f37364;stop-opacity:1"
         id="stop3229" />
      <stop
         offset="0.15000001"
         style="stop-color:#ed4555;stop-opacity:1"
         id="stop3231" />
      <stop
         offset="0.5"
         style="stop-color:#f26758;stop-opacity:1"
         id="stop3233" />
      <stop
         offset="1"
         style="stop-color:#ed1b2f;stop-opacity:1"
         id="stop3235" />
    </linearGradient>
    <linearGradient
       gradientUnits="userSpaceOnUse"
       xlink:href="#c"
       id="linearGradient3226"
       y2="461.77802"
       x2="671.66602"
       y1="523.91498"
       x1="665.94098" />
    <linearGradient
       gradientTransform="matrix(1,0,0,-1,4,871.441)"
       gradientUnits="userSpaceOnUse"
       id="c"
       y2="55.958"
       x2="293.25101"
       y1="906.117"
       x1="218.87199">
      <stop
         offset="0"
         style="stop-color:#f37364;stop-opacity:1"
         id="stop3218" />
      <stop
         offset="0.15000001"
         style="stop-color:#ed4555;stop-opacity:1"
         id="stop3220" />
      <stop
         offset="0.5"
         style="stop-color:#f26758;stop-opacity:1"
         id="stop3222" />
      <stop
         offset="1"
         style="stop-color:#ed1b2f;stop-opacity:1"
         id="stop3224" />
    </linearGradient>
    <linearGradient
       gradientUnits="userSpaceOnUse"
       xlink:href="#c"
       id="linearGradient3215"
       y2="459.68301"
       x2="670.409"
       y1="527.82397"
       x1="661.75201" />
    <linearGradient
       gradientUnits="userSpaceOnUse"
       xlink:href="#b-5"
       id="linearGradient3213"
       y2="461.77802"
       x2="671.66602"
       y1="523.91498"
       x1="665.94098" />
    <linearGradient
       gradientTransform="matrix(1,0,0,-1,4,871.441)"
       gradientUnits="userSpaceOnUse"
       id="b-5"
       y2="55.958"
       x2="293.25101"
       y1="906.117"
       x1="218.87199">
      <stop
         offset="0"
         style="stop-color:#f37364;stop-opacity:1"
         id="stop3205" />
      <stop
         offset="0.15000001"
         style="stop-color:#ed4555;stop-opacity:1"
         id="stop3207" />
      <stop
         offset="0.5"
         style="stop-color:#f26758;stop-opacity:1"
         id="stop3209" />
      <stop
         offset="1"
         style="stop-color:#ed1b2f;stop-opacity:1"
         id="stop3211" />
    </linearGradient>
    <linearGradient
       gradientUnits="userSpaceOnUse"
       xlink:href="#b-5"
       id="linearGradient3202"
       y2="459.68301"
       x2="670.409"
       y1="527.82397"
       x1="661.75201" />
    <linearGradient
       gradientUnits="userSpaceOnUse"
       xlink:href="#a-6"
       id="linearGradient3200"
       y2="461.77802"
       x2="671.66602"
       y1="523.91498"
       x1="665.94098" />
    <linearGradient
       gradientUnits="userSpaceOnUse"
       xlink:href="#a-6"
       id="linearGradient3198"
       y2="459.68301"
       x2="670.409"
       y1="527.82397"
       x1="661.75201" />
    <linearGradient
       gradientTransform="matrix(0,181.037,-181.037,0,97.901,175.907)"
       gradientUnits="userSpaceOnUse"
       xlink:href="#a-6"
       id="f"
       y2="1.033"
       x2="0.84799999"
       y1="1.166"
       x1="-0.87400001" />
    <linearGradient
       gradientTransform="matrix(1,0,0,-1,4,871.441)"
       gradientUnits="userSpaceOnUse"
       id="a-6"
       y2="55.958"
       x2="293.25101"
       y1="906.117"
       x1="218.87199">
      <stop
         offset="0"
         style="stop-color:#f37364;stop-opacity:1"
         id="stop3189" />
      <stop
         offset="0.15000001"
         style="stop-color:#ed4555;stop-opacity:1"
         id="stop3191" />
      <stop
         offset="0.5"
         style="stop-color:#f26758;stop-opacity:1"
         id="stop3193" />
      <stop
         offset="1"
         style="stop-color:#ed1b2f;stop-opacity:1"
         id="stop3195" />
    </linearGradient>
    <clipPath
       id="clipPath3184">
      <path
         id="path3186"
         d="m 617.215,435.498 h 109.016 v 91.464 H 617.215 v -91.464 z"
         inkscape:connector-curvature="0" />
    </clipPath>
    <clipPath
       id="clipPath3180">
      <path
         id="path3182"
         d="m 617.226,463.603 h 109.005 v 63.36 H 617.226 v -63.36 z"
         inkscape:connector-curvature="0" />
    </clipPath>
    <linearGradient
       x2="1"
       gradientTransform="matrix(0,-35.75,-35.75,0,707.894,493.213)"
       gradientUnits="userSpaceOnUse"
       id="d-3"
       xlink:href="#b-1" />
    <linearGradient
       x2="1"
       gradientTransform="matrix(0,-15.103,-15.103,0,708.528,526.192)"
       gradientUnits="userSpaceOnUse"
       id="c-0"
       xlink:href="#a-2" />
    <clipPath
       id="clipPath3386">
      <path
         id="path3388"
         d="m 617.215,435.498 h 109.016 v 91.464 H 617.215 v -91.464 z"
         inkscape:connector-curvature="0" />
    </clipPath>
    <linearGradient
       x2="1"
       gradientUnits="userSpaceOnUse"
       gradientTransform="matrix(0,-35.75,-35.75,0,707.894,493.213)"
       id="b-1">
      <stop
         id="stop3382"
         stop-color="#709cd8"
         offset="0" />
      <stop
         id="stop3384"
         stop-color="#2c77c6"
         offset="1" />
    </linearGradient>
    <linearGradient
       x2="1"
       gradientUnits="userSpaceOnUse"
       gradientTransform="matrix(0,-15.103,-15.103,0,708.528,526.192)"
       id="a-2">
      <stop
         id="stop3377"
         stop-color="#709cd8"
         offset="0" />
      <stop
         id="stop3379"
         stop-color="#2c77c6"
         offset="1" />
    </linearGradient>
    <clipPath
       id="clipPath3372">
      <path
         id="path3374"
         d="m 617.226,463.603 h 109.005 v 63.36 H 617.226 v -63.36 z"
         inkscape:connector-curvature="0" />
    </clipPath>
  </defs>
  <sodipodi:namedview
     pagecolor="#ffffff"
     bordercolor="#666666"
     borderopacity="1"
     objecttolerance="10"
     gridtolerance="10"
     guidetolerance="10"
     inkscape:pageopacity="0"
     inkscape:pageshadow="2"
     inkscape:window-width="1027"
     inkscape:window-height="999"
     id="namedview48"
     showgrid="false"
     inkscape:zoom="0.6804859"
     inkscape:cx="100.357"
     inkscape:cy="173.4055"
     inkscape:window-x="0"
     inkscape:window-y="0"
     inkscape:window-maximized="0"
     inkscape:current-layer="svg2"
     borderlayer="true" />
  <path
     d="m 57.429175,13.324982 -36.487938,7.88465 c -1.331846,0.29316 -1.835647,0.84379 -1.835647,2.33626 l -0.0016,48.52656 c 0,1.49148 0.502605,2.04311 1.836444,2.33487 l 36.485347,7.88306 c 1.104059,0.24731 1.678209,-0.10682 1.678209,-1.05145 v -10.38991 c -4.023835,0.002 -29.788256,0.01 -29.801409,0 h 29.801415 v -56.46881 c 0,-0.94781 -0.57415,-1.29657 -1.674821,-1.05523 z"
     id="path4"
     inkscape:connector-curvature="0"
     style="fill:#76246f" />
  <linearGradient
     id="a"
     gradientUnits="userSpaceOnUse"
     x1="98.301003"
     y1="7.9109998"
     x2="102.345"
     y2="312.42499"
     gradientTransform="matrix(0.19928854,0,0,0.19928854,19.103996,13.251042)">
    <stop
       offset="0"
       stop-color="#9E639A"
       id="stop7" />
    <stop
       offset=".226"
       stop-color="#802A75"
       id="stop9" />
    <stop
       offset=".532"
       stop-color="#985D93"
       id="stop11" />
    <stop
       offset=".647"
       stop-color="#91548C"
       id="stop13" />
    <stop
       offset=".849"
       stop-color="#823B7C"
       id="stop15" />
    <stop
       offset="1"
       stop-color="#76246F"
       id="stop17" />
  </linearGradient>
  <path
     clip-rule="evenodd"
     d="m 56.857616,14.050992 -35.411781,7.71844 c -1.292386,0.28658 -1.781639,0.82645 -1.781639,2.28664 l -0.0016,47.50441 c 0,1.46178 0.488257,2.00086 1.782636,2.28743 l 35.40899,7.71626 c 1.071574,0.24273 1.628785,-0.10383 1.628785,-1.02913 v -65.45094 c 0,-0.92848 -0.557211,-1.26947 -1.625397,-1.03311 z"
     id="path19"
     inkscape:connector-curvature="0"
     style="fill:url(#a);fill-rule:evenodd" />
  <path
     d="m 19.477861,22.193922 c 0,0 35.146527,-4.5109 39.537252,5.72935 l 5.98e-4,20.60504 c 0,0 -0.264057,12.42823 -5.662186,14.29357 l -17.709377,4.05153 c 0,0 -15.352193,5.54003 -16.346842,-29.67565 -0.463346,-11.45949 0.180555,-15.00384 0.180555,-15.00384 z"
     id="path21"
     inkscape:connector-curvature="0"
     style="fill:#76246f" />
  <path
     d="m 55.421343,25.687452 c -0.987076,0 -1.040884,0.55701 -1.09529,1.02036 h 1.985512 c 0,-0.5327 -0.10642,-1.02036 -0.890222,-1.02036 z"
     id="path23"
     inkscape:connector-curvature="0"
     style="fill:none" />
  <path
     d="m 38.244265,28.156832 c 0,0.47351 0.366691,0.54326 0.635332,0.54326 0.726407,0 1.03072,-0.3926 1.021553,-0.98767 v -0.47132 c -0.04564,0.0275 -0.09665,0.0544 -0.138505,0.0705 -0.570563,0.26984 -1.51838,0 -1.51838,0.84518 z"
     id="path25"
     inkscape:connector-curvature="0"
     style="fill:none" />
  <path
     d="m 41.065792,28.228782 v -1.94885 c 0,-1.11781 -0.580926,-1.51937 -1.830664,-1.51937 -1.523162,0 -1.996672,0.58491 -2.022779,1.36193 v 0.20049 h 1.10645 c 0.03787,-0.37626 0,-0.70548 0.856941,-0.70548 0.57694,0 0.725211,0.21603 0.725211,0.53887 0,0.21025 -0.04564,0.38583 -0.11479,0.44501 -0.248115,0.17657 -1.550664,0.10623 -2.129598,0.36052 -0.349153,0.17258 -0.628157,0.47191 -0.628157,1.13594 0,0.9251 0.482876,1.4849 1.660073,1.4849 0.610421,0 0.999233,-0.10562 1.320088,-0.673 0.0572,0.10383 0.110206,0.26924 0.239146,0.38443 0.167004,0.13911 0.332214,0.16561 0.549239,0.16561 h 0.604044 v -0.89082 c -0.147075,0.008 -0.233566,-0.0369 -0.270634,-0.0616 -0.03687,-0.0245 -0.06457,-0.0867 -0.06457,-0.2786 z m -1.164841,-0.51636 c 0.0092,0.59507 -0.295146,0.98767 -1.021553,0.98767 -0.268641,0 -0.635332,-0.0697 -0.635332,-0.54326 0,-0.84518 0.947816,-0.57534 1.51818,-0.84518 0.04185,-0.0163 0.09287,-0.0433 0.138506,-0.0705 v 0.47132 z"
     id="path27"
     inkscape:connector-curvature="0"
     style="fill:#ffffff" />
  <path
     d="m 44.958495,24.760762 c -1.024741,0 -1.132756,0.46374 -1.219845,0.74294 v -0.62257 h -1.170421 v 4.57885 h 1.21287 v -2.95226 c 0,-0.62856 0.270634,-0.79596 0.776428,-0.79596 0.628955,0 0.804129,0.26346 0.804129,0.71724 v 3.03078 h 1.211674 v -3.24063 c 2e-4,-1.09051 -0.558406,-1.45839 -1.614835,-1.45839 z"
     id="path29"
     inkscape:connector-curvature="0"
     style="fill:#ffffff" />
  <path
     d="m 34.634353,25.737872 v -0.85674 h -1.081938 v 4.57885 h 1.210479 v -2.47297 c 0,-0.21723 0.0269,-0.6441 0.226989,-0.89899 0.17099,-0.20906 0.428471,-0.27901 0.707275,-0.27901 h 0.73956 v -1.00561 c -0.200086,-0.0259 -0.393595,-0.0428 -0.592086,-0.0428 -0.917325,2e-4 -1.040087,0.50758 -1.210279,0.97731 z"
     id="path31"
     inkscape:connector-curvature="0"
     style="fill:#ffffff" />
  <path
     d="m 30.678475,23.387862 c -0.270036,0.22041 -0.348556,0.49742 -0.348556,0.85674 v 0.63653 h -0.605637 v 0.78818 h 0.605637 v 3.79067 h 1.21008 v -3.79067 h 0.759489 v -0.78818 h -0.759489 v -0.48826 c 0,-0.12197 0.01913,-0.18135 0.06098,-0.24473 0.05461,-0.0691 0.212441,-0.0789 0.361908,-0.0789 h 0.336399 v -0.92569 h -0.633538 c -0.297339,0 -0.724215,0.0351 -0.987276,0.24433 z"
     id="path33"
     inkscape:connector-curvature="0"
     style="fill:#ffffff" />
  <path
     d="m 55.369927,24.760762 c -1.703519,0 -2.277669,0.96953 -2.277669,2.42733 0,1.59969 0.661239,2.39485 2.223462,2.39485 1.814522,0 2.067419,-0.90856 2.164074,-1.47852 h -1.18477 c -0.07713,0.27283 -0.13173,0.5602 -0.880656,0.5602 -0.864912,0 -1.119005,-0.37586 -1.119005,-1.10785 h 3.264346 c 0.06895,-1.32048 -0.17657,-2.79601 -2.189782,-2.79601 z m -1.043874,1.94705 c 0.05441,-0.46335 0.108214,-1.02036 1.09529,-1.02036 0.783802,0 0.890222,0.48766 0.890222,1.02036 h -1.985512 z"
     id="path35"
     inkscape:connector-curvature="0"
     style="fill:#ffffff" />
  <path
     d="m 50.006673,28.691922 c -0.785595,0 -1.020357,-0.55163 -1.020357,-1.60866 0,-0.72501 0.183146,-1.39601 1.074165,-1.39601 0.899589,0 0.885639,0.41512 0.948614,0.76925 h 1.158663 c 0,-0.89142 -0.51536,-1.69594 -2.028956,-1.69594 -1.756529,0 -2.346424,1.02155 -2.346424,2.39246 0,1.6226 0.799148,2.42972 2.250167,2.42972 1.788017,0 2.163477,-1.10764 2.163477,-1.82708 h -1.197126 c -0.06278,0.48906 1.99e-4,0.93626 -1.002223,0.93626 z"
     id="path37"
     inkscape:connector-curvature="0"
     style="fill:#ffffff" />
  <linearGradient
     id="b"
     gradientUnits="userSpaceOnUse"
     x1="99.823997"
     y1="152.939"
     x2="143.12399"
     y2="300.452"
     gradientTransform="matrix(0.19928854,0,0,0.19928854,19.103996,13.251042)">
    <stop
       offset=".318"
       stop-color="#fff"
       id="stop40" />
    <stop
       offset=".503"
       stop-color="#E7E8E9"
       id="stop42" />
    <stop
       offset=".872"
       stop-color="#ADB1B5"
       id="stop44" />
  </linearGradient>
  <path
     d="M 52.760841,32.219932 H 44.663548 L 28.5146,54.214412 c -0.666222,0.83183 -0.790179,1.67023 -0.802934,2.13079 v 0.13631 l 0.0038,7.20927 h 16.787267 l -0.0016,7.41712 h 8.259713 v -7.49226 h 6.34316 v -8.18617 l -6.343155,-0.007 v -23.20296 z m -8.258318,23.19399 c 0,0 -8.178602,0.005 -8.178602,0 0,-0.24652 0.08649,-0.4747 0.217224,-0.65964 l 0.465339,-0.63673 7.49584,-10.1103 v 11.40667 z"
     id="path46"
     inkscape:connector-curvature="0"
     style="fill:url(#b)" />
  <g
     id="g3238"
     transform="matrix(0.21535195,0,0,0.21535195,162.44755,-98.335938)">
    <g
       id="g3240"
       transform="matrix(5.064,0,0,-5.064,-2042.296,2203.376)">
      <path
         style="fill:#ed1b2f"
         id="path3242"
         d="m 369.299,328.801 c 0,0.945 -0.546,1.185 -1.541,0.971 l -33.451,-7.231 c -1.222,-0.267 -1.684,-0.774 -1.684,-2.14 L 332.62,275.91 c 0,-1.371 0.465,-1.872 1.687,-2.145 l 33.451,-7.223 c 1.01,-0.232 1.533,0.257 1.541,1.141 v 61.118"
         inkscape:connector-curvature="0" />
      <path
         style="fill:url(#e)"
         id="path3244"
         d="m 366.934,329.074 c -1.748,-0.39 -32.461,-7.086 -32.461,-7.086 5.263,0.527 9.716,0.748 13.488,0.748 19.827,0 20.765,-6.126 20.765,-6.126 0,0 -0.002,8.837 0,11.86 0,0.601 -0.098,0.821 -0.531,0.821 -0.27,0 -0.672,-0.085 -1.261,-0.217"
         inkscape:connector-curvature="0" />
      <g
         id="g3246"
         transform="translate(-356.929,-197.118)">
        <path
           style="fill:#ffffff"
           id="path3248"
           d="m 720.702,514.676 c 0,-1.47 0.608,-2.2 2.04,-2.2 1.662,0 1.894,0.836 1.981,1.357 h -1.085 c -0.072,-0.25 -0.123,-0.515 -0.811,-0.515 -0.792,0 -1.021,0.343 -1.021,1.018 h 2.992 c 0.064,1.211 -0.162,2.562 -2.004,2.562 -1.565,0 -2.092,-0.886 -2.092,-2.222 m 2.949,0.437 h -1.815 c 0.047,0.425 0.098,0.937 1.001,0.937 0.719,0 0.814,-0.444 0.814,-0.937"
           inkscape:connector-curvature="0" />
        <path
           style="fill:#ffffff"
           id="path3250"
           d="m 717.994,516.898 c 1.388,0 1.86,-0.737 1.86,-1.551 h -1.062 c -0.057,0.323 -0.048,0.703 -0.872,0.703 -0.817,0 -0.984,-0.614 -0.984,-1.28 0,-0.966 0.218,-1.475 0.937,-1.475 0.919,0 0.862,0.407 0.919,0.856 h 1.096 c 0,-0.656 -0.346,-1.675 -1.986,-1.675 -1.325,0 -2.059,0.741 -2.059,2.23 0,1.256 0.541,2.192 2.151,2.192"
           inkscape:connector-curvature="0" />
        <path
           style="fill:#ffffff"
           id="path3252"
           d="m 711.053,516.79 h 1.075 v -0.57 c 0.074,0.255 0.173,0.679 1.113,0.679 0.974,0 1.485,-0.332 1.485,-1.338 v -2.972 h -1.112 v 2.783 c 0,0.413 -0.158,0.652 -0.74,0.652 -0.461,0 -0.712,-0.15 -0.712,-0.73 v -2.705 h -1.109 v 4.201 z"
           inkscape:connector-curvature="0" />
        <path
           style="fill:#ffffff"
           id="path3254"
           d="m 708.606,515.618 c 0,-0.193 -0.041,-0.353 -0.102,-0.405 -0.23,-0.164 -1.421,-0.1 -1.953,-0.33 -0.32,-0.16 -0.577,-0.438 -0.577,-1.045 0,-0.849 0.443,-1.362 1.519,-1.362 0.564,0 0.92,0.095 1.211,0.621 0.055,-0.098 0.103,-0.251 0.224,-0.353 0.15,-0.131 0.299,-0.156 0.5,-0.156 h 0.552 v 0.822 c -0.135,-0.013 -0.214,0.03 -0.244,0.051 -0.038,0.027 -0.058,0.081 -0.058,0.262 v 1.783 c 0,1.021 -0.539,1.392 -1.682,1.392 -1.395,0 -1.83,-0.539 -1.854,-1.249 v -0.183 h 1.015 c 0.034,0.342 0,0.648 0.784,0.648 0.533,0 0.665,-0.197 0.665,-0.496 m -0.125,-1.059 0.125,0.062 v -0.43 c 0.011,-0.543 -0.268,-0.907 -0.937,-0.907 -0.248,0 -0.58,0.065 -0.58,0.498 0,0.777 0.868,0.535 1.392,0.777"
           inkscape:connector-curvature="0" />
        <path
           style="fill:#ffffff"
           id="path3256"
           d="m 702.787,516.79 h 0.988 v -0.787 c 0.16,0.431 0.272,0.896 1.117,0.896 0.178,0 0.355,-0.017 0.538,-0.038 v -0.922 h -0.675 c -0.253,0 -0.495,-0.065 -0.65,-0.255 -0.181,-0.237 -0.208,-0.625 -0.208,-0.824 v -2.271 h -1.11 v 4.201 z"
           inkscape:connector-curvature="0" />
      </g>
      <path
         style="fill:#ffffff"
         id="path3258"
         d="m 344.708,320.415 h -0.309 c -0.136,0 -0.282,-0.007 -0.329,-0.071 -0.045,-0.058 -0.058,-0.115 -0.058,-0.224 v -0.448 h 0.696 v -0.724 h -0.696 v -3.477 h -1.11 v 3.477 h -0.552 v 0.724 h 0.552 v 0.581 c 0,0.332 0.076,0.587 0.319,0.786 0.245,0.194 0.631,0.224 0.906,0.224 h 0.581 v -0.848 z"
         inkscape:connector-curvature="0" />
      <path
         style="fill:url(#f)"
         id="path3260"
         d="m 333.191,306.933 v -30.301 c 0,-1.238 0.179,-1.845 1.145,-2.069 1.395,-0.323 30.587,-6.667 32.019,-6.975 0.731,-0.157 1.226,-0.265 1.564,-0.265 0.709,0 0.716,0.466 0.72,1.89 0.019,6.903 0.008,8.559 0,19.552 0,0 0.012,3.234 0.012,4.851 l 0.003,0.405 c -1.921,-6.03 -5.736,-15.465 -13.67,-14.836 0,0 -6.792,-2.032 -12.713,2.044 -8.493,3.704 -9.054,22.181 -9.08,25.702 z"
         inkscape:connector-curvature="0" />
    </g>
    <g
       id="g3262"
       transform="matrix(0.364,0,0,0.366,-558.079,557.734)">
      <linearGradient
         gradientTransform="matrix(1,0,0,-1,4,871.441)"
         gradientUnits="userSpaceOnUse"
         id="linearGradient3264"
         y2="178.32401"
         x2="354.63901"
         y1="688.77502"
         x1="264.63199">
        <stop
           offset="0.5"
           style="stop-color:#ffffff;stop-opacity:1"
           id="stop3266" />
        <stop
           offset="1"
           style="stop-color:#bfbfbf;stop-opacity:1"
           id="stop3268" />
      </linearGradient>
      <path
         style="fill:#ffffff"
         id="path3270"
         d="M 1059.96,552.53 H 840.594 c 0,0 30.462,-17.461 83.232,-47.266 90.569,-51.167 124.217,-91.167 136.133,-130.516 v -93.54 c -18.532,-63.62 -79.367,-104.016 -182.619,-104.016 -102.214,0 -200.105,40.942 -192.98,186.195 0,0 127.125,-0.37 128.951,0 0,-59.805 11.44,-91.156 61.497,-91.156 43.627,0 64.609,19.867 64.609,54.067 0,32.534 -28.661,54.354 -56.714,73.636 -38.652,26.563 -56.549,38.664 -119.417,82.036 -78.044,53.875 -83.326,92.667 -83.326,184.136 0.149,0.106 328.688,0.023 380,0 V 552.53 z"
         inkscape:connector-curvature="0" />
    </g>
  </g>
  <g
     id="g3392"
     transform="matrix(1.0904531,0,0,-1.0904531,-208.2745,376.1416)">
    <path
       id="path3394"
       d="m 369.299,328.801 c 0,0.945 -0.546,1.185 -1.541,0.971 l -33.451,-7.231 c -1.222,-0.267 -1.684,-0.774 -1.684,-2.14 L 332.62,275.91 c 0,-1.371 0.465,-1.872 1.687,-2.145 l 33.451,-7.223 c 1.01,-0.232 1.533,0.257 1.541,1.141 v 61.118"
       inkscape:connector-curvature="0"
       style="fill:#2b78c6" />
    <path
       style="fill:url(#c-0)"
       id="path3396"
       d="m 366.934,329.074 c -1.748,-0.39 -32.461,-7.086 -32.461,-7.086 5.263,0.527 9.716,0.748 13.488,0.748 19.827,0 20.765,-6.126 20.765,-6.126 0,0 -0.002,8.837 0,11.86 0,0.601 -0.098,0.821 -0.531,0.821 -0.27,0 -0.672,-0.085 -1.261,-0.217"
       inkscape:connector-curvature="0" />
    <path
       style="fill:url(#d-3)"
       id="path3398"
       d="m 333.196,306.877 v 0 m 0,-30.376 c 0,-1.241 0.18,-1.848 1.148,-2.072 1.398,-0.324 30.658,-6.684 32.093,-6.993 0.733,-0.157 1.232,-0.262 1.57,-0.262 0.711,0 0.715,0.465 0.719,1.892 0.019,6.92 0.01,8.581 0.002,19.601 0,1.905 -0.01,3.01 -0.248,3.01 -0.202,0 -0.566,-0.79 -1.225,-2.555 -0.977,-2.616 -2.601,-4.597 -5.303,-5.237 -5.527,-1.308 -6.943,-1.705 -14.487,-3.221 -0.696,-0.139 -1.355,-0.206 -1.985,-0.206 -11.569,0 -12.254,22.492 -12.284,26.419 v -30.376 z"
       inkscape:connector-curvature="0" />
    <g
       id="g3400"
       transform="translate(-356.929,-197.118)">
      <path
         id="path3402"
         d="m 726.227,488.963 c -1.102,3.889 -4.275,5.972 -8.703,6.464 0,0 4.604,3.39 8.707,6.718 v 7.269 h -26.399 v -8.093 h 14.88 c -0.031,-0.023 -9.318,-7.211 -9.318,-7.211 l 3.478,-5.207 c 0,0 2.091,1.079 3.977,1.079 3.336,0 4.651,-1.398 4.651,-4.557 0,-3.42 -1.564,-4.933 -4.719,-4.933 -3.821,0 -4.601,2.73 -4.601,4.691 h -9.396 c -0.176,-6.653 3.886,-11.4 13.535,-11.4 7.475,0 12.469,2.605 13.908,8.215 v 6.965 z"
         inkscape:connector-curvature="0"
         style="fill:#ffffff" />
      <path
         id="path3404"
         d="m 720.702,514.676 c 0,-1.47 0.608,-2.2 2.04,-2.2 1.662,0 1.894,0.836 1.981,1.357 h -1.085 c -0.072,-0.25 -0.123,-0.515 -0.811,-0.515 -0.792,0 -1.021,0.343 -1.021,1.018 h 2.992 c 0.064,1.211 -0.162,2.562 -2.004,2.562 -1.565,0 -2.092,-0.886 -2.092,-2.222 m 2.949,0.437 h -1.815 c 0.047,0.425 0.098,0.937 1.001,0.937 0.719,0 0.814,-0.444 0.814,-0.937"
         inkscape:connector-curvature="0"
         style="fill:#ffffff" />
      <path
         id="path3406"
         d="m 717.994,516.898 c 1.388,0 1.86,-0.737 1.86,-1.551 h -1.062 c -0.057,0.323 -0.048,0.703 -0.872,0.703 -0.817,0 -0.984,-0.614 -0.984,-1.28 0,-0.966 0.218,-1.475 0.937,-1.475 0.919,0 0.862,0.407 0.919,0.856 h 1.096 c 0,-0.656 -0.346,-1.675 -1.986,-1.675 -1.325,0 -2.059,0.741 -2.059,2.23 0,1.256 0.541,2.192 2.151,2.192"
         inkscape:connector-curvature="0"
         style="fill:#ffffff" />
      <path
         id="path3408"
         d="m 711.053,516.79 h 1.075 v -0.57 c 0.074,0.255 0.173,0.679 1.113,0.679 0.974,0 1.485,-0.332 1.485,-1.338 v -2.972 h -1.112 v 2.783 c 0,0.413 -0.158,0.652 -0.74,0.652 -0.461,0 -0.712,-0.15 -0.712,-0.73 v -2.705 h -1.109 v 4.201 z"
         inkscape:connector-curvature="0"
         style="fill:#ffffff" />
      <path
         id="path3410"
         d="m 708.606,515.618 c 0,-0.193 -0.041,-0.353 -0.102,-0.405 -0.23,-0.164 -1.421,-0.1 -1.953,-0.33 -0.32,-0.16 -0.577,-0.438 -0.577,-1.045 0,-0.849 0.443,-1.362 1.519,-1.362 0.564,0 0.92,0.095 1.211,0.621 0.055,-0.098 0.103,-0.251 0.224,-0.353 0.15,-0.131 0.299,-0.156 0.5,-0.156 h 0.552 v 0.822 c -0.135,-0.013 -0.214,0.03 -0.244,0.051 -0.038,0.027 -0.058,0.081 -0.058,0.262 v 1.783 c 0,1.021 -0.539,1.392 -1.682,1.392 -1.395,0 -1.83,-0.539 -1.854,-1.249 v -0.183 h 1.015 c 0.034,0.342 0,0.648 0.784,0.648 0.533,0 0.665,-0.197 0.665,-0.496 m -0.125,-1.059 0.125,0.062 v -0.43 c 0.011,-0.543 -0.268,-0.907 -0.937,-0.907 -0.248,0 -0.58,0.065 -0.58,0.498 0,0.777 0.868,0.535 1.392,0.777"
         inkscape:connector-curvature="0"
         style="fill:#ffffff" />
      <path
         id="path3412"
         d="m 702.787,516.79 h 0.988 v -0.787 c 0.16,0.431 0.272,0.896 1.117,0.896 0.178,0 0.355,-0.017 0.538,-0.038 v -0.922 h -0.675 c -0.253,0 -0.495,-0.065 -0.65,-0.255 -0.181,-0.237 -0.208,-0.625 -0.208,-0.824 v -2.271 h -1.11 v 4.201 z"
         inkscape:connector-curvature="0"
         style="fill:#ffffff" />
    </g>
    <path
       id="path3414"
       d="m 344.708,320.415 h -0.309 c -0.136,0 -0.282,-0.007 -0.329,-0.071 -0.045,-0.058 -0.058,-0.115 -0.058,-0.224 v -0.448 h 0.696 v -0.724 h -0.696 v -3.477 h -1.11 v 3.477 h -0.552 v 0.724 h 0.552 v 0.581 c 0,0.332 0.076,0.587 0.319,0.786 0.245,0.194 0.631,0.224 0.906,0.224 h 0.581 v -0.848 z"
       inkscape:connector-curvature="0"
       style="fill:#ffffff" />
  </g>
  <g
     id="g3605"
     transform="matrix(0.07835425,0,0,0.07835425,228.69464,25.174432)">
    <path
       id="path3607"
       d="M 19.063,32.9 C 8.303,35.187 -0.5,46.058 -0.5,57.058 v 626.883 c 0,11 8.803,21.87 19.563,24.157 l 471.373,100.193 c 10.76,2.287 19.563,-4.842 19.563,-15.842 V -51.452 c 0,-11 -8.803,-18.129 -19.563,-15.842 L 19.063,32.9 z"
       inkscape:connector-curvature="0"
       style="fill:#87b919" />
    <linearGradient
       gradientTransform="matrix(1,0,0,-1,4,871.441)"
       y2="55.958"
       x2="293.25101"
       y1="906.117"
       x1="218.87199"
       gradientUnits="userSpaceOnUse"
       id="a-4">
      <stop
         id="stop3610"
         stop-color="#ABC969"
         offset="0" />
      <stop
         id="stop3612"
         stop-color="#95CC1C"
         offset=".25" />
      <stop
         id="stop3614"
         stop-color="#A6D16F"
         offset=".5" />
      <stop
         id="stop3616"
         stop-color="#87B919"
         offset="1" />
    </linearGradient>
    <path
       style="fill:url(#a-4)"
       id="path3618"
       d="M 23.744,40.411 C 12.984,42.698 4.181,53.569 4.181,64.569 v 611.86 c 0,11 8.803,21.871 19.563,24.158 l 459.875,97.749 c 10.758,2.287 19.563,-4.842 19.563,-15.842 V -41.497 c 0,-11 -8.805,-18.129 -19.563,-15.842 L 23.744,40.411 z"
       inkscape:connector-curvature="0" />
    <path
       id="path3620"
       d="m 5.25,44.569 c 0,0 504.75,-116.021 504.75,123.206 l 0.002,257.853 C 449.5,642.5 321.625,624.5 321.625,624.5 c 0,0 -307.248,84.704 -319.979,-333.394 C -4.285,155.053 5.25,44.569 5.25,44.569 z"
       inkscape:connector-curvature="0"
       style="fill:#87b919" />
    <linearGradient
       gradientTransform="matrix(1,0,0,-1,4,871.441)"
       y2="209.076"
       x2="371.534"
       y1="712.54199"
       x1="282.759"
       gradientUnits="userSpaceOnUse"
       id="b-50">
      <stop
         id="stop3623"
         stop-color="#fff"
         offset=".5" />
      <stop
         id="stop3625"
         stop-color="#BFBFBF"
         offset="1" />
    </linearGradient>
    <path
       style="fill:url(#b-50)"
       id="path3627"
       d="m 153.298,453.088 109.77,17.725 c 13.736,-16.287 31.358,-28.029 61.177,-28.029 38.93,0 66.09,13.696 66.09,63.011 0,52.729 -26.291,68.666 -65.021,68.666 -46.412,0 -61.365,-28.39 -64.234,-52.828 H 133.39 c 0,80.317 52.599,144.854 185.907,144.854 102.104,0 170.586,-35.428 190.703,-111.765 V 453.347 C 489.424,377.139 420.611,352.904 353.592,352.904 c -27.778,0 -63.948,11.17 -79.639,24.775 0,0 -0.949,-0.978 -1.24,-0.828 l 9.488,-88.346 H 510 V 177.431 H 181.668 l -28.37,275.657 z"
       inkscape:connector-curvature="0" />
    <path
       id="path3629"
       d="m 463.68,93.73 c -12.406,0 -13.084,6.922 -13.77,12.679 h 24.959 C 474.87,99.79 473.53,93.73 463.68,93.73 z"
       inkscape:connector-curvature="0"
       style="fill:none" />
    <path
       id="path3631"
       d="m 247.772,124.411 c 0,5.882 4.608,6.748 7.986,6.748 9.135,0 12.955,-4.877 12.842,-12.268 v -5.857 c -0.574,0.341 -1.217,0.677 -1.742,0.876 -7.172,3.353 -19.086,0 -19.086,10.501 z"
       inkscape:connector-curvature="0"
       style="fill:none" />
    <path
       id="path3633"
       d="m 283.236,125.306 v -24.214 c 0,-13.886 -7.301,-18.875 -23.01,-18.875 -19.146,0 -25.097,7.268 -25.424,16.918 v 2.492 h 13.907 c 0.475,-4.676 0,-8.764 10.767,-8.764 7.254,0 9.121,2.684 9.121,6.694 0,2.612 -0.578,4.793 -1.445,5.529 -3.118,2.193 -19.49,1.317 -26.766,4.479 -4.391,2.145 -7.897,5.863 -7.897,14.113 0,11.494 6.07,18.448 20.867,18.448 7.675,0 12.563,-1.313 16.594,-8.36 0.721,1.289 1.385,3.345 3.006,4.774 2.1,1.729 4.178,2.058 6.903,2.058 h 7.593 V 129.53 c -1.851,0.101 -2.938,-0.458 -3.4,-0.765 -0.468,-0.305 -0.816,-1.077 -0.816,-3.459 z m -14.638,-6.415 c 0.111,7.391 -3.711,12.268 -12.842,12.268 -3.378,0 -7.986,-0.866 -7.986,-6.748 0,-10.501 11.916,-7.148 19.082,-10.501 0.527,-0.204 1.168,-0.538 1.742,-0.876 v 5.857 h 0.004 z"
       inkscape:connector-curvature="0"
       style="fill:#ffffff" />
    <path
       id="path3635"
       d="m 332.168,82.219 c -12.885,0 -14.24,5.762 -15.332,9.229 v -7.731 h -14.713 v 56.884 h 15.242 v -36.677 c 0,-7.811 3.403,-9.888 9.764,-9.888 7.904,0 10.106,3.272 10.106,8.909 v 37.653 h 15.229 v -40.261 c 10e-4,-13.546 -7.019,-18.118 -20.296,-18.118 z"
       inkscape:connector-curvature="0"
       style="fill:#ffffff" />
    <path
       id="path3637"
       d="M 202.398,94.359 V 83.716 H 188.797 V 140.6 h 15.216 v -30.724 c 0,-2.699 0.337,-8.004 2.853,-11.168 2.148,-2.598 5.385,-3.464 8.891,-3.464 h 9.294 V 82.749 c -2.515,-0.323 -4.948,-0.532 -7.442,-0.532 -11.53,0.002 -13.072,6.304 -15.211,12.142 z"
       inkscape:connector-curvature="0"
       style="fill:#ffffff" />
    <path
       id="path3639"
       d="m 152.675,65.163 c -3.394,2.739 -4.382,6.177 -4.382,10.644 v 7.91 h -7.612 v 9.792 h 7.612 v 47.092 h 15.209 V 93.508 h 9.549 v -9.792 h -9.549 v -6.067 c 0,-1.517 0.242,-2.254 0.768,-3.039 0.687,-0.861 2.669,-0.983 4.548,-0.983 h 4.23 V 62.129 h -7.964 c -3.738,0 -9.104,0.434 -12.409,3.034 z"
       inkscape:connector-curvature="0"
       style="fill:#ffffff" />
    <path
       id="path3641"
       d="m 463.034,82.219 c -21.408,0 -28.627,12.044 -28.627,30.157 0,19.872 8.311,29.753 27.943,29.753 22.811,0 25.988,-11.289 27.201,-18.368 H 474.66 c -0.967,3.39 -1.652,6.958 -11.066,6.958 -10.873,0 -14.068,-4.67 -14.068,-13.763 h 41.029 c 0.871,-16.405 -2.215,-34.737 -27.521,-34.737 z m -13.123,24.19 c 0.686,-5.756 1.363,-12.679 13.77,-12.679 9.85,0 11.189,6.06 11.189,12.679 h -24.959 z"
       inkscape:connector-curvature="0"
       style="fill:#ffffff" />
    <path
       id="path3643"
       d="m 395.62,131.058 c -9.875,0 -12.824,-6.854 -12.824,-19.984 0,-9.008 2.303,-17.344 13.502,-17.344 11.307,0 11.133,5.155 11.922,9.556 h 14.568 c 0,-11.074 -6.479,-21.069 -25.508,-21.069 -22.078,0 -29.488,12.691 -29.488,29.723 0,20.157 10.043,30.187 28.281,30.187 22.471,0 27.189,-13.763 27.189,-22.7 h -15.049 c -0.783,6.073 0.006,11.631 -12.593,11.631 z"
       inkscape:connector-curvature="0"
       style="fill:#ffffff" />
  </g>
</svg>
