<?xml version="1.0" encoding="UTF-8"?>
<!DOCTYPE svg PUBLIC "-//W3C//DTD SVG 1.1//EN" "http://www.w3.org/Graphics/SVG/1.1/DTD/svg11.dtd">
<svg width="900pt" height="437pt" viewBox="0 0 900 437" version="1.1" xmlns="http://www.w3.org/2000/svg">
<g id="#ffffffff">
</g>
<g id="#030e21ff">
<path fill="#030e21" opacity="1.00" d=" M 116.25 37.01 C 145.28 20.20 178.48 10.69 212.01 9.49 C 265.55 7.15 319.71 26.52 359.43 62.55 C 377.13 78.39 392.06 97.35 403.31 118.28 C 397.36 118.26 391.41 118.20 385.46 118.26 C 367.97 88.80 342.45 64.16 312.36 47.76 C 283.89 32.19 251.41 23.97 218.95 24.23 C 181.09 24.29 143.32 35.95 112.06 57.32 C 93.07 70.13 76.57 86.52 63.17 105.07 C 44.09 131.69 32.08 163.31 28.70 195.89 C 25.15 229.19 30.38 263.44 44.02 294.05 C 57.60 324.75 79.52 351.60 106.57 371.44 C 129.94 388.55 157.24 400.28 185.77 405.33 C 217.61 411.06 250.90 408.74 281.56 398.36 C 292.42 394.93 302.60 389.75 312.84 384.85 C 313.12 391.08 313.67 397.31 313.73 403.55 C 294.19 412.79 273.49 419.74 252.06 422.88 C 220.73 427.64 188.29 425.42 158.03 415.92 C 123.93 405.34 92.70 385.72 68.24 359.73 C 44.76 334.79 27.41 304.05 18.68 270.90 C 11.16 242.96 9.78 213.43 14.20 184.85 C 20.10 146.97 36.90 110.91 61.95 81.91 C 77.40 64.09 95.72 48.68 116.25 37.01 Z"/>
<path fill="#030e21" opacity="1.00" d=" M 511.49 156.87 C 515.39 157.60 519.38 157.64 523.32 158.08 C 525.83 174.32 528.63 190.51 531.28 206.72 C 526.42 208.14 521.74 210.42 516.64 210.81 C 511.89 198.59 501.08 189.78 489.12 185.07 C 478.35 180.88 466.58 178.55 455.03 179.96 C 449.83 180.35 444.52 180.75 439.66 182.79 C 435.48 184.68 431.89 188.49 431.19 193.15 C 430.03 200.04 430.09 207.04 429.78 214.00 C 429.74 223.16 429.53 232.36 430.74 241.46 C 431.59 246.34 433.78 252.14 439.12 253.52 C 463.55 259.21 489.47 254.48 511.96 244.01 C 515.78 242.37 519.20 239.89 523.14 238.51 C 523.99 239.01 524.84 239.51 525.69 240.02 C 527.65 247.45 529.81 254.84 531.67 262.30 C 509.08 269.68 485.66 274.79 461.90 276.22 C 439.10 277.76 415.81 275.93 394.08 268.56 C 379.97 263.51 366.25 256.19 356.06 245.01 C 343.72 231.89 342.23 210.30 352.18 195.39 C 358.77 185.24 368.71 177.67 379.49 172.39 C 402.45 160.62 428.84 157.71 454.32 158.61 C 470.74 159.18 487.04 161.46 503.22 164.18 C 507.77 165.28 510.17 160.35 511.49 156.87 M 388.80 196.58 C 383.38 203.74 381.71 213.55 384.58 222.08 C 387.60 231.13 394.38 238.81 402.80 243.23 C 404.27 244.42 408.12 243.55 406.11 241.24 C 400.52 235.59 397.37 227.90 397.06 219.98 C 396.97 211.94 396.24 203.43 399.81 195.95 C 401.53 192.04 404.42 188.85 407.24 185.70 C 406.35 185.07 405.37 183.45 404.11 184.40 C 397.84 186.64 392.87 191.47 388.80 196.58 Z"/>
<path fill="#030e21" opacity="1.00" d=" M 131.06 163.29 C 190.31 163.22 249.56 163.21 308.82 163.30 C 312.18 177.60 315.62 191.89 319.52 206.05 C 315.65 207.42 311.99 209.36 308.06 210.57 C 306.15 211.55 304.42 210.00 303.53 208.44 C 300.61 203.77 298.08 198.75 294.04 194.90 C 285.24 185.25 271.25 179.11 258.28 183.23 C 258.27 206.05 258.11 228.88 258.36 251.70 C 262.72 255.33 268.58 256.13 273.70 258.23 C 274.92 258.72 276.68 259.41 276.46 261.07 C 276.62 265.36 276.42 269.65 276.51 273.94 C 238.74 274.08 200.97 274.05 163.21 273.95 C 163.29 269.25 163.23 264.54 163.29 259.84 C 168.46 256.25 175.22 255.98 180.48 252.48 C 181.90 251.04 181.72 248.88 181.77 247.03 C 181.72 225.77 181.80 204.51 181.73 183.25 C 168.22 178.77 153.71 185.65 144.81 195.87 C 141.48 199.34 139.10 203.54 136.73 207.68 C 135.77 209.22 134.37 211.38 132.21 210.60 C 128.20 209.26 124.36 207.45 120.40 205.97 C 124.25 191.82 127.59 177.53 131.06 163.29 M 215.62 188.68 C 213.56 191.37 214.39 194.85 214.25 197.99 C 214.41 214.29 213.94 230.61 214.48 246.91 C 217.82 245.68 221.10 244.31 224.41 243.01 C 225.62 239.80 225.21 236.34 225.25 232.99 C 225.25 217.05 225.21 201.10 225.33 185.16 C 222.05 186.23 218.90 187.63 215.62 188.68 Z"/>
<path fill="#030e21" opacity="1.00" d=" M 574.07 163.49 C 604.96 163.45 635.86 163.55 666.75 163.44 C 676.70 173.81 686.31 184.50 696.11 195.01 C 696.82 196.34 697.90 195.40 698.53 194.52 C 707.42 184.17 716.35 173.86 725.18 163.46 C 753.78 163.52 782.37 163.46 810.97 163.49 C 813.40 163.48 815.84 163.63 818.28 163.80 C 818.16 167.87 818.31 171.95 818.23 176.02 C 818.46 177.58 817.33 179.08 815.85 179.45 C 811.33 180.93 806.75 182.29 802.44 184.32 C 801.37 184.90 799.99 185.62 800.10 187.04 C 799.44 206.68 799.90 226.34 799.73 245.99 C 799.77 248.21 799.52 250.57 800.50 252.65 C 805.83 256.26 812.62 256.75 818.10 260.09 C 818.34 264.89 818.19 269.69 818.27 274.50 C 781.26 274.51 744.26 274.54 707.25 274.48 C 707.32 269.54 707.04 264.58 707.52 259.66 C 712.96 257.10 719.05 256.08 724.26 253.00 C 725.34 252.42 725.61 251.13 725.64 250.01 C 725.31 232.73 725.58 215.44 725.49 198.16 C 724.36 198.21 723.30 198.51 722.74 199.57 C 705.07 220.48 687.20 241.22 669.54 262.14 C 655.84 246.25 642.15 230.34 628.47 214.43 C 623.90 209.40 619.89 203.81 614.84 199.25 C 614.29 201.11 614.20 203.05 614.23 204.97 C 614.29 219.65 614.22 234.34 614.26 249.02 C 614.11 250.61 614.99 251.95 615.76 253.26 C 621.22 255.66 626.99 257.27 632.48 259.60 C 632.93 264.56 632.74 269.54 632.72 274.50 C 613.16 274.11 593.59 274.26 574.02 274.31 C 574.02 269.49 573.81 264.66 574.21 259.85 C 579.54 256.92 585.71 255.96 591.06 253.07 C 592.49 252.32 592.35 250.43 592.49 249.05 C 592.53 229.04 592.48 209.02 592.51 189.00 C 592.52 187.33 592.36 185.22 590.56 184.49 C 586.08 182.21 581.17 180.94 576.48 179.20 C 575.27 178.65 573.96 177.58 574.04 176.11 C 573.88 171.91 574.00 167.69 574.07 163.49 M 638.61 181.58 C 638.45 182.09 638.12 183.10 637.96 183.60 C 646.62 192.69 655.05 201.97 663.71 211.05 C 666.82 214.26 669.57 217.84 673.08 220.64 C 675.50 218.43 677.95 216.09 679.29 213.03 C 669.42 202.49 659.69 191.82 649.58 181.51 C 645.92 181.48 642.26 181.45 638.61 181.58 M 760.53 187.77 C 758.91 188.48 758.70 190.48 758.75 192.02 C 758.75 209.92 758.75 227.82 758.76 245.72 C 762.01 244.99 765.10 243.66 768.14 242.29 C 769.99 241.26 769.65 238.78 769.76 237.01 C 769.64 219.40 769.92 201.80 769.62 184.20 C 766.59 185.39 763.51 186.46 760.53 187.77 Z"/>
<path fill="#030e21" opacity="1.00" d=" M 439.51 306.31 C 443.43 306.11 447.82 308.63 448.01 312.89 C 448.75 317.02 445.20 321.28 440.96 321.05 C 436.68 321.45 432.84 317.23 433.46 313.02 C 433.52 309.56 436.54 307.35 439.51 306.31 Z"/>
<path fill="#030e21" opacity="1.00" d=" M 617.51 306.16 C 619.97 305.09 623.04 306.17 624.30 308.54 C 625.12 310.27 624.58 312.18 624.17 313.94 C 617.80 317.33 610.61 318.68 603.88 321.15 C 599.56 322.20 595.22 325.07 590.70 323.33 C 588.55 320.84 588.03 316.36 591.46 314.73 C 600.06 311.65 608.84 309.07 617.51 306.16 Z"/>
<path fill="#030e21" opacity="1.00" d=" M 375.57 337.77 C 389.54 335.59 405.50 340.25 413.72 352.34 C 416.22 355.36 414.14 360.80 409.99 360.74 C 406.33 361.55 404.45 357.94 402.21 355.83 C 391.50 344.03 370.63 345.52 360.69 357.58 C 350.15 369.85 351.23 390.57 363.67 401.16 C 374.20 410.35 392.29 410.76 402.00 400.12 C 404.24 398.34 405.68 394.82 408.99 394.98 C 411.42 394.88 414.52 396.28 414.67 399.03 C 415.39 402.71 412.16 405.49 409.95 407.96 C 394.28 423.23 365.96 421.71 351.67 405.26 C 337.49 389.72 338.29 362.96 353.63 348.48 C 359.53 342.67 367.38 338.94 375.57 337.77 Z"/>
<path fill="#030e21" opacity="1.00" d=" M 484.99 350.66 C 489.90 343.27 498.32 338.64 507.06 337.66 C 517.70 336.08 529.48 338.91 536.93 347.00 C 543.49 353.91 546.19 363.64 546.24 373.00 C 546.27 385.33 546.20 397.67 546.27 410.01 C 546.30 412.47 546.00 415.42 543.65 416.81 C 540.25 419.24 534.63 417.19 534.36 412.79 C 534.07 398.89 534.41 384.96 534.19 371.06 C 533.99 363.77 531.11 355.95 524.69 351.94 C 513.93 345.46 498.12 347.49 490.54 357.93 C 486.69 363.12 485.07 369.63 485.02 376.02 C 484.99 387.68 485.01 399.34 485.02 411.00 C 485.17 412.83 484.48 414.53 483.83 416.20 C 481.51 417.50 478.62 418.58 476.12 417.07 C 473.84 416.03 473.07 413.37 473.22 411.06 C 473.30 388.38 473.19 365.69 473.27 343.01 C 473.55 337.92 480.99 336.20 483.88 340.10 C 485.91 343.24 484.73 347.16 484.99 350.66 Z"/>
<path fill="#030e21" opacity="1.00" d=" M 580.75 346.80 C 594.08 334.91 615.89 333.89 629.89 345.17 C 639.58 352.94 644.36 365.66 643.92 377.87 C 643.54 380.21 641.47 382.15 639.04 381.99 C 619.01 382.03 598.98 382.03 578.95 381.98 C 579.64 390.78 584.30 399.38 591.96 403.97 C 603.07 410.66 618.95 409.59 628.19 400.14 C 629.72 398.71 630.94 396.94 632.68 395.73 C 635.16 393.94 639.16 395.16 640.12 398.10 C 641.47 401.13 639.17 404.08 637.19 406.18 C 621.72 423.02 591.49 422.71 576.66 405.17 C 562.41 388.75 563.90 360.88 580.75 346.80 M 588.41 354.45 C 583.37 358.95 580.40 365.32 579.36 371.92 C 597.21 372.05 615.07 372.02 632.93 371.94 C 631.75 364.09 627.93 356.34 621.22 351.84 C 611.40 345.16 597.00 346.19 588.41 354.45 Z"/>
<path fill="#030e21" opacity="1.00" d=" M 753.44 338.61 C 764.05 335.97 776.26 336.90 785.12 343.84 C 793.68 350.42 797.61 361.44 797.73 371.98 C 797.80 384.99 797.74 398.00 797.76 411.01 C 797.75 412.97 797.37 415.32 795.62 416.50 C 792.72 419.00 787.13 417.73 786.11 413.87 C 785.48 411.30 785.78 408.62 785.73 406.00 C 785.73 394.34 785.77 382.68 785.73 371.02 C 785.60 363.36 782.30 355.34 775.46 351.34 C 768.79 347.85 760.66 347.37 753.54 349.76 C 742.93 353.53 737.15 365.15 737.74 375.97 C 737.74 387.66 737.76 399.35 737.74 411.04 C 737.76 413.04 737.40 415.26 735.65 416.51 C 732.07 419.66 725.55 416.90 725.79 412.00 C 725.68 398.66 725.82 385.31 725.73 371.97 C 725.63 364.59 723.14 356.50 716.75 352.19 C 709.54 347.52 699.95 347.10 692.10 350.37 C 683.27 354.09 678.01 363.70 677.77 373.03 C 677.68 385.98 677.87 398.93 677.70 411.88 C 677.88 415.16 674.98 416.86 672.68 418.54 C 669.49 417.70 665.41 416.01 665.79 411.98 C 665.70 389.33 665.76 366.67 665.76 344.01 C 665.37 339.48 670.82 336.35 674.64 338.69 C 678.77 340.81 677.52 346.17 677.76 349.97 C 687.49 336.54 707.49 333.71 721.59 341.48 C 726.76 344.34 730.83 348.85 733.81 353.90 C 738.10 346.54 745.13 340.75 753.44 338.61 Z"/>
<path fill="#030e21" opacity="1.00" d=" M 825.02 343.09 C 836.05 337.56 848.89 336.22 861.01 337.99 C 870.79 339.34 880.40 345.09 884.53 354.32 C 887.92 361.36 887.93 369.34 887.75 376.98 C 887.75 388.35 887.76 399.72 887.76 411.09 C 887.88 412.93 887.18 414.65 886.51 416.32 C 883.82 417.89 879.98 418.65 877.56 416.22 C 875.69 414.60 876.02 412.02 875.96 409.83 C 869.77 415.55 861.30 418.22 852.99 418.47 C 843.66 418.81 833.60 417.06 826.40 410.68 C 819.71 405.01 817.48 394.91 820.89 386.87 C 823.54 380.47 829.47 375.98 835.86 373.71 C 849.05 369.16 864.95 370.05 876.00 379.23 C 875.90 370.81 876.77 361.18 870.84 354.34 C 865.40 348.34 856.63 347.29 848.97 347.66 C 842.24 347.83 835.76 349.83 829.54 352.27 C 826.94 353.37 822.69 352.34 822.30 349.13 C 821.67 346.75 822.83 344.19 825.02 343.09 M 843.38 381.62 C 837.99 382.95 832.60 386.64 831.53 392.42 C 830.05 398.29 833.77 404.31 839.09 406.72 C 847.72 410.65 858.00 410.09 866.63 406.45 C 871.13 404.34 875.99 400.49 875.83 395.01 C 875.90 389.85 871.78 385.77 867.43 383.63 C 860.04 380.04 851.27 379.40 843.38 381.62 Z"/>
<path fill="#030e21" opacity="1.00" d=" M 438.51 338.38 C 440.86 337.23 443.31 338.46 445.41 339.55 C 446.04 341.29 446.91 343.04 446.77 344.96 C 446.71 367.30 446.79 389.64 446.73 411.98 C 446.79 414.77 444.74 417.35 441.92 417.69 C 438.38 418.54 434.60 415.65 434.76 411.94 C 434.72 389.62 434.78 367.29 434.73 344.96 C 434.59 342.28 435.64 339.13 438.51 338.38 Z"/>
</g>
</svg>