<?xml version="1.0" encoding="UTF-8" standalone="no"?>
<!-- Created with Inkscape (http://www.inkscape.org/) -->
<svg xmlns:svg="http://www.w3.org/2000/svg" xmlns="http://www.w3.org/2000/svg" version="1.0" width="744.09448" height="328.46457" id="svg5715">
  <defs id="defs5717"/>
  <g transform="translate(-10.463263,-355.42346)" id="layer1">
    <g transform="translate(17.716553,17.633101)" id="g5733">
      <path d="M 263.0615,427.15228 L 398.40399,427.15228 C 425.88261,428.65607 466.07524,420.04333 466.07524,488.94502 L 466.07524,583.41135 L 349.32528,583.41135 C 301.34016,582.31764 263.19823,598.03922 263.33495,515.7401 C 263.47168,451.89668 263.0615,427.15228 263.0615,427.15228 z M 191.9725,355.51649 L 422.19151,355.51649 C 422.19151,355.51649 537.02751,347.86073 537.02751,471.44619 L 537.02751,648.62183 L 338.66195,648.62183 C 307.35541,644.11037 191.56243,671.58899 192.51941,521.75535 C 193.06621,401.99771 191.9725,355.51649 191.9725,355.51649" style="fill:#e7eee4;fill-rule:evenodd;stroke:none" id="path5553"/>
      <path d="M 68.400713,544.7225 L 34.961543,544.7225 C 21.427383,544.7225 10.463263,533.78572 10.463263,520.11473 L 10.463263,474.59049 L 23.983863,474.59049 L 23.983863,504.1198 L 60.799763,504.1198 L 60.799763,513.14261 L 23.983863,513.14261 L 23.983863,519.70465 C 23.983863,527.90721 30.573253,534.46925 38.693773,534.46925 L 68.400713,534.46925 L 68.400713,544.7225" style="fill:#288340;fill-rule:nonzero;stroke:none" id="path5555"/>
      <path d="M 186.09398,475.13729 C 186.09398,475.13729 218.22079,475.13729 218.49424,475.13729 L 218.49424,485.80072 L 189.10166,485.80072 C 180.89911,485.80072 175.29394,491.40578 175.29394,499.60834 L 175.29394,545.13268 L 161.62305,545.13268 L 161.62305,498.65135 C 161.62305,485.11708 172.55982,475.13729 186.09398,475.13729" style="fill:#288340;fill-rule:nonzero;stroke:none" id="path5557"/>
      <path d="M 248.57035,475.13729 C 248.57035,475.13729 280.56032,475.13729 280.9705,475.13729 L 280.9705,485.80072 L 251.44119,485.80072 C 243.37536,485.80072 237.7703,491.40578 237.7703,499.60834 L 237.7703,545.13268 L 223.96258,545.13268 L 223.96258,498.65135 C 223.96258,485.11708 235.03608,475.13729 248.57035,475.13729" style="fill:#288340;fill-rule:nonzero;stroke:none" id="path5559"/>
      <path d="M 386.78369,474.72722 L 423.55857,474.72722 C 435.99913,474.72722 446.11565,484.84374 446.11565,497.2843 L 446.11565,544.58577 L 432.44465,544.58577 L 432.44465,501.65903 C 432.44465,493.45637 425.74599,486.89432 417.68005,486.89432 L 391.43187,486.89432 C 383.22921,486.89432 376.66717,493.45637 376.66717,501.65903 L 376.66717,544.58577 L 364.2266,544.58577 L 364.2266,497.2843 C 364.2266,484.84374 374.2064,474.72722 386.78369,474.72722" style="fill:#99d31f;fill-rule:nonzero;stroke:none" id="path5561"/>
      <path d="M 540.99217,475.27402 L 556.85048,475.27402 L 591.84812,532.69201 L 625.88874,475.27402 L 640.92684,475.27402 L 601.00766,544.99596 L 582.14167,544.99596 L 540.99217,475.27402" style="fill:#99d31f;fill-rule:nonzero;stroke:none" id="path5563"/>
      <path d="M 719.12464,544.99596 L 703.12964,544.99596 L 668.13204,487.71458 L 634.09134,544.99596 L 619.05324,544.99596 L 658.97244,475.27402 L 677.97504,475.27402 L 719.12464,544.99596" style="fill:#99d31f;fill-rule:nonzero;stroke:none" id="path5565"/>
      <path d="M 100.24039,485.25381 L 126.21522,485.25381 C 132.64054,485.25381 138.10898,490.58553 138.10898,497.01084 L 138.10898,504.25642 L 88.428663,504.25642 L 88.428663,497.01084 C 88.428663,490.58553 93.692023,485.25381 100.24039,485.25381 z M 101.47083,534.46925 C 112.4076,534.74271 131.27348,534.60598 133.59752,534.46925 L 133.59752,544.7225 L 99.556863,544.7225 C 86.104633,544.7225 75.454983,534.05918 75.454983,520.52491 L 75.454983,497.96783 C 75.454983,484.43356 86.104633,474.59049 99.556863,474.59049 L 126.35195,474.59049 C 139.88622,474.59049 150.95972,485.52727 150.95972,499.06154 L 150.95972,513.14261 L 88.373973,513.14261 L 88.373973,522.16542 C 88.373973,522.16542 89.768483,534.33253 101.47083,534.46925" style="fill:#288340;fill-rule:evenodd;stroke:none" id="path5567"/>
      <path d="M 338.52523,513.14261 L 303.66431,513.14261 C 300.24656,513.14261 289.71986,516.01345 289.71986,525.44644 L 289.71986,534.60598 L 317.74538,534.60598 C 330.18594,535.01616 338.52523,534.74271 338.3885,523.53248 C 338.3885,514.64639 338.52523,513.14261 338.52523,513.14261 z M 293.27434,474.45376 L 308.17566,474.45376 L 327.86191,474.59049 C 337.56824,474.59049 350.96579,483.20323 350.96579,494.55008 L 350.96579,527.08695 C 350.96579,536.7934 343.99356,544.7225 334.28722,544.7225 L 331.553,544.7225 C 330.04922,544.99596 328.68216,545.13268 327.17838,545.13268 L 277.55275,545.13268 C 277.14257,545.13268 276.7325,545.13268 276.45904,544.99596 L 276.45904,526.40342 C 277.00595,520.66164 278.78308,515.46665 281.92748,511.22864 C 281.92748,511.22864 286.30211,504.94005 297.7858,504.1198 L 321.98339,504.1198 L 326.22139,503.98307 C 326.22139,503.98307 336.20119,503.98307 338.11504,503.98307 C 338.25177,499.19826 338.25177,502.88936 338.25177,494.82353 C 338.11504,487.44123 329.77576,485.66399 326.35812,485.52727 C 325.53787,485.66399 293.27434,485.52727 293.27434,485.52727 L 293.27434,474.45376" style="fill:#288340;fill-rule:evenodd;stroke:none" id="path5569"/>
      <path d="M 471.40695,487.98803 L 509.54889,487.98803 C 517.20465,488.39811 528.5515,485.93734 528.5515,505.48685 L 528.5515,532.41867 L 495.74128,532.41867 C 482.207,532.14521 471.40695,536.51995 471.54368,513.14261 C 471.54368,494.96026 471.40695,487.98803 471.40695,487.98803 z M 458.14614,474.45376 L 515.15395,474.45376 C 515.15395,474.45376 541.53897,471.58292 541.53897,502.20583 L 541.53897,544.7225 L 493.55385,544.7225 C 486.03483,543.62879 458.00941,551.69473 458.28287,515.7401 C 458.41948,486.89432 458.14614,474.45376 458.14614,474.45376" style="fill:#99d31f;fill-rule:evenodd;stroke:none" id="path5571"/>
    </g>
  </g>
</svg>