<?xml version="1.0" encoding="UTF-8" standalone="no"?>
<!-- Created with Inkscape (http://www.inkscape.org/) -->
<svg xmlns:dc="http://purl.org/dc/elements/1.1/" xmlns:cc="http://creativecommons.org/ns#" xmlns:rdf="http://www.w3.org/1999/02/22-rdf-syntax-ns#" xmlns:svg="http://www.w3.org/2000/svg" xmlns="http://www.w3.org/2000/svg" xmlns:sodipodi="http://sodipodi.sourceforge.net/DTD/sodipodi-0.dtd" xmlns:inkscape="http://www.inkscape.org/namespaces/inkscape" id="svg2" version="1.1" inkscape:version="0.47 r22583" width="220" height="98.236404" sodipodi:docname="Tntsat_logo.jpg" style="display:inline">
  <metadata id="metadata8">
    <rdf:RDF>
      <cc:Work rdf:about="">
        <dc:format>image/svg+xml</dc:format>
        <dc:type rdf:resource="http://purl.org/dc/dcmitype/StillImage"/>
        <dc:title/>
      </cc:Work>
    </rdf:RDF>
  </metadata>
  <defs id="defs6">
    <inkscape:perspective sodipodi:type="inkscape:persp3d" inkscape:vp_x="0 : 0.5 : 1" inkscape:vp_y="0 : 1000 : 0" inkscape:vp_z="1 : 0.5 : 1" inkscape:persp3d-origin="0.5 : 0.33333333 : 1" id="perspective10"/>
    <inkscape:perspective id="perspective2831" inkscape:persp3d-origin="0.5 : 0.33333333 : 1" inkscape:vp_z="1 : 0.5 : 1" inkscape:vp_y="0 : 1000 : 0" inkscape:vp_x="0 : 0.5 : 1" sodipodi:type="inkscape:persp3d"/>
  </defs>
  <sodipodi:namedview pagecolor="#ffffff" bordercolor="#666666" borderopacity="1" objecttolerance="10" gridtolerance="10" guidetolerance="10" inkscape:pageopacity="0" inkscape:pageshadow="2" inkscape:window-width="1680" inkscape:window-height="976" id="namedview4" showgrid="false" inkscape:zoom="1" inkscape:cx="139.54696" inkscape:cy="78.11914" inkscape:window-x="0" inkscape:window-y="25" inkscape:window-maximized="1" inkscape:current-layer="layer1"/>
  <g inkscape:groupmode="layer" id="layer1" inkscape:label="Calque" style="display:inline" transform="translate(-0.30932236,24.617758)">
    <rect style="fill:#000000;fill-opacity:1;fill-rule:nonzero;stroke:none" id="rect2849" width="220" height="98.236404" x="0.30932236" y="-24.617758"/>
    <rect style="fill:#cc0001;fill-opacity:1;fill-rule:nonzero;stroke:none" id="rect2819" width="40.037525" height="20.225142" x="180.27179" y="35.644909"/>
    <rect style="fill:#329803;fill-opacity:1;fill-rule:nonzero;stroke:none" id="rect2821" width="20.225142" height="17.748592" x="59.952988" y="55.870052"/>
    <rect style="fill:#999999;fill-opacity:1;fill-rule:nonzero;stroke:none" id="rect2821-2" width="20.225142" height="20.225142" x="39.727844" y="35.640228"/>
    <g transform="scale(0.93475398,1.0698002)" style="font-size:45.36945343px;font-style:normal;font-variant:normal;font-weight:bold;font-stretch:normal;fill:#ffffff;fill-opacity:1;stroke:none;font-family:Arial Black;-inkscape-font-specification:'Arial Black, Bold'" id="text2845">
      <path d="m 15.651182,-11.889457 30.504754,0 0,8.0194058 -10.23471,0 0,24.4569712 -10.035334,0 0,-24.4569712 -10.23471,0 0,-8.0194058" id="path2866"/>
      <path d="m 50.785923,-11.889457 9.370742,0 12.228486,17.9661268 0,-17.9661268 9.459353,0 0,32.476377 -9.459353,0 -12.162027,-17.8332082 0,17.8332082 -9.437201,0 0,-32.476377" id="path2868"/>
      <path d="m 86.275114,-11.889457 30.504756,0 0,8.0194058 -10.23471,0 0,24.4569712 -10.035336,0 0,-24.4569712 -10.23471,0 0,-8.0194058" id="path2870"/>
      <path d="m 134.746,9.8426889 9.54796,-0.5981325 c 0.20675,1.5507236 0.62766,2.7322186 1.26273,3.5444886 1.03379,1.314421 2.51066,1.971628 4.43061,1.971622 1.43254,6e-6 2.53281,-0.33229 3.3008,-0.996888 0.78272,-0.679352 1.17409,-1.462093 1.17411,-2.348223 -2e-5,-0.841806 -0.36924,-1.5950094 -1.10765,-2.2596118 -0.73845,-0.6645795 -2.45162,-1.2922487 -5.13951,-1.8830095 -4.40108,-0.9894888 -7.53943,-2.303902 -9.41505,-3.9432435 -1.89039,-1.6393071 -2.83559,-3.72907638 -2.83559,-6.2693142 0,-1.6688381 0.47998,-3.2417033 1.43995,-4.7186003 0.97473,-1.4916092 2.42945,-2.6583357 4.36415,-3.5001827 1.94946,-0.856552 4.61521,-1.284844 7.99726,-1.284877 4.14998,3.3e-5 7.31048,0.775389 9.4815,2.326071 2.18574,1.5359739 3.48539,3.9875761 3.89894,7.3548135 l -9.45935,0.5538263 c -0.25109,-1.4620773 -0.78276,-2.5254228 -1.59502,-3.1900397 -0.79753,-0.6645649 -1.90518,-0.9968604 -3.32296,-0.9968874 -1.16674,2.7e-5 -2.04548,0.2510947 -2.63621,0.7532038 -0.59077,0.4873929 -0.88614,1.0855248 -0.88613,1.7943973 -1e-5,0.5169285 0.24367,0.9821422 0.73105,1.3956424 0.47259,0.428315 1.59501,0.8270696 3.36727,1.1962649 4.38628,0.94521784 7.52463,1.90518253 9.41505,2.8798969 1.90513,0.9599837 3.286,2.1562474 4.14262,3.5887947 0.87132,1.4325781 1.307,3.0349807 1.30703,4.8072123 -3e-5,2.082396 -0.57601,4.002325 -1.72794,5.759794 -1.15199,1.757479 -2.76178,3.094045 -4.82937,4.009703 -2.06764,0.900891 -4.67431,1.351336 -7.82002,1.351336 -5.52351,0 -9.3486,-1.063346 -11.47529,-3.19004 -2.12669,-2.126688 -3.33034,-4.829358 -3.61094,-8.1080171" id="path2872"/>
      <path d="m 189.26466,15.225881 -11.43098,0 -1.57287,5.361039 -10.25686,0 12.20633,-32.476377 10.94361,0 12.20633,32.476377 -10.50054,0 -1.59502,-5.361039 m -2.10454,-7.0225181 -3.5888,-11.6746591 -3.56664,11.6746591 7.15544,0" id="path2874"/>
      <path d="m 199.16707,-11.889457 30.50475,0 0,8.0194058 -10.23471,0 0,24.4569712 -10.03533,0 0,-24.4569712 -10.23471,0 0,-8.0194058" id="path2876"/>
    </g>
  </g>
</svg>