<?xml version="1.0" encoding="UTF-8" standalone="no"?>
<!-- Created with Inkscape (http://www.inkscape.org/) -->

<svg
   xmlns:dc="http://purl.org/dc/elements/1.1/"
   xmlns:cc="http://creativecommons.org/ns#"
   xmlns:rdf="http://www.w3.org/1999/02/22-rdf-syntax-ns#"
   xmlns:svg="http://www.w3.org/2000/svg"
   xmlns="http://www.w3.org/2000/svg"
   xmlns:sodipodi="http://sodipodi.sourceforge.net/DTD/sodipodi-0.dtd"
   xmlns:inkscape="http://www.inkscape.org/namespaces/inkscape"
   width="447"
   height="106"
   id="svg2"
   version="1.1"
   inkscape:version="0.48.0 r9654"
   sodipodi:docname="Toute l'Histoire Logo.svg">
  <metadata
     id="metadata24">
    <rdf:RDF>
      <cc:Work
         rdf:about="">
        <dc:format>image/svg+xml</dc:format>
        <dc:type
           rdf:resource="http://purl.org/dc/dcmitype/StillImage" />
      </cc:Work>
    </rdf:RDF>
  </metadata>
  <defs
     id="defs22" />
  <sodipodi:namedview
     pagecolor="#ffffff"
     bordercolor="#666666"
     borderopacity="1"
     objecttolerance="10"
     gridtolerance="10"
     guidetolerance="10"
     inkscape:pageopacity="0"
     inkscape:pageshadow="2"
     inkscape:window-width="1148"
     inkscape:window-height="662"
     id="namedview20"
     showgrid="false"
     inkscape:zoom="1.0738255"
     inkscape:cx="223.5"
     inkscape:cy="53"
     inkscape:window-x="0"
     inkscape:window-y="0"
     inkscape:window-maximized="0"
     inkscape:current-layer="layer1" />
  <g
     inkscape:label="Layer 1"
     inkscape:groupmode="layer"
     id="layer1"
     transform="translate(-39.039807,-681.79851)">
    <path
       id="path11429"
       d="m 39.039807,681.79851 205.882283,0 0,106 -205.882283,0 z"
       style="fill:#731911;fill-rule:nonzero;stroke:none;fill-opacity:1" />
    <path
       id="path11431"
       d="m 49.296569,733.50632 15.385143,0 0,37.45333 23.844952,0 0,12.25562 -39.230095,0 0,-49.70895"
       style="fill:#ffffff;fill-rule:nonzero;stroke:none" />
    <path
       id="path11433"
       d="m 95.310664,741.64308 0,-8.13676 6.945526,0 0,8.13676 -1.53448,9.50971 -3.735237,0 -1.675809,-9.50971"
       style="fill:#ffffff;fill-rule:nonzero;stroke:none" />
    <path
       id="path11435"
       d="m 112.31104,733.50632 15.36496,0 0,17.36381 16.75809,0 0,-17.36381 15.36495,0 0,49.70895 -15.36495,0 0,-20.08953 -16.75809,0 0,20.08953 -15.36496,0 0,-49.70895"
       style="fill:#ffffff;fill-rule:nonzero;stroke:none" />
    <path
       id="path11437"
       d="m 170.64133,733.50632 15.38514,0 0,49.70895 -15.38514,0 z"
       style="fill:#ffffff;fill-rule:nonzero;stroke:none" />
    <path
       id="path11439"
       d="m 196.1419,766.76003 14.6381,-0.92876 c 0.32304,2.38247 0.96914,4.19962 1.93828,5.45143 1.59505,2.01904 3.85638,3.02857 6.784,3.02857 2.20076,0 3.89676,-0.52495 5.088,-1.55467 1.19124,-1.02971 1.77676,-2.22095 1.77676,-3.57371 0,-1.29219 -0.56533,-2.44305 -1.71619,-3.47277 -1.15085,-1.00952 -3.77562,-1.97866 -7.89447,-2.86704 -6.72343,-1.53448 -11.52877,-3.53334 -14.39581,-6.03695 -2.88724,-2.52381 -4.34095,-5.71391 -4.34095,-9.59048 0,-2.56419 0.74704,-4.96686 2.22095,-7.24838 1.4739,-2.26134 3.69485,-4.0381 6.66285,-5.35048 2.968,-1.29219 7.02629,-1.93828 12.21524,-1.93828 6.31962,0 11.16534,1.17104 14.49676,3.53333 3.33143,2.36229 5.3101,6.1379 5.936,11.28648 l -14.43619,0.86819 c -0.38362,-2.26134 -1.19123,-3.91696 -2.42285,-4.94667 -1.21143,-1.02971 -2.90743,-1.53448 -5.06781,-1.53448 -1.77676,0 -3.12953,0.36343 -4.01791,1.13067 -0.90857,0.76724 -1.35276,1.67581 -1.35276,2.7661 0,0.78742 0.36343,1.51428 1.09029,2.14019 0.72685,0.66628 2.42285,1.272 5.14857,1.83733 6.70324,1.45371 11.50857,2.90743 14.416,4.40152 2.90743,1.47391 5.00724,3.31124 6.33981,5.49181 1.31238,2.20076 1.97866,4.64381 1.97866,7.36953 0,3.1699 -0.88838,6.11771 -2.64495,8.82323 -1.75657,2.68534 -4.21981,4.72458 -7.38971,6.11772 -3.16991,1.37295 -7.14743,2.07962 -11.97296,2.07962 -8.4598,0 -14.29485,-1.63543 -17.56571,-4.8861 -3.25067,-3.25066 -5.088,-7.38971 -5.512,-12.39695"
       style="fill:#ffffff;fill-rule:nonzero;stroke:none" />
    <path
       id="path11441"
       d="m 247.14304,733.50632 46.76115,0 0,12.23542 -15.688,0 0,37.47353 -15.36496,0 0,-37.47353 -15.70819,0 0,-12.23542"
       style="fill:#731911;fill-rule:nonzero;stroke:none;fill-opacity:1" />
    <path
       id="path11443"
       d="m 316.37619,747.57908 c 1.87771,-2.20076 4.36114,-3.29105 7.45028,-3.29105 3.21029,0 5.75429,1.0701 7.65219,3.23048 1.87772,2.16038 2.80648,5.57257 2.80648,10.23657 0,5.55238 -0.88838,9.40876 -2.70553,11.56914 -1.79695,2.14019 -4.34095,3.21029 -7.632,3.21029 -3.19009,0 -5.73409,-1.09029 -7.59162,-3.29105 -1.85752,-2.18057 -2.78628,-5.79467 -2.78628,-10.80191 0,-5.06781 0.94895,-8.6819 2.80648,-10.86247 z m -14.75924,25.31885 c 2.28152,3.85639 5.26971,6.68305 8.92419,8.45981 3.67466,1.79696 8.31847,2.68534 13.91124,2.68534 5.512,0 10.11542,-1.02972 13.81028,-3.10934 3.69486,-2.05942 6.52153,-4.94666 8.48,-8.6819 1.95848,-3.69486 2.92762,-8.45981 2.92762,-14.27467 0,-7.99543 -2.24114,-14.21409 -6.70324,-18.63581 -4.48228,-4.4419 -10.84228,-6.66285 -19.12038,-6.66285 -8.056,0 -14.35543,2.26133 -18.87809,6.76381 -4.50248,4.52266 -6.76381,10.84228 -6.76381,18.93866 0,5.81486 1.13066,10.66057 3.41219,14.51695"
       style="fill:#731911;fill-rule:nonzero;stroke:none;fill-opacity:1" />
    <path
       id="path11445"
       d="m 360.25009,733.50632 15.38514,0 0,49.70895 -15.38514,0 z"
       style="fill:#731911;fill-rule:nonzero;stroke:none;fill-opacity:1" />
    <path
       id="path11447"
       d="m 404.06342,743.56117 6.74362,0 c 2.80648,0 4.72457,0.424 5.7341,1.272 1.02971,0.848 1.53447,2.07962 1.53447,3.67467 0,1.07009 -0.32304,2.03924 -0.96914,2.86705 -0.6461,0.82781 -1.4739,1.33257 -2.48343,1.55466 -2.01905,0.44419 -3.37181,0.66629 -4.07847,0.66629 l -6.48115,0 0,-10.03467 z m 0,39.6541 0,-20.21067 1.35276,0 c 1.39315,0 2.66515,0.40381 3.75543,1.17105 0.82781,0.58552 1.75657,1.85752 2.78629,3.816 l 8.23771,15.22362 17.34362,0 -7.55124,-14.37562 c -0.36342,-0.72686 -1.07009,-1.75657 -2.14019,-3.10933 -1.07009,-1.35277 -1.87771,-2.22096 -2.44304,-2.64496 -0.82781,-0.60571 -2.16039,-1.23162 -3.97753,-1.83733 2.28153,-0.52495 4.09867,-1.17105 5.41105,-1.95848 2.05943,-1.25181 3.67467,-2.86704 4.84571,-4.8659 1.19124,-1.99886 1.77677,-4.38133 1.77677,-7.12724 0,-3.1699 -0.76724,-5.83505 -2.30172,-8.056 -1.53447,-2.18057 -3.55352,-3.69486 -6.05714,-4.50248 -2.50362,-0.8278 -6.13791,-1.23161 -10.86248,-1.23161 l -25.56114,0 0,49.70895 15.38514,0"
       style="fill:#731911;fill-rule:nonzero;stroke:none;fill-opacity:1" />
    <path
       id="path11449"
       d="m 444.08095,733.50632 41.20876,0 0,10.57981 -25.82362,0 0,7.93485 23.9459,0 0,10.15581 -23.9459,0 0,9.83276 26.57067,0 0,11.20572 -41.95581,0 0,-49.70895"
       style="fill:#731911;fill-rule:nonzero;stroke:none;fill-opacity:1" />
    <path
       id="path11451"
       d="m 58.846664,722.24003 c -0.565333,0.12114 -1.372952,0.30286 -2.463238,0.30286 -4.522667,0 -4.522667,-2.72572 -4.522667,-5.91581 l 0,-11.06438 -2.382476,0 0,-2.52381 2.382476,0 0,-4.78515 3.270857,-1.97866 0,6.76381 3.250667,0 0,2.52381 -3.250667,0 0,11.26628 c 0,1.55467 0,2.66515 1.817143,2.66515 0.545143,0 1.070095,-0.0808 1.433524,-0.14134 l 0.464381,2.88724"
       style="fill:#ffffff;fill-rule:nonzero;stroke:none" />
    <path
       id="path11453"
       d="m 63.813521,712.64955 c 0,-6.23885 3.634286,-7.36952 5.673524,-7.36952 2.947809,0 5.693714,2.14019 5.693714,7.26857 0,3.04876 -1.049905,7.49067 -5.693714,7.49067 -1.918095,0 -5.673524,-1.11048 -5.673524,-7.38972 z m -3.331428,0 c 0,1.45372 0.100952,4.58324 1.877714,6.80419 1.817143,2.26134 4.542857,3.27086 7.127238,3.27086 2.56419,0 5.289905,-1.0499 7.107047,-3.27086 0.888381,-1.07009 1.918096,-2.968 1.918096,-7.08685 0,-7.34934 -4.966858,-9.77219 -9.025143,-9.77219 -2.52381,0 -5.310095,0.96914 -7.046476,3.19009 -1.635429,2.07962 -1.958476,4.80534 -1.958476,6.86476"
       style="fill:#ffffff;fill-rule:nonzero;stroke:none" />
    <path
       id="path11455"
       d="m 94.967426,719.45374 -0.08076,0 c -2.09981,3.14972 -5.047619,3.27086 -6.036953,3.27086 -2.079619,0 -4.643809,-0.88838 -5.693714,-2.82667 -0.848,-1.59504 -0.888381,-3.19009 -0.888381,-4.94666 l 0,-11.91238 3.270857,0 0,10.66057 c 0,1.99886 0,2.82667 0.302857,3.816 0.444191,1.57486 2.039238,2.38247 3.674667,2.38247 1.817143,0 3.735238,-0.98933 4.441905,-2.56419 0.605714,-1.33257 0.686476,-2.62476 0.686476,-3.99771 l 0,-10.29714 3.250667,0 0,19.24152 -2.927619,0 0,-2.82667"
       style="fill:#ffffff;fill-rule:nonzero;stroke:none" />
    <path
       id="path11457"
       d="m 110.45352,722.24003 c -0.56533,0.12114 -1.37295,0.30286 -2.44305,0.30286 -4.54285,0 -4.54285,-2.72572 -4.54285,-5.91581 l 0,-11.06438 -2.38248,0 0,-2.52381 2.38248,0 0,-4.78515 3.27085,-1.97866 0,6.76381 3.27086,0 0,2.52381 -3.27086,0 0,11.26628 c 0,1.55467 0,2.66515 1.81715,2.66515 0.56533,0 1.07009,-0.0808 1.45371,-0.14134 l 0.44419,2.88724"
       style="fill:#ffffff;fill-rule:nonzero;stroke:none" />
    <path
       id="path11459"
       d="m 115.76362,710.81222 c 0.18171,-2.52381 1.85752,-5.53219 5.49181,-5.53219 2.34209,0 4.19961,1.43352 4.8659,3.06895 0.38362,0.92876 0.44419,1.73638 0.52495,2.46324 l -10.88266,0 z m 10.76152,5.26971 c -0.40381,1.11048 -1.41333,3.95734 -5.088,3.95734 -2.88724,0 -5.59276,-1.95848 -5.85524,-6.56191 l 14.39581,0 c 0.30286,-10.39809 -7.08686,-10.88266 -8.72228,-10.88266 -5.85524,0 -9.02515,4.34095 -9.02515,10.21638 0,5.936 3.23048,9.91352 9.20686,9.91352 4.76495,0 7.47048,-2.60457 8.43962,-6.23886 l -3.35162,-0.40381"
       style="fill:#ffffff;fill-rule:nonzero;stroke:none" />
  </g>
</svg>
