<?xml version="1.0" encoding="UTF-8" ?>
<!DOCTYPE svg PUBLIC "-//W3C//DTD SVG 1.1//EN" "http://www.w3.org/Graphics/SVG/1.1/DTD/svg11.dtd">
<svg width="613pt" height="290pt" viewBox="0 0 613 290" version="1.1" xmlns="http://www.w3.org/2000/svg">
<g id="#00994eff">
<path fill="#00994e" opacity="1.00" d=" M 0.00 0.00 L 613.00 0.00 L 613.00 233.00 C 557.38 232.99 501.77 233.02 446.16 232.98 C 445.09 217.75 444.52 202.49 443.66 187.25 C 350.58 192.04 257.51 196.98 164.43 201.86 C 164.77 212.25 165.52 222.62 165.95 233.00 C 110.63 233.00 55.32 233.00 0.00 233.00 L 0.00 0.00 M 384.03 74.06 C 377.13 79.49 373.88 88.38 373.70 96.97 C 373.58 108.00 373.71 119.03 373.65 130.05 C 373.55 133.10 373.48 136.28 372.27 139.12 C 371.09 142.19 366.24 142.39 364.71 139.54 C 363.22 136.61 363.18 133.24 363.06 130.03 C 363.04 109.02 363.06 88.02 363.05 67.01 C 349.02 67.01 335.00 67.00 320.98 67.00 C 314.46 67.01 307.77 68.51 302.39 72.33 C 294.97 77.54 290.46 85.79 287.18 94.04 C 282.22 107.92 277.70 121.97 272.68 135.83 C 271.92 138.97 267.57 140.28 265.53 137.58 C 262.97 133.35 261.35 128.60 259.06 124.21 C 266.39 120.72 272.55 114.20 273.86 105.97 C 274.93 98.27 274.99 89.86 271.17 82.86 C 267.42 76.12 260.22 72.17 253.02 70.13 C 239.68 66.32 225.66 67.07 211.95 67.01 C 163.72 67.02 115.48 66.98 67.25 67.03 C 67.35 77.83 67.12 88.65 67.37 99.45 C 76.04 99.30 84.71 99.42 93.38 99.38 C 93.81 95.95 91.89 90.63 96.03 88.90 C 99.93 88.44 103.88 88.79 107.79 88.71 C 107.78 108.14 107.80 127.57 107.76 147.00 C 106.96 157.50 115.47 167.60 126.04 168.27 C 133.23 168.59 140.45 168.24 147.65 168.44 C 147.86 161.07 147.64 153.70 147.78 146.33 C 145.61 145.67 143.14 145.16 141.78 143.15 C 139.91 140.86 140.34 137.76 140.27 135.03 C 140.40 119.57 140.14 104.10 140.40 88.64 C 144.24 88.80 148.09 88.48 151.91 88.86 C 156.25 90.42 154.30 95.92 154.72 99.38 C 163.11 99.35 171.51 99.47 179.91 99.31 C 180.18 112.53 180.03 125.77 180.00 138.99 C 180.11 143.01 176.49 145.69 172.86 146.33 C 172.83 153.68 172.85 161.02 172.85 168.37 C 186.19 168.34 199.54 168.45 212.88 168.31 C 212.80 155.44 212.86 142.58 212.85 129.71 C 218.75 129.29 225.54 130.98 228.50 136.61 C 234.09 147.16 239.58 157.77 245.10 168.36 C 257.04 168.36 268.97 168.43 280.91 168.33 C 286.70 168.26 293.48 167.14 296.78 161.78 C 301.66 154.15 303.61 145.15 306.94 136.82 C 314.77 136.81 322.60 136.82 330.44 136.82 C 330.46 147.34 330.35 157.87 330.44 168.39 C 402.04 168.34 473.63 168.39 545.22 168.37 C 545.27 157.38 545.14 146.39 545.30 135.40 C 536.50 135.13 527.69 135.35 518.89 135.28 C 518.51 138.75 520.48 144.54 515.87 145.80 C 507.78 146.16 499.65 145.77 491.55 145.89 C 491.51 139.76 491.54 133.63 491.53 127.51 C 498.10 127.48 504.67 127.50 511.24 127.49 C 511.25 120.35 511.25 113.21 511.24 106.08 C 504.67 106.07 498.10 106.08 491.54 106.07 C 491.53 100.27 491.53 94.47 491.53 88.67 C 499.68 88.79 507.84 88.44 515.97 88.83 C 520.49 90.20 518.49 95.92 518.87 99.38 C 527.66 99.39 536.44 99.38 545.22 99.38 C 545.23 88.59 545.23 77.80 545.22 67.01 C 516.41 67.02 487.60 67.05 458.78 67.07 C 458.78 69.85 458.78 72.63 458.82 75.41 C 447.26 65.81 431.48 64.10 417.00 64.50 C 405.56 65.11 393.26 66.63 384.03 74.06 Z" />
<path fill="#00994e" opacity="1.00" d=" M 413.33 89.55 C 418.60 87.72 424.77 87.67 429.83 90.19 C 434.64 92.87 435.54 98.88 435.58 103.88 C 443.44 104.08 451.31 103.77 459.18 104.03 C 459.68 112.66 459.54 121.33 459.84 129.97 C 451.75 130.05 443.67 129.91 435.58 130.08 C 435.55 135.09 434.72 141.13 429.95 143.90 C 424.85 146.48 418.60 146.45 413.28 144.58 C 408.25 142.70 406.39 136.96 406.34 132.02 C 406.28 122.01 406.27 111.99 406.35 101.97 C 406.41 97.07 408.34 91.40 413.33 89.55 Z" />
<path fill="#00994e" opacity="1.00" d=" M 212.82 88.68 C 218.92 88.81 225.05 88.30 231.12 89.07 C 234.48 89.55 238.36 90.87 239.80 94.25 C 241.87 98.70 240.16 105.05 235.06 106.48 C 227.91 108.81 220.24 107.47 212.86 107.83 C 212.78 101.45 212.84 95.06 212.82 88.68 Z" />
<path fill="#00994e" opacity="1.00" d=" M 322.86 95.90 C 324.68 93.60 327.56 92.80 330.33 92.37 C 330.37 100.02 330.34 107.68 330.35 115.33 C 324.67 115.33 319.00 115.32 313.32 115.32 C 315.97 108.63 318.19 101.51 322.86 95.90 Z" />
</g>
<g id="#ffffffff">
<path fill="#ffffff" opacity="1.00" d=" M 384.03 74.06 C 393.26 66.63 405.56 65.11 417.00 64.50 C 431.48 64.10 447.26 65.81 458.82 75.41 C 458.78 72.63 458.78 69.85 458.78 67.07 C 487.60 67.05 516.41 67.02 545.22 67.01 C 545.23 77.80 545.23 88.59 545.22 99.38 C 536.44 99.38 527.66 99.39 518.87 99.38 C 518.49 95.92 520.49 90.20 515.97 88.83 C 507.84 88.44 499.68 88.79 491.53 88.67 C 491.53 94.47 491.53 100.27 491.54 106.07 C 498.10 106.08 504.67 106.07 511.24 106.08 C 511.25 113.21 511.25 120.35 511.24 127.49 C 504.67 127.50 498.10 127.48 491.53 127.51 C 491.54 133.63 491.51 139.76 491.55 145.89 C 499.65 145.77 507.78 146.16 515.87 145.80 C 520.48 144.54 518.51 138.75 518.89 135.28 C 527.69 135.35 536.50 135.13 545.30 135.40 C 545.14 146.39 545.27 157.38 545.22 168.37 C 473.63 168.39 402.04 168.34 330.44 168.39 C 330.35 157.87 330.46 147.34 330.44 136.82 C 322.60 136.82 314.77 136.81 306.94 136.82 C 303.61 145.15 301.66 154.15 296.78 161.78 C 293.48 167.14 286.70 168.26 280.91 168.33 C 268.97 168.43 257.04 168.36 245.10 168.36 C 239.58 157.77 234.09 147.16 228.50 136.61 C 225.54 130.98 218.75 129.29 212.85 129.71 C 212.86 142.58 212.80 155.44 212.88 168.31 C 199.54 168.45 186.19 168.34 172.85 168.37 C 172.85 161.02 172.83 153.68 172.86 146.33 C 176.49 145.69 180.11 143.01 180.00 138.99 C 180.03 125.77 180.18 112.53 179.91 99.31 C 171.51 99.47 163.11 99.35 154.72 99.38 C 154.30 95.92 156.25 90.42 151.91 88.86 C 148.09 88.48 144.24 88.80 140.40 88.64 C 140.14 104.10 140.40 119.57 140.27 135.03 C 140.34 137.76 139.91 140.86 141.78 143.15 C 143.14 145.16 145.61 145.67 147.78 146.33 C 147.64 153.70 147.86 161.07 147.65 168.44 C 140.45 168.24 133.23 168.59 126.04 168.27 C 115.47 167.60 106.96 157.50 107.76 147.00 C 107.80 127.57 107.78 108.14 107.79 88.71 C 103.88 88.79 99.93 88.44 96.03 88.90 C 91.89 90.63 93.81 95.95 93.38 99.38 C 84.71 99.42 76.04 99.30 67.37 99.45 C 67.12 88.65 67.35 77.83 67.25 67.03 C 115.48 66.98 163.72 67.02 211.95 67.01 C 225.66 67.07 239.68 66.32 253.02 70.13 C 260.22 72.17 267.42 76.12 271.17 82.86 C 274.99 89.86 274.93 98.27 273.86 105.97 C 272.55 114.20 266.39 120.72 259.06 124.21 C 261.35 128.60 262.97 133.35 265.53 137.58 C 267.57 140.28 271.92 138.97 272.68 135.83 C 277.70 121.97 282.22 107.92 287.18 94.04 C 290.46 85.79 294.97 77.54 302.39 72.33 C 307.77 68.51 314.46 67.01 320.98 67.00 C 335.00 67.00 349.02 67.01 363.05 67.01 C 363.06 88.02 363.04 109.02 363.06 130.03 C 363.18 133.24 363.22 136.61 364.71 139.54 C 366.24 142.39 371.09 142.19 372.27 139.12 C 373.48 136.28 373.55 133.10 373.65 130.05 C 373.71 119.03 373.58 108.00 373.70 96.97 C 373.88 88.38 377.13 79.49 384.03 74.06 M 413.33 89.55 C 408.34 91.40 406.41 97.07 406.35 101.97 C 406.27 111.99 406.28 122.01 406.34 132.02 C 406.39 136.96 408.25 142.70 413.28 144.58 C 418.60 146.45 424.85 146.48 429.95 143.90 C 434.72 141.13 435.55 135.09 435.58 130.08 C 443.67 129.91 451.75 130.05 459.84 129.97 C 459.54 121.33 459.68 112.66 459.18 104.03 C 451.31 103.77 443.44 104.08 435.58 103.88 C 435.54 98.88 434.64 92.87 429.83 90.19 C 424.77 87.67 418.60 87.72 413.33 89.55 M 212.82 88.68 C 212.84 95.06 212.78 101.45 212.86 107.83 C 220.24 107.47 227.91 108.81 235.06 106.48 C 240.16 105.05 241.87 98.70 239.80 94.25 C 238.36 90.87 234.48 89.55 231.12 89.07 C 225.05 88.30 218.92 88.81 212.82 88.68 M 322.86 95.90 C 318.19 101.51 315.97 108.63 313.32 115.32 C 319.00 115.32 324.67 115.33 330.35 115.33 C 330.34 107.68 330.37 100.02 330.33 92.37 C 327.56 92.80 324.68 93.60 322.86 95.90 Z" />
<path fill="#ffffff" opacity="1.00" d=" M 395.17 206.43 C 400.43 206.21 405.69 205.89 410.95 205.65 C 417.20 222.93 423.54 240.18 429.80 257.46 C 425.69 257.45 421.44 258.40 417.42 257.75 C 416.13 254.55 415.24 251.22 414.10 247.98 C 408.21 248.30 402.32 248.55 396.44 248.94 C 395.70 252.40 394.93 255.85 394.18 259.31 C 390.06 259.56 385.95 259.77 381.83 259.98 C 386.29 242.13 390.64 224.25 395.17 206.43 M 403.53 216.64 C 401.90 224.05 400.27 231.46 398.64 238.87 C 402.66 238.66 406.69 238.45 410.72 238.26 C 408.34 231.04 406.06 223.80 403.53 216.64 Z" />
<path fill="#ffffff" opacity="1.00" d=" M 351.49 209.66 C 359.41 206.25 368.32 207.28 376.66 208.16 C 376.39 211.68 376.03 215.19 375.63 218.70 C 370.25 218.24 364.76 217.66 359.40 218.53 C 356.82 218.94 354.87 221.34 355.03 223.96 C 355.10 231.01 355.63 238.06 356.06 245.10 C 356.04 247.86 357.96 250.64 360.87 250.83 C 366.39 251.25 371.86 249.97 377.27 249.04 C 377.95 252.45 378.68 255.86 379.41 259.26 C 371.55 261.19 363.18 262.80 355.17 260.85 C 349.33 259.44 344.85 254.21 344.37 248.23 C 343.74 240.16 343.43 232.06 343.03 223.98 C 342.60 218.03 345.91 211.99 351.49 209.66 Z" />
<path fill="#ffffff" opacity="1.00" d=" M 322.87 210.24 C 326.82 210.04 330.77 209.83 334.72 209.63 C 335.64 227.19 336.56 244.74 337.47 262.30 C 333.51 262.52 329.54 262.74 325.58 262.88 C 324.74 245.33 323.73 227.79 322.87 210.24 Z" />
<path fill="#ffffff" opacity="1.00" d=" M 273.63 212.82 C 282.09 212.50 290.54 211.72 299.01 211.67 C 304.23 211.65 310.28 213.62 312.39 218.87 C 314.34 223.96 314.07 229.60 314.14 234.97 C 314.20 239.68 311.31 243.72 307.30 245.95 C 311.82 251.69 316.37 257.40 320.85 263.18 C 316.17 263.42 311.50 263.65 306.83 263.92 C 302.59 258.67 298.50 253.31 294.21 248.10 C 291.93 248.27 289.65 248.39 287.37 248.53 C 287.66 253.98 287.94 259.43 288.23 264.89 C 284.27 265.09 280.32 265.30 276.37 265.51 C 275.45 247.94 274.49 230.38 273.63 212.82 M 285.98 222.77 C 286.31 227.91 286.56 233.06 286.83 238.20 C 290.95 237.88 295.18 238.18 299.23 237.22 C 302.51 236.61 302.35 232.65 302.22 230.08 C 301.96 227.55 302.32 223.94 299.54 222.71 C 295.10 221.65 290.49 222.69 285.98 222.77 Z" />
<path fill="#ffffff" opacity="1.00" d=" M 234.69 214.85 C 245.82 214.32 256.95 213.70 268.07 213.12 C 268.26 216.63 268.44 220.13 268.62 223.64 C 261.42 224.04 254.21 224.35 247.01 224.82 C 247.26 228.52 247.46 232.23 247.58 235.93 C 254.26 235.78 260.92 235.16 267.60 235.05 C 267.77 238.54 267.93 242.03 267.98 245.53 C 261.38 245.78 254.79 246.20 248.20 246.51 C 248.52 253.32 248.90 260.12 249.25 266.93 C 245.30 267.13 241.35 267.34 237.40 267.55 C 236.51 249.98 235.47 232.42 234.69 214.85 Z" />
<path fill="#ffffff" opacity="1.00" d=" M 198.75 216.76 C 204.05 216.51 209.34 216.11 214.64 216.02 C 220.83 233.29 227.18 250.51 233.45 267.76 C 229.33 267.97 225.22 268.19 221.10 268.40 C 219.98 265.05 218.85 261.70 217.80 258.33 C 211.90 258.51 206.00 258.92 200.10 259.19 C 199.32 262.67 198.56 266.16 197.77 269.64 C 193.66 269.83 189.56 270.05 185.46 270.27 C 189.88 252.43 194.30 234.59 198.75 216.76 M 202.27 249.15 C 206.31 248.98 210.34 248.77 214.37 248.45 C 211.94 241.29 209.59 234.12 207.27 226.93 C 205.42 234.29 203.95 241.75 202.27 249.15 Z" />
<path fill="#ffffff" opacity="1.00" d=" M 446.18 233.20 C 447.92 238.33 446.61 243.92 446.97 249.24 C 446.60 243.90 446.21 238.55 446.18 233.20 Z" />
<path fill="#ffffff" opacity="1.00" d=" M 166.02 234.83 C 166.37 240.44 166.75 246.06 166.87 251.69 L 166.15 250.28 C 165.80 245.13 166.08 239.97 166.02 234.83 Z" />
<path fill="#ffffff" opacity="1.00" d=" M 601.14 246.87 C 601.65 247.17 602.66 247.75 603.16 248.04 C 602.66 247.75 601.65 247.17 601.14 246.87 Z" />
<path fill="#ffffff" opacity="1.00" d=" M 587.51 249.92 L 588.35 249.97 C 588.06 251.29 587.26 252.12 585.94 252.46 C 586.33 251.82 587.11 250.56 587.51 249.92 Z" />
<path fill="#ffffff" opacity="1.00" d=" M 593.65 251.01 C 596.63 249.89 599.96 250.04 602.94 251.13 C 608.36 253.60 610.57 261.03 607.90 266.23 C 608.02 264.65 608.15 263.07 608.29 261.50 C 608.14 260.11 608.04 258.72 607.96 257.33 C 606.64 254.94 604.68 253.00 602.52 251.38 C 599.58 250.90 596.60 250.90 593.65 251.01 Z" />
<path fill="#ffffff" opacity="1.00" d=" M 592.54 251.64 C 592.58 251.62 592.66 251.56 592.71 251.54 C 592.66 251.56 592.58 251.62 592.54 251.64 Z" />
<path fill="#ffffff" opacity="1.00" d=" M 447.14 252.29 L 447.86 253.66 C 448.18 258.52 447.93 263.41 447.97 268.28 C 447.57 262.96 447.25 257.63 447.14 252.29 Z" />
<path fill="#ffffff" opacity="1.00" d=" M 585.14 253.84 L 585.28 253.61 C 585.20 253.75 585.05 254.03 584.98 254.18 L 585.14 253.84 Z" />
<path fill="#ffffff" opacity="1.00" d=" M 167.00 253.86 C 167.40 259.47 167.73 265.08 167.86 270.71 L 167.14 269.34 C 166.80 264.19 167.10 259.02 167.00 253.86 Z" />
<path fill="#ffffff" opacity="1.00" d=" M 584.30 255.49 C 584.37 255.36 584.51 255.10 584.57 254.97 C 584.51 255.10 584.37 255.36 584.30 255.49 Z" />
<path fill="#ffffff" opacity="1.00" d=" M 588.46 255.92 C 588.53 255.79 588.69 255.52 588.76 255.38 L 588.62 255.65 L 588.46 255.92 Z" />
<path fill="#ffffff" opacity="1.00" d=" M 583.12 257.59 L 584.13 255.83 C 583.28 259.39 583.41 263.04 583.68 266.66 L 583.14 265.36 C 582.90 262.78 582.90 260.17 583.12 257.59 Z" />
<path fill="#ffffff" opacity="1.00" d=" M 587.29 257.34 L 588.13 257.37 C 587.84 257.78 587.28 258.59 586.99 259.00 C 587.07 258.58 587.21 257.75 587.29 257.34 Z" />
<path fill="#ffffff" opacity="1.00" d=" M 612.29 259.08 L 613.00 259.01 L 613.00 263.77 L 612.28 263.96 C 611.63 262.39 611.65 260.64 612.29 259.08 Z" />
<path fill="#ffffff" opacity="1.00" d=" M 610.93 268.13 C 611.24 267.63 611.85 266.64 612.15 266.14 C 611.85 266.64 611.24 267.63 610.93 268.13 Z" />
<path fill="#ffffff" opacity="1.00" d=" M 603.01 271.96 C 603.20 270.72 603.91 270.05 605.14 269.94 C 605.25 271.45 604.54 272.12 603.01 271.96 Z" />
<path fill="#ffffff" opacity="1.00" d=" M 592.43 271.26 L 592.62 271.36 L 592.81 271.50 C 592.71 271.44 592.53 271.32 592.43 271.26 Z" />
<path fill="#ffffff" opacity="1.00" d=" M 448.16 271.31 L 448.96 272.73 C 449.16 274.03 448.71 275.15 447.61 275.89 C 442.36 276.20 437.10 275.89 431.85 275.99 C 437.25 275.56 442.67 275.45 448.06 274.98 C 448.09 274.06 448.14 272.23 448.16 271.31 Z" />
<path fill="#ffffff" opacity="1.00" d=" M 593.49 271.99 C 596.43 272.04 599.37 272.01 602.32 271.97 C 599.49 273.10 596.30 273.21 593.49 271.99 Z" />
<path fill="#ffffff" opacity="1.00" d=" M 168.04 273.78 C 168.52 278.50 168.34 283.27 169.03 287.96 C 169.32 288.22 169.89 288.74 170.17 289.00 C 173.41 290.09 176.90 289.06 180.24 289.18 L 181.64 290.00 L 168.99 290.00 C 166.95 284.88 168.43 279.16 168.04 273.78 Z" />
<path fill="#ffffff" opacity="1.00" d=" M 591.89 274.96 C 593.27 274.57 594.27 274.97 594.89 276.16 C 593.40 276.59 592.40 276.19 591.89 274.96 Z" />
<path fill="#ffffff" opacity="1.00" d=" M 413.72 276.96 C 419.03 276.55 424.36 276.25 429.70 276.13 L 428.27 276.85 C 423.43 277.19 418.57 276.94 413.72 276.96 Z" />
<path fill="#ffffff" opacity="1.00" d=" M 394.71 277.98 C 400.02 277.54 405.35 277.23 410.68 277.14 L 409.28 277.85 C 404.43 278.19 399.56 277.92 394.71 277.98 Z" />
<path fill="#ffffff" opacity="1.00" d=" M 375.69 278.97 C 381.00 278.54 386.32 278.23 391.65 278.11 C 386.60 280.01 380.98 278.56 375.69 278.97 Z" />
<path fill="#ffffff" opacity="1.00" d=" M 356.74 279.97 C 362.04 279.55 367.36 279.16 372.68 279.18 C 367.54 280.82 362.04 279.68 356.74 279.97 Z" />
<path fill="#ffffff" opacity="1.00" d=" M 336.77 281.00 C 342.36 280.59 347.96 280.18 353.57 280.18 C 348.15 281.86 342.35 280.62 336.77 281.00 Z" />
<path fill="#ffffff" opacity="1.00" d=" M 317.78 282.00 C 323.32 281.59 328.87 281.19 334.43 281.17 C 329.06 282.87 323.31 281.63 317.78 282.00 Z" />
<path fill="#ffffff" opacity="1.00" d=" M 298.84 282.98 C 304.30 282.61 309.77 282.18 315.24 282.18 C 309.96 283.85 304.29 282.65 298.84 282.98 Z" />
<path fill="#ffffff" opacity="1.00" d=" M 278.82 284.00 C 284.49 283.63 290.18 283.27 295.87 283.15 L 294.41 283.85 C 289.22 284.21 284.01 283.88 278.82 284.00 Z" />
<path fill="#ffffff" opacity="1.00" d=" M 260.75 284.97 C 266.07 284.58 271.39 284.27 276.71 284.13 L 275.33 284.86 C 270.48 285.19 265.61 284.93 260.75 284.97 Z" />
<path fill="#ffffff" opacity="1.00" d=" M 240.86 286.00 C 246.47 285.61 252.09 285.28 257.71 285.14 L 256.34 285.86 C 251.19 286.20 246.02 285.89 240.86 286.00 Z" />
<path fill="#ffffff" opacity="1.00" d=" M 221.79 287.00 C 227.42 286.61 233.07 286.28 238.72 286.13 L 237.34 286.86 C 232.16 287.20 226.97 286.89 221.79 287.00 Z" />
<path fill="#ffffff" opacity="1.00" d=" M 202.82 288.00 C 208.45 287.60 214.08 287.28 219.72 287.12 L 218.34 287.86 C 213.17 288.20 207.99 287.90 202.82 288.00 Z" />
<path fill="#ffffff" opacity="1.00" d=" M 183.82 289.00 C 189.44 288.60 195.07 288.27 200.71 288.12 L 199.34 288.86 C 194.17 289.19 188.99 288.90 183.82 289.00 Z" />
</g>
<g id="#231f20ff">
<path fill="#231f20" opacity="1.00" d=" M 164.43 201.86 C 257.51 196.98 350.58 192.04 443.66 187.25 C 444.52 202.49 445.09 217.75 446.16 232.98 L 446.18 233.20 C 446.21 238.55 446.60 243.90 446.97 249.24 C 447.01 250.25 447.07 251.27 447.14 252.29 C 447.25 257.63 447.57 262.96 447.97 268.28 C 448.02 269.29 448.08 270.30 448.16 271.31 C 448.14 272.23 448.09 274.06 448.06 274.98 C 442.67 275.45 437.25 275.56 431.85 275.99 C 431.32 276.03 430.24 276.10 429.70 276.13 C 424.36 276.25 419.03 276.55 413.72 276.96 C 412.70 277.01 411.69 277.07 410.68 277.14 C 405.35 277.23 400.02 277.54 394.71 277.98 C 393.69 278.03 392.67 278.07 391.65 278.11 C 386.32 278.23 381.00 278.54 375.69 278.97 C 374.68 279.03 373.68 279.10 372.68 279.18 C 367.36 279.16 362.04 279.55 356.74 279.97 C 355.68 280.03 354.62 280.10 353.57 280.18 C 347.96 280.18 342.36 280.59 336.77 281.00 C 336.19 281.04 335.02 281.13 334.43 281.17 C 328.87 281.19 323.32 281.59 317.78 282.00 C 317.14 282.04 315.88 282.13 315.24 282.18 C 309.77 282.18 304.30 282.61 298.84 282.98 C 297.84 283.02 296.85 283.08 295.87 283.15 C 290.18 283.27 284.49 283.63 278.82 284.00 C 278.29 284.04 277.24 284.10 276.71 284.13 C 271.39 284.27 266.07 284.58 260.75 284.97 C 259.73 285.01 258.72 285.07 257.71 285.14 C 252.09 285.28 246.47 285.61 240.86 286.00 C 240.33 286.03 239.25 286.09 238.72 286.13 C 233.07 286.28 227.42 286.61 221.79 287.00 C 221.27 287.03 220.23 287.09 219.72 287.12 C 214.08 287.28 208.45 287.60 202.82 288.00 C 202.29 288.03 201.24 288.09 200.71 288.12 C 195.07 288.27 189.44 288.60 183.82 289.00 C 182.93 289.05 181.14 289.14 180.24 289.18 C 176.90 289.06 173.41 290.09 170.17 289.00 C 169.89 288.74 169.32 288.22 169.03 287.96 C 168.34 283.27 168.52 278.50 168.04 273.78 C 167.99 272.75 167.93 271.73 167.86 270.71 C 167.73 265.08 167.40 259.47 167.00 253.86 C 166.97 253.32 166.90 252.23 166.87 251.69 C 166.75 246.06 166.37 240.44 166.02 234.83 C 166.00 234.37 165.97 233.46 165.95 233.00 C 165.52 222.62 164.77 212.25 164.43 201.86 M 395.17 206.43 C 390.64 224.25 386.29 242.13 381.83 259.98 C 385.95 259.77 390.06 259.56 394.18 259.31 C 394.93 255.85 395.70 252.40 396.44 248.94 C 402.32 248.55 408.21 248.30 414.10 247.98 C 415.24 251.22 416.13 254.55 417.42 257.75 C 421.44 258.40 425.69 257.45 429.80 257.46 C 423.54 240.18 417.20 222.93 410.95 205.65 C 405.69 205.89 400.43 206.21 395.17 206.43 M 351.49 209.66 C 345.91 211.99 342.60 218.03 343.03 223.98 C 343.43 232.06 343.74 240.16 344.37 248.23 C 344.85 254.21 349.33 259.44 355.17 260.85 C 363.18 262.80 371.55 261.19 379.41 259.26 C 378.68 255.86 377.95 252.45 377.27 249.04 C 371.86 249.97 366.39 251.25 360.87 250.83 C 357.96 250.64 356.04 247.86 356.06 245.10 C 355.63 238.06 355.10 231.01 355.03 223.96 C 354.87 221.34 356.82 218.94 359.40 218.53 C 364.76 217.66 370.25 218.24 375.63 218.70 C 376.03 215.19 376.39 211.68 376.66 208.16 C 368.32 207.28 359.41 206.25 351.49 209.66 M 322.87 210.24 C 323.73 227.79 324.74 245.33 325.58 262.88 C 329.54 262.74 333.51 262.52 337.47 262.30 C 336.56 244.74 335.64 227.19 334.72 209.63 C 330.77 209.83 326.82 210.04 322.87 210.24 M 273.63 212.82 C 274.49 230.38 275.45 247.94 276.37 265.51 C 280.32 265.30 284.27 265.09 288.23 264.89 C 287.94 259.43 287.66 253.98 287.37 248.53 C 289.65 248.39 291.93 248.27 294.21 248.10 C 298.50 253.31 302.59 258.67 306.83 263.92 C 311.50 263.65 316.17 263.42 320.85 263.18 C 316.37 257.40 311.82 251.69 307.30 245.95 C 311.31 243.72 314.20 239.68 314.14 234.97 C 314.07 229.60 314.34 223.96 312.39 218.87 C 310.28 213.62 304.23 211.65 299.01 211.67 C 290.54 211.72 282.09 212.50 273.63 212.82 M 234.69 214.85 C 235.47 232.42 236.51 249.98 237.40 267.55 C 241.35 267.34 245.30 267.13 249.25 266.93 C 248.90 260.12 248.52 253.32 248.20 246.51 C 254.79 246.20 261.38 245.78 267.98 245.53 C 267.93 242.03 267.77 238.54 267.60 235.05 C 260.92 235.16 254.26 235.78 247.58 235.93 C 247.46 232.23 247.26 228.52 247.01 224.82 C 254.21 224.35 261.42 224.04 268.62 223.64 C 268.44 220.13 268.26 216.63 268.07 213.12 C 256.95 213.70 245.82 214.32 234.69 214.85 M 198.75 216.76 C 194.30 234.59 189.88 252.43 185.46 270.27 C 189.56 270.05 193.66 269.83 197.77 269.64 C 198.56 266.16 199.32 262.67 200.10 259.19 C 206.00 258.92 211.90 258.51 217.80 258.33 C 218.85 261.70 219.98 265.05 221.10 268.40 C 225.22 268.19 229.33 267.97 233.45 267.76 C 227.18 250.51 220.83 233.29 214.64 216.02 C 209.34 216.11 204.05 216.51 198.75 216.76 Z" />
<path fill="#231f20" opacity="1.00" d=" M 403.53 216.64 C 406.06 223.80 408.34 231.04 410.72 238.26 C 406.69 238.45 402.66 238.66 398.64 238.87 C 400.27 231.46 401.90 224.05 403.53 216.64 Z" />
<path fill="#231f20" opacity="1.00" d=" M 285.98 222.77 C 290.49 222.69 295.10 221.65 299.54 222.71 C 302.32 223.94 301.96 227.55 302.22 230.08 C 302.35 232.65 302.51 236.61 299.23 237.22 C 295.18 238.18 290.95 237.88 286.83 238.20 C 286.56 233.06 286.31 227.91 285.98 222.77 Z" />
<path fill="#231f20" opacity="1.00" d=" M 202.27 249.15 C 203.95 241.75 205.42 234.29 207.27 226.93 C 209.59 234.12 211.94 241.29 214.37 248.45 C 210.34 248.77 206.31 248.98 202.27 249.15 Z" />
</g>
</svg>
