<?xml version="1.0" encoding="UTF-8" ?>
<!DOCTYPE svg PUBLIC "-//W3C//DTD SVG 1.1//EN" "http://www.w3.org/Graphics/SVG/1.1/DTD/svg11.dtd">
<svg width="256pt" height="87pt" viewBox="0 0 256 87" version="1.1" xmlns="http://www.w3.org/2000/svg">
<g id="#ff6600ff">
<path fill="#ff6600" opacity="1.00" d=" M 175.89 10.68 C 194.60 8.76 213.26 6.41 231.96 4.40 C 235.94 4.06 239.93 3.95 243.92 3.99 C 242.96 16.05 242.54 28.15 241.58 40.22 C 234.24 40.33 226.93 40.91 219.61 41.44 C 219.53 42.48 219.37 44.56 219.29 45.61 C 226.69 45.45 234.07 44.75 241.46 44.46 C 240.79 57.64 239.84 70.80 239.29 83.98 C 193.61 83.99 147.93 83.99 102.25 83.99 C 102.79 79.27 103.68 74.61 104.36 69.92 C 101.34 75.58 97.87 82.29 90.91 83.57 C 83.29 84.46 75.56 83.82 67.90 83.93 C 67.34 81.20 66.68 78.50 66.00 75.80 C 65.38 78.50 64.89 81.23 64.46 83.97 C 51.94 83.99 39.42 84.02 26.91 83.97 C 21.37 84.01 18.27 77.83 18.49 72.93 C 18.80 66.32 20.94 59.95 21.89 53.41 C 17.62 53.61 13.35 53.82 9.07 53.88 C 10.94 45.39 12.57 36.84 14.51 28.37 C 35.32 26.05 56.13 23.71 76.96 21.51 C 83.88 20.81 91.99 22.32 95.75 28.84 C 98.71 24.81 102.40 21.11 107.12 19.20 C 110.84 17.46 115.01 17.38 119.02 16.83 C 126.16 16.10 133.29 15.23 140.43 14.47 C 140.21 15.54 139.78 17.67 139.56 18.74 C 150.00 11.28 163.39 9.53 175.89 10.68 M 182.26 17.65 C 182.20 19.33 182.16 21.01 182.11 22.69 C 173.40 16.25 161.79 17.48 151.92 20.03 C 144.89 21.91 138.30 26.87 136.35 34.14 C 134.35 42.13 134.46 50.51 132.61 58.53 C 132.25 60.50 130.62 61.70 128.65 61.70 C 128.23 59.86 127.65 57.98 128.07 56.08 C 129.50 44.85 130.98 33.63 132.46 22.42 C 125.37 23.27 118.25 23.73 111.17 24.66 C 104.82 25.79 100.38 31.14 97.52 36.55 C 93.52 44.41 90.51 52.75 86.60 60.65 C 86.25 61.90 84.71 61.42 83.78 61.83 C 83.26 59.52 82.71 57.22 82.18 54.91 C 89.44 50.71 92.08 41.43 90.20 33.60 C 88.71 30.52 85.40 28.71 82.07 28.38 C 76.04 27.67 70.00 28.72 64.00 29.27 C 48.56 30.72 33.14 32.43 17.69 33.79 C 16.65 38.41 15.90 43.09 14.68 47.68 C 17.54 47.53 20.39 47.34 23.24 47.15 C 23.69 45.59 24.15 44.04 24.64 42.49 C 26.06 42.38 27.48 42.28 28.90 42.19 C 27.12 51.17 25.28 60.14 23.55 69.12 C 22.94 72.18 23.98 75.87 26.95 77.31 C 30.35 77.72 33.77 77.39 37.18 77.36 C 37.74 73.95 38.44 70.57 38.97 67.16 C 37.76 66.73 36.12 66.69 35.66 65.22 C 36.90 57.25 38.73 49.37 39.95 41.39 C 41.57 41.28 43.20 41.19 44.83 41.12 C 44.60 42.57 44.36 44.02 44.11 45.47 C 47.21 45.35 50.31 45.22 53.41 45.21 C 51.71 51.78 51.14 58.58 49.39 65.14 C 48.49 65.71 47.59 66.28 46.69 66.85 C 46.02 70.34 45.38 73.84 44.71 77.32 C 49.67 77.33 54.63 77.24 59.59 77.30 C 61.54 71.23 61.78 64.79 63.33 58.63 C 65.24 57.62 67.96 58.98 68.49 61.10 C 70.03 66.28 71.27 71.55 72.63 76.79 C 78.12 76.71 83.62 76.81 89.11 76.59 C 91.56 76.61 93.92 75.34 95.30 73.32 C 98.10 69.29 99.58 64.56 101.86 60.25 C 105.22 60.21 108.57 59.86 111.92 59.57 C 111.69 65.27 110.24 70.84 110.10 76.55 C 120.09 76.22 130.07 76.34 140.06 76.23 C 170.10 74.93 200.26 76.12 230.28 74.56 C 230.34 67.58 231.16 60.65 231.44 53.68 C 225.81 54.32 220.14 54.42 214.48 54.52 C 214.16 56.76 214.79 60.25 211.95 61.09 C 207.08 61.57 202.16 61.27 197.26 61.54 C 197.47 57.93 197.65 54.30 198.28 50.73 C 202.31 50.62 206.35 50.57 210.33 49.94 C 210.46 45.75 210.71 41.57 210.93 37.38 C 207.05 37.55 203.17 37.73 199.29 37.86 C 199.54 34.70 199.39 31.47 200.11 28.37 C 205.43 27.48 210.95 26.87 216.33 27.61 C 216.26 29.39 216.20 31.18 216.15 32.96 C 221.61 32.82 227.06 32.30 232.53 32.09 C 233.53 25.58 233.46 18.99 233.84 12.43 C 216.65 14.20 199.45 15.83 182.26 17.65 Z" />
<path fill="#ff6600" opacity="1.00" d=" M 156.78 31.85 C 159.35 31.11 162.42 30.65 164.85 32.05 C 167.64 34.08 166.56 37.97 166.57 40.87 C 171.02 40.68 175.46 40.50 179.91 40.29 C 179.53 44.22 179.56 48.19 179.01 52.10 C 178.75 52.33 178.24 52.80 177.99 53.04 C 173.80 53.42 169.57 53.25 165.37 53.33 C 164.72 55.83 164.51 58.70 162.55 60.61 C 160.17 63.17 156.24 63.10 153.07 62.52 C 150.29 61.79 149.36 58.53 149.68 55.98 C 150.20 50.63 150.99 45.31 151.54 39.95 C 151.81 36.63 153.42 33.02 156.78 31.85 Z" />
<path fill="#ff6600" opacity="1.00" d=" M 106.22 48.79 C 108.69 44.55 110.10 38.53 115.35 36.95 C 114.79 40.80 114.27 44.65 113.71 48.50 C 111.21 48.61 108.71 48.73 106.22 48.79 Z" />
<path fill="#ff6600" opacity="1.00" d=" M 65.11 47.83 C 65.55 44.78 66.10 41.75 66.79 38.75 C 70.09 38.70 73.60 38.03 76.62 39.75 C 76.39 41.86 76.79 44.45 74.83 45.89 C 72.09 48.02 68.35 47.48 65.11 47.83 Z" />
</g>
<g id="#ffffffff">
<path fill="#ffffff" opacity="1.00" d=" M 182.26 17.65 C 199.45 15.83 216.65 14.20 233.84 12.43 C 233.46 18.99 233.53 25.58 232.53 32.09 C 227.06 32.30 221.61 32.82 216.15 32.96 C 216.20 31.18 216.26 29.39 216.33 27.61 C 210.95 26.87 205.43 27.48 200.11 28.37 C 199.39 31.47 199.54 34.70 199.29 37.86 C 203.17 37.73 207.05 37.55 210.93 37.38 C 210.71 41.57 210.46 45.75 210.33 49.94 C 206.35 50.57 202.31 50.62 198.28 50.73 C 197.65 54.30 197.47 57.93 197.26 61.54 C 202.16 61.27 207.08 61.57 211.95 61.09 C 214.79 60.25 214.16 56.76 214.48 54.52 C 220.14 54.42 225.81 54.32 231.44 53.68 C 231.16 60.65 230.34 67.58 230.28 74.56 C 200.26 76.12 170.10 74.93 140.06 76.23 C 130.07 76.34 120.09 76.22 110.10 76.55 C 110.24 70.84 111.69 65.27 111.92 59.57 C 108.57 59.86 105.22 60.21 101.86 60.25 C 99.58 64.56 98.10 69.29 95.30 73.32 C 93.92 75.34 91.56 76.61 89.11 76.59 C 83.62 76.81 78.12 76.71 72.63 76.79 C 71.27 71.55 70.03 66.28 68.49 61.10 C 67.96 58.98 65.24 57.62 63.33 58.63 C 61.78 64.79 61.54 71.23 59.59 77.30 C 54.63 77.24 49.67 77.33 44.71 77.32 C 45.38 73.84 46.02 70.34 46.69 66.85 C 47.59 66.28 48.49 65.71 49.39 65.14 C 51.14 58.58 51.71 51.78 53.41 45.21 C 50.31 45.22 47.21 45.35 44.11 45.47 C 44.36 44.02 44.60 42.57 44.83 41.12 C 43.20 41.19 41.57 41.28 39.95 41.39 C 38.73 49.37 36.90 57.25 35.66 65.22 C 36.12 66.69 37.76 66.73 38.97 67.16 C 38.44 70.57 37.74 73.95 37.18 77.36 C 33.77 77.39 30.35 77.72 26.95 77.31 C 23.98 75.87 22.94 72.18 23.55 69.12 C 25.28 60.14 27.12 51.17 28.90 42.19 C 27.48 42.28 26.06 42.38 24.64 42.49 C 24.15 44.04 23.69 45.59 23.24 47.15 C 20.39 47.34 17.54 47.53 14.68 47.68 C 15.90 43.09 16.65 38.41 17.69 33.79 C 33.14 32.43 48.56 30.72 64.00 29.27 C 70.00 28.72 76.04 27.67 82.07 28.38 C 85.40 28.71 88.71 30.52 90.20 33.60 C 92.08 41.43 89.44 50.71 82.18 54.91 C 82.71 57.22 83.26 59.52 83.78 61.83 C 84.71 61.42 86.25 61.90 86.60 60.65 C 90.51 52.75 93.52 44.41 97.52 36.55 C 100.38 31.14 104.82 25.79 111.17 24.66 C 118.25 23.73 125.37 23.27 132.46 22.42 C 130.98 33.63 129.50 44.85 128.07 56.08 C 127.65 57.98 128.23 59.86 128.65 61.70 C 130.62 61.70 132.25 60.50 132.61 58.53 C 134.46 50.51 134.35 42.13 136.35 34.14 C 138.30 26.87 144.89 21.91 151.92 20.03 C 161.79 17.48 173.40 16.25 182.11 22.69 C 182.16 21.01 182.20 19.33 182.26 17.65 M 156.78 31.85 C 153.42 33.02 151.81 36.63 151.54 39.95 C 150.99 45.31 150.20 50.63 149.68 55.98 C 149.36 58.53 150.29 61.79 153.07 62.52 C 156.24 63.10 160.17 63.17 162.55 60.61 C 164.51 58.70 164.72 55.83 165.37 53.33 C 169.57 53.25 173.80 53.42 177.99 53.04 C 178.24 52.80 178.75 52.33 179.01 52.10 C 179.56 48.19 179.53 44.22 179.91 40.29 C 175.46 40.50 171.02 40.68 166.57 40.87 C 166.56 37.97 167.64 34.08 164.85 32.05 C 162.42 30.65 159.35 31.11 156.78 31.85 M 106.22 48.79 C 108.71 48.73 111.21 48.61 113.71 48.50 C 114.27 44.65 114.79 40.80 115.35 36.95 C 110.10 38.53 108.69 44.55 106.22 48.79 M 65.11 47.83 C 68.35 47.48 72.09 48.02 74.83 45.89 C 76.79 44.45 76.39 41.86 76.62 39.75 C 73.60 38.03 70.09 38.70 66.79 38.75 C 66.10 41.75 65.55 44.78 65.11 47.83 Z" />
</g>
</svg>
