<?xml version="1.0" encoding="UTF-8" ?>
<!DOCTYPE svg PUBLIC "-//W3C//DTD SVG 1.1//EN" "http://www.w3.org/Graphics/SVG/1.1/DTD/svg11.dtd">
<svg width="800pt" height="400pt" viewBox="0 0 800 400" version="1.1" xmlns="http://www.w3.org/2000/svg">
<g id="#8e5b3246">
<path fill="#8e5b32" opacity="0.27" d=" M 20.04 19.07 C 267.36 18.90 514.67 19.05 761.99 19.00 C 767.90 19.09 773.81 18.81 779.72 19.19 C 779.73 114.81 779.67 210.44 779.73 306.05 C 779.58 306.62 779.29 307.75 779.14 308.32 C 779.10 212.11 779.17 115.90 779.09 19.69 C 526.20 19.71 273.30 19.68 20.41 19.71 C 20.35 108.13 20.40 196.55 20.38 284.97 C 20.44 292.71 20.24 300.45 20.52 308.19 L 20.00 308.16 C 20.03 211.80 19.94 115.44 20.04 19.07 Z" />
<path fill="#8e5b32" opacity="0.27" d=" M 237.44 314.18 C 238.63 323.71 238.35 333.39 238.96 342.98 C 238.04 336.74 238.45 330.41 237.86 324.14 C 237.77 320.81 236.69 317.49 237.44 314.18 Z" />
<path fill="#8e5b32" opacity="0.27" d=" M 758.69 337.58 C 760.71 337.57 762.75 337.69 764.73 338.17 C 764.67 340.00 764.60 341.83 764.54 343.66 C 762.53 343.79 760.52 343.85 758.51 343.85 C 758.58 341.75 758.63 339.67 758.69 337.58 M 758.75 338.20 C 758.78 339.93 758.83 341.67 758.90 343.41 C 760.70 343.34 762.50 343.26 764.32 343.18 C 764.28 341.58 764.24 339.99 764.21 338.40 C 762.38 338.28 760.56 338.22 758.75 338.20 Z" />
<path fill="#8e5b32" opacity="0.27" d=" M 563.34 341.62 L 563.36 340.77 C 564.09 344.90 564.08 349.11 563.87 353.29 C 563.48 349.41 563.25 345.52 563.34 341.62 Z" />
<path fill="#8e5b32" opacity="0.27" d=" M 239.17 345.79 C 239.57 349.62 239.81 353.48 239.74 357.34 L 239.73 358.18 C 239.05 354.09 239.05 349.92 239.17 345.79 Z" />
<path fill="#8e5b32" opacity="0.27" d=" M 528.76 364.86 C 532.31 364.52 535.88 364.26 539.46 364.36 L 540.45 364.56 C 536.57 365.02 532.65 365.02 528.76 364.86 Z" />
<path fill="#8e5b32" opacity="0.27" d=" M 453.80 368.81 C 457.32 368.46 460.85 368.22 464.39 368.31 L 465.30 368.38 C 461.50 368.99 457.64 368.98 453.80 368.81 Z" />
<path fill="#8e5b32" opacity="0.27" d=" M 378.71 372.76 C 382.27 372.39 385.84 372.22 389.42 372.25 L 390.26 372.26 C 386.45 372.89 382.57 372.96 378.71 372.76 Z" />
<path fill="#8e5b32" opacity="0.27" d=" M 318.79 375.87 C 322.63 375.49 326.49 375.25 330.36 375.34 L 331.21 375.36 C 327.11 376.09 322.93 376.04 318.79 375.87 Z" />
<path fill="#8e5b32" opacity="0.27" d=" M 243.79 379.81 C 247.48 379.48 251.17 379.27 254.87 379.21 L 254.82 379.72 C 251.14 379.81 247.47 380.04 243.79 379.81 Z" />
</g>
<g id="#e8711cff">
<path fill="#e8711c" opacity="1.00" d=" M 20.41 19.71 C 273.30 19.68 526.20 19.71 779.09 19.69 C 779.17 115.90 779.10 212.11 779.14 308.32 C 706.63 307.98 634.11 308.24 561.59 308.19 C 560.81 290.27 559.21 272.38 559.11 254.43 C 557.77 254.30 556.42 254.16 555.09 254.13 C 490.72 257.51 426.34 260.82 361.98 264.27 C 319.78 266.37 277.61 268.89 235.40 270.78 C 235.84 283.25 236.58 295.71 237.24 308.18 C 165.00 308.17 92.76 308.15 20.52 308.19 C 20.24 300.45 20.44 292.71 20.38 284.97 C 20.40 196.55 20.35 108.13 20.41 19.71 M 494.99 112.02 C 487.07 118.97 483.48 129.68 483.40 139.99 C 483.39 152.99 483.43 165.99 483.39 178.99 C 483.22 183.25 483.31 187.68 481.71 191.71 C 480.42 195.44 474.55 195.82 472.53 192.55 C 470.69 189.39 470.60 185.58 470.50 182.02 C 470.54 155.44 470.46 128.86 470.54 102.28 C 452.69 102.22 434.85 102.23 417.00 102.28 C 406.81 102.16 396.52 106.05 389.45 113.48 C 382.10 121.18 377.57 131.09 374.24 141.08 C 369.22 155.79 364.14 170.49 359.11 185.21 C 358.19 187.50 357.49 190.39 354.95 191.40 C 352.18 192.43 349.23 190.53 348.21 187.95 C 346.08 183.12 343.92 178.29 341.48 173.60 C 347.56 170.19 353.50 165.95 356.73 159.58 C 361.26 150.81 361.29 140.42 359.73 130.89 C 358.07 121.40 351.30 113.40 342.64 109.43 C 329.41 103.20 314.45 102.25 300.04 102.25 C 234.49 102.26 168.93 102.22 103.38 102.27 C 103.42 115.71 103.43 129.16 103.37 142.60 C 114.21 142.65 125.04 142.54 135.87 142.66 C 136.17 139.46 136.01 136.24 136.23 133.03 C 136.46 130.77 138.88 129.36 141.00 129.33 C 145.20 129.15 149.42 129.34 153.63 129.27 C 153.64 154.19 153.61 179.13 153.64 204.05 C 153.72 216.50 164.48 227.85 177.00 228.15 C 185.79 228.20 194.57 228.15 203.35 228.16 C 203.38 219.02 203.28 209.88 203.41 200.75 C 198.94 200.12 194.24 196.99 194.23 192.04 C 194.10 171.12 194.21 150.19 194.18 129.27 C 198.96 129.48 203.83 128.83 208.56 129.62 C 213.72 131.63 211.39 138.27 211.74 142.52 C 222.23 142.73 232.72 142.53 243.20 142.63 C 243.19 159.10 243.23 175.56 243.19 192.02 C 243.17 196.78 238.78 200.28 234.27 200.59 C 234.28 209.75 234.36 218.91 234.23 228.07 C 250.90 228.29 267.59 228.12 284.27 228.15 C 284.26 212.22 284.24 196.28 284.28 180.34 C 291.46 179.63 299.68 181.93 303.29 188.70 C 309.76 200.97 316.16 213.27 322.52 225.59 C 323.22 226.42 323.39 228.24 324.81 228.09 C 339.53 228.28 354.28 228.11 369.01 228.17 C 376.04 228.11 384.23 226.67 388.22 220.18 C 394.28 210.64 396.56 199.35 400.96 189.05 C 410.60 189.24 420.24 189.07 429.88 189.13 C 429.87 202.14 429.56 215.15 429.68 228.16 C 518.51 228.17 607.35 228.17 696.19 228.16 C 696.15 214.40 696.26 200.63 696.13 186.87 C 685.21 186.96 674.25 186.45 663.36 187.14 C 663.38 190.41 663.70 193.71 663.21 196.96 C 662.55 199.16 660.24 200.41 658.04 200.32 C 648.56 200.54 639.10 200.07 629.63 200.14 C 629.54 192.62 629.66 185.09 629.55 177.57 C 637.78 177.29 646.01 177.58 654.24 177.42 C 654.21 168.52 654.28 159.62 654.20 150.71 C 645.96 150.56 637.70 150.98 629.47 150.50 C 629.68 143.49 629.65 136.47 629.50 129.46 C 638.66 129.04 647.85 129.39 657.03 129.26 C 659.64 128.99 662.67 130.18 663.30 132.98 C 663.63 136.18 663.39 139.40 663.41 142.60 C 674.36 142.52 685.32 142.81 696.27 142.46 C 696.02 129.05 696.37 115.63 696.09 102.22 C 660.29 102.50 624.47 102.11 588.67 102.54 C 588.76 105.79 588.78 109.04 588.77 112.30 C 584.03 108.78 578.97 105.63 573.35 103.74 C 559.14 98.77 543.77 98.49 528.91 99.66 C 516.88 100.93 504.27 103.79 494.99 112.02 Z" />
<path fill="#e8711c" opacity="1.00" d=" M 284.27 129.27 C 292.49 129.57 300.86 128.50 308.97 130.29 C 312.68 131.06 316.49 133.22 317.75 137.01 C 318.99 141.09 318.66 146.30 315.13 149.19 C 311.45 152.11 306.57 152.83 302.01 152.83 C 296.08 152.83 290.16 152.82 284.24 152.81 C 284.28 144.96 284.24 137.11 284.27 129.27 Z" />
<path fill="#e8711c" opacity="1.00" d=" M 532.54 130.48 C 539.23 128.05 547.27 127.97 553.57 131.56 C 559.13 135.13 560.18 142.25 559.95 148.34 C 569.83 148.45 579.72 148.35 589.60 148.39 C 589.65 159.06 589.91 169.73 590.25 180.39 C 580.23 180.39 570.22 180.46 560.20 180.35 C 559.74 185.22 559.91 190.64 556.58 194.62 C 553.23 199.08 547.27 200.26 542.00 200.19 C 536.93 200.21 531.25 199.16 527.82 195.09 C 524.83 191.47 524.07 186.56 524.04 182.00 C 524.07 170.01 524.02 158.02 524.06 146.03 C 524.08 139.94 526.36 132.85 532.54 130.48 Z" />
<path fill="#e8711c" opacity="1.00" d=" M 420.86 137.95 C 423.01 135.31 426.38 134.30 429.67 134.13 C 429.73 143.43 429.62 152.72 429.73 162.02 C 422.77 162.17 415.80 162.13 408.83 162.05 C 412.24 153.77 414.76 144.73 420.86 137.95 Z" />
</g>
<g id="#ffffffff">
<path fill="#ffffff" opacity="1.00" d=" M 494.99 112.02 C 504.27 103.79 516.88 100.93 528.91 99.66 C 543.77 98.49 559.14 98.77 573.35 103.74 C 578.97 105.63 584.03 108.78 588.77 112.30 C 588.78 109.04 588.76 105.79 588.67 102.54 C 624.47 102.11 660.29 102.50 696.09 102.22 C 696.37 115.63 696.02 129.05 696.27 142.46 C 685.32 142.81 674.36 142.52 663.41 142.60 C 663.39 139.40 663.63 136.18 663.30 132.98 C 662.67 130.18 659.64 128.99 657.03 129.26 C 647.85 129.39 638.66 129.04 629.50 129.46 C 629.65 136.47 629.68 143.49 629.47 150.50 C 637.70 150.98 645.96 150.56 654.20 150.71 C 654.28 159.62 654.21 168.52 654.24 177.42 C 646.01 177.58 637.78 177.29 629.55 177.57 C 629.66 185.09 629.54 192.62 629.63 200.14 C 639.10 200.07 648.56 200.54 658.04 200.32 C 660.24 200.41 662.55 199.16 663.21 196.96 C 663.70 193.71 663.38 190.41 663.36 187.14 C 674.25 186.45 685.21 186.96 696.13 186.87 C 696.26 200.63 696.15 214.40 696.19 228.16 C 607.35 228.17 518.51 228.17 429.68 228.16 C 429.56 215.15 429.87 202.14 429.88 189.13 C 420.24 189.07 410.60 189.24 400.96 189.05 C 396.56 199.35 394.28 210.64 388.22 220.18 C 384.23 226.67 376.04 228.11 369.01 228.17 C 354.28 228.11 339.53 228.28 324.81 228.09 C 323.39 228.24 323.22 226.42 322.52 225.59 C 316.16 213.27 309.76 200.97 303.29 188.70 C 299.68 181.93 291.46 179.63 284.28 180.34 C 284.24 196.28 284.26 212.22 284.27 228.15 C 267.59 228.12 250.90 228.29 234.23 228.07 C 234.36 218.91 234.28 209.75 234.27 200.59 C 238.78 200.28 243.17 196.78 243.19 192.02 C 243.23 175.56 243.19 159.10 243.20 142.63 C 232.72 142.53 222.23 142.73 211.74 142.52 C 211.39 138.27 213.72 131.63 208.56 129.62 C 203.83 128.83 198.96 129.48 194.18 129.27 C 194.21 150.19 194.10 171.12 194.23 192.04 C 194.24 196.99 198.94 200.12 203.41 200.75 C 203.28 209.88 203.38 219.02 203.35 228.16 C 194.57 228.15 185.79 228.20 177.00 228.15 C 164.48 227.85 153.72 216.50 153.64 204.05 C 153.61 179.13 153.64 154.19 153.63 129.27 C 149.42 129.34 145.20 129.15 141.00 129.33 C 138.88 129.36 136.46 130.77 136.23 133.03 C 136.01 136.24 136.17 139.46 135.87 142.66 C 125.04 142.54 114.21 142.65 103.37 142.60 C 103.43 129.16 103.42 115.71 103.38 102.27 C 168.93 102.22 234.49 102.26 300.04 102.25 C 314.45 102.25 329.41 103.20 342.64 109.43 C 351.30 113.40 358.07 121.40 359.73 130.89 C 361.29 140.42 361.26 150.81 356.73 159.58 C 353.50 165.95 347.56 170.19 341.48 173.60 C 343.92 178.29 346.08 183.12 348.21 187.95 C 349.23 190.53 352.18 192.43 354.95 191.40 C 357.49 190.39 358.19 187.50 359.11 185.21 C 364.14 170.49 369.22 155.79 374.24 141.08 C 377.57 131.09 382.10 121.18 389.45 113.48 C 396.52 106.05 406.81 102.16 417.00 102.28 C 434.85 102.23 452.69 102.22 470.54 102.28 C 470.46 128.86 470.54 155.44 470.50 182.02 C 470.60 185.58 470.69 189.39 472.53 192.55 C 474.55 195.82 480.42 195.44 481.71 191.71 C 483.31 187.68 483.22 183.25 483.39 178.99 C 483.43 165.99 483.39 152.99 483.40 139.99 C 483.48 129.68 487.07 118.97 494.99 112.02 M 284.27 129.27 C 284.24 137.11 284.28 144.96 284.24 152.81 C 290.16 152.82 296.08 152.83 302.01 152.83 C 306.57 152.83 311.45 152.11 315.13 149.19 C 318.66 146.30 318.99 141.09 317.75 137.01 C 316.49 133.22 312.68 131.06 308.97 130.29 C 300.86 128.50 292.49 129.57 284.27 129.27 M 532.54 130.48 C 526.36 132.85 524.08 139.94 524.06 146.03 C 524.02 158.02 524.07 170.01 524.04 182.00 C 524.07 186.56 524.83 191.47 527.82 195.09 C 531.25 199.16 536.93 200.21 542.00 200.19 C 547.27 200.26 553.23 199.08 556.58 194.62 C 559.91 190.64 559.74 185.22 560.20 180.35 C 570.22 180.46 580.23 180.39 590.25 180.39 C 589.91 169.73 589.65 159.06 589.60 148.39 C 579.72 148.35 569.83 148.45 559.95 148.34 C 560.18 142.25 559.13 135.13 553.57 131.56 C 547.27 127.97 539.23 128.05 532.54 130.48 M 420.86 137.95 C 414.76 144.73 412.24 153.77 408.83 162.05 C 415.80 162.13 422.77 162.17 429.73 162.02 C 429.62 152.72 429.73 143.43 429.67 134.13 C 426.38 134.30 423.01 135.31 420.86 137.95 Z" />
<path fill="#ffffff" opacity="1.00" d=" M 524.13 277.82 C 528.88 277.35 533.66 277.16 538.44 277.09 C 539.36 298.51 540.70 319.90 541.68 341.32 C 535.69 341.51 529.71 341.79 523.74 342.32 C 515.94 328.97 508.86 315.19 500.70 302.07 C 501.61 315.81 502.24 329.56 502.96 343.31 C 498.58 343.75 494.14 343.46 489.81 344.33 C 489.56 344.06 489.05 343.52 488.79 343.26 C 487.96 322.04 486.34 300.86 485.57 279.64 C 491.51 279.41 497.45 279.17 503.38 278.66 C 511.10 292.74 518.57 306.97 526.43 320.98 C 525.82 306.58 525.13 292.19 524.13 277.82 Z" />
<path fill="#ffffff" opacity="1.00" d=" M 441.94 282.00 C 448.47 281.78 454.99 281.17 461.53 281.20 C 469.07 302.29 476.81 323.31 484.47 344.36 C 479.46 344.63 474.41 344.49 469.44 345.34 C 467.58 341.31 466.57 336.96 465.02 332.81 C 457.96 333.34 450.89 333.50 443.82 333.83 C 442.56 337.97 442.44 342.67 440.69 346.49 C 435.72 347.00 430.71 347.01 425.73 347.45 C 431.07 325.61 436.53 303.81 441.94 282.00 M 452.21 295.07 C 450.40 303.88 448.47 312.67 446.48 321.44 C 451.25 321.21 456.01 320.89 460.79 320.69 C 458.01 312.12 455.30 303.53 452.21 295.07 Z" />
<path fill="#ffffff" opacity="1.00" d=" M 375.25 285.47 C 385.17 285.29 395.05 284.11 404.98 284.22 C 409.76 284.34 415.22 285.83 417.77 290.25 C 420.31 294.37 419.46 299.39 420.09 303.98 C 420.58 308.39 417.75 312.30 414.05 314.39 C 419.30 315.59 423.54 320.47 423.49 325.94 C 423.56 330.91 424.69 336.44 421.83 340.89 C 418.84 346.09 412.59 348.06 406.94 348.41 C 397.43 348.68 387.95 349.54 378.45 349.70 C 377.42 328.29 376.18 306.89 375.25 285.47 M 390.47 296.62 C 390.71 301.40 390.62 306.20 391.32 310.94 C 395.66 310.40 400.99 311.82 404.52 308.65 C 406.17 305.44 405.52 301.07 404.26 297.80 C 400.49 294.66 394.95 297.07 390.47 296.62 M 391.64 322.63 C 392.08 327.37 392.31 332.12 392.52 336.87 C 397.37 336.97 402.68 337.43 407.16 335.22 C 410.02 333.43 408.99 329.76 408.79 327.01 C 408.91 324.77 407.30 322.38 404.95 322.24 C 400.51 321.94 396.07 322.43 391.64 322.63 Z" />
<path fill="#ffffff" opacity="1.00" d=" M 315.66 288.62 C 325.43 288.29 335.18 287.42 344.96 287.15 C 350.73 287.07 357.36 288.07 361.24 292.80 C 364.71 297.01 364.89 302.69 365.23 307.87 C 365.32 312.78 366.05 318.05 363.68 322.59 C 362.31 325.45 359.72 327.41 357.10 329.06 C 362.62 336.03 368.08 343.05 373.62 350.01 C 367.78 350.51 361.93 350.77 356.07 350.95 C 351.03 344.66 346.21 338.17 340.99 332.05 C 338.24 331.62 335.43 332.26 332.67 332.38 C 333.24 339.03 333.43 345.70 333.75 352.37 C 328.89 352.33 324.04 352.70 319.19 352.88 C 317.80 331.48 317.21 310.01 315.66 288.62 M 331.28 300.78 C 331.57 307.03 331.52 313.32 332.29 319.54 C 337.27 319.16 342.38 319.50 347.27 318.28 C 351.18 317.07 350.76 312.32 350.56 309.07 C 350.44 305.97 350.34 301.44 346.57 300.60 C 341.49 300.04 336.38 300.83 331.28 300.78 Z" />
<path fill="#ffffff" opacity="1.00" d=" M 258.14 291.63 C 262.85 291.25 267.62 291.48 272.28 290.61 C 272.37 290.77 272.54 291.11 272.63 291.28 C 273.61 305.82 274.09 320.39 274.89 334.94 C 274.89 338.47 277.22 342.32 281.06 342.45 C 284.60 342.74 288.61 342.86 291.63 340.69 C 294.26 338.66 294.30 335.04 294.01 332.03 C 293.03 317.96 292.58 303.86 291.72 289.79 C 296.64 289.64 301.57 289.42 306.49 289.19 C 307.10 304.48 308.09 319.76 308.78 335.05 C 309.21 341.26 306.44 347.67 301.21 351.18 C 293.98 355.98 284.82 356.34 276.47 355.28 C 268.32 353.98 261.12 347.35 260.47 338.89 C 259.56 323.14 258.66 307.39 258.14 291.63 Z" />
</g>
<g id="#201e21ff">
<path fill="#201e21" opacity="1.00" d=" M 361.98 264.27 C 426.34 260.82 490.72 257.51 555.09 254.13 C 556.42 254.16 557.77 254.30 559.11 254.43 C 559.21 272.38 560.81 290.27 561.59 308.19 C 562.34 319.33 562.71 330.48 563.34 341.62 C 563.25 345.52 563.48 349.41 563.87 353.29 C 564.14 356.49 564.31 359.71 564.54 362.92 C 556.20 363.67 547.81 363.82 539.46 364.36 C 535.88 364.26 532.31 364.52 528.76 364.86 C 507.31 366.21 485.84 367.13 464.39 368.31 C 460.85 368.22 457.32 368.46 453.80 368.81 C 432.35 370.17 410.88 371.02 389.42 372.25 C 385.84 372.22 382.27 372.39 378.71 372.76 C 362.61 373.79 346.48 374.48 330.36 375.34 C 326.49 375.25 322.63 375.49 318.79 375.87 C 297.50 377.21 276.18 378.22 254.87 379.21 C 251.17 379.27 247.48 379.48 243.79 379.81 C 243.05 379.85 241.58 379.95 240.84 380.00 C 240.59 372.44 240.24 364.88 239.74 357.34 C 239.81 353.48 239.57 349.62 239.17 345.79 C 239.11 345.09 239.01 343.69 238.96 342.98 C 238.35 333.39 238.63 323.71 237.44 314.18 L 237.37 313.87 C 237.34 311.97 237.33 310.07 237.24 308.18 C 236.58 295.71 235.84 283.25 235.40 270.78 C 277.61 268.89 319.78 266.37 361.98 264.27 M 524.13 277.82 C 525.13 292.19 525.82 306.58 526.43 320.98 C 518.57 306.97 511.10 292.74 503.38 278.66 C 497.45 279.17 491.51 279.41 485.57 279.64 C 486.34 300.86 487.96 322.04 488.79 343.26 C 489.05 343.52 489.56 344.06 489.81 344.33 C 494.14 343.46 498.58 343.75 502.96 343.31 C 502.24 329.56 501.61 315.81 500.70 302.07 C 508.86 315.19 515.94 328.97 523.74 342.32 C 529.71 341.79 535.69 341.51 541.68 341.32 C 540.70 319.90 539.36 298.51 538.44 277.09 C 533.66 277.16 528.88 277.35 524.13 277.82 M 441.94 282.00 C 436.53 303.81 431.07 325.61 425.73 347.45 C 430.71 347.01 435.72 347.00 440.69 346.49 C 442.44 342.67 442.56 337.97 443.82 333.83 C 450.89 333.50 457.96 333.34 465.02 332.81 C 466.57 336.96 467.58 341.31 469.44 345.34 C 474.41 344.49 479.46 344.63 484.47 344.36 C 476.81 323.31 469.07 302.29 461.53 281.20 C 454.99 281.17 448.47 281.78 441.94 282.00 M 375.25 285.47 C 376.18 306.89 377.42 328.29 378.45 349.70 C 387.95 349.54 397.43 348.68 406.94 348.41 C 412.59 348.06 418.84 346.09 421.83 340.89 C 424.69 336.44 423.56 330.91 423.49 325.94 C 423.54 320.47 419.30 315.59 414.05 314.39 C 417.75 312.30 420.58 308.39 420.09 303.98 C 419.46 299.39 420.31 294.37 417.77 290.25 C 415.22 285.83 409.76 284.34 404.98 284.22 C 395.05 284.11 385.17 285.29 375.25 285.47 M 315.66 288.62 C 317.21 310.01 317.80 331.48 319.19 352.88 C 324.04 352.70 328.89 352.33 333.75 352.37 C 333.43 345.70 333.24 339.03 332.67 332.38 C 335.43 332.26 338.24 331.62 340.99 332.05 C 346.21 338.17 351.03 344.66 356.07 350.95 C 361.93 350.77 367.78 350.51 373.62 350.01 C 368.08 343.05 362.62 336.03 357.10 329.06 C 359.72 327.41 362.31 325.45 363.68 322.59 C 366.05 318.05 365.32 312.78 365.23 307.87 C 364.89 302.69 364.71 297.01 361.24 292.80 C 357.36 288.07 350.73 287.07 344.96 287.15 C 335.18 287.42 325.43 288.29 315.66 288.62 M 258.14 291.63 C 258.66 307.39 259.56 323.14 260.47 338.89 C 261.12 347.35 268.32 353.98 276.47 355.28 C 284.82 356.34 293.98 355.98 301.21 351.18 C 306.44 347.67 309.21 341.26 308.78 335.05 C 308.09 319.76 307.10 304.48 306.49 289.19 C 301.57 289.42 296.64 289.64 291.72 289.79 C 292.58 303.86 293.03 317.96 294.01 332.03 C 294.30 335.04 294.26 338.66 291.63 340.69 C 288.61 342.86 284.60 342.74 281.06 342.45 C 277.22 342.32 274.89 338.47 274.89 334.94 C 274.09 320.39 273.61 305.82 272.63 291.28 C 272.54 291.11 272.37 290.77 272.28 290.61 C 267.62 291.48 262.85 291.25 258.14 291.63 Z" />
<path fill="#201e21" opacity="1.00" d=" M 452.21 295.07 C 455.30 303.53 458.01 312.12 460.79 320.69 C 456.01 320.89 451.25 321.21 446.48 321.44 C 448.47 312.67 450.40 303.88 452.21 295.07 Z" />
<path fill="#201e21" opacity="1.00" d=" M 390.47 296.62 C 394.95 297.07 400.49 294.66 404.26 297.80 C 405.52 301.07 406.17 305.44 404.52 308.65 C 400.99 311.82 395.66 310.40 391.32 310.94 C 390.62 306.20 390.71 301.40 390.47 296.62 Z" />
<path fill="#201e21" opacity="1.00" d=" M 331.28 300.78 C 336.38 300.83 341.49 300.04 346.57 300.60 C 350.34 301.44 350.44 305.97 350.56 309.07 C 350.76 312.32 351.18 317.07 347.27 318.28 C 342.38 319.50 337.27 319.16 332.29 319.54 C 331.52 313.32 331.57 307.03 331.28 300.78 Z" />
<path fill="#201e21" opacity="1.00" d=" M 391.64 322.63 C 396.07 322.43 400.51 321.94 404.95 322.24 C 407.30 322.38 408.91 324.77 408.79 327.01 C 408.99 329.76 410.02 333.43 407.16 335.22 C 402.68 337.43 397.37 336.97 392.52 336.87 C 392.31 332.12 392.08 327.37 391.64 322.63 Z" />
</g>
</svg>
