<?xml version="1.0" encoding="UTF-8" ?>
<!DOCTYPE svg PUBLIC "-//W3C//DTD SVG 1.1//EN" "http://www.w3.org/Graphics/SVG/1.1/DTD/svg11.dtd">
<svg width="800pt" height="400pt" viewBox="0 0 800 400" version="1.1" xmlns="http://www.w3.org/2000/svg">
<g id="#f7c73bff">
<path fill="#f7c73b" opacity="1.00" d=" M 20.31 19.49 C 273.16 19.51 526.01 19.52 778.86 19.49 C 778.79 115.60 778.81 211.72 778.85 307.84 C 725.46 307.86 672.06 307.84 618.67 307.85 C 618.73 309.49 618.83 311.16 618.54 312.80 C 617.58 291.18 616.58 269.50 615.27 247.88 C 524.19 252.83 433.07 257.43 341.98 262.32 C 287.46 265.06 232.95 268.16 178.42 270.78 C 178.79 283.14 179.57 295.49 180.20 307.84 C 126.91 307.84 73.61 307.86 20.32 307.84 C 20.37 211.72 20.37 115.61 20.31 19.49 M 529.72 99.51 C 516.77 100.82 502.86 103.75 493.37 113.35 C 485.96 120.45 483.11 131.03 483.06 141.03 C 483.08 153.34 483.05 165.64 483.08 177.94 C 482.96 182.66 483.19 187.64 481.23 192.04 C 479.75 195.47 474.22 195.64 472.32 192.54 C 470.55 189.72 470.40 186.27 470.27 183.05 C 470.10 156.10 470.42 129.16 470.12 102.22 C 456.06 102.24 442.00 102.22 427.94 102.23 C 418.77 102.26 409.16 101.51 400.61 105.52 C 388.01 110.95 380.66 123.56 375.86 135.79 C 370.37 151.65 364.90 167.51 359.51 183.41 C 358.39 186.16 357.86 189.76 354.94 191.24 C 352.16 192.52 349.02 190.67 348.03 187.97 C 346.00 182.97 343.36 178.25 341.45 173.20 C 351.27 169.05 358.62 159.73 359.95 149.09 C 360.89 139.48 360.88 128.96 355.45 120.55 C 351.15 113.62 343.70 109.45 336.19 106.83 C 324.88 103.16 312.91 102.20 301.08 102.24 C 235.17 102.23 169.25 102.21 103.34 102.25 C 103.37 115.71 103.38 129.17 103.34 142.63 C 114.19 142.67 125.04 142.62 135.89 142.66 C 135.96 139.45 135.69 136.22 136.10 133.03 C 136.51 130.78 138.78 129.29 140.99 129.35 C 145.18 129.20 149.37 129.37 153.56 129.30 C 153.56 154.20 153.58 179.10 153.55 204.00 C 153.48 216.51 164.45 228.01 177.04 228.16 C 185.81 228.19 194.58 228.15 203.35 228.16 C 203.36 218.99 203.31 209.82 203.39 200.65 C 198.88 200.25 194.17 196.97 194.16 192.08 C 194.14 171.15 194.13 150.22 194.17 129.29 C 198.88 129.51 203.66 128.91 208.34 129.62 C 213.68 131.53 211.13 138.25 211.57 142.48 C 222.08 142.86 232.62 142.52 243.14 142.66 C 243.14 158.78 243.15 174.90 243.14 191.02 C 243.48 196.05 239.06 200.23 234.22 200.55 C 234.25 209.74 234.28 218.92 234.20 228.11 C 250.76 228.23 267.32 228.14 283.89 228.16 C 283.94 212.23 283.59 196.28 284.06 180.35 C 291.07 179.71 299.04 181.79 302.79 188.25 C 309.94 201.49 316.63 214.98 323.80 228.21 C 338.87 228.11 353.94 228.19 369.01 228.17 C 374.46 227.98 380.41 227.39 384.78 223.76 C 388.92 220.22 391.03 215.04 393.06 210.13 C 395.63 203.19 398.03 196.18 400.54 189.21 C 410.22 189.11 419.90 189.16 429.57 189.19 C 429.50 202.18 429.56 215.17 429.53 228.17 C 518.39 228.15 607.24 228.20 696.10 228.14 C 695.87 214.36 696.30 200.55 695.81 186.79 C 684.91 186.85 674.01 186.69 663.11 186.88 C 663.06 189.92 663.24 192.98 663.01 196.02 C 662.88 198.51 660.38 200.36 657.98 200.27 C 648.41 200.45 638.84 200.18 629.28 200.01 C 629.39 192.48 629.11 184.94 629.44 177.41 C 637.54 177.61 645.64 177.42 653.74 177.53 C 653.79 168.59 653.75 159.66 653.77 150.72 C 645.60 150.60 637.44 150.72 629.27 150.66 C 629.32 143.55 629.28 136.43 629.29 129.31 C 638.87 129.35 648.45 129.25 658.02 129.35 C 660.59 129.20 663.10 131.34 663.07 133.97 C 663.13 136.87 662.90 139.77 663.07 142.66 C 674.01 142.62 684.96 142.64 695.90 142.65 C 696.37 129.19 696.02 115.69 695.93 102.23 C 660.14 102.39 624.34 102.25 588.56 102.46 C 588.60 105.70 588.64 108.95 588.62 112.20 C 584.89 109.92 581.44 107.15 577.36 105.49 C 562.48 98.82 545.72 98.52 529.72 99.51 Z" />
<path fill="#f7c73b" opacity="1.00" d=" M 284.00 129.29 C 293.22 129.77 302.86 128.03 311.73 131.28 C 319.62 133.81 320.50 146.40 313.37 150.29 C 309.91 152.16 305.92 152.82 302.02 152.81 C 295.98 152.83 289.95 152.82 283.92 152.80 C 283.84 144.96 283.70 137.12 284.00 129.29 Z" />
<path fill="#f7c73b" opacity="1.00" d=" M 528.74 132.68 C 532.89 129.11 538.73 128.63 543.98 128.89 C 548.57 129.18 553.62 130.59 556.42 134.53 C 559.39 138.50 559.59 143.66 559.88 148.41 C 569.68 148.55 579.49 148.20 589.29 148.59 C 589.35 159.17 589.64 169.76 589.96 180.34 C 580.05 180.48 570.14 180.25 560.25 180.43 C 559.14 184.33 559.75 188.89 557.58 192.61 C 555.17 197.74 549.29 199.89 543.96 200.11 C 538.73 200.34 532.87 199.92 528.74 196.31 C 524.71 192.78 523.91 187.06 523.75 182.01 C 523.74 170.34 523.74 158.67 523.75 147.01 C 523.92 141.94 524.70 136.22 528.74 132.68 Z" />
<path fill="#f7c73b" opacity="1.00" d=" M 419.35 139.41 C 421.67 136.28 425.41 133.89 429.44 134.41 C 429.21 143.63 429.40 152.87 429.35 162.10 C 422.40 162.11 415.46 162.12 408.52 162.09 C 411.83 154.41 414.21 146.15 419.35 139.41 Z" />
</g>
<g id="#ffffffff">
<path fill="#ffffff" opacity="1.00" d=" M 529.72 99.51 C 545.72 98.52 562.48 98.82 577.36 105.49 C 581.44 107.15 584.89 109.92 588.62 112.20 C 588.64 108.95 588.60 105.70 588.56 102.46 C 624.34 102.25 660.14 102.39 695.93 102.23 C 696.02 115.69 696.37 129.19 695.90 142.65 C 684.96 142.64 674.01 142.62 663.07 142.66 C 662.90 139.77 663.13 136.87 663.07 133.97 C 663.10 131.34 660.59 129.20 658.02 129.35 C 648.45 129.25 638.87 129.35 629.29 129.31 C 629.28 136.43 629.32 143.55 629.27 150.66 C 637.44 150.72 645.60 150.60 653.77 150.72 C 653.75 159.66 653.79 168.59 653.74 177.53 C 645.64 177.42 637.54 177.61 629.44 177.41 C 629.11 184.94 629.39 192.48 629.28 200.01 C 638.84 200.18 648.41 200.45 657.98 200.27 C 660.38 200.36 662.88 198.51 663.01 196.02 C 663.24 192.98 663.06 189.92 663.11 186.88 C 674.01 186.69 684.91 186.85 695.81 186.79 C 696.30 200.55 695.87 214.36 696.10 228.14 C 607.24 228.20 518.39 228.15 429.53 228.17 C 429.56 215.17 429.50 202.18 429.57 189.19 C 419.90 189.16 410.22 189.11 400.54 189.21 C 398.03 196.18 395.63 203.19 393.06 210.13 C 391.03 215.04 388.92 220.22 384.78 223.76 C 380.41 227.39 374.46 227.98 369.01 228.17 C 353.94 228.19 338.87 228.11 323.80 228.21 C 316.63 214.98 309.94 201.49 302.79 188.25 C 299.04 181.79 291.07 179.71 284.06 180.35 C 283.59 196.28 283.94 212.23 283.89 228.16 C 267.32 228.14 250.76 228.23 234.20 228.11 C 234.28 218.92 234.25 209.74 234.22 200.55 C 239.06 200.23 243.48 196.05 243.14 191.02 C 243.15 174.90 243.14 158.78 243.14 142.66 C 232.62 142.52 222.08 142.86 211.57 142.48 C 211.13 138.25 213.68 131.53 208.34 129.62 C 203.66 128.91 198.88 129.51 194.17 129.29 C 194.13 150.22 194.14 171.15 194.16 192.08 C 194.17 196.97 198.88 200.25 203.39 200.65 C 203.31 209.82 203.36 218.99 203.35 228.16 C 194.58 228.15 185.81 228.19 177.04 228.16 C 164.45 228.01 153.48 216.51 153.55 204.00 C 153.58 179.10 153.56 154.20 153.56 129.30 C 149.37 129.37 145.18 129.20 140.99 129.35 C 138.78 129.29 136.51 130.78 136.10 133.03 C 135.69 136.22 135.96 139.45 135.89 142.66 C 125.04 142.62 114.19 142.67 103.34 142.63 C 103.38 129.17 103.37 115.71 103.34 102.25 C 169.25 102.21 235.17 102.23 301.08 102.24 C 312.91 102.20 324.88 103.16 336.19 106.83 C 343.70 109.45 351.15 113.62 355.45 120.55 C 360.88 128.96 360.89 139.48 359.95 149.09 C 358.62 159.73 351.27 169.05 341.45 173.20 C 343.36 178.25 346.00 182.97 348.03 187.97 C 349.02 190.67 352.16 192.52 354.94 191.24 C 357.86 189.76 358.39 186.16 359.51 183.41 C 364.90 167.51 370.37 151.65 375.86 135.79 C 380.66 123.56 388.01 110.95 400.61 105.52 C 409.16 101.51 418.77 102.26 427.94 102.23 C 442.00 102.22 456.06 102.24 470.12 102.22 C 470.42 129.16 470.10 156.10 470.27 183.05 C 470.40 186.27 470.55 189.72 472.32 192.54 C 474.22 195.64 479.75 195.47 481.23 192.04 C 483.19 187.64 482.96 182.66 483.08 177.94 C 483.05 165.64 483.08 153.34 483.06 141.03 C 483.11 131.03 485.96 120.45 493.37 113.35 C 502.86 103.75 516.77 100.82 529.72 99.51 M 284.00 129.29 C 283.70 137.12 283.84 144.96 283.92 152.80 C 289.95 152.82 295.98 152.83 302.02 152.81 C 305.92 152.82 309.91 152.16 313.37 150.29 C 320.50 146.40 319.62 133.81 311.73 131.28 C 302.86 128.03 293.22 129.77 284.00 129.29 M 528.74 132.68 C 524.70 136.22 523.92 141.94 523.75 147.01 C 523.74 158.67 523.74 170.34 523.75 182.01 C 523.91 187.06 524.71 192.78 528.74 196.31 C 532.87 199.92 538.73 200.34 543.96 200.11 C 549.29 199.89 555.17 197.74 557.58 192.61 C 559.75 188.89 559.14 184.33 560.25 180.43 C 570.14 180.25 580.05 180.48 589.96 180.34 C 589.64 169.76 589.35 159.17 589.29 148.59 C 579.49 148.20 569.68 148.55 559.88 148.41 C 559.59 143.66 559.39 138.50 556.42 134.53 C 553.62 130.59 548.57 129.18 543.98 128.89 C 538.73 128.63 532.89 129.11 528.74 132.68 M 419.35 139.41 C 414.21 146.15 411.83 154.41 408.52 162.09 C 415.46 162.12 422.40 162.11 429.35 162.10 C 429.40 152.87 429.21 143.63 429.44 134.41 C 425.41 133.89 421.67 136.28 419.35 139.41 Z" />
<path fill="#ffffff" opacity="1.00" d=" M 556.13 273.47 C 560.98 273.28 565.84 273.12 570.68 272.65 C 571.83 289.73 572.58 306.83 573.34 323.93 C 581.81 323.59 590.28 323.22 598.74 322.67 C 599.09 327.01 599.13 331.38 599.52 335.73 C 586.14 336.55 572.75 337.26 559.36 337.77 C 558.47 316.33 557.19 294.90 556.13 273.47 Z" />
<path fill="#ffffff" opacity="1.00" d=" M 512.58 275.71 C 519.08 275.55 525.56 275.13 532.05 274.76 C 539.45 295.98 547.51 316.97 554.93 338.19 C 549.88 338.32 544.83 338.52 539.81 339.01 C 538.25 334.90 536.92 330.71 535.58 326.53 C 528.56 326.92 521.54 327.30 514.52 327.67 C 513.46 331.95 512.57 336.27 511.45 340.53 C 506.41 340.59 501.38 340.79 496.37 341.31 C 501.57 319.40 507.14 297.57 512.58 275.71 M 522.81 288.92 C 521.16 297.78 518.81 306.48 517.15 315.34 C 521.91 314.89 526.69 314.80 531.46 314.46 C 528.38 306.01 526.06 297.30 522.81 288.92 Z" />
<path fill="#ffffff" opacity="1.00" d=" M 460.08 279.42 C 469.68 275.66 480.32 276.90 490.34 277.91 C 490.13 282.24 489.38 286.53 489.23 290.87 C 482.88 290.44 476.47 289.77 470.12 290.55 C 466.97 290.92 463.95 293.53 464.16 296.89 C 464.08 305.31 464.76 313.72 465.24 322.12 C 465.27 325.24 466.70 328.83 470.05 329.62 C 477.02 330.37 484.06 329.09 490.81 327.38 C 492.15 331.61 492.71 336.02 493.73 340.33 C 483.45 342.64 472.33 345.11 462.07 341.56 C 455.36 339.38 451.12 332.69 450.73 325.83 C 450.21 315.56 449.31 305.30 449.32 295.02 C 449.29 288.22 453.85 281.95 460.08 279.42 Z" />
<path fill="#ffffff" opacity="1.00" d=" M 424.65 280.46 C 429.54 280.15 434.43 279.90 439.32 279.54 C 440.65 301.06 441.67 322.59 442.67 344.12 C 437.80 344.32 432.92 344.56 428.04 344.68 C 426.86 323.27 426.06 301.85 424.65 280.46 Z" />
<path fill="#ffffff" opacity="1.00" d=" M 370.56 283.29 C 379.70 282.60 388.87 282.52 398.00 281.81 C 404.37 281.64 411.88 282.47 415.95 288.00 C 420.24 294.13 419.22 301.96 419.69 309.01 C 420.07 314.89 417.25 321.18 411.80 323.82 C 404.33 327.59 395.64 326.76 387.53 327.28 C 387.81 333.80 388.32 340.31 388.55 346.83 C 383.71 347.12 378.88 347.40 374.04 347.67 C 372.53 326.23 371.92 304.74 370.56 283.29 M 386.01 295.62 C 386.39 301.93 386.58 308.26 386.81 314.59 C 391.91 314.15 397.25 314.84 402.16 313.17 C 405.73 311.55 404.70 307.05 404.76 303.93 C 404.76 300.82 404.72 296.33 400.98 295.36 C 396.05 294.30 390.99 295.58 386.01 295.62 Z" />
<path fill="#ffffff" opacity="1.00" d=" M 331.54 284.70 C 339.37 283.46 348.02 283.51 354.96 287.81 C 359.90 290.82 362.77 296.40 363.16 302.08 C 363.64 308.70 363.80 315.35 364.30 321.97 C 364.38 327.55 365.55 333.57 362.74 338.73 C 359.71 345.24 352.64 348.74 345.83 349.75 C 338.05 350.92 329.38 350.83 322.61 346.32 C 317.51 342.99 314.84 336.89 314.64 330.94 C 314.39 325.31 314.22 319.68 313.75 314.06 C 313.82 308.06 312.30 301.67 315.00 296.01 C 317.99 289.58 324.75 285.78 331.54 284.70 M 334.42 297.57 C 331.34 298.13 328.27 300.66 328.26 303.98 C 328.21 312.36 329.00 320.72 329.28 329.09 C 329.29 332.01 330.70 335.06 333.43 336.35 C 336.94 337.85 341.01 337.59 344.60 336.51 C 347.78 335.58 350.26 332.38 349.78 329.00 C 349.55 320.65 349.09 312.30 348.52 303.97 C 348.34 300.90 346.00 298.08 342.97 297.48 C 340.14 297.03 337.23 297.06 334.42 297.57 Z" />
<path fill="#ffffff" opacity="1.00" d=" M 255.84 289.52 C 264.88 288.57 273.99 288.53 283.05 287.87 C 289.72 287.57 297.80 288.31 302.00 294.24 C 305.89 300.41 305.13 308.05 305.57 315.01 C 305.84 321.08 302.67 327.05 297.16 329.77 C 302.80 336.68 308.31 343.70 313.71 350.80 C 307.85 351.08 302.00 351.59 296.13 351.64 C 291.29 345.17 286.13 338.95 281.18 332.56 C 278.47 332.70 275.76 332.82 273.05 332.90 C 273.52 339.47 273.25 346.09 274.11 352.62 C 269.21 353.43 264.23 353.18 259.30 353.62 C 258.15 332.26 257.15 310.87 255.84 289.52 M 271.31 301.55 C 271.54 307.80 271.97 314.04 272.27 320.29 C 277.19 319.59 282.25 320.04 287.10 319.04 C 290.65 318.20 291.19 313.98 290.75 310.96 C 290.44 307.63 290.97 302.55 286.89 301.36 C 281.77 300.40 276.49 301.60 271.31 301.55 Z" />
<path fill="#ffffff" opacity="1.00" d=" M 202.19 292.22 C 218.55 291.18 234.92 290.27 251.30 289.58 C 251.44 293.94 251.69 298.30 251.73 302.67 C 246.02 302.84 240.32 303.28 234.61 303.63 C 235.69 320.68 236.54 337.74 237.39 354.80 C 232.49 355.16 227.58 355.43 222.67 355.54 C 222.01 338.46 220.77 321.40 220.14 304.32 C 214.42 304.57 208.68 304.66 202.98 305.26 C 202.54 300.92 202.40 296.56 202.19 292.22 Z" />
</g>
<g id="#201e21ff">
<path fill="#201e21" opacity="1.00" d=" M 341.98 262.32 C 433.07 257.43 524.19 252.83 615.27 247.88 C 616.58 269.50 617.58 291.18 618.54 312.80 C 619.83 327.53 620.28 342.34 620.95 357.12 C 620.07 357.15 618.32 357.21 617.44 357.24 C 613.84 357.23 610.25 357.42 606.67 357.78 C 585.29 359.15 563.87 359.99 542.47 361.20 C 538.88 361.21 535.30 361.37 531.73 361.74 C 490.33 364.01 448.91 366.13 407.50 368.28 C 403.87 368.24 400.25 368.45 396.65 368.81 C 375.27 370.16 353.86 371.06 332.47 372.22 C 328.87 372.21 325.28 372.40 321.71 372.76 C 280.59 375.01 239.47 377.16 198.34 379.23 C 194.46 379.22 190.59 379.46 186.74 379.84 C 186.06 379.86 184.71 379.90 184.03 379.92 C 182.72 360.04 181.97 340.10 180.86 320.19 C 180.80 316.33 180.65 312.47 180.26 308.62 L 180.20 307.84 C 179.57 295.49 178.79 283.14 178.42 270.78 C 232.95 268.16 287.46 265.06 341.98 262.32 M 556.13 273.47 C 557.19 294.90 558.47 316.33 559.36 337.77 C 572.75 337.26 586.14 336.55 599.52 335.73 C 599.13 331.38 599.09 327.01 598.74 322.67 C 590.28 323.22 581.81 323.59 573.34 323.93 C 572.58 306.83 571.83 289.73 570.68 272.65 C 565.84 273.12 560.98 273.28 556.13 273.47 M 512.58 275.71 C 507.14 297.57 501.57 319.40 496.37 341.31 C 501.38 340.79 506.41 340.59 511.45 340.53 C 512.57 336.27 513.46 331.95 514.52 327.67 C 521.54 327.30 528.56 326.92 535.58 326.53 C 536.92 330.71 538.25 334.90 539.81 339.01 C 544.83 338.52 549.88 338.32 554.93 338.19 C 547.51 316.97 539.45 295.98 532.05 274.76 C 525.56 275.13 519.08 275.55 512.58 275.71 M 460.08 279.42 C 453.85 281.95 449.29 288.22 449.32 295.02 C 449.31 305.30 450.21 315.56 450.73 325.83 C 451.12 332.69 455.36 339.38 462.07 341.56 C 472.33 345.11 483.45 342.64 493.73 340.33 C 492.71 336.02 492.15 331.61 490.81 327.38 C 484.06 329.09 477.02 330.37 470.05 329.62 C 466.70 328.83 465.27 325.24 465.24 322.12 C 464.76 313.72 464.08 305.31 464.16 296.89 C 463.95 293.53 466.97 290.92 470.12 290.55 C 476.47 289.77 482.88 290.44 489.23 290.87 C 489.38 286.53 490.13 282.24 490.34 277.91 C 480.32 276.90 469.68 275.66 460.08 279.42 M 424.65 280.46 C 426.06 301.85 426.86 323.27 428.04 344.68 C 432.92 344.56 437.80 344.32 442.67 344.12 C 441.67 322.59 440.65 301.06 439.32 279.54 C 434.43 279.90 429.54 280.15 424.65 280.46 M 370.56 283.29 C 371.92 304.74 372.53 326.23 374.04 347.67 C 378.88 347.40 383.71 347.12 388.55 346.83 C 388.32 340.31 387.81 333.80 387.53 327.28 C 395.64 326.76 404.33 327.59 411.80 323.82 C 417.25 321.18 420.07 314.89 419.69 309.01 C 419.22 301.96 420.24 294.13 415.95 288.00 C 411.88 282.47 404.37 281.64 398.00 281.81 C 388.87 282.52 379.70 282.60 370.56 283.29 M 331.54 284.70 C 324.75 285.78 317.99 289.58 315.00 296.01 C 312.30 301.67 313.82 308.06 313.75 314.06 C 314.22 319.68 314.39 325.31 314.64 330.94 C 314.84 336.89 317.51 342.99 322.61 346.32 C 329.38 350.83 338.05 350.92 345.83 349.75 C 352.64 348.74 359.71 345.24 362.74 338.73 C 365.55 333.57 364.38 327.55 364.30 321.97 C 363.80 315.35 363.64 308.70 363.16 302.08 C 362.77 296.40 359.90 290.82 354.96 287.81 C 348.02 283.51 339.37 283.46 331.54 284.70 M 255.84 289.52 C 257.15 310.87 258.15 332.26 259.30 353.62 C 264.23 353.18 269.21 353.43 274.11 352.62 C 273.25 346.09 273.52 339.47 273.05 332.90 C 275.76 332.82 278.47 332.70 281.18 332.56 C 286.13 338.95 291.29 345.17 296.13 351.64 C 302.00 351.59 307.85 351.08 313.71 350.80 C 308.31 343.70 302.80 336.68 297.16 329.77 C 302.67 327.05 305.84 321.08 305.57 315.01 C 305.13 308.05 305.89 300.41 302.00 294.24 C 297.80 288.31 289.72 287.57 283.05 287.87 C 273.99 288.53 264.88 288.57 255.84 289.52 M 202.19 292.22 C 202.40 296.56 202.54 300.92 202.98 305.26 C 208.68 304.66 214.42 304.57 220.14 304.32 C 220.77 321.40 222.01 338.46 222.67 355.54 C 227.58 355.43 232.49 355.16 237.39 354.80 C 236.54 337.74 235.69 320.68 234.61 303.63 C 240.32 303.28 246.02 302.84 251.73 302.67 C 251.69 298.30 251.44 293.94 251.30 289.58 C 234.92 290.27 218.55 291.18 202.19 292.22 Z" />
<path fill="#201e21" opacity="1.00" d=" M 522.81 288.92 C 526.06 297.30 528.38 306.01 531.46 314.46 C 526.69 314.80 521.91 314.89 517.15 315.34 C 518.81 306.48 521.16 297.78 522.81 288.92 Z" />
<path fill="#201e21" opacity="1.00" d=" M 386.01 295.62 C 390.99 295.58 396.05 294.30 400.98 295.36 C 404.72 296.33 404.76 300.82 404.76 303.93 C 404.70 307.05 405.73 311.55 402.16 313.17 C 397.25 314.84 391.91 314.15 386.81 314.59 C 386.58 308.26 386.39 301.93 386.01 295.62 Z" />
<path fill="#201e21" opacity="1.00" d=" M 334.42 297.57 C 337.23 297.06 340.14 297.03 342.97 297.48 C 346.00 298.08 348.34 300.90 348.52 303.97 C 349.09 312.30 349.55 320.65 349.78 329.00 C 350.26 332.38 347.78 335.58 344.60 336.51 C 341.01 337.59 336.94 337.85 333.43 336.35 C 330.70 335.06 329.29 332.01 329.28 329.09 C 329.00 320.72 328.21 312.36 328.26 303.98 C 328.27 300.66 331.34 298.13 334.42 297.57 Z" />
<path fill="#201e21" opacity="1.00" d=" M 271.31 301.55 C 276.49 301.60 281.77 300.40 286.89 301.36 C 290.97 302.55 290.44 307.63 290.75 310.96 C 291.19 313.98 290.65 318.20 287.10 319.04 C 282.25 320.04 277.19 319.59 272.27 320.29 C 271.97 314.04 271.54 307.80 271.31 301.55 Z" />
</g>
<g id="#99813b4c">
<path fill="#99813b" opacity="0.30" d=" M 180.26 308.62 C 180.65 312.47 180.80 316.33 180.86 320.19 C 180.26 316.37 180.17 312.48 180.26 308.62 Z" />
<path fill="#99813b" opacity="0.30" d=" M 758.32 337.47 C 760.03 337.54 761.81 337.41 763.41 338.18 C 761.75 338.13 760.10 338.09 758.46 338.05 C 758.47 339.93 758.47 341.81 758.50 343.69 C 760.37 343.56 762.25 343.42 764.13 343.27 C 764.17 341.82 764.21 340.37 764.26 338.93 C 764.34 340.44 764.33 341.94 764.30 343.46 C 762.29 343.73 760.27 343.86 758.25 343.88 C 758.25 341.74 758.27 339.61 758.32 337.47 Z" />
<path fill="#99813b" opacity="0.30" d=" M 606.67 357.78 C 610.25 357.42 613.84 357.23 617.44 357.24 L 618.25 357.24 C 614.42 357.82 610.53 357.93 606.67 357.78 Z" />
<path fill="#99813b" opacity="0.30" d=" M 531.73 361.74 C 535.30 361.37 538.88 361.21 542.47 361.20 L 543.26 361.20 C 539.44 361.73 535.58 361.90 531.73 361.74 Z" />
<path fill="#99813b" opacity="0.30" d=" M 396.65 368.81 C 400.25 368.45 403.87 368.24 407.50 368.28 L 408.32 368.30 C 404.46 368.88 400.54 368.93 396.65 368.81 Z" />
<path fill="#99813b" opacity="0.30" d=" M 321.71 372.76 C 325.28 372.40 328.87 372.21 332.47 372.22 L 333.25 372.23 C 329.43 372.77 325.56 372.89 321.71 372.76 Z" />
<path fill="#99813b" opacity="0.30" d=" M 186.74 379.84 C 190.59 379.46 194.46 379.22 198.34 379.23 L 199.08 379.23 C 195.00 379.87 190.86 379.94 186.74 379.84 Z" />
</g>
</svg>
