<?xml version="1.0" encoding="UTF-8" ?>
<!DOCTYPE svg PUBLIC "-//W3C//DTD SVG 1.1//EN" "http://www.w3.org/Graphics/SVG/1.1/DTD/svg11.dtd">
<svg width="800pt" height="291pt" viewBox="0 0 800 291" version="1.1" xmlns="http://www.w3.org/2000/svg">
<g id="#ffffffff">
<path fill="#ffffff" opacity="1.00" d=" M 370.00 78.88 C 379.50 73.00 391.07 72.07 401.98 72.17 C 413.45 72.17 425.62 74.30 434.72 81.77 C 434.71 79.35 434.71 76.94 434.71 74.52 C 460.73 74.46 486.74 74.49 512.76 74.38 C 512.77 84.15 512.76 93.92 512.76 103.70 C 504.91 103.69 497.05 103.69 489.20 103.70 C 488.92 100.70 490.36 95.67 486.74 94.38 C 479.33 93.87 471.88 94.31 464.46 94.18 C 464.46 99.33 464.46 104.48 464.45 109.63 C 470.41 109.65 476.37 109.63 482.34 109.64 C 482.34 116.17 482.38 122.69 482.31 129.22 C 476.36 129.22 470.40 129.20 464.45 129.23 C 464.46 134.67 464.45 140.10 464.46 145.54 C 470.97 145.50 477.47 145.75 483.98 145.67 C 485.48 145.54 487.44 145.89 488.34 144.32 C 489.75 141.70 489.00 138.55 489.43 135.69 C 497.18 136.56 504.99 135.35 512.76 136.20 C 512.76 146.08 512.75 155.97 512.77 165.86 C 448.24 165.87 383.71 165.86 319.18 165.86 C 319.15 156.42 319.25 146.99 319.25 137.56 C 312.16 137.53 305.06 137.49 297.97 137.58 C 295.21 144.90 293.29 152.63 289.35 159.45 C 286.90 163.83 281.85 165.84 277.01 165.80 C 265.33 165.91 253.64 165.90 241.96 165.79 C 237.08 156.21 232.09 146.67 227.04 137.18 C 224.39 132.26 218.49 130.75 213.30 131.24 C 213.29 142.77 213.28 154.31 213.30 165.84 C 201.21 165.89 189.13 165.85 177.04 165.86 C 176.88 159.18 176.72 152.46 177.23 145.81 C 180.67 145.59 183.82 142.59 183.42 139.00 C 183.41 127.23 183.44 115.46 183.39 103.69 C 175.81 103.67 168.23 103.75 160.65 103.65 C 160.29 100.68 161.76 96.76 159.05 94.58 C 155.32 93.75 151.44 94.29 147.65 94.22 C 147.70 109.18 147.61 124.14 147.69 139.10 C 147.59 142.80 150.84 145.70 154.40 145.92 C 154.47 152.56 154.41 159.21 154.44 165.86 C 148.29 165.84 142.15 165.85 136.01 166.00 C 126.84 166.16 118.52 158.06 118.38 148.91 C 118.31 130.68 118.37 112.44 118.36 94.20 C 114.58 94.31 110.70 93.71 106.99 94.62 C 104.36 96.86 105.83 100.70 105.49 103.67 C 97.57 103.73 89.65 103.66 81.73 103.71 C 81.64 93.95 81.74 84.19 81.68 74.43 C 129.12 74.32 176.57 74.41 224.01 74.39 C 235.10 74.40 246.74 74.96 256.78 80.17 C 263.47 83.52 268.14 90.47 268.56 97.97 C 268.86 103.61 269.09 109.57 266.61 114.81 C 264.37 119.90 259.91 123.63 255.03 126.09 C 256.86 130.16 258.40 134.44 260.79 138.22 C 262.78 140.78 266.53 139.04 267.16 136.25 C 271.53 123.84 275.68 111.34 280.05 98.93 C 282.92 91.55 286.90 84.16 293.44 79.43 C 298.19 75.96 304.12 74.39 309.96 74.41 C 322.86 74.35 335.77 74.40 348.67 74.39 C 348.67 93.92 348.65 113.45 348.67 132.98 C 348.85 135.76 348.92 139.02 351.09 141.08 C 352.87 142.13 355.89 141.93 356.73 139.74 C 357.95 137.00 357.96 133.93 358.19 131.00 C 358.33 120.67 358.12 110.33 358.28 100.00 C 358.46 91.63 362.74 83.26 370.00 78.88 M 393.23 95.20 C 388.92 97.32 387.53 102.52 387.63 106.97 C 387.69 115.98 387.57 124.99 387.68 134.00 C 387.61 139.05 390.81 144.23 396.00 145.21 C 400.87 145.85 406.72 146.21 410.54 142.51 C 413.56 139.69 413.80 135.31 413.77 131.46 C 421.08 131.11 428.41 131.44 435.73 131.27 C 435.63 123.57 435.37 115.88 435.45 108.18 C 428.27 107.32 421.01 108.06 413.81 107.76 C 413.92 103.20 413.04 97.76 408.63 95.38 C 403.88 93.11 398.03 93.10 393.23 95.20 M 213.30 94.16 C 213.29 99.88 213.26 105.59 213.33 111.31 C 220.13 110.92 227.31 112.38 233.80 109.76 C 239.70 107.41 239.59 97.71 233.61 95.54 C 227.13 93.18 220.05 94.53 213.30 94.16 M 312.02 100.99 C 308.13 105.93 306.13 112.03 303.98 117.86 C 308.95 117.80 313.93 118.08 318.90 117.73 C 319.55 115.26 319.08 112.60 319.19 110.05 C 319.00 105.77 319.72 101.40 318.59 97.21 C 316.15 97.96 313.57 98.81 312.02 100.99 Z" />
<path fill="#ffffff" opacity="1.00" d=" M 608.39 75.25 C 613.30 75.16 618.22 75.21 623.13 75.17 C 623.52 87.03 623.18 98.90 623.30 110.76 C 633.13 110.86 642.96 110.77 652.79 110.78 C 652.93 98.93 652.53 87.06 652.99 75.21 C 657.89 75.19 662.80 75.18 667.70 75.21 C 667.73 105.41 667.71 135.60 667.71 165.80 C 662.79 165.84 657.86 165.84 652.94 165.78 C 652.57 152.67 652.95 139.55 652.75 126.44 C 642.94 126.45 633.14 126.45 623.33 126.44 C 623.17 139.57 623.49 152.70 623.17 165.83 C 618.24 165.82 613.31 165.86 608.39 165.77 C 608.42 135.60 608.40 105.42 608.39 75.25 Z" />
<path fill="#ffffff" opacity="1.00" d=" M 683.20 75.21 C 695.09 75.35 707.00 74.86 718.88 75.49 C 727.97 76.09 735.48 82.65 739.47 90.49 C 745.74 102.60 745.99 116.69 745.22 130.00 C 744.08 139.58 741.54 149.58 735.06 157.01 C 729.40 163.57 720.46 166.22 712.01 165.84 C 702.40 165.79 692.79 165.86 683.18 165.80 C 683.19 135.60 683.17 105.41 683.20 75.21 M 698.27 91.13 C 697.13 98.03 698.49 105.04 698.18 111.99 C 697.94 124.80 698.32 137.60 698.07 150.41 C 704.04 150.74 710.06 150.74 716.01 150.11 C 720.51 149.63 724.71 146.78 726.51 142.57 C 730.65 133.25 729.67 122.81 729.61 112.89 C 729.32 104.96 727.00 95.38 718.97 91.94 C 712.49 89.80 705.50 90.67 698.80 90.62 L 698.27 91.13 Z" />
<path fill="#ffffff" opacity="1.00" d=" M 388.18 201.84 C 391.52 201.71 394.86 201.59 398.20 201.54 C 398.65 217.15 399.82 232.71 400.49 248.31 C 396.06 248.45 391.64 248.80 387.20 248.76 C 381.79 238.98 376.37 229.20 370.69 219.57 C 371.47 229.58 371.66 239.61 372.36 249.62 C 369.00 249.83 365.66 250.17 362.30 250.39 C 361.02 234.79 360.62 219.12 359.63 203.50 C 363.91 203.34 368.20 203.22 372.44 202.63 C 378.26 212.91 383.85 223.33 389.35 233.78 C 389.16 223.13 388.02 212.50 388.18 201.84 Z" />
<path fill="#ffffff" opacity="1.00" d=" M 327.85 205.37 C 332.60 204.81 337.37 204.54 342.15 204.48 C 347.62 219.85 353.33 235.13 358.83 250.49 C 355.11 250.63 351.40 250.76 347.68 250.89 C 346.71 248.08 345.73 245.28 345.05 242.39 C 339.87 242.14 334.70 242.75 329.52 242.74 C 328.53 245.85 327.94 249.06 327.28 252.24 C 323.58 252.35 319.88 252.50 316.19 252.66 C 320.03 236.88 324.06 221.16 327.85 205.37 M 335.81 214.57 C 333.84 220.84 332.83 227.35 331.30 233.72 C 334.76 233.62 338.22 233.49 341.67 233.35 C 339.83 227.05 337.32 220.96 335.81 214.57 Z" />
<path fill="#ffffff" opacity="1.00" d=" M 279.42 207.66 C 284.23 207.34 289.09 207.57 293.88 206.88 C 298.87 206.70 304.71 205.84 308.83 209.34 C 312.69 212.75 311.67 218.42 311.79 223.01 C 311.88 225.58 309.65 227.17 308.05 228.83 C 311.64 229.87 314.52 233.11 314.51 236.94 C 314.58 240.88 315.50 245.45 312.81 248.78 C 310.19 252.48 305.30 253.42 301.06 253.52 C 294.60 253.63 288.18 254.47 281.71 254.46 C 281.22 238.84 280.07 223.27 279.42 207.66 M 290.50 215.73 C 290.70 219.31 290.43 222.95 291.41 226.44 C 294.35 226.28 297.27 225.92 300.16 225.35 C 300.50 224.81 301.16 223.74 301.50 223.21 C 301.43 220.65 301.31 218.05 300.18 215.71 C 296.96 215.44 293.72 215.56 290.50 215.73 M 291.49 234.62 C 291.75 238.22 291.31 241.94 292.45 245.43 C 296.08 244.91 300.38 245.71 303.42 243.25 C 304.50 240.61 304.53 236.56 302.13 234.68 C 298.65 233.89 295.02 234.64 291.49 234.62 Z" />
<path fill="#ffffff" opacity="1.00" d=" M 236.33 209.80 C 243.21 209.58 250.10 209.43 256.96 208.90 C 262.21 208.71 268.62 210.05 270.77 215.52 C 272.32 220.18 272.35 225.24 272.25 230.12 C 272.12 233.98 269.75 237.48 266.34 239.25 C 270.09 244.50 274.19 249.50 278.25 254.51 C 274.05 254.82 269.87 255.36 265.65 255.39 C 261.82 250.78 258.28 245.94 254.41 241.37 C 252.47 241.50 250.52 241.60 248.58 241.70 C 248.66 244.48 248.73 247.26 248.90 250.04 C 249.22 252.11 249.33 254.20 249.41 256.30 C 245.82 256.38 242.23 256.57 238.64 256.72 C 237.99 241.07 236.83 225.45 236.33 209.80 M 247.44 218.79 C 247.73 223.37 247.39 228.02 248.35 232.54 C 252.33 232.32 256.35 232.28 260.24 231.29 C 261.28 229.73 261.76 227.91 261.57 226.03 C 261.44 223.49 261.71 220.07 259.03 218.73 C 255.18 218.21 251.30 218.76 247.44 218.79 Z" />
<path fill="#ffffff" opacity="1.00" d=" M 218.67 210.80 C 222.26 210.69 225.85 210.54 229.44 210.37 C 229.70 219.94 230.63 229.48 230.78 239.05 C 230.79 243.56 231.75 248.75 228.61 252.52 C 224.81 257.62 218.01 258.97 212.00 258.75 C 206.90 258.92 201.30 257.19 198.31 252.80 C 195.66 249.10 195.76 244.37 195.56 240.02 C 195.37 230.75 194.30 221.53 194.35 212.25 C 197.79 212.02 201.22 211.73 204.66 211.56 C 205.69 219.99 205.33 228.51 206.19 236.95 C 206.54 240.72 205.93 244.75 207.92 248.17 C 211.31 249.71 215.68 250.00 218.80 247.72 C 221.33 245.52 220.20 241.88 220.31 238.98 C 219.49 229.60 219.42 220.18 218.67 210.80 Z" />
</g>
<g id="#e8711cff">
<path fill="#e8711c" opacity="1.00" d=" M 21.38 14.36 C 166.92 14.34 312.45 14.35 457.98 14.35 C 496.38 14.41 534.79 14.24 573.19 14.43 C 573.11 84.25 573.20 154.07 573.15 223.89 C 520.40 223.67 467.64 223.93 414.89 223.76 C 414.19 210.71 413.83 197.63 412.70 184.62 C 334.35 189.05 255.95 192.83 177.60 197.13 C 178.22 206.01 178.41 214.91 179.17 223.77 C 126.58 223.85 73.98 223.79 21.39 223.81 C 21.39 153.99 21.40 84.17 21.38 14.36 M 370.00 78.88 C 362.74 83.26 358.46 91.63 358.28 100.00 C 358.12 110.33 358.33 120.67 358.19 131.00 C 357.96 133.93 357.95 137.00 356.73 139.74 C 355.89 141.93 352.87 142.13 351.09 141.08 C 348.92 139.02 348.85 135.76 348.67 132.98 C 348.65 113.45 348.67 93.92 348.67 74.39 C 335.77 74.40 322.86 74.35 309.96 74.41 C 304.12 74.39 298.19 75.96 293.44 79.43 C 286.90 84.16 282.92 91.55 280.05 98.93 C 275.68 111.34 271.53 123.84 267.16 136.25 C 266.53 139.04 262.78 140.78 260.79 138.22 C 258.40 134.44 256.86 130.16 255.03 126.09 C 259.91 123.63 264.37 119.90 266.61 114.81 C 269.09 109.57 268.86 103.61 268.56 97.97 C 268.14 90.47 263.47 83.52 256.78 80.17 C 246.74 74.96 235.10 74.40 224.01 74.39 C 176.57 74.41 129.12 74.32 81.68 74.43 C 81.74 84.19 81.64 93.95 81.73 103.71 C 89.65 103.66 97.57 103.73 105.49 103.67 C 105.83 100.70 104.36 96.86 106.99 94.62 C 110.70 93.71 114.58 94.31 118.36 94.20 C 118.37 112.44 118.31 130.68 118.38 148.91 C 118.52 158.06 126.84 166.16 136.01 166.00 C 142.15 165.85 148.29 165.84 154.44 165.86 C 154.41 159.21 154.47 152.56 154.40 145.92 C 150.84 145.70 147.59 142.80 147.69 139.10 C 147.61 124.14 147.70 109.18 147.65 94.22 C 151.44 94.29 155.32 93.75 159.05 94.58 C 161.76 96.76 160.29 100.68 160.65 103.65 C 168.23 103.75 175.81 103.67 183.39 103.69 C 183.44 115.46 183.41 127.23 183.42 139.00 C 183.82 142.59 180.67 145.59 177.23 145.81 C 176.72 152.46 176.88 159.18 177.04 165.86 C 189.13 165.85 201.21 165.89 213.30 165.84 C 213.28 154.31 213.29 142.77 213.30 131.24 C 218.49 130.75 224.39 132.26 227.04 137.18 C 232.09 146.67 237.08 156.21 241.96 165.79 C 253.64 165.90 265.33 165.91 277.01 165.80 C 281.85 165.84 286.90 163.83 289.35 159.45 C 293.29 152.63 295.21 144.90 297.97 137.58 C 305.06 137.49 312.16 137.53 319.25 137.56 C 319.25 146.99 319.15 156.42 319.18 165.86 C 383.71 165.86 448.24 165.87 512.77 165.86 C 512.75 155.97 512.76 146.08 512.76 136.20 C 504.99 135.35 497.18 136.56 489.43 135.69 C 489.00 138.55 489.75 141.70 488.34 144.32 C 487.44 145.89 485.48 145.54 483.98 145.67 C 477.47 145.75 470.97 145.50 464.46 145.54 C 464.45 140.10 464.46 134.67 464.45 129.23 C 470.40 129.20 476.36 129.22 482.31 129.22 C 482.38 122.69 482.34 116.17 482.34 109.64 C 476.37 109.63 470.41 109.65 464.45 109.63 C 464.46 104.48 464.46 99.33 464.46 94.18 C 471.88 94.31 479.33 93.87 486.74 94.38 C 490.36 95.67 488.92 100.70 489.20 103.70 C 497.05 103.69 504.91 103.69 512.76 103.70 C 512.76 93.92 512.77 84.15 512.76 74.38 C 486.74 74.49 460.73 74.46 434.71 74.52 C 434.71 76.94 434.71 79.35 434.72 81.77 C 425.62 74.30 413.45 72.17 401.98 72.17 C 391.07 72.07 379.50 73.00 370.00 78.88 Z" />
<path fill="#e8711c" opacity="1.00" d=" M 393.23 95.20 C 398.03 93.10 403.88 93.11 408.63 95.38 C 413.04 97.76 413.92 103.20 413.81 107.76 C 421.01 108.06 428.27 107.32 435.45 108.18 C 435.37 115.88 435.63 123.57 435.73 131.27 C 428.41 131.44 421.08 131.11 413.77 131.46 C 413.80 135.31 413.56 139.69 410.54 142.51 C 406.72 146.21 400.87 145.85 396.00 145.21 C 390.81 144.23 387.61 139.05 387.68 134.00 C 387.57 124.99 387.69 115.98 387.63 106.97 C 387.53 102.52 388.92 97.32 393.23 95.20 Z" />
<path fill="#e8711c" opacity="1.00" d=" M 213.30 94.16 C 220.05 94.53 227.13 93.18 233.61 95.54 C 239.59 97.71 239.70 107.41 233.80 109.76 C 227.31 112.38 220.13 110.92 213.33 111.31 C 213.26 105.59 213.29 99.88 213.30 94.16 Z" />
<path fill="#e8711c" opacity="1.00" d=" M 312.02 100.99 C 313.57 98.81 316.15 97.96 318.59 97.21 C 319.72 101.40 319.00 105.77 319.19 110.05 C 319.08 112.60 319.55 115.26 318.90 117.73 C 313.93 118.08 308.95 117.80 303.98 117.86 C 306.13 112.03 308.13 105.93 312.02 100.99 Z" />
</g>
<g id="#cdcdcdff">
<path fill="#cdcdcd" opacity="1.00" d=" M 573.19 14.43 C 641.52 14.75 709.85 14.40 778.18 14.61 C 778.21 84.41 778.22 154.21 778.17 224.01 C 719.79 224.28 661.40 224.05 603.01 224.12 C 593.06 223.98 583.09 224.42 573.15 223.89 C 573.20 154.07 573.11 84.25 573.19 14.43 M 608.39 75.25 C 608.40 105.42 608.42 135.60 608.39 165.77 C 613.31 165.86 618.24 165.82 623.17 165.83 C 623.49 152.70 623.17 139.57 623.33 126.44 C 633.14 126.45 642.94 126.45 652.75 126.44 C 652.95 139.55 652.57 152.67 652.94 165.78 C 657.86 165.84 662.79 165.84 667.71 165.80 C 667.71 135.60 667.73 105.41 667.70 75.21 C 662.80 75.18 657.89 75.19 652.99 75.21 C 652.53 87.06 652.93 98.93 652.79 110.78 C 642.96 110.77 633.13 110.86 623.30 110.76 C 623.18 98.90 623.52 87.03 623.13 75.17 C 618.22 75.21 613.30 75.16 608.39 75.25 M 683.20 75.21 C 683.17 105.41 683.19 135.60 683.18 165.80 C 692.79 165.86 702.40 165.79 712.01 165.84 C 720.46 166.22 729.40 163.57 735.06 157.01 C 741.54 149.58 744.08 139.58 745.22 130.00 C 745.99 116.69 745.74 102.60 739.47 90.49 C 735.48 82.65 727.97 76.09 718.88 75.49 C 707.00 74.86 695.09 75.35 683.20 75.21 Z" />
<path fill="#cdcdcd" opacity="1.00" d=" M 698.27 91.13 L 698.80 90.62 C 705.50 90.67 712.49 89.80 718.97 91.94 C 727.00 95.38 729.32 104.96 729.61 112.89 C 729.67 122.81 730.65 133.25 726.51 142.57 C 724.71 146.78 720.51 149.63 716.01 150.11 C 710.06 150.74 704.04 150.74 698.07 150.41 C 698.32 137.60 697.94 124.80 698.18 111.99 C 698.49 105.04 697.13 98.03 698.27 91.13 Z" />
</g>
<g id="#201e21ff">
<path fill="#201e21" opacity="1.00" d=" M 177.60 197.13 C 255.95 192.83 334.35 189.05 412.70 184.62 C 413.83 197.63 414.19 210.71 414.89 223.76 C 415.60 231.78 415.27 239.86 416.13 247.86 C 416.17 253.30 416.98 258.72 416.64 264.16 C 404.69 264.35 392.77 265.43 380.83 265.88 C 358.51 267.14 336.18 268.09 313.87 269.48 C 310.29 269.58 306.68 269.45 303.14 270.11 C 277.79 271.24 252.43 272.47 227.12 274.11 C 211.99 274.72 196.87 275.36 181.77 276.47 C 181.28 258.88 179.82 241.35 179.17 223.77 C 178.41 214.91 178.22 206.01 177.60 197.13 M 388.18 201.84 C 388.02 212.50 389.16 223.13 389.35 233.78 C 383.85 223.33 378.26 212.91 372.44 202.63 C 368.20 203.22 363.91 203.34 359.63 203.50 C 360.62 219.12 361.02 234.79 362.30 250.39 C 365.66 250.17 369.00 249.83 372.36 249.62 C 371.66 239.61 371.47 229.58 370.69 219.57 C 376.37 229.20 381.79 238.98 387.20 248.76 C 391.64 248.80 396.06 248.45 400.49 248.31 C 399.82 232.71 398.65 217.15 398.20 201.54 C 394.86 201.59 391.52 201.71 388.18 201.84 M 327.85 205.37 C 324.06 221.16 320.03 236.88 316.19 252.66 C 319.88 252.50 323.58 252.35 327.28 252.24 C 327.94 249.06 328.53 245.85 329.52 242.74 C 334.70 242.75 339.87 242.14 345.05 242.39 C 345.73 245.28 346.71 248.08 347.68 250.89 C 351.40 250.76 355.11 250.63 358.83 250.49 C 353.33 235.13 347.62 219.85 342.15 204.48 C 337.37 204.54 332.60 204.81 327.85 205.37 M 279.42 207.66 C 280.07 223.27 281.22 238.84 281.71 254.46 C 288.18 254.47 294.60 253.63 301.06 253.52 C 305.30 253.42 310.19 252.48 312.81 248.78 C 315.50 245.45 314.58 240.88 314.51 236.94 C 314.52 233.11 311.64 229.87 308.05 228.83 C 309.65 227.17 311.88 225.58 311.79 223.01 C 311.67 218.42 312.69 212.75 308.83 209.34 C 304.71 205.84 298.87 206.70 293.88 206.88 C 289.09 207.57 284.23 207.34 279.42 207.66 M 236.33 209.80 C 236.83 225.45 237.99 241.07 238.64 256.72 C 242.23 256.57 245.82 256.38 249.41 256.30 C 249.33 254.20 249.22 252.11 248.90 250.04 C 248.73 247.26 248.66 244.48 248.58 241.70 C 250.52 241.60 252.47 241.50 254.41 241.37 C 258.28 245.94 261.82 250.78 265.65 255.39 C 269.87 255.36 274.05 254.82 278.25 254.51 C 274.19 249.50 270.09 244.50 266.34 239.25 C 269.75 237.48 272.12 233.98 272.25 230.12 C 272.35 225.24 272.32 220.18 270.77 215.52 C 268.62 210.05 262.21 208.71 256.96 208.90 C 250.10 209.43 243.21 209.58 236.33 209.80 M 218.67 210.80 C 219.42 220.18 219.49 229.60 220.31 238.98 C 220.20 241.88 221.33 245.52 218.80 247.72 C 215.68 250.00 211.31 249.71 207.92 248.17 C 205.93 244.75 206.54 240.72 206.19 236.95 C 205.33 228.51 205.69 219.99 204.66 211.56 C 201.22 211.73 197.79 212.02 194.35 212.25 C 194.30 221.53 195.37 230.75 195.56 240.02 C 195.76 244.37 195.66 249.10 198.31 252.80 C 201.30 257.19 206.90 258.92 212.00 258.75 C 218.01 258.97 224.81 257.62 228.61 252.52 C 231.75 248.75 230.79 243.56 230.78 239.05 C 230.63 229.48 229.70 219.94 229.44 210.37 C 225.85 210.54 222.26 210.69 218.67 210.80 Z" />
<path fill="#201e21" opacity="1.00" d=" M 335.81 214.57 C 337.32 220.96 339.83 227.05 341.67 233.35 C 338.22 233.49 334.76 233.62 331.30 233.72 C 332.83 227.35 333.84 220.84 335.81 214.57 Z" />
<path fill="#201e21" opacity="1.00" d=" M 290.50 215.73 C 293.72 215.56 296.96 215.44 300.18 215.71 C 301.31 218.05 301.43 220.65 301.50 223.21 C 301.16 223.74 300.50 224.81 300.16 225.35 C 297.27 225.92 294.35 226.28 291.41 226.44 C 290.43 222.95 290.70 219.31 290.50 215.73 Z" />
<path fill="#201e21" opacity="1.00" d=" M 247.44 218.79 C 251.30 218.76 255.18 218.21 259.03 218.73 C 261.71 220.07 261.44 223.49 261.57 226.03 C 261.76 227.91 261.28 229.73 260.24 231.29 C 256.35 232.28 252.33 232.32 248.35 232.54 C 247.39 228.02 247.73 223.37 247.44 218.79 Z" />
<path fill="#201e21" opacity="1.00" d=" M 291.49 234.62 C 295.02 234.64 298.65 233.89 302.13 234.68 C 304.53 236.56 304.50 240.61 303.42 243.25 C 300.38 245.71 296.08 244.91 292.45 245.43 C 291.31 241.94 291.75 238.22 291.49 234.62 Z" />
</g>
</svg>
