<?xml version="1.0" encoding="UTF-8" ?>
<!DOCTYPE svg PUBLIC "-//W3C//DTD SVG 1.1//EN" "http://www.w3.org/Graphics/SVG/1.1/DTD/svg11.dtd">
<svg width="800pt" height="380pt" viewBox="0 0 800 380" version="1.1" xmlns="http://www.w3.org/2000/svg">
<g id="#009de0ff">
<path fill="#009de0" opacity="1.00" d=" M 0.00 0.00 L 800.00 0.00 L 800.00 303.89 C 729.94 303.61 659.87 303.85 589.81 303.77 C 588.80 284.39 587.77 265.00 586.78 245.62 C 462.67 252.15 338.56 258.61 214.46 265.19 C 215.17 278.04 215.82 290.90 216.49 303.76 C 144.33 303.75 72.16 303.83 0.00 303.72 L 0.00 0.00 M 504.02 95.09 C 493.89 101.86 488.60 114.08 488.32 126.01 C 488.10 141.00 488.33 156.00 488.20 170.99 C 488.02 174.75 487.85 178.67 486.25 182.15 C 484.53 185.88 478.54 186.01 476.55 182.43 C 474.33 178.37 474.51 173.50 474.37 169.00 C 474.36 141.85 474.36 114.69 474.38 87.54 C 455.93 87.54 437.48 87.52 419.03 87.55 C 409.56 87.52 399.82 90.17 392.53 96.42 C 383.42 104.07 378.01 115.07 374.03 126.06 C 368.33 142.70 362.68 159.35 356.92 175.97 C 355.97 178.30 354.77 181.30 351.91 181.65 C 349.05 182.24 346.48 180.17 345.52 177.60 C 343.40 172.35 340.60 167.41 338.51 162.15 C 345.69 158.99 351.93 153.48 355.27 146.32 C 359.10 138.17 358.98 128.83 358.12 120.06 C 357.12 111.02 351.92 102.66 344.27 97.75 C 332.94 90.47 319.19 88.69 306.03 87.80 C 295.03 87.35 284.01 87.60 273.00 87.54 C 211.29 87.55 149.58 87.51 87.87 87.56 C 87.75 101.64 87.85 115.73 87.82 129.82 C 99.19 129.86 110.57 129.84 121.95 129.83 C 121.96 126.54 121.80 123.23 122.26 119.97 C 122.64 117.33 125.46 115.66 127.99 115.86 C 132.26 115.84 136.53 115.83 140.80 115.95 C 140.84 142.30 140.72 168.66 140.81 195.01 C 141.08 207.91 152.17 219.34 165.05 220.00 C 174.40 220.42 183.78 220.09 193.14 220.17 C 193.16 210.43 193.17 200.70 193.13 190.96 C 188.23 190.99 183.48 187.13 183.43 182.06 C 183.28 160.04 183.45 138.02 183.35 116.00 C 188.49 115.98 193.77 115.38 198.83 116.28 C 204.07 118.64 201.67 125.35 202.16 129.83 C 213.18 129.86 224.20 129.83 235.21 129.84 C 235.22 147.22 235.27 164.60 235.19 181.97 C 235.12 186.96 230.63 190.86 225.78 191.00 C 225.73 200.72 225.75 210.45 225.77 220.17 C 243.23 220.20 260.69 220.20 278.15 220.17 C 278.08 203.34 278.35 186.49 278.01 169.66 C 285.49 168.95 294.15 170.97 298.18 177.92 C 305.71 191.84 312.73 206.04 320.24 219.98 C 330.78 220.48 341.42 220.04 352.01 220.19 C 360.88 220.03 369.99 220.77 378.66 218.44 C 384.91 216.66 388.75 210.92 391.24 205.28 C 395.00 196.65 397.75 187.63 401.05 178.83 C 411.27 178.85 421.49 178.68 431.71 178.91 C 431.64 192.66 431.67 206.41 431.70 220.16 C 525.25 220.20 618.80 220.22 712.36 220.15 C 712.39 205.71 712.38 191.27 712.36 176.83 C 700.85 176.72 689.35 176.78 677.85 176.79 C 677.92 180.18 678.40 183.62 677.75 186.98 C 677.25 189.54 674.46 190.98 672.01 190.73 C 662.08 190.70 652.15 190.68 642.22 190.65 C 642.26 182.66 642.29 174.68 642.21 166.69 C 650.76 166.60 659.31 166.64 667.87 166.68 C 667.95 157.33 667.84 147.98 667.93 138.63 C 659.36 138.59 650.79 138.64 642.22 138.61 C 642.29 131.02 642.22 123.43 642.27 115.84 C 652.19 115.84 662.12 115.84 672.04 115.84 C 674.98 115.57 677.89 117.89 678.02 120.89 C 678.17 123.87 677.94 126.85 677.97 129.83 C 689.43 129.86 700.90 129.83 712.37 129.85 C 712.39 115.74 712.35 101.64 712.39 87.54 C 674.74 87.56 637.09 87.61 599.43 87.61 C 599.42 91.30 599.43 94.99 599.44 98.68 C 585.91 87.03 567.24 84.29 549.97 84.26 C 534.21 84.35 517.37 85.95 504.02 95.09 Z" />
<path fill="#009de0" opacity="1.00" d=" M 278.18 115.84 C 286.44 116.01 294.76 115.30 302.96 116.60 C 307.11 117.31 311.65 119.19 313.37 123.35 C 315.22 127.97 314.64 134.23 310.39 137.37 C 306.55 140.18 301.63 140.60 297.03 140.82 C 290.71 141.29 284.39 140.91 278.07 140.79 C 278.27 132.47 278.09 124.15 278.18 115.84 Z" />
<path fill="#009de0" opacity="1.00" d=" M 535.77 119.79 C 539.75 115.93 545.68 115.32 550.97 115.43 C 556.08 115.48 561.77 116.69 565.13 120.88 C 568.59 125.02 568.96 130.66 569.18 135.81 C 579.49 135.82 589.80 135.80 600.12 135.83 C 600.33 147.16 600.50 158.50 600.79 169.83 C 590.27 169.91 579.75 169.70 569.23 169.96 C 568.94 175.19 568.66 180.91 565.16 185.14 C 561.59 189.63 555.44 190.66 550.04 190.63 C 544.81 190.65 538.95 189.80 535.25 185.74 C 531.60 181.81 530.92 176.15 530.81 171.02 C 530.83 158.70 530.79 146.38 530.83 134.06 C 531.03 129.01 531.90 123.42 535.77 119.79 Z" />
<path fill="#009de0" opacity="1.00" d=" M 421.60 125.59 C 423.98 122.52 427.80 121.01 431.62 120.95 C 431.61 130.87 431.60 140.79 431.63 150.70 C 424.19 150.69 416.75 150.71 409.32 150.68 C 412.92 142.11 415.66 132.91 421.60 125.59 Z" />
</g>
<g id="#ffffffff">
<path fill="#ffffff" opacity="1.00" d=" M 504.02 95.09 C 517.37 85.95 534.21 84.35 549.97 84.26 C 567.24 84.29 585.91 87.03 599.44 98.68 C 599.43 94.99 599.42 91.30 599.43 87.61 C 637.09 87.61 674.74 87.56 712.39 87.54 C 712.35 101.64 712.39 115.74 712.37 129.85 C 700.90 129.83 689.43 129.86 677.97 129.83 C 677.94 126.85 678.17 123.87 678.02 120.89 C 677.89 117.89 674.98 115.57 672.04 115.84 C 662.12 115.84 652.19 115.84 642.27 115.84 C 642.22 123.43 642.29 131.02 642.22 138.61 C 650.79 138.64 659.36 138.59 667.93 138.63 C 667.84 147.98 667.95 157.33 667.87 166.68 C 659.31 166.64 650.76 166.60 642.21 166.69 C 642.29 174.68 642.26 182.66 642.22 190.65 C 652.15 190.68 662.08 190.70 672.01 190.73 C 674.46 190.98 677.25 189.54 677.75 186.98 C 678.40 183.62 677.92 180.18 677.85 176.79 C 689.35 176.78 700.85 176.72 712.36 176.83 C 712.38 191.27 712.39 205.71 712.36 220.15 C 618.80 220.22 525.25 220.20 431.70 220.16 C 431.67 206.41 431.64 192.66 431.71 178.91 C 421.49 178.68 411.27 178.85 401.05 178.83 C 397.75 187.63 395.00 196.65 391.24 205.28 C 388.75 210.92 384.91 216.66 378.66 218.44 C 369.99 220.77 360.88 220.03 352.01 220.19 C 341.42 220.04 330.78 220.48 320.24 219.98 C 312.73 206.04 305.71 191.84 298.18 177.92 C 294.15 170.97 285.49 168.95 278.01 169.66 C 278.35 186.49 278.08 203.34 278.15 220.17 C 260.69 220.20 243.23 220.20 225.77 220.17 C 225.75 210.45 225.73 200.72 225.78 191.00 C 230.63 190.86 235.12 186.96 235.19 181.97 C 235.27 164.60 235.22 147.22 235.21 129.84 C 224.20 129.83 213.18 129.86 202.16 129.83 C 201.67 125.35 204.07 118.64 198.83 116.28 C 193.77 115.38 188.49 115.98 183.35 116.00 C 183.45 138.02 183.28 160.04 183.43 182.06 C 183.48 187.13 188.23 190.99 193.13 190.96 C 193.17 200.70 193.16 210.43 193.14 220.17 C 183.78 220.09 174.40 220.42 165.05 220.00 C 152.17 219.34 141.08 207.91 140.81 195.01 C 140.72 168.66 140.84 142.30 140.80 115.95 C 136.53 115.83 132.26 115.84 127.99 115.86 C 125.46 115.66 122.64 117.33 122.26 119.97 C 121.80 123.23 121.96 126.54 121.95 129.83 C 110.57 129.84 99.19 129.86 87.82 129.82 C 87.85 115.73 87.75 101.64 87.87 87.56 C 149.58 87.51 211.29 87.55 273.00 87.54 C 284.01 87.60 295.03 87.35 306.03 87.80 C 319.19 88.69 332.94 90.47 344.27 97.75 C 351.92 102.66 357.12 111.02 358.12 120.06 C 358.98 128.83 359.10 138.17 355.27 146.32 C 351.93 153.48 345.69 158.99 338.51 162.15 C 340.60 167.41 343.40 172.35 345.52 177.60 C 346.48 180.17 349.05 182.24 351.91 181.65 C 354.77 181.30 355.97 178.30 356.92 175.97 C 362.68 159.35 368.33 142.70 374.03 126.06 C 378.01 115.07 383.42 104.07 392.53 96.42 C 399.82 90.17 409.56 87.52 419.03 87.55 C 437.48 87.52 455.93 87.54 474.38 87.54 C 474.36 114.69 474.36 141.85 474.37 169.00 C 474.51 173.50 474.33 178.37 476.55 182.43 C 478.54 186.01 484.53 185.88 486.25 182.15 C 487.85 178.67 488.02 174.75 488.20 170.99 C 488.33 156.00 488.10 141.00 488.32 126.01 C 488.60 114.08 493.89 101.86 504.02 95.09 M 278.18 115.84 C 278.09 124.15 278.27 132.47 278.07 140.79 C 284.39 140.91 290.71 141.29 297.03 140.82 C 301.63 140.60 306.55 140.18 310.39 137.37 C 314.64 134.23 315.22 127.97 313.37 123.35 C 311.65 119.19 307.11 117.31 302.96 116.60 C 294.76 115.30 286.44 116.01 278.18 115.84 M 535.77 119.79 C 531.90 123.42 531.03 129.01 530.83 134.06 C 530.79 146.38 530.83 158.70 530.81 171.02 C 530.92 176.15 531.60 181.81 535.25 185.74 C 538.95 189.80 544.81 190.65 550.04 190.63 C 555.44 190.66 561.59 189.63 565.16 185.14 C 568.66 180.91 568.94 175.19 569.23 169.96 C 579.75 169.70 590.27 169.91 600.79 169.83 C 600.50 158.50 600.33 147.16 600.12 135.83 C 589.80 135.80 579.49 135.82 569.18 135.81 C 568.96 130.66 568.59 125.02 565.13 120.88 C 561.77 116.69 556.08 115.48 550.97 115.43 C 545.68 115.32 539.75 115.93 535.77 119.79 M 421.60 125.59 C 415.66 132.91 412.92 142.11 409.32 150.68 C 416.75 150.71 424.19 150.69 431.63 150.70 C 431.60 140.79 431.61 130.87 431.62 120.95 C 427.80 121.01 423.98 122.52 421.60 125.59 Z" />
<path fill="#ffffff" opacity="1.00" d=" M 532.13 272.54 C 542.76 269.58 554.00 270.29 564.82 271.65 C 564.73 275.94 564.31 280.21 564.13 284.50 C 556.43 283.82 548.60 282.70 540.92 284.11 C 538.57 284.38 537.00 286.68 537.28 288.97 C 537.41 291.68 536.97 295.65 540.21 296.75 C 548.05 299.36 556.96 299.19 564.03 303.93 C 568.22 306.83 568.46 312.34 568.76 316.94 C 568.90 322.33 569.47 328.43 566.00 332.99 C 562.51 337.57 556.52 339.06 551.08 339.69 C 541.78 341.02 532.13 340.28 523.28 337.05 C 523.87 333.10 524.61 329.18 525.04 325.21 C 533.41 326.76 542.14 328.50 550.58 326.39 C 554.95 324.81 553.75 319.28 553.23 315.72 C 551.60 311.83 546.52 312.18 543.05 311.22 C 536.50 309.75 528.04 309.40 524.38 302.81 C 521.85 296.90 521.93 290.19 522.34 283.89 C 522.59 278.38 526.94 273.90 532.13 272.54 Z" />
<path fill="#ffffff" opacity="1.00" d=" M 463.39 275.93 C 480.49 275.45 497.56 274.20 514.65 273.45 C 514.75 277.91 515.15 282.35 515.36 286.80 C 509.33 287.44 503.26 287.44 497.22 287.83 C 498.18 305.81 499.05 323.80 500.09 341.78 C 495.02 342.34 489.92 342.34 484.84 342.67 C 484.00 324.67 482.88 306.68 482.10 288.68 C 476.01 288.83 469.94 289.43 463.85 289.58 C 463.77 285.03 463.22 280.49 463.39 275.93 Z" />
<path fill="#ffffff" opacity="1.00" d=" M 407.07 278.47 C 418.04 278.11 429.00 276.98 439.99 277.12 C 445.42 277.18 451.37 278.73 454.84 283.23 C 458.15 287.74 458.42 293.60 458.66 298.99 C 458.85 304.08 459.45 309.54 456.98 314.22 C 455.56 317.23 452.77 319.25 449.95 320.84 C 455.70 328.24 461.85 335.38 467.19 343.09 C 461.24 343.30 455.30 343.72 449.35 343.87 C 444.05 337.13 438.74 330.40 433.38 323.71 C 430.43 323.89 427.49 324.13 424.54 324.28 C 424.85 331.27 425.39 338.24 425.63 345.23 C 420.57 345.45 415.51 345.75 410.44 345.92 C 409.41 323.43 407.92 300.96 407.07 278.47 M 422.76 291.24 C 423.28 297.80 423.51 304.37 423.83 310.94 C 429.39 310.47 435.21 311.21 440.58 309.48 C 444.27 307.93 443.66 303.25 443.53 300.00 C 443.41 296.62 443.33 291.68 439.16 290.82 C 433.72 290.17 428.21 290.95 422.76 291.24 Z" />
<path fill="#ffffff" opacity="1.00" d=" M 364.43 280.72 C 373.52 278.68 383.96 278.45 392.00 283.81 C 397.35 287.31 399.98 293.71 400.21 299.92 C 400.54 309.29 401.32 318.64 401.56 328.02 C 401.74 334.89 397.97 341.69 391.87 344.95 C 383.78 349.39 373.90 349.98 365.00 348.04 C 357.28 346.29 350.64 339.98 349.65 331.94 C 348.69 321.99 348.59 311.98 347.89 302.01 C 347.74 297.34 348.75 292.41 351.68 288.66 C 354.76 284.54 359.55 282.03 364.43 280.72 M 369.37 293.60 C 365.96 294.30 363.08 297.36 363.19 300.95 C 363.40 310.01 364.07 319.06 364.54 328.12 C 364.68 332.02 368.15 335.19 371.99 335.40 C 376.03 335.73 380.61 335.62 383.90 332.93 C 386.47 330.75 386.52 327.14 386.26 324.05 C 385.66 316.35 385.51 308.63 385.00 300.93 C 384.94 298.10 383.43 295.35 380.87 294.05 C 377.27 292.42 373.13 292.69 369.37 293.60 Z" />
<path fill="#ffffff" opacity="1.00" d=" M 294.37 284.81 C 304.59 284.48 314.80 283.55 325.03 283.39 C 331.18 283.33 338.22 284.64 342.01 289.99 C 345.95 295.87 345.33 303.30 345.75 310.04 C 346.30 316.28 344.35 323.40 338.58 326.68 C 330.55 331.26 320.95 330.27 312.09 331.07 C 312.40 337.88 312.52 344.71 313.17 351.50 C 308.05 351.73 302.95 352.17 297.84 352.35 C 296.80 329.83 295.49 307.32 294.37 284.81 M 310.21 297.54 C 310.59 304.31 310.96 311.08 311.31 317.85 C 316.73 317.34 322.38 318.03 327.61 316.31 C 331.43 314.45 330.48 309.53 330.42 306.07 C 330.28 302.94 330.23 298.40 326.51 297.37 C 321.16 296.18 315.64 297.64 310.21 297.54 Z" />
<path fill="#ffffff" opacity="1.00" d=" M 241.27 292.32 C 244.53 288.24 249.93 287.02 254.85 286.35 C 263.63 285.09 272.54 285.65 281.29 286.85 C 281.00 291.12 280.65 295.38 280.43 299.65 C 272.68 298.98 264.80 297.82 257.07 299.33 C 254.86 299.60 253.43 301.83 253.61 303.96 C 253.65 306.86 253.37 311.19 256.96 312.07 C 264.17 314.30 272.06 314.46 278.83 318.08 C 281.86 319.63 284.03 322.68 284.44 326.07 C 285.28 332.35 286.06 338.96 284.04 345.10 C 282.11 350.37 276.65 353.16 271.45 354.20 C 260.89 356.26 249.74 355.93 239.58 352.19 C 240.29 348.20 240.85 344.19 241.54 340.20 C 249.87 342.15 258.74 343.61 267.17 341.46 C 270.97 339.94 270.23 335.06 269.75 331.83 C 269.73 329.77 267.94 328.42 266.14 327.88 C 258.89 325.70 250.82 325.85 244.19 321.87 C 239.58 318.90 239.01 312.94 238.57 307.99 C 238.30 302.73 237.85 296.73 241.27 292.32 Z" />
</g>
<g id="#000000ff">
<path fill="#000000" opacity="1.00" d=" M 214.46 265.19 C 338.56 258.61 462.67 252.15 586.78 245.62 C 587.77 265.00 588.80 284.39 589.81 303.77 C 590.92 322.66 591.77 341.56 592.85 360.45 C 469.03 367.01 345.21 373.39 221.39 380.00 L 220.48 380.00 C 219.15 354.59 217.76 329.17 216.49 303.76 C 215.82 290.90 215.17 278.04 214.46 265.19 M 532.13 272.54 C 526.94 273.90 522.59 278.38 522.34 283.89 C 521.93 290.19 521.85 296.90 524.38 302.81 C 528.04 309.40 536.50 309.75 543.05 311.22 C 546.52 312.18 551.60 311.83 553.23 315.72 C 553.75 319.28 554.95 324.81 550.58 326.39 C 542.14 328.50 533.41 326.76 525.04 325.21 C 524.61 329.18 523.87 333.10 523.28 337.05 C 532.13 340.28 541.78 341.02 551.08 339.69 C 556.52 339.06 562.51 337.57 566.00 332.99 C 569.47 328.43 568.90 322.33 568.76 316.94 C 568.46 312.34 568.22 306.83 564.03 303.93 C 556.96 299.19 548.05 299.36 540.21 296.75 C 536.97 295.65 537.41 291.68 537.28 288.97 C 537.00 286.68 538.57 284.38 540.92 284.11 C 548.60 282.70 556.43 283.82 564.13 284.50 C 564.31 280.21 564.73 275.94 564.82 271.65 C 554.00 270.29 542.76 269.58 532.13 272.54 M 463.39 275.93 C 463.22 280.49 463.77 285.03 463.85 289.58 C 469.94 289.43 476.01 288.83 482.10 288.68 C 482.88 306.68 484.00 324.67 484.84 342.67 C 489.92 342.34 495.02 342.34 500.09 341.78 C 499.05 323.80 498.18 305.81 497.22 287.83 C 503.26 287.44 509.33 287.44 515.36 286.80 C 515.15 282.35 514.75 277.91 514.65 273.45 C 497.56 274.20 480.49 275.45 463.39 275.93 M 407.07 278.47 C 407.92 300.96 409.41 323.43 410.44 345.92 C 415.51 345.75 420.57 345.45 425.63 345.23 C 425.39 338.24 424.85 331.27 424.54 324.28 C 427.49 324.13 430.43 323.89 433.38 323.71 C 438.74 330.40 444.05 337.13 449.35 343.87 C 455.30 343.72 461.24 343.30 467.19 343.09 C 461.85 335.38 455.70 328.24 449.95 320.84 C 452.77 319.25 455.56 317.23 456.98 314.22 C 459.45 309.54 458.85 304.08 458.66 298.99 C 458.42 293.60 458.15 287.74 454.84 283.23 C 451.37 278.73 445.42 277.18 439.99 277.12 C 429.00 276.98 418.04 278.11 407.07 278.47 M 364.43 280.72 C 359.55 282.03 354.76 284.54 351.68 288.66 C 348.75 292.41 347.74 297.34 347.89 302.01 C 348.59 311.98 348.69 321.99 349.65 331.94 C 350.64 339.98 357.28 346.29 365.00 348.04 C 373.90 349.98 383.78 349.39 391.87 344.95 C 397.97 341.69 401.74 334.89 401.56 328.02 C 401.32 318.64 400.54 309.29 400.21 299.92 C 399.98 293.71 397.35 287.31 392.00 283.81 C 383.96 278.45 373.52 278.68 364.43 280.72 M 294.37 284.81 C 295.49 307.32 296.80 329.83 297.84 352.35 C 302.95 352.17 308.05 351.73 313.17 351.50 C 312.52 344.71 312.40 337.88 312.09 331.07 C 320.95 330.27 330.55 331.26 338.58 326.68 C 344.35 323.40 346.30 316.28 345.75 310.04 C 345.33 303.30 345.95 295.87 342.01 289.99 C 338.22 284.64 331.18 283.33 325.03 283.39 C 314.80 283.55 304.59 284.48 294.37 284.81 M 241.27 292.32 C 237.85 296.73 238.30 302.73 238.57 307.99 C 239.01 312.94 239.58 318.90 244.19 321.87 C 250.82 325.85 258.89 325.70 266.14 327.88 C 267.94 328.42 269.73 329.77 269.75 331.83 C 270.23 335.06 270.97 339.94 267.17 341.46 C 258.74 343.61 249.87 342.15 241.54 340.20 C 240.85 344.19 240.29 348.20 239.58 352.19 C 249.74 355.93 260.89 356.26 271.45 354.20 C 276.65 353.16 282.11 350.37 284.04 345.10 C 286.06 338.96 285.28 332.35 284.44 326.07 C 284.03 322.68 281.86 319.63 278.83 318.08 C 272.06 314.46 264.17 314.30 256.96 312.07 C 253.37 311.19 253.65 306.86 253.61 303.96 C 253.43 301.83 254.86 299.60 257.07 299.33 C 264.80 297.82 272.68 298.98 280.43 299.65 C 280.65 295.38 281.00 291.12 281.29 286.85 C 272.54 285.65 263.63 285.09 254.85 286.35 C 249.93 287.02 244.53 288.24 241.27 292.32 Z" />
<path fill="#000000" opacity="1.00" d=" M 422.76 291.24 C 428.21 290.95 433.72 290.17 439.16 290.82 C 443.33 291.68 443.41 296.62 443.53 300.00 C 443.66 303.25 444.27 307.93 440.58 309.48 C 435.21 311.21 429.39 310.47 423.83 310.94 C 423.51 304.37 423.28 297.80 422.76 291.24 Z" />
<path fill="#000000" opacity="1.00" d=" M 369.37 293.60 C 373.13 292.69 377.27 292.42 380.87 294.05 C 383.43 295.35 384.94 298.10 385.00 300.93 C 385.51 308.63 385.66 316.35 386.26 324.05 C 386.52 327.14 386.47 330.75 383.90 332.93 C 380.61 335.62 376.03 335.73 371.99 335.40 C 368.15 335.19 364.68 332.02 364.54 328.12 C 364.07 319.06 363.40 310.01 363.19 300.95 C 363.08 297.36 365.96 294.30 369.37 293.60 Z" />
<path fill="#000000" opacity="1.00" d=" M 310.21 297.54 C 315.64 297.64 321.16 296.18 326.51 297.37 C 330.23 298.40 330.28 302.94 330.42 306.07 C 330.48 309.53 331.43 314.45 327.61 316.31 C 322.38 318.03 316.73 317.34 311.31 317.85 C 310.96 311.08 310.59 304.31 310.21 297.54 Z" />
</g>
</svg>
