<?xml version="1.0" encoding="utf-8"?>
<!-- Generator: Adobe Illustrator 16.0.0, SVG Export Plug-In . SVG Version: 6.00 Build 0)  -->
<!DOCTYPE svg PUBLIC "-//W3C//DTD SVG 1.1//EN" "http://www.w3.org/Graphics/SVG/1.1/DTD/svg11.dtd">
<svg version="1.1" id="Calque_1" xmlns="http://www.w3.org/2000/svg" xmlns:xlink="http://www.w3.org/1999/xlink" x="0px" y="0px"
	 width="73.295px" height="95.598px" viewBox="0 0 73.295 95.598" enable-background="new 0 0 73.295 95.598" xml:space="preserve">
<g>
	<path fill="none" d="M73.295,95.598H0V0h73.295V95.598z"/>
	<path fill="#E30613" d="M0,95.598h73.295V0H0V95.598z"/>
	<polygon fill="#FFFFFF" points="4.602,84.215 6.916,88.993 8.018,88.993 10.276,84.215 10.276,90.77 11.763,90.77 11.763,80.965 
		10.276,80.965 7.466,87.065 4.602,80.965 3.115,80.965 3.115,90.77 4.602,90.77 	"/>
	<path fill="#FFFFFF" d="M16.996,80.965l-3.594,9.805h1.584l0.675-1.969h3.869l0.675,1.969h1.583l-3.594-9.805H16.996z
		 M16.101,87.534l1.529-4.352l1.487,4.352H16.101z"/>
	<path fill="#FFFFFF" d="M26.608,86.735h2.093v0.552c0,0.634-0.138,1.13-0.496,1.542c-0.385,0.44-0.95,0.688-1.597,0.688
		c-0.578,0-1.102-0.22-1.446-0.593c-0.482-0.521-0.592-1.086-0.592-3.057c0-1.969,0.11-2.52,0.592-3.043
		c0.344-0.371,0.868-0.605,1.446-0.605c1.102,0,1.818,0.633,2.065,1.707h1.501c-0.275-1.68-1.487-3.043-3.566-3.043
		c-1.046,0-1.9,0.371-2.575,1.045c-0.964,0.965-0.95,2.053-0.95,3.939s-0.014,2.975,0.95,3.939c0.675,0.674,1.556,1.047,2.575,1.047
		c1.033,0,1.956-0.332,2.699-1.116c0.647-0.688,0.882-1.501,0.882-2.769v-1.501h-3.581V86.735z"/>
	<path fill="#FFFFFF" d="M33.053,90.77l0.674-1.969h3.87l0.674,1.969h1.584l-3.594-9.805h-1.198l-3.594,9.805H33.053z
		 M35.696,83.182l1.487,4.352h-3.016L35.696,83.182z"/>
	<polygon fill="#FFFFFF" points="41.08,82.301 45.418,82.301 40.889,89.49 40.889,90.77 47.168,90.77 47.168,89.435 42.609,89.435 
		47.168,82.177 47.168,80.965 41.08,80.965 	"/>
	<rect x="49.371" y="80.965" fill="#FFFFFF" width="1.487" height="9.805"/>
	<polygon fill="#FFFFFF" points="59.574,87.85 55.044,80.965 53.681,80.965 53.681,90.77 55.168,90.77 55.168,83.872 59.699,90.77 
		61.063,90.77 61.063,80.965 59.574,80.965 	"/>
	<polygon fill="#FFFFFF" points="63.885,90.77 70.15,90.77 70.15,89.435 65.371,89.435 65.371,86.487 69.449,86.487 69.449,85.166 
		65.371,85.166 65.371,82.301 70.15,82.301 70.15,80.965 63.885,80.965 	"/>
	<polygon fill="#FFFFFF" points="12.04,76.135 25.27,76.142 25.27,15.667 33.689,15.689 33.689,4.642 3.33,4.642 3.33,15.689 
		12.128,15.694 	"/>
	<polygon fill="#FFFFFF" points="60.646,76.163 70.157,4.645 58.709,4.645 52.987,49.913 47.646,4.645 35.494,4.645 43.994,76.163 	
		"/>
</g>
</svg>
