<?xml version="1.0" encoding="UTF-8"?>
<!DOCTYPE svg PUBLIC "-//W3C//DTD SVG 1.1//EN" "http://www.w3.org/Graphics/SVG/1.1/DTD/svg11.dtd">
<svg width="270pt" height="94pt" viewBox="0 0 270 94" version="1.1" xmlns="http://www.w3.org/2000/svg">
<g id="#fefefeff">
<path fill="#fefefe" opacity="1.00" d=" M 208.95 18.97 C 210.52 15.31 214.01 12.38 218.11 12.29 C 226.47 11.30 234.32 15.76 242.67 14.78 C 240.40 19.43 239.63 26.26 233.78 27.82 C 226.81 29.72 219.40 28.58 212.45 27.08 C 212.05 37.18 211.47 47.44 208.38 57.14 C 206.55 62.63 203.22 68.20 197.64 70.49 C 192.33 72.60 186.07 72.96 180.83 70.48 C 175.46 67.99 171.70 62.02 172.48 56.05 C 173.90 45.64 182.02 35.39 192.97 34.42 C 197.12 33.83 201.48 35.61 203.58 39.33 C 204.64 32.39 206.03 25.39 208.95 18.97 M 192.76 43.95 C 186.98 45.62 184.67 52.46 184.85 57.91 C 185.20 63.08 192.59 64.26 195.52 60.55 C 198.32 57.14 199.53 52.47 199.31 48.10 C 199.09 44.94 195.58 43.27 192.76 43.95 Z"/>
<path fill="#fefefe" opacity="1.00" d=" M 117.42 23.11 C 120.99 23.39 125.35 22.14 128.24 24.88 C 129.35 27.47 128.77 30.38 128.21 33.04 C 126.06 41.73 123.81 50.40 121.79 59.13 C 122.06 59.67 122.61 60.75 122.88 61.29 C 124.88 61.48 126.89 61.60 128.90 61.69 C 128.24 64.44 128.13 67.81 125.56 69.58 C 122.10 72.08 117.19 72.21 113.32 70.61 C 109.68 69.14 108.16 64.69 109.02 61.06 C 111.84 48.42 116.25 36.06 117.42 23.11 Z"/>
<path fill="#fefefe" opacity="1.00" d=" M 19.39 24.16 C 24.30 24.56 30.10 23.14 34.10 26.81 C 36.30 28.51 36.67 31.44 37.08 33.99 C 38.09 40.65 39.13 47.32 39.50 54.04 C 45.13 43.60 52.31 34.11 58.86 24.28 C 62.46 24.43 66.78 23.41 69.67 26.16 C 72.19 28.38 71.86 32.08 71.60 35.09 C 69.92 47.20 66.64 59.05 65.29 71.22 C 61.34 70.89 55.12 72.50 53.44 67.63 C 52.93 64.01 54.49 60.51 55.09 56.99 C 56.09 51.60 57.53 46.25 57.78 40.75 C 52.39 51.15 46.13 61.06 40.34 71.22 C 37.22 71.09 33.22 71.87 31.04 69.02 C 28.50 65.62 28.41 61.16 28.11 57.10 C 27.65 51.60 27.57 46.06 26.88 40.58 C 23.13 50.62 20.69 61.08 17.54 71.30 C 14.70 71.13 11.64 71.52 9.05 70.12 C 6.69 68.50 6.96 65.35 7.47 62.90 C 10.72 49.77 16.94 37.51 19.39 24.16 Z"/>
<path fill="#fefefe" opacity="1.00" d=" M 71.18 61.01 C 69.84 47.36 81.99 33.52 95.96 34.33 C 100.44 34.40 105.52 36.17 107.47 40.56 C 109.82 45.97 107.73 53.78 101.80 55.89 C 95.83 58.19 89.28 57.53 83.03 57.62 C 83.11 59.51 83.55 61.70 85.69 62.23 C 91.27 63.76 97.18 62.55 102.63 61.01 C 102.06 64.94 99.87 68.63 96.11 70.23 C 90.27 72.58 83.36 73.05 77.53 70.41 C 73.90 68.75 71.38 65.00 71.18 61.01 M 89.48 44.35 C 86.71 45.95 85.08 48.83 83.89 51.70 C 87.81 51.41 92.29 51.94 95.62 49.45 C 97.12 48.32 96.71 46.24 96.59 44.62 C 94.44 43.49 91.62 42.86 89.48 44.35 Z"/>
<path fill="#fefefe" opacity="1.00" d=" M 150.21 35.15 C 154.44 34.13 159.10 33.99 163.13 35.84 C 167.45 37.80 170.52 42.22 170.68 46.99 C 171.14 58.38 162.67 69.85 151.16 71.59 C 145.44 72.82 138.60 72.10 134.53 67.47 C 130.72 63.28 130.72 56.98 132.54 51.91 C 135.15 43.84 141.94 37.21 150.21 35.15 M 151.33 44.43 C 145.69 46.50 143.17 53.42 144.08 58.99 C 144.67 62.48 149.14 63.27 151.87 61.89 C 156.73 59.36 158.80 53.18 158.03 48.02 C 157.59 44.89 154.10 43.53 151.33 44.43 Z"/>
<path fill="#fefefe" opacity="1.00" d=" M 217.07 35.35 C 221.22 35.82 227.14 33.80 229.65 38.27 C 230.71 44.52 229.84 51.05 231.63 57.24 C 236.07 50.37 240.76 43.38 242.93 35.40 C 246.35 35.87 251.75 33.77 253.45 37.86 C 253.58 39.92 252.59 41.80 251.77 43.62 C 246.68 54.04 239.58 63.31 232.14 72.15 C 228.49 76.40 224.67 81.44 218.87 82.61 C 215.69 82.94 211.33 83.50 209.56 80.11 C 209.01 77.91 209.75 75.68 210.01 73.49 C 212.52 73.62 215.10 74.08 217.58 73.40 C 219.85 72.73 221.28 70.73 222.76 69.03 C 219.34 58.07 220.51 46.29 217.07 35.35 Z"/>
</g>
<g id="#ed145bff">
<path fill="#ed145b" opacity="1.00" d=" M 6.72 13.86 C 91.80 9.69 176.88 5.34 261.96 1.20 C 265.48 0.53 269.66 2.33 270.00 6.27 L 270.00 8.60 C 268.78 34.36 267.59 60.12 266.42 85.89 C 266.29 88.97 263.78 91.70 260.71 92.10 C 257.53 92.50 254.31 92.10 251.13 91.91 C 176.10 89.81 101.08 87.61 26.05 85.42 C 19.02 85.22 11.96 85.24 4.95 84.63 C 2.10 84.49 0.45 81.43 0.00 78.96 L 0.00 19.46 C 0.69 16.33 3.51 13.95 6.72 13.86 M 208.95 18.97 C 206.03 25.39 204.64 32.39 203.58 39.33 C 201.48 35.61 197.12 33.83 192.97 34.42 C 182.02 35.39 173.90 45.64 172.48 56.05 C 171.70 62.02 175.46 67.99 180.83 70.48 C 186.07 72.96 192.33 72.60 197.64 70.49 C 203.22 68.20 206.55 62.63 208.38 57.14 C 211.47 47.44 212.05 37.18 212.45 27.08 C 219.40 28.58 226.81 29.72 233.78 27.82 C 239.63 26.26 240.40 19.43 242.67 14.78 C 234.32 15.76 226.47 11.30 218.11 12.29 C 214.01 12.38 210.52 15.31 208.95 18.97 M 117.42 23.11 C 116.25 36.06 111.84 48.42 109.02 61.06 C 108.16 64.69 109.68 69.14 113.32 70.61 C 117.19 72.21 122.10 72.08 125.56 69.58 C 128.13 67.81 128.24 64.44 128.90 61.69 C 126.89 61.60 124.88 61.48 122.88 61.29 C 122.61 60.75 122.06 59.67 121.79 59.13 C 123.81 50.40 126.06 41.73 128.21 33.04 C 128.77 30.38 129.35 27.47 128.24 24.88 C 125.35 22.14 120.99 23.39 117.42 23.11 M 19.39 24.16 C 16.94 37.51 10.72 49.77 7.47 62.90 C 6.96 65.35 6.69 68.50 9.05 70.12 C 11.64 71.52 14.70 71.13 17.54 71.30 C 20.69 61.08 23.13 50.62 26.88 40.58 C 27.57 46.06 27.65 51.60 28.11 57.10 C 28.41 61.16 28.50 65.62 31.04 69.02 C 33.22 71.87 37.22 71.09 40.34 71.22 C 46.13 61.06 52.39 51.15 57.78 40.75 C 57.53 46.25 56.09 51.60 55.09 56.99 C 54.49 60.51 52.93 64.01 53.44 67.63 C 55.12 72.50 61.34 70.89 65.29 71.22 C 66.64 59.05 69.92 47.20 71.60 35.09 C 71.86 32.08 72.19 28.38 69.67 26.16 C 66.78 23.41 62.46 24.43 58.86 24.28 C 52.31 34.11 45.13 43.60 39.50 54.04 C 39.13 47.32 38.09 40.65 37.08 33.99 C 36.67 31.44 36.30 28.51 34.10 26.81 C 30.10 23.14 24.30 24.56 19.39 24.16 M 71.18 61.01 C 71.38 65.00 73.90 68.75 77.53 70.41 C 83.36 73.05 90.27 72.58 96.11 70.23 C 99.87 68.63 102.06 64.94 102.63 61.01 C 97.18 62.55 91.27 63.76 85.69 62.23 C 83.55 61.70 83.11 59.51 83.03 57.62 C 89.28 57.53 95.83 58.19 101.80 55.89 C 107.73 53.78 109.82 45.97 107.47 40.56 C 105.52 36.17 100.44 34.40 95.96 34.33 C 81.99 33.52 69.84 47.36 71.18 61.01 M 150.21 35.15 C 141.94 37.21 135.15 43.84 132.54 51.91 C 130.72 56.98 130.72 63.28 134.53 67.47 C 138.60 72.10 145.44 72.82 151.16 71.59 C 162.67 69.85 171.14 58.38 170.68 46.99 C 170.52 42.22 167.45 37.80 163.13 35.84 C 159.10 33.99 154.44 34.13 150.21 35.15 M 217.07 35.35 C 220.51 46.29 219.34 58.07 222.76 69.03 C 221.28 70.73 219.85 72.73 217.58 73.40 C 215.10 74.08 212.52 73.62 210.01 73.49 C 209.75 75.68 209.01 77.91 209.56 80.11 C 211.33 83.50 215.69 82.94 218.87 82.61 C 224.67 81.44 228.49 76.40 232.14 72.15 C 239.58 63.31 246.68 54.04 251.77 43.62 C 252.59 41.80 253.58 39.92 253.45 37.86 C 251.75 33.77 246.35 35.87 242.93 35.40 C 240.76 43.38 236.07 50.37 231.63 57.24 C 229.84 51.05 230.71 44.52 229.65 38.27 C 227.14 33.80 221.22 35.82 217.07 35.35 Z"/>
<path fill="#ed145b" opacity="1.00" d=" M 89.48 44.35 C 91.62 42.86 94.44 43.49 96.59 44.62 C 96.71 46.24 97.12 48.32 95.62 49.45 C 92.29 51.94 87.81 51.41 83.89 51.70 C 85.08 48.83 86.71 45.95 89.48 44.35 Z"/>
<path fill="#ed145b" opacity="1.00" d=" M 192.76 43.95 C 195.58 43.27 199.09 44.94 199.31 48.10 C 199.53 52.47 198.32 57.14 195.52 60.55 C 192.59 64.26 185.20 63.08 184.85 57.91 C 184.67 52.46 186.98 45.62 192.76 43.95 Z"/>
<path fill="#ed145b" opacity="1.00" d=" M 151.33 44.43 C 154.10 43.53 157.59 44.89 158.03 48.02 C 158.80 53.18 156.73 59.36 151.87 61.89 C 149.14 63.27 144.67 62.48 144.08 58.99 C 143.17 53.42 145.69 46.50 151.33 44.43 Z"/>
</g>
</svg>