<?xml version="1.0" encoding="UTF-8" standalone="no"?>
<!-- Created with Inkscape (http://www.inkscape.org/) -->
<svg
   xmlns:dc="http://purl.org/dc/elements/1.1/"
   xmlns:cc="http://web.resource.org/cc/"
   xmlns:rdf="http://www.w3.org/1999/02/22-rdf-syntax-ns#"
   xmlns:svg="http://www.w3.org/2000/svg"
   xmlns="http://www.w3.org/2000/svg"
   xmlns:xlink="http://www.w3.org/1999/xlink"
   xmlns:sodipodi="http://sodipodi.sourceforge.net/DTD/sodipodi-0.dtd"
   xmlns:inkscape="http://www.inkscape.org/namespaces/inkscape"
   width="469"
   height="206"
   id="svg2"
   sodipodi:version="0.32"
   inkscape:version="0.45.1"
   version="1.0"
   inkscape:output_extension="org.inkscape.output.svg.inkscape">
  <g
     inkscape:label="Layer 1"
     inkscape:groupmode="layer"
     id="layer1"
     transform="translate(-60.34872,-637.66902)">
    <g
       id="g20204"
       transform="matrix(12.771983,0,0,12.771983,-2824.3062,-7271.4001)">
      <path
         style="fill:#7cc362;fill-rule:nonzero;stroke:none"
         d="M 225.85803,635.38046 L 262.57903,635.38046 L 262.57903,619.25146 L 225.85803,619.25146 L 225.85803,635.38046 z "
         id="path11743" />
      <g
         transform="matrix(1,0,0,-1,230.34903,629.42046)"
         id="g11745">
        <path
           style="fill:#ffffff;fill-rule:nonzero;stroke:none"
           d="M 0,0 C -0.069,-0.204 -0.208,-0.596 -0.208,-0.817 C -0.208,-0.988 -0.138,-1.175 0.069,-1.175 C 0.485,-1.175 1.125,-0.358 1.368,-0.034 C 1.437,0.085 1.61,0.307 1.679,0.426 C 1.731,0.511 1.783,0.63 1.87,0.63 C 1.956,0.63 2.008,0.562 2.008,0.494 C 2.008,0.307 1.593,-0.255 1.489,-0.392 C 1.056,-0.971 -0.017,-2.163 -0.814,-2.163 C -1.298,-2.163 -1.454,-1.652 -1.454,-1.26 C -1.454,-0.8 -1.264,-0.221 -1.125,0.204 L 0.416,5.143 L -0.571,5.143 C -0.658,5.143 -0.969,5.109 -0.969,5.279 C -0.969,5.603 -0.762,5.586 -0.502,5.586 L 0.537,5.586 L 1.108,7.408 C 1.212,7.646 1.506,7.595 1.714,7.595 C 1.835,7.595 2.268,7.663 2.268,7.442 C 2.268,7.322 2.199,7.101 2.164,6.999 L 1.714,5.586 L 3.012,5.586 C 3.047,5.586 3.393,5.637 3.393,5.483 C 3.393,5.398 3.376,5.364 3.324,5.245 C 3.272,5.126 3.029,5.143 2.926,5.143 L 1.593,5.143 L 0,0"
           id="path11747" />
      </g>
      <g
         transform="matrix(1,0,0,-1,240.68303,620.51346)"
         id="g11749">
        <path
           style="fill:#ffffff;fill-rule:nonzero;stroke:none"
           d="M 0,0 C 0.225,0.119 0.641,0.323 0.9,0.323 C 1.16,0.323 1.368,0.17 1.368,-0.085 C 1.368,-0.511 0.848,-0.647 0.537,-0.749 L -2.077,-1.584 C -2.198,-1.618 -2.441,-1.703 -2.579,-1.703 C -2.683,-1.703 -2.752,-1.652 -2.752,-1.533 C -2.752,-1.362 -2.32,-1.192 -2.198,-1.124 L 0,0 z M -0.606,-5.943 C -0.26,-5.5 -0.017,-4.921 -0.017,-4.359 C -0.017,-3.729 -0.398,-3.389 -1.039,-3.389 C -2.96,-3.389 -4.258,-5.773 -4.657,-7.374 C -3.393,-7.271 -1.402,-6.965 -0.606,-5.943 z M -4.76,-7.97 L -4.76,-8.361 C -4.76,-9.485 -4.155,-10.32 -2.925,-10.32 C -1.921,-10.32 -0.779,-9.57 -0.208,-8.77 C -0.156,-8.702 -0.104,-8.634 -0.017,-8.634 C 0.069,-8.634 0.104,-8.668 0.104,-8.753 C 0.104,-8.906 -0.26,-9.315 -0.346,-9.417 C -1.177,-10.32 -2.354,-11.069 -3.618,-11.069 C -5.176,-11.069 -6.111,-9.86 -6.111,-8.395 C -6.111,-5.773 -3.497,-3.065 -0.814,-3.065 C 0.156,-3.065 1.194,-3.61 1.194,-4.683 C 1.194,-7.152 -2.649,-7.476 -4.501,-7.68 L -4.726,-7.714 L -4.76,-7.97"
           id="path11751" />
      </g>
      <g
         transform="matrix(1,0,0,-1,244.80103,628.84146)"
         id="g11753">
        <path
           style="fill:#ffffff;fill-rule:nonzero;stroke:none"
           d="M 0,0 C -0.156,-0.392 -0.346,-0.885 -0.346,-1.294 C -0.346,-1.788 0.017,-2.18 0.537,-2.18 C 2.527,-2.18 5.02,1.328 5.02,3.15 C 5.02,3.44 4.968,3.61 4.812,3.849 C 4.639,4.104 4.484,4.342 4.484,4.683 C 4.484,4.99 4.708,5.432 5.072,5.432 C 5.609,5.432 5.782,4.615 5.782,4.206 C 5.782,1.669 2.874,-2.742 0.035,-2.742 C -0.969,-2.742 -1.541,-2.333 -1.541,-1.277 C -1.541,-0.834 -1.229,-0.034 -1.056,0.392 L 0.19,3.423 C 0.26,3.593 0.45,3.985 0.45,4.172 C 0.45,4.325 0.364,4.428 0.208,4.428 C -0.225,4.428 -1.16,3.355 -1.385,3.014 C -1.419,2.963 -1.506,2.861 -1.593,2.861 C -1.662,2.861 -1.696,2.929 -1.696,2.997 C -1.696,3.099 -1.523,3.321 -1.471,3.406 C -1.073,3.951 -0.779,4.24 -0.225,4.649 C 0.121,4.904 0.675,5.262 1.125,5.262 C 1.523,5.262 1.731,5.041 1.731,4.649 C 1.731,4.223 1.558,3.815 1.402,3.423 L 0,0"
           id="path11755" />
      </g>
      <g
         transform="matrix(1,0,0,-1,257.21303,623.90246)"
         id="g11757">
        <path
           style="fill:#ffffff;fill-rule:nonzero;stroke:none"
           d="M 0,0 C -1.264,0 -2.493,-1.192 -3.22,-2.129 C -3.878,-2.946 -4.795,-4.666 -4.795,-5.739 C -4.795,-6.215 -4.553,-6.777 -3.999,-6.777 C -2.943,-6.777 -1.402,-4.955 -0.796,-4.206 C -0.312,-3.61 1.108,-1.669 1.108,-0.886 C 1.108,-0.255 0.589,0 0,0 z M 1.419,-0.119 C 1.575,0.409 1.558,0.494 2.129,0.494 C 2.233,0.494 2.718,0.579 2.718,0.341 C 2.718,0.255 2.649,0.068 2.631,0 L 0.848,-5.756 C 0.796,-5.892 0.71,-6.164 0.71,-6.318 C 0.71,-6.454 0.744,-6.573 0.883,-6.573 C 1.316,-6.573 2.129,-5.5 2.337,-5.177 C 2.389,-5.092 2.51,-4.87 2.631,-4.87 C 2.7,-4.87 2.752,-4.938 2.752,-5.006 C 2.752,-5.313 2.043,-6.199 1.835,-6.42 C 1.402,-6.88 0.467,-7.68 -0.225,-7.68 C -0.536,-7.68 -0.692,-7.476 -0.692,-7.186 C -0.692,-6.863 -0.589,-6.522 -0.502,-6.233 L 0.554,-2.861 C -0.416,-4.428 -2.735,-7.68 -4.778,-7.68 C -5.747,-7.68 -6.145,-6.761 -6.145,-5.926 C -6.145,-4.479 -5.141,-2.759 -4.155,-1.737 C -3.099,-0.647 -1.541,0.324 0.035,0.324 C 0.623,0.324 1.004,0.187 1.368,-0.272 L 1.419,-0.119"
           id="path11759" />
      </g>
    </g>
    <g
       id="g11801"
       transform="matrix(1,0,0,-1,521.46142,647.25794)">
      <path
         id="path11803"
         d="M 0,0 L 0,0 L 0,0 L 0,0"
         style="fill:#ed1c24;fill-rule:nonzero;stroke:none" />
    </g>
    <g
       id="g11813"
       transform="matrix(1,0,0,-1,823.78142,669.94294)">
      <path
         id="path11815"
         d="M 0,0 L 0,0 L 0,0 L 0,0"
         style="fill:#ed1c24;fill-rule:nonzero;stroke:none" />
    </g>
  </g>
</svg>
