<?xml version="1.0" encoding="UTF-8"?>
<!DOCTYPE svg PUBLIC "-//W3C//DTD SVG 1.1//EN" "http://www.w3.org/Graphics/SVG/1.1/DTD/svg11.dtd">
<svg width="313pt" height="314pt" viewBox="0 0 313 314" version="1.1" xmlns="http://www.w3.org/2000/svg">
<g id="#ffffffff">
<path fill="#ffffff" opacity="1.00" d=" M 74.69 38.18 C 90.61 38.19 106.52 38.04 122.43 38.27 C 122.43 40.11 122.45 41.96 122.48 43.80 C 119.24 44.77 115.51 44.73 112.71 46.82 C 111.00 48.67 112.17 51.19 112.78 53.24 C 120.17 73.84 128.57 94.06 136.00 114.65 C 143.16 95.21 150.65 75.87 156.85 56.09 C 157.59 53.27 158.84 50.12 157.42 47.31 C 154.53 44.72 150.38 44.50 146.71 44.22 C 146.62 42.21 146.57 40.20 146.49 38.20 C 158.90 38.15 171.31 38.13 183.73 38.19 C 183.93 40.00 184.15 41.80 184.40 43.61 C 180.52 44.71 176.12 44.76 172.93 47.54 C 169.73 50.38 167.87 54.38 166.14 58.21 C 154.13 86.28 143.40 114.88 132.22 143.28 C 129.57 142.98 126.90 142.93 124.24 142.97 C 113.48 114.08 102.41 85.31 90.99 56.68 C 89.11 52.28 86.81 47.23 82.02 45.43 C 79.74 44.38 77.19 44.40 74.75 44.18 C 74.74 42.18 74.72 40.18 74.69 38.18 Z"/>
<path fill="#ffffff" opacity="1.00" d=" M 179.27 52.28 C 184.93 50.07 192.61 53.62 193.43 59.96 C 194.67 64.97 191.86 70.36 187.13 72.33 C 182.69 73.80 176.98 72.94 174.29 68.76 C 169.86 63.50 172.46 54.08 179.27 52.28 Z"/>
<path fill="#ffffff" opacity="1.00" d=" M 165.64 79.76 C 175.06 78.22 184.54 76.78 193.73 74.10 C 193.85 90.40 193.74 106.71 193.78 123.01 C 193.84 127.47 193.28 132.30 195.65 136.32 C 198.28 137.12 200.94 137.82 203.66 138.23 C 203.66 139.81 203.66 141.39 203.67 142.98 C 190.68 143.19 177.66 142.63 164.69 143.27 C 164.55 141.59 164.43 139.91 164.32 138.23 C 167.22 137.37 171.16 137.84 173.04 135.03 C 174.21 132.54 174.13 129.68 174.20 126.99 C 174.15 115.67 174.23 104.35 174.17 93.04 C 173.97 90.62 174.12 87.66 172.06 85.95 C 170.18 84.74 167.89 84.54 165.74 84.17 C 165.71 82.70 165.68 81.23 165.64 79.76 Z"/>
<path fill="#ffffff" opacity="1.00" d=" M 19.07 132.24 C 32.63 132.21 46.19 132.23 59.76 132.23 C 59.73 133.99 59.70 135.75 59.67 137.51 C 57.30 138.16 54.99 139.00 52.70 139.88 C 52.69 141.57 52.41 143.32 53.01 144.95 C 57.35 156.76 61.89 168.51 66.03 180.39 C 70.42 169.42 74.17 158.21 77.95 147.02 C 78.73 144.96 78.65 142.73 78.65 140.57 C 76.09 138.89 73.14 138.08 70.16 137.52 C 70.17 135.76 70.17 133.99 70.17 132.23 C 80.15 132.22 90.14 132.20 100.12 132.26 C 100.02 134.11 99.91 135.97 99.77 137.82 C 96.02 138.34 91.94 139.42 89.63 142.67 C 86.34 147.71 84.42 153.46 81.88 158.88 C 75.34 174.85 68.56 190.73 62.41 206.86 C 60.13 206.93 57.84 206.95 55.56 206.92 C 49.58 191.16 43.15 175.58 36.83 159.95 C 34.40 154.75 32.62 149.24 29.92 144.17 C 27.86 140.10 23.32 138.33 19.07 137.57 C 19.06 135.79 19.06 134.02 19.07 132.24 Z"/>
<path fill="#ffffff" opacity="1.00" d=" M 230.75 147.75 C 238.58 143.07 247.05 139.11 256.08 137.46 C 261.55 137.39 267.29 138.72 271.65 142.19 C 277.04 146.01 279.57 152.81 279.69 159.24 C 279.88 170.18 279.59 181.13 279.82 192.08 C 280.06 194.91 281.53 199.05 285.05 198.70 C 286.92 198.75 288.65 197.93 290.37 197.31 C 290.91 199.20 291.43 201.10 291.87 203.02 C 286.83 204.94 282.21 207.76 277.48 210.31 C 271.28 214.19 263.04 209.24 260.82 202.93 C 254.00 205.82 248.32 213.34 240.14 211.47 C 229.24 210.08 220.62 198.85 222.68 187.94 C 223.20 183.27 226.62 179.48 230.80 177.61 C 239.84 173.36 249.87 171.41 258.59 166.44 C 260.34 165.74 259.69 163.52 259.98 162.07 C 259.89 156.78 259.44 150.51 255.06 146.87 C 252.98 144.85 249.92 145.40 247.32 145.60 C 244.50 148.47 242.45 152.04 241.54 155.97 C 240.58 159.15 239.89 163.34 236.17 164.38 C 231.13 165.39 225.05 162.27 223.70 157.14 C 223.43 152.75 227.71 150.11 230.75 147.75 M 248.54 178.46 C 240.63 183.29 242.82 197.98 252.20 199.50 C 255.09 200.18 257.72 198.56 260.11 197.16 C 259.77 188.86 260.08 180.55 260.12 172.25 C 255.98 173.68 252.31 176.27 248.54 178.46 Z"/>
<path fill="#ffffff" opacity="1.00" d=" M 132.20 154.50 C 143.14 153.17 154.02 151.20 164.66 148.34 C 164.68 183.22 164.64 218.10 164.68 252.97 C 164.71 255.91 165.06 259.45 167.71 261.26 C 171.66 262.30 175.76 261.44 179.64 260.51 C 179.66 262.51 179.67 264.52 179.68 266.53 C 172.40 268.55 164.74 269.96 157.22 268.45 C 152.55 267.42 147.95 264.83 145.51 260.59 C 143.03 256.54 142.57 251.66 142.44 247.02 C 142.46 220.67 142.47 194.32 142.44 167.97 C 142.53 165.69 142.13 163.21 140.19 161.75 C 137.77 160.36 134.89 160.22 132.19 159.77 C 132.19 158.01 132.19 156.25 132.20 154.50 Z"/>
<path fill="#ffffff" opacity="1.00" d=" M 181.43 161.78 C 188.04 157.44 194.48 152.82 201.03 148.39 C 201.69 148.71 203.01 149.34 203.67 149.66 C 203.55 157.89 203.70 166.12 203.59 174.34 C 209.29 174.26 215.00 174.32 220.70 174.30 C 222.10 176.97 221.86 180.04 220.33 182.60 C 214.76 182.90 209.17 182.75 203.60 182.71 C 203.68 197.11 203.57 211.51 203.65 225.91 C 203.84 230.62 204.62 236.33 209.14 238.91 C 213.35 240.89 218.04 239.06 222.22 237.90 C 222.68 239.90 223.20 241.89 223.69 243.89 C 218.41 246.25 213.27 248.93 207.91 251.11 C 201.98 253.56 195.11 252.27 189.62 249.31 C 183.41 245.55 181.57 237.86 181.45 231.08 C 181.38 214.94 181.42 198.81 181.44 182.68 C 177.68 182.79 173.92 182.85 170.17 182.67 C 169.55 179.13 172.92 176.95 174.59 174.29 C 176.89 174.27 179.20 174.29 181.51 174.36 C 181.42 170.16 181.42 165.97 181.43 161.78 Z"/>
<path fill="#ffffff" opacity="1.00" d=" M 97.19 182.12 C 107.14 179.89 118.28 182.15 125.82 189.23 C 138.80 201.01 138.64 223.35 126.85 235.90 C 114.60 248.26 92.31 248.25 80.01 235.98 C 69.17 224.49 69.04 205.11 79.02 193.06 C 83.70 187.58 90.16 183.68 97.19 182.12 M 99.50 187.52 C 96.54 189.19 94.73 192.28 93.59 195.38 C 91.09 201.93 91.36 209.07 91.64 215.96 C 92.18 222.32 93.62 228.76 96.88 234.31 C 99.27 238.26 104.42 241.13 108.92 238.89 C 113.37 236.65 114.37 231.23 115.22 226.79 C 115.97 219.64 115.84 212.40 115.27 205.24 C 114.32 199.59 113.06 193.38 108.67 189.32 C 106.34 187.08 102.45 185.88 99.50 187.52 Z"/>
</g>
<g id="#dc3200ff">
<path fill="#dc3200" opacity="1.00" d=" M 140.51 7.89 C 184.13 2.63 229.71 18.11 261.04 48.92 C 288.92 75.53 305.79 113.43 306.55 151.99 C 308.54 200.02 285.04 247.98 246.30 276.32 C 221.27 294.92 190.26 305.58 159.03 305.56 C 119.41 306.45 79.80 290.24 51.95 262.09 C 20.93 231.75 4.48 187.16 8.51 143.95 C 11.66 102.21 33.61 62.34 67.12 37.29 C 88.33 21.10 113.99 10.87 140.51 7.89 M 74.69 38.18 C 74.72 40.18 74.74 42.18 74.75 44.18 C 77.19 44.40 79.74 44.38 82.02 45.43 C 86.81 47.23 89.11 52.28 90.99 56.68 C 102.41 85.31 113.48 114.08 124.24 142.97 C 126.90 142.93 129.57 142.98 132.22 143.28 C 143.40 114.88 154.13 86.28 166.14 58.21 C 167.87 54.38 169.73 50.38 172.93 47.54 C 176.12 44.76 180.52 44.71 184.40 43.61 C 184.15 41.80 183.93 40.00 183.73 38.19 C 171.31 38.13 158.90 38.15 146.49 38.20 C 146.57 40.20 146.62 42.21 146.71 44.22 C 150.38 44.50 154.53 44.72 157.42 47.31 C 158.84 50.12 157.59 53.27 156.85 56.09 C 150.65 75.87 143.16 95.21 136.00 114.65 C 128.57 94.06 120.17 73.84 112.78 53.24 C 112.17 51.19 111.00 48.67 112.71 46.82 C 115.51 44.73 119.24 44.77 122.48 43.80 C 122.45 41.96 122.43 40.11 122.43 38.27 C 106.52 38.04 90.61 38.19 74.69 38.18 M 179.27 52.28 C 172.46 54.08 169.86 63.50 174.29 68.76 C 176.98 72.94 182.69 73.80 187.13 72.33 C 191.86 70.36 194.67 64.97 193.43 59.96 C 192.61 53.62 184.93 50.07 179.27 52.28 M 165.64 79.76 C 165.68 81.23 165.71 82.70 165.74 84.17 C 167.89 84.54 170.18 84.74 172.06 85.95 C 174.12 87.66 173.97 90.62 174.17 93.04 C 174.23 104.35 174.15 115.67 174.20 126.99 C 174.13 129.68 174.21 132.54 173.04 135.03 C 171.16 137.84 167.22 137.37 164.32 138.23 C 164.43 139.91 164.55 141.59 164.69 143.27 C 177.66 142.63 190.68 143.19 203.67 142.98 C 203.66 141.39 203.66 139.81 203.66 138.23 C 200.94 137.82 198.28 137.12 195.65 136.32 C 193.28 132.30 193.84 127.47 193.78 123.01 C 193.74 106.71 193.85 90.40 193.73 74.10 C 184.54 76.78 175.06 78.22 165.64 79.76 M 19.07 132.24 C 19.06 134.02 19.06 135.79 19.07 137.57 C 23.32 138.33 27.86 140.10 29.92 144.17 C 32.62 149.24 34.40 154.75 36.83 159.95 C 43.15 175.58 49.58 191.16 55.56 206.92 C 57.84 206.95 60.13 206.93 62.41 206.86 C 68.56 190.73 75.34 174.85 81.88 158.88 C 84.42 153.46 86.34 147.71 89.63 142.67 C 91.94 139.42 96.02 138.34 99.77 137.82 C 99.91 135.97 100.02 134.11 100.12 132.26 C 90.14 132.20 80.15 132.22 70.17 132.23 C 70.17 133.99 70.17 135.76 70.16 137.52 C 73.14 138.08 76.09 138.89 78.65 140.57 C 78.65 142.73 78.73 144.96 77.95 147.02 C 74.17 158.21 70.42 169.42 66.03 180.39 C 61.89 168.51 57.35 156.76 53.01 144.95 C 52.41 143.32 52.69 141.57 52.70 139.88 C 54.99 139.00 57.30 138.16 59.67 137.51 C 59.70 135.75 59.73 133.99 59.76 132.23 C 46.19 132.23 32.63 132.21 19.07 132.24 M 230.75 147.75 C 227.71 150.11 223.43 152.75 223.70 157.14 C 225.05 162.27 231.13 165.39 236.17 164.38 C 239.89 163.34 240.58 159.15 241.54 155.97 C 242.45 152.04 244.50 148.47 247.32 145.60 C 249.92 145.40 252.98 144.85 255.06 146.87 C 259.44 150.51 259.89 156.78 259.98 162.07 C 259.69 163.52 260.34 165.74 258.59 166.44 C 249.87 171.41 239.84 173.36 230.80 177.61 C 226.62 179.48 223.20 183.27 222.68 187.94 C 220.62 198.85 229.24 210.08 240.14 211.47 C 248.32 213.34 254.00 205.82 260.82 202.93 C 263.04 209.24 271.28 214.19 277.48 210.31 C 282.21 207.76 286.83 204.94 291.87 203.02 C 291.43 201.10 290.91 199.20 290.37 197.31 C 288.65 197.93 286.92 198.75 285.05 198.70 C 281.53 199.05 280.06 194.91 279.82 192.08 C 279.59 181.13 279.88 170.18 279.69 159.24 C 279.57 152.81 277.04 146.01 271.65 142.19 C 267.29 138.72 261.55 137.39 256.08 137.46 C 247.05 139.11 238.58 143.07 230.75 147.75 M 132.20 154.50 C 132.19 156.25 132.19 158.01 132.19 159.77 C 134.89 160.22 137.77 160.36 140.19 161.75 C 142.13 163.21 142.53 165.69 142.44 167.97 C 142.47 194.32 142.46 220.67 142.44 247.02 C 142.57 251.66 143.03 256.54 145.51 260.59 C 147.95 264.83 152.55 267.42 157.22 268.45 C 164.74 269.96 172.40 268.55 179.68 266.53 C 179.67 264.52 179.66 262.51 179.64 260.51 C 175.76 261.44 171.66 262.30 167.71 261.26 C 165.06 259.45 164.71 255.91 164.68 252.97 C 164.64 218.10 164.68 183.22 164.66 148.34 C 154.02 151.20 143.14 153.17 132.20 154.50 M 181.43 161.78 C 181.42 165.97 181.42 170.16 181.51 174.36 C 179.20 174.29 176.89 174.27 174.59 174.29 C 172.92 176.95 169.55 179.13 170.17 182.67 C 173.92 182.85 177.68 182.79 181.44 182.68 C 181.42 198.81 181.38 214.94 181.45 231.08 C 181.57 237.86 183.41 245.55 189.62 249.31 C 195.11 252.27 201.98 253.56 207.91 251.11 C 213.27 248.93 218.41 246.25 223.69 243.89 C 223.20 241.89 222.68 239.90 222.22 237.90 C 218.04 239.06 213.35 240.89 209.14 238.91 C 204.62 236.33 203.84 230.62 203.65 225.91 C 203.57 211.51 203.68 197.11 203.60 182.71 C 209.17 182.75 214.76 182.90 220.33 182.60 C 221.86 180.04 222.10 176.97 220.70 174.30 C 215.00 174.32 209.29 174.26 203.59 174.34 C 203.70 166.12 203.55 157.89 203.67 149.66 C 203.01 149.34 201.69 148.71 201.03 148.39 C 194.48 152.82 188.04 157.44 181.43 161.78 M 97.19 182.12 C 90.16 183.68 83.70 187.58 79.02 193.06 C 69.04 205.11 69.17 224.49 80.01 235.98 C 92.31 248.25 114.60 248.26 126.85 235.90 C 138.64 223.35 138.80 201.01 125.82 189.23 C 118.28 182.15 107.14 179.89 97.19 182.12 Z"/>
<path fill="#dc3200" opacity="1.00" d=" M 248.54 178.46 C 252.31 176.27 255.98 173.68 260.12 172.25 C 260.08 180.55 259.77 188.86 260.11 197.16 C 257.72 198.56 255.09 200.18 252.20 199.50 C 242.82 197.98 240.63 183.29 248.54 178.46 Z"/>
<path fill="#dc3200" opacity="1.00" d=" M 99.50 187.52 C 102.45 185.88 106.34 187.08 108.67 189.32 C 113.06 193.38 114.32 199.59 115.27 205.24 C 115.84 212.40 115.97 219.64 115.22 226.79 C 114.37 231.23 113.37 236.65 108.92 238.89 C 104.42 241.13 99.27 238.26 96.88 234.31 C 93.62 228.76 92.18 222.32 91.64 215.96 C 91.36 209.07 91.09 201.93 93.59 195.38 C 94.73 192.28 96.54 189.19 99.50 187.52 Z"/>
</g>
</svg>