<?xml version="1.0" encoding="UTF-8" ?>
<!DOCTYPE svg PUBLIC "-//W3C//DTD SVG 1.1//EN" "http://www.w3.org/Graphics/SVG/1.1/DTD/svg11.dtd">
<svg width="476pt" height="146pt" viewBox="0 0 476 146" version="1.1" xmlns="http://www.w3.org/2000/svg">
<g id="#ffffffff">
</g>
<g id="#0e294dff">
<path fill="#0e294d" opacity="1.00" d=" M 10.35 8.43 C 14.21 6.86 18.44 9.44 20.07 12.98 C 28.47 29.89 36.83 46.83 45.21 63.76 C 45.81 64.85 46.47 66.38 48.01 66.20 C 49.28 65.83 49.91 64.55 50.69 63.60 C 60.94 48.84 66.43 31.46 70.42 14.11 C 71.36 9.38 77.02 6.35 81.36 8.75 C 84.58 9.99 85.98 13.68 85.28 16.91 C 81.63 36.57 75.01 55.97 63.46 72.46 C 59.93 77.20 56.80 82.38 52.44 86.40 C 47.62 89.07 39.61 88.55 37.31 82.73 C 27.01 61.69 16.64 40.68 6.38 19.63 C 4.26 15.67 5.90 9.89 10.35 8.43 Z" />
<path fill="#0e294d" opacity="1.00" d=" M 125.20 8.22 C 136.55 6.34 148.82 8.06 158.53 14.46 C 179.97 28.07 181.35 62.94 161.72 78.72 C 145.43 91.74 119.37 91.27 103.95 77.04 C 90.49 64.40 88.44 42.30 97.51 26.58 C 103.26 16.58 113.93 10.01 125.20 8.22 M 129.17 21.19 C 124.44 21.94 119.85 24.00 116.40 27.36 C 107.11 36.77 105.97 52.70 113.25 63.61 C 121.39 76.58 142.31 77.59 152.32 66.34 C 161.49 55.76 161.33 38.48 151.92 28.11 C 146.23 22.00 137.24 19.86 129.17 21.19 Z" />
<path fill="#0e294d" opacity="1.00" d=" M 184.34 8.44 C 188.30 6.96 192.13 9.66 194.18 12.89 C 207.46 31.89 220.88 50.80 234.09 69.84 C 236.45 73.27 235.23 77.72 232.70 80.67 C 219.79 98.78 206.95 116.94 194.09 135.09 C 192.55 137.12 190.72 139.31 188.06 139.75 C 184.08 140.55 179.85 137.87 178.75 133.99 C 177.70 131.08 179.00 128.03 180.75 125.71 C 191.86 110.17 202.86 94.54 213.97 79.00 C 215.17 77.28 216.60 75.26 215.97 73.03 C 215.19 70.69 213.48 68.83 212.13 66.80 C 201.41 51.55 190.68 36.31 180.01 21.02 C 176.67 16.72 179.14 9.83 184.34 8.44 Z" />
<path fill="#0e294d" opacity="1.00" d=" M 262.24 13.28 C 263.61 11.10 265.37 8.83 268.06 8.31 C 271.40 7.40 275.09 9.22 276.66 12.25 C 286.66 31.17 296.46 50.22 307.49 68.57 C 310.08 72.91 314.38 77.51 312.72 82.98 C 311.23 88.06 303.82 89.46 300.34 85.60 C 297.40 82.03 295.22 77.91 292.81 73.97 C 278.84 73.94 264.86 74.01 250.88 73.94 C 245.66 74.19 243.49 68.72 240.73 65.30 C 238.12 61.66 233.81 57.32 236.57 52.55 C 244.91 39.33 253.77 26.42 262.24 13.28 M 266.70 33.72 C 261.82 41.23 256.76 48.62 251.98 56.19 C 250.83 57.75 252.21 59.82 254.09 59.56 C 262.72 59.68 271.37 59.56 280.01 59.61 C 281.45 59.77 282.70 59.06 283.90 58.39 C 279.24 49.40 274.41 40.50 269.85 31.46 C 268.64 31.99 267.30 32.44 266.70 33.72 Z" />
<path fill="#0e294d" opacity="1.00" d=" M 347.16 8.21 C 355.76 6.82 364.54 7.73 373.08 9.07 C 376.50 9.82 380.68 10.13 382.80 13.34 C 385.60 17.20 383.12 23.87 378.10 24.10 C 373.73 24.10 369.50 22.74 365.15 22.41 C 356.11 21.46 345.97 22.62 338.93 28.91 C 332.34 34.88 331.43 44.61 332.71 52.93 C 333.61 60.16 337.56 67.30 344.20 70.70 C 351.17 74.16 359.71 74.97 367.00 72.02 C 369.87 70.87 372.90 68.50 372.69 65.07 C 372.40 61.86 373.68 58.00 371.65 55.24 C 366.88 53.30 360.54 56.62 356.50 52.50 C 352.58 48.93 354.82 41.71 360.01 40.86 C 365.34 40.44 370.70 40.77 376.04 40.67 C 379.31 40.52 382.74 41.63 384.79 44.30 C 387.38 47.24 386.89 51.38 386.93 55.00 C 386.79 60.58 387.16 66.18 386.75 71.75 C 385.87 77.80 380.75 82.13 375.46 84.51 C 366.33 88.54 355.89 88.84 346.21 86.85 C 335.56 84.65 325.96 77.66 320.83 68.05 C 314.69 56.71 314.54 42.73 318.79 30.73 C 323.15 18.69 334.49 9.82 347.16 8.21 Z" />
<path fill="#0e294d" opacity="1.00" d=" M 405.13 22.17 C 410.58 14.31 419.48 9.08 428.96 7.91 C 438.67 6.69 449.08 8.17 457.36 13.63 C 465.51 19.02 470.46 28.37 471.70 37.92 C 472.34 41.99 470.27 46.79 465.89 47.62 C 448.85 51.59 431.23 52.00 413.82 52.53 C 414.71 58.90 417.44 65.39 422.95 69.10 C 430.74 74.40 440.85 74.69 449.81 72.88 C 454.31 72.07 458.36 69.34 463.01 69.30 C 467.07 69.29 469.25 74.38 467.77 77.78 C 466.30 80.92 463.07 82.69 460.01 83.98 C 449.19 88.20 436.99 89.38 425.73 86.27 C 416.08 83.60 407.46 77.12 402.65 68.29 C 394.90 54.06 396.05 35.53 405.13 22.17 M 422.46 24.35 C 417.66 28.02 415.39 33.91 414.05 39.59 C 426.39 39.46 438.76 38.84 450.99 37.14 C 452.41 36.69 455.00 36.90 455.21 34.90 C 453.76 28.83 449.19 23.44 443.15 21.58 C 436.34 19.49 428.25 19.85 422.46 24.35 Z" />
</g>
</svg>
