<?xml version="1.0" encoding="UTF-8" standalone="no"?>
<!-- Created with Inkscape (http://www.inkscape.org/) -->
<svg xmlns:dc="http://purl.org/dc/elements/1.1/" xmlns:cc="http://creativecommons.org/ns#" xmlns:rdf="http://www.w3.org/1999/02/22-rdf-syntax-ns#" xmlns:svg="http://www.w3.org/2000/svg" xmlns="http://www.w3.org/2000/svg" xmlns:xlink="http://www.w3.org/1999/xlink" xmlns:sodipodi="http://sodipodi.sourceforge.net/DTD/sodipodi-0.dtd" xmlns:inkscape="http://www.inkscape.org/namespaces/inkscape" width="513" height="104" id="svg2" version="1.1" inkscape:version="0.47 r22583">
  <g inkscape:label="Layer 1" inkscape:groupmode="layer" id="layer1" transform="translate(16.870748,-431.19284)">
    <path id="path4563" d="m 167.56141,431.19302 328.56783,0 -24.02643,103.99982 -328.56783,0 24.02643,-103.99982" style="fill:#241f20;fill-rule:nonzero;stroke:none"/>
    <path id="path4565" d="m 7.1786368,431.19302 160.3827732,0 -24.02643,103.99982 -160.405728,0 24.0493848,-103.99982" style="fill:#f6af26;fill-rule:nonzero;stroke:none"/>
    <path id="path4567" d="m 178.85177,447.2336 35.01848,0 -2.75375,12.02469 -18.05999,0 -3.64871,15.78814 17.16502,0 -2.66196,11.81816 -17.25681,0 -4.03882,17.73872 19.71223,0 -2.75375,12.23122 -36.80841,0 16.08647,-69.60093" style="fill:#ffffff;fill-rule:nonzero;stroke:none"/>
    <path id="path4569" d="m 273.19053,447.1418 16.77491,0 -11.451,49.77397 c -0.20653,0.59664 -0.59664,2.36363 -0.59664,3.85524 0,2.84554 2.06531,4.13062 5.14032,4.13062 4.84201,0 6.01235,-4.13062 6.99911,-7.98586 l 11.45099,-49.77397 16.77491,0 -11.54279,49.77397 c -2.47837,10.64782 -5.92055,20.99731 -24.9673,20.99731 -11.15267,0 -21.02026,-3.94703 -20.72194,-15.28329 0.0918,-3.2586 0.68844,-7.09089 2.47837,-14.68664 l 9.66106,-40.80135" style="fill:#ffffff;fill-rule:nonzero;stroke:none"/>
    <path id="path4571" d="m 326.705,447.2336 16.8667,0 -16.08647,69.60093 -16.8667,0 16.08647,-69.60093" style="fill:#ffffff;fill-rule:nonzero;stroke:none"/>
    <path id="path4573" d="m 352.22305,447.1418 19.52865,0 c 12.32302,0 22.00702,0.20653 22.00702,11.81817 0,1.78993 -0.29832,4.24535 -0.80317,6.60899 l -7.89407,34.30709 c -2.84554,12.62133 -5.5075,16.95848 -19.23033,16.95848 l -29.69457,0 16.08647,-69.69273 z m 14.11295,11.9329 -10.67077,46.12526 c 5.82877,0 6.0353,0 7.41217,-0.20654 1.46867,-0.18358 4.24536,-0.57369 5.62223,-6.49425 l 7.68754,-33.80223 c 0.0918,-0.59665 0.20654,-1.19329 0.20654,-1.78994 0,-3.23565 -2.08826,-3.8323 -4.9338,-3.8323 l -5.32391,0" style="fill:#ffffff;fill-rule:nonzero;stroke:none"/>
    <path id="path4575" d="m 405.20972,447.2336 16.8667,0 -16.08647,69.60093 -16.8667,0 16.08647,-69.60093" style="fill:#ffffff;fill-rule:nonzero;stroke:none"/>
    <path id="path4577" d="m 439.99871,447.2336 27.12441,0 -5.02559,69.60093 -16.59132,0 1.49161,-15.48982 -12.91966,0 -5.92055,15.48982 -18.05999,0 29.90109,-69.60093 z m 11.24447,6.40246 -12.64429,35.7987 9.47748,0 3.16681,-35.7987" style="fill:#ffffff;fill-rule:nonzero;stroke:none"/>
    <path id="path4579" d="m 256.87458,449.25301 c -4.54368,-3.16681 -12.04764,-3.64871 -15.69635,-3.64871 -19.23033,0 -21.98407,9.66106 -24.64603,20.99731 l -6.42541,26.89492 c -0.4819,2.18005 -1.17034,6.01235 -1.17034,8.6743 0,13.10325 11.72637,15.67341 20.90552,15.67341 0.48191,0 0.91792,-0.023 1.37688,-0.023 l 3.83229,4.47484 15.83405,0 -6.24183,-7.32038 c 4.95674,-2.75374 7.68754,-7.68754 9.56927,-15.55866 l 5.53044,-23.45274 c 1.07855,-4.54368 2.54722,-10.76256 2.54722,-15.28329 0,-3.44219 -0.68844,-8.07766 -5.41571,-11.42805 z m -12.43775,20.30888 c -0.98676,4.13062 -5.32391,22.35124 -6.31067,26.11469 -0.91791,3.67166 -1.72109,6.33362 -3.18975,7.89408 l -2.82259,-3.32745 -6.40246,0 c 1.03265,-5.9435 8.35303,-33.84813 9.54632,-37.88696 0.59664,-1.88172 1.49161,-4.24536 5.82876,-4.24536 3.2586,0 4.842,1.78994 4.842,4.45189 0,0.96381 -0.11474,1.56046 -1.49161,6.99911" style="fill:#ffffff;fill-rule:nonzero;stroke:none"/>
    <path id="path4581" d="m 138.57823,507.17347 c -17.07323,-12.04764 -33.25148,-17.55513 -33.25148,-17.55513 -0.80318,1.65225 -1.12445,1.90468 -1.12445,1.90468 15.74225,5.73697 33.75634,18.79431 33.75634,18.79431 l -2.13415,2.08826 C 61.63397,468.62103 9.2439466,513.69067 9.2439466,513.69067 L 7.0638974,510.91398 C 20.557254,498.10906 39.282729,491.15585 39.282729,491.15585 38.089439,488.86106 37.928804,488.9299 37.928804,488.9299 24.894405,491.84429 5.8706073,507.4718 5.8706073,507.4718 L 3.8970891,505.2229 C 17.413394,491.68365 37.699325,483.74368 37.699325,483.74368 c 0.390114,-4.97969 3.235652,-7.48101 3.235652,-7.48101 -2.363632,0.78023 -6.563095,2.86849 -6.563095,2.86849 -10.142966,4.3601 -14.434221,3.44218 -14.434221,3.44218 C 6.9721059,480.64572 7.7064382,471.03055 7.7064382,471.03055 c 7.8481768,6.5172 23.7969578,5.04854 35.8445978,2.98323 10.303601,-1.78994 32.930217,2.04236 32.930217,2.04236 6.425408,0.34422 8.766092,-3.00617 8.766092,-3.00617 l 0.367166,-0.96381 -21.548065,-3.3504 24.714873,-1.0097 -24.53129,-3.8323 26.780183,-0.5278 -27.147349,-3.90114 28.868441,0.0918 -28.98318,-3.99293 40.021116,0 -0.89497,-4.29126 c 0.0459,1.03266 23.24621,15.39803 23.24621,15.39803 0.0688,1.1015 -0.50486,1.6293 -0.50486,1.6293 l -3.14386,1.85878 c -0.27537,0.22948 -0.78022,0.023 -0.78022,0.023 l -4.22242,-0.89497 c -5.07148,-0.87202 -11.10677,-1.92762 -11.10677,-1.92762 l 0,17.25681 c 13.74578,5.75992 34.39888,20.81373 34.39888,20.81373 l -2.203,1.74404" style="fill:#ffffff;fill-rule:nonzero;stroke:none"/>
  </g>
</svg>